<svg height="512" viewBox="0 0 53 58" width="512" xmlns="http://www.w3.org/2000/svg"><g id="001---Lower-Back-Massager" fill="none" transform="translate(-1)"><path id="Shape" d="m49.54 56.84c-.3268948.7099421-1.0384208 1.1634421-1.82 1.16h-11.45c-.8007342-.0066634-1.5221771-.4850114-1.84-1.22-1.7217933-3.514515-2.3088636-7.4772395-1.68-11.34.1411442-.6905012.3350463-1.3691586.58-2.03-4.169-2.918-3.086-6.832-3.38-4.89-.381019 2.0089739-1.5657802 3.7752794-3.28 4.89.018.036.214.583.33 1 .9 3.107.763 7.434-1.43 12.37-.3178229.7349886-1.0392658 1.2133366-1.84 1.22h-11.45c-.7815792.0034421-1.4931052-.4500579-1.82-1.16-6.54-14.56-3.38-28.05-.46-35.84.5284174-1.4236389.9234477-2.8932858 1.18-4.39l.16-10.4c-.19-1.27-.45-2.51-.74-3.75-.140756-.59557119-.0010919-1.22280641.3790643-1.70238806s.9589585-.75871947 1.5709357-.75761194h34.9c.6075675.00030369 1.1820553.27677042 1.5613624.75139068.3793072.47462027.5223025 1.09592727.3886376 1.68860932-1.738 7.415-1.185 13.8.6 18.56 2.92 7.79 6.08 21.28-.46 35.84z" fill="#f9c795"/><path id="Shape" d="m47.55 56.84c-.2600116.6841131-.9083463 1.1426913-1.64 1.16h-9.64c-.8007342-.0066634-1.5221771-.4850114-1.84-1.22-1.7217933-3.514515-2.3088636-7.4772395-1.68-11.34.1411442-.6905012.3350463-1.3691586.58-2.03-4.169-2.918-3.086-6.832-3.38-4.89-.3854952 2.0071354-1.5691794 3.7718354-3.28 4.89.018.036.214.583.33 1 .9 3.107.763 7.434-1.43 12.37-.3178229.7349886-1.0392658 1.2133366-1.84 1.22h-9.64c-.7316537-.0173087-1.3799884-.4758869-1.64-1.16-5.87-14.56-3.03-28.05-.41-35.84.479907-1.4298439.834576-2.8987092 1.06-4.39l.14-10.4c-.17-1.27-.4-2.51-.66-3.75-.1501087-.56399106-.0412051-1.16553624.2971053-1.64110395s.8708676-.77573333 1.4528947-.81889605h31.34c.5788167.04124251 1.1092774.33787122 1.4474741.80941407s.4490644 1.06910918.3025259 1.63058593c-1.576 7.566-1.034 13.9.54 18.56 2.62 7.79 5.46 21.28-.41 35.84z" fill="#fdd7ad"/><path id="Shape" d="m42.936 25.331c.4509912-.5094687 1.130059-.7547074 1.8025078-.6509582.6724489.1037493 1.246025.5422531 1.5224922 1.1639582 1.6590905 3.5902437 2.590032 7.4737551 2.739 11.426 0 5.523-6.847 3.576-9.737 2.508-.798179-.2918933-1.3212383-1.0603881-1.3-1.91.1568189-4.6285874 1.9143921-9.0594533 4.973-12.537z" fill="#f09372"/><path id="Shape" d="m44.67 47c0 .5522847-.4477153 1-1 1-4.65 0-8.32-.86-10.92-2.56.1348305-.6735736.3220666-1.3355868.56-1.98.613.2 2.873 2.54 10.36 2.54.5522847 0 1 .4477153 1 1z" fill="#f9c795"/><path id="Shape" d="m27.25 45.44c-2.6 1.7-6.27 2.56-10.92 2.56-.5522847 0-1-.4477153-1-1s.4477153-1 1-1c7.49 0 9.751-2.337 10.36-2.54.238046.6443765.4252846 1.3063987.56 1.98z" fill="#f9c795"/><path id="Shape" d="m16.6 21.039c-4.432-4.159-9.766-7.245-14.316-11.265-1.59377313-1.58996096-1.72346599-4.12891478-.3-5.873 1.46746462-1.7082141 3.99080584-2.02600982 5.836-.735 4.756 3.775 8.728 8.486 13.6 12.124z" fill="#955ba5"/><path id="Shape" d="m27.307 15.547c2.587 2.168 2.576 6.442-.025 9.546s-6.807 3.865-9.394 1.7-3.748-3.139.962-8.761 5.87-4.652 8.457-2.485z" fill="#b49aca"/><path id="Shape" d="m15.017 15.818c-.472 0-.545-.152-2.175-1.518-.2811919-.2271666-.4178943-.5884053-.3575451-.9448201.0603492-.3564149.3083538-.6525138.6486564-.7744472.3403025-.1219334.7199195-.0507167.9928887.1862673l1.533 1.285c.3218978.2701419.4405598.7127137.2969843 1.107658-.1435754.3949442-.5187526.6579889-.9389843.658342z" fill="#b49aca"/><path id="Shape" d="m28.356 30.811c-.3408314-.1071797-.5985929-.3880492-.6761882-.7368076-.0775954-.3487585.036764-.7124212.3-.954s.6353568-.3243721.9761882-.2171924c.7711648.2418742 1.6121125-.0041611 2.131298-.6235517.5191854-.6193907.614554-1.490385.241702-2.2074483-.2457609-.48825-.0539463-1.0833644.430678-1.3362.4846242-.2528355 1.0824653-.069696 1.342322.4112.747006 1.4342692.5569095 3.1772344-.4817134 4.4167539-1.0386228 1.2395196-2.7214204 1.7317151-4.2642866 1.2472461z" fill="#c03a2b"/><path id="Shape" d="m27.156 34.629c-.3408314-.1071797-.5985929-.3880491-.6761883-.7368076s.036764-.7124213.3-.9540001c.263236-.2415787.6353569-.324372.9761883-.2171923 2.3143944.7212412 4.8354842-.0193248 6.3921274-1.8776768 1.5566431-1.8583521 1.84372-4.4702324.7278726-6.6223232-.1714896-.3173621-.1587624-.7024872.033306-1.0078348s.5337042-.483584.8940278-.4664273c.3603236.0171566.6834789.2270468.8456662.5492621 1.4899942 2.8692979 1.1081859 6.3531437-.9678921 8.8316217-2.0760781 2.4784781-5.439012 3.4652069-8.5251079 2.5013783z" fill="#e64c3c"/></g></svg>