<svg height="512" viewBox="0 0 59 58" width="512" xmlns="http://www.w3.org/2000/svg"><g id="002---Lower-Back-Massager" fill="none"><path id="Shape" d="m4.07 27.8c-.40055916.0001849-.76258028-.2386704-.92-.607-1.286-3.01-1.143-5.851-.757-9.019-2.693-2.533-2.909-7.432-1.293-10.437 2.69-5 9.554-4.788 14.945-4.737.5522847 0 1 .44771525 1 1s-.4477153 1-1 1c-4.459 0-10.97-.429-13.185 3.684-1.02139272 2.1516803-1.03092362 4.6465789-.026 6.806.31892308-1.9820253 1.42445334-3.7513786 3.066-4.907 2.19463397-1.17910604 4.8412629-1.14737822 7.007.084 4.294 2.35 3.762 7.608-.181 9.3-2.76436659 1.0500031-5.84545957.8702818-8.469-.494-.36106115 2.3351313-.108456 4.7240247.733 6.932.1329516.3092147.10142851.664569-.08387881.9455513-.18530732.2809822-.4995359.4498927-.83612119.4494487zm.452-10.483c2.21128809 1.406645 4.95018962 1.7073553 7.414.814 2.384-1.024 2.869-4.145.009-5.711-1.531214-.8827801-3.40368042-.9365153-4.983-.143-1.568.983-2.129 2.961-2.44 5.04z" fill="#2980ba"/><path id="Shape" d="m59 37.84v15.67c.0031822.8953805-.5891345 1.6837744-1.45 1.93-13.284 3.76-24.227 2.987-37.81-.04-1.1735811-.2601554-2.3909699-.2498965-3.56.03l-12.72 2.49c-.59557119.140756-1.22280641.0010919-1.70238806-.3790643s-.75871947-.9589585-.75761194-1.5709357v-16.4c-.00079619-.7194428.38488059-1.383876 1.01-1.74 3.31-1.86 13.8-7.75 17.99-9.42 4.74-1.9 12.18-2.89 17.2 3.83.5433952.7300006 1.3903901 1.1719109 2.3 1.2 3.38.09 11.81.52 18.09 2.49.8379096.2586959 1.4095639 1.0330645 1.41 1.91z" fill="#f9c795"/><path id="Shape" d="m59 37.84v13.67c.0031822.8953805-.5891345 1.6837744-1.45 1.93-13.284 3.76-24.227 2.987-37.81-.04-1.1735811-.2601554-2.3909699-.2498965-3.56.03l-12.72 2.49c-.59557119.140756-1.22280641.0010919-1.70238806-.3790643s-.75871947-.9589585-.75761194-1.5709357v-14.4c-.00079619-.7194428.38488059-1.383876 1.01-1.74 3.31-1.86 13.8-7.75 17.99-9.42 4.74-1.9 12.18-2.89 17.2 3.83.5433952.7300006 1.3903901 1.1719109 2.3 1.2 3.38.09 11.81.52 18.09 2.49.8379096.2586959 1.4095639 1.0330645 1.41 1.91z" fill="#fdd7ad"/><path id="Shape" d="m21.83 31.989h.01c7.432 1.837 5.66 10.42 16.16 10.42 7.46 0 10.67-2.32 12.02-4.07-3.5261808-.5079991-7.0787673-.8118388-10.64-.91-2.1318116-.0541807-4.1199289-1.0869689-5.39-2.8-4.59-6.149-11.854-2.64-12.16-2.64z" fill="#f09372"/><path id="Shape" d="m53.35 14.96c-5.4586888 1.2882212-11.1310378 1.3837267-16.63.28-.5528922-.1184714-1.0275189-.4702937-1.3016336-.9648504-.2741148-.4945566-.3209222-1.0835036-.1283664-1.6151496.3660279-.9488154.5262334-1.9645864.47-2.98.14.07.3-1.74.47-1.68.213 0 2.473 1.13 8.27 1.13 2.7960432.06742723 5.5848014-.3140857 8.26-1.13h.01c.65-.23 1.18 1.38 1.55 1.1-.1871657 1.1033859-.0872978 2.2363693.29 3.29.1933883.5070473.1675505 1.0716305-.0713417 1.5588948-.2388922.4872642-.6693873.8534551-1.1886583 1.0111052z" fill="#84b5cb"/><path id="Shape" d="m54.32 9.1c-.4757827.33184268-.9981255.59132913-1.55.77h-.01c-4.193 1.507-12.328 1.506-16.52 0h-.01c-.1603716-.0537521-.3173277-.11720243-.47-.19 0 0 .15-2.68-.95-2.68h-15.31c-1.4125933-.00392478-2.6843552-.85662304-3.2244005-2.16191471s-.2424961-2.80726938.7544005-3.80808529c.6518558-.66072992 1.5418424-1.03185792 2.47-1.03h28.01c2.2374704-.00174466 4.3446301 1.05219873 5.6852222 2.84359198 1.3405921 1.79139324 1.7574775 4.11025612 1.1247778 6.25640802z" fill="#3b97d3"/><path id="Shape" d="m33.969 22.015c-.2512896-.4918096-.0563096-1.0942104.4355-1.3455s1.0942104-.0563096 1.3455.4355c3.331 6.519 15.169 6.519 18.5 0 .1625558-.318145.482492-.5254006.8392916-.5436957.3567996-.018295.6962563.15515.8905.455.1942437.2998501.2137643.6805507.0512084.9986957-4.069 7.965-17.99 7.97-22.062 0z" fill="#e64c3c"/><path id="Shape" d="m38.57 20.584c-.3776526-.3939327-.3697467-1.0178963.0177657-1.402134s1.0115207-.3868481 1.4022343-.005866c2.408 2.427 7.607 2.433 10.02 0 .2500196-.2607976.62127-.366459.9711474-.2763979.3498773.0900612.6239719.3618394.7169989.7109399.0930271.3491004-.0094799.7212342-.2681463.973458-3.196 3.224-9.662 3.225-12.86 0z" fill="#c03a2b"/></g></svg>