<svg height="512" viewBox="0 0 59 59" width="512" xmlns="http://www.w3.org/2000/svg"><g id="003---Massager" fill="none"><path id="Shape" d="m52.27 57.81c-.386.295 2.43.19-45.94.19-.21523662.0028942-.42566203-.0637405-.6-.19-5.79-4.35-7.64-22.04-1.73-36.81 4.53-11.32 4.5-17.51 4.21-19.87-.03739041-.28517521.0498177-.57264243.23934963-.78897687.18953194-.21633443.46303473-.34058772.75065037-.34102313h39.6c.2876156.00043541.5611184.1246887.7506504.34102313.1895319.21633444.27674.50380166.2393496.78897687-.1065794.95272927-.1366757 1.91246482-.09 2.87l1.05 7c.8336126 3.4093835 1.9199495 6.7519588 3.25 10 5.91 14.77 4.06 32.46-1.73 36.81z" fill="#f9c795"/><path id="Shape" d="m50.137 57.81c-.351.3 2.261.19-41.729.19-.1982944.0023401-.39113786-.0648897-.545-.19-5.263-4.35-6.94-22.04-1.572-36.81 4.115-11.32 4.088-17.51 3.825-19.87-.0439805-.27150815.0286415-.54897041.1999973-.7641172.1713558-.21514678.4255372-.34800424.7000027-.3658828h35.97c.2744655.01787856.5286469.15073602.7000027.3658828.1713558.21514679.2439778.49260905.1999973.7641172-.0981278.9533219-.1268701 1.91251301-.086 2.87l.953 7c.75391 3.3970916 1.7405715 6.7383089 2.953 10 5.371 14.77 3.694 32.46-1.569 36.81z" fill="#fdd7ad"/><path id="Shape" d="m38.61 35.79-8.61 6.7v15.51h-2v-15.51l-8.61-6.7c-.3974888-.3480706-.4556194-.9452983-.1327136-1.3634877.3229057-.4181894.9154143-.513025 1.3527136-.2165123l8.39 6.52 8.39-6.52c.2798637-.2450693.6726316-.314535 1.0195755-.180324.346944.1342109.5907143.4499135.6327968.8195237.0420826.3696103-.1244788.7320318-.4323723.9408003z" fill="#f9c795"/><path id="Shape" d="m19.77 13.1c.1817641 1.1028186.0809568 2.2337179-.293 3.287-.192754.5085644-.1662246 1.0742558.0732795 1.5625484.239504.4882926.6705821.8555558 1.1907205 1.0144516 5.4582442 1.28488 11.1292506 1.3786748 16.627.275.5528651-.1193921 1.027309-.4715709 1.3016354-.9662014.2743265-.4946305.3218441-1.0835863.1303646-1.6157986-.3692682-.9469656-.530911-1.9621779-.474-2.977z" fill="#84b5cb"/><path id="Shape" d="m58.09 7.5c0 .92825771-.3687489 1.81849641-1.0251263 2.47487373-.6563773.65637737-1.546616 1.02512627-2.4748737 1.02512627h-15.31c-1.1 0-.95 2.68-.95 2.68-.1526723.0727976-.3096284.1362479-.47.19-.213 0-2.473 1.13-8.27 1.13-2.7960432.0674272-5.5848014-.3140857-8.26-1.13h-.01c-.5518745-.1786709-1.0742173-.4381573-1.55-.77-.6326997-2.1461519-.2158143-4.46501478 1.1247778-6.25640802 1.3405921-1.79139325 3.4477518-2.84533664 5.6852222-2.84359198h28.01c1.9311715.00439904 3.495601 1.56882845 3.5 3.5z" fill="#3b97d3"/><path id="Shape" d="m18.06 26.015c-.1625559-.318145-.1430353-.6988456.0512084-.9986956.1942438-.29985.5337004-.4732951.8905-.4550001.3567996.0182951.6767358.2255507.8392916.5436957 3.33 6.519 15.168 6.519 18.5 0 .2512896-.4920857.8539143-.6872895 1.346-.436.4920857.2512896.6872896.8539143.436 1.346-4.071 7.965-17.992 7.97-22.063 0z" fill="#e64c3c"/><path id="Shape" d="m22.66 24.584c-.3776526-.3939327-.3697467-1.0178963.0177657-1.402134s1.0115207-.3868481 1.4022343-.005866c2.409 2.427 7.606 2.433 10.02 0 .3907136-.3809821 1.0147219-.3783717 1.4022343.005866s.3954183 1.0082013.0177657 1.402134c-3.197 3.224-9.661 3.225-12.86 0z" fill="#c03a2b"/></g></svg>