<svg height="512" viewBox="0 0 58 58" width="512" xmlns="http://www.w3.org/2000/svg"><g id="006---Vitamins" fill="none"><path id="Shape" d="m31 37v7c0 .45.36.87 1 1.25v6.75c0 3.3137085-2.6862915 6-6 6h-20c-3.3137085 0-6-2.6862915-6-6v-33.1c-.00013395-1.8565667.73727608-3.6371421 2.05-4.95l2.95-2.95 11-3 11 3 2.95 2.95c1.3127239 1.3128579 2.050134 3.0934333 2.05 4.95v16.85c-.64.38-1 .8-1 1.25z" fill="#33907c"/><path id="Shape" d="m28.187 37v7c.0540023.5232383.3565973.9884828.813 1.25v6.75c0 3.31-2.186 6-4.875 6h-16.25c-2.689 0-4.875-2.69-4.875-6v-33.1c-.02256135-1.7912614.56496183-3.5369036 1.666-4.95l2.396-2.95 8.938-3 8.937 3 2.4 2.95c1.0999644 1.4134921 1.6864171 3.1590971 1.663 4.95v16.85c-.4564027.2615172-.7589977.7267617-.813 1.25z" fill="#14a085"/><path id="Shape" d="m32 24h-32v21h31.63c.47-11.648.37-6.9.37-21z" fill="#4fba6f"/><rect id="Rectangle-path" fill="#bdc3c7" height="11" rx="2" width="28" x="2"/><rect id="Rectangle-path" fill="#ecf0f1" height="11" rx="2" width="24" x="4"/><g fill="#95a5a5"><path id="Shape" d="m6 8c-.55228475 0-1-.44771525-1-1v-3c0-.55228475.44771525-1 1-1s1 .44771525 1 1v3c0 .55228475-.44771525 1-1 1z"/><path id="Shape" d="m10 8c-.55228475 0-1-.44771525-1-1v-3c0-.55228475.44771525-1 1-1 .5522847 0 1 .44771525 1 1v3c0 .55228475-.4477153 1-1 1z"/><path id="Shape" d="m14 8c-.5522847 0-1-.44771525-1-1v-3c0-.55228475.4477153-1 1-1s1 .44771525 1 1v3c0 .55228475-.4477153 1-1 1z"/><path id="Shape" d="m18 8c-.5522847 0-1-.44771525-1-1v-3c0-.55228475.4477153-1 1-1s1 .44771525 1 1v3c0 .55228475-.4477153 1-1 1z"/><path id="Shape" d="m22 8c-.5522847 0-1-.44771525-1-1v-3c0-.55228475.4477153-1 1-1s1 .44771525 1 1v3c0 .55228475-.4477153 1-1 1z"/><path id="Shape" d="m26 8c-.5522847 0-1-.44771525-1-1v-3c0-.55228475.4477153-1 1-1s1 .44771525 1 1v3c0 .55228475-.4477153 1-1 1z"/></g><path id="Shape" d="m22.273 30.341-3.634 10c-.1433584.3952089-.5185936.6585529-.939.659h-3.4c-.420773-.0000266-.7965164-.2634468-.94-.659l-3.634-10c-.11124745-.3066847-.0659014-.6483551.12149134-.9154047.18739276-.2670495.49327036-.4259009.81950866-.4255953h2.123c.4201497.0002941.7953089.2631852.939.658l2.271 6.242 2.271-6.242c.1436911-.3948148.5188503-.6577059.939-.658h2.123c.3260617.0000206.6316377.1590065.8187955.426005s.2323915.6084764.1212045.914995z" fill="#fff"/><ellipse id="Oval" cx="47" cy="26" fill="#f3d55b" rx="11" ry="3"/><path id="Shape" d="m58 26v7c0 1.18-2.48 2.2-6.1 2.68-1.6240146.2193862-3.2612462.3263074-4.9.32-4.35 0-8.1-.69-9.89-1.68-.71-.4-1.11-.85-1.11-1.32v-7c0 1.66 4.92 3 11 3s11-1.34 11-3z" fill="#f29c1f"/><path id="Shape" d="m53 37c0 1.66-4.92 3-11 3s-11-1.34-11-3 4.481-2.463 6.11-2.68c3.279 1.814 10.641 1.951 14.78 1.36h.01c.7.4 1.1.85 1.1 1.32z" fill="#f3d55b"/><path id="Shape" d="m53 37v7c0 .47-.4.92-1.11 1.32-3.279 1.814-10.641 1.951-14.78 1.36h-.01c-1.631-.218-6.1-1.034-6.1-2.68v-7c0 1.66 4.92 3 11 3s11-1.34 11-3z" fill="#f29c1f"/><path id="Shape" d="m58 48c0 1.66-4.92 3-11 3s-11-1.34-11-3c0-.47.4-.92 1.1-1.32h.01c4.108.587 11.5.456 14.78-1.36 3.62.48 6.11 1.5 6.11 2.68z" fill="#f3d55b"/><path id="Shape" d="m58 48v7c0 1.66-4.92 3-11 3s-11-1.34-11-3v-7c0 1.66 4.92 3 11 3s11-1.34 11-3z" fill="#f29c1f"/><path id="Shape" d="m7 16h-1c-.55228475 0-1-.4477153-1-1s.44771525-1 1-1h1c.55228475 0 1 .4477153 1 1s-.44771525 1-1 1z" fill="#81ccb8"/><path id="Shape" d="m26 16h-15c-.5522847 0-1-.4477153-1-1s.4477153-1 1-1h15c.5522847 0 1 .4477153 1 1s-.4477153 1-1 1z" fill="#81ccb8"/></g></svg>