<svg height="512" viewBox="0 0 58 59" width="512" xmlns="http://www.w3.org/2000/svg"><g id="007---Citrus-Pipette-Drops" fill="none"><path id="Rectangle-path" d="m22 5h17v9h-17z" fill="#f29c1f"/><path id="Shape" d="m40.35 57.76c-.878.334.075.24-18.35.24-2.209139 0-4-1.790861-4-4v-38c0-2.209139 1.790861-4 4-4h17c2.209139 0 4 1.790861 4 4v12z" fill="#f3d55b"/><path id="Rectangle-path" d="m18 24h25v22h-25z" fill="#f9eab0"/><circle id="Oval" cx="42.996" cy="43" fill="#f29c1f" r="15"/><circle id="Oval" cx="43" cy="43" fill="#e57e25" r="11"/><path id="Shape" d="m10 23v32.67c-.00314737.3341542-.17169358.6450284-.45.83l-2 1.33c-.33059286.2300179-.76940714.2300179-1.1 0l-2-1.33c-.27830642-.1849716-.44685263-.4958458-.45-.83v-32.67z" fill="#9fc9d3"/><path id="Shape" d="m14 12.66v7.34h-14.00000124l.00000124-7.34c-.00083446-1.0611852.42004572-2.0792116 1.17-2.83 2.036-2.03 1.83-2.261 1.83-5.83 0-2.209139 1.790861-4 4-4s4 1.790861 4 4v2.34c0 3.242 3 3.084 3 6.32z" fill="#e57e25"/><path id="Shape" d="m12 20h-10v-7.34c-.01687588-1.0065718.27486849-1.9941753.836-2.83 1.488-2.083 1.307-2.403 1.307-5.83 0-2.21 1.278-4 2.857-4 1.77 0 2.857 2.066 2.857 4 0 2.019-.2 3.718.836 5.17 1.62 2.268 1.307 1.882 1.307 10.83z" fill="#f29c1f"/><path id="Shape" d="m14 17v6c-.0032948 1.1032019-.8967981 1.9967052-2 2h-10c-1.10320187-.0032948-1.9967052-.8967981-2-2v-6z" fill="#f3d55b"/><path id="Shape" d="m7 45c0 .5522847-.44771525 1-1 1h-2v-2h2c.55228475 0 1 .4477153 1 1z" fill="#3b97d3"/><path id="Shape" d="m7 41c0 .5522847-.44771525 1-1 1h-2v-2h2c.55228475 0 1 .4477153 1 1z" fill="#3b97d3"/><path id="Shape" d="m7 49c0 .5522847-.44771525 1-1 1h-2v-2h2c.55228475 0 1 .4477153 1 1z" fill="#3b97d3"/><path id="Shape" d="m7 53c0 .5522847-.44771525 1-1 1h-2v-2h2c.55228475 0 1 .4477153 1 1z" fill="#3b97d3"/><rect id="Rectangle-path" fill="#bdc3c7" height="7" rx="2" width="21" x="20"/><rect id="Rectangle-path" fill="#ecf0f1" height="7" rx="2" width="17" x="22"/><g fill="#f3d55b"><path id="Shape" d="m42.98 55c-5.2844272-.005883-9.9430228-3.4679551-11.472813-8.5261116s.4293412-10.5216957 4.8247904-13.4551631c4.3954493-2.9334674 10.1925176-2.646318 14.2765517.7071683s5.493643 8.9838912 3.4714709 13.8661064c-1.863109 4.4854689-6.2429838 7.4085421-11.1 7.408zm-3.811-2.761c5.1024226 2.1133864 10.9519968-.3096507 13.065469-5.4120377 2.1134723-5.1023871-.3094663-10.952002-5.4118178-13.0655602-5.1023514-2.1135581-10.9520072.309282-13.0656512 5.4115979-2.105396 5.1025561.3152399 10.9466116 5.412 13.066z"/><path id="Shape" d="m44.14 41.23c-.3343532.000223-.646696-.1666699-.8323473-.444745s-.2200444-.6305356-.0916527-.939255l3.07-7.39c.2120774-.5103111.7976889-.7520773 1.308-.54.5103111.2120774.7520773.7976889.54 1.308l-3.071 7.39c-.1550677.3728624-.5191778.6158655-.923.616z"/><path id="Shape" d="m38.79 54.161c-.3340879.0000841-.6461499-.1666752-.8317466-.4444676-.1855966-.2777924-.2202091-.6299193-.0922534-.9385324l3.06-7.39c.2231847-.4902586.7945966-.7156376 1.2923626-.5097398s.7429963.7690757.5546374 1.2737398l-3.059 7.39c-.1542729.3743753-.519084.6187671-.924.619z"/><path id="Shape" d="m53.16 48.21c-.285 0 .287.2-7.773-3.136-.3301134-.1366541-.5622467-.4390411-.6089575-.7932547-.0467108-.3542137.0990974-.7064405.3825-.9240001.2834026-.2175595.6613441-.2673993.9914575-.1307452l7.391 3.06c.4409771.1824958.6915396.6511699.5983647 1.119234s-.5041169.8050562-.9813647.804766z"/><path id="Shape" d="m40.22 42.851c-.286 0 .288.2-7.773-3.137-.5103111-.2115251-.752525-.7966889-.5409999-1.307.211525-.5103111.7966888-.752525 1.3069999-.541l7.39 3.06c.4423387.1816955.6941348.6511321.6008203 1.1201409-.0933144.4690087-.5056209.8063148-.9838203.8048591z"/><path id="Shape" d="m41.85 41.23c-.4046724-.0000657-.7694151-.244017-.924-.618l-3.06-7.39c-.1438373-.3315369-.0976018-.7148862.1209372-1.002717.2185389-.2878309.5753742-.4353537.933365-.3858717s.6614298.2882688.7936978.6245887l3.059 7.39c.127453.3083429.0927301.6599393-.0925749.937395-.1853051.2774556-.4967794.4442173-.8304251.444605z"/><path id="Shape" d="m47.21 54.161c-.4044291.0001018-.7691037-.2434093-.924-.617l-3.07-7.39c-.2120773-.510035.0294651-1.0954226.5395-1.3075.510035-.2120773 1.0954226.0294651 1.3075.5395l3.071 7.39c.1288286.3088254.0946551.6616199-.0910509.939978-.185706.278358-.4983302.4453846-.8329491.445022z"/><path id="Shape" d="m45.76 42.851c-.4780101.0009742-.8898685-.3364834-.9829115-.8053518-.093043-.4688685.1587502-.9380221.6009115-1.1196482l7.4-3.06c.507682-.1996613 1.0817074.0444125 1.2901321.5485601.2084246.5041476-.0256702 1.0823144-.5261321 1.2994399-8.057 3.332-7.5 3.137-7.782 3.137z"/><path id="Shape" d="m32.83 48.21c-.4770598-.0001871-.8875577-.3373304-.9804619-.8052565-.0929043-.4679261.1576586-.9363195.5984619-1.1187435l7.4-3.06c.5063154-.1937331 1.0747938.05125 1.2816809.5523344.2068872.5010844-.0231692 1.0757655-.5186809 1.2956656-8.056 3.332-7.499 3.136-7.781 3.136z"/></g><path id="Shape" d="m23 17h-1c-.5522847 0-1-.4477153-1-1s.4477153-1 1-1h1c.5522847 0 1 .4477153 1 1s-.4477153 1-1 1z" fill="#f0c419"/><path id="Shape" d="m39 17h-12c-.5522847 0-1-.4477153-1-1s.4477153-1 1-1h12c.5522847 0 1 .4477153 1 1s-.4477153 1-1 1z" fill="#f0c419"/><path id="Shape" d="m39.3 41.47c.6945029-1.671046 2.4243976-2.6676767 4.2183829-2.4303039s3.2051477 1.6496153 3.4411479 3.4437817c.2360001 1.7941664-.7619539 3.5232981-2.4335308 4.2165222-1.4955212.6202116-3.2174302.2777414-4.3618166-.8675209s-1.485539-2.8674329-.8641834-4.3624791zm3.7-.47c-.8090638-.0007213-1.5388678.4860787-1.8490061 1.2333397-.3101384.747261-.1395126 1.6077695.4322916 2.1801547.5718041.5723852 1.4321389.7438849 2.1797145.4345056.8587482-.3816145 1.3387173-1.3070753 1.1559431-2.2288516-.1827743-.9217764-.9795553-1.594077-1.9189431-1.6191484z" fill="#f3d55b"/></g></svg>