<svg height="512" viewBox="0 0 55 58" width="512" xmlns="http://www.w3.org/2000/svg"><g id="008---Nail-Varnish" fill="none" transform="translate(-1)"><path id="Shape" d="m14.982 18.679c-.3639263-.0009035-.6986305-.1994448-.8739022-.5183852-.1752717-.3189405-.1634362-.7079205.0309022-1.0156148l4.274-6.762c.1811483-.3225587.5255757-.51875606.8954178-.51005998.3698422.00869608.7046676.22086468.8704556.55158088.1657879.3307162.1354488.7259416-.0788734 1.0274791l-4.275 6.762c-.1829865.2889668-.5009686.4643662-.843.465z" fill="#3d324c"/><path id="Shape" d="m14 32.43c2.5570257 1.8872823 4.04648 4.8922564 4 8.07v15.5c0 1.1045695-.8954305 2-2 2h-13c-1.1045695 0-2-.8954305-2-2v-15.5c-.05283387-3.1791797 1.43798393-6.1869046 4-8.07z" fill="#f9c795"/><path id="Shape" d="m12.941 32.43c2.111 1.957 3.059 5.158 3.059 8.07v15.5c.1117164.9695373-.5641003 1.8535356-1.529 2h-9.942c-.96489967-.1464644-1.64071638-1.0304627-1.529-2v-15.5c-.1170911-2.9935567.98698614-5.9062416 3.059-8.07z" fill="#fdd7ad"/><path id="Shape" d="m6.68 25.45c-1.03.36-1.68.92-1.68 1.55v14c0 1.6568542 1.34314575 3 3 3h3c1.6568542 0 3-1.3431458 3-3v-16z" fill="#f9eab0"/><path id="Shape" d="m14 53h-9c-.55228475 0-1-.4477153-1-1s.44771525-1 1-1h9c.5522847 0 1 .4477153 1 1s-.4477153 1-1 1z" fill="#f9c795"/><path id="Shape" d="m26.792 57.135c-4.524-7.296 4.043-25.735 6.908-31.135h13.6c2.865 5.4 11.432 23.839 6.908 31.135-.3654669.5530249-.9892877.8796623-1.652.865h-24.112c-.6627123.0146623-1.2865331-.3119751-1.652-.865z" fill="#556080"/><path id="Shape" d="m29.078 55.189c-3.769-6.84 3.369-24.125 5.756-29.189h11.332c2.387 5.064 9.525 22.349 5.756 29.189-.2761448.5018153-.8042251.8128342-1.377.811h-20.09c-.5727749.0018342-1.1008552-.3091847-1.377-.811z" fill="#8697cb"/><path id="Shape" d="m50 9c-.273 1.5.934-5.782-2.75 17h-13.5c-3.73-23.065-2.45-15.34-2.75-17 0-1.66 3.15-4 9.5-4s9.5 2.34 9.5 4z" fill="#5d4c72"/><path id="Shape" d="m48 9-2.17 17h-10.66c-2.27-17.818-2.17-16.9-2.17-17 0-1.66 2.49-4 7.5-4s7.5 2.34 7.5 4z" fill="#7d6599"/><path id="Shape" d="m50.61 45.33c-1.47-5.37-6.53-.33-11.39-.33-3.0235691-.062259-5.8374448-1.5582905-7.58-4.03v-.01c0 .23-3.131 8.688-1.89 13.04h21.5c.56-1.95.344-5.074-.64-8.67z" fill="#3d324c"/><path id="Shape" d="m22.64 13.055-6.762-4.275c-.2242995-.14170754-.3830918-.36674182-.4414206-.62556426-.0583289-.25882244-.0114126-.53021567.1304206-.75443574l3.206-5.071c1.4757049-2.3342315 4.5642685-3.03020485 6.8985-1.5545s3.0302049 4.5642685 1.5545 6.8985l-3.207 5.071c-.2950611.4664807-.9122778.605679-1.379.311z" fill="#7d6599"/><path id="Shape" d="m16.762 22.353-2.138 3.381c-1.1806513 1.8667963-3.6509592 2.4232647-5.518 1.243l-4.376-2.766c-.17330367-.1120735-.25993972-.3191121-.21810307-.5212119.04183666-.2020998.20354829-.357728.40710307-.3917881 1.21002449-.1323778 2.29358454-.8094648 2.943-1.839l2.138-3.381c.4251148-.6726208 1.1000306-1.1488018 1.8762556-1.3237759.7762251-.1749742 1.5901664-.0344065 2.2627444.3907759l1.69 1.069c.6726208.4251148 1.1488018 1.1000306 1.3237759 1.8762556.1749742.7762251.0344065 1.5901664-.3907759 2.2627444z" fill="#bdc3c7"/><path id="Shape" d="m39 26h-2.01l-1.98-13.86c-.0567931-.3569039.0834011-.7166816.3667023-.9410615.2833012-.2243798.6656247-.2784457 1.0000339-.1414189.3344093.1370268.5688665.4438235.6132638.8024804 2.171 15.2 2.01 14.034 2.01 14.14z" fill="#b49aca"/></g></svg>