<svg height="512" viewBox="0 0 58 58" width="512" xmlns="http://www.w3.org/2000/svg"><g id="010---Citrus-Face-Rub" fill="none" fill-rule="evenodd"><path id="Shape" d="m42.07 13.5c-.0876631-4.73277424-2.806856-9.02177077-7.05-11.12-2.5955551-1.34208727-5.4359263-2.14487482-8.35-2.36h-5.34s-14.81.64-15.4 13.48c-.2562277 3.9650888-.15917845 7.9451119.29 11.893.97-2.593 5.47-12.653 16.78-14.393 7.9539353 1.1978184 14.929138 5.9534711 18.95 12.92.2899891-3.4659538.3300927-6.9482871.12-10.42z" fill="#84b5cb" fill-rule="nonzero"/><path id="Shape" d="m33 44v11.98c-.0032948 1.1032019-.8967981 1.9967052-2 2h-14c-1.1032019-.0032948-1.9967052-.8967981-2-2v-12.98z" fill="#f9c795" fill-rule="nonzero"/><path id="Shape" d="m9 32.36c-.01.57-1.97 1.12-1.96 1.69-3.84-1.314-6.86-4.009-7.03-8.13-.06-1.59.08-4.2 2.1-4.87 1.52923164-.4109607 3.12490581.382587 3.72 1.85l.12-.01c.04.49 2 .98 2.05 1.47.245 2.781 1.06 5.183 1 8z" fill="#f9c795" fill-rule="nonzero"/><path id="Shape" d="m47.99 25.92c-.0286003.9405877-.2250197 1.8685-.58 2.74-2.01-.62-6.41.72-8.41.94.1-.53.2-1.06.28-1.6.12-.7.64-2.93.72-3.64.02-.15-.014-.29 0-.44.032-.351 2.02-.69 2.05-1.03l.12.01c.5950942-1.467413 2.1907684-2.2609607 3.72-1.85 2.02.67 2.16 3.28 2.1 4.87z" fill="#f9c795" fill-rule="nonzero"/><path id="Shape" d="m44.63 32.12s0-.01-.01 0z" stroke="#000" stroke-linecap="round" stroke-linejoin="round" stroke-width="2"/><g fill-rule="nonzero"><path id="Shape" d="m41.95 23.92c-.075 1.13-.4 3.046-.61 4.16-5.0813861.5700397-9.5230545 3.687633-11.7862719 8.2727476-2.2632175 4.5851147-2.0366275 10.0069652.6012719 14.3872524-1.3240372.8031442-2.7346707 1.4539477-4.205 1.94-1.2649744.4267705-2.6350256.4267705-3.9 0-1.5708706-.5130585-3.0722644-1.2184113-4.47-2.1-3.1227257-1.9810218-5.7828723-4.6104744-7.8-7.71-1.62459169-2.6114525-2.56678572-5.5893358-2.74-8.66 0-1.3.025-.968.04-1.85.057-2.659-.632-4.912-.86-6.967.97-2.593 5.47-16.653 16.78-18.393 0 0 12.23 5.17 18.95 16.92z" fill="#fdd7ad"/><path id="Shape" d="m41.95 23.92c-4.020862-6.9665289-10.9960647-11.7221816-18.95-12.92 3.0880747-.3343773 6.0561666-1.38193918 8.67-3.06 4.1634311 1.7902623 7.7840566 4.6419359 10.5 8.27.0829239 2.5720837.0094552 5.1468298-.22 7.71z" fill="#2980ba"/><path id="Shape" d="m42.17 16.21c-2.7159434-3.6280641-6.3365689-6.4797377-10.5-8.27 3.01-2.14 3.34-4.62 3.35-5.56 4.243144 2.09822923 6.9623369 6.38722576 7.05 11.12.04.9.08 1.81.1 2.71z" fill="#285680"/><path id="Shape" d="m35.02 2.38c-.01.94-.34 3.42-3.35 5.56-2.6138334 1.67806082-5.5819253 2.7256227-8.67 3.06-11.31 1.74-15.81 11.8-16.78 14.393-.37359987-3.0390909-.50401404-6.103155-.39-9.163 3.10187056-5.6338689 8.608031-9.54158549 14.95-10.61 3.629-.558 8.22-1.858 10.5-4.75 1.2945098.37559951 2.5475884.88152159 3.74 1.51z" fill="#3b97d3"/><path id="Shape" d="m35.92 46.93c-.4475029-.004267-.8376863-.3053369-.955308-.7371264-.1176216-.4317896.0659598-.8891559.4494728-1.119796.383513-.23064.8735704-.1783917 1.1998352.1279224.3003285.2819638.3970174.7192459.2435665 1.1015464-.1534508.3823004-.5256377.6313814-.9375665.6274536z" fill="#71c285"/><path id="Shape" d="m56.85 48.74c-2.8053432 6.7568245-10.0759283 10.5041715-17.2068138 8.8685988-7.1308856-1.6355726-12.0416172-8.1768824-11.6219043-15.4808859.419713-7.3040036 6.047418-13.2397389 13.3187181-14.0477129 5.2716362-.5761593 10.4562734 1.6709877 13.6400606 5.9119318 3.1837871 4.2409441 3.894558 9.8467391 1.8699394 14.7480682z" fill="#4c8056"/><circle id="Oval" cx="42.996" cy="42.996" fill="#24ae5f" r="11.004"/><path id="Shape" d="m42.98 55c-5.2845502-.0062478-9.9429851-3.4688002-11.4723211-8.527223-1.5293361-5.0584228.4304535-10.5218932 4.8263711-13.4548811s10.1931034-2.6450274 14.2767215.70916c4.083618 3.3541875 5.4923282 8.9849796 3.4692285 13.8669441-1.8630775 4.4852216-6.2432245 7.4076873-11.1 7.406zm-3.811-2.761c5.1024226 2.1133864 10.9519968-.3096507 13.065469-5.4120377 2.1134723-5.1023871-.3094663-10.952002-5.4118178-13.0655602-5.1023514-2.1135581-10.9520072.309282-13.0656512 5.4115979-2.1045216 5.1014508.316181 10.9438782 5.412 13.062z" fill="#71c285"/><path id="Shape" d="m43 47c-1.7640086.0003609-3.320546-1.1534798-3.8330575-2.8413952-.5125116-1.6879155.1396965-3.5124103 1.6060976-4.4929175 1.4664012-.9805071 3.4016656-.8861222 4.7656935.232428 1.3640279 1.1185501 1.8355978 2.9978529 1.1612664 4.6278847-.6206737 1.4960927-2.08027 2.4720498-3.7 2.474zm0-6.011c-.8093276.0071794-1.5370594.4944296-1.852 1.24-.3354115.8139477-.0991543 1.7515022.5819277 2.3093005.6810819.5577984 1.6468098.604656 2.3786946.1154155s1.0577998-1.3995181.8027647-2.2421145-1.0310404-1.4193474-1.911387-1.4206015z" fill="#71c285"/><path id="Shape" d="m44.15 41.221c-.3339107-.0002498-.645665-.1671453-.8310244-.4448832s-.2198635-.6296673-.0919756-.9381168l3.059-7.39c.2171255-.5004619.7952923-.7345567 1.2994399-.5261321.5041476.2084247.7482214.7824501.5485601 1.2901321l-3.06 7.388c-.1536478.37516-.5185961.6204336-.924.621z" fill="#71c285"/><path id="Shape" d="m38.79 54.161c-.3340879.0000841-.6461499-.1666752-.8317466-.4444676-.1855966-.2777924-.2202091-.6299193-.0922534-.9385324l3.06-7.39c.2231847-.4902586.7945966-.7156376 1.2923626-.5097398s.7429963.7690757.5546374 1.2737398l-3.059 7.39c-.1542729.3743753-.519084.6187671-.924.619z" fill="#71c285"/><path id="Shape" d="m53.16 48.21c-.285 0 .287.2-7.773-3.136-.5103111-.2112489-.7527489-.7961889-.5414999-1.3065.2112489-.5103111.7961888-.7527489 1.3064999-.5415l7.391 3.06c.4409771.1824958.6915396.6511699.5983647 1.119234s-.5041169.8050562-.9813647.804766z" fill="#71c285"/><path id="Shape" d="m40.22 42.851c-.286 0 .288.2-7.773-3.137-.5103111-.2115251-.752525-.7966889-.5409999-1.307.211525-.5103111.7966888-.752525 1.3069999-.541l7.39 3.06c.4423387.1816955.6941348.6511321.6008203 1.1201409-.0933144.4690087-.5056209.8063148-.9838203.8048591z" fill="#71c285"/><path id="Shape" d="m41.85 41.23c-.4046724-.0000657-.7694151-.244017-.924-.618l-3.06-7.4c-.1996613-.507682.0444125-1.0817074.5485601-1.2901321.5041476-.2084246 1.0823144.0256702 1.2994399.5261321l3.059 7.4c.127453.3083429.0927301.6599393-.0925749.937395-.1853051.2774556-.4967794.4442173-.8304251.444605z" fill="#71c285"/><path id="Shape" d="m46.256 53.459-3.039-7.3c-.1867769-.5035015.0574844-1.0646296.5532742-1.2710072.4957899-.2063776 1.066065.0156916 1.2917258.5030072 3.35 8.05 3.148 7.48 3.148 7.764.0020878.4945258-.3576103.9163112-.8462621.9923348s-.9594885-.2165485-1.1077379-.6883348z" fill="#71c285"/><path id="Shape" d="m45.76 42.851c-.4780101.0009742-.8898685-.3364834-.9829115-.8053518-.093043-.4688685.1587502-.9380221.6009115-1.1196482l7.4-3.06c.507682-.1996613 1.0817074.0444125 1.2901321.5485601.2084246.5041476-.0256702 1.0823144-.5261321 1.2994399-8.057 3.332-7.5 3.137-7.782 3.137z" fill="#71c285"/><path id="Shape" d="m32.84 48.21c-.495895.0056537-.9210189-.3529901-.9989699-.8427527-.0779509-.4897627.2148231-.9626676.6879699-1.1112473.755-.313 5.488-2.282 7.319-3.04.5103111-.2112489 1.0952511.0311889 1.3065.5415s-.0311889 1.0952511-.5415 1.3065c-8.443 3.494-.312.129-7.389 3.069-.1216269.0508787-.2521602.0770534-.384.077z" fill="#71c285"/></g></g></svg>