<svg height="512" viewBox="0 0 59 52" width="512" xmlns="http://www.w3.org/2000/svg"><g id="012---Eyebrow-Sculpting" fill="none"><g fill="#393f4a"><path id="Shape" d="m9.926 32c-6.306-.028-9.926-4.429-9.926-12 0-.5522847.44771525-1 1-1s1 .4477153 1 1c0 4.53 1.377 9.942 7.939 10 .3572656.0023222.6861537.195067.8627754.5056292s.1741439.69176-.0065 1c-.1806439.3082399-.5120098.496693-.8692754.4943708z"/><path id="Shape" d="m14.974 28.932c-7.197-.915-7.974-7.95-7.974-10.932 0-.5522847.44771525-1 1-1s1 .4477153 1 1c0 3.046.809 8.259 6.226 8.948.3565888.0424885.6630151.2729185.8028071.603704.1397919.3307855.0914821.711129-.1265669.996463-.2180491.2853339-.5723524.4318405-.9282402.383833z"/><path id="Shape" d="m22.585 25.979c-5.456-.242-8.585-3.514-8.585-8.979 0-.5522847.4477153-1 1-1s1 .4477153 1 1c0 4.436 2.246 6.785 6.674 6.981.3572656.0158983.678911.2211879.8437754.5385381.1648645.3173503.1479012.6985481-.0445 1-.1924011.301452-.5310098.4773602-.8882754.4614619z"/><path id="Shape" d="m28.874 24.922c-6.891-.88-6.88-6.167-6.874-8.708v-.214c0-.5522847.4477153-1 1-1s1 .4477153 1 1v.218c-.006 2.559-.013 6.064 5.126 6.72.3565888.0424885.6630151.2729185.8028071.603704.1397919.3307855.0914821.711129-.1265669.996463-.2180491.2853339-.5723524.4318405-.9282402.383833z"/></g><path id="Shape" d="m58.52 36.18c-3.754-2.467-8.914-8-16.59-11.08v-.01c-7.5795353-3.0594212-16.0719051-2.9368658-23.56.34-6.2454699 2.6954171-11.9277401 6.5423988-16.75 11.34-.41977643.410972-.64359718.981949-.61492808 1.5687098.02866909.5867609.30708665 1.1331986.76492808 1.5012902 2.80337174 2.3245693 5.75639414 4.4625041 8.84 6.4 8.8 5.4 20.09 8.21 29.67 2.99 5.933-3.235 7.509-8.211 17.97-11.2.3905387-.1076411.6804997-.4359936.7390029-.8368482.0585031-.4008547-.1255186-.798383-.4690029-1.0131518z" fill="#f5efca"/><path id="Shape" d="m41.93 25.1v-.01c-6.2909415-2.5624701-13.2665743-2.9080777-19.78-.98 1.1478132.4780262 1.8817942 1.6145529 1.8453354 2.8573945-.0364588 1.2428415-.8358004 2.3343882-2.0096615 2.7443079-1.1738612.4099198-2.4789303.0532467-3.2811346-.8967284-.8022042-.949975-.935267-2.2963462-.3345393-3.384974-1.1.45-2.17.94-3.2 1.47-1.9505584 4.6506767-1.4555058 9.9675144 1.320131 14.1781333 2.7756369 4.210619 7.466871 6.7613371 12.509869 6.8018667 11.661 0 18.761-12.84 12.93-22.78zm-11.93 11.78c-2.209139 0-4-1.790861-4-4s1.790861-4 4-4 4 1.790861 4 4-1.790861 4-4 4z" fill="#26b99a"/><path id="Shape" d="m24 26.88c-.002805 1.2524255-.7833496 2.3713206-1.9577697 2.8064238s-2.4955565.0948461-3.3136873-.8534363-.9610785-2.3050219-.358543-3.4029875c1.2361135-.5056311 2.4978385-.9462335 3.78-1.32 1.1213234.4627522 1.8521023 1.5569455 1.85 2.77z" fill="#fff"/><path id="Shape" d="m58.25 38.03c-2.679572.7400027-5.2438817 1.8471653-7.62 3.29-.474146-3.4256891.0974824-6.9147133 1.64-10.01 2.46 1.92 4.5 3.72 6.25 4.87.3434843.2147688.527506.6122971.4690029 1.0131518-.0585032.4008546-.3484642.7292071-.7390029.8368482z" fill="#fb7b76"/><circle id="Oval" cx="30" cy="32.88" fill="#393f4a" r="4"/><path id="Shape" d="m10.46 2.665c2.7094106-2.13479776 6.2129069-2.98658529 9.6-2.334l35.68 8.661c2.1486139.41346081 3.5552964 2.4903544 3.142 4.639l-.188.972c-.4134608 2.1486139-2.4903544 3.5552964-4.639 3.142l-34.827-8.4c-1.4220293-.34285359-2.9061965-.33392937-4.324.026l-11.942 3.029c-.72438328.1785773-1.47473609-.1752451-1.79780402-.8477391-.32306793-.6724939-.13032393-1.4793826.46180402-1.9332609z" fill="#a56a43"/></g></svg>