<svg height="512" viewBox="0 0 59 59" width="512" xmlns="http://www.w3.org/2000/svg"><g id="014---Haircut" fill="none" transform="translate(0 -1)"><path id="Shape" d="m.805 53.56c-.15544282.0443375-.2793613.1619181-.33179098.3148213-.05242967.1529033-.02673737.3217846.06879098.4521787 5.172 6.593 18.36 5.69 26.743 5.549 3.5730615.0885774 7.1458495-.1871803 10.663-.823 3.2666193-.6253913 6.2530675-2.2643512 8.535-4.684.1077967-.130343.1423875-.3063488.0919363-.4677926s-.1791039-.286436-.3419363-.3322074c-1.0957717-.416189-1.9904298-1.2364115-2.5-2.292-.6153325-1.4053943-.9042317-2.9319446-.845-4.465-.1-7.618 2.811-15.06.223-22.178-3.526-9.689-15.211-12.893-24.153-9.034-.7621095.3746797-1.5558699.6812077-2.372.916-.9472773.157802-1.9048369.2460378-2.865.264-3.6116259.2948959-6.89127848 2.2217425-8.907 5.233-5.061 8.324 1.374 23.049-1.338 29.011-.50372692 1.1766587-1.46981974 2.0939224-2.671 2.536z" fill="#a56a43"/><path id="Shape" d="m30 51.4v7.55c0 .5522847-.4477153 1-1 1h-11c-.5522847 0-1-.4477153-1-1v-7.55z" fill="#f9c795"/><path id="Shape" d="m35.57 34.14c1.02-.75 3.43-2.02 3.43 2.82 0 4.96-3.17 5.91-4.37 6.09h-22.26c-1.2-.18-4.37-1.13-4.37-6.09 0-4.84 2.41-3.57 3.43-2.82z" fill="#f9c795"/><path id="Shape" d="m15.34 22c.68 1.72 2.72 5 8.16 5 7.2 0 8.45.14 12.01 3.73.048.646.073 1.326.073 2.045 0 5.558-.374 9.848-2.271 13.87-1.716 3.657-4.7 7.313-9.812 7.313-5.135 0-8.12-3.632-9.836-7.313-1.885-4.022-2.247-8.337-2.247-13.87 0-5.607 1.498-8.91 3.923-10.775z" fill="#fdd7ad"/><path id="Shape" d="m54.026 29c-1.09 0-1.352-.2-5.9-1.882-2.4220396-.9211397-3.6599051-3.6125965-2.783-6.051l.939-2.626c.2498371-.7134673.7755718-1.2968118 1.4593141-1.6192253.6837424-.3224136 1.4682787-.3569175 2.1776859-.0957747l6.021 2.231c2.421511.921136 3.659258 3.6118903 2.783 6.05l-.314.876c-.6547567 1.8613953-2.4098191 3.1095198-4.383 3.117zm-5.085-10.448c-.352571.0041273-.6644519.2295303-.779.563l-.939 2.626c-.5094833 1.4063246.1993929 2.9618523 1.595 3.5l4.3 1.593c.6532762.2433894 1.3770389.2134729 2.008-.083.905824-.5074656 1.5341739-1.3967093 1.71-2.42.5101036-1.4077676-.2016272-2.9646788-1.6-3.5-6.536-2.422-6.089-2.279-6.295-2.279z" fill="#c03a2b"/><path id="Shape" d="m40.639 15.32c-.259 0 .7.324-11.888-4.332-.5180431-.1932997-.7812997-.7699569-.588-1.288s.7699569-.78129966 1.288-.588l11.54 4.27c.4553065.1682354.7240498.6391412.6373066 1.1167213-.0867431.4775802-.5039199.8239019-.9893066.8212787z" fill="#bdc3c7"/><path id="Shape" d="m52.938 19.871c-.254 0 .476.241-8.9-3.223-.5126595-.1950396-.7725281-.7666372-.5824614-1.2811611s.7591213-.7799148 1.2754614-.5948389l8.55 3.16c.455171.1667098.7252332.6358622.6407959 1.1131913-.0844373.4773292-.4990562.8253647-.9837959.8258087z" fill="#c03a2b"/><path id="Shape" d="m44.389 15.291c-.4854971.0015031-.9019322-.3459286-.9874576-.8238356s.1845713-.9481992.6404576-1.1151644l8.55-3.16c.5163401-.1850759 1.0853947.080315 1.2754614.5948389s-.0698019 1.0861215-.5824614 1.2811611c-9.365 3.461-8.643 3.223-8.896 3.223z" fill="#c03a2b"/><path id="Shape" d="m29.1 20.951c-.485688.0019942-.9025811-.3452863-.9883793-.8233401-.0857983-.4780539.1843103-.9486332.6403793-1.1156599l11.541-4.27c.5180431-.1916428 1.0933572.0729569 1.285.591s-.0729569 1.0933572-.591 1.285c-12.464 4.612-11.63 4.333-11.887 4.333z" fill="#bdc3c7"/><path id="Shape" d="m48.94 13.449c-1.1970681-.0050131-2.2619843-.7613797-2.661-1.89l-.939-2.627c-.8769051-2.43840345.3609604-5.12986034 2.783-6.051l4.3-1.593c1.1539584-.43181821 2.4334215-.37916837 3.548.146 1.4070867.70944444 2.4176544 2.01741102 2.749 3.558.876258 2.43810972-.361489 5.128864-2.783 6.05-6.67 2.471-6.33 2.407-6.997 2.407zm5.085-10.449c-.673 0-.689.083-5.208 1.756-1.3956075.53812473-2.1041663 2.09393144-1.594 3.5l.939 2.627c.0703473.2097253.2221601.382302.4212049.4788143.1990448.0965122.4285617.1088336.6367951.0341857l6.022-2.231c1.3983728-.53532123 2.1101036-2.09223242 1.6-3.5l-.314-.876c-.370364-1.06691277-1.373643-1.78399872-2.503-1.789z" fill="#c03a2b"/><circle id="Oval" cx="42.519" cy="15" fill="#e64c3c" r="2"/></g></svg>