<svg height="512" viewBox="0 0 58 44" width="512" xmlns="http://www.w3.org/2000/svg"><g id="015---Cream-Pot" fill="none" transform="translate(-1)"><path id="Shape" d="m57.36 19.73c-2.61-11.58-8.37-19.54-13.49-18.38l-4.88 1.1c-1.95.44-3.46 2.71-4.42 5.38-.6015539-.22669223-1.2248357-.3908901-1.86-.49-6-1-6.71 3.66-13.71 2.66s-7.5-8-7.5-8-.24.71-1.39 4.03c-.81 2.35-2.32 4.75-1.7 7.81-3.95.55-5.91 1.81-5.91 2.66l-.5 3.48c-.65.3-1 .64-1 1.02v18c0 6.1 33.28 6.21 41.52 2.55 1.5064377 1.621303 3.759923 2.3217106 5.92 1.84l4.88-1.09c5.12-1.16 6.65-10.98 4.04-22.57z" fill="#14a085"/><path id="Shape" d="m2 19.98v2.04c-1.313-.606-1.361-1.412 0-2.04z" fill="#33907c"/><path id="Shape" d="m10.05 18.36c-9.8-1.1-11.017-3.214-1.64-4.52.32773887 1.5773305.88002936 3.099497 1.64 4.52z" fill="#95a5a5"/><path id="Shape" d="m33.46 18.6c-7.795282.606377-15.6287884.5260677-23.41-.24-2.18272263-3.9309679-2.52647914-8.62287858-.94-12.83.67979696-1.97816093 1.6540901-3.84246588 2.89-5.53 0 0 0 8 7 9s7.71-3.66 13.71-2.66c.6351643.0991099 1.2584461.26330777 1.86.49-1.1833812 3.8036721-1.5614115 7.8121546-1.11 11.77z" fill="#f9eab0"/><path id="Shape" d="m15.68 14.95c-4.372-1.463-6.481-4.829-6.57-9.42.67979696-1.97816093 1.6540901-3.84246588 2.89-5.53 0 .678-3.75 10.36 4.32 13.05.3394023.114325.5920313.4010346.6627241.7521281s-.0512905.7132315-.32.95c-.2687095.2367686-.6433218.3121969-.9827241.1978719z" fill="#f3d55b"/><path id="Shape" d="m53.32 42.8c-5.12 1.15-11.38-7.31-13.99-18.89s-.58-21.91 4.54-23.06 11.38 7.3 13.99 18.88.58 21.91-4.54 23.07z" fill="#81ccb8"/><path id="Shape" d="m34.17 23.66c-6.408.43-26.921.825-32.17-1.64v-6.02c0 .96 3.15 1.81 8.05 2.36 7.7812116.7660677 15.614718.846377 23.41.24.1403491 1.698785.3774001 3.3881909.71 5.06z" fill="#bdc3c7"/><path id="Shape" d="m53.32 42.8-4.88 1.09c-1.9.43-3.95-.46-5.92-2.34-7.35-7.02-11.427-25.15-7.95-34.72.96-2.67 2.47-4.44 4.42-4.88l4.88-1.1c-5.12 1.15-7.15 11.47-4.54 23.06s8.87 20.04 13.99 18.89z" fill="#26b99a"/><path id="Shape" d="m15.5 28.06c-.0374968.5260258-.4726624.9350815-1 .94h-.06c-6.08-.38-10.6-1.09-13.44-2.11v-2.15c1.79.77 5.58 1.76 13.56 2.26.5499074.0379977.9680271.5094944.94 1.06z" fill="#81ccb8"/><circle id="Oval" cx="18.5" cy="28" fill="#81ccb8" r="1"/><g fill="#14a085"><path id="Shape" d="m43.131 15.163c-.5131825-.0005068-.942682-.3893896-.994-.9-.44-4.4.2-7.286 1.9-8.567 1.0045469-.72326361 2.3042261-.89627896 3.463-.461.505671.20748617.7510649.78253714.5509939 1.29118756s-.7714728.76242548-1.2829939.56981244c-.5186947-.18034614-1.0923141-.10232797-1.544.21-.616.475-1.577 1.985-1.1 6.757.0282276.2808552-.0635563.5605591-.2527006.7700844-.1891442.2095254-.4580298.3293547-.7402994.3299156z"/><path id="Shape" d="m50.5 36.929c-.5139009-.2024124-.7664123-.783099-.564-1.297.2024124-.5139009.783099-.7664123 1.297-.564.5184895.1803798 1.0919728.101958 1.543-.211.616-.476 1.578-1.985 1.1-6.757-.0552285-.5495233.3454767-1.0397715.895-1.095s1.0397715.3454767 1.095.895c.441 4.4-.2 7.286-1.9 8.567-1.0050919.724643-2.3061906.8980728-3.466.462z"/></g></g></svg>