<svg height="512" viewBox="0 0 46 58" width="512" xmlns="http://www.w3.org/2000/svg"><g id="016---Face-Mask" fill="none"><path id="Shape" d="m28 0h-10c-9.9411255 0-18 8.0588745-18 18v22c0 9.9411255 8.0588745 18 18 18h10c9.9411255 0 18-8.0588745 18-18v-22c0-9.9411255-8.0588745-18-18-18zm-21 20.05c0-2.21 2.69-4 6-4s6 1.79 6 4-2.69 4-6 4-6-1.79-6-4zm22.97 24.2c-.42 2.01-1.92 4.8-6.97 4.8s-6.55-2.79-6.97-4.8c-.16-.76.45-1.42 1.05-1.13 2.85 1.38 8.9 1.424 11.84 0 .6-.29 1.21.37 1.05 1.13zm3.03-20.2c-3.31 0-6-1.79-6-4s2.69-4 6-4 6 1.79 6 4-2.69 4-6 4z" fill="#65ddb9"/><g fill="#46b29d"><path id="Shape" d="m13.02 29.047c-.7626939.0015471-1.5242353-.0593227-2.277-.182-.5335153-.1007918-.8891302-.6088885-.80114663-1.144665.08798353-.5357765.58741633-.9034598 1.12514663-.828335.6390893.1037905 1.2855378.1556268 1.933.155.5591059-.0029387 1.0182504.4411082 1.034 1 .0078248.2618197-.0904611.5156953-.2725452.7039933-.1820842.188298-.43252.2950446-.6944548.2960067 0-1.316.017-1.347-.047 0z"/><path id="Shape" d="m17.193 28.337c-.4861312.0002887-.9020446-.3490695-.9856825-.8279519s.1892328-.9485383.6466825-1.1130481c.5982548-.215254 1.1740005-.4885573 1.719-.816.3059673-.1997935.6965503-.2167858 1.0187127-.044319.3221625.1724668.5245987.5069267.5279912.8723332.0033924.3654065-.1927991.7035673-.5117039.8819858-.7448205.4740372-1.5598727.8273952-2.415 1.047z"/><path id="Shape" d="m6.965 27.469c-.18029584.0003042-.35727936-.0484354-.512-.141-.66875023-.3972317-1.29037585-.8689023-1.853-1.406-.26790643-.2449055-.38206928-.6157529-.2982774-.9689263.08379188-.3531735.35238005-.6332116.70174998-.7316656.34936994-.0984541.72465753.0001367.98052742.2575919.45370843.432477.95489668.8122261 1.494 1.132.38570889.230908.56992759.690815.45028364 1.1241453-.11964395.4333304-.51373969.7335628-.96328364.7338547z"/><path id="Shape" d="m22.05 24.506c-.356725-.0010783-.6858633-.1921032-.8637587-.5013072-.1778953-.309204-.1776062-.6897594.0007587-.9986928.305342-.5180326.5302395-1.0794335.667-1.665.1245402-.5382015.6617985-.8735402 1.2-.749s.8735402.6617985.749 1.2c-.1823802.7819554-.4821108 1.5317876-.889 2.224-.1807904.3049299-.5095066.4913546-.864.49z"/><path id="Shape" d="m3.186 22.626c-.46139101-.0004593-.86257329-.3165298-.971-.765-.18998459-.7848982-.2551165-1.5948287-.193-2.4.04142138-.550904.52159597-.9639213 1.0725-.9225.55090402.0414214.96392134.521596.9225 1.0725-.04659109.5963937.0009913 1.1964042.141 1.778.0727639.2982734.00447918.6134406-.18521334.8548497-.18969252.2414092-.47976616.3823009-.78678666.3821503z"/><path id="Shape" d="m22.476 18.439c-.4035796.0000337-.7676219-.2425297-.923-.615-.2358163-.5593986-.5506927-1.0820596-.935-1.552-.2248987-.277774-.284523-.6544298-.156413-.9880848.12811-.3336549.4244913-.573619.7775-.6295.3530087-.0558809.7090143.0808108.933913.3585848.5036504.6180164.9161736 1.3049937 1.225 2.04.1291289.3086041.0953915.6613366-.0898943.9398683-.1852859.2785317-.4975751.4459649-.8321057.4461317z"/><path id="Shape" d="m4.562 16.7c-.38398744-.0005466-.73374896-.2209174-.89999556-.5670514-.16624661-.346134-.11961323-.7568915.11999556-1.0569486.49075431-.6116081 1.05500634-1.1604104 1.68-1.634.43932161-.327217 1.06013541-.2400742 1.3923924.1954481.33225698.4355224.25227287 1.057299-.1793924 1.3945519-1.416 1.075-1.316 1.668-2.113 1.668z"/><path id="Shape" d="m18.073 14.119c-.482 0-.64-.329-2.224-.727-.3537553-.0803892-.6362298-.3460593-.7381377-.694226s-.0072646-.7242186.2473136-.9826663c.2545783-.2584476.6291599-.3587524.9788241-.2621077.7409526.1852225 1.4630647.4389828 2.157.758.4267812.1969232.6588198.6644871.5575454 1.1234691-.1012743.458982-.5085241.7854871-.9785454.7845309z"/><path id="Shape" d="m9.843 13.439c-.50301067-.0009773-.92700785-.3754413-.99014771-.8744745-.06313986-.4990331.25423151-.9672983.74114771-1.0935255.7344577-.1879515 1.4834365-.3137291 2.239-.376.5490013-.0438267 1.0300967.3645036 1.0760845.9133281s-.3604453 1.0315237-.9090845 1.0796719c-1.385.112-1.825.351-2.157.351z"/><path id="Shape" d="m32.98 29.047c-.062-1.315-.047-1.353-.047 0-.2619348-.0009621-.5123706-.1077087-.6944548-.2960067-.1820841-.188298-.28037-.4421736-.2725452-.7039933.0157496-.5588918.4748941-1.0029387 1.034-1 .6474622.0006268 1.2939107-.0512095 1.933-.155.5377303-.0751248 1.0371631.2925585 1.1251466.828335.0879836.5357765-.2676313 1.0438732-.8011466 1.144665-.7527647.1226773-1.5143061.1835471-2.277.182z"/><path id="Shape" d="m28.467 28.277c-.7225893-.2596074-1.4176563-.5902248-2.075-.987-.3189048-.1784185-.5150963-.5165793-.5117039-.8819858.0033925-.3654065.2058287-.6998664.5279912-.8723332.3221624-.1724668.7127454-.1554745 1.0187127.044319.5449995.3274427 1.1207452.600746 1.719.816.5116213.1928948.7734577.7609434.5878085 1.2752381-.1856492.5142948-.7499429.7841284-1.2668085.6057619z"/><path id="Shape" d="m38.176 26.982c-.2831249-.4738893-.1287004-1.0875591.345-1.371.5391033-.3197739 1.0402916-.699523 1.494-1.132.2577671-.2474064.6279435-.3385023.9710873-.2389726s.6071233.3745639.6925.7215-.0208202.7130662-.2785873.9604726c-.5623115.5370369-1.183599 1.0087054-1.852 1.406-.2277862.1361976-.5003708.1762595-.7577122.1113615-.2573413-.064898-.4783295-.2294324-.6142878-.4573615z"/><path id="Shape" d="m23.086 24.011c-.4068892-.6922124-.7066198-1.4420446-.889-2.224-.1245402-.5382015.2107985-1.0754598.749-1.2s1.0754598.2107985 1.2.749c.1369403.5850394.3614736 1.1460353.666 1.664.1866147.3086578.1925525.693893.0155392 1.0081556s-.5095451.5088495-.8702313.5092315-.6936293-.1935002-.8713079-.5073871z"/><path id="Shape" d="m42.579 22.6c-.2577911-.0623248-.480265-.2245046-.6184795-.4508613-.1382145-.2263568-.1808476-.4983482-.1185205-.7561387.1395336-.5816713.18711-1.1816067.141-1.778-.0414214-.5522847.3727153-1.0335786.925-1.075s1.0335786.3727153 1.075.925c.0616173.8051704-.0035083 1.6150229-.193 2.4-.0627187.2582954-.2256892.4809941-.4529133.6189047-.2272242.1379106-.5000043.1796849-.7580867.1160953z"/><path id="Shape" d="m23.139 18.361c-.5094014-.2129865-.7497912-.798517-.537-1.308.3088264-.7350063.7213496-1.4219836 1.225-2.04.3476633-.4294014.9775986-.4956633 1.407-.148s.4956633.9775986.148 1.407c-.3843073.4699404-.6991837.9926014-.935 1.552-.2129865.5094014-.798517.7497912-1.308.537z"/><path id="Shape" d="m39.325 15.027c-.4316653-.3372529-.5116494-.9590295-.1793924-1.3945519.332257-.4355223.9530708-.5226651 1.3923924-.1954481.6249937.4735896 1.1892457 1.0223919 1.68 1.634.2397209.3001982.2862759.7111854.1197781 1.0573985s-.5166102.5664385-.9007781.5666015c-.795.005-.694-.586-2.112-1.668z"/><path id="Shape" d="m27.019 13.539c-.1115753-.2406769-.1229465-.5158252-.031611-.7648879.0913355-.2490626.2778922-.4516274.518611-.5631121.6939353-.3190172 1.4160474-.5727775 2.157-.758.3496642-.0966447.7242458.0036601.9788241.2621077.2545782.2584477.3492215.6344996.2473136.9826663s-.3843824.6138368-.7381377.694226c-.6202027.1547478-1.2245177.3673462-1.805.635-.501204.2315451-1.0952226.0130966-1.327-.488z"/><path id="Shape" d="m35.906 13.408c-.6252435-.1598895-1.2628219-.2669331-1.906-.32-.5460361-.0509487-.9491663-.5321638-.9036462-1.0786793.0455201-.5465154.5227054-.9544077 1.0696462-.9143207.7555635.0622709 1.5045423.1880485 2.239.376.5348878.1377951.856795.6831122.719 1.218-.1377951.5348878-.6831122.856795-1.218.719z"/><path id="Shape" d="m23 37.047c-3.364 0-6-1.9-6-4.333v-.667c0-.5522847.4477153-1 1-1s1 .4477153 1 1v.667c0 1.243 1.869 2.333 4 2.333s4-1.09 4-2.333v-.667c0-.5522847.4477153-1 1-1s1 .4477153 1 1v.667c0 2.43-2.636 4.333-6 4.333z"/><path id="Shape" d="m20.884 53.993c-.7013289-.0806603-1.395166-.2167526-2.075-.407-.3440468-.0966403-.6104021-.3694865-.6987325-.7157599s.0147837-.7133669.2705-.963c.2557164-.249633.6251857-.3438804.9692325-.2472401.5789444.1620129 1.169782.2780404 1.767.347.5396512.0739859.9208287.5662655.8573592 1.1072544-.0634695.5409888-.5482376.9316746-1.0903592.8787456z"/><path id="Shape" d="m14.978 51.709c-.5747809-.432207-1.1056686-.9198868-1.585-1.456-.3680978-.4120044-.3325044-1.0444022.0795-1.4125s1.0444022-.3325044 1.4125.0795c.3913855.4383235.8247908.8372305 1.294 1.191.4418278.3313708.5313708.9581722.2 1.4s-.9581722.5313708-1.4.2z"/><path id="Shape" d="m11.184 46.62c-.2959533-.7027138-.4697831-1.4507905-.514-2.212-.0295472-.5522847.3942153-1.0239527.9465-1.0535.5522847-.0295472 1.0239528.3942153 1.0535.9465.034341.5463982.1621966 1.0828507.378 1.586.2024124.513901-.050099 1.0945876-.564 1.297s-1.0945876-.050099-1.297-.564z"/><path id="Shape" d="m12.117 40.075c.5106745-.6045563 1.1395495-1.098332 1.848-1.451.3209168-.1688416.70809-.1507236 1.0118368.0473495.3037467.1980731.4764648.5450599.4513805.9068138-.0250843.3617538-.2440398.6815817-.5722173.8358367-1.129.563-1.151 1.2-1.836 1.3-.411895.0592453-.8174294-.1427812-1.0182367-.5072588-.2008074-.3644776-.1549119-.8152175.1152367-1.1317412z"/><path id="Shape" d="m20.145 40.545c-.7308056-.0025312-1.4591401-.0850221-2.172-.246-.3460117-.0893164-.6180901-.3564432-.7137457-.7007563-.0956556-.3443132-.0003561-.7135033.25-.9685001.2503562-.2549967.617734-.35706.9637457-.2677436.5659674.1213867 1.1431617.1827262 1.722.183.5522847.0124264.9899263.4702153.9774999 1.0225s-.4702152.9899264-1.0224999.9775z"/><path id="Shape" d="m24.858 53.99c-.4971344-.0713129-.8642571-.5002903-.857926-1.0024736s.3841518-.921769.882926-.9805264c.597218-.0689596 1.1880556-.1849871 1.767-.347.5318502-.149393 1.0841069.1606498 1.2334999.6925.1493931.5318502-.1606497 1.084107-.6924999 1.2335-.759652.2234678-1.5424395.3590212-2.333.404z"/><path id="Shape" d="m30.281 51.9c-.4001384-.0571081-.7265528-.3494821-.8272076-.7409419-.1006549-.3914597.0442445-.8050212.3672076-1.0480581.4692092-.3537695.9026145-.7526765 1.294-1.191.3680978-.4120044 1.0004956-.4475978 1.4125-.0795s.4475978 1.0004956.0795 1.4125c-.4793314.5361132-1.0102191 1.023793-1.585 1.456-.2115156.1602052-.4783961.2289963-.741.191z"/><path id="Shape" d="m33.746 47.244c-.303327-.0426753-.5703639-.2220164-.7246219-.4866537s-.1787196-.5853764-.0663781-.8703463c.2163534-.5029672.344232-1.0395163.378-1.586.0295472-.5522847.5012153-.9760472 1.0535-.9465.5522847.0295473.9760472.5012153.9465 1.0535-.0446045.7611536-.2184192 1.5091655-.514 2.212-.1696746.4316685-.613903.6900082-1.073.624z"/><path id="Shape" d="m32.98 41.712c-.707-.1-.646-.705-1.836-1.3-.3281775-.154255-.547133-.4740829-.5722173-.8358367-.0250843-.3617539.1476338-.7087407.4513805-.9068138.3037468-.1980731.69092-.2161911 1.0118368-.0473495.7084505.352668 1.3373255.8464437 1.848 1.451.2701486.3165237.3160441.7672636.1152367 1.1317412-.2008073.3644776-.6063417.5665041-1.0182367.5072588z"/><path id="Shape" d="m25.691 40.535c-.5160774-.0727429-.8897534-.5296545-.858643-1.049904.0311104-.5202496.4565744-.9293733.977643-.940096.5788383-.0002738 1.1560326-.0616133 1.722-.183.3460117-.0893164.7133895.0127469.9637457.2677436.2503561.2549968.3456556.6241869.25.9685001-.0956556.3443131-.367734.6114399-.7137457.7007563-.7678183.1736611-1.5539695.2529143-2.341.236z"/></g></g></svg>