<svg height="512" viewBox="0 0 58 58" width="512" xmlns="http://www.w3.org/2000/svg"><g id="020---Honey-Syrup" fill="none"><path id="Shape" d="m47 50.14v4.86c0 1.6568542-1.3431458 3-3 3h-30c-1.6568542 0-3-1.3431458-3-3v-4.86z" fill="#804169"/><path id="Rectangle-path" d="m22 5h30v4h-30z" fill="#a56a43"/><path id="Shape" d="m6 7v14.5c.00496443.5401082.17990662 1.0649348.5 1.5.64564561.8608608 1.76971407 1.2119934 2.79056942.8717082 1.02085538-.3402851 1.70943058-1.2956322 1.70943058-2.3717082v-.5c0-1.6568542 1.3431458-3 3-3s3 1.3431458 3 3v3.5c0 1.3807119 1.1192881 2.5 2.5 2.5s2.5-1.1192881 2.5-2.5v-17.5z" fill="#f0c419"/><path id="Shape" d="m56 31c1.0161682-.0746649 1.9052597.6775066 2 1.692v.846c0 10.747-10.3 19.462-23 19.462h-12c-12.7 0-23-8.715-23-19.462v-.846c.09474029-1.0144934.98383179-1.7666649 2-1.692z" fill="#cc66a1"/><path id="Shape" d="m52 12c-1.1045695 0-2-.8954305-2-2v-6c0-1.1045695.8954305-2 2-2s2 .8954305 2 2v6c0 1.1045695-.8954305 2-2 2z" fill="#cf976a"/><g fill="#f0c419"><path id="Shape" d="m33 44c-.337 0-.127.054-4.447-2.1-.3406694-.1702259-.5550788-.5191744-.553-.9v-5c-.0020788-.3808256.2123306-.7297741.553-.9l4-2c.2814108-.1406214.6125892-.1406214.894 0l4 2c.3406694.1702259.5550788.5191744.553.9v5c.0020788.3808256-.2123306.7297741-.553.9-4.315 2.152-4.119 2.1-4.447 2.1zm-3-3.618 3 1.5 3-1.5v-3.764l-3-1.5-3 1.5z"/><path id="Shape" d="m41 44c-.337 0-.126.054-4.446-2.1-.341058-.1699453-.5558904-.5189509-.554-.9v-5c-.0020788-.3808256.2123306-.7297741.553-.9l4-2c.2814108-.1406214.6125892-.1406214.894 0l4 2c.3406694.1702259.5550788.5191744.553.9v5c0 .5522847-.4477153 1-1 1s-1-.4477153-1-1v-4.382l-3-1.5-3 1.5v3.764l3.447 1.723c.415452.2070599.6337945.6727907.5272238 1.1245837-.1065707.4517929-.510032.7708502-.9742238.7704163z"/><path id="Shape" d="m29 51c-.337 0-.127.054-4.447-2.1-.3406694-.1702259-.5550788-.5191744-.553-.9v-5c-.0020788-.3808256.2123306-.7297741.553-.9l4-2c.2814108-.1406214.6125892-.1406214.894 0l4 2c.3406694.1702259.5550788.5191744.553.9v5c.0020788.3808256-.2123306.7297741-.553.9-4.315 2.152-4.119 2.1-4.447 2.1zm-3-3.618 3 1.5 3-1.5v-3.764l-3-1.5-3 1.5z"/><path id="Shape" d="m25 44c-.4684292.0057459-.8780642-.3144677-.985575-.7704286-.1075108-.455961.1159217-.9254452.537575-1.1295714l3.448-1.718v-3.764l-3-1.5-3 1.5v4.382c0 .5522847-.4477153 1-1 1s-1-.4477153-1-1v-5c-.0020788-.3808256.2123306-.7297741.553-.9l4-2c.2814108-.1406214.6125892-.1406214.894 0l4 2c.3406694.1702259.5550788.5191744.553.9v5c.0020788.3808256-.2123306.7297741-.553.9-4.315 2.152-4.12 2.1-4.447 2.1z"/></g><path id="Shape" d="m16.858 47.99c-.306-.044-7.566-1.17-11.753-9.543-.15969773-.3197527-.13667848-.7004141.06038662-.9985928.19706511-.2981786.53823719-.468574.89500002-.447.35676283.0215741.67491565.2318401.83461336.5515928 3.7 7.4 9.984 8.418 10.25 8.458.5384816.0876005.9073772.5906334.8290776 1.1305459-.0782996.5399124-.5748949.9174295-1.1160776.8484541z" fill="#fff"/><circle id="Oval" cx="4" cy="35" fill="#fff" r="1"/><path id="Shape" d="m22 2c-1.1045695 0-2 .8954305-2 2v-1c0-1.1045695-.8954305-2-2-2s-2 .8954305-2 2v-1c0-1.1045695-.8954305-2-2-2s-2 .8954305-2 2v1c0-1.1045695-.8954305-2-2-2s-2 .8954305-2 2v1c0-1.1045695-.8954305-2-2-2s-2 .8954305-2 2v6c0 1.1045695.8954305 2 2 2s2-.8954305 2-2v1c0 1.1045695.8954305 2 2 2s2-.8954305 2-2v1c0 1.1045695.8954305 2 2 2s2-.8954305 2-2v-1c0 1.1045695.8954305 2 2 2s2-.8954305 2-2v-1c0 1.1045695.8954305 2 2 2s2-.8954305 2-2v-6c0-1.1045695-.8954305-2-2-2z" fill="#cf976a"/><path id="Shape" d="m10 13c-1.1045695 0-2-.8954305-2-2v-8c0-1.1045695.8954305-2 2-2s2 .8954305 2 2v8c0 1.1045695-.8954305 2-2 2z" fill="#cb8252"/><path id="Shape" d="m18 13c1.1045695 0 2-.8954305 2-2v-8c0-1.1045695-.8954305-2-2-2s-2 .8954305-2 2v8c0 1.1045695.8954305 2 2 2z" fill="#cb8252"/></g></svg>