<svg height="512" viewBox="0 0 57 58" width="512" xmlns="http://www.w3.org/2000/svg"><g id="022---Natural-Soap" fill="none"><path id="Shape" d="m15.048 9v-5h-6.048c-1.1045695 0-2-.8954305-2-2s.8954305-2 2-2h8.048c1.1032019.0032948 1.9967052.89679813 2 2v7z" fill="#bdc3c7"/><path id="Shape" d="m15.048 8h4c.5522847 0 1 .44771525 1 1v4h-6v-4c0-.55228475.4477153-1 1-1z" fill="#41767f"/><path id="Shape" d="m13.048 12h8c1.1045695 0 2 .8954305 2 2v5h-12v-5c0-1.1045695.8954305-2 2-2z" fill="#9bc8c2"/><path id="Shape" d="m33.9 52.02c.2934777 1.4682911-.0865273 2.9908249-1.035539 4.1490065s-2.3671277 1.8300893-3.864461 1.8309935h-23.95c-1.49733333-.0009042-2.91544927-.6728119-3.86446098-1.8309935-.9490117-1.1581816-1.32901668-2.6807154-1.03553902-4.1490065l6-30c.46375879-2.3382063 2.51624737-4.0220847 4.9-4.02h11.95c2.3824925.0014389 4.4330318 1.6837181 4.9 4.02 4.584 22.91 3.228 16.129 6 30z" fill="#14a085"/><path id="Shape" d="m24.048 41c0 6.9-2 9-7 9s-7-2.1-7-9 4-16 7-16 7 9.1 7 16z" fill="#81ccb8"/><g fill="#26b99a"><path id="Shape" d="m17.048 55c-.5522847 0-1-.4477153-1-1v-22c0-.5522847.4477153-1 1-1s1 .4477153 1 1v22c0 .5522847-.4477153 1-1 1z"/><path id="Shape" d="m17.048 46c-.2651948-.0000566-.5195073-.1054506-.707-.293l-3-3c-.3789722-.3923789-.3735524-1.0160848.0121814-1.4018186s1.0094397-.3911536 1.4018186-.0121814l3 3c.2859079.2859943.3714219.7160366.216678 1.0896546-.1547439.3736179-.5192821.6172591-.923678.6173454z"/><path id="Shape" d="m17.048 40c-.2651948-.0000566-.5195073-.1054506-.707-.293l-3-3c-.3789722-.3923789-.3735524-1.0160848.0121814-1.4018186s1.0094397-.3911536 1.4018186-.0121814l3 3c.2859079.2859943.3714219.7160366.216678 1.0896546-.1547439.3736179-.5192821.6172591-.923678.6173454z"/><path id="Shape" d="m17.048 46c-.4043959-.0000863-.7689341-.2437275-.923678-.6173454-.1547439-.373618-.0692299-.8036603.216678-1.0896546l3-3c.2510745-.2599566.6228779-.3642126.9725073-.2726972.3496295.0915155.6226744.3645604.7141899.7141899.0915154.3496294-.0127406.7214328-.2726972.9725073l-3 3c-.1874927.1875494-.4418052.2929434-.707.293z"/><path id="Shape" d="m17.048 40c-.4043959-.0000863-.7689341-.2437275-.923678-.6173454-.1547439-.373618-.0692299-.8036603.216678-1.0896546l3-3c.2510745-.2599566.6228779-.3642126.9725073-.2726972.3496295.0915155.6226744.3645604.7141899.7141899.0915154.3496294-.0127406.7214328-.2726972.9725073l-3 3c-.1874927.1875494-.4418052.2929434-.707.293z"/></g><circle id="Oval" cx="35" cy="36" fill="#9fc9d3" r="6"/><path id="Shape" d="m48 39.5c.0005383 2.6435722-1.8797382 4.9135715-4.4771974 5.405181s-5.1772354-.9342555-6.1428026-3.395181c2.7898181-1.2057941 4.2374095-4.307162 3.37-7.22 1.6772575-.562929 3.5229103-.2846439 4.959619.7478046 1.4367087 1.0324486 2.2890419 2.6929922 2.290381 4.4621954z" fill="#84b5cb"/><circle id="Oval" cx="53.5" cy="34.5" fill="#9fc9d3" r="3.5"/><circle id="Oval" cx="46.5" cy="27.5" fill="#84b5cb" r="2.5"/><circle id="Oval" cx="49" cy="51" fill="#84b5cb" r="4"/><circle id="Oval" cx="39" cy="50" fill="#9fc9d3" r="2"/><path id="Shape" d="m33 38c-.5522847 0-1-.4477153-1-1-.0315929-1.0702387.3796808-2.1061138 1.1367835-2.8632165s1.7929778-1.1683764 2.8632165-1.1367835c.5522847-.0016568 1.0013431.4447153 1.0029999.997.0016569.5522847-.4447152 1.0013431-.9969999 1.003-.5411723-.035899-1.0715853.1630423-1.4556669.5459751s-.5846109.9127475-.5503331 1.4540249c0 .5522847-.4477153 1-1 1z" fill="#fff"/></g></svg>