<svg height="512" viewBox="0 0 58 59" width="512" xmlns="http://www.w3.org/2000/svg"><g id="024---Blackheads" fill="none" transform="translate(-1)"><path id="Shape" d="m13.174 32.149c1.819-10.192 2.615-27.025 2.79-31.193.0235639-.53502982.4644518-.95651865 1-.956h14.075c.5344389-.0005906.9748817.4191514 1 .953.093 2.229.363 8.09.872 14.627l12.529 28.24c3.323 5.36.885 10.724-3.29 11.18-2.744.3-4.171-1-10.29-1-.257 0 .659-.5-7.859 4.583l-6.918-4.583c-7.471 0-8.429 1.307-11.236 1-2.34601914-.3377857-4.21766955-2.1298599-4.657-4.459-1-4.53 2.111-8.343 5.24-11.16l5.07-4.321c.8784441-.7470527 1.4701571-1.7760111 1.674-2.911z" fill="#f9c795"/><path id="Shape" d="m14.409 32.149c1.612-10.192 2.318-27.025 2.473-31.193-.0094493-.50456551.3812054-.92656085.885-.956h12.469c.503087.02839339.8938585.44919026.885.953.082 2.229.321 8.09.772 14.627l11.1 28.24c3.041 5.536.636 10.742-2.914 11.18-2.411.3-3.743-1-9.116-1-.227 0 .605-.515-6.962 4.583l-6.128-4.583c-6.656 0-7.454 1.309-9.954 1-2.1-.262-3.679-2.172-4.125-4.457-.886-4.53 1.869-8.343 4.642-11.16l4.488-4.321c.7983398-.7838715 1.3196333-1.8064491 1.485-2.913z" fill="#fdd7ad"/><path id="Shape" d="m24 59c-5.537 0-8.606-6.185-12.447-8.1-.8104828-.5248761-1.80301741-.6883054-2.739-.451-.38693046.1727083-.69541583.4836901-.865.872-.17452198.5246705-.74132949.808522-1.266.634s-.80852198-.7413295-.634-1.266c.34979533-.9422782 1.0736474-1.6979797 2-2.088 1.47000737-.4870668 3.0800186-.3008177 4.4.509 4.186 2.09 7.071 7.89 11.551 7.89s7.388-5.812 11.553-7.9c1.3201188-.8094201 2.9299497-.9956483 4.4-.509.9260762.3904218 1.6497916 1.1459807 2 2.088.1641926.5186126-.1162902 1.073346-.6312875 1.2485485-.5149974.1752024-1.0755796-.0934-1.2617125-.6045485-.1677871-.40375-.4884382-.7247606-.892-.893-.9301511-.2243618-1.9116034-.0581365-2.716.46-3.81 1.91-6.93 8.11-12.452 8.11z" fill="#f9c795"/><path id="Shape" d="m26.5 45.5c-.4043959-.0000863-.7689341-.2437275-.923678-.6173454-.1547439-.373618-.0692299-.8036603.216678-1.0896546l5.18-5.18c.3923789-.3789722 1.0160848-.3735524 1.4018186.0121814s.3911536 1.0094397.0121814 1.4018186l-5.18 5.18c-.1874927.1875494-.4418052.2929434-.707.293z" fill="#2980ba"/><circle id="Oval" cx="43" cy="28" fill="#3b97d3" r="16"/><path id="Shape" d="m50.86 18.94c-6.14 2.76-14.12 7.68-17.95 15.55-3.2309681-5.0191629-2.2796992-11.6503035 2.2319768-15.558747 4.511676-3.9084436 11.2107001-3.9047156 15.7180232.008747z" fill="#fdd7ad"/><path id="Shape" d="m55 28c-.0024516 5.3225625-3.5106643 10.0075081-8.6173891 11.5078542-5.1067249 1.5003461-10.5915398-.5424652-13.4726109-5.0178542 3.83-7.87 11.81-12.79 17.95-15.55 2.6274589 2.2775528 4.1378127 5.5828198 4.14 9.06z" fill="#f9c795"/><g fill="#5f5346"><circle id="Oval" cx="41" cy="22" r="1"/><circle id="Oval" cx="36" cy="27" r="1"/><circle id="Oval" cx="38" cy="32" r="1"/><circle id="Oval" cx="43" cy="35" r="1"/><circle id="Oval" cx="47" cy="30" r="1"/><circle id="Oval" cx="42" cy="28" r="1"/><circle id="Oval" cx="47" cy="23" r="1"/><circle id="Oval" cx="50" cy="27" r="1"/></g><path id="Shape" d="m43 41c-7.1797017 0-13-5.8202983-13-13s5.8202983-13 13-13 13 5.8202983 13 13c-.008266 7.1762751-5.8237249 12.991734-13 13zm0-24c-6.0751322 0-11 4.9248678-11 11s4.9248678 11 11 11 11-4.9248678 11-11c-.0071635-6.0721626-4.9278374-10.9928365-11-11z" fill="#285680"/></g></svg>