<svg height="512" viewBox="0 0 58 59" width="512" xmlns="http://www.w3.org/2000/svg"><g id="025---Clean-Face" fill="none"><path id="Shape" d="m54.4 33.12c1.346546.3456374 2.360879 1.4554496 2.5843136 2.8275751.2234345 1.3721254-.386392 2.746413-1.5537135 3.5014042-1.1673215.7549913-2.6708172.7475419-3.8306001-.0189793l-1.49-2.07c-.3499707-1.3533567.1467973-2.7845217 1.26-3.63z" fill="#9fc9d3"/><path id="Shape" d="m44.75 36.29c2.8460606-.9558476 5.9327995.5472566 6.9353464 3.3772046 1.002547 2.8299479-.449565 5.9410008-3.262634 6.9899756-2.8130691 1.0489748-5.9475937-.3517516-7.0427124-3.1471802z" fill="#84b5cb"/><path id="Shape" d="m8.95 35.21-.62.01c-1.93-.39-5.94-2.01-5.94-8.72 0-4.719 1.687-6.594 5.24-3.83-.05695455 4.2174695.38613574 8.4268272 1.32 12.54z" fill="#f09372"/><path id="Shape" d="m47.65 26.5c0 5.49-2.779 8.243-6.3 8.78l-.26-.07c.9281453-4.1141176 1.3711643-8.3227972 1.32-12.54 3.617-2.813 5.24-.787 5.24 3.83z" fill="#f09372"/><path id="Shape" d="m20.68 21.79-3.88-1.29c-1.1035942-.3730559-2.3108562-.2865654-3.35.24-.4943143.2454836-1.0940469.0440809-1.34-.45-.1205304-.2358372-.1418525-.5100523-.0592264-.7616863s.2623528-.459833.4992264-.5783137c1.5173684-.766772 3.2788957-.8928527 4.89-.35l3.88 1.29c.5246705.1767311.8067311.7453295.63 1.27s-.7453295.8067311-1.27.63z" fill="#f9c795"/><path id="Shape" d="m37.89 20.29c-.2459531.4940809-.8456857.6954836-1.34.45-1.0391438-.5265654-2.2464058-.6130559-3.35-.24-4.08 1.356-3.961 1.34-4.2 1.34-.4927375.003865-.9148502-.3517837-.9946449-.8380326-.0797947-.486249.2065147-.9581515.6746449-1.1119674l3.88-1.29c1.6111043-.5428527 3.3726316-.416772 4.89.35.2368736.1184807.4166003.3266797.4992264.5783137s.061304.5258491-.0592264.7616863z" fill="#f9c795"/><path id="Shape" d="m41.72 32.65c1.0026007-3.7729406 1.4771205-7.6666958 1.41-11.57-4.385-7.516-10.574-15.308-18.13-19.69-7.461 4.374-13.944 12.263-18.1 19.56 0 5.576.518 8.244 2.05 14.26.44661337 1.8429097 1.0798853 3.6355048 1.89 5.35.757 1.614.515 1.141 4.44 6.31-.0426206.0225329-.0774671.0573794-.1.1 3.3001937 3.2655237 8.0069909 4.6783124 12.56 3.77l.014-.02c4.0784172-.8537281 7.6252144-3.3494349 9.806-6.9z" fill="#f9c795"/><path id="Shape" d="m25 2.39c-8.98 5.21-14.77 13.89-17.39 18.5-.26.47-.49.89-.7 1.26v.01c-.07-.04-.14-.09-.21-.14l.01-.02c-4.53854931-5.6746843-6.50959154-12.98275814-5.44-20.17l.41-1.83h18.32c1.7298023.65723532 3.4021875 1.45663545 5 2.39z" fill="#9bc8c2"/><path id="Shape" d="m44.23 20.77c-1.006 1.395-.97 1.17-.92 1.27-.06.05-.13.08-.19.13-.01 0-.01.01-.02.01-.065-.108-.608-1.107-.67-1.22-5.166-8.984-12.476-17.107-22.43-20.96h28.32l.41 1.83c.9812163 6.6566683-.6295154 13.436059-4.5 18.94z" fill="#41767f"/><path id="Shape" d="m20.68 21.79-3.88-1.29c-1.1035942-.3730559-2.3108562-.2865654-3.35.24-.4943143.2454836-1.0940469.0440809-1.34-.45-.1205304-.2358372-.1418525-.5100523-.0592264-.7616863s.2623528-.459833.4992264-.5783137c1.5173684-.766772 3.2788957-.8928527 4.89-.35l3.88 1.29c.5246705.1767311.8067311.7453295.63 1.27s-.7453295.8067311-1.27.63z" fill="#cb8252"/><path id="Shape" d="m37.89 20.29c-.2459531.4940809-.8456857.6954836-1.34.45-1.0391438-.5265654-2.2464058-.6130559-3.35-.24-4.08 1.356-3.961 1.34-4.2 1.34-.4927375.003865-.9148502-.3517837-.9946449-.8380326-.0797947-.486249.2065147-.9581515.6746449-1.1119674l3.88-1.29c1.6111043-.5428527 3.3726316-.416772 4.89.35.2368736.1184807.4166003.3266797.4992264.5783137s.061304.5258491-.0592264.7616863z" fill="#cb8252"/><path id="Shape" d="m21.25.51c-3.6149606 1.68865204-6.839744 4.10979355-9.47 7.11-.209018.31444692-.5773256.48435474-.9522027.43927057-.374877-.04508418-.6923976-.29747235-.8209007-.65251088-.12850314-.35503853-.04607572-.75218441.2131034-1.02675969 2.0864302-2.58515693 4.6451602-4.75023618 7.54-6.38h2.24c.172.067.876.34 1.25.51z" fill="#547580"/><circle id="Oval" cx="8" cy="10" fill="#547580" r="1"/><path id="Shape" d="m42.93 21.87c-.15-.28-.32-.58-.5-.91-2.147-3.734-1.512-2.1-1.8-3.92-.62-4.58-2.26-7.84-4.96-9.9-.3078935-.20876851-.4744549-.57119002-.4323723-.94080028.0420825-.36961025.2858528-.68531279.6327968-.81952375.3469439-.13421096.7397118-.0647453 1.0195755.18032403 4.91 3.755 6.04 10.148 6.04 16.31z" fill="#3f5c6c"/><circle id="Oval" cx="39" cy="38" fill="#9fc9d3" r="6"/><circle id="Oval" cx="52.5" cy="31.5" fill="#84b5cb" r="2.5"/><circle id="Oval" cx="54" cy="52" fill="#84b5cb" r="4"/><circle id="Oval" cx="43" cy="52" fill="#9fc9d3" r="2"/><path id="Shape" d="m37 40c-.5522847 0-1-.4477153-1-1-.0315929-1.0702387.3796808-2.1061138 1.1367835-2.8632165s1.7929778-1.1683764 2.8632165-1.1367835c.5522847-.0016569 1.0013431.4447153 1.003.997s-.4447153 1.0013431-.997 1.003c-.5411723-.035899-1.0715853.1630423-1.4556669.5459751s-.5846109.9127475-.5503331 1.4540249c0 .5522847-.4477153 1-1 1z" fill="#fff"/><path id="Shape" d="m17.38 45.46c-2.1586191.9654068-3.6903577 2.9476567-4.08 5.28-.139.306-.6.2-.6-.03-.4075932-2.308169-1.920894-4.2698551-4.05-5.25-.19550794-.0655998-.32884875-.2467998-.33333073-.4529711-.00448199-.2061713.12085831-.3929948.31333073-.4670289 2.227-.862 3.464-2.876 4.05-5.19v-.03l.03-.12c.0586195-.1051768.1695907-.1703708.29-.1703708s.2313805.065194.29.1703708c.3694488 2.3524088 1.8996959 4.3601532 4.07 5.34.1910373.0699152.3196823.2497906.3241037.4531717.0044213.203381-.1162852.3886771-.3041037.4668283z" fill="#f5efca"/><g fill="#f3d55b"><path id="Shape" d="m5 53c-.55228475 0-1-.4477153-1-1v-2c0-.5522847.44771525-1 1-1s1 .4477153 1 1v2c0 .5522847-.44771525 1-1 1z"/><path id="Shape" d="m5 59c-.55228475 0-1-.4477153-1-1v-2c0-.5522847.44771525-1 1-1s1 .4477153 1 1v2c0 .5522847-.44771525 1-1 1z"/><path id="Shape" d="m9 55h-2c-.55228475 0-1-.4477153-1-1s.44771525-1 1-1h2c.55228475 0 1 .4477153 1 1s-.44771525 1-1 1z"/><path id="Shape" d="m3 55h-2c-.55228475 0-1-.4477153-1-1s.44771525-1 1-1h2c.55228475 0 1 .4477153 1 1s-.44771525 1-1 1z"/></g><path id="Shape" d="m21.445 33.832c-.4595009-.306518-.583518-.9274991-.277-1.387.3065181-.4595009.9274991-.583518 1.387-.277 1.4799362.9891491 3.4100638.9891491 4.89 0 .297245-.1982824.6776931-.2229246.9980332-.0646441s.5319049.4754371.555.832-.1457882.6983617-.4430332.8966441c-2.1514356 1.439441-4.9585644 1.439441-7.11 0z" fill="#f09372"/><path id="Shape" d="m25 42c3.521 0 5.869-2.4 4.7-2.4s-3.526-1.6-4.7-1.6-3.521 1.6-4.695 1.6 1.174 2.4 4.695 2.4z" fill="#df4d60"/><path id="Shape" d="m26 47h-2c-.5522847 0-1-.4477153-1-1s.4477153-1 1-1h2c.5522847 0 1 .4477153 1 1s-.4477153 1-1 1z" fill="#f09372"/><path id="Shape" d="m19.679 25.053c-.035.011-3.445 1.123-6.079-.853-.3960804-.2952152-.9483792-.2569791-1.3.09-.3511209.3632656-.8045884.6109286-1.3.71-.5522847 0-1 .4477153-1 1s.4477153 1 1 1c.7467355-.0400537 1.4641538-.3038155 2.059-.757.151.09.3.17.454.247-.1340903.2034842-.3087328.3771054-.513.51-.5522847 0-1 .4477153-1 1 0 1.229 1.847 1.7 3.473-.819 1.6111637.3291562 3.2791971.2483506 4.851-.235.5164777-.1826155.7898886-.7467849.6132077-1.2653227-.1766809-.5185379-.7376779-.7984003-1.2582077-.6276773z" fill="#393f4a"/><path id="Shape" d="m39 25c-.4926367-.0993298-.9435153-.3458659-1.293-.707-.3518492-.3518644-.9088739-.3914997-1.307-.093-2.621 1.965-6.008.877-6.078.853-.5227375-.1783879-1.091112.1007625-1.2695.6235-.1783879.5227375.1007625 1.091112.6235 1.2695 1.5716688.4841161 3.2398958.5649311 4.851.235.508.789 1.379 1.819 2.473 1.819.5570459.0028164 1.0126955-.4430247 1.022-1 .0056485-.2632661-.0949969-.5177078-.2792108-.7058732-.1842139-.1881653-.4364625-.2941874-.6997892-.2941268-.2215905-.1272115-.4105663-.3042052-.552-.517.15-.077.3-.155.45-.245.5942558.4549744 1.3117255.7204974 2.059.762.5522847 0 1-.4477153 1-1s-.4477153-1-1-1z" fill="#393f4a"/></g></svg>