<svg height="512" viewBox="0 0 58 58" width="512" xmlns="http://www.w3.org/2000/svg"><g id="026---Hand-Cream" fill="none"><path id="Shape" d="m49 43-18.17 2.5-.83.62c-.87-1.3.325.9-3.85-7.09.6309601-1.8666652 2.0830833-3.340902 3.94-4-.346-1.988.215-3.577 2.16-4.23 5.87-1.96 3.43-5.72 3.43-5.72 6.83 1.43 11.72 6.09 10.68 9.53-.12.522-.187.253-.02.42 2.233 1.489 2.675 5.291 2.66 7.97z" fill="#26b99a"/><path id="Shape" d="m47.76 36.63c-1.77 2.81-6.28 3.84-6.48 3.89-.0728547.0111646-.1463264.0178438-.22.02-.5179295.0115126-.9588964-.3744327-1.0161063-.8893215-.0572099-.5148889.2882821-.9882184.7961063-1.0906785 1.26-.28 4.69-1.44 5.47-3.46.01-.02.02-.05.03-.07.5955932.4108389 1.0828163.9598227 1.42 1.6z" fill="#14a085"/><path id="Shape" d="m36.65 31.46c-2.2330239.1652908-4.4297331.6571919-6.52 1.46-.1682434.6918459-.1819008 1.4122746-.04 2.11.1447916.0000607.2879467-.0306154.42-.09 1.9952046-.821479 4.1081642-1.3210285 6.26-1.48.3572656-.0214359.6759567-.2318425.8360254-.5519615.1600688-.3201191.1371969-.7013169-.06-1-.1971968-.2986831-.5387598-.4694744-.8960254-.4480385z" fill="#14a085"/><path id="Shape" d="m29 1v8l6 6v4c0 1.1045695.8954305 2 2 2h2c1.1045695 0 2-.8954305 2-2v-4l6-6v-8c0-.55228475-.4477153-1-1-1h-16c-.5522847 0-1 .44771525-1 1z" fill="#bdc3c7"/><path id="Shape" d="m57 52h-8c2.7614237 0 5 2.2385763 5 5 0 .5522847-.4477153 1-1 1h-27.07c-2.5410326-.0009726-5.003538-.8806912-6.97-2.49l-18.59-15.21c-.23568065-.1857115-.37226355-.4699516-.37-.77v-19.54c-.00270108-.2660353.10178817-.5219616.28991326-.7100867s.4440514-.2926144.71008674-.2899133c4.07.03 19.14 1.04 20 14.01 9.305 10.89 8.6 10.018 9 10.62l.83-.62h19.17c1.6516409.0125192 2.9874808 1.3483591 3 3v1h1c3.823 0 5.086 5 3 5z" fill="#fdd7ad"/><path id="Shape" d="m47 1v8h-18v-8c0-.55228475.4477153-1 1-1h16c.5522847 0 1 .44771525 1 1z" fill="#26b99a"/><path id="Shape" d="m47 9-6 6h-6l-6-6z" fill="#ecf0f1"/><g fill="#f9c795"><path id="Shape" d="m53 47h-17c-.5522847 0-1-.4477153-1-1s.4477153-1 1-1h16.82c.1917415.6481898.2529236 1.3279904.18 2z"/><path id="Shape" d="m33.5 48.93c.0038197.9458382-.5356306 1.8098918-1.3870966 2.2217537-.8514659.411862-1.8637509.2983972-2.6029034-.2917537-3.12-2.51-10.77-8.49-14.38-9.93-.5136248-.2043454-.7643453-.7863752-.5599999-1.3.2043453-.5136248.7863751-.7643453 1.2999999-.56 3.72 1.49 10.99 6.955 14.89 10.22.136302.1139138.326776.1372079.4865126.0594982s.2589792-.241947.2534874-.4194982c-.0097481-2.0892725-.6626714-4.1248571-1.87-5.83.13.17.25.34.37.52l.83-.62h1.08c1.0478751 1.8001151 1.5967334 3.8471147 1.59 5.93z"/><path id="Shape" d="m58 51c0 .5522847-.4477153 1-1 1h-21c-.5522847 0-1-.4477153-1-1s.4477153-1 1-1h21.87c.0893041.3257307.1330533.6622628.13 1z"/></g></g></svg>