<svg height="512" viewBox="0 0 44 58" width="512" xmlns="http://www.w3.org/2000/svg"><g id="027---Hand-Moisturising" fill="none" transform="translate(-1)"><path id="Shape" d="m44.76 30.21c-3.981 10.071-5.787 16.573-8.9 19.59-3.411 3.307-9.362 1.95-13.56 5.94-.5274193.5048249-.963816 1.0968359-1.29 1.75-.1717228.3194011-.5074155.5161865-.87.51h-11.78c-.30247925.0006955-.58901868-.1355586-.77939447-.3706144s-.26412714-.5436506-.20060553-.8393856c2.368-11.375 5.209-11.357 11.62-15.5.5038179-.3366035.8044785-.9041004.8-1.51 0-2.867-.1-5.626 1.69-7.93.3925874-.5525675.9099132-1.0047993 1.51-1.32.01 0 .01-.01.02-.01.95-.44 1.98-.09 1.98 1.15v2.01c.0036091-2.6743048 1.3383477-5.1713158 3.56-6.66.482285-.3210563 1.10219-.3504039 1.6126489-.0763461.5104589.2740579.8284941.8069717.8273511 1.3863461v12.34l.85-10.75c.2446341-2.7419059 1.7051291-5.229885 3.98-6.78.4196637-.2415973.9360912-.2420173 1.3561472-.0011028s.6804705.6868762.6838528 1.1711028c.057.286.115-.484-1.2 11.45 1.19-2.76 3.67-6.23 6.36-7.65 1.6-.84 2.4.42 1.73 2.1z" fill="#fdd7ad"/><path id="Shape" d="m21.49 31.85c-1.787 2.306-1.69 5.081-1.69 7.93.0044785.6058996-.2961821 1.1733965-.8 1.51-1.64 1.06-3.46 2.01-5.09 3.16-1.412-2.824-4.071-3.185-6.35-4.48-4.388-2.488-5.255-5.169-5.78-9.62-.31-2.6-.61-10.84-.78-16.34-.06-1.8 1.13-2.71 2.34-1.38 2.13917319 2.7024371 3.4208044 5.9831343 3.68 9.42.05.1-.241 1.105 2.6-10.71.05266623-.5128276.37223428-.9597203.8404901-1.1753645.4682557-.21564406 1.0155809-.16797845 1.4395099.1253645.9307073 1.066572 1.5438923 2.3726213 1.77 3.77.2542594 1.3762284.2133572 2.7907629-.12 4.15l-2.53 10.53 4.27-11.88c.1543442-.431123.5073826-.7611755.9479059-.8861888.4405233-.1250134.9143025-.0295983 1.2720941.2561888 1.1362597 1.2535481 1.7420714 2.8989182 1.69 4.59.0016945.5495553-.0654958 1.0971563-.2 1.63 0 .2-.5 1.587.18-.35.6-1.678 3.341-1.165 3.78 2.9.352 3.316-1.784 6.85-1.47 6.85z" fill="#fdd7ad"/><path id="Shape" d="m21.55 31.57c-.029195.0917694-.0525747.1852882-.07.28h.01c-1.787 2.306-1.69 5.081-1.69 7.93.0044785.6058996-.2961821 1.1733965-.8 1.51-1.64 1.06-3.46 2.01-5.09 3.16-.301686-.6041236-.7002972-1.1547475-1.18-1.63 1.6220363-1.1858655 3.3152086-2.2712323 5.07-3.25-.1238241-2.4698582.3280632-4.9346979 1.32-7.2.7686054-1.6872143 1.9950607-3.1250079 3.54-4.15-.3127569 1.1348265-.683239 2.252948-1.11 3.35z" fill="#f9c795"/><path id="Shape" d="m37 12c0 3.8659932-3.1340068 7-7 7s-7-3.1340068-7-7c0-2.678 3.359-8.348 5.424-11 .377681-.48725814.9595072-.77241906 1.576-.77241906s1.198319.28516092 1.576.77241906c2.065 2.652 5.424 8.322 5.424 11z" fill="#90bae1"/><path id="Shape" d="m28.758 15.97c-1.2583596-.224102-2.3374681-1.0282453-2.912-2.17-.5022389-1.3892289-.40852-2.9241921.259-4.242.2460429-.49457099.846429-.69604286 1.341-.45s.6960429.84642901.45 1.341c-.3966318.7798501-.4793011 1.6820545-.231 2.521.3326595.5797959.9149099.9730088 1.577 1.065.497481.1640393.7840672.6841829.6569583 1.1923557-.1271088.5081728-.6248313.8321379-1.1409583.7426443z" fill="#b0d3f0"/><g fill="#f9c795"><path id="Shape" d="m31 28.33v13.37c0 .5522847-.4477153 1-1 1s-1-.4477153-1-1v-14.88c.4737501-.1370881.9844042-.0428401 1.3780062.2543295.3936021.2971695.6240972.7624891.6219938 1.2556705z"/><path id="Shape" d="m37.87 24.31-1.89 17.79c-.0510588.5076032-.4798446.8930773-.99.89-.2836819-.0011151-.5535404-.1226653-.7423647-.3343774s-.2788427-.4936603-.2476353-.7756226l2.01-18.83c.4180067-.1586524.8870842-.103837 1.2572482.1469193.3701641.2507563.5950499.6660451.6027518 1.1130807z"/><path id="Shape" d="m25 31.67v9.12c0 .5522847-.4477153 1-1 1s-1-.4477153-1-1v-10.26c.01 0 .01-.01.02-.01.95-.44 1.98-.09 1.98 1.15z"/><path id="Shape" d="m20.8 23.32c0 .108-.042.143-2.76 7.71-.1140821.345673-.4069886.6020514-.764724.6693559-.3577355.0673044-.7237872-.0650973-.9556925-.3456761-.2319054-.2805788-.2930294-.6650108-.1595835-1.0036798 2.946-8.188 2.731-7.632 2.87-7.83.2841899-.3623543.779093-.4837834 1.198726-.2941188s.6554878.6413798.571274 1.0941188z"/><path id="Shape" d="m21.43 21.58c-1.873 5.19-3.663 10.2-3.7 10.3-.1140821.345673-.4069886.6020514-.764724.6693559-.3577355.0673044-.7237872-.0650973-.9556925-.3456761-.2319054-.2805788-.2930294-.6650108-.1595835-1.0036798 0 0 3.11-8.63 3.15-8.75 0 .119-.077.23.03.07l.15-.42c.1606959-.4369249.5308534-.7633791.9844366-.8682072.4535831-.1048281.929447.0261011 1.2655634.3482072z"/><path id="Shape" d="m17.51 16.23-4.89 13.8c-.0938523.3661635-.3861495.6481142-.7554562.7287153-.3693066.0806011-.7524996-.0539241-.9903807-.3476868-.237881-.2937628-.2897907-.6965521-.1341631-1.0410285l.4-1.13c-.314 1.309-.278.939 4.15-11.38.1543442-.431123.5073826-.7611755.9479059-.8861888.4405233-.1250134.9143025-.0295983 1.2720941.2561888z"/><path id="Shape" d="m11.9 10.29-4.35 18.12c-.05768881.3716559-.31903322.6795123-.67639326.7967723-.35736004.1172599-.75029245.0240904-1.0169601-.2411349s-.36196682-.6576467-.24664664-1.0156374c1.368-5.722.64-2.6 4.01-16.61.05266623-.5128276.37223428-.9597203.8404901-1.1753645.4682557-.21564406 1.0155809-.16797845 1.4395099.1253645z"/></g></g></svg>