<svg height="512" viewBox="0 0 44 60" width="512" xmlns="http://www.w3.org/2000/svg"><g id="028---UV-Protection" fill="none"><path id="Shape" d="m21.92 4.64v50.73c-.1142923-.0111538-.2258701-.0415841-.33-.09-12.069-6.368-20.59-14.48-20.59-27.99v-14.78c-.00267938-.2638655.11454475-.5146869.31868928-.681891.20414454-.1672041.47314406-.2327183.73131072-.178109 9.82 2.26 17.171-4.659 19.33-6.76.1438921-.14582616.335711-.23463117.54-.25z" fill="#e57e25"/><path id="Shape" d="m43 12.51v14.78c0 13.51-8.51 21.616-20.59 27.99-.1502639.0794681-.3213042.1108836-.49.09v-50.73c.2596575-.03132143.5189302.06127594.7.25 2.12 2.14 9.51 9.02 19.33 6.76.2581667-.0546093.5271662.0109049.7313107.178109.2041446.1672041.3213687.4180255.3186893.681891z" fill="#f0c419"/><path id="Shape" d="m25.786 8.651c-.2163702 0-.4269038-.07017787-.6-.2-.2866667-.214-.5586667-.42533333-.816-.634-.4179122-.350104-.4783821-.97043763-.135951-1.39465967.3424312-.42422204.96156-.49598494 1.391951-.16134033.2386667.19333333.4913333.38966667.758.589.344923.25779393.4860834.70744501.3503875 1.11612116s-.5177723.68459289-.9483875.68487884z" fill="#f29c1f"/><path id="Shape" d="m29.393 52.1c-.4364035.0007786-.8229128-.2815305-.9549299-.6974873s.0209506-.8694861.3779299-1.1205127c.554-.388 1.1003333-.788 1.639-1.2.2832159-.2213744.6634581-.2737059.9959459-.1370687.3324879.1366371.5660562.4412164.6117718.7977665.0457157.35655-.1034565.710203-.3907177.9263022-.56.429-1.13.846-1.7 1.25-.1696027.11883-.3719143.1820742-.579.181zm4.83-3.908c-.4095468-.000261-.777538-.2502185-.9287275-.630837-.1511895-.3806184-.0550132-.8149528.2427275-1.096163.4893333-.462.9636667-.9363333 1.423-1.423.2439471-.2635919.6105136-.3761193.9603398-.2948023.3498263.0813171.6291779.3439881.7318522.6881521.1026744.344164.0129005.7169561-.235192.9766502-.486.5166667-.989 1.0193333-1.509 1.508-.1851414.1748195-.430366.2718353-.685.271zm4.093-4.667c-.3735068-.0007602-.7154574-.2096106-.886689-.5415559s-.1431992-.7316487.072689-1.0364441c.389-.549.754-1.111 1.087-1.67.1827413-.3070698.5154211-.4933226.872722-.4885989.3573009.0047238.6849405.1997065.8595.5115.1745596.3117936.1695194.6930291-.013222 1.0000989-.36.605-.755 1.211-1.175 1.8-.1872343.2657199-.4919404.4238538-.817.424zm2.938-5.461c-.3292486.0002949-.6375443-.161499-.824353-.4326212-.1868086-.2711223-.2281889-.6168262-.110647-.9243788.213-.557.4-1.127.624-1.886.0916124-.3512517.3663775-.6252739.717876-.7159351.3514985-.0906611.724524.016278.9746001.2793989.250076.2631208.3379257.6410977.2295239.9875362-.189.666-.419 1.374-.677 2.048-.1479795.387194-.5194917.6429567-.934.643zm1.5-6.023c-.2889613.0003336-.5639406-.124345-.7541009-.3419175s-.2769091-.5067663-.2378991-.7930825c.089-.651.153-1.32.193-1.988.0127783-.2658439.1322719-.5152886.3314239-.6918524.1991519-.1765638.4611161-.2653114.7265761-.2461476.5511284.0332435.9710252.5068585.938 1.058-.042.716-.112 1.436-.207 2.137-.0676751.4967266-.492687.866581-.994.865zm.246-6.208c-.5522847 0-1-.4477153-1-1v-2.074c0-.5522847.4477153-1 1-1s1 .4477153 1 1v2.074c0 .5522847-.4477153 1-1 1zm0-6.219c-.5522847 0-1-.4477153-1-1v-2.073c0-.5522847.4477153-1 1-1s1 .4477153 1 1v2.073c0 .5522847-.4477153 1-1 1zm-.008-6.214c-.4552462-.0004494-.8527334-.3083272-.967-.749-.151.037-.323.072-.495.1-.5344233.0881-1.0418439-.2652973-1.1445224-.7971121-.1026784-.5318148.2367136-1.0487078.7655224-1.1658879.19-.0373333.3813333-.078.574-.122.5169291-.1164651 1.0589949-.0072952 1.4905422.3001894.4315472.3074846.7117398.7841874.7704578 1.3108106.0352924.2847484-.0534285.5709382-.2436009.7857909s-.4634723.3376663-.7503991.3372091zm-5.775-.325c-.7460903-.0323624-1.4894892-.1105095-2.226-.234-.3524425-.0585916-.6468546-.3007582-.7723341-.6352782-.1254794-.3345199-.062963-.7105716.164-.9865.2269631-.2759284.5838916-.4098134.9363341-.3512218.6436219.1079376 1.2931082.1773943 1.945.208.5522847.0129787.9894787.4712153.9765 1.0235s-.4712153.9894787-1.0235.9765zm-6.042-1.348c-.8152118-.2362059-1.60118-.5636088-2.343-.976-.3174305-.1639849-.5232634-.4848603-.5399636-.84175566-.0167001-.35689532.1582697-.69558961.459-.88850002.3007304-.1929104.6815331-.21072924.9989636-.04674432.594.307 1.2.584 1.8.824.4396238.1818998.6902206.6483513.5992027 1.1153334-.0910178.4669822-.498446.8051804-.9742027.8086666z" fill="#f29c1f"/><path id="Shape" d="m25 54.83c-.4525881-.0000199-.8487411-.3040116-.9658809-.7411777-.1171399-.4371661.0739396-.8985084.4658809-1.1248223l.858-.5c.3079629-.1811337.6891661-.1842118 1.0000139-.0080749s.5041152.5047294.507.862c.0028849.3572706-.1850509.6889413-.4930139.8700749-.972.565-1.038.642-1.372.642z" fill="#f29c1f"/><path id="Shape" d="m19 54.83c-.175539-.0000077-.3479833-.0462228-.5-.134-11.111-6.426-18.5-14.62-18.5-27.406v-14.79c-.00111044-.566638.25422437-1.1033517.69456479-1.459975.44034043-.3566233 1.01839656-.494857 1.57243521-.376025 6.846 1.572 12.536-1.526 16.106-4.4.4304538-.34259476 1.0567975-.27314604 1.4017449.15542487.3449473.42857091.2789302 1.05528561-.1477449 1.40257513-3.892 3.136-10.085 6.507-17.648 4.826v14.642c0 12.071 7.151 19.679 17.522 25.674.3921027.2264067.5831589.6880184.4657522 1.1253057s-.5139782.7411275-.9667522.7406943z" fill="#f29c1f"/><g fill="#f9eab0"><path id="Shape" d="m13 30.343c-3.31233757-.0033074-5.99669262-2.6876624-6-6v-6c0-.5522847.44771525-1 1-1s1 .4477153 1 1v6c0 2.209139 1.790861 4 4 4s4-1.790861 4-4v-6c0-.5522847.4477153-1 1-1s1 .4477153 1 1v6c-.0033074 3.3123376-2.6876624 5.9966926-6 6z"/><path id="Shape" d="m30.09 29.757-5-11c-.1607703-.3271197-.1308229-.7158043.0781603-1.0144353.2089831-.2986309.5638974-.4599023.9262972-.4209054.3623998.038997.674878.272085.8155425.6083407l4.09 9 4.09-9c.1406645-.3362557.4531427-.5693437.8155425-.6083407.3623998-.0389969.7173141.1222745.9262972.4209054.2089832.298631.2389306.6873156.0781603 1.0144353l-5 11c-.1624531.356559-.5181769.5853918-.91.5853918s-.7475469-.2288328-.91-.5853918z"/><circle id="Oval" cx="22" cy="39.343" r="4"/><path id="Shape" d="m15 40.343h-1c-.5522847 0-1-.4477153-1-1s.4477153-1 1-1h1c.5522847 0 1 .4477153 1 1s-.4477153 1-1 1z"/><path id="Shape" d="m30 40.343h-1c-.5522847 0-1-.4477153-1-1s.4477153-1 1-1h1c.5522847 0 1 .4477153 1 1s-.4477153 1-1 1z"/><path id="Shape" d="m22 33.343c-.5522847 0-1-.4477153-1-1v-1c0-.5522847.4477153-1 1-1s1 .4477153 1 1v1c0 .5522847-.4477153 1-1 1z"/><path id="Shape" d="m22 48.343c-.5522847 0-1-.4477153-1-1v-1c0-.5522847.4477153-1 1-1s1 .4477153 1 1v1c0 .5522847-.4477153 1-1 1z"/><path id="Shape" d="m17.05 35.394c-.494 0-.639-.225-1.414-1-.2527654-.2525868-.3515768-.6208353-.259213-.96603.0923639-.3451946.3618707-.6148921.707-.7075s.7134476.0059432.966213.25853l.707.708c.2859079.2859943.3714219.7160366.216678 1.0896546-.1547439.3736179-.5192821.6172591-.923678.6173454z"/><path id="Shape" d="m27.657 46c-.494 0-.638-.224-1.414-1-.3789722-.3923789-.3735524-1.0160848.0121814-1.4018186s1.0094397-.3911536 1.4018186-.0121814l.707.707c.2859079.2859943.3714219.7160366.216678 1.0896546-.1547439.3736179-.5192821.6172591-.923678.6173454z"/><path id="Shape" d="m26.95 35.394c-.4043959-.0000863-.7689341-.2437275-.923678-.6173454-.1547439-.373618-.0692299-.8036603.216678-1.0896546l.707-.708c.3907415-.3904653 1.0240347-.3902414 1.4145.0005.3904653.3907415.3902414 1.0240347-.0005 1.4145-.645.645-.881 1-1.414 1z"/><path id="Shape" d="m16.343 46c-.4043959-.0000863-.7689341-.2437275-.923678-.6173454-.1547439-.373618-.0692299-.8036603.216678-1.0896546l.707-.707c.3923789-.3789722 1.0160848-.3735524 1.4018186.0121814s.3911536 1.0094397.0121814 1.4018186c-.646.645-.881 1-1.414 1z"/></g><path id="Shape" d="m22 50c-.5522847 0-1 .4477153-1 1v8c0 .5522847.4477153 1 1 1s1-.4477153 1-1v-8c0-.5522847-.4477153-1-1-1z" fill="#f29c1f"/><path id="Shape" d="m22 0c-.5522847 0-1 .44771525-1 1v27c0 .5522847.4477153 1 1 1s1-.4477153 1-1v-27c0-.55228475-.4477153-1-1-1z" fill="#f29c1f"/></g></svg>