<svg height="512" viewBox="0 0 60 58" width="512" xmlns="http://www.w3.org/2000/svg"><g id="029---Hair-Follicle-Moisturising" fill="none"><path id="Shape" d="m58 30h-14.927c-.3319767.0010036-.6418141.1666919-.8269786.4422344-.1851645.2755424-.2215147.6250142-.0970214.9327656 2.0580564 5.4122505.2884482 11.5332245-4.3401483 15.0123257-4.6285966 3.4791012-11.0002395 3.477528-15.6271174-.0038585-4.6268779-3.4813866-6.3934632-9.6032337-4.3327343-15.0144672.1216172-.3062747.0845352-.6528046-.0991346-.9264107-.1836699-.2736061-.4903458-.4391595-.8198654-.4425893h-14.93c-.55228475 0-1 .4477153-1 1v26c0 .5522847.44771525 1 1 1h56c.5522847 0 1-.4477153 1-1v-26c0-.5522847-.4477153-1-1-1z" fill="#f9c795"/><path id="Shape" d="m24.232 30.466c-2.9044972 3.0250463-2.9800152 7.7795808-.1730547 10.8953443s7.5435687 3.535101 10.8542649.960941c3.3106963-2.5741601 4.0716551-7.2680117 1.7437898-10.7562853-2.1834817-3.1151967-3.158826-6.9184709-2.744-10.7.5943034-5.5792619 2.0348178-11.03547998 4.272-16.181.2083477-.45150922.053286-.98751089-.3639439-1.25804468-.41723-.27053379-.9698528-.19339801-1.2970561.18104468-3.125 3.622-6.747 9.774-8.483 19.71-.5279947 2.7093552-1.8545456 5.1987714-3.809 7.148z" fill="#805333"/><g fill="#cb8252"><circle id="Oval" cx="6" cy="36" r="1"/><circle id="Oval" cx="12" cy="36" r="1"/><circle id="Oval" cx="3" cy="40" r="1"/><circle id="Oval" cx="9" cy="40" r="1"/><circle id="Oval" cx="6" cy="44" r="1"/><circle id="Oval" cx="12" cy="44" r="1"/><circle id="Oval" cx="3" cy="48" r="1"/><circle id="Oval" cx="9" cy="48" r="1"/><circle id="Oval" cx="15" cy="48" r="1"/><circle id="Oval" cx="6" cy="52" r="1"/><circle id="Oval" cx="12" cy="52" r="1"/><circle id="Oval" cx="18" cy="52" r="1"/><circle id="Oval" cx="24" cy="52" r="1"/><circle id="Oval" cx="30" cy="52" r="1"/><circle id="Oval" cx="54" cy="36" r="1"/><circle id="Oval" cx="48" cy="36" r="1"/><circle id="Oval" cx="57" cy="40" r="1"/><circle id="Oval" cx="51" cy="40" r="1"/><circle id="Oval" cx="54" cy="44" r="1"/><circle id="Oval" cx="48" cy="44" r="1"/><circle id="Oval" cx="57" cy="48" r="1"/><circle id="Oval" cx="51" cy="48" r="1"/><circle id="Oval" cx="45" cy="48" r="1"/><circle id="Oval" cx="54" cy="52" r="1"/><circle id="Oval" cx="48" cy="52" r="1"/><circle id="Oval" cx="42" cy="52" r="1"/><circle id="Oval" cx="36" cy="52" r="1"/><circle id="Oval" cx="3" cy="56" r="1"/><circle id="Oval" cx="9" cy="56" r="1"/><circle id="Oval" cx="15" cy="56" r="1"/><circle id="Oval" cx="21" cy="56" r="1"/><circle id="Oval" cx="27" cy="56" r="1"/><circle id="Oval" cx="51" cy="56" r="1"/><circle id="Oval" cx="57" cy="56" r="1"/><circle id="Oval" cx="45" cy="56" r="1"/><circle id="Oval" cx="39" cy="56" r="1"/><circle id="Oval" cx="33" cy="56" r="1"/></g><path id="Shape" d="m23 14.424c.0331257 3.0492247-1.5746304 5.8811067-4.2099539 7.4153617s-5.8917687 1.534255-8.5270922 0-4.24307955-4.366137-4.2099539-7.4153617c0-3.282 4.066-10.229 6.565-13.477.4539708-.59538138 1.1597888-.94479288 1.9085-.94479288s1.4545292.3494115 1.9085.94479288c2.499 3.253 6.565 10.195 6.565 13.477z" fill="#90bae1"/><path id="Shape" d="m13.07 19.2c-1.4568134-.2660254-2.7044444-1.2000826-3.37-2.523-1.038-2.252.246-4.9.3-5.014.1575541-.321539.4746792-.5345992.8319172-.5589229.357238-.0243236.7003161.1437846.9.441s.2256369.6783839.0680828.9999229c-.5137398 1.0233162-.6129599 2.2053605-.277 3.3.4245028.7642179 1.1802867 1.2875382 2.045 1.416.53544.1375189.8580189.6830599.7205 1.2185-.1375189.53544-.6830599.8580189-1.2185.7205z" fill="#b0d3f0"/><path id="Shape" d="m45 17c-.4043959-.0000863-.7689341-.2437275-.923678-.6173454-.1547439-.373618-.0692299-.8036603.216678-1.0896546l1-1c.3923789-.3789722 1.0160848-.3735524 1.4018186.0121814s.3911536 1.0094397.0121814 1.4018186c-1.06 1.061-1.187 1.293-1.707 1.293z" fill="#f3d55b"/><path id="Shape" d="m40 22c-.4043959-.0000863-.7689341-.2437275-.923678-.6173454-.1547439-.373618-.0692299-.8036603.216678-1.0896546l1-1c.3923789-.3789722 1.0160848-.3735524 1.4018186.0121814s.3911536 1.0094397.0121814 1.4018186c-1.06 1.061-1.187 1.293-1.707 1.293z" fill="#f3d55b"/><path id="Shape" d="m46 22c-.53 0-.675-.261-1.707-1.293-.3789722-.3923789-.3735524-1.0160848.0121814-1.4018186s1.0094397-.3911536 1.4018186-.0121814l1 1c.2859079.2859943.3714219.7160366.216678 1.0896546-.1547439.3736179-.5192821.6172591-.923678.6173454z" fill="#f3d55b"/><path id="Shape" d="m41 17c-.53 0-.675-.261-1.707-1.293-.3789722-.3923789-.3735524-1.0160848.0121814-1.4018186s1.0094397-.3911536 1.4018186-.0121814l1 1c.2859079.2859943.3714219.7160366.216678 1.0896546-.1547439.3736179-.5192821.6172591-.923678.6173454z" fill="#f3d55b"/><path id="Shape" d="m51 6c-.4043959-.00008635-.7689341-.2437275-.923678-.61734544s-.0692299-.80366031.216678-1.08965456l1-1c.2510745-.25995658.6228779-.3642126.9725073-.27269716.3496295.09151544.6226744.3645604.7141899.71418984.0915154.34962943-.0127406.72143285-.2726972.97250732-1.06 1.061-1.187 1.293-1.707 1.293z" fill="#f0c419"/><path id="Shape" d="m46 11c-.4043959-.0000863-.7689341-.2437275-.923678-.6173454-.1547439-.373618-.0692299-.80366035.216678-1.0896546l1-1c.3923789-.37897221 1.0160848-.37355237 1.4018186.01218142.3857338.3857338.3911536 1.00943969.0121814 1.40181858-1.06 1.061-1.187 1.293-1.707 1.293z" fill="#f0c419"/><path id="Shape" d="m52 11c-.53 0-.675-.261-1.707-1.293-.3789722-.39237889-.3735524-1.01608478.0121814-1.40181858.3857338-.38573379 1.0094397-.39115363 1.4018186-.01218142l1 1c.2859079.28599425.3714219.7160366.216678 1.0896546-.1547439.3736179-.5192821.6172591-.923678.6173454z" fill="#f0c419"/><path id="Shape" d="m47 6c-.53 0-.675-.261-1.707-1.293-.3789722-.39237889-.3735524-1.01608478.0121814-1.40181858.3857338-.38573379 1.0094397-.39115363 1.4018186-.01218142l1 1c.2859079.28599425.3714219.71603662.216678 1.08965456s-.5192821.61725909-.923678.61734544z" fill="#f0c419"/><path id="Shape" d="m59 31h-17.47c-.5522847 0-1-.4477153-1-1s.4477153-1 1-1h17.47c.5522847 0 1 .4477153 1 1s-.4477153 1-1 1z" fill="#fdd7ad"/><path id="Shape" d="m18.47 31h-17.47c-.55228475 0-1-.4477153-1-1s.44771525-1 1-1h17.47c.5522847 0 1 .4477153 1 1s-.4477153 1-1 1z" fill="#fdd7ad"/><path id="Shape" d="m30 50c-4.8883229-.0098504-9.4183687-2.5658372-11.9542673-6.7449539-2.5358985-4.1791167-2.7112502-9.377543-.4627327-13.7180461.2557078-.4896004.8598996-.6792078 1.3495-.4235s.6792078.8598996.4235 1.3495c-2.6284702 5.0489551-1.3481932 11.2498324 3.064987 14.8449185 4.4131803 3.5950861 10.7448457 3.5950861 15.158026 0 4.4131802-3.5950861 5.6934572-9.7959634 3.064987-14.8449185-.2557078-.4896004-.0661004-1.0937922.4235-1.3495s1.0937922-.0661004 1.3495.4235c2.2466695 4.340665 2.0704382 9.5381-.4650942 13.7166131-2.5355323 4.1785132-7.0642926 6.7348226-11.9519058 6.7463869z" fill="#fdd7ad"/></g></svg>