<svg height="512" viewBox="0 0 58 52" width="512" xmlns="http://www.w3.org/2000/svg"><g id="030---Target-Heart" fill="none" fill-rule="evenodd"><path id="Shape" d="m55.23 11.26c3.5949739 5.5993066 3.5949739 12.7806934 0 18.38-2.96 4.37-7.4 7.42-11.45 10.68-15.28 12.233-14.028 11.68-14.78 11.68s.456.515-14.78-11.68c-4.05-3.26-8.49-6.31-11.45-10.68-4.79-7.04-2.98-17.3 3.71-22.49 6.8-5.28 16.764-3.517 21.72 3.37.1850446.2576092.4828187.4103479.8.4103479s.6149554-.1527387.8-.4103479c3.5189467-4.83748113 9.4910763-7.24108856 15.38-6.19z" fill="#ff5364" fill-rule="nonzero"/><path id="Shape" d="m47.53 10.47h-.01" stroke="#000" stroke-linecap="round" stroke-linejoin="round" stroke-width="2"/><g fill-rule="nonzero"><path id="Shape" d="m51.55 14.93c1.9737781 3.765146 1.8024936 8.294671-.45 11.9-3 4.413-6.841 6.386-22.1 19.02-15.459-12.75-19.179-14.723-22.09-19.01-3.25-4.78-2.02-12.13 2.63-15.74 2.2450899-1.63730724 5.0511483-2.31007517 7.7945907-1.86879593 2.7434424.44127923 5.1969948 1.96004893 6.8154093 4.21879593 1.1289784 1.5602266 2.9392742 2.482472 4.8651204 2.4785093 1.9258462-.0039626 3.7323314-.93365 4.8548796-2.4985093 1.5297522-2.0938292 3.7752582-3.55287431 6.31-4.1z" fill="#fb7b76"/><path id="Shape" d="m22 26h4v-4c0-.5522847.4477153-1 1-1h4c.5522847 0 1 .4477153 1 1v4h4c.5522847 0 1 .4477153 1 1v4c0 .5522847-.4477153 1-1 1h-4v4c0 .5522847-.4477153 1-1 1h-4c-.5522847 0-1-.4477153-1-1v-4h-4c-.5522847 0-1-.4477153-1-1v-4c0-.5522847.4477153-1 1-1z" fill="#fff"/><path id="Shape" d="m41.998 16 6.485 2 9.515-9.515-6.364-2.121z" fill="#f3d55b"/><path id="Shape" d="m41.998 16-2-6.485 9.515-9.515 2.121 6.364z" fill="#f9eab0"/><path id="Shape" d="m10 21c-.55228475 0-1-.4477153-1-1 0-5.537 3.925-7 6-7 .5522847 0 1 .4477153 1 1s-.4477153 1-1 1c-.416.006-4 .2-4 5 0 .5522847-.4477153 1-1 1z" fill="#fff"/><circle id="Oval" cx="19" cy="14" fill="#fff" r="1"/><path id="Shape" d="m29 30c-.4043959-.0000863-.7689341-.2437275-.923678-.6173454-.1547439-.373618-.0692299-.8036603.216678-1.0896546l24.756-24.757c.2510745-.25995658.6228779-.3642126.9725073-.27269716.3496295.09151544.6226744.3645604.7141899.71418984.0915154.34962943-.0127406.72143285-.2726972.97250732l-24.758 24.757c-.1870024.1870602-.4404985.2924139-.705.293z" fill="#a56a43"/></g></g></svg>