<svg height="512" viewBox="0 0 58 52" width="512" xmlns="http://www.w3.org/2000/svg"><g id="031---24-Hour-Protection" fill="none"><path id="Shape" d="m49.41 19.43-3.41 3.57-4.18-.27c-2.433-4.636-4.769-8.065-9.82-9.85l-2-3.88 2-5.07c8.428 1.912 13.606 7.785 17.41 15.5z" fill="#c03a2b"/><path id="Shape" d="m57.76 39.08c.0454185.3716484-.1205782.7375335-.4301513.9481275-.3095732.210594-.7108538.2306118-1.0398487.0518725l-4.39-2.36c-5.52 7.39-13.86 13.05-23.16 13.73-10.3753663.5533071-20.05287482-5.2302694-24.48-14.63-2.01147142-4.7029774-2.30179781-9.9642581-.82-14.86.343.057-.292.04 10.32.04-1.1856462 3.9148767-.4152963 8.161105 2.07 11.41 2.92 3.93 8.16 6.33 13.03 5.2 4.3309794-1.1521992 8.0777397-3.8758195 10.51-7.64l-5.56-2.99c-.3382522-.1818994-.5424437-.5414474-.5253912-.9251285s.2523357-.7236969.6053912-.8748715l19.88-8.65c.2912044-.1249174.6241529-.1059323.89927.0512775.2751172.1572098.460509.4344191.50073.7487225z" fill="#e64c3c"/><path id="Shape" d="m32 3.93v14.07c0 2.209139-1.790861 4-4 4h-1c-.5522847 0-1 .4477153-1 1v3.794c-.0000561.3924702-.2296874.7486236-.5871486.9106555-.3574613.1620318-.7766577.0999824-1.0718514-.1586555l-5.771-5.056c-.3692699-.3124826-.8362766-.4858412-1.32-.49-14.364 0-13.467.017-13.81-.04-1.97469785-.2757003-3.44317049-1.9661514-3.44-3.96v-14c0-2.209139 1.790861-4 4-4h24.07c2.1702504.00055202 3.929448 1.75974963 3.93 3.93z" fill="#f0c419"/><g fill="#e64c3c"><path id="Shape" d="m14 17.993h-8c-.55228475 0-1-.4477153-1-1 0-2.648 2.852-4.681 5.032-6.178.9814679-.5574728 1.8416422-1.30545051 2.53-2.2.5087012-.76618382.5266475-1.75791294.046-2.542-1.22-1.783-5.546-1.502-5.608 1.92 0 .55228475-.44771525 1-1 1s-1-.44771525-1-1c.111-5.444 6.953-6.419 9.258-3.049.9242604 1.43129712.9301194 3.26984125.015 4.707-.8209011 1.150667-1.8811866 2.1099729-3.108 2.812-1.258.865-3.172 2.187-3.886 3.53h6.721c.5522847 0 1 .4477153 1 1s-.4477153 1-1 1z"/><path id="Shape" d="m23 18c-.5522847 0-1-.4477153-1-1v-3h-6c-.3820724.0002652-.7309032-.2172009-.8988735-.5603705-.1679702-.3431696-.1257191-.7520575.1088735-1.0536295l7-9c.2621414-.33777474.7100284-.47152005 1.1144598-.33279329.4044315.13872676.6759223.51923072.6755402.94679329v8h2c.5522847 0 1 .4477153 1 1s-.4477153 1-1 1h-2v3c0 .5522847-.4477153 1-1 1zm-4.956-6h3.956v-5.085z"/></g></g></svg>