<svg height="512" viewBox="0 0 50 58" width="512" xmlns="http://www.w3.org/2000/svg"><g id="032---24-Hour-Protection" fill="none"><path id="Shape" d="m48.75 8.02c-11.69 2.58-20.49-5.28-23.01-7.72-.4125349-.39930216-1.0674651-.39930216-1.48 0-2.52 2.44-11.32 10.3-23.01 7.72-.30043769-.06803801-.61554219.00278983-.8579657.19284987-.24242352.19006003-.3864057.47915615-.3920343.78715013v16.9c0 15.63 10.487 24.927 24.52 31.98.3001326.1594686.6598674.1594686.96 0 13.988-7.03 24.52-16.32 24.52-31.98v-16.9c-.0056286-.30799398-.1496108-.5970901-.3920343-.78715013-.2424235-.19006004-.557528-.26088788-.8579657-.19284987z" fill="#f3d55b"/><path id="Shape" d="m50 9v16.9c0 15.6-10.456 24.911-24.52 31.98-.1479313.0782549-.3126465.1194338-.48.12v-58c.2759542.00169141.5407722.10905009.74.3 2.52 2.44 11.32 10.3 23.01 7.72.3004377-.06803801.6155422.00278983.8579657.19284987.2424235.19006003.3864057.47915615.3920343.78715013z" fill="#f0c419"/><g fill="#e57e25"><path id="Shape" d="m24 35.993h-8c-.5522847 0-1-.4477153-1-1 0-2.648 2.852-4.681 5.032-6.178.9814679-.5574728 1.8416422-1.3054505 2.53-2.2.5087012-.7661838.5266475-1.7579129.046-2.542-1.22-1.783-5.546-1.5-5.608 1.92 0 .5522847-.4477153 1-1 1s-1-.4477153-1-1c.111-5.444 6.953-6.419 9.258-3.049.9242604 1.4312971.9301194 3.2698413.015 4.707-.8209011 1.150667-1.8811866 2.1099729-3.108 2.812-1.258.865-3.172 2.187-3.886 3.53h6.721c.5522847 0 1 .4477153 1 1s-.4477153 1-1 1z"/><path id="Shape" d="m33 36c-.5522847 0-1-.4477153-1-1v-3h-6c-.3820724.0002652-.7309032-.2172009-.8988735-.5603705-.1679702-.3431696-.1257191-.7520575.1088735-1.0536295l7-9c.2621414-.3377747.7100284-.47152 1.1144598-.3327933.4044315.1387268.6759223.5192307.6755402.9467933v8h2c.5522847 0 1 .4477153 1 1s-.4477153 1-1 1h-2v3c0 .5522847-.4477153 1-1 1zm-4.956-6h3.956v-5.085z"/><path id="Shape" d="m25 11c-.5522847 0-1-.4477153-1-1v-2c0-.55228475.4477153-1 1-1s1 .44771525 1 1v2c0 .5522847-.4477153 1-1 1z"/><path id="Shape" d="m25 51c-.5522847 0-1-.4477153-1-1v-2c0-.5522847.4477153-1 1-1s1 .4477153 1 1v2c0 .5522847-.4477153 1-1 1z"/><path id="Shape" d="m38.435 16.565c-.4043959-.0000863-.7689341-.2437275-.923678-.6173454-.1547439-.373618-.0692299-.8036603.216678-1.0896546l1.414-1.414c.2510745-.2599566.6228779-.3642126.9725073-.2726972.3496295.0915155.6226744.3645604.7141899.7141899.0915154.3496294-.0127406.7214328-.2726972.9725073-1.538 1.542-1.595 1.707-2.121 1.707z"/><path id="Shape" d="m10.151 44.849c-.4043959-.0000863-.76893405-.2437275-.92367798-.6173454-.15474393-.373618-.06922994-.8036603.21667798-1.0896546l1.414-1.414c.3923789-.3789722 1.0160848-.3735524 1.4018186.0121814s.3911536 1.0094397.0121814 1.4018186c-1.538 1.538-1.595 1.707-2.121 1.707z"/><path id="Shape" d="m39.849 44.849c-.2651948-.0000566-.5195073-.1054506-.707-.293l-1.414-1.414c-.3789722-.3923789-.3735524-1.0160848.0121814-1.4018186s1.0094397-.3911536 1.4018186-.0121814l1.414 1.414c.2859079.2859943.3714219.7160366.216678 1.0896546-.1547439.3736179-.5192821.6172591-.923678.6173454z"/><path id="Shape" d="m11.565 16.565c-.2651948-.0000566-.5195073-.1054506-.707-.293l-1.414-1.414c-.25995658-.2510745-.3642126-.6228779-.27269716-.9725073.09151544-.3496295.3645604-.6226744.71418984-.7141899.34962942-.0915154.72143282.0127406.97250732.2726972l1.414 1.414c.2859079.2859943.3714219.7160366.216678 1.0896546-.1547439.3736179-.5192821.6172591-.923678.6173454z"/><path id="Shape" d="m17.729 12.447c-.4046724-.0000657-.7694151-.244017-.924-.618l-.765-1.848c-.2112489-.51031111.0311889-1.09525108.5415-1.3065s1.0952511.03118889 1.3065.5415l.765 1.847c.1283917.3087194.0939986.6611799-.0916527.939255s-.4979941.444968-.8323473.444745z"/><path id="Shape" d="m33.037 49.4c-.4050364.0003392-.7702762-.2436804-.925-.618l-.765-1.847c-.2115251-.5103111.0306889-1.0954749.541-1.307s1.0954749.0306889 1.307.541l.765 1.848c.1278879.3084495.0933838.6603789-.0919756.9381168s-.4971137.4446334-.8310244.4448832z"/><path id="Shape" d="m42.554 22.729c-.4772478.0002902-.8881898-.3367019-.9813647-.804766s.1573876-.9367382.5983647-1.119234l1.848-.765c.3301134-.1366541.7080549-.0868143.9914575.1307453.2834026.2175595.4292108.5697863.3825.924-.0467108.3542136-.2788441.6566006-.6089575.7932547-2.029.84-1.968.841-2.23.841z"/><path id="Shape" d="m5.6 38.037c-.47819941.0014557-.89050585-.3358504-.98382032-.8048591-.09331447-.4690088.1584816-.9384454.60082032-1.1201409l1.847-.765c.51031111-.2115251 1.09547494.0306889 1.307.541s-.03068889 1.0954749-.541 1.307c-2.03.84-1.969.842-2.23.842z"/><path id="Shape" d="m32.271 12.447c-.3343532.000223-.646696-.1666699-.8323473-.444745s-.2200444-.6305356-.0916527-.939255l.765-1.847c.1366541-.33011341.4390411-.56224668.7932547-.60895747.3542137-.04671079.7064405.09909738.924.3825.2175596.28340261.2673994.66134406.1307453.99145747l-.76 1.848c-.1552768.3756704-.5225086.6199645-.929.618z"/><path id="Shape" d="m16.963 49.4c-.3339107-.0002498-.645665-.1671453-.8310244-.4448832s-.2198635-.6296673-.0919756-.9381168l.765-1.848c.2115251-.5103111.7966889-.7525251 1.307-.541s.7525251.7966889.541 1.307l-.765 1.847c-.1547238.3743196-.5199636.6183392-.925.618z"/><path id="Shape" d="m44.4 38.037c-.283 0-.278-.034-2.23-.842-.3301134-.1368327-.5621514-.4393848-.6087075-.7936877-.0465561-.354303.0994427-.7065298.383-.924.2835573-.2174703.6615941-.267145.9917075-.1303123l1.847.765c.4423387.1816955.6941348.6511321.6008203 1.1201409-.0933144.4690087-.5056209.8063148-.9838203.8048591z"/><path id="Shape" d="m7.446 22.729c-.283 0-.278-.033-2.23-.841-.33011341-.1366541-.56224668-.4390411-.60895747-.7932547-.04671079-.3542137.09909738-.7064405.3825-.924.28340261-.2175596.66134406-.2673994.99145747-.1307453l1.848.765c.44097715.1824958.69153963.6511699.59836471 1.119234s-.5041169.8050562-.98136471.804766z"/><path id="Shape" d="m12.546 31.243c-.3515437.0000738-.6773065-.1844492-.858-.486l-1.688-2.814-1.688 2.814c-.29711525.442076-.88859907.5736776-1.34512488.2992821s-.61784964-.8584731-.36687512-1.3282821l2.114-3.528c.27113961-.4515819.75927154-.7278575 1.286-.7278575.5267285 0 1.0148604.2762756 1.286.7278575l2.114 3.528c.1853031.3084231.1906276.692618.0139427 1.0060578-.1766848.3134398-.5081362.5077954-.8679427.5089422z"/><path id="Shape" d="m38.714 30.8-2.114-3.528c-.2841505-.4735842-.1305842-1.0878495.343-1.372s1.0878495-.1305842 1.372.343l1.685 2.814 1.688-2.814c.1740256-.3257653.5134404-.5290865.8827747-.5288127.3693344.0002738.7084473.2040981.8819897.5301211.1735423.326023.1532552.7211563-.0527644 1.0276916l-2.114 3.528c-.2711396.4515819-.7592715.7278575-1.286.7278575s-1.0148604-.2762756-1.286-.7278575z"/><path id="Shape" d="m25 45c-7.333176-.0058485-13.7262709-4.9898346-15.521-12.1-.384-1.55-.355-2.448-.449-6.405-.01344829-.5500665.42001183-1.0076574.97-1.024.266997-.012834.5276311.084064.721399.2682001.1937679.1841362.3038171.4394957.304601.7067999-.0740335 1.9994998.0573213 4.0013189.392 5.974 1.4878027 5.9154054 6.634303 10.1867302 12.7225661 10.5590612 6.0882632.372331 11.7168948-3.2400348 13.9144339-8.9300612.2034762-.5087836.7785155-.7590519 1.2895223-.5612252.5110068.1978268.7676307.770058.5754777 1.2832252-2.4066399 6.1454551-8.3201761 10.1997153-14.92 10.229z"/><path id="Shape" d="m39.929 31.52c-.532232.000748-.9717922-.4155154-1-.947-.188-3.553-.078-5.071-1.55-8.114-2.492619-4.6965634-7.429044-7.5773573-12.7442328-7.4372664s-10.093009 3.2769203-12.3347672 8.0982664c-.1429378.3354369-.4571191.5664872-.8199116.6029664s-.716684-.1273956-.9235423-.4276602c-.2068582-.3002645-.2338908-.689319-.0705461-1.0153062 2.5623798-5.5133955 8.026028-9.1001276 14.1037067-9.2586886 6.0776786-.1585611 11.7209161 3.1384026 14.5672933 8.5106886 1.632 3.078 1.608 5.769 1.775 8.935.0145874.2747962-.0847095.5434594-.2745051.7427164-.1897957.199257-.4533145.3114961-.7284949.3102836z"/></g></g></svg>