<svg height="512" viewBox="0 0 58 58" width="512" xmlns="http://www.w3.org/2000/svg"><g id="033---Nail-Polish" fill="none" transform="translate(-1)"><path id="Rectangle-path" d="m31 20h4v29.24h-4z" fill="#464f5d"/><path id="Shape" d="m21 33h-14v-11c0-3.8659932 3.1340068-7 7-7s7 3.1340068 7 7z" fill="#4482c3"/><path id="Shape" d="m12 32c-.5522847 0-1-.4477153-1-1v-3c0-.5522847.4477153-1 1-1s1 .4477153 1 1v3c0 .5522847-.4477153 1-1 1z" fill="#285680"/><path id="Shape" d="m16 32c-.5522847 0-1-.4477153-1-1v-3c0-.5522847.4477153-1 1-1s1 .4477153 1 1v3c0 .5522847-.4477153 1-1 1z" fill="#285680"/><path id="Shape" d="m27.13 35.93-2.94 19c-.3566307 1.7627811-1.8917561 3.0399721-3.69 3.07h-12.17c-1.73549735-.0275738-3.23635501-1.216778-3.66-2.9l-3.52-19c-.35209225-1.1753969-.14017028-2.4475823.57393349-3.4453711.71410377-.9977889 1.84992539-1.608752 3.07606651-1.6546289h18.64c1.1957557.0422944 2.3080084.6239102 3.0249775 1.581812s.9614909 2.1889956.6650225 3.348188z" fill="#ff5364"/><path id="Shape" d="m55 22.35c2.3985166.8419479 4.0028032 3.1080027 4 5.65v28c0 1.1045695-.8954305 2-2 2h-14c-1.1045695 0-2-.8954305-2-2v-28c-.0028032-2.5419973 1.6014834-4.8080521 4-5.65z" fill="#f9c795"/><path id="Shape" d="m53.889 22.35c2.0335236 1.1320646 3.2416975 3.3262731 3.111 5.65v28c.1068219.9775541-.5821919 1.863176-1.556 2h-10.888c-.9738081-.136824-1.6628219-1.0224459-1.556-2v-28c-.1306975-2.3237269 1.0774764-4.5179354 3.111-5.65z" fill="#fdd7ad"/><path id="Shape" d="m50 38c-2.7614237 0-5-2.2385763-5-5v-15c0-1.6568542 1.3431458-3 3-3h4c1.6568542 0 3 1.3431458 3 3v15c0 2.7614237-2.2385763 5-5 5z" fill="#f5efca"/><path id="Shape" d="m49 21c-.5522847 0-1-.4477153-1-1v-1c0-.5522847.4477153-1 1-1s1 .4477153 1 1v1c0 .5522847-.4477153 1-1 1z" fill="#fff"/><path id="Shape" d="m49 34c-.5522847 0-1-.4477153-1-1v-9c0-.5522847.4477153-1 1-1s1 .4477153 1 1v9c0 .5522847-.4477153 1-1 1z" fill="#fff"/><path id="Shape" d="m54 45h-8c-.5522847 0-1-.4477153-1-1s.4477153-1 1-1h8c.5522847 0 1 .4477153 1 1s-.4477153 1-1 1z" fill="#f09372"/><path id="Shape" d="m54 50h-8c-.5522847 0-1-.4477153-1-1s.4477153-1 1-1h8c.5522847 0 1 .4477153 1 1s-.4477153 1-1 1z" fill="#f09372"/><path id="Shape" d="m38 5v16c-.0032948 1.1032019-.8967981 1.9967052-2 2h-6c-1.1032019-.0032948-1.9967052-.8967981-2-2v-16c0-2.76142375 2.2385763-5 5-5s5 2.23857625 5 5z" fill="#f3d55b"/><g fill="#f29c1f"><path id="Shape" d="m38 18v2h-3c-.5522847 0-1-.4477153-1-1s.4477153-1 1-1z"/><path id="Shape" d="m38 14v2h-3c-.5522847 0-1-.4477153-1-1s.4477153-1 1-1z"/><path id="Shape" d="m38 10v2h-3c-.5522847 0-1-.4477153-1-1s.4477153-1 1-1z"/><path id="Shape" d="m38 6v2h-3c-.5522847 0-1-.44771525-1-1s.4477153-1 1-1z"/></g><path id="Shape" d="m30.6 46.336c1.5713587-.4480013 3.2366413-.4480013 4.808 0 .3886306.1246374.6625218.4729382.692.88.283 3.234.561 6.3.835 9.107.0390872.4524872-.2260008.8762203-.65 1.039-2.1045549.8510325-4.4574451.8510325-6.562 0-.4239992-.1627797-.6890872-.5865128-.65-1.039.274-2.811.552-5.873.835-9.107.0294782-.4070618.3033694-.7553626.692-.88z" fill="#f9eab0"/><path id="Shape" d="m11 55v3h-2v-3c0-.5522847.44771525-1 1-1 .5522847 0 1 .4477153 1 1z" fill="#df4d60"/><path id="Shape" d="m15 55v3h-2v-3c0-.5522847.4477153-1 1-1s1 .4477153 1 1z" fill="#df4d60"/><path id="Shape" d="m19 55v3h-2v-3c0-.5522847.4477153-1 1-1s1 .4477153 1 1z" fill="#df4d60"/><path id="Shape" d="m19 44c.0008472 1.4722152-.6471681 2.8699804-1.7712856 3.8206527-1.1241176.9506724-2.6100739 1.3576186-4.0617144 1.1123473-2.644814-.5109301-4.44857284-2.9743668-4.137-5.65.34375598-2.8673841 1.969329-5.4241678 4.42-6.952.3284839-.2198409.7563189-.2229867 1.088-.008 2.6798824 1.6495459 4.3551815 4.5319466 4.462 7.677z" fill="#59474e"/></g></svg>