<svg height="512" viewBox="0 0 60 59" width="512" xmlns="http://www.w3.org/2000/svg"><g id="034---Blackhead-Removal" fill="none"><path id="Shape" d="m59 33v26h-58v-26h13c-.2606458 1.2837817-.7850505 2.4994473-1.54 3.57-1.4070804 1.8700556-2.2595671 4.0983033-2.46 6.43 0 3.31 3.69 7 7 7s7-3.69 7-7c-.2011958-2.3298375-1.0498081-4.5570117-2.45-6.43-.757984-1.0700085-1.2857691-2.2856169-1.55-3.57h20c-.2606458 1.2837817-.7850505 2.4994473-1.54 3.57-1.3494164 1.8840907-2.1302756 4.1156127-2.25 6.43 0 3.31 3.48 7 6.79 7s6.79-3.69 6.79-7c-.1206444-2.3126123-.897636-4.5429945-2.24-6.43-.757984-1.0700085-1.2857691-2.2856169-1.55-3.57z" fill="#fb7b76"/><path id="Shape" d="m17 35.958c-.3481482.8250002-.7839861 1.6101789-1.3 2.342-.9826531 1.3833813-1.5703165 3.0080978-1.7 4.7 0 1.6568542 1.3431458 2.9999999 3 2.9999999s3-1.3431457 3-2.9999999c-.1269348-1.6867081-.7100655-3.3071685-1.687-4.688-.5197647-.7359737-.9598995-1.5250653-1.313-2.354z" fill="#393f4a"/><path id="Shape" d="m17 40c-.5522847 0-1-.4477153-1-1v-15.042c0-.5522847.4477153-1 1-1s1 .4477153 1 1v15.042c0 .5522847-.4477153 1-1 1z" fill="#393f4a"/><path id="Shape" d="m39.022 16.021c.3350217.8295442.5807408 1.6924104.733 2.574.2837415 1.6743814 1.0183919 3.2397916 2.125 4.528 1.1716721 1.171672 3.0713279 1.171672 4.2429999-.0000001 1.1716721-1.171672 1.1716721-3.0713278.0000001-4.2429999-1.2824692-1.1029905-2.8407267-1.8364915-4.508-2.122-.8881149-.1526157-1.7573818-.3996846-2.593-.737z" fill="#393f4a"/><path id="Shape" d="m41 19c-.2651948-.0000566-.5195073-.1054506-.707-.293l-5.66-5.66c-.3789722-.3923789-.3735524-1.0160848.0121814-1.4018186s1.0094397-.3911536 1.4018186-.0121814l5.66 5.66c.2859079.2859943.3714219.7160366.216678 1.0896546-.1547439.3736179-.5192821.6172591-.923678.6173454z" fill="#393f4a"/><path id="Shape" d="m40 28c.1194175 1.670277.0388465 3.3488397-.24 5h-19.52c-.313-1.271-.24-1.983-.24-5-.000097-.4752686.3343337-.8849463.8-.98.185-.031-1.126-.02 18.2-.02.5522847 0 1 .4477153 1 1z" fill="#f9c795"/><path id="Shape" d="m46.8 5.4-21.33 18c-1.4715665 1.0992011-3.1581878 1.8760691-4.95 2.28-2.057.468-2.095.32-19.52.32v-5c0-.5522847.44771525-1 1-1h15.67c1.5135806-.0061894 2.9854219-.4968032 4.2-1.4l21.33-18c1.3254834-.99411255 3.2058875-.7254834 4.2.6s.7254834 3.20588745-.6 4.2z" fill="#67b9cc"/><path id="Shape" d="m59 28v5h-12.76c-.160347-.6545514-.2409323-1.3260951-.24-2v-3c0-.5522847.4477153-1 1-1h11c.5522847 0 1 .4477153 1 1z" fill="#f9c795"/><path id="Shape" d="m14 28c.1194175 1.670277.0388465 3.3488397-.24 5h-12.76v-5c0-.5522847.44771525-1 1-1h11c.5522847 0 1 .4477153 1 1z" fill="#f9c795"/><path id="Shape" d="m55 23c-.5522847 0-1-.4477153-1-1 0-5.755-1.378-9.059-2.432-10.744l-.588 2.944c-.0593016.3606322-.3106176.6601885-.6554537.7812685s-.728259.0443954-1-.2-.388511-.6175689-.3045463-.9732685l1-5c.068518-.33590041.304325-.61329099.6248121-.73499493.320487-.12170394.6809795-.07075621.9551879.13499493.18.135 4.4 3.419 4.4 13.8-.0043934.549158-.4508244.9920176-1 .992z" fill="#e64c3c"/><path id="Shape" d="m56 12c-.266 0 .091.114-5.372-2.071-.5130725-.20544993-.7624499-.78792747-.557-1.301s.7879275-.76244993 1.301-.557l5 2c.4459179.1776349.702724.6470461.6118332 1.118359-.0908908.4713128-.5038373.811565-.9838332.810641z" fill="#e64c3c"/><g fill="#df4d60"><circle id="Oval" cx="6" cy="37" r="1"/><circle id="Oval" cx="3" cy="41" r="1"/><circle id="Oval" cx="6" cy="45" r="1"/><circle id="Oval" cx="3" cy="49" r="1"/><circle id="Oval" cx="9" cy="49" r="1"/><circle id="Oval" cx="6" cy="53" r="1"/><circle id="Oval" cx="12" cy="53" r="1"/><circle id="Oval" cx="18" cy="53" r="1"/><circle id="Oval" cx="24" cy="53" r="1"/><circle id="Oval" cx="30" cy="53" r="1"/><circle id="Oval" cx="30" cy="45" r="1"/><circle id="Oval" cx="30" cy="37" r="1"/><circle id="Oval" cx="54" cy="37" r="1"/><circle id="Oval" cx="57" cy="41" r="1"/><circle id="Oval" cx="54" cy="45" r="1"/><circle id="Oval" cx="57" cy="49" r="1"/><circle id="Oval" cx="51" cy="49" r="1"/><circle id="Oval" cx="54" cy="53" r="1"/><circle id="Oval" cx="48" cy="53" r="1"/><circle id="Oval" cx="42" cy="53" r="1"/><circle id="Oval" cx="36" cy="53" r="1"/><circle id="Oval" cx="3" cy="57" r="1"/><circle id="Oval" cx="9" cy="57" r="1"/><circle id="Oval" cx="15" cy="57" r="1"/><circle id="Oval" cx="21" cy="57" r="1"/><circle id="Oval" cx="27" cy="57" r="1"/><circle id="Oval" cx="51" cy="57" r="1"/><circle id="Oval" cx="57" cy="57" r="1"/><circle id="Oval" cx="45" cy="57" r="1"/><circle id="Oval" cx="39" cy="57" r="1"/><circle id="Oval" cx="33" cy="57" r="1"/><circle id="Oval" cx="27" cy="49" r="1"/><circle id="Oval" cx="33" cy="49" r="1"/><circle id="Oval" cx="27" cy="41" r="1"/><circle id="Oval" cx="33" cy="41" r="1"/></g><path id="Shape" d="m14 32c-.5522847 0-1-.4477153-1-1v-3h-12c-.55228475 0-1-.4477153-1-1s.44771525-1 1-1h12c1.1045695 0 2 .8954305 2 2v3c0 .5522847-.4477153 1-1 1z" fill="#fdd7ad"/><path id="Shape" d="m20 32c-.5522847 0-1-.4477153-1-1v-3c0-1.1045695.8954305-2 2-2h18c.5522847 0 1 .4477153 1 1s-.4477153 1-1 1h-18v3c0 .5522847-.4477153 1-1 1z" fill="#fdd7ad"/><path id="Shape" d="m25 43c0 4.418278-3.581722 8-8 8s-8-3.581722-8-8c.12053209-2.7302143 1.0306596-5.3668051 2.62-7.59 1.672-2.393 1.38-4.491 1.38-7.41 0-.5522847.4477153-1 1-1s1 .4477153 1 1c0 3.432.235 5.749-1.75 8.57-1.3494164 1.8840907-2.1302756 4.1156127-2.25 6.43 0 3.3137085 2.6862915 5.9999999 6 5.9999999s6-2.6862914 6-5.9999999c-.1206444-2.3126123-.897636-4.5429945-2.24-6.43-2.001-2.844-1.76-5.129-1.76-8.57 0-.5522847.4477153-1 1-1s1 .4477153 1 1c0 2.9-.293 5.048 1.39 7.41 1.5822456 2.2261327 2.4884979 4.8615562 2.61 7.59z" fill="#fdd7ad"/><path id="Shape" d="m51 43c0 4.418278-3.581722 8-8 8s-8-3.581722-8-8c.1205321-2.7302143 1.0306596-5.3668051 2.62-7.59 1.672-2.393 1.38-4.491 1.38-7.41 0-.5522847.4477153-1 1-1s1 .4477153 1 1c0 3.432.235 5.749-1.75 8.57-1.3494164 1.8840907-2.1302756 4.1156127-2.25 6.43 0 3.3137085 2.6862915 6 6 6s6-2.6862915 6-6c-.1206444-2.3126123-.897636-4.5429945-2.24-6.43-2.001-2.844-1.76-5.129-1.76-8.57 0-.5522847.4477153-1 1-1s1 .4477153 1 1c0 2.9-.293 5.048 1.39 7.41 1.5822456 2.2261327 2.4884979 4.8615562 2.61 7.59z" fill="#fdd7ad"/><path id="Shape" d="m40 32c-.5522847 0-1-.4477153-1-1v-3h-12c-.5522847 0-1-.4477153-1-1s.4477153-1 1-1h12c1.1045695 0 2 .8954305 2 2v3c0 .5522847-.4477153 1-1 1z" fill="#fdd7ad"/><path id="Shape" d="m46 32c-.5522847 0-1-.4477153-1-1v-3c0-1.1045695.8954305-2 2-2h12c.5522847 0 1 .4477153 1 1s-.4477153 1-1 1h-12v3c0 .5522847-.4477153 1-1 1z" fill="#fdd7ad"/></g></svg>