<svg height="512" viewBox="0 0 60 59" width="512" xmlns="http://www.w3.org/2000/svg"><g id="035---UV-Protection" fill="none"><circle id="Oval" cx="13" cy="13" fill="#3b97d3" r="12"/><path id="Shape" d="m59 32v4h-58v-4c12.519-5.33 45.49-5.326 58 0z" fill="#f0c419"/><path id="Shape" d="m1 40h58v17c0 1.1045695-.8954305 2-2 2h-54c-1.1045695 0-2-.8954305-2-2z" fill="#fb7b76"/><g fill="#df4d60"><circle id="Oval" cx="6" cy="45" r="1"/><circle id="Oval" cx="12" cy="45" r="1"/><circle id="Oval" cx="3" cy="49" r="1"/><circle id="Oval" cx="9" cy="49" r="1"/><circle id="Oval" cx="6" cy="53" r="1"/><circle id="Oval" cx="12" cy="53" r="1"/><circle id="Oval" cx="3" cy="57" r="1"/><circle id="Oval" cx="9" cy="57" r="1"/><circle id="Oval" cx="15" cy="57" r="1"/><circle id="Oval" cx="15" cy="49" r="1"/><circle id="Oval" cx="54" cy="45" r="1"/><circle id="Oval" cx="48" cy="45" r="1"/><circle id="Oval" cx="57" cy="49" r="1"/><circle id="Oval" cx="51" cy="49" r="1"/><circle id="Oval" cx="54" cy="53" r="1"/><circle id="Oval" cx="48" cy="53" r="1"/><circle id="Oval" cx="57" cy="57" r="1"/><circle id="Oval" cx="51" cy="57" r="1"/><circle id="Oval" cx="45" cy="57" r="1"/><circle id="Oval" cx="18" cy="53" r="1"/><circle id="Oval" cx="24" cy="53" r="1"/><circle id="Oval" cx="30" cy="53" r="1"/><circle id="Oval" cx="42" cy="53" r="1"/><circle id="Oval" cx="36" cy="53" r="1"/><circle id="Oval" cx="21" cy="57" r="1"/><circle id="Oval" cx="27" cy="57" r="1"/><circle id="Oval" cx="39" cy="57" r="1"/><circle id="Oval" cx="33" cy="57" r="1"/><circle id="Oval" cx="45" cy="49" r="1"/><circle id="Oval" cx="18" cy="45" r="1"/><circle id="Oval" cx="24" cy="45" r="1"/><circle id="Oval" cx="30" cy="45" r="1"/><circle id="Oval" cx="42" cy="45" r="1"/><circle id="Oval" cx="36" cy="45" r="1"/><circle id="Oval" cx="21" cy="49" r="1"/><circle id="Oval" cx="27" cy="49" r="1"/><circle id="Oval" cx="39" cy="49" r="1"/><circle id="Oval" cx="33" cy="49" r="1"/></g><path id="Shape" d="m59 33c-.1347522.0003171-.2681479-.0269065-.392-.08-12.27-5.221-44.946-5.22-57.216 0-.50810196.2164956-1.09550434-.0198981-1.31199996-.528-.21649561-.508102.01989802-1.0955044.52799996-1.312 12.771-5.432 46.013-5.432 58.784 0 .4371907.1862425.6829298.6544377.5878694 1.12004-.0950605.4656023-.5046621.7999988-.9798694.79996z" fill="#f9eab0"/><path id="Shape" d="m45 25c-.2651948-.0000566-.5195073-.1054506-.707-.293l-14-14c-.3789722-.3923789-.3735524-1.01608478.0121814-1.40181858.3857338-.38573379 1.0094397-.39115363 1.4018186-.01218142l14 14c.2859079.2859943.3714219.7160366.216678 1.0896546-.1547439.3736179-.5192821.6172591-.923678.6173454z" fill="#e64c3c"/><path id="Shape" d="m45 25c-.4043959-.0000863-.7689341-.2437275-.923678-.6173454-.1547439-.373618-.0692299-.8036603.216678-1.0896546l12.293-12.293h-2.586c-.5522847 0-1-.4477153-1-1 0-.55228475.4477153-1 1-1h5c.4043959.00008635.7689341.2437275.923678.61734544s.0692299.80366026-.216678 1.08965456l-14 14c-.1874927.1875494-.4418052.2929434-.707.293z" fill="#e64c3c"/><path id="Shape" d="m59 16c-.5522847 0-1-.4477153-1-1v-5c0-.55228475.4477153-1 1-1s1 .44771525 1 1v5c0 .5522847-.4477153 1-1 1z" fill="#e64c3c"/><path id="Shape" d="m30 25c-.2651948-.0000566-.5195073-.1054506-.707-.293l-6.06-6.06c-.2599566-.2510745-.3642126-.6228779-.2726972-.9725073.0915155-.3496295.3645604-.6226744.7141899-.7141899.3496294-.0915154.7214328.0127406.9725073.2726972l6.06 6.06c.2859079.2859943.3714219.7160366.216678 1.0896546-.1547439.3736179-.5192821.6172591-.923678.6173454z" fill="#c03a2b"/><path id="Shape" d="m30 25c-.4043959-.0000863-.7689341-.2437275-.923678-.6173454-.1547439-.373618-.0692299-.8036603.216678-1.0896546l12.293-12.293h-2.586c-.5522847 0-1-.4477153-1-1 0-.55228475.4477153-1 1-1h5c.4043959.00008635.7689341.2437275.923678.61734544s.0692299.80366026-.216678 1.08965456l-14 14c-.1874927.1875494-.4418052.2929434-.707.293z" fill="#c03a2b"/><path id="Shape" d="m44 16c-.5522847 0-1-.4477153-1-1v-5c0-.55228475.4477153-1 1-1s1 .44771525 1 1v5c0 .5522847-.4477153 1-1 1z" fill="#c03a2b"/><path id="Shape" d="m13 26c-7.17970175 0-13-5.8202983-13-13 0-7.17970175 5.82029825-13 13-13 7.1797017 0 13 5.82029825 13 13-.008266 7.1762751-5.8237249 12.991734-13 13zm0-24c-6.07513225 0-11 4.92486775-11 11 0 6.0751322 4.92486775 11 11 11 6.0751322 0 11-4.9248678 11-11-.0071635-6.07216255-4.9278374-10.9928365-11-11z" fill="#2980ba"/><path id="Shape" d="m8 18c-2.209139 0-4-1.790861-4-4v-4c0-.55228475.44771525-1 1-1s1 .44771525 1 1v4c0 1.1045695.8954305 2 2 2s2-.8954305 2-2v-4c0-.55228475.4477153-1 1-1s1 .44771525 1 1v4c0 2.209139-1.790861 4-4 4z" fill="#b0d3f0"/><path id="Shape" d="m17.081 17.394-3-7c-.1468235-.329423-.1048848-.71238453.1097549-1.00222314s.5687214-.44164296.9266436-.39727702.6642238.27802753.8016015.61150016l2.081 4.855 2.081-4.855c.2225705-.49937416.8049312-.72743117 1.3074258-.51199823.5024946.21543295.7388258.79448518.5305742 1.29999823l-3 7c-.1576614.367503-.5191056.6057425-.919.6057425s-.7613386-.2382395-.919-.6057425z" fill="#b0d3f0"/><path id="Rectangle-path" d="m1 36h58v4h-58z" fill="#f9c795"/><path id="Shape" d="m59 41h-58c-.55228475 0-1-.4477153-1-1s.44771525-1 1-1h58c.5522847 0 1 .4477153 1 1s-.4477153 1-1 1z" fill="#fdd7ad"/><path id="Shape" d="m59 37h-58c-.55228475 0-1-.4477153-1-1s.44771525-1 1-1h58c.5522847 0 1 .4477153 1 1s-.4477153 1-1 1z" fill="#fdd7ad"/></g></svg>