<svg height="512" viewBox="0 0 58 55" width="512" xmlns="http://www.w3.org/2000/svg"><g id="036---Perfume" fill="none" transform="translate(0 -1)"><path id="Shape" d="m13 12c-1.4768214 1.8146843-3.66215975 2.9073535-6 3-3.87 0-7-2.457-7-5.5 0-5.079 8.511-8.03 13-2.5z" fill="#464f5d"/><path id="Shape" d="m22 7h-8.5c-1.3807119 0-2.5 1.11928813-2.5 2.5 0 1.3807119 1.1192881 2.5 2.5 2.5h8.268z" fill="#95a5a5"/><path id="Shape" d="m22 5h2c1.6568542 0 3 1.34314575 3 3v10h-8v-10c0-1.65685425 1.3431458-3 3-3z" fill="#bdc3c7"/><circle id="Oval" cx="24" cy="10" fill="#464f5d" r="1"/><path id="Shape" d="m42.99 38.28c-.267-6.842-4-12.068-9.99-15.56 0 1.66-4.48 2.28-10 2.28-2.259 0-10-.062-10-2.33-5.98 3.46-10 8.92-10 16.33-.0024435 6.1927051 2.86763712 12.0362927 7.77 15.82 1.0297448.778907 2.2889244 1.1939438 3.58 1.18h17.31c1.2756817.0146049 2.5203543-.3932539 3.54-1.16 5.1287025-3.9299373 8.0327139-10.1032913 7.79-16.56z" fill="#d75e72"/><path id="Shape" d="m33 22.72c4.0041284 2.1686086 7.1345534 5.6558878 8.86 9.87-10.682 1.516-13.571 5.842-20.16 8.93-5.84 2.75-14.44 3.59-18.68-1.93-.01682114-.1961911-.0234967-.3931202-.02-.59 0-7.41 4.02-12.87 10-16.33 0 .1-1.531.05 20 .05z" fill="#fb7b76"/><path id="Shape" d="m33 18v4.72c0 1.66-4.48 2.28-10 2.28s-10-.62-10-2.28v-4.72c.0032948-1.1032019.8967981-1.9967052 2-2h16c1.1032019.0032948 1.9967052.8967981 2 2z" fill="#fac176"/><path id="Shape" d="m7 39c-.55228475 0-1-.4477153-1-1 0-4.679 1.724-7.161 2.75-8.225.3838379-.3973689 1.01713111-.4083379 1.4145-.0245.3973689.3838379.4083379 1.0171311.0245 1.4145-.658.681-2.189 2.711-2.189 6.835 0 .5522847-.44771525 1-1 1z" fill="#fff"/><circle id="Oval" cx="12" cy="28" fill="#fff" r="1"/><path id="Shape" d="m31 9c-.4304304 0-.8125693-.27543009-.9486833-.68377223s.004339-.85796953.3486833-1.11622777l4-3c.2858125-.21435935.6642734-.25995643.9928203-.11961524.3285469.14034118.5572656.44529946.6.8s-.1070078.70525589-.3928203.91961524c-4.267 3.2-4.14 3.2-4.6 3.2z" fill="#ff5364"/><path id="Shape" d="m35 15c-.449 0-.2.1-4.6-3.2-.4418278-.3313708-.5313708-.9581722-.2-1.4s.9581722-.53137085 1.4-.2l4 3c.3443443.2582582.4847973.7078856.3486833 1.1162278-.136114.4083421-.5182529.6837722-.9486833.6837722z" fill="#ff5364"/><path id="Shape" d="m58 13c.0008161 3.8826717-2.7863844 7.2053859-6.61 7.88h-.01c-1.2194969 2.7001297-4.0067981 4.3400906-6.9593635 4.0946721-2.9525655-.2454185-5.4308581-2.3230579-6.1878278-5.1874722-.7569696-2.8644144.3713463-5.8951607 2.8171913-7.5671999-2.3202262-1.3111462-3.4975224-3.99561478-2.8903595-6.59059205.607163-2.59497728 2.85325-4.47845563 5.5143293-4.62409494s5.0992988 1.48146968 5.9860302 3.99468699v.01c2.1789684-.0952562 4.3021889.70426959 5.8771168 2.21310336 1.5749279 1.50883378 2.4646914 3.59584784 2.4628832 5.77689664z" fill="#fb7b76"/><path id="Shape" d="m51.38 20.88c-.3545432.7940626-.8567901 1.5134972-1.48 2.12-2.7498003-.0202096-5.3364655-1.3080072-7.01-3.49-.2965127-.4372993-.2016771-1.0298079.2165123-1.3527136.4181894-.3229058 1.0154171-.2647752 1.3634877.1327136 1.5856842 2.0567745 4.1826523 3.0624254 6.74 2.61.0559789-.0115871.1128603-.018279.17-.02z" fill="#ff5364"/><path id="Shape" d="m49.66 5c-1.3085824.05643063-2.5728284.49058105-3.64 1.25-.1711727.11625718-.3730829.17891896-.58.18-.4381318.00336439-.8274305-.27887565-.9604669-.69633473-.1330364-.41745907.0211753-.87290574.3804669-1.12366527 1.1028304-.78236645 2.3733131-1.29603866 3.71-1.5.4732673.55986467.8424295 1.19997161 1.09 1.89z" fill="#ff5364"/><path id="Shape" d="m54 13c-.5522847 0-1-.4477153-1-1 .0350942-.5404296-.1643231-1.0697842-.5472695-1.4527305-.3829463-.3829464-.9123009-.58236367-1.4527305-.5472695-.5522847 0-1-.44771525-1-1s.4477153-1 1-1c1.0701541-.03129825 2.1058561.3800703 2.8628929 1.13710709.7570368.75703678 1.1684054 1.79273881 1.1371071 2.86289291 0 .5522847-.4477153 1-1 1z" fill="#fff"/></g></svg>