<svg height="512" viewBox="0 0 58 58" width="512" xmlns="http://www.w3.org/2000/svg"><g id="037---Natural-Hand-Cream" fill="none"><path id="Rectangle-path" d="m43 3.82h6v12.36h-6z" fill="#95a5a5"/><path id="Shape" d="m42 14h8c1.6568542 0 3 1.3431458 3 3v3h-14v-3c0-1.6568542 1.3431458-3 3-3z" fill="#bdc3c7"/><path id="Shape" d="m51 6h-17.28c-.8541102.00077642-1.5794052-.62532094-1.7033553-1.4703897-.1239501-.84506875.3909979-1.65307823 1.2093553-1.8976103 7.19-2.157 8.203-2.632 10.974-2.632h5.8c1.1045695 0 2 .8954305 2 2v3c0 .55228475-.4477153 1-1 1z" fill="#bdc3c7"/><rect id="Rectangle-path" fill="#14a085" height="39" rx="5" width="24" x="34" y="19"/><path id="Shape" d="m36.544 24c0-2.76 1.765-5 3.94-5h11.032c2.175 0 3.94 2.24 3.94 5v29c0 2.76-1.765 5-3.94 5h-11.032c-2.175 0-3.94-2.24-3.94-5z" fill="#26b99a"/><path id="Shape" d="m34 45.45v-17.45h24v22h-17.49z" fill="#4fba6f"/><g fill="#fff"><path id="Shape" d="m50.447 45.294c-.4721023.0004918-.8802363-.3292553-.9789412-.7909242-.098705-.4616689.1389113-.9294776.5699412-1.1220758.891026-.4163219 1.647107-1.0746876 2.182-1.9.906-1.373.884-4.77.621-7.2-1.841.563-4.774 1.664-6.041 2.989-.3819049.3993018-1.0151981.4134048-1.4145.0315-.3993018-.3819049-.4134049-1.0151981-.0315-1.4145 2.289-2.391 7.85-3.792 8.085-3.851.2719761-.0676302.5598505-.018026.7935066.1367308s.3916477.4004617.4354934.6772692c.112.7 1.046 6.971-.778 9.736-.7743296 1.2964724-2.0005813 2.2609481-3.443 2.708z"/><path id="Shape" d="m43.77 45.994c-2.2810519-.0845636-4.3747662-1.2850844-5.6-3.211-1.887-2.816-.971-9.215-.861-9.935.0428191-.2777627.200545-.5246858.434563-.6803173s.5227242-.2056038.795437-.1376827c.714.177 7.024 1.816 8.908 4.62 2.841 4.219.739 9.344-3.677 9.344zm-4.62-11.722c-.223 2.2-.342 5.865.684 7.4 1.416 2.109 3.908 2.946 5.555 1.861 1.758-1.162 1.7-3.84.4-5.764-.946-1.413-4.214-2.769-6.639-3.497z"/><path id="Shape" d="m46.23 45.146c-.308636.0004543-.600189-.1416316-.79-.385l-3.23-4.146c-.3396551-.4357527-.2617526-1.0643448.174-1.4039999.4357527-.3396552 1.0643449-.2617527 1.404.1739999l3.231 4.146c.2350907.3014233.2777769.7104967.1099793 1.0539608-.1677976.343464-.5167182.56122-.8989793.5610392z"/><path id="Shape" d="m47.7 42.365c-.4031626.0011535-.7675864-.2399059-.9242617-.6113817-.1566754-.3714757-.0749549-.8007031.2072617-1.0886183l2.3-2.364c.3863232-.3959881 1.0205118-.4038231 1.4165-.0175.3959881.3863232.4038231 1.0205118.0175 1.4165l-2.3 2.365c-.1887717.1925879-.4473256.3007694-.717.3z"/></g><path id="Shape" d="m40.51 49.9c-.0045816.9532737-.4805741 1.8425168-1.2712826 2.3749939-.7907084.5324772-1.7936715.6391889-2.6787174.2850061-8.277-3.013-8.1-2.988-9.22-3.22-.328-.087-.949-.19-.99-.19.0055228 0 .01.0044772.01.01 1.0214313.7119604 1.4969371 1.9808413 1.1949623 3.1887406s-1.3186592 2.1037326-2.5549623 2.2512594c-.0402597-.0016438-.0805677.0017152-.12.01-3.6.3-5.973.122-11.04 1.84-3.092 1.077-7.22.056-9.55-1.54-1.45477145-1.057788-2.79534534-2.2643045-4-3.6-.18419577-.1906836-.28802571-.4448879-.29-.71v-13.19c.00169577-.4044441.24684724-.7680455.62114764-.9212679s.80404325-.0658935 1.08885236.2212679l3.24 3.24c1.31285787 1.3127239 3.09343331 2.050134 4.95 2.05h12.58c3.091 0 3.944.609 16.16 5.19 1.1297216.4221058 1.8762774 1.504013 1.87 2.71z" fill="#fdd7ad"/><path id="Shape" d="m27.63 51.33c-2.223-.329-1.99-.25-11.3-.25-.5522847 0-1-.4477153-1-1s.4477153-1 1-1c9.112 0 8.944-.029 10.03.08.6211054.4226906 1.0574653 1.0665004 1.22 1.8.0313433.1209018.0481289.2451155.05.37z" fill="#f9c795"/><path id="Shape" d="m27 31c0 3.8659932-3.1340068 7-7 7s-7-3.1340068-7-7c0-2.678 3.359-8.348 5.424-11 .377681-.4872581.9595072-.7724191 1.576-.7724191s1.198319.285161 1.576.7724191c2.065 2.652 5.424 8.322 5.424 11z" fill="#90bae1"/><path id="Shape" d="m18.758 34.97c-1.2583596-.224102-2.3374681-1.0282453-2.912-2.17-.5022389-1.3892289-.40852-2.9241921.259-4.242.1591618-.3199313.4769147-.5306483.8335643-.5527757.3566496-.0221275.6980123.1476961.8955.4455.1974878.2978038.2210975.6783444.0619357.9982757-.3966318.7798501-.4793011 1.6820545-.231 2.521.3326595.5797959.9149099.9730088 1.577 1.065.497481.1640393.7840672.6841829.6569583 1.1923557-.1271088.5081728-.6248313.8321379-1.1409583.7426443z" fill="#b0d3f0"/><circle id="Oval" cx="20" cy="11" fill="#b0d3f0" r="3"/></g></svg>