<svg height="512" viewBox="0 0 58 58" width="512" xmlns="http://www.w3.org/2000/svg"><g id="038---Natural-Pippette-Drops" fill="none"><path id="Shape" d="m40 1c-1.3352873-1.33009384-3.4947127-1.33009384-4.83 0l-1.41 1.41c-1.925 1.925-3.692.072-5.62 2l-6.25 6.25c-.6601039.6677305-.6601039 1.7422695 0 2.41l1.21 1.21-18.51 18.51c-.19786752.2036724-.28374373.491171-.23.77l.4 2.01c.06139069.3413943.32860574.6086093.67.67l2.01.4c.27882901.0537437.5663276-.0321325.77-.23l18.51-18.51 1.21 1.21c.6677305.6601039 1.7422695.6601039 2.41 0l6.25-6.25c1.928-1.929.071-3.691 2-5.62l1.41-1.41c1.3328438-1.33415023 1.3328438-3.49584977 0-4.83z" fill="#547580"/><path id="Rectangle-path" d="m14.154 17.984h12.601v5.119h-12.601z" fill="#84b5cb" transform="matrix(.707 -.707 .707 .707 -8.536 20.481)"/><path id="Shape" d="m41 3.42c-.0032677.9036141-.3625669 1.7695251-1 2.41l-1.41 1.41c-1.925 1.925-.072 3.692-2 5.62l-2.63 2.63-8.45-8.45c3.4-3.4 3.2-3.63 5.83-3.63.9073626.00078927 1.7778707-.35892482 2.42-1l1.41-1.41c.9787469-.97342833 2.4468435-1.26279932 3.7217708-.73358422s2.1065433 1.77318378 2.1082292 3.15358422z" fill="#14a085"/><path id="Shape" d="m33.96 15.49-3.62 3.62c-.6677305.6601039-1.7422695.6601039-2.41 0l-6.04-6.04c-.6601039-.6677305-.6601039-1.7422695 0-2.41l3.62-3.62z" fill="#ecf0f1"/><path id="Shape" d="m14 51.288c-.0808898 3.7858666-3.2140757 6.7901443-7 6.712-3.78592431.0781443-6.91911016-2.9261334-7-6.712 0-2.568 3.359-8 5.424-10.547.38869329-.4695049.96647781-.7412625 1.576-.7412625s1.18730671.2717576 1.576.7412625c2.065 2.542 5.424 7.979 5.424 10.547z" fill="#84b5cb"/><path id="Shape" d="m5.794 55.116c-1.22433788-.2193528-2.27333062-1.003688-2.83-2.116-.48860832-1.3494456-.39777179-2.8408294.251-4.121.246319-.494571.84692901-.695819 1.3415-.4495s.695819.846929.4495 1.3415c-.37950924.7417569-.45934907 1.6010196-.223 2.4.31565618.5487536.86776758.9202747 1.495 1.006.51575474.1502238.82067921.6810892.69058191 1.2022848-.1300973.5211955-.64873058.84649-1.17458191.7367152z" fill="#9fc9d3"/><path id="Shape" d="m58 30.5v24.5c.0301085 1.6259892-1.2630311 2.9688133-2.889 3h-20.222c-1.6259689-.0311867-2.9191085-1.3740108-2.889-3v-24.5c-.0351283-1.8967959 1.473233-3.4633433 3.37-3.5 1.8971604-.0361123 3.4061248-1.602821 3.371-3.5v-1.5h12.518v1.5c-.0351248 1.897179 1.4738396 3.4638877 3.371 3.5 1.896767.0366567 3.4051283 1.6032041 3.37 3.5z" fill="#14a085"/><path id="Shape" d="m55.717 30.5v24.5c0 1.657-1.066 3-2.381 3h-16.672c-1.315 0-2.381-1.343-2.381-3v-24.5c0-1.933 1.244-3.5 2.778-3.5s2.779-1.567 2.779-3.5v-.5h10.32v.5c0 1.933 1.244 3.5 2.779 3.5s2.778 1.567 2.778 3.5z" fill="#26b99a"/><path id="Shape" d="m52 18v4c.0174308.533382-.3996912.9804581-.933 1h-12.134c-.5333088-.0195419-.9504308-.466618-.933-1v-4c-.0174308-.533382.3996912-.9804581.933-1h12.134c.5333088.0195419.9504308.466618.933 1z" fill="#bdc3c7"/><path id="Rectangle-path" d="m32 32h26v20h-26z" fill="#4fba6f"/><g fill="#fff"><path id="Shape" d="m49.447 48.294c-.4721023.0004918-.8802363-.3292553-.9789412-.7909242-.098705-.4616689.1389113-.9294776.5699412-1.1220758.891026-.4163219 1.647107-1.0746876 2.182-1.9.906-1.373.884-4.77.621-7.2-1.841.563-4.774 1.664-6.041 2.989-.3819049.3993019-1.0151981.4134049-1.4145.0315s-.4134049-1.0151981-.0315-1.4145c2.289-2.391 7.85-3.792 8.085-3.851.2719761-.0676302.5598505-.018026.7935066.1367308s.3916477.4004617.4354934.6772692c.112.7 1.046 6.971-.778 9.736-.7743296 1.2964724-2.0005813 2.2609481-3.443 2.708z"/><path id="Shape" d="m42.77 48.994c-2.2810519-.0845636-4.3747662-1.2850844-5.6-3.211-1.887-2.816-.971-9.215-.861-9.935.0428191-.2777627.200545-.5246858.434563-.6803173s.5227242-.2056038.795437-.1376827c.714.177 7.024 1.816 8.908 4.62 2.841 4.219.739 9.344-3.677 9.344zm-4.62-11.722c-.223 2.2-.342 5.865.684 7.4 1.416 2.109 3.908 2.946 5.555 1.861 1.758-1.162 1.7-3.84.4-5.764-.946-1.413-4.214-2.769-6.639-3.497z"/><path id="Shape" d="m45.23 48.146c-.308636.0004543-.600189-.1416316-.79-.385l-3.23-4.146c-.2197183-.2818826-.2723639-.6595711-.1381056-.990794.1342583-.331223.4350234-.5656597.789-.615.3539766-.0493404.7073873.0939114.9271056.375794l3.231 4.146c.2350907.3014233.2777769.7104967.1099793 1.0539608-.1677976.343464-.5167182.56122-.8989793.5610392z"/><path id="Shape" d="m46.7 45.365c-.4031626.0011535-.7675864-.2399059-.9242617-.6113817-.1566754-.3714757-.0749549-.8007031.2072617-1.0886183l2.3-2.364c.2499073-.2561595.6174906-.3595366.9642848-.2711903.3467942.0883464.6201131.3549943.717.6995001.0968869.3445057.0026225.7145308-.2472848.9706902l-2.3 2.365c-.1887717.1925879-.4473256.3007694-.717.3z"/></g></g></svg>