<svg height="512" viewBox="0 0 58 58" width="512" xmlns="http://www.w3.org/2000/svg"><g id="040---Cracked-Skin" fill="none"><path id="Shape" d="m46.2 49.527c-5.057-1.76-3.1-9.471-2.288-17.637-5.6171105.6679129-11.1699881-1.6765839-14.60876-6.1680075-3.4387719-4.4914237-4.2534303-10.4636465-2.14324-15.7119925-3.794641.040331-7.5285639.957555-10.91 2.68-.337-.03-.852-.02-1.03-.02-2.93.06-11.26 1.12-12.26 11.5-.994 10.362 4.519 23.042-2.142 25.358-.15368329.0548139-.27095357.1811671-.31417179.3385053-.04321821.1573382-.00694709.3258668.09717179.4514947 1.244 1.458 3.021 4.121 12.059 5.282 1.44.19 2.89.3 4.34.35v.05c.0032948 1.1032019.8967981 1.9967052 2 2h9c.5386949-.0014816 1.0541564-.2195652 1.4303414-.6051548.3761849-.3855895.5814765-.9062779.5696586-1.4448452 1.46-.05 2.91-.16 4.36-.35 9.037-1.161 10.815-3.824 12.058-5.282.1045239-.1257848.1409253-.2947368.0974722-.4524038-.0434531-.1576671-.1612675-.2841172-.3154722-.3385962z" fill="#a56a43"/><path id="Shape" d="m30 47.38v8.62c-.0032948 1.1032019-.8967981 1.9967052-2 2h-9c-1.1032019-.0032948-1.9967052-.8967981-2-2v-8.59c3.6591521 3.4300836 9.3567179 3.4169354 13-.03z" fill="#f9c795"/><path id="Shape" d="m12.37 39.05c-1.2-.18-4.37-1.13-4.37-6.09 0-4.84 2.41-3.57 3.43-2.82-.065365 2.9978278.2504984 5.9918102.94 8.91z" fill="#f9c795"/><path id="Shape" d="m35.56 30.65c-.082 4.3-.463 8.2-2.25 12-1.931 4.179-5.133 7.31-9.81 7.31-4.713 0-7.841-3.064-9.84-7.31-1.83-3.966-2.177-8.123-2.23-12.51-.1-4.468.358-9.422 3.91-12.14.68 1.72 2.72 5 8.16 5 1.67 0 3.02.01 4.15.07 1.6614041 3.3795852 4.4627239 6.0640358 7.91 7.58z" fill="#fdd7ad"/><path id="Shape" d="m39 32.96c0 4.96-3.17 5.91-4.37 6.09.6537773-2.7511843.9661298-5.5724331.93-8.4 1.0810896.4757754 2.2112128.8312444 3.37 1.06.0514146.4146186.074801.8322333.07 1.25z" fill="#f9c795"/><path id="Shape" d="m25 34c-.4043959-.0000863-.7689341-.2437275-.923678-.6173454-.1547439-.373618-.0692299-.8036603.216678-1.0896546l5.68-5.68c.3923789-.3789722 1.0160848-.3735524 1.4018186.0121814s.3911536 1.0094397.0121814 1.4018186l-5.68 5.68c-.1874927.1875494-.4418052.2929434-.707.293z" fill="#2980ba"/><path id="Shape" d="m42 0c-6.5233861-.00398604-12.3939391 3.95853828-14.83 10.01h-.01c-2.6333461 6.5224507-.6980623 13.9997539 4.7689498 18.425661 5.4670121 4.425907 13.1833752 4.7622491 19.0147554.8288181 5.8313803-3.933431 8.4099318-11.2139844 6.3540981-17.9408278-2.0558338-6.72684339-8.2638235-11.32208554-15.2978033-11.3236513z" fill="#3b97d3"/><path id="Shape" d="m49.05 6.3c-5.89 2.41-13.93 7-17.84 14.93-.804229-1.6256338-1.2185202-3.4163305-1.21-5.23.0040162-4.5097821 2.5361902-8.63654108 6.5549882-10.68285818s8.845587-1.66664167 12.4950118.98285818z" fill="#fdd7ad"/><path id="Shape" d="m54 16c-.0011503 5.5761539-3.8432453 10.4167784-9.273569 11.6836949s-11.0178326-1.3737434-13.486431-6.3736949c-.01-.03-.03-.05-.03-.08 3.91-7.93 11.95-12.52 17.84-14.93 3.1105582 2.2520149 4.9516441 5.8597994 4.95 9.7z" fill="#f9c795"/><g fill="#cb8252"><path id="Shape" d="m38 23c-.5522847 0-1-.4477153-1-1v-1.465c.0001229-.6687467.3344799-1.29318.891-1.664l2.388-1.592 1.567-2.351-1.741-3.481c-.1595566-.320571-.1355273-.7019883.063-1l2-3c.306518-.45950091.9274991-.58351804 1.387-.277s.583518.92749909.277 1.387l-1.678 2.517 1.481 2.962c.3194093.6409656.2717326 1.4037933-.125 2l-1.567 2.35c-.3.446-.37.432-2.943 2.147v1.467c0 .5522847-.4477153 1-1 1z"/><path id="Shape" d="m48 23c-.3464401-.000185-.6681037-.1796678-.8501945-.4743943-.1820909-.2947265-.1986643-.6627032-.0438055-.9726057l.606-1.211-1.82-1.213c-.5569008-.3705907-.8916543-.9950636-.892-1.664v-.744l-2.316-.772c-.5246705-.174522-.808522-.7413295-.634-1.266s.7413295-.808522 1.266-.634l2.317.772c.8173894.2727229 1.3682125 1.0383146 1.367 1.9v.744l1.82 1.213c.8396942.5593687 1.1312571 1.6565884.68 2.559l-.6 1.21c-.1702259.3406694-.5191744.5550788-.9.553z"/><path id="Shape" d="m41 12c-.233 0-.077.029-3.316-1.051-.3394023-.1128959-.5927937-.398285-.6647241-.748664-.0719304-.35037901.0485281-.71251697.316-.95000003s.6413218-.3142319.9807241-.20133597l3 1c.4690221.1524496.7568689.6240766.6780177 1.1109083-.0788513.4868317-.5008533.8434857-.9940177.8400917z"/></g><path id="Shape" d="m42 29c-7.1797017 0-13-5.8202983-13-13 0-7.17970175 5.8202983-13 13-13s13 5.82029825 13 13c-.008266 7.1762751-5.8237249 12.991734-13 13zm0-24c-6.0751322 0-11 4.92486775-11 11 0 6.0751322 4.9248678 11 11 11s11-4.9248678 11-11c-.0071635-6.07216255-4.9278374-10.9928365-11-11z" fill="#285680"/></g></svg>