<svg height="512" viewBox="0 0 57 58" width="512" xmlns="http://www.w3.org/2000/svg"><g id="041---Makeup-Palette" fill="none" transform="translate(0 -1)"><path id="Rectangle-path" d="m26 25.25h6v9.5h-6z" fill="#b19046"/><path id="Shape" d="m54.75 46-.922-6.949v-18.1l.922-6.951h.01c1.36-1.79 2.24-5.53 2.24-8 0-2.75-1.09-4.06-2.71-4.61-1.8237255-.51950174-3.7562745-.51950174-5.58 0-1.62.55-2.71 1.86-2.71 4.61 0 2.47.88 6.21 2.24 8h.01l.922 6.949v18.1l-.922 6.951h-.01c-1.36 1.79-2.24 5.53-2.24 8 0 3.4 1.591 5.254 6.28 4.97 3.12-.189 4.72-1.57 4.72-4.97 0-2.47-.88-6.21-2.24-8z" fill="#7f6e5d"/><path id="Rectangle-path" d="m49.172 17.5h4.656v25h-4.656z" fill="#805333"/><path id="Shape" d="m11.64 2.23c-3.227-2.216-11.64-1.976-11.64 4.77.17879849 3.2760206 1.2206793 6.4465122 3.02 9.19 1.306 14.41.794 4.879 1.92 40.81.03467544 1.1127251.94673478 1.996805 2.06 1.996805s2.02532456-.8840799 2.06-1.996805c1.127-35.956.614-26.4 1.92-40.81 1.7993207-2.7434878 2.8412015-5.9139794 3.02-9.19.1042356-1.89383858-.7912913-3.7038655-2.36-4.77z" fill="#805333"/><circle id="Oval" cx="29" cy="15" fill="#e4c05c" r="13"/><path id="Shape" d="m34.36 7.78c-4.41 1.35-11.14 4.43-13.5 11.05-1.7615533-3.7312139-.7573294-8.1825158 2.4355994-10.79598716 3.1929288-2.61347138 7.7549005-2.71820361 11.0644006-.25401284z" fill="#67b9cc"/><path id="Shape" d="m38 15c-.0043571 4.210844-2.9278142 7.8557903-7.0373131 8.7740739s-8.3063808-1.1355952-10.1026869-4.9440739c2.36-6.62 9.09-9.7 13.5-11.05 2.287724 1.69486572 3.637845 4.372853 3.64 7.22z" fill="#2fa8cc"/><circle id="Oval" cx="29" cy="45" fill="#e4c05c" r="13"/><path id="Shape" d="m35.36 51.36c-3.5138106 3.5094405-9.2061894 3.5094405-12.72 0l6.36-6.36z" fill="#802f34"/><path id="Shape" d="m35.36 51.36-6.36-6.36 6.36-6.36c3.5094405 3.5138106 3.5094405 9.2061894 0 12.72z" fill="#a65a47"/><path id="Shape" d="m35.36 38.64-6.36 6.36-6.36-6.36c3.5138106-3.5094405 9.2061894-3.5094405 12.72 0z" fill="#cc6f56"/><path id="Shape" d="m29 45-6.36 6.36c-3.5094405-3.5138106-3.5094405-9.2061894 0-12.72z" fill="#a65a47"/><path id="Shape" d="m24 14c-.4043959-.0000863-.7689341-.2437275-.923678-.6173454-.1547439-.373618-.0692299-.8036603.216678-1.0896546l3-3c.3923789-.37897221 1.0160848-.37355237 1.4018186.01218142.3857338.3857338.3911536 1.00943968.0121814 1.40181858l-3 3c-.1874927.1875494-.4418052.2929434-.707.293z" fill="#fff"/><path id="Shape" d="m25 18c-.4043959-.0000863-.7689341-.2437275-.923678-.6173454-.1547439-.373618-.0692299-.8036603.216678-1.0896546l6-6c.3923789-.37897221 1.0160848-.37355237 1.4018186.0121814.3857338.3857338.3911536 1.0094397.0121814 1.4018186l-6 6c-.1874927.1875494-.4418052.2929434-.707.293z" fill="#fff"/><path id="Shape" d="m11 16-1 11h-6l-1-11z" fill="#a5a5a4"/><path id="Shape" d="m10.98 16.19.02-.19h-8l.02.19c-1.7993207-2.7434878-2.84120151-5.9139794-3.02-9.19 0-4.037 3.01-6 7-6s7 1.972 7 6c-.1787985 3.2760206-1.2206793 6.4465122-3.02 9.19z" fill="#7f6e5d"/><g fill="#5f5346"><path id="Shape" d="m4.37 10.39c-.49183431.2504264-1.09360725.0587506-1.35-.43-1.09273731-2.42661521-1.32554268-5.15325998-.66-7.73.71185428-.47012102 1.50557994-.80253604 2.34-.98-.808 2.419-1.073 5.5.1 7.79.1225056.23595052.14601239.51097108.06532594.764289-.08068645.2533179-.25892376.4640793-.49532594.585711z"/><path id="Shape" d="m10.98 9.96c-.2563928.4887506-.8581657.6804264-1.35.43-.23640218-.1216317-.41463949-.3323931-.49532594-.585711-.08068645-.25331792-.05717966-.52833848.06532594-.764289 1.173-2.292.907-5.373.1-7.79.8344201.17746396 1.6281457.50987898 2.34.98.6655427 2.57674002.4327373 5.30338479-.66 7.73z"/><path id="Shape" d="m8 1.05v6.45c0 .55228475-.44771525 1-1 1s-1-.44771525-1-1v-6.45c.66495743-.06751272 1.33504257-.06751272 2 0z"/></g><path id="Shape" d="m54.75 14-.929 7h-4.642l-.929-7z" fill="#a5a5a4"/><path id="Shape" d="m50.45 8.89c-.2356402.12164721-.5102622.14356582-.7622145.06083519-.2519524-.08273063-.4601255-.26317897-.5777855-.50083519-.61-1.21-.74-3.59-.4-7.06.6477063-.22185659 1.3255559-.34326249 2.01-.36.028.171-.663 4.853.17 6.52.2469243.49165355.050313 1.09042437-.44 1.34z" fill="#5f5346"/><path id="Shape" d="m53.89 8.45c-.1174527.23785328-.3256193.41848383-.5776522.5012409-.2520329.08275708-.5267577.06068789-.7623478-.0612409-.490313-.24957563-.6869243-.84834645-.44-1.34.863-1.725.121-6.224.17-6.52.6844441.01673751 1.3622937.13814341 2.01.36.34 3.47.21 5.85-.4 7.06z" fill="#5f5346"/><path id="Shape" d="m54.75 46h-6.5l.929-7h4.642z" fill="#a5a5a4"/><path id="Shape" d="m50.89 52.45c-.863 1.724-.121 6.224-.17 6.52-.6844441-.0167375-1.3622937-.1381434-2.01-.36-.34-3.47-.21-5.85.4-7.06.2700473-.4487927.8406385-.6131719 1.3080622-.3768341s.6732882.7933069.4719378 1.2768341z" fill="#5f5346"/><path id="Shape" d="m54.29 58.61c-.6477063.2218566-1.3255559.3432625-2.01.36-.028-.171.663-4.854-.17-6.52-.2013504-.4835272.0045141-1.0404963.4719378-1.2768341s1.0380149-.0719586 1.3080622.3768341c.61 1.21.74 3.59.4 7.06z" fill="#5f5346"/></g></svg>