<svg height="512" viewBox="0 0 53 59" width="512" xmlns="http://www.w3.org/2000/svg"><g id="043---Foundation" fill="none" transform="translate(0 -1)"><path id="Shape" d="m21.66 27c.173-.593 2.34-7.936 2.34-8.01-.01-3.31-5.38-5.99-12-5.99s-12 2.69-12 6c.789 2.525.875 2.718 5.5 17l-.5 19.91c.00026604.9368463.64710033 1.7495355 1.56 1.96 3.5787164.8340252 7.3012836.8340252 10.88 0 .0413734-.0087915.0816264-.0222092.12-.04.1301313.1025683.2798666.177436.44.22 2.2947613.600005 4.7052387.600005 7 0 .6071689-.1807659 1.0172874-.7467295 1-1.38-.541-15.105-.441-13.965-.62-13.92-.025-.1-.172.491 3.3-10.85.2054971-.3303949.3161982-.7109301.32-1.1 0-2.07-3.27-3.76-7.34-3.8z" fill="#fdd7ad"/><path id="Shape" d="m48.56 1h-11.12c-2.3281993-.11462745-4.3119134 1.67250237-4.44 4v51.36c-.0051702.9557315.6714618 1.7794575 1.61 1.96 5.5486314 1.0000659 11.2313686 1.0000659 16.78 0 .9385382-.1805425 1.6151702-1.0042685 1.61-1.96v-51.36c-.1280866-2.32749763-2.1118007-4.11462745-4.44-4z" fill="#3b97d3"/><path id="Shape" d="m53 17v3c-6.5899819 1.4300092-13.4100181 1.4300092-20 0 .1279154-3.6598237 2.5223856-6.8524505 6-8 3.07-1.02.09-2.29-1.34-2.79-.4009945-.13648436-.6678045-.51648656-.66-.94v-1.29c0-.55228475.4477153-1 1-1 3.5.02 15 2.02 15 11.02z" fill="#ecf0f1"/><path id="Shape" d="m53 5v12c0-9-11.5-11-15-11.02-.5522847 0-1 .44771525-1 1v1.29c-.0078045.42351344.2590055.80351564.66.94 1.43.5 4.41 1.77 1.34 2.79-3.4776144 1.1475495-5.8720846 4.3401763-6 8v-15c.1280866-2.32749763 2.1118007-4.11462745 4.44-4h11.12c2.3281993-.11462745 4.3119134 1.67250237 4.44 4z" fill="#9fc9d3"/><path id="Shape" d="m17.56 58.33c-.8.4-5.934 1.2-11 .04-.91289967-.2104645-1.55973396-1.0231537-1.56-1.96v-20.41c3.42594254 1.0556437 7.0463616 1.3223035 10.59.78 1.626 6.26 1.555 5.87 1.53 5.97-.187-.05-.12-1.244-.12 14.42-.0045963.4528726.2025292.8819184.56 1.16z" fill="#5d4c72"/><path id="Shape" d="m23.26 21.53-1.6 5.47h-.16c-4.14 0-7.5 1.7-7.5 3.8.0038018.3890699.1145029.7696051.32 1.1l1.27 4.88c-3.5436384.5423035-7.16405746.2756437-10.59-.78l-4.26-14.47c6.049-3.37 16.447-3.383 22.52 0z" fill="#7f6e5d"/><path id="Shape" d="m26 57.17c.0172874.6332705-.3928311 1.1992341-1 1.38-2.2947613.600005-4.7052387.600005-7 0-.6038242-.185464-1.0117814-.748445-1-1.38 0-15.65-.059-14.465.12-14.42 2.8125972 1.1200291 5.9474028 1.1200291 8.76 0 .187-.05.12-1.244.12 14.42z" fill="#7d6599"/><path id="Shape" d="m25.88 42.75c-2.8125972 1.1200291-5.9474028 1.1200291-8.76 0 .025-.1.145.478-2.66-10.29 3.774-1.948 10.305-1.949 14.08 0-2.805 10.766-2.685 10.189-2.66 10.29z" fill="#a59078"/><path id="Shape" d="m10 46c0 12.232.023 12.81-.01 12.91-.4-.036-1.519-.164-1.99-.25v-12.66c0-.5522847.44771525-1 1-1s1 .4477153 1 1z" fill="#3d324c"/><circle id="Oval" cx="9" cy="42" fill="#3d324c" r="1"/><path id="Shape" d="m38 34c0 24.647.023 24.7-.01 24.8-.66-.07-1.33-.15-1.99-.25v-24.55c0-.5522847.4477153-1 1-1s1 .4477153 1 1z" fill="#285680"/></g></svg>