<svg height="512" viewBox="0 0 58 58" width="512" xmlns="http://www.w3.org/2000/svg"><g id="046---Lip-Gloss" fill="none"><path id="Shape" d="m40 2.67c-4.04-4.04-8.99-2.64-11.79-1.3-1.3948603.68005-3.0251397.68005-4.42 0-2.8-1.34-7.75-2.74-11.79 1.3-6 6-5 8.33-12 13.33 8.992 10.79 9.98 11.99 10.08 12.09l5.33 4.35c1.9900885 1.0695357 4.1418969 1.8059474 6.37 2.18 4.078-3.674 12.728-4.768 18.27-4.61 1.423-1.235 1.171-1.076 11.95-14.01-7-5-6-7.33-12-13.33z" fill="#ff5364"/><path id="Shape" d="m21.78 34.62c-2.2281031-.3740526-4.3799115-1.1104643-6.37-2.18l-5.33-4.35c-.1-.1-.967-1.155-10.08-12.09 1.55501579.0541093 3.11169696-.0362786 4.65-.27 9.518 9.716 33.18 9.717 42.7 0 1.538303.2337214 3.0949842.3241093 4.65.27-10.386 12.463-10.522 12.771-11.95 14.01z" fill="#df4d60"/><path id="Shape" d="m39.06 12.77c-5.009 3-21.1 3-26.12 0 .3660727-.2386554.7198568-.4956495 1.06-.77 4.56-3.65 5.79-3.97 10.52-2.48.9638621.30000351 1.9961379.30000351 2.96 0 4.73-1.49 5.96-1.17 10.52 2.48.3401432.2743505.6939273.5313446 1.06.77z" fill="#fff"/><path id="Shape" d="m47.35 15.73c-9.518 9.716-33.18 9.717-42.7 0 2.94314334-.3827677 5.7700092-1.3921191 8.29-2.96 5.009 3 21.1 3 26.12 0 2.5207073 1.5663961 5.3472426 2.5756294 8.29 2.96z" fill="#59474e"/><g fill="#f3d55b"><path id="Shape" d="m6 44c-.55228475 0-1-.4477153-1-1v-2c0-.5522847.44771525-1 1-1s1 .4477153 1 1v2c0 .5522847-.44771525 1-1 1z"/><path id="Shape" d="m6 50c-.55228475 0-1-.4477153-1-1v-2c0-.5522847.44771525-1 1-1s1 .4477153 1 1v2c0 .5522847-.44771525 1-1 1z"/><path id="Shape" d="m10 46h-2c-.55228475 0-1-.4477153-1-1s.44771525-1 1-1h2c.5522847 0 1 .4477153 1 1s-.4477153 1-1 1z"/><path id="Shape" d="m4 46h-2c-.55228475 0-1-.4477153-1-1s.44771525-1 1-1h2c.55228475 0 1 .4477153 1 1s-.44771525 1-1 1z"/></g><path id="Shape" d="m15.379 32.48c-2.1587337.9652611-3.6905275 2.9475825-4.08 5.28-.139.306-.6.2-.6-.03-.4075932-2.308169-1.92089399-4.2698551-4.05-5.25-.19550794-.0655998-.32884875-.2467998-.33333073-.4529711-.00448199-.2061713.12085831-.3929948.31333073-.4670289 2.227-.861 3.464-2.876 4.05-5.19v-.03l.03-.12c.0586195-.1051768.1695907-.1703708.29-.1703708s.2313805.065194.29.1703708c.3687567 2.3527042 1.8992276 4.3607422 4.07 5.34.1910373.0699152.3196823.2497906.3241037.4531717.0044213.203381-.1162852.3886771-.3041037.4668283z" fill="#f5efca"/><path id="Shape" d="m40.05 30.01c-5.526-.158-14.186.931-18.27 4.61-1.0532567.8170382-1.7021829 2.0492688-1.78 3.38v12c0 4.42 8.51 8 19 8s19-3.58 19-8v-12c0-4.27-7.95-7.76-17.95-7.99z" fill="#46b29d"/><path id="Shape" d="m58 38c0 1.66-1.2 3.2-3.25 4.47.1611472-.3832628.2460631-.7942557.25-1.21 0-3.72-7.16-6.73-16-6.73s-16 3.01-16 6.73c.0039369.4157443.0888528.8267372.25 1.21-3.466-2.147-4.48-5.157-1.47-7.85 4.078-3.674 12.728-4.768 18.27-4.61 10 .23 17.95 3.72 17.95 7.99z" fill="#65ddb9"/><path id="Shape" d="m55 41.26c-.0039369.4157443-.0888528.8267372-.25 1.21-.0055228 0-.01.0044772-.01.01-7.537 4.686-23.927 4.7-31.48 0 0-.0055228-.0044772-.01-.01-.01-.1611472-.3832628-.2460631-.7942557-.25-1.21 0-3.72 7.16-6.73 16-6.73s16 3.01 16 6.73z" fill="#fb7b76"/><path id="Shape" d="m34.5 50.09c-.0503112.5150621-.4824892.9083441-1 .91h-.09c-6.81-.62-11.06-2.74-13.41-4.39v-2.51c3.893 3.118 8.621 4.454 13.59 4.9.5514675.0512632.9580271.5382412.91 1.09z" fill="#33907c"/><circle id="Oval" cx="37.5" cy="50" fill="#33907c" r="1"/></g></svg>