<svg height="512" viewBox="0 0 58 58" width="512" xmlns="http://www.w3.org/2000/svg"><g id="047---Citrus-Ingredients" fill="none"><g fill="#24ae5f"><path id="Shape" d="m21.97 29.01c-3.1817283 1.3206837-6.7582717 1.3206837-9.94 0 4.756-11.5 4.879-12 4.98-12z"/><path id="Shape" d="m29.01 21.97c-1.318556 3.1885158-3.8514842 5.721444-7.04 7.04l-4.96-12.0000227c.101.0000227-.119-.0529773 12 4.9600227z"/><path id="Shape" d="m29.01 21.97c-12.122-5.015-11.9-4.96-12-4.96v-.02c.1 0-.119.053 12-4.96 1.3205734 3.1817503 1.3205734 6.7582497 0 9.94z"/><path id="Shape" d="m29.01 12.03c-12.122 5.015-11.9 4.96-12 4.9600129l4.96-12.0000129c3.1885158 1.31855599 5.721444 3.85148419 7.04 7.04z"/><path id="Shape" d="m21.97 4.99-4.96 12c-.1 0-.182-.4-4.98-12 1.577905-.64548339 3.2651944-.9815833 4.97-.99 1.7058593-.00216758 3.3951775.33433645 4.97.99z"/><path id="Shape" d="m17 16.99c0 .1-.315-.112-12.01-4.96 1.31855599-3.18851581 3.85148419-5.72144401 7.04-7.04 5.023 12.142 4.87 11.9 4.97 12z"/><path id="Shape" d="m17 17.01c-.1.1.084-.216-4.97 12-3.18851581-1.318556-5.72144401-3.8514842-7.04-7.04 11.684-4.843 12.01-5.06 12.01-4.96z"/><path id="Shape" d="m16.98 17-11.99 4.97c-1.32101471-3.1816623-1.32101471-6.7583377 0-9.94z"/></g><path id="Shape" d="m17.01 18c-.4049111.0020246-.7710791-.2403298-.9274368-.6138393-.1563576-.3735096-.0720404-.8044449.21356-1.0914806.2856005-.2870356.7161078-.3735118 1.0903964-.2190283.3742886.1544834.6184753.519432.6184804.9243482.0000069.550338-.4446689.9972483-.995 1z" fill="#f29c1f"/><path id="Shape" d="m17 9c-.5522847 0-1-.44771525-1-1v-1c0-.55228475.4477153-1 1-1s1 .44771525 1 1v1c0 .55228475-.4477153 1-1 1z" fill="#71c285"/><path id="Shape" d="m27 18h-1c-.5522847 0-1-.4477153-1-1s.4477153-1 1-1h1c.5522847 0 1 .4477153 1 1s-.4477153 1-1 1z" fill="#f29c1f"/><path id="Shape" d="m8 18h-1c-.55228475 0-1-.4477153-1-1s.44771525-1 1-1h1c.55228475 0 1 .4477153 1 1s-.44771525 1-1 1z" fill="#f29c1f"/><path id="Shape" d="m10.636 11.636c-.494 0-.639-.225-1.414-1-.25995658-.2510745-.3642126-.6228779-.27269716-.97250732.09151544-.34962944.3645604-.6226744.71418984-.71418984.34962942-.09151544.72143282.01274058.97250732.27269716l.707.707c.2859079.2859943.3714219.7160366.216678 1.0896546-.1547439.3736179-.5192821.6172591-.923678.6173454z" fill="#f29c1f"/><path id="Shape" d="m9.929 25.071c-.4043959-.0000863-.76893405-.2437275-.92367798-.6173454-.15474393-.373618-.06922994-.8036603.21667798-1.0896546l.707-.707c.3923789-.3789722 1.0160848-.3735524 1.4018186.0121814s.3911536 1.0094397.0121814 1.4018186c-.643.646-.881 1-1.414 1z" fill="#f29c1f"/><path id="Shape" d="m23.364 11.636c-.4043959-.0000863-.7689341-.2437275-.923678-.6173454-.1547439-.373618-.0692299-.8036603.216678-1.0896546l.707-.707c.3923789-.37897221 1.0160848-.37355237 1.4018186.01218142.3857338.3857338.3911536 1.00943968.0121814 1.40181858-.645.645-.878 1-1.414 1z" fill="#71c285"/><path id="Shape" d="m17.01 18c-.4049111.0020246-.7710791-.2403298-.9274368-.6138393-.1563576-.3735096-.0720404-.8044449.21356-1.0914806.2856005-.2870356.7161078-.3735118 1.0903964-.2190283.3742886.1544834.6184753.519432.6184804.9243482.0000069.550338-.4446689.9972483-.995 1z" fill="#f29c1f"/><path id="Shape" d="m17 28c-.5522847 0-1-.4477153-1-1v-1c0-.5522847.4477153-1 1-1s1 .4477153 1 1v1c0 .5522847-.4477153 1-1 1z" fill="#71c285"/><path id="Shape" d="m27 18h-1c-.5522847 0-1-.4477153-1-1s.4477153-1 1-1h1c.5522847 0 1 .4477153 1 1s-.4477153 1-1 1z" fill="#71c285"/><path id="Shape" d="m8 18h-1c-.55228475 0-1-.4477153-1-1s.44771525-1 1-1h1c.55228475 0 1 .4477153 1 1s-.44771525 1-1 1z" fill="#71c285"/><path id="Shape" d="m9.929 25.071c-.4043959-.0000863-.76893405-.2437275-.92367798-.6173454-.15474393-.373618-.06922994-.8036603.21667798-1.0896546l.707-.707c.3923789-.3789722 1.0160848-.3735524 1.4018186.0121814s.3911536 1.0094397.0121814 1.4018186c-.643.646-.881 1-1.414 1z" fill="#71c285"/><path id="Shape" d="m10.636 11.636c-.494 0-.639-.225-1.414-1-.25995658-.2510745-.3642126-.6228779-.27269716-.97250732.09151544-.34962944.3645604-.6226744.71418984-.71418984.34962942-.09151544.72143282.01274058.97250732.27269716l.707.707c.2859079.2859943.3714219.7160366.216678 1.0896546-.1547439.3736179-.5192821.6172591-.923678.6173454z" fill="#71c285"/><path id="Shape" d="m24.071 25.071c-.494 0-.638-.224-1.414-1-.3789722-.3923789-.3735524-1.0160848.0121814-1.4018186s1.0094397-.3911536 1.4018186-.0121814l.707.707c.2859079.2859943.3714219.7160366.216678 1.0896546-.1547439.3736179-.5192821.6172591-.923678.6173454z" fill="#71c285"/><path id="Shape" d="m29.393 21.011-9.736-4.029 9.737-4.033c.3376241-.1316192.5776264-.43559.6273323-.7945371.0497059-.358947-.0986631-.7166983-.3878157-.9351117-.2891527-.2184134-.6738391-.2633091-1.0055166-.1173512l-9.781 4.051 4.047-9.78c.1368327-.33011341.087158-.70815016-.1303123-.99170747-.2174702-.28355732-.569697-.42955609-.924-.383-.3543029.04655609-.656855.27859406-.7936877.60870747l-4.046 9.78-4.047-9.78c-.1368327-.33011341-.4393848-.5621514-.7936877-.60870749-.354303-.04655609-.7065298.09944268-.924.383-.2174703.28355732-.267145.66159408-.1303123.99170749l4.048 9.781-9.78-4.048c-.33011341-.1368327-.70815017-.087158-.99170749.1303123-.28355732.2174702-.42955609.569697-.383.924.04655609.3543029.27859408.656855.60870749.7936877l9.779 4.046-9.78 4.051c-.44097715.1824958-.69153963.6511699-.59836471 1.119234s.5041169.8050562.98136471.804766c.284 0-.555.312 10.147-4.121l-4.03 9.738c-.2112489.5103111.0311889 1.0952511.5415 1.3065s1.0952511-.0311889 1.3065-.5415l4.046-9.779 4.047 9.779c.2112489.5103111.7961889.7527489 1.3065.5415s.7527489-.7961889.5415-1.3065l-4.048-9.781c10.648 4.406 9.877 4.124 10.164 4.124.4770598-.0001871.8875577-.3373304.9804619-.8052565.0929043-.4679261-.1576586-.9363195-.5984619-1.1187435z" fill="#71c285"/><path id="Shape" d="m19.69.22c-.884-.168-1.239-.125-1.33-.17-6.203693-.47637295-12.17202221 2.4743929-15.56010503 7.69297824-3.38808282 5.21858536-3.65457833 11.87117526-.69478373 17.34404966s8.67296936 8.8915886 14.89488876 8.9129721c7.7813814-.0730117 14.5459829-5.3576004 16.5-12.89v-8.22c-1.6537178-6.60601641-7.0862995-11.59014467-13.81-12.67zm9.32 21.75c-2.5594159 6.177448-9.3875463 9.4057967-15.7859356 7.4636105-6.39838929-1.9421862-10.27986866-8.421362-8.97358131-14.9791883 1.30628734-6.55782636 7.37422751-11.05512575 14.02845401-10.39729394s11.7241158 6.25620864 11.7210629 12.94287174c.0047087 1.7061073-.3318942 3.3959221-.99 4.97z" fill="#4c8056"/><path id="Shape" d="m41.5 17.5c0 3.87-1.22 8.38-2.94 10.19-1.0245765-.2533016-2.0954235-.2533016-3.12 0-1.72-1.81-2.94-6.32-2.94-10.19 0-9.326 9-9.341 9 0z" fill="#f9eab0"/><path id="Shape" d="m35.43 40.31c-1.71 1.81-2.93 6.32-2.93 10.19 0 9.326 9 9.341 9 0 0-3.87-1.22-8.38-2.93-10.19z" fill="#f9eab0"/><path id="Shape" d="m32.32 29.49c-.71-2.38-4-5.7-7.36-7.64-8.075-4.657-12.582 3.12-4.5 7.8 3.35 1.93 7.86 3.13 10.29 2.55z" fill="#f9eab0"/><path id="Shape" d="m43.25 35.8c2.43-.58 6.94.62 10.29 2.55 8.074 4.675 3.582 12.461-4.5 7.8-3.36-1.94-6.65-5.26-7.36-7.64z" fill="#f9eab0"/><path id="Shape" d="m43.25 32.2c2.43.58 6.94-.62 10.29-2.55 8.074-4.675 3.582-12.461-4.5-7.8-3.36 1.94-6.65 5.26-7.36 7.64z" fill="#f9eab0"/><path id="Shape" d="m32.32 38.51c-.71 2.38-4 5.7-7.36 7.64-8.075 4.657-12.582-3.12-4.5-7.8 3.35-1.93 7.86-3.13 10.29-2.55z" fill="#f9eab0"/><circle id="Oval" cx="37" cy="34" fill="#f3d55b" r="6.5"/><path id="Shape" d="m34.5 35.5c-.5522847 0-1-.4477153-1-1-.0312983-1.0701541.3800703-2.1058561 1.1371071-2.8628929s1.7927388-1.1684054 2.8628929-1.1371071c.3572656-.0010718.6879644.1885367.8675254.4974019s.1807046.690063.003 1-.5072598.5015263-.8645254.5025981c-.5411723-.035899-1.0715853.1630423-1.4556669.5459751s-.5846109.9127475-.5503331 1.4540249c0 .5522847-.4477153 1-1 1z" fill="#f9eab0"/></g></svg>