<svg height="512" viewBox="0 0 58 55" width="512" xmlns="http://www.w3.org/2000/svg"><g id="048---False-Eyelashes" fill="none" transform="translate(0 -1)"><path id="Shape" d="m56.91 37c-42.874 4.129-40.91 3.9-40.91 4h-4c-1.1032019.0032948-1.9967052.8967981-2 2h-6.5c-.92815762-.0018579-1.81814419.3692701-2.47 1.03-.99689658 1.0008159-1.29444577 2.5027936-.75440047 3.8080853.54004529 1.3052917 1.81180716 2.1579899 3.22440047 2.1619147h6.5c.0032948 1.1032019.8967981 1.9967052 2 2 4.815 0-3.395-.652 44.91 4 .281586.022987.5598941-.0732538.7671279-.2652778.2072339-.192024.3243694-.4622034.3228721-.7447222v-16.98c.0014973-.2825188-.1156382-.5526982-.3228721-.7447222-.2072338-.192024-.4855419-.2882648-.7671279-.2652778z" fill="#5d4c72"/><g fill="#464f5d"><path id="Shape" d="m29 12c-6.843 0-12.554-3.524-13.764-8.165-2.0998466 1.04690643-4.5646952 1.06903585-6.683.06-.32064587-.15916182-.53202305-.47729594-.5545078-.83456432-.02248475-.35726837.14733889-.69939344.4455-.8975.29816111-.19810655.67936193-.2220975 1.0000078-.06293568.153.074 3.413 1.624 5.849-.811.2865085-.28642782.7175244-.37169003 1.0915074-.21591856s.6170295.52179431.6154926.92691856c0 4.411 5.383 8 12 8s12-3.589 12-8c0-.55228475.4477153-1 1-1s1 .44771525 1 1c0 5.514-6.28 10-14 10z"/><path id="Shape" d="m12.1 10.122c-.4505173.0038484-.8998261-.0471941-1.338-.152-.5362685-.1322722-.8637722-.67423151-.7315-1.2105s.6742315-.8637722 1.2105-.7315c2.0019994.41647856 4.0249268-.61202294 4.868-2.475.2468713-.49429485.8477051-.69487128 1.342-.448s.6948713.84770515.448 1.342c-1.0423337 2.25859903-3.3115799 3.6966883-5.799 3.675z"/><path id="Shape" d="m16 14c-.3572656.0021436-.6885362-.1864746-.8690254-.4948038-.1804892-.3083293-.1827764-.6895272-.006-1 .1767764-.3104729.5057598-.5030526.8630254-.5051962.24-.007 2.272-.161 3.042-3.242.1436734-.52392169.6793531-.8373021 1.2064607-.70579692.5271075.13150518.8528058.6597861.7335393 1.18979692-1.176 4.704-4.816 4.758-4.97 4.758z"/><path id="Shape" d="m21 18c-.463961.0008986-.8676048-.3174445-.9748531-.7688406s.1100703-.9172752.5248531-1.1251594c.061-.031 3.45-1.806 3.45-5.106 0-.5522847.4477153-1 1-1s1 .4477153 1 1c0 4.565-4.367 6.8-4.553 6.9-.1392562.0674687-.2922699.1016999-.447.1z"/><path id="Shape" d="m29 19c-.5522847 0-1-.4477153-1-1v-7c0-.5522847.4477153-1 1-1s1 .4477153 1 1v7c0 .5522847-.4477153 1-1 1z"/><path id="Shape" d="m46 4.661c-1.768129.01968573-3.4669706-.68659865-4.7-1.954-.3789722-.39237889-.3735524-1.01608478.0121814-1.40181858.3857338-.38573379 1.0094397-.39115363 1.4018186-.01218142 2.44 2.44 5.712.878 5.85.811.4937943-.24084135 1.0894097-.03821816 1.3338982.45378061.2444885.49199876.046278 1.08909713-.4438982 1.33721939-1.0839751.4974141-2.2613698.75852711-3.454.766z"/><path id="Shape" d="m45.9 10.122c-2.4879265.0225929-4.7579158-1.41571934-5.8-3.675-.2468713-.49429485-.0462949-1.09512872.448-1.342s1.0951287-.04629485 1.342.448c.8268206 1.87855971 2.8627001 2.91448275 4.868 2.477.3498693-.09594353.72426.00512494.9783171.26410116s.3479281.63523602.2452935.9832013-.385675.61305264-.7396106.69269754c-.4394844.1050701-.8901489.1561141-1.342.152z"/><path id="Shape" d="m42 14c-.154 0-3.794-.054-4.97-4.758-.1192665-.53001082.2064318-1.05829174.7335393-1.18979692.5271076-.13150518 1.0627873.18187523 1.2064607.70579692.772 3.09 2.813 3.235 3.044 3.242.5475229.0157595.9820344.4662652.978 1.014-.0038438.5452934-.4466933.9854644-.992.986z"/><path id="Shape" d="m37 18c-.1544516-.0001648-.3067658-.0361041-.445-.105-.188-.095-4.555-2.33-4.555-6.895 0-.5522847.4477153-1 1-1s1 .4477153 1 1c0 3.316 3.415 5.09 3.45 5.107.4136132.2084539.6299516.6736576.5228322 1.1242731-.1071194.4506156-.5096595.7687007-.9728322.7687269z"/><path id="Shape" d="m29 19c-.5522847 0-1-.4477153-1-1v-7c0-.5522847.4477153-1 1-1s1 .4477153 1 1v7c0 .5522847-.4477153 1-1 1z"/><path id="Shape" d="m29 28c-6.843 0-12.554-3.524-13.764-8.165-2.0998466 1.0469064-4.5646952 1.0690358-6.683.06-.49457097-.2460429-.69604281-.846429-.44999996-1.341s.84642897-.6960428 1.34099996-.45c.153.075 3.413 1.625 5.849-.811.2859943-.2859079.7160366-.3714219 1.0896546-.216678.3736179.1547439.6172591.5192821.6173454.923678 0 4.411 5.383 8 12 8s12-3.589 12-8c0-.5522847.4477153-1 1-1s1 .4477153 1 1c0 5.514-6.28 10-14 10z"/><path id="Shape" d="m12.1 26.122c-.4505173.0038484-.8998261-.0471941-1.338-.152-.5362685-.1322722-.86377218-.6742315-.7315-1.2105.1322722-.5362685.6742315-.8637722 1.2105-.7315 2.0021046.4172674 4.0255022-.6114732 4.868-2.475.1596977-.3197527.4778505-.5300187.8346134-.5515927.3567628-.0215741.6979349.1488213.895.447.1970651.2981786.2200843.67884.0603866.9985927-1.0423337 2.258599-3.3115799 3.6966883-5.799 3.675z"/><path id="Shape" d="m16 30c-.3572656.0021436-.6885362-.1864746-.8690254-.4948038-.1804892-.3083293-.1827764-.6895272-.006-1 .1767764-.3104729.5057598-.5030526.8630254-.5051962.24-.007 2.272-.161 3.042-3.242.1436734-.5239217.6793531-.8373021 1.2064607-.7057969.5271075.1315052.8528058.6597861.7335393 1.1897969-1.176 4.704-4.816 4.758-4.97 4.758z"/><path id="Shape" d="m21 34c-.463961.0008986-.8676048-.3174445-.9748531-.7688406s.1100703-.9172752.5248531-1.1251594c.061-.031 3.45-1.806 3.45-5.106 0-.5522847.4477153-1 1-1s1 .4477153 1 1c0 4.565-4.367 6.8-4.553 6.9-.1392562.0674687-.2922699.1016999-.447.1z"/><path id="Shape" d="m29 35c-.5522847 0-1-.4477153-1-1v-7c0-.5522847.4477153-1 1-1s1 .4477153 1 1v7c0 .5522847-.4477153 1-1 1z"/><path id="Shape" d="m46 20.661c-1.768129.0196857-3.4669706-.6865987-4.7-1.954-.3789722-.3923789-.3735524-1.0160848.0121814-1.4018186s1.0094397-.3911536 1.4018186-.0121814c2.44 2.44 5.712.877 5.85.811.4937943-.2408413 1.0894097-.0382182 1.3338982.4537806s.046278 1.0890971-.4438982 1.3372194c-1.0839751.4974141-2.2613698.7585271-3.454.766z"/><path id="Shape" d="m45.9 26.122c-2.4879265.0225929-4.7579158-1.4157193-5.8-3.675-.2468713-.4942948-.0462948-1.0951287.448-1.342.4942949-.2468713 1.0951287-.0462948 1.342.448.8267208 1.87609 2.8593935 2.9114448 4.863 2.477.5300108-.1192665 1.0582917.2064318 1.1897969.7335393.1315052.5271076-.1818752 1.0627873-.7057969 1.2064607-.4378592.1046666-.88682.1557078-1.337.152z"/><path id="Shape" d="m42 30c-.154 0-3.794-.054-4.97-4.758-.0959435-.3498693.0051249-.72426.2641012-.9783171.2589762-.2540571.635236-.3479281.9832013-.2452935.3479652.1026346.6130526.385675.6926975.7396106.772 3.09 2.813 3.235 3.044 3.242.5475229.0157595.9820344.4662652.978 1.014-.0038438.5452934-.4466933.9854644-.992.986z"/><path id="Shape" d="m37 34c-.154056.0013906-.3063502-.0328328-.445-.1-.188-.1-4.555-2.335-4.555-6.9 0-.5522847.4477153-1 1-1s1 .4477153 1 1c0 3.316 3.415 5.09 3.45 5.107.4136132.2084539.6299516.6736576.5228322 1.1242731-.1071194.4506156-.5096595.7687007-.9728322.7687269z"/><path id="Shape" d="m29 35c-.5522847 0-1-.4477153-1-1v-7c0-.5522847.4477153-1 1-1s1 .4477153 1 1v7c0 .5522847-.4477153 1-1 1z"/></g><path id="Shape" d="m58 38.01v16.98c.0014973.2825188-.1156382.5526982-.3228721.7447222-.2072338.192024-.4855419.2882648-.7671279.2652778-4.358-.422-3.924-.34-3.91-.47v-18.06c-.014-.13-.444-.048 3.91-.47.281586-.022987.5598941.0732538.7671279.2652778.2072339.192024.3243694.4622034.3228721.7447222z" fill="#bdc3c7"/><path id="Shape" d="m36 39.1c0 15.867.005 14.756-.01 14.89l-19.99-1.93v-11.12c21.538-2.079 19.984-1.98 20-1.84z" fill="#7d6599"/><path id="Shape" d="m10 42.9999931v7.0000069h-6.5c-1.41259331-.0039248-2.68435518-.856623-3.22440047-2.1619147-.5400453-1.3052917-.24249611-2.8072694.75440047-3.8080853.65185581-.6607299 1.54184238-1.0318579 2.47-1.03z" fill="#bdc3c7"/></g></svg>