<svg height="512" viewBox="0 0 58 58" width="512" xmlns="http://www.w3.org/2000/svg"><g id="049---Makeup-Booth" fill="none" transform="translate(-1 -1)"><path id="Shape" d="m38.77 51-8.333 1-6.437-1-2.69-6.38 6.19-3.307 5.8-.193z" fill="#33907c"/><path id="Rectangle-path" d="m44 12h12v17h-12z" fill="#f5efca"/><path id="Shape" d="m56 42v12.177c-1.0866638-1.0142597-2.513616-1.5850406-4-1.6h-8v-16.5c12.109 6.149 11.4 5.862 12 5.923z" fill="#bdc3c7"/><path id="Shape" d="m56 22.967v15.866l-12-6.454v-9.412z" fill="#bdc3c7"/><path id="Shape" d="m45.571 14h-13.613c-.5522847 0-1-.4477153-1-1s.4477153-1 1-1h13.613c.5522847 0 1 .4477153 1 1s-.4477153 1-1 1z" fill="#3b97d3"/><path id="Shape" d="m59 58c0 .5522847-.4477153 1-1 1h-46c-.5522847 0-1-.4477153-1-1 0-3.8659932 3.1340068-7 7-7h34c1.8565154 0 3.6369928.7374979 4.9497475 2.0502525 1.3127546 1.3127547 2.0502525 3.0932321 2.0502525 4.9497475z" fill="#95a5a5"/><path id="Shape" d="m10 21-4.69 3.13-3.56-5.07c-.87581807-1.2448251-.99497863-2.8707902-.31-4.23.59406523-1.0551516 1.62859623-1.7896013 2.8206313-2.0024647s2.41682486.1181361 3.3393687.9024647c1.75 1.43 4.3 4.21 2.4 7.27z" fill="#f5efca"/><path id="Shape" d="m59 39.89c-.0000554.7754105-.3240754 1.5155349-.8937769 2.0415593-.5697016.5260244-1.3332684.7901052-2.1062231.7284407-.644-.064.187.213-12-4.66-24.214 7.065-22.843 6.7-23.22 6.7-.6203168-.0021416-1.2013809-.303848-1.56-.81l-13.91-19.76 4.69-3.13s7.08 4.72 9.88 10.27c1.0363462 1.7814773 1.3647541 3.8875714.92 5.9-.1059483.3451323-.015005.7205724.2371356.9789645.2521406.258392.6252413.3585011.9728644.2610355l21.99-6.41 13.25 5.3c1.0590511.4230421 1.7526611 1.4495848 1.75 2.59z" fill="#26b99a"/><path id="Shape" d="m19.881 33.27c-.4214246.0010764-.7982946-.2621641-.942332-.658211s-.0243246-.8398884.299332-1.109789c6.119-5.112 6.008-5.125 6.806-5.4.5142996-.1608225 1.0635439.1147822 1.2420121.623228.1784683.5084457-.0780255 1.0668705-.5800121 1.262772-.339.121.079-.18-6.185 5.053-.1800499.1487211-.4064719.2297377-.64.229z" fill="#33907c"/><path id="Shape" d="m56 3v13h-12v-13c.0032948-1.10320187.8967981-1.9967052 2-2h8c1.1032019.0032948 1.9967052.89679813 2 2z" fill="#81ccb8"/><path id="Shape" d="m34.11 15.28-2.83 2.83c.78-.78-3.25-4.08-7.15-7.98s-6.21-6.94-6.99-6.16l2.83-2.83c1.358-1.358 10.615 6.753 13.56 11.86.66 1.14.9 1.96.58 2.28z" fill="#84b5cb"/><path id="Shape" d="m48 9c-.5522847 0-1-.44771525-1-1v-1c0-.55228475.4477153-1 1-1s1 .44771525 1 1v1c0 .55228475-.4477153 1-1 1z" fill="#26b99a"/><path id="Shape" d="m52 9c-.5522847 0-1-.44771525-1-1v-1c0-.55228475.4477153-1 1-1s1 .44771525 1 1v1c0 .55228475-.4477153 1-1 1z" fill="#26b99a"/><path id="Shape" d="m18 56h-1c-.5522847 0-1-.4477153-1-1s.4477153-1 1-1h1c.5522847 0 1 .4477153 1 1s-.4477153 1-1 1z" fill="#bdc3c7"/><path id="Shape" d="m33 56h-11c-.5522847 0-1-.4477153-1-1s.4477153-1 1-1h11c.5522847 0 1 .4477153 1 1s-.4477153 1-1 1z" fill="#bdc3c7"/><path id="Shape" d="m37 27c-.0027483 1.1034291-.8965709 1.9972517-2 2h-8c-1.1045695 0-2-.8954305-2-2s.8954305-2 2-2h8c1.1032019.0032948 1.9967052.8967981 2 2z" fill="#26b99a"/><path id="Shape" d="m31.28 18.11c-.78.78-4.58-1.75-8.48-5.66s-6.44-7.7-5.66-8.48 4.58 1.75 8.49 5.66 6.43 7.7 5.65 8.48z" fill="#9fc9d3"/></g></svg>