<svg height="512" viewBox="0 0 60 53" width="512" xmlns="http://www.w3.org/2000/svg"><g id="052---Makeup-Bag" fill="none"><path id="Shape" d="m52.107 15.679h-48.214c-1.59577398.0038458-2.88860249 1.2962274-2.893 2.892v27c.00440828 3.7260946 3.02390544 6.7455917 6.75 6.75h40.5c3.7260946-.0044083 6.7455917-3.0239054 6.75-6.75v-27c-.0043975-1.5957726-1.297226-2.8881542-2.893-2.892z" fill="#ff5364"/><path id="Shape" d="m50.056 16.158c-.131-.815-1.238-8.059.059-11.3 3.01-7.532 12.243-3.684 9.284 3.714-1.3 3.24-7.093 7.723-7.75 8.223-.2796843.2128883-.6506015.2633094-.9769653.1328048-.3263637-.1305045-.5602491-.4227706-.6160347-.7698048zm1.916-10.558c-.732 1.829-.477 5.877-.174 8.511 2.036-1.7 5.014-4.456 5.744-6.282.916-2.291.418-4.142-1.3-4.828-1.953-.785-3.478.617-4.27 2.599z" fill="#df4d60"/><g fill="#802d40"><path id="Shape" d="m8 19c-.00238848 1.6625272-1.03289762 3.1502525-2.58847334 3.7369268-1.55557571.5866742-3.31186907.1499716-4.41152666-1.0969268v-3.64c.0032948-1.1032019.89679813-1.9967052 2-2h3.64c.86485092.7570079 1.36063092 1.8506403 1.36 3z"/><path id="Shape" d="m16 23c-1.6625272-.0023885-3.1502525-1.0328976-3.7369268-2.5884733-.5866742-1.5555758-.1499716-3.3118691 1.0969268-4.4115267h5.28c1.2468984 1.0996576 1.683601 2.8559509 1.0969268 4.4115267-.5866743 1.5555757-2.0743996 2.5860848-3.7369268 2.5884733z"/><path id="Shape" d="m28 23c-1.6625272-.0023885-3.1502525-1.0328976-3.7369268-2.5884733-.5866742-1.5555758-.1499716-3.3118691 1.0969268-4.4115267h5.28c1.2468984 1.0996576 1.683601 2.8559509 1.0969268 4.4115267-.5866743 1.5555757-2.0743996 2.5860848-3.7369268 2.5884733z"/><path id="Shape" d="m40 23c-1.6625272-.0023885-3.1502525-1.0328976-3.7369268-2.5884733-.5866742-1.5555758-.1499716-3.3118691 1.0969268-4.4115267h5.28c1.2468984 1.0996576 1.683601 2.8559509 1.0969268 4.4115267-.5866743 1.5555757-2.0743996 2.5860848-3.7369268 2.5884733z"/><path id="Shape" d="m55 18v3.64c-.9775595 1.1415046-2.5124736 1.6387278-3.9736759 1.2872405-1.4612023-.3514872-2.6020774-1.4923623-2.9535646-2.9535646-.3514873-1.4612023.1457359-2.9961164 1.2872405-3.9736759h3.64c1.1032019.0032948 1.9967052.8967981 2 2z"/><path id="Shape" d="m8 39c-.00238848 1.6625272-1.03289762 3.1502525-2.58847334 3.7369268-1.55557571.5866742-3.31186907.1499716-4.41152666-1.0969268v-5.28c1.09965759-1.2468984 2.85595095-1.683601 4.41152666-1.0969268 1.55557572.5866743 2.58608486 2.0743996 2.58847334 3.7369268z"/><circle id="Oval" cx="16" cy="39" r="4"/><circle id="Oval" cx="28" cy="39" r="4"/><circle id="Oval" cx="40" cy="39" r="4"/><path id="Shape" d="m55 36.36v5.28c-1.0988868 1.2508422-2.8576825 1.6901776-4.4156918 1.1030101-1.5580093-.5871674-2.5893706-2.0780301-2.5893706-3.7430101s1.0313613-3.1558427 2.5893706-3.7430101c1.5580093-.5871675 3.316805-.1478321 4.4156918 1.1030101z"/><path id="Shape" d="m12.64 52h-5.28c-1.25084223-1.0988868-1.69017756-2.8576825-1.10301012-4.4156918.58716743-1.5580093 2.07803007-2.5893706 3.74301012-2.5893706 1.66498 0 3.1558427 1.0313613 3.7430101 2.5893706.5871675 1.5580093.1478321 3.316805-1.1030101 4.4156918z"/><path id="Shape" d="m24.64 52h-5.28c-1.2508422-1.0988868-1.6901776-2.8576825-1.1030101-4.4156918.5871674-1.5580093 2.0780301-2.5893706 3.7430101-2.5893706s3.1558427 1.0313613 3.7430101 2.5893706c.5871675 1.5580093.1478321 3.316805-1.1030101 4.4156918z"/><path id="Shape" d="m36.64 52h-5.28c-1.2508422-1.0988868-1.6901776-2.8576825-1.1030101-4.4156918.5871674-1.5580093 2.0780301-2.5893706 3.7430101-2.5893706s3.1558427 1.0313613 3.7430101 2.5893706c.5871675 1.5580093.1478321 3.316805-1.1030101 4.4156918z"/><path id="Shape" d="m48.64 52h-5.28c-1.2508422-1.0988868-1.6901776-2.8576825-1.1030101-4.4156918.5871674-1.5580093 2.0780301-2.5893706 3.7430101-2.5893706s3.1558427 1.0313613 3.7430101 2.5893706c.5871675 1.5580093.1478321 3.316805-1.1030101 4.4156918z"/><circle id="Oval" cx="10" cy="29" r="4"/><circle id="Oval" cx="22" cy="29" r="4"/><circle id="Oval" cx="34" cy="29" r="4"/><circle id="Oval" cx="46" cy="29" r="4"/></g><path id="Shape" d="m49 53h-42c-3.86416566-.0044086-6.99559136-3.1358343-7-7v-28c0-1.6568542 1.34314575-3 3-3h50c1.6568542 0 3 1.3431458 3 3v28c-.0044086 3.8641657-3.1358343 6.9955914-7 7zm-46-36c-.55228475 0-1 .4477153-1 1v28c.00330612 2.7600532 2.23994685 4.9966939 5 5h42c2.7600532-.0033061 4.9966939-2.2399468 5-5v-28c0-.5522847-.4477153-1-1-1z" fill="#fb7b76"/><path id="Shape" d="m8 19c-.00238848 1.6625272-1.03289762 3.1502525-2.58847334 3.7369268-1.55557571.5866742-3.31186907.1499716-4.41152666-1.0969268v-3.64c.0032948-1.1032019.89679813-1.9967052 2-2h3.64c.86485092.7570079 1.36063092 1.8506403 1.36 3z" fill="#802d40"/><path id="Shape" d="m16 23c-1.6625272-.0023885-3.1502525-1.0328976-3.7369268-2.5884733-.5866742-1.5555758-.1499716-3.3118691 1.0969268-4.4115267h5.28c1.2468984 1.0996576 1.683601 2.8559509 1.0969268 4.4115267-.5866743 1.5555757-2.0743996 2.5860848-3.7369268 2.5884733z" fill="#802d40"/><path id="Shape" d="m28 23c-1.6625272-.0023885-3.1502525-1.0328976-3.7369268-2.5884733-.5866742-1.5555758-.1499716-3.3118691 1.0969268-4.4115267h5.28c1.2468984 1.0996576 1.683601 2.8559509 1.0969268 4.4115267-.5866743 1.5555757-2.0743996 2.5860848-3.7369268 2.5884733z" fill="#802d40"/><path id="Shape" d="m40 23c-1.6625272-.0023885-3.1502525-1.0328976-3.7369268-2.5884733-.5866742-1.5555758-.1499716-3.3118691 1.0969268-4.4115267h5.28c1.2468984 1.0996576 1.683601 2.8559509 1.0969268 4.4115267-.5866743 1.5555757-2.0743996 2.5860848-3.7369268 2.5884733z" fill="#802d40"/><path id="Shape" d="m55 18v3.64c-.9775595 1.1415046-2.5124736 1.6387278-3.9736759 1.2872405-1.4612023-.3514872-2.6020774-1.4923623-2.9535646-2.9535646-.3514873-1.4612023.1457359-2.9961164 1.2872405-3.9736759h3.64c1.1032019.0032948 1.9967052.8967981 2 2z" fill="#802d40"/><path id="Shape" d="m8 39c-.00238848 1.6625272-1.03289762 3.1502525-2.58847334 3.7369268-1.55557571.5866742-3.31186907.1499716-4.41152666-1.0969268v-5.28c1.09965759-1.2468984 2.85595095-1.683601 4.41152666-1.0969268 1.55557572.5866743 2.58608486 2.0743996 2.58847334 3.7369268z" fill="#802d40"/><circle id="Oval" cx="16" cy="39" fill="#802d40" r="4"/><circle id="Oval" cx="28" cy="39" fill="#802d40" r="4"/><circle id="Oval" cx="40" cy="39" fill="#802d40" r="4"/><path id="Shape" d="m55 36.36v5.28c-1.0988868 1.2508422-2.8576825 1.6901776-4.4156918 1.1030101-1.5580093-.5871674-2.5893706-2.0780301-2.5893706-3.7430101s1.0313613-3.1558427 2.5893706-3.7430101c1.5580093-.5871675 3.316805-.1478321 4.4156918 1.1030101z" fill="#802d40"/><path id="Shape" d="m12.64 52h-5.28c-1.25084223-1.0988868-1.69017756-2.8576825-1.10301012-4.4156918.58716743-1.5580093 2.07803007-2.5893706 3.74301012-2.5893706 1.66498 0 3.1558427 1.0313613 3.7430101 2.5893706.5871675 1.5580093.1478321 3.316805-1.1030101 4.4156918z" fill="#802d40"/><path id="Shape" d="m24.64 52h-5.28c-1.2508422-1.0988868-1.6901776-2.8576825-1.1030101-4.4156918.5871674-1.5580093 2.0780301-2.5893706 3.7430101-2.5893706s3.1558427 1.0313613 3.7430101 2.5893706c.5871675 1.5580093.1478321 3.316805-1.1030101 4.4156918z" fill="#802d40"/><path id="Shape" d="m36.64 52h-5.28c-1.2508422-1.0988868-1.6901776-2.8576825-1.1030101-4.4156918.5871674-1.5580093 2.0780301-2.5893706 3.7430101-2.5893706s3.1558427 1.0313613 3.7430101 2.5893706c.5871675 1.5580093.1478321 3.316805-1.1030101 4.4156918z" fill="#802d40"/><path id="Shape" d="m48.64 52h-5.28c-1.2508422-1.0988868-1.6901776-2.8576825-1.1030101-4.4156918.5871674-1.5580093 2.0780301-2.5893706 3.7430101-2.5893706s3.1558427 1.0313613 3.7430101 2.5893706c.5871675 1.5580093.1478321 3.316805-1.1030101 4.4156918z" fill="#802d40"/><circle id="Oval" cx="10" cy="29" fill="#802d40" r="4"/><circle id="Oval" cx="22" cy="29" fill="#802d40" r="4"/><circle id="Oval" cx="34" cy="29" fill="#802d40" r="4"/><circle id="Oval" cx="46" cy="29" fill="#802d40" r="4"/><path id="Shape" d="m49 53h-42c-3.86416566-.0044086-6.99559136-3.1358343-7-7v-28c0-1.6568542 1.34314575-3 3-3h50c1.6568542 0 3 1.3431458 3 3v28c-.0044086 3.8641657-3.1358343 6.9955914-7 7zm-46-36c-.55228475 0-1 .4477153-1 1v28c.00330612 2.7600532 2.23994685 4.9966939 5 5h42c2.7600532-.0033061 4.9966939-2.2399468 5-5v-28c0-.5522847-.4477153-1-1-1z" fill="#fb7b76"/></g></svg>