<svg height="512" viewBox="0 0 59 59" width="512" xmlns="http://www.w3.org/2000/svg"><g id="055---Shavers" fill="none"><path id="Shape" d="m25.62 26.01h-23.24c1.31270396 7.590998 1.58520928 15.3254391.81 22.99-.33064484 2.2817973.35568069 4.5938435 1.87775875 6.3256643s3.72687737 2.7092972 6.03224125 2.6743357c5.936 0 7.23.172 9.02-.59 3.2513127-1.4575048 5.1587723-4.8779175 4.69-8.41-.7755207-7.6645506-.5030139-15.3990341.81-22.99z" fill="#7d6599"/><path id="Shape" d="m24.81 49h-21.62c.14-1.33.24-2.66.3-4h21.02c.06 1.34.16 2.67.3 4z" fill="#95a5a5"/><path id="Shape" d="m20.12 57.41c-1.781.758-3.052.59-9.02.59-1.10204355.0213203-2.19711022-.1793286-3.22-.59-3.25131271-1.4575048-5.15877233-4.8779175-4.69-8.41h21.62c.4687723 3.5320825-1.4386873 6.9524952-4.69 8.41z" fill="#5d4c72"/><path id="Shape" d="m1.7 24.87 7.56 12.805h9.48l7.56-12.805-5.3-8.87h-14z" fill="#3d324c"/><circle id="Oval" cx="7" cy="22" fill="#7f8c8d" r="6"/><circle id="Oval" cx="21" cy="22" fill="#7f8c8d" r="6"/><circle id="Oval" cx="14" cy="34" fill="#7f8c8d" r="6"/><path id="Shape" d="m55.42 0h-26.84c-1.98 0-3.58 3.58-3.58 8s1.6 8 3.58 8h6.42c3 0 3 5 3 5l-1 5-.81 26.18c-.0119731 2.1057339 1.115984 4.0532351 2.9484444 5.0907069 1.8324604 1.0374717 4.0827566 1.0026134 5.8822035-.0911185 1.799447-1.0937319 2.8665417-3.0752357 2.7893521-5.1795884l-.81-26-1-5s0-5 3-5h6.42c1.98 0 3.58-3.58 3.58-8s-1.6-8-3.58-8z" fill="#a5a5a4"/><path id="Shape" d="m54 5h-24c-.5522847 0-1-.44771525-1-1s.4477153-1 1-1h24c.5522847 0 1 .44771525 1 1s-.4477153 1-1 1z" fill="#ecf0f1"/><path id="Shape" d="m54 9h-24c-.5522847 0-1-.44771525-1-1s.4477153-1 1-1h24c.5522847 0 1 .44771525 1 1s-.4477153 1-1 1z" fill="#ecf0f1"/><path id="Shape" d="m54 13h-24c-.5522847 0-1-.4477153-1-1s.4477153-1 1-1h24c.5522847 0 1 .4477153 1 1s-.4477153 1-1 1z" fill="#ecf0f1"/><path id="Shape" d="m47 26h-10l1-5h8z" fill="#84b5cb"/><path id="Shape" d="m47.65 47h-11.3l.65-21h10z" fill="#4482c3"/><path id="Shape" d="m47.81 52h-11.62l.16-5h11.3z" fill="#84b5cb"/><path id="Shape" d="m47.81 52c.0681441 2.1202375-1.0240902 4.1092428-2.8497534 5.1895226s-4.09483 1.0802798-5.9204932 0-2.9178975-3.0692851-2.8497534-5.1895226z" fill="#285680"/><g fill="#bdc3c7"><circle id="Oval" cx="7" cy="22" r="2"/><circle id="Oval" cx="21" cy="22" r="2"/><circle id="Oval" cx="14" cy="34" r="2"/><path id="Shape" d="m7 29c-3.86599325 0-7-3.1340068-7-7s3.13400675-7 7-7c3.8659932 0 7 3.1340068 7 7-.0044086 3.8641657-3.1358343 6.9955914-7 7zm0-12c-2.76142375 0-5 2.2385763-5 5s2.23857625 5 5 5 5-2.2385763 5-5c-.0033061-2.7600532-2.23994685-4.9966939-5-5z"/><path id="Shape" d="m21 29c-3.8659932 0-7-3.1340068-7-7s3.1340068-7 7-7 7 3.1340068 7 7c-.0044086 3.8641657-3.1358343 6.9955914-7 7zm0-12c-2.7614237 0-5 2.2385763-5 5s2.2385763 5 5 5 5-2.2385763 5-5c-.0033061-2.7600532-2.2399468-4.9966939-5-5z"/></g><path id="Shape" d="m49 16c-3 0-3 5-3 5h-8s0-5-3-5z" fill="#7f8284"/><path id="Shape" d="m14 41c-3.8659932 0-7-3.1340068-7-7s3.1340068-7 7-7 7 3.1340068 7 7c-.0044086 3.8641657-3.1358343 6.9955914-7 7zm0-12c-2.7614237 0-5 2.2385763-5 5s2.2385763 5 5 5 5-2.2385763 5-5c-.0033061-2.7600532-2.2399468-4.9966939-5-5z" fill="#bdc3c7"/></g></svg>