<svg height="512" viewBox="0 0 58 58" width="512" xmlns="http://www.w3.org/2000/svg"><g id="057---Skin-Care-Products" fill="none"><path id="Shape" d="m17 47c0 9.492.047 8.173-.11 8.54-.35.84-3.51 1.46-4.89 1.46-1.1626683.1029081-2.28296647-.4630557-2.89-1.46-.15912772-.3443486-.51108394-.5578951-.89-.54l-5.22-2v-5z" fill="#ecf0f1"/><path id="Shape" d="m17 58h-12c-1.10320187-.0032948-1.9967052-.8967981-2-2v-3h5.22c.37891606-.0178951.73087228.1956514.89.54.808 1.94 4.971 1.941 5.78 0 .0284186-.0677629.065385-.131614.11-.19v2.65c.0032948 1.1032019.8967981 1.9967052 2 2z" fill="#bdc3c7"/><path id="Shape" d="m47 2.18v7.82c-.2888517-.21612745-.6392527-.33421261-1-.337-2.043 0-2.389-.106-3 .337v-7.82z" fill="#95a5a5"/><path id="Shape" d="m49 11v4h-8v-4c.0035644-1.26825492.8042713-2.3972517 2-2.82.9821198-.23267302 1.9971055-.29357216 3-.18 1.6518655.01198235 2.9880176 1.34813446 3 3z" fill="#ecf0f1"/><path id="Shape" d="m55.42 8.41c-.3751365.37555409-.8841815.58657331-1.415.58657331s-1.0398635-.21101922-1.415-.58657331l-4.28-4.41h-14.31c-1.1045695 0-2-.8954305-2-2s.8954305-2 2-2h15.12c.5374654.00199667 1.052021.21789411 1.43.6l4.86 4.99c.3757844.37235968.5880173.87890595.5898933 1.40792591.0018759.52901996-.2067592 1.03705867-.5798933 1.41207409z" fill="#bdc3c7"/><path id="Shape" d="m53 15v5h-16v-5c.0032948-1.1032019.8967981-1.9967052 2-2h12c1.1032019.0032948 1.9967052.8967981 2 2z" fill="#bdc3c7"/><path id="Shape" d="m24 11v4l-12 3-12-3v-4c.0032948-1.10320187.89679813-1.9967052 2-2h20c1.1032019.0032948 1.9967052.89679813 2 2z" fill="#ecf0f1"/><g fill="#bdc3c7"><path id="Shape" d="m5 9v3c0 .5522847-.44771525 1-1 1s-1-.4477153-1-1v-3z"/><path id="Shape" d="m9 9v3c0 .5522847-.44771525 1-1 1s-1-.4477153-1-1v-3z"/><path id="Shape" d="m13 9v3c0 .5522847-.4477153 1-1 1s-1-.4477153-1-1v-3z"/><path id="Shape" d="m17 9v3c0 .5522847-.4477153 1-1 1s-1-.4477153-1-1v-3z"/><path id="Shape" d="m21 9v3c0 .5522847-.4477153 1-1 1s-1-.4477153-1-1v-3z"/></g><path id="Shape" d="m24 15-1.45 16h-1.55c-1.6568542 0-3 1.3431458-3 3v4h-1c-1.1032019.0032948-1.9967052.8967981-2 2v8h-12l-3-33z" fill="#14a085"/><path id="Shape" d="m36 39 1-3-5-3v-11c0-2.209139 1.790861-4 4-4h18c2.209139 0 4 1.790861 4 4v32c0 2.209139-1.790861 4-4 4h-15c1.1032019-.0032948 1.9967052-.8967981 2-2v-2c-4.777-13.136-3.671-9.684-5-15z" fill="#2980ba"/><path id="Shape" d="m54 22v32h-11v-14c-.0032948-1.1032019-.8967981-1.9967052-2-2h-1v-4c0-1.6568542-1.3431458-3-3-3h-1v-9z" fill="#3b97d3"/><path id="Shape" d="m40 34v6h-22v-6c0-1.6568542 1.3431458-3 3-3h16c1.6568542 0 3 1.3431458 3 3z" fill="#5d4c72"/><path id="Shape" d="m6 44c-.52143077.0017989-.95672409-.397365-1-.917l-1.67-20c-.02295066-.2654199.06095698-.5290257.23310996-.7323427s.41831835-.3295357.68389004-.3506573c.26489294-.025465.52884502.057114.7319929.2290084s.32827648.4185375.3470071.6839916l1.67 20c.02438666.2792436-.06954653.5559026-.25891341.7625711-.18936688.2066684-.45678021.3243705-.73708659.3244289z" fill="#26b99a"/><circle id="Oval" cx="4" cy="19" fill="#26b99a" r="1"/><path id="Shape" d="m43 40v16c-.0032948 1.1032019-.8967981 1.9967052-2 2h-24c-1.1032019-.0032948-1.9967052-.8967981-2-2v-3h15c1.1032019-.0032948 1.9967052-.8967981 2-2v-6c-.0032948-1.1032019-.8967981-1.9967052-2-2h-15v-3c.0032948-1.1032019.8967981-1.9967052 2-2h24c1.1032019.0032948 1.9967052.8967981 2 2z" fill="#955ba5"/><path id="Shape" d="m32 45v6c-.0032948 1.1032019-.8967981 1.9967052-2 2h-15v-10h15c1.1032019.0032948 1.9967052.8967981 2 2z" fill="#b49aca"/></g></svg>