<svg height="512" viewBox="0 0 59 60" width="512" xmlns="http://www.w3.org/2000/svg"><g id="058---Healthy-Formula" fill="none"><path id="Shape" d="m42 14.2-.05 2.58c-.1001565-.0592757-.2036632-.1126986-.31-.16-7.01 3.5-13.5 6.89-13.5 13.38 0 6.43 6.37 9.81 13.3 13.28l-.05 2.46c-6.91 3.46-11.39 6.85-11.39 13.26h-24.87c-1.99274994-.0032677-3.80367372-1.1591627-4.64567603-2.9652898s-.56302575-3.9363173.71567603-5.4647102l18.86-22.45c.6079497-.7221412.9409149-1.6360244.94-2.58v-20.54l9.43 2c2.5 2.97 6.75 5.15 11.21 7.38z" fill="#2980ba"/><g fill="#46b29d"><path id="Shape" d="m43 39h-10.16c-.5522847 0-1-.4477153-1-1s.4477153-1 1-1h10.16c.5522847 0 1 .4477153 1 1s-.4477153 1-1 1z"/><path id="Shape" d="m54.16 39h-7.16c-.5522847 0-1-.4477153-1-1s.4477153-1 1-1h7.16c.5522847 0 1 .4477153 1 1s-.4477153 1-1 1z"/><path id="Shape" d="m34 31h-5c-.5522847 0-1-.4477153-1-1s.4477153-1 1-1h5c.5522847 0 1 .4477153 1 1s-.4477153 1-1 1z"/><path id="Shape" d="m58 31h-20c-.5522847 0-1-.4477153-1-1s.4477153-1 1-1h20c.5522847 0 1 .4477153 1 1s-.4477153 1-1 1z"/><path id="Shape" d="m43 23h-10.16c-.5522847 0-1-.4477153-1-1s.4477153-1 1-1h10.16c.5522847 0 1 .4477153 1 1s-.4477153 1-1 1z"/><path id="Shape" d="m54.16 23h-7.16c-.5522847 0-1-.4477153-1-1s.4477153-1 1-1h7.16c.5522847 0 1 .4477153 1 1s-.4477153 1-1 1z"/><path id="Shape" d="m40 10h-7.16c-.5522847 0-1-.44771525-1-1s.4477153-1 1-1h7.16c.5522847 0 1 .44771525 1 1s-.4477153 1-1 1z"/><path id="Shape" d="m54.16 10h-10.16c-.5522847 0-1-.44771525-1-1s.4477153-1 1-1h10.16c.5522847 0 1 .44771525 1 1s-.4477153 1-1 1z"/><path id="Shape" d="m40 52h-7.16c-.5522847 0-1-.4477153-1-1s.4477153-1 1-1h7.16c.5522847 0 1 .4477153 1 1s-.4477153 1-1 1z"/><path id="Shape" d="m54.16 52h-10.16c-.5522847 0-1-.4477153-1-1s.4477153-1 1-1h10.16c.5522847 0 1 .4477153 1 1s-.4477153 1-1 1z"/></g><path id="Shape" d="m31 7h-10c-1.6568542-.00000002-3-1.34314577-3-3s1.3431458-2.99999998 3-3h7.71c.0016603 2.21316319.8166581 4.34852861 2.29 6z" fill="#84b5cb"/><path id="Shape" d="m59 59c0 .5522847-.4477153 1-1 1s-1-.4477153-1-1c0-13.779-29-13.617-29-29 0-15.33 29-15.292 29-29 0-.55228475.4477153-1 1-1s1 .44771525 1 1c0 15.2-29 15.505-29 29 0 13.618 29 13.686 29 29z" fill="#65ddb9"/><path id="Shape" d="m59 30c0 15.326-29 15.325-29 29 0 .5522847-.4477153 1-1 1s-1-.4477153-1-1c0-15.335 29-15.284 29-29 0-13.74-29-13.644-29-29 0-.55228475.4477153-1 1-1s1 .44771525 1 1c0 6.9 7.584 10.427 13.85 13.56.03.02.07.03.1.05 7.185 3.531 15.05 7.498 15.05 15.39z" fill="#65ddb9"/><circle id="Oval" cx="45" cy="22" fill="#f9eab0" r="2"/><circle id="Oval" cx="42" cy="9" fill="#f9eab0" r="2"/><circle id="Oval" cx="42" cy="51" fill="#f9eab0" r="2"/><circle id="Oval" cx="36" cy="30" fill="#f9eab0" r="2"/><circle id="Oval" cx="45" cy="38" fill="#f9eab0" r="2"/><path id="Shape" d="m25 11c0 .5522847-.4477153 1-1 1h-3v-2h3c.5522847 0 1 .4477153 1 1z" fill="#285680"/><path id="Shape" d="m25 15c0 .5522847-.4477153 1-1 1h-3v-2h3c.5522847 0 1 .4477153 1 1z" fill="#285680"/><path id="Shape" d="m25 19c0 .5522847-.4477153 1-1 1h-3v-2h3c.5522847 0 1 .4477153 1 1z" fill="#285680"/><path id="Shape" d="m25 23c0 .5522847-.4477153 1-1 1h-3v-2h3c.5522847 0 1 .4477153 1 1z" fill="#285680"/><circle id="Oval" cx="22" cy="49" fill="#81ccb8" r="6"/><circle id="Oval" cx="9" cy="52" fill="#81ccb8" r="3"/><circle id="Oval" cx="22.5" cy="37.5" fill="#81ccb8" r="2.5"/><path id="Shape" d="m20 50c-.5522847 0-1-.4477153-1-1-.0234737-.8026156.2850527-1.5793921.8528303-2.1471697s1.3445541-.876304 2.1471697-.8528303c.5522847-.0027614 1.0022385.4427153 1.0049999.995.0027615.5522847-.4427152 1.0022385-.9949999 1.005-.2739117-.0288437-.5463007.0668224-.742023.2606068-.1957222.1937844-.2940938.4652081-.267977.7393932 0 .5522847-.4477153 1-1 1z" fill="#fff"/></g></svg>