<svg height="512" viewBox="0 0 45 58" width="512" xmlns="http://www.w3.org/2000/svg"><g id="059---Medical-Cream" fill="none"><path id="Rectangle-path" d="m11 3h4v8h-4z" fill="#95a5a5"/><path id="Shape" d="m25 27.5c0 5.364.215.141-1.42 28.37-1.1373476 1.3513319-2.813745 2.1309665-4.58 2.13h-12c-2.54257262.0046161-4.80957085-1.6003384-5.65-4-.5-1.333-.35-.4-.35-26.5-.00378515-4.4074949 2.07173295-8.5585312 5.6-11.2.565-.423-.47-.01 6.4-2.3 6.89 2.3 5.842 1.881 6.4 2.3 3.528267 2.6414688 5.6037852 6.7925051 5.6 11.2z" fill="#f0c419"/><path id="Shape" d="m9 10h8c1.1045695 0 2 .8954305 2 2v4h-12v-4c0-1.1045695.8954305-2 2-2z" fill="#bdc3c7"/><path id="Shape" d="m18.35 50h-11.35c-1.10320187-.0032948-1.9967052-.8967981-2-2v-22c.0032948-1.1032019.89679813-1.9967052 2-2h12c1.1032019.0032948 1.9967052.8967981 2 2v8.21z" fill="#f9eab0"/><path id="Shape" d="m13 54c0 .5522847-.4477153 1-1 1h-10.19c-.35878248-.6177286-.60271929-1.2953308-.72-2h10.91c.5522847 0 1 .4477153 1 1z" fill="#f29c1f"/><path id="Shape" d="m23.417 8.412c-.7808851.78009765-2.0461149.78009765-2.827 0l-4.28-4.412h-14.31c-1.1045695 0-2-.8954305-2-2s.8954305-2 2-2h15.117c.5386554-.00099946 1.0549415.21532151 1.432.6l4.866 4.99c.7773268.77975712.7782208 2.04114185.002 2.822z" fill="#bdc3c7"/><circle id="Oval" cx="31" cy="44" fill="#24ae5f" r="14"/><circle id="Oval" cx="31" cy="44" fill="#4fba6f" r="10"/><g fill="#fff"><path id="Shape" d="m37 43v2c0 .5522847-.4477153 1-1 1h-3v3c0 .5522847-.4477153 1-1 1h-2c-.5522847 0-1-.4477153-1-1v-3h-3c-.5522847 0-1-.4477153-1-1v-2c0-.5522847.4477153-1 1-1h3v-3c0-.5522847.4477153-1 1-1h2c.5522847 0 1 .4477153 1 1v3h3c.5522847 0 1 .4477153 1 1z"/><path id="Shape" d="m9 47c-.55228475 0-1-.4477153-1-1v-12c0-.5522847.44771525-1 1-1s1 .4477153 1 1v12c0 .5522847-.44771525 1-1 1z"/><path id="Shape" d="m9 31c-.55228475 0-1-.4477153-1-1v-2c0-.5522847.44771525-1 1-1s1 .4477153 1 1v2c0 .5522847-.44771525 1-1 1z"/></g></g></svg>