<svg height="512" viewBox="0 0 59 59" width="512" xmlns="http://www.w3.org/2000/svg"><g id="060---Night-Cream" fill="none"><path id="Shape" d="m39 34.88c6.2722062.7491969 12.442651-2.0411262 16.0225886-7.2455391s3.9790081-11.964667 1.0362531-17.5541266c-2.9427551-5.58945969-8.7420522-9.08637915-15.0588417-9.0803343-14.077 0-21.788 16.007-13.74 27z" fill="#5d4c72"/><path id="Shape" d="m38.88 35.873c-.3547647-.0428719-.659709-.2717518-.7999632-.600423-.1402543-.3286713-.0945105-.7072007.12-.993.2145105-.2857994.5651985-.4354489.9199632-.392577 7.5225586.8929415 14.6403588-3.6119634 17.0529039-10.7929006 2.412545-7.1809372-.5414434-15.06961264-7.0771979-18.89977527s-14.8618255-2.55196531-19.9476925 3.06231918c-5.0858669 5.61428449-5.5374941 14.02578139-1.0820135 20.15235669.2183347.2877808.264494.6709425.1207516 1.0023425s-.4550398.5595174-.8143468.5967501c-.3593071.0372326-.7107645-.1222078-.9194048-.4170926-8.576-11.717-.253-28.591 14.547-28.591 6.6879712-.00535053 12.8275275 3.69779996 15.9426346 9.61600026 3.1151071 5.91820034 2.6921228 13.07561324-1.0983666 18.58571094-3.7904895 5.5100977-10.3234799 8.464334-16.964268 7.6712888z" fill="#8697cb"/><path id="Shape" d="m38.61 29.52c2.779273.8098817 5.7571022.5933768 8.39-.61.4368475-.1860939.6825935-.6537311.5880733-1.1190618-.0945203-.4653306-.5032408-.8000293-.9780733-.8009382-4.8003198-.226478-8.5758538-4.1843406-8.5758538-8.99s3.775534-8.76352198 8.5758538-8.99c.4748325-.00090886.883553-.33560761.9780733-.80093824.0945202-.46533064-.1512258-.9329679-.5880733-1.11906176-5.695229-2.60773372-12.4381545-.39628948-15.4828195 5.0778245-3.044665 5.4741139-1.3667229 12.3691875 3.8528195 15.8321755z" fill="#f5efca"/><path id="Shape" d="m39 31v7h-34v-7c0-1.6568542 1.34314575-3 3-3h28c1.6568542 0 3 1.3431458 3 3z" fill="#f29c1f"/><path id="Shape" d="m44 39.34c0 .824 0 1.619-.07 2.66l-13.93 2h-15l-14.93-2c-.07-1.025-.07-1.831-.07-2.66-.0085252-.8780352.33239022-1.7234352.94763141-2.3499308.61524118-.6264956 1.45432313-.9826783 2.33236859-.9900692h37.44c.8780455.0073909 1.7171274.3635736 2.3323686.9900692s.9561566 1.4718956.9476314 2.3499308z" fill="#fac176"/><path id="Shape" d="m43.93 42c-.36 6.34-2.35 12.67-7.92 15.95-1.2055276.6989591-2.5765486 1.0615717-3.97 1.05h-20.08c-1.3934514.0115717-2.7644724-.3510409-3.97-1.05-5.51-3.215-7.55-9.55-7.92-15.95z" fill="#cf976a"/><g fill="#a56a43"><path id="Shape" d="m20 55c0 .5522847-.4477153 1-1 1h-13.57c-.63654326-.6095877-1.21256444-1.2793797-1.72-2h15.29c.5522847 0 1 .4477153 1 1z"/><circle id="Oval" cx="23" cy="55" r="1"/></g></g></svg>