<svg height="512" viewBox="0 0 58 59" width="512" xmlns="http://www.w3.org/2000/svg"><g id="005---Leg-Hair" fill="none"><path id="Shape" d="m57.99 16-5 1c.295 5.011-4.688 9-9.49 9-4.69 0-9.5-3.81-9.5-8.5l.01-.5-5-1c-.1971312-5.3051742 2.5207222-10.29394121 7.0850943-13.00507402s10.2454393-2.71113281 14.8098114 0 7.2822255 7.69989982 7.0850943 13.00507402z" fill="#84b5cb"/><path id="Shape" d="m57.99 16c-.2895833 7.7932345-6.6913872 13.9615764-14.49 13.9615764s-14.2004167-6.1683419-14.49-13.9615764h5c.5522847 0 1 .4477153 1 1-.012 4.69 3.805 8 8.495 8 4.749 0 8.512-3.377 8.5-8 0-.5522847.4477153-1 1-1z" fill="#fdd7ad"/><path id="Shape" d="m50.94 57.7c-.4452623.7550681-1.2534621 1.2217751-2.13 1.23 1.66-2.491-4.737-4.309-6.43-5.31-4.812-2.871-10.972-5.379-14.82-10.14-1.4558665-2.0863314-2.5604658-4.3968694-3.27-6.84-4.81-13.51-4.02-14.58-6.68-19.87s-4.27-9.79-5.61-12.44c-.46-.91 1.48-2.35-.03-3.31 2.6180209.14510045 4.9257151 1.76630409 5.95 4.18 1.29 2.56 2.84 6.91 5.42 12.02s1.81 6.15 6.46 19.2c.6831165 2.3619457 1.7507502 4.5951922 3.16 6.61 6.252 7.747 19.889 10.049 17.98 14.67z" fill="#f9c795"/><path id="Shape" d="m48.96 58.65c-.04001.0983506-.0902885.1922038-.15.28-2.49.393-4.5-.8-6.63-1.6-4.04-1.54-8.95-2.12-13.1-.61-3.656 1.383-5.045-1.037-4.37-4.84.51-2.83 2.04-4.9.75-7.46s-7.45-7.12-11.82-11.96-4.65-13.05-4.65-13.05c-1.17 2.145-4.3 8.267-7.08 14.23-.19549864.4291292-.66421953.6633648-1.12477894.56209-.46055942-.1012749-.78777884-.510534-.78522106-.98209v-25.11c.00492453-.93801612.44444467-1.82074984 1.19-2.39 4.78-3.66 8.26-4.8 10.78-4.7 3.341 2.124 3.651 6.28 8.43 15.75 2.66 5.29 1.87 6.36 6.68 19.87.7095342 2.4431306 1.8141335 4.7536686 3.27 6.84 6.461 7.993 20.578 10.411 18.61 15.17z" fill="#fdd7ad"/><path id="Shape" d="m48 16.5c-.0000001 2.4852813-2.0147187 4.4999998-4.5 4.4999998s-4.4999999-2.0147185-4.5-4.4999998c0-5.5 8.6-12.911 8-10.5-2 8 1 8.015 1 10.5z" fill="#5d4c72"/></g></svg>