<svg height="512" viewBox="0 0 58 50" width="512" xmlns="http://www.w3.org/2000/svg"><g id="017---Foam" fill="none"><path id="Shape" d="m53 32.08-19.12 9.21c-.858.293-1.424.21-3.62.21 2.59-2.59.063-7-3.83-7h-5.23c-2.0715011-.0028959-4.0808416-.7079276-5.7-2-1.61-1.28-1.61-5.49-3.67-5.5.06-4.57 3.425-7.42 7.325-9.18-.634-3.595.389-6.418 3.865-7.58 10.5-3.5 6.13-10.24 6.13-10.24 12.24 2.56 20.98 10.91 19.13 17.07-.0612354.2107622-.1346931.4177793-.22.62.6305258.3910533 1.1943358.8805889 1.67 1.45 2.84 3.34 3.29 9.35 3.27 12.94z" fill="#81ccb8"/><path id="Shape" d="m49.73 19.14c-2.6 5.29-11.13 7.25-11.51 7.34-.0728547.0111646-.1463264.0178438-.22.02-.5179295.0115126-.9588964-.3744327-1.0161063-.8893215-.0572099-.5148889.2882821-.9882184.7961063-1.0906785.09-.02 8.624-1.907 10.35-6.69.0075992-.0261728.0213092-.0501652.04-.07.5853752.3803334 1.1110963.8453944 1.56 1.38z" fill="#26b99a"/><path id="Shape" d="m32 13.94c.0163994.265334-.0735261.5262777-.2499078.7251761-.1763816.1988985-.4247009.3193798-.6900922.3348239-3.9511592.2909152-7.8302556 1.2125804-11.49 2.73-.130295.0593642-.2718187.0900561-.415.09-.1218573-.6629459-.1804539-1.3359698-.175-2.01 3.8119546-1.5664526 7.849311-2.5150289 11.96-2.81.5505056-.0280271 1.0220023.3900926 1.06.94z" fill="#26b99a"/><path id="Shape" d="m56.68 36.57-18.74 11.41c-1.0968305.667384-2.3560847 1.020252-3.64 1.02-28.313 0-26.181.025-26.54-.05.34-.64.24.973.24-21.95h3.83c2.0606504.0128464 4.0573258.7171411 5.67 2 1.6191584 1.2920724 3.6284989 1.9971041 5.7 2h5.23c3.835 0 6.465 4.365 3.83 7 4.39 0 .166.888 22.13-6.38 1.120338-.3678364 2.3505552.0181141 3.06.96v.01c.4649441.6171961.6465512 1.4025179.4997758 2.1611752s-.608183 1.4195768-1.2697758 1.8188248z" fill="#fdd7ad"/><path id="Shape" d="m33.27 36c-.1123578.7580836-.4666159 1.4595847-1.01 2h-6.54c-1.5797578-.0009418-3.1245213.4652706-4.44 1.34l-.72.49c-.4583963.3092795-1.0807205.1883963-1.39-.27s-.1883963-1.0807205.27-1.39l.73-.49c1.6440609-1.0946059 3.5748804-1.6790702 5.55-1.68z" fill="#f9c795"/><path id="Shape" d="m9 27c0 22.912.1 21.31-.24 21.95-.35109868.6449509-1.02568047 1.0474002-1.76 1.05h-5c-1.10320187-.0032948-1.9967052-.8967981-2-2v-21c.0032948-1.1032019.89679813-1.9967052 2-2h5c1.10320187.0032948 1.9967052.8967981 2 2z" fill="#7d6599"/></g></svg>