<svg height="512" viewBox="0 0 59 58" width="512" xmlns="http://www.w3.org/2000/svg"><g id="018---Natural-Products" fill="none"><path id="Shape" d="m56 0h-24c-1.1032019.0032948-1.9967052.89679813-2 2 0 5.333-.319-.379 1.97 31l4.03 14v8c.0060548.8532257-.3588639 1.6669944-1 2.23.547345.4970501 1.2606472.7716714 2 .77h14c1.6568542 0 3-1.3431458 3-3 0-8.886-.031-8 .07-8 .5239694-.0040179.9580344-.4076984 1-.93 3.368-46.07 2.93-38.503 2.93-44.07-.0032948-1.10320187-.8967981-1.9967052-2-2z" fill="#ecf0f1"/><path id="Shape" d="m36 47h18.07c.5239694-.0040179.9580344-.4076984 1-.93l2.93-40.07h-28l1.97 27z" fill="#7ed09e"/><g fill="#bdc3c7"><path id="Shape" d="m35 4v2h-2v-2c0-.55228475.4477153-1 1-1s1 .44771525 1 1z"/><path id="Shape" d="m39 4v2h-2v-2c0-.55228475.4477153-1 1-1s1 .44771525 1 1z"/><path id="Shape" d="m43 4v2h-2v-2c0-.55228475.4477153-1 1-1s1 .44771525 1 1z"/><path id="Shape" d="m47 4v2h-2v-2c0-.55228475.4477153-1 1-1s1 .44771525 1 1z"/><path id="Shape" d="m51 4v2h-2v-2c0-.55228475.4477153-1 1-1s1 .44771525 1 1z"/><path id="Shape" d="m55 4v2h-2v-2c0-.55228475.4477153-1 1-1s1 .44771525 1 1z"/><path id="Shape" d="m54 52v3c0 1.6568542-1.3431458 3-3 3h-14c-.7393528.0016714-1.452655-.2729499-2-.77.6411361-.5630056 1.0060548-1.3767743 1-2.23v-3h3.36c.3381022.018544.6382474.2224888.78.53 1.093 1.953 6.627 1.953 7.72 0 .1417526-.3075112.4418978-.511456.78-.53z"/></g><path id="Shape" d="m51 26c0 6.9-2 9-7 9s-7-2.1-7-9 4-16 7-16 7 9.1 7 16z" fill="#4fba6f"/><path id="Shape" d="m44 40c-.5522847 0-1-.4477153-1-1v-22c0-.5522847.4477153-1 1-1s1 .4477153 1 1v22c0 .5522847-.4477153 1-1 1z" fill="#4c8056"/><path id="Shape" d="m44 31c-.2651948-.0000566-.5195073-.1054506-.707-.293l-3-3c-.3789722-.3923789-.3735524-1.0160848.0121814-1.4018186s1.0094397-.3911536 1.4018186-.0121814l3 3c.2859079.2859943.3714219.7160366.216678 1.0896546-.1547439.3736179-.5192821.6172591-.923678.6173454z" fill="#4c8056"/><path id="Shape" d="m44 25c-.2651948-.0000566-.5195073-.1054506-.707-.293l-3-3c-.3789722-.3923789-.3735524-1.0160848.0121814-1.4018186s1.0094397-.3911536 1.4018186-.0121814l3 3c.2859079.2859943.3714219.7160366.216678 1.0896546-.1547439.3736179-.5192821.6172591-.923678.6173454z" fill="#4c8056"/><path id="Shape" d="m44 31c-.4043959-.0000863-.7689341-.2437275-.923678-.6173454-.1547439-.373618-.0692299-.8036603.216678-1.0896546l3-3c.3923789-.3789722 1.0160848-.3735524 1.4018186.0121814s.3911536 1.0094397.0121814 1.4018186l-3 3c-.1874927.1875494-.4418052.2929434-.707.293z" fill="#4c8056"/><path id="Shape" d="m44 25c-.4043959-.0000863-.7689341-.2437275-.923678-.6173454-.1547439-.373618-.0692299-.8036603.216678-1.0896546l3-3c.3923789-.3789722 1.0160848-.3735524 1.4018186.0121814s.3911536 1.0094397.0121814 1.4018186l-3 3c-.1874927.1875494-.4418052.2929434-.707.293z" fill="#4c8056"/><path id="Shape" d="m33 33h-6v-7c0-2.209139-1.790861-4-4-4h-10c-2.209139 0-4 1.790861-4 4v7h-6c-1.65685425 0-3 1.3431458-3 3v19c0 1.6568542 1.34314575 3 3 3h30c1.6568542 0 3-1.3431458 3-3v-19c0-1.6568542-1.3431458-3-3-3z" fill="#fac176"/><path id="Rectangle-path" d="m0 37h36v17h-36z" fill="#f9eab0"/><path id="Rectangle-path" d="m9 28h18v5h-18z" fill="#7f6e5d"/><path id="Shape" d="m27.712 44.506c-2.8 1.168-3.527 4.714-7.549 5.454-8.45 1.554-10.037-7.3-1.587-8.855 4.024-.74 10.916 2.658 9.136 3.401z" fill="#4fba6f"/><path id="Shape" d="m7.008 48.125c-.06897251-.5474976.31858403-1.0473829.866-1.117 7.593-.962 11.48-2.882 11.52-2.9.4897119-.228324 1.07223-.0263482 1.3154904.4561183.2432605.4824665.0592753 1.0709145-.4154904 1.3288817-.168.085-4.193 2.09-12.17 3.1-.5478221.068322-1.04737125-.3202162-1.116-.868z" fill="#4c8056"/></g></svg>