<svg height="512" viewBox="0 0 58 58" width="512" xmlns="http://www.w3.org/2000/svg"><g id="021---Lip-Pencil" fill="none"><path id="Shape" d="m44.62 2.97c-4.51-4.5-10.03-2.94-13.15-1.44-1.5611248.75062371-3.3788752.75062371-4.94 0-3.12-1.5-8.64-3.06-13.15 1.44-6.69 6.7-5.57 9.3-13.38 14.88 0 0 7.58 9.1 11.15 13.38 3.7898058 4.4248128 9.1735221 7.1741739 14.98 7.65 4.872-.583 2.47-.4 10.87-.8v-3.663l3 1.583h1.15c2.1740696-1.230422 4.1056409-2.8468421 5.7-4.77 3.57-4.28 11.15-13.38 11.15-13.38-7.81-5.58-6.69-8.18-13.38-14.88z" fill="#ff5364"/><path id="Shape" d="m58 17.85c-1.7358635.057344-3.4733045-.0464338-5.19-.31-3.2808289-.4254119-6.4319484-1.5508117-9.24-3.3-1.7-1.1-4.129-3.505-6.57-4.27-3.111-.979-5.8.9-8 .9-2.257 0-4.871-1.884-8-.9-2.449.767-4.867 3.163-6.57 4.27-2.806627 1.7521353-5.95840659 2.8777708-9.24 3.3-1.71669548.2635662-3.45413647.367344-5.19.31 7.81-5.58 6.69-8.18 13.38-14.88 4.51-4.5 10.03-2.94 13.15-1.44 1.5611248.75062371 3.3788752.75062371 4.94 0 3.12-1.5 8.64-3.06 13.15 1.44 6.69 6.7 5.57 9.3 13.38 14.88z" fill="#fb7b76"/><g fill="#fff"><path id="Shape" d="m21 9.97v6.44c-2.3008365-.3302121-4.5251118-1.0648662-6.57-2.17 1.701-1.106 4.191-3.549 6.57-4.27z"/><path id="Shape" d="m29 10.87v6.13c-2.6784995.0282123-5.3546188-.1691515-8-.59v-6.44c3.285-.995 5.665.9 8 .9z"/><path id="Shape" d="m37 9.97v6.44c-2.6454793.4200044-5.3215274.617363-8 .59v-6.13c2.241 0 4.793-1.87 8-.9z"/><path id="Shape" d="m43.57 14.24c-2.0450135 1.1048432-4.2692359 1.8394799-6.57 2.17v-6.44c2.353.713 4.9 3.184 6.57 4.27z"/></g><path id="Shape" d="m52.81 17.54c-10.664 10.911-37.279 10.76-47.62 0 3.28159341-.4222292 6.433373-1.5478647 9.24-3.3 3.879 2.312 10.07 2.76 14.57 2.76s10.691-.448 14.57-2.76c2.8080516 1.7491883 5.9591711 2.8745881 9.24 3.3z" fill="#59474e"/><path id="Shape" d="m30 10.77v6.22c-.458.014-1.541.014-2 0v-6.22c.6599838.1334951 1.3400162.1334951 2 0z" fill="#bdc3c7"/><path id="Shape" d="m22 9.75v6.81c-.439-.05-1.41-.211-2-.34v-5.85c.628109-.3150618 1.3038171-.52453137 2-.62z" fill="#bdc3c7"/><path id="Shape" d="m38 10.37v5.85c-.587.128-1.559.29-2 .34v-6.81c.6960528.09605403 1.3716672.3054945 2 .62z" fill="#bdc3c7"/><path id="Shape" d="m40.38 35.23-16.28-6.263c-.3689626-.1418742-.7868726-.0530854-1.0662834.2265416-.2794108.2796271-.3678763.6976057-.2257166 1.0664584l6.262 16.28 11.17 11.17c.1855216.185852.4373992.2902013.7.29h16.06c.5522847 0 1-.4477153 1-1v-3.74c.0002013-.2626008-.104148-.5144784-.29-.7z" fill="#802f34"/><path id="Shape" d="m40.38 35.23c-1.787 1.8 2.517-2.517-11.31 11.31l-3.53-9.19 5.65-5.66z" fill="#cbb292"/><path id="Shape" d="m56.09 58h-8.49l-14.99-14.99 4.24-4.24z" fill="#cc4b4c"/></g></svg>