<svg height="512" viewBox="0 0 42 58" width="512" xmlns="http://www.w3.org/2000/svg"><g id="042---Mirror" fill="none"><path id="Rectangle-path" d="m19 44h4v8h-4z" fill="#56595e"/><path id="Shape" d="m18.907 45c-14.743-1.29-17.331-16.323-17.773-20.9-.0342975-.3556579.12375154-.7025968.41461156-.9101283.29086002-.2075314.67034248-.2441264.9955-.096.32515752.1481265.54659094.4584704.58088844.8141283 1.144 11.841 7.793 20.229 19.782 19.092 12.857-1.12 15.449-13.728 15.968-19.1.0530194-.5497995.5417005-.9525193 1.0915-.8995.5497995.0530194.9525193.5417005.8995 1.0915-.442 4.577-3.03 19.61-17.779 20.9-1.3902895.1276852-2.789232.1303626-4.18.008z" fill="#7f8c8d"/><rect id="Rectangle-path" fill="#bdc3c7" height="8" rx="2" width="42" y="16"/><ellipse id="Oval" cx="21" cy="20" fill="#84b5cb" rx="16" ry="20"/><ellipse id="Oval" cx="21" cy="20" fill="#9fc9d3" rx="12" ry="16"/><path id="Shape" d="m34 58h-26c-.55228475 0-1-.4477153-1-1 0-2.7614237 2.23857625-5 5-5h18c2.7614237 0 5 2.2385763 5 5 0 .5522847-.4477153 1-1 1z" fill="#bdc3c7"/><g fill="#fff"><path id="Shape" d="m14 16c-.4043959-.0000863-.7689341-.2437275-.923678-.6173454-.1547439-.373618-.0692299-.8036603.216678-1.0896546l5-5c.3923789-.37897221 1.0160848-.37355237 1.4018186.01218142.3857338.3857338.3911536 1.00943968.0121814 1.40181858l-5 5c-.1874927.1875494-.4418052.2929434-.707.293z"/><path id="Shape" d="m14 21c-.4043959-.0000863-.7689341-.2437275-.923678-.6173454-.1547439-.373618-.0692299-.8036603.216678-1.0896546l10-10c.3923789-.37897221 1.0160848-.37355237 1.4018186.01218142.3857338.3857338.3911536 1.00943968.0121814 1.40181858l-10 10c-.1874927.1875494-.4418052.2929434-.707.293z"/></g></g></svg>