<svg height="512" viewBox="0 0 58 58" width="512" xmlns="http://www.w3.org/2000/svg"><g id="044---Skin-Lifting" fill="none" transform="translate(0 -1)"><path id="Shape" d="m56 19c1.1032019.0032948 1.9967052.8967981 2 2v5c0 .5522847-.4477153 1-1 1h-56c-.55228475 0-1-.4477153-1-1v-5c.0032948-1.1032019.89679813-1.9967052 2-2z" fill="#f9c795"/><path id="Shape" d="m0 51.241c-.00201778-.3122087.14291847-.607187.39129142-.7963674.24837295-.1891803.57125807-.2505315.87170858-.1656326 8.17862138 2.1896105 16.7748692 2.2999554 25.007.321 13.541-3.114 18.835-2.945 30.81-1.964.5208219.041797.9216745.4775063.92 1v8.364c0 .5522847-.4477153 1-1 1h-56c-.55228475 0-1-.4477153-1-1z" fill="#f3d55b"/><path id="Shape" d="m57 31c.5522847 0 1 .4477153 1 1v11.63c-.0016623.2798312-.1204997.5461636-.3276477.7343071-.2071479.1881436-.4836523.2808831-.7623523.2556929-4.065-.335-8.146-.642-11.89-.62-13.32.077-19.12 4-30.88 4-4.54754678.0296567-9.07513633-.6036668-13.44-1.88-.41874438-.1316802-.70265792-.5210473-.7-.96v-13.16c0-.5522847.44771525-1 1-1z" fill="#fb7b76"/><g fill="#df4d60"><circle id="Oval" cx="5" cy="35" r="1"/><circle id="Oval" cx="9" cy="35" r="1"/><circle id="Oval" cx="13" cy="35" r="1"/><circle id="Oval" cx="17" cy="35" r="1"/><circle id="Oval" cx="21" cy="35" r="1"/><circle id="Oval" cx="19" cy="38" r="1"/><circle id="Oval" cx="15" cy="38" r="1"/><circle id="Oval" cx="11" cy="38" r="1"/><circle id="Oval" cx="7" cy="38" r="1"/><circle id="Oval" cx="5" cy="41" r="1"/><circle id="Oval" cx="9" cy="41" r="1"/><circle id="Oval" cx="13" cy="41" r="1"/><circle id="Oval" cx="17" cy="41" r="1"/><circle id="Oval" cx="7" cy="44" r="1"/><circle id="Oval" cx="11" cy="44" r="1"/><circle id="Oval" cx="15" cy="44" r="1"/><circle id="Oval" cx="19" cy="44" r="1"/><circle id="Oval" cx="23" cy="44" r="1"/><circle id="Oval" cx="21" cy="41" r="1"/><circle id="Oval" cx="23" cy="38" r="1"/><circle id="Oval" cx="25" cy="35" r="1"/><circle id="Oval" cx="29" cy="35" r="1"/><circle id="Oval" cx="33" cy="35" r="1"/><circle id="Oval" cx="31" cy="38" r="1"/><circle id="Oval" cx="27" cy="38" r="1"/><circle id="Oval" cx="35" cy="38" r="1"/><circle id="Oval" cx="25" cy="41" r="1"/><circle id="Oval" cx="29" cy="41" r="1"/><circle id="Oval" cx="33" cy="41" r="1"/><circle id="Oval" cx="53" cy="35" r="1"/><circle id="Oval" cx="49" cy="35" r="1"/><circle id="Oval" cx="45" cy="35" r="1"/><circle id="Oval" cx="41" cy="35" r="1"/><circle id="Oval" cx="37" cy="35" r="1"/><circle id="Oval" cx="39" cy="38" r="1"/><circle id="Oval" cx="43" cy="38" r="1"/><circle id="Oval" cx="47" cy="38" r="1"/><circle id="Oval" cx="51" cy="38" r="1"/><circle id="Oval" cx="37" cy="41" r="1"/><circle id="Oval" cx="41" cy="41" r="1"/><circle id="Oval" cx="45" cy="41" r="1"/><circle id="Oval" cx="49" cy="41" r="1"/><circle id="Oval" cx="53" cy="41" r="1"/></g><path id="Shape" d="m54 53h-2c-.5522847 0-1-.4477153-1-1s.4477153-1 1-1h2c.5522847 0 1 .4477153 1 1s-.4477153 1-1 1z" fill="#f5efca"/><path id="Shape" d="m48 53h-2c-.5522847 0-1-.4477153-1-1s.4477153-1 1-1h2c.5522847 0 1 .4477153 1 1s-.4477153 1-1 1z" fill="#f5efca"/><path id="Shape" d="m42 53h-2c-.5522847 0-1-.4477153-1-1s.4477153-1 1-1h2c.5522847 0 1 .4477153 1 1s-.4477153 1-1 1z" fill="#f5efca"/><path id="Shape" d="m36 53h-2c-.5522847 0-1-.4477153-1-1s.4477153-1 1-1h2c.5522847 0 1 .4477153 1 1s-.4477153 1-1 1z" fill="#f5efca"/><path id="Shape" d="m51 56h-2c-.5522847 0-1-.4477153-1-1s.4477153-1 1-1h2c.5522847 0 1 .4477153 1 1s-.4477153 1-1 1z" fill="#f5efca"/><path id="Shape" d="m45 56h-2c-.5522847 0-1-.4477153-1-1s.4477153-1 1-1h2c.5522847 0 1 .4477153 1 1s-.4477153 1-1 1z" fill="#f5efca"/><path id="Shape" d="m39 56h-2c-.5522847 0-1-.4477153-1-1s.4477153-1 1-1h2c.5522847 0 1 .4477153 1 1s-.4477153 1-1 1z" fill="#f5efca"/><path id="Shape" d="m33 56h-2c-.5522847 0-1-.4477153-1-1s.4477153-1 1-1h2c.5522847 0 1 .4477153 1 1s-.4477153 1-1 1z" fill="#f5efca"/><path id="Shape" d="m27 56h-2c-.5522847 0-1-.4477153-1-1s.4477153-1 1-1h2c.5522847 0 1 .4477153 1 1s-.4477153 1-1 1z" fill="#f5efca"/><path id="Shape" d="m21 56h-2c-.5522847 0-1-.4477153-1-1s.4477153-1 1-1h2c.5522847 0 1 .4477153 1 1s-.4477153 1-1 1z" fill="#f5efca"/><path id="Shape" d="m15 56h-2c-.5522847 0-1-.4477153-1-1s.4477153-1 1-1h2c.5522847 0 1 .4477153 1 1s-.4477153 1-1 1z" fill="#f5efca"/><path id="Shape" d="m9 56h-2c-.55228475 0-1-.4477153-1-1s.44771525-1 1-1h2c.55228475 0 1 .4477153 1 1s-.44771525 1-1 1z" fill="#f5efca"/><path id="Shape" d="m19 13h-2v9c0 .5522847-.4477153 1-1 1h-6c-.55228475 0-1-.4477153-1-1v-9h-2c-.41056289.000227-.77954919-.2505154-.93050519-.6323193s-.05320583-.8170827.24650519-1.0976807l6-6c.3846745-.36069066.9833255-.36069066 1.368 0l6 6c.299711.280598.3974612.7158768.2465052 1.0976807s-.5199423.6325463-.9305052.6323193z" fill="#e64c3c"/><path id="Shape" d="m35 9h-2v13c0 .5522847-.4477153 1-1 1h-6c-.5522847 0-1-.4477153-1-1v-13h-2c-.4105629.00022705-.7795492-.25051543-.9305052-.63231934-.150956-.3818039-.0532058-.81708265.2465052-1.09768066l6-6c.3846745-.36069066.9833255-.36069066 1.368 0l6 6c.299711.28059801.3974612.71587676.2465052 1.09768066-.150956.38180391-.5199423.63254639-.9305052.63231934z" fill="#e64c3c"/><path id="Shape" d="m51 13h-2v9c0 .5522847-.4477153 1-1 1h-6c-.5522847 0-1-.4477153-1-1v-9h-2c-.4105629.000227-.7795492-.2505154-.9305052-.6323193s-.0532058-.8170827.2465052-1.0976807l6-6c.3846745-.36069066.9833255-.36069066 1.368 0l6 6c.299711.280598.3974612.7158768.2465052 1.0976807s-.5199423.6325463-.9305052.6323193z" fill="#e64c3c"/></g></svg>