<svg height="512" viewBox="0 0 58 58" width="512" xmlns="http://www.w3.org/2000/svg"><g id="045---Eyebrow-Shaping" fill="none" transform="translate(0 -1)"><path id="Shape" d="m54.01 9.68-9.64-1.62c-2.1156021-.31433236-4.0153091-1.46785465-5.27-3.2-1.3829804-1.991187-3.5116206-3.33932912-5.9028803-3.73850003s-4.842372.18447709-6.7971197 1.61850003c-1.7532071 1.22715206-3.9256642 1.69911205-6.03 1.31-8.96-1.502-12.57-2.112-12.75-2.13-1.69601631-.12619061-3.28861919.8261699-3.98 2.38-.41202054 1.04004559-.38757558 2.20224013.06781271 3.22404111.45538829 1.02180099 1.30329907 1.81699971 2.35218729 2.20595889l11.82 4.56c2.0098112.7303789 3.6396398 2.2412156 4.52 4.19.9538952 2.2280818 2.7665691 3.9769366 5.0273953 4.8503948 2.2608263.8734583 4.778469.7975985 6.9826047-.2103948 1.966704-.8506734 4.1919348-.879479 6.18-.08l9.12 3.52c.5135854.197185 1.0899933-.0575069 1.29-.57l2.16-5.6c.0970035-.2477816.0901772-.5241811-.0189397-.7668721s-.3113367-.4312391-.5610603-.5231279l-7.06-2.73v-.01l7.17 1.21c.2626722.0432206.5317362-.0200752.7475919-.1758667s.3606854-.391219.4024081-.6541333l.99-5.91c.0903856-.5438292-.2764031-1.05822793-.82-1.15z" fill="#8697cb"/><path id="Shape" d="m18.23 34.23c-1.4237345-.3434072-2.9094985-.3365446-4.33.02l-11.94 3.04c-.72608487.1762701-1.47632672-.1805099-1.79784379-.8549705-.32151708-.6744607-.12628544-1.4819502.46784379-1.9350295l8.83-6.95c2.7079611-2.1378895 6.2120034-2.9919998 9.6-2.34l35.68 8.66c2.1479406.4148912 3.5534183 2.4917755 3.14 4.64l-.19.98c-.4115585 2.1455562-2.4843995 3.5513274-4.63 3.14-33.517-8.075-30.826-7.437-34.83-8.4z" fill="#a56a43"/><path id="Shape" d="m54.83 10.83-.99 5.91c-.0417227.2629143-.1865524.4983418-.4024081.6541333s-.4849197.2190873-.7475919.1758667l-2.96-.5 1.32-7.89 2.96.5c.5435969.09177207.9103856.6061708.82 1.15z" fill="#bdc3c7"/><path id="Shape" d="m35.6 10.65c-.2591143 1.575087-1.4421018 2.8386774-2.9967188 3.2009003-1.5546169.3622229-3.1742821-.2483545-4.1029013-1.5467018-.9286193-1.2983473-.9830624-3.02842127-.1379143-4.38258666.8451482-1.35416538 2.4232186-2.06537136 3.9975344-1.80161184 2.1444198.35815884 3.5940025 2.38489012 3.24 4.53z" fill="#556080"/><path id="Shape" d="m49.79 18.017-2.88 7.463-6.32-2.44c-1.9880652-.799479-4.213296-.7706734-6.18.08-2.2043181 1.0065602-4.721402 1.0816863-6.9818274.2083829-2.2604253-.8733034-4.0731789-2.6212393-5.0281726-4.8483829-.8803602-1.9487844-2.5101888-3.4596211-4.52-4.19-13.423-5.19-11.902-4.53-11.32-4.44l12.49 2.09c2.1156021.3143324 4.0153091 1.4678546 5.27 3.2 1.3835141 1.9905009 3.5120897 3.3380916 5.903094 3.7372199s4.8418763-.1840192 6.796906-1.6172199c1.7532071-1.2271521 3.9256642-1.6991121 6.03-1.31l2.47.41v.01z" fill="#556080"/><path id="Shape" d="m53.16 20.39-2.16 5.6c-.2000067.5124931-.7764146.767185-1.29.57l-2.8-1.08 2.88-7.463 2.79 1.083c.2497236.0918888.4519434.2804369.5610603.5231279s.1159432.5190905.0189397.7668721z" fill="#bdc3c7"/><path id="Shape" d="m57.71 56.56-17.33-17.33-16.28-6.263c-.3689626-.1418742-.7868726-.0530854-1.0662834.2265416-.2794108.2796271-.3678763.6976057-.2257166 1.0664584l6.262 16.28 8.46 8.46h19.47c.5522847 0 1-.4477153 1-1 0-.838.051-1.1-.29-1.44z" fill="#805333"/><path id="Shape" d="m40.38 39.23c-1.787 1.8 2.517-2.517-11.31 11.31l-3.53-9.19 5.65-5.66z" fill="#cbb292"/><path id="Shape" d="m44.6 59h-7.07l-8.46-8.46 3.54-3.53z" fill="#5d4c72"/><path id="Shape" d="m53.09 59h-8.49l-11.99-11.99 4.24-4.24z" fill="#7d6599"/><path id="Shape" d="m58 57.26v.74c0 .5522847-.4477153 1-1 1h-3.91l-16.24-16.23 1.4-1.41h.01l2.12-2.13 17.33 17.33c.1862278.1852701.2906448.4373113.29.7z" fill="#5d4c72"/></g></svg>