<svg height="512" viewBox="0 0 55 58" width="512" xmlns="http://www.w3.org/2000/svg"><g id="050---Lip-Filler" fill="none"><path id="Shape" d="m40 2.67c-4.04-4.04-8.99-2.64-11.79-1.3-1.3948603.68005-3.0251397.68005-4.42 0-2.8-1.34-7.75-2.74-11.79 1.3-6 6-5 8.33-12 13.33l10 12c3.2880359 3.8602989 7.9363189 6.3061982 12.98 6.83h5.7c5.1651921-.4372166 9.9504371-2.890912 13.32-6.83l10-12c-7-5-6-7.33-12-13.33z" fill="#df4d60"/><path id="Shape" d="m42 13.263c-5.862 4.333-25.452 4.841-32 0 .4536647-.3710423.887592-.7655823 1.3-1.182 1.377-1.44 4.232-4.158 6.125-4.777.784709-.27860469 1.6229737-.37303778 2.45-.276v.015c2.955.148 4.963 2.4 7.939 1.229 4.037-1.607 4.313-1.067 4.313-1.244 4.393-.305 6.691 3.577 9.873 6.235z" fill="#fff"/><path id="Shape" d="m52 16c-1.5550158.0541093-3.111697-.0362786-4.65-.27-2.9427574-.3843706-5.7692927-1.3936039-8.29-2.96-4.834-3.221-5.076-5.315-11.58-3.25-2.184.683-3.726-.42-5.69-.71-1.5817442-.30848872-3.2215469.00300219-4.58.87-2.161 1.331-2.849 2.143-4.27 3.09-2.5199908 1.5678809-5.34685666 2.5772323-8.29 2.96-1.53830304.2337214-3.09498421.3241093-4.65.27 7-5 6-7.33 12-13.33 4.04-4.04 8.99-2.64 11.79-1.3 1.3948603.68005 3.0251397.68005 4.42 0 2.8-1.34 7.75-2.74 11.79 1.3 6 6 5 8.33 12 13.33z" fill="#ff5364"/><path id="Shape" d="m47.35 15.73c-9.519 9.716-33.18 9.717-42.7 0 2.94314334-.3827677 5.7700092-1.3921191 8.29-2.96 4.984 2.953 21 3.018 26.12 0 2.5207073 1.5663961 5.3472426 2.5756294 8.29 2.96z" fill="#59474e"/><path id="Shape" d="m33.97 40.14-.915 1.915-1.915.915-12.73-12.73c-.7814829-.7814829-.7814828-2.048517.0000001-2.8299999s2.048517-.781483 2.8299999-.0000001z" fill="#bdc3c7"/><path id="Shape" d="m42.46 44.38-2.9 3.9-4.18 3.18-4.24-8.49 2.83-2.83z" fill="#3b97d3"/><path id="Shape" d="m53.66 58h-11.33c-.2621467-.0020603-.5132-.1060681-.7-.29l-6.25-6.25 7.08-7.08 11.9 11.91c.2871614.2848091.3744903.714552.2212679 1.0888524s-.5168238.6194518-.9212679.6211476z" fill="#2980ba"/><path id="Shape" d="m15 7c-.3464401-.00018496-.6681037-.17966784-.8501945-.47439433-.1820909-.29472648-.1986643-.66270321-.0438055-.97260567 1.261-2.524 4.747-2.553 4.894-2.553.5522847 0 1 .44771525 1 1s-.4477153 1-1 1c-.046 0-2.416.062-3.108 1.447-.1689407.33808624-.5140551.55204169-.892.553z" fill="#fff"/><g fill="#bdc3c7"><path id="Shape" d="m21 8.71v6.07c-.68-.07-1.35-.15-2-.25v-5.64c.6501275-.18137552 1.3279347-.24237817 2-.18z"/><path id="Shape" d="m33 8.89v5.67c-.51.08-1.49.191-2 .23v-6.08c.6720657-.06213049 1.3498279-.00113188 2 .18z"/><path id="Shape" d="m27 9.64v5.35c-.445.014-1.555.014-2 0v-5.35c.6599838.13349515 1.3400162.13349515 2 0z"/></g><path id="Shape" d="m45.99 47.91c-.051.1-1.86 1.87-2.39 2.4-.3921222.3893607-1.0256393.3871222-1.415-.005s-.3871222-1.0256393.005-1.415l2.39-2.39z" fill="#84b5cb"/><path id="Shape" d="m48.82 50.74c-.051.1-.938.944-2.39 2.39-.1845329.1915211-.4390437.2997239-.705.2997239s-.5204671-.1082028-.705-.2997239c-.3877236-.3900375-.3877236-1.0199625 0-1.41 1.386-1.386 2.288-2.329 2.39-2.38z" fill="#84b5cb"/><path id="Shape" d="m51.64 53.57c-.051.1-.931.941-2.38 2.39-.1845329.1915211-.4390437.2997239-.705.2997239s-.5204671-.1082028-.705-.2997239c-.3877236-.3900375-.3877236-1.0199625 0-1.41 1.416-1.417 2.288-2.329 2.39-2.38z" fill="#84b5cb"/></g></svg>