<svg height="512" viewBox="0 0 58 54" width="512" xmlns="http://www.w3.org/2000/svg"><g id="051---Floral-Cream" fill="none" transform="translate(-1)"><path id="Shape" d="m14 0h32c1.6568542 0 3 1.34314575 3 3v8h-38v-8c0-1.65685425 1.3431458-3 3-3z" fill="#f0c419"/><path id="Shape" d="m16.11 0h27.78c1.6568542 0 3 1.34314575 3 3v7h-33.78v-7c0-1.65685425 1.3431458-3 3-3z" fill="#f3d55b"/><path id="Shape" d="m55 10h-50c-2.209139 0-4 1.790861-4 4-.01514091 1.8070466.07501184 3.6134405.27 5.41.947 8.984 3.616 16.108 12.14 19.34h32.99l10.85-11.48c1.2163463-4.3165927 1.8057099-8.7856531 1.75-13.27 0-2.209139-1.790861-4-4-4z" fill="#7d6599"/><path id="Shape" d="m50.89 34-4.49 4.75h-32.99c-2.677918-.99849-5.07565432-2.627853-6.99-4.75z" fill="#7d6599"/><path id="Shape" d="m58.86 18c-.2053201 3.1384813-.7450438 6.2460833-1.61 9.27l-6.36 6.73h-44.47c-3.58-3.99-4.6-9.37-5.15-14.59-.05-.47-.1-.94-.13-1.41z" fill="#5d4c72"/><path id="Shape" d="m49.73 38.37c2.26-.41 5.64-1.79 7.08-3.23 2.68-2.69 2.61-5.72.69-7.64-1.9-1.9-4.924-2.016-7.64.69-1.44 1.44-2.82 4.82-3.23 7.08h-3.26c-.41-2.26-1.79-5.64-3.23-7.08-2.69-2.68-5.72-2.61-7.64-.69-1.9 1.9-2.019 4.9.69 7.64 1.43 1.45 4.82 2.82 7.08 3.23v3.26c-2.26.41-5.64 1.79-7.08 3.23-2.68 2.69-2.61 5.72-.69 7.64s4.95 1.99 7.64-.69c1.44-1.44 2.82-4.82 3.23-7.08h3.26c.41 2.26 1.79 5.64 3.23 7.08 2.69 2.68 5.72 2.61 7.64.69s1.99-4.95-.69-7.64c-1.44-1.44-4.82-2.82-7.08-3.23z" fill="#f5efca"/><circle id="Oval" cx="45" cy="40" fill="#f3d55b" r="5"/><path id="Shape" d="m20.34 38.61c-1.1705048-.7603942-2.5026676-1.2364112-3.89-1.39-4.495 0-4.461 5.56 0 5.56 1.3873324-.1535888 2.7194952-.6296058 3.89-1.39l1.41 1.33c-2.633 4.1-1.16 7.28 1.36 7.28 2.567 0 4.033-3.275 1.31-7.36l1.29-1.37c1.212287.8295254 2.6100209 1.348095 4.07 1.51 4.456 0 4.465-5.56 0-5.56-1.4599791.161905-2.857713.6804746-4.07 1.51l-1.29-1.37c.7989216-1.2096352 1.3024521-2.5900622 1.47-4.03 0-2.15-1.24-3.33-2.78-3.33-2.5 0-4.007 3.147-1.36 7.28z" fill="#f5efca"/><circle id="Oval" cx="23" cy="40" fill="#f3d55b" r="3"/><g fill="#b49aca"><path id="Shape" d="m7 15h-2c-.55228475 0-1-.4477153-1-1s.44771525-1 1-1h2c.55228475 0 1 .4477153 1 1s-.44771525 1-1 1z"/><path id="Shape" d="m28 15h-17c-.5522847 0-1-.4477153-1-1s.4477153-1 1-1h17c.5522847 0 1 .4477153 1 1s-.4477153 1-1 1z"/></g></g></svg>