<svg height="512" viewBox="0 0 58 52" width="512" xmlns="http://www.w3.org/2000/svg"><g id="053---Toe-Separator-" fill="none"><path id="Shape" d="m56.83 45.17c-.6372702-.632908-1.4680919-1.0342371-2.36-1.14l1.44-11.53c.1418513-1.1389009-.2117163-2.2839309-.9709967-3.1445762s-1.8513032-1.3541938-2.9990033-1.3554238h-.94c-1.1411181-.0012584-2.2282521.4857626-2.9869631 1.338118-.758711.8523555-1.1164968 1.9885945-.9830369 3.121882l1.41 11.54c-.0027548 2.2079969-1.7920031 3.9972452-4 4h-.94c-2.209139 0-4-1.790861-4-4l1.41-11.54c.1311435-1.1328089-.227457-2.2677356-.9856733-3.1195352-.7582163-.8517997-1.8439523-1.3394779-2.9843267-1.3404648h-.94c-2.209139 0-4 1.790861-4 4h.03c1.57 12.5 1.47 11.629 1.47 12-.006805 2.0479714-1.5535707 3.7627701-3.59 3.98-.374.027-.319.02-1.39.02-1.1509698.0038624-2.2480243-.4873955-3.0116217-1.3485955-.7635973-.8612-1.1199948-2.0091737-.9783783-3.1514045 1.505-12.018 1.37-11.5 1.47-11.5 0-2.209139-1.790861-4-4-4h-.94c-1.1403744.0009869-2.2261104.4886651-2.9843267 1.3404648-.7582163.8517996-1.1168168 1.9867263-.9856733 3.1195352l1.41 11.54c0 2.209139-1.790861 4-4 4h-.94c-2.2079969-.0027548-3.99724517-1.7920031-4-4l1.41-11.54c.1334599-1.1332875-.2243259-2.2695265-.98303687-3.121882-.75871101-.8523554-1.84584499-1.3393764-2.98696313-1.338118h-.94c-1.1477001.00123-2.23972287.4947785-2.99900327 1.3554238-.75928039.8606453-1.11284804 2.0056753-.97099673 3.1445762l1.44 11.53c-2.094688.2578107-3.62867898 2.0986852-3.5044366 4.2055188.12424239 2.1068337 1.86396566 3.7546535 3.9744366 3.7644812h50c1.6188267.001274 3.0788192-.9733095 3.6984897-2.4688395.6196706-1.49553.2768311-3.2171142-.8684897-4.3611605z" fill="#894b9d"/><path id="Shape" d="m56.82 48c.043524 2.1646989-1.6753278 3.9551695-3.84 4h-47.96c-3.42 0-5.115-4.3-2.72-6.83.60388667-.6286105 1.40515796-1.0310111 2.27-1.14l-1.38-11.53c-.15949767-1.1155045.16589458-2.2459495.89403128-3.1059535s1.7894347-1.3673821 2.91596872-1.3940465c1.14111814-.0012584 2.22825212.4857626 2.98696313 1.338118.75871097.8523555 1.11649677 1.9885945.98303687 3.121882l-1.41 11.54c.00275483 2.2079969 1.7920031 3.9972452 4 4h.94c1.060866 0 2.0782816-.4214274 2.8284271-1.1715729s1.1715729-1.7675611 1.1715729-2.8284271l-1.41-11.54c-.1311435-1.1328089.227457-2.2677356.9856733-3.1195352.7582163-.8517997 1.8439523-1.3394779 2.9843267-1.3404648h.94c2.209139 0 4 1.790861 4 4h-.03c-1.565 12.5-1.47 11.629-1.47 12 .006805 2.0479714 1.5535707 3.7627701 3.59 3.98.374.027.319.02 1.39.02 1.1509698.0038624 2.2480243-.4873955 3.0116217-1.3485955.7635973-.8612 1.1199948-2.0091737.9783783-3.1514045-1.505-12.018-1.37-11.5-1.47-11.5 0-2.209139 1.790861-4 4-4h.94c1.1403744.0009869 2.2261104.4886651 2.9843267 1.3404648.7582163.8517996 1.1168168 1.9867263.9856733 3.1195352l-1.41 11.54c0 2.209139 1.790861 4 4 4h.94c2.2079969-.0027548 3.9972452-1.7920031 4-4l-1.41-11.54c-.1340046-1.1350916.2249638-2.2731777.9859747-3.1259688.7610108-.8527911 1.8510597-1.3384781 2.9940253-1.3340312 1.1246554.0297852 2.1830579.5384528 2.9089184 1.3980244.7258605.8595717 1.0500783 1.9882176.8910816 3.1019756l-1.38 11.53c1.9710483.2762052 3.4259412 1.9800178 3.39 3.97z" fill="#955ba5"/><path id="Shape" d="m56.83 17.17c-.6372702-.632908-1.4680919-1.0342371-2.36-1.14l1.44-11.53c.1418513-1.13890089-.2117163-2.28393093-.9709967-3.14457621-.7592804-.86064529-1.8513032-1.35419381-2.9990033-1.35542379h-.94c-1.1411181-.00125835-2.2282521.48576258-2.9869631 1.33811802s-1.1164968 1.98859443-.9830369 3.12188198l1.41 11.54c-.0027548 2.2079969-1.7920031 3.9972452-4 4h-.94c-2.209139 0-4-1.790861-4-4l1.41-11.54c.1311435-1.1328089-.227457-2.26773556-.9856733-3.11953523-.7582163-.85179968-1.8439523-1.33947783-2.9843267-1.34046477h-.94c-2.209139 0-4 1.790861-4 4h.03c1.57 12.5 1.47 11.629 1.47 12-.006805 2.0479714-1.5535707 3.7627701-3.59 3.98-.374.027-.319.02-1.39.02-1.1509698.0038624-2.2480243-.4873955-3.0116217-1.3485955-.7635973-.8612-1.1199948-2.0091737-.9783783-3.1514045 1.505-12.018 1.37-11.5 1.47-11.5 0-2.209139-1.790861-4-4-4h-.94c-1.1403744.00098694-2.2261104.48866509-2.9843267 1.34046477-.7582163.85179967-1.1168168 1.98672633-.9856733 3.11953523l1.41 11.54c0 2.209139-1.790861 4-4 4h-.94c-2.2079969-.0027548-3.99724517-1.7920031-4-4l1.41-11.54c.1334599-1.13328755-.2243259-2.26952654-.98303687-3.12188198-.75871101-.85235544-1.84584499-1.33937637-2.98696313-1.33811802h-.94c-1.1477001.00122998-2.23972287.4947785-2.99900327 1.35542379-.75928039.86064528-1.11284804 2.00567532-.97099673 3.14457621l1.44 11.53c-2.094688.2578107-3.62867898 2.0986852-3.5044366 4.2055188.12424239 2.1068337 1.86396566 3.7546535 3.9744366 3.7644812h50c1.6188267.001274 3.0788192-.9733095 3.6984897-2.4688395.6196706-1.49553.2768311-3.2171142-.8684897-4.3611605z" fill="#f0c419"/><path id="Shape" d="m56.82 20c.043524 2.1646989-1.6753278 3.9551695-3.84 4h-47.96c-3.42 0-5.115-4.3-2.72-6.83.60388667-.6286105 1.40515796-1.0310111 2.27-1.14l-1.38-11.53c-.15949767-1.11550454.16589458-2.24594954.89403128-3.10595352.7281367-.86000397 1.7894347-1.3673821 2.91596872-1.39404648 1.14111814-.00125835 2.22825212.48576258 2.98696313 1.33811802.75871097.85235544 1.11649677 1.98859443.98303687 3.12188198l-1.41 11.54c.00275483 2.2079969 1.7920031 3.9972452 4 4h.94c1.060866 0 2.0782816-.4214274 2.8284271-1.1715729s1.1715729-1.7675611 1.1715729-2.8284271l-1.41-11.54c-.1311435-1.1328089.227457-2.26773556.9856733-3.11953523.7582163-.85179968 1.8439523-1.33947783 2.9843267-1.34046477h.94c2.209139 0 4 1.790861 4 4h-.03c-1.565 12.5-1.47 11.629-1.47 12 .006805 2.0479714 1.5535707 3.7627701 3.59 3.98.374.027.319.02 1.39.02 1.1509698.0038624 2.2480243-.4873955 3.0116217-1.3485955.7635973-.8612 1.1199948-2.0091737.9783783-3.1514045-1.505-12.018-1.37-11.5-1.47-11.5 0-2.209139 1.790861-4 4-4h.94c1.1403744.00098694 2.2261104.48866509 2.9843267 1.34046477.7582163.85179967 1.1168168 1.98672633.9856733 3.11953523l-1.41 11.54c0 2.209139 1.790861 4 4 4h.94c2.2079969-.0027548 3.9972452-1.7920031 4-4l-1.41-11.54c-.1340046-1.13509159.2249638-2.27317773.9859747-3.1259688.7610108-.85279107 1.8510597-1.33847808 2.9940253-1.3340312 1.1246554.02978517 2.1830579.5384528 2.9089184 1.39802444.7258605.85957163 1.0500783 1.98821755.8910816 3.10197556l-1.38 11.53c1.9710483.2762052 3.4259412 1.9800178 3.39 3.97z" fill="#f3d55b"/></g></svg>