<svg height="512" viewBox="0 0 54 58" width="512" xmlns="http://www.w3.org/2000/svg"><g id="054---Nose-Strip" fill="none"><path id="Shape" d="m50.82 44.73c-2.0030333 2.6857213-5.251784 4.145579-8.59 3.86-1.3078024-.1038013-2.6094823-.2740209-3.9-.51-3.056 1.757-4.123 5.383-5.04 8.53-.252403.8352593-1.0275245 1.4023219-1.9 1.39h-29.39c-1.10320187-.0032948-1.9967052-.8967981-2-2v-54c.0032948-1.10320187.89679813-1.9967052 2-2h26.05c1.0546313-.00392426 1.9284071.81716147 1.99 1.87.2154042 2.9056419.8485836 5.76505338 1.88 8.49-.09-.02-.17-.05-.26-.07-9.06-2.25-13.91-.55-17.12 4.03-3.34 4.78 3.99 18.34 10.06 13.74 5.74-4.35 14.41-4.35 17.88-4.63 3.32 2.42 6.82 4.95 9.05 8.46 2.65 4.15 2.05 8.88-.71 12.84z" fill="#f9c795"/><path id="Shape" d="m40.214 23.43c3.056 2.42 7.276 4.95 9.329 8.46 2.438 4.15 1.886 8.88-.654 12.84-1.7333941 2.6325568-4.7631013 4.1119584-7.905 3.86-1.2044373-.1041637-2.4022423-.2744202-3.588-.51-.8791547.4556289-1.6815404 1.0461146-2.378 1.75-1.4774676 2.0503801-2.5810934 4.3456511-3.26 6.78-.1978551.8079344-.9172561 1.379671-1.749 1.39h-26.045c-1.05844951-.0486671-1.87997956-.9411495-1.841-2v-54c-.03897956-1.05885053.78255049-1.95133293 1.841-2h22.972c1.0107806.03661554 1.8156928.85867226 1.831 1.87.1955467 2.8944765.7773721 5.74979328 1.73 8.49-.328-.079-1.407-1.611 9.717 13.07z" fill="#fdd7ad"/><path id="Shape" d="m38.33 48.08c-.7797146.455896-1.4707828 1.0487242-2.04 1.75-1.0172772-.1259203-2.0485361-.0785838-3.05.14-3.675.923-5.175 2.332-7.98 3.09-16.4 4.352-23.046-16.39-5.7-18.67.5294802-.0401938.9980481.3404518 1.0671823.8669357.0691342.5264838-.2852754 1.0151971-.8071823 1.1130643-14.66 1.936-8.584 18.387 4.92 14.75 2.586-.7 4-2.081 8.02-3.09 1.8439719-.3256623 3.7321715-.3087126 5.57.05z" fill="#f9c795"/><g fill="#5f5346"><circle id="Oval" cx="16" cy="40" r="1"/><circle id="Oval" cx="15" cy="44" r="1"/><circle id="Oval" cx="18" cy="47" r="1"/><circle id="Oval" cx="19" cy="43" r="1"/><circle id="Oval" cx="44" cy="30" r="1"/><circle id="Oval" cx="49" cy="37" r="1"/><circle id="Oval" cx="48" cy="41" r="1"/><circle id="Oval" cx="45" cy="38" r="1"/><circle id="Oval" cx="43" cy="34" r="1"/><circle id="Oval" cx="47" cy="33" r="1"/></g><path id="Shape" d="m24.6 28.06c-6.07 4.6-13.4-8.96-10.06-13.74 3.21-4.58 8.06-6.28 17.12-4.03.09.02.17.05.26.07v.01c.6390562.2268102 1.1820735.6640449 1.54 1.24 2.1 3.431 5.973 9 9.59 10.73 4.841 2.36-9.976-.702-18.45 5.72z" fill="#26b99a"/><path id="Shape" d="m18 21c-.3346327.0003846-.6472789-.1666353-.833-.445-.713754-1.0051491-.981343-2.2601789-.7396459-3.4690429.2416971-1.2088639.9712789-2.264522 2.0166459-2.9179571.4586725-.3078987 1.0801013-.1856725 1.388.273s.1856725 1.0801013-.273 1.388c-.6054691.3580517-1.0304916.956287-1.1693228 1.6458664-.1388313.6895794.0215796 1.4056785.4413228 1.9701336.2046328.3067094.2238907.701139.05011 1.0263244s-.5124026.5283622-.88111.5286756z" fill="#65ddb9"/></g></svg>