<svg height="512" viewBox="0 0 61 60" width="512" xmlns="http://www.w3.org/2000/svg"><g id="003---Massager" fill="none" fill-rule="evenodd"><g id="Layer_3" transform="translate(1 1)"><path id="Shape" d="m29 57v-15" stroke="#000" stroke-linecap="round" stroke-linejoin="round" stroke-width="2"/><g fill-rule="nonzero"><path id="Shape" d="m49.7 4c-.0466757-.95753518-.0165794-1.91727073.09-2.87.0373904-.28517521-.0498177-.57264243-.2393496-.78897687-.189532-.21633443-.4630348-.34058772-.7506504-.34102313h-39.595c-.28779015.00014792-.5615653.12427727-.75132036.34064781-.18975505.21637055-.2770924.50400419-.23967964.78935219.286 2.359.313 8.553-4.214 19.87-5.91 14.774-4.058 32.459 1.732 36.81.17414132.1266493.38469981.1933261.6.19h45.338c.2152366.0028942.425662-.0637405.6-.19 5.79-4.35 7.64-22.04 1.73-36.81-1.3300505-3.2480412-2.4163874-6.5906165-3.25-10" fill="#ffe0b2"/><path id="Shape" d="m54 21c-1.3300505-3.2480412-2.4163874-6.5906165-3.25-10l-1.05-7c-.0466757-.95753518-.0165794-1.91727073.09-2.87.0373904-.28517521-.0498177-.57264243-.2393496-.78897687-.189532-.21633443-.4630348-.34058772-.7506504-.34102313h-3c.2876156.00043541.5611184.1246887.7506504.34102313.1895319.21633444.27674.50380166.2393496.78897687-.1065794.95272927-.1366757 1.91246482-.09 2.87l1.05 7c.8336126 3.4093835 1.9199495 6.7519588 3.25 10 5.91 14.77 4.06 32.46-1.73 36.81-.174338.1262595-.3847634.1928942-.6.19h3c.2152366.0028942.425662-.0637405.6-.19 5.79-4.35 7.64-22.04 1.73-36.81z" fill="#dfc49c"/><path id="Shape" d="m37.37 19.24c-2.5587465.5304724-5.166966.7852599-7.78.76-2.9828355.0427942-5.9583465-.3068703-8.85-1.04-.519271-.1576501-.9497661-.523841-1.1886583-1.0111052-.2388922-.4872643-.26473-1.0518475-.0713417-1.5588948.2365878-.6686831.3648698-1.3708584.38-2.08.0167395-.4054541-.0134611-.811484-.09-1.21.4757827.3318427.9981255.5913291 1.55.77h.01c2.6751986.8159143 5.4639568 1.1974272 8.26 1.13 2.7960432.0674272 5.5848014-.3140857 8.26-1.13h.01c.1603716-.0537521.3173277-.1172024.47-.19-.01.11-.01.21-.01.32-.0129863.9093203.1500062 1.8125709.48 2.66.1925558.531646.1457484 1.120593-.1283664 1.6151496-.2741147.4945567-.7487414.846379-1.3016336.9648504z" fill="#02a9f4"/><path id="Shape" d="m38.8 16.66c-.3299938-.8474291-.4929863-1.7506797-.48-2.66 0-.11 0-.21.01-.32-.1526723.0727976-.3096284.1362479-.47.19h-.01c-.8206664.2834356-1.6626831.5007949-2.518.65.0479275.7327484.2056888 1.4541355.468 2.14.1925558.531646.1457484 1.120593-.1283664 1.6151496-.2741147.4945567-.7487414.846379-1.3016336.9648504-2.1040677.4386722-4.2441602.6820395-6.393.727.53.02 1.066.033 1.613.033 2.613034.0252599 5.2212535-.2295276 7.78-.76.5528922-.1184714 1.0275189-.4702937 1.3016336-.9648504.2741148-.4945566.3209222-1.0835036.1283664-1.6151496z" fill="#00838f"/><path id="Shape" d="m58.09 7.5c0 .92825771-.3687489 1.81849641-1.0251263 2.47487373-.6563773.65637737-1.546616 1.02512627-2.4748737 1.02512627h-15.31c-1.1 0-.95 2.68-.95 2.68-.1526723.0727976-.3096284.1362479-.47.19h-.01c-2.6751986.8159143-5.4639568 1.1974272-8.26 1.13-2.7960432.0674272-5.5848014-.3140857-8.26-1.13h-.01c-.5518745-.1786709-1.0742173-.4381573-1.55-.77-.6326997-2.1461519-.2158143-4.46501478 1.1247778-6.25640802 1.3405921-1.79139325 3.4477518-2.84533664 5.6852222-2.84359198h28.01c1.9291303.00930245 3.4906976 1.57086971 3.5 3.5z" fill="#02a9f4"/><path id="Shape" d="m35.33 13.68c-.1526723.0727976-.3096284.1362479-.47.19h-.01c-2.1891589.6879529-4.4656668 1.0583906-6.76 1.1.491.02.989.033 1.5.033 2.7960432.0674272 5.5848014-.3140857 8.26-1.13h.01c.1603716-.0537521.3173277-.1172024.47-.19 0 0-.15-2.683.95-2.683h-3c-1.1 0-.95 2.68-.95 2.68z" fill="#0377bc"/><path id="Shape" d="m57.06 5.03c-.6507576-.66235554-1.5414603-1.03378217-2.47-1.03l-3-.0000286c1.9291303.00933105 3.4906976 1.57089831 3.5 3.5000286 0 1.93299662-1.5670034 3.5-3.5 3.5h3c.9282577 0 1.8184964-.3687489 2.4748737-1.02512627.6563774-.65637732 1.0251263-1.54661602 1.0251263-2.47487373.0018579-.92815762-.3692701-1.81814419-1.03-2.47z" fill="#0377bc"/></g></g><g id="Layer_2" fill="#000" fill-rule="nonzero"><path id="Shape" d="m55.59 4h-3.907c-.0004245-.58610322.0329643-1.17174285.1-1.754.0684807-.56822893-.1090192-1.13865082-.4878248-1.56769635-.3788055-.42904553-.9228399-.67585305-1.4951752-.67830365h-39.595c-.5739465.00008996-1.12019401.24675226-1.4997902.67724189s-.55595312 1.00331322-.4842098 1.57275811c.252 2.078.352 8.125-4.15 19.378-5.654 14.138-4.634 32.951 2.059 37.981.34660635.2578074.7680468.3951267 1.2.391h45.34c.4318066.0031775.8529529-.134046 1.2-.391 6.7-5.03 7.714-23.843 2.057-37.981-1.1399833-2.8131676-2.1031908-5.6947746-2.884-8.628h2.547c2.4852814 0 4.5-2.0147186 4.5-4.5 0-2.48528137-2.0147186-4.5-4.5-4.5zm-1.518 18.372c5.728 14.32 4.018 31.567-1.402 35.628h-21.67v-14.511l8.615-6.7c.4363049-.3391028.5151028-.967695.176-1.404-.3391029-.4363049-.967695-.5151028-1.404-.176l-8.387 6.524-8.386-6.523c-.2822398-.2193611-.6600679-.2714859-.9911601-.1367396-.3310921.1347463-.5651476.4358926-.614.79-.0488523.3541074.0949203.7073785.3771601.9267396l8.614 6.699v14.511h-21.667c-5.42-4.07-7.133-21.308-1.404-35.628 4.505-11.263 4.613-17.588 4.276-20.372h39.595c-.0714148.66421663-.1048026 1.3319725-.1 2h-22.12c-2.534424-.00407174-4.9240628 1.18067751-6.4551354 3.20036521-1.5310726 2.01968771-2.0263392 4.64051109-1.3378646 7.07963479.1548585.9338612.0670484 1.8918524-.255 2.782-.2825671.768504-.2347521 1.6196478.1321106 2.3516685.3668626.7320208 1.0201096 1.2797437 1.8048894 1.5133315 5.6181258 1.3293341 11.4573338 1.427581 17.117.288.8370587-.1818002 1.5544283-.717066 1.9670432-1.4677107s.4800676-1.6431574.1849568-2.4472893c-.3230317-.8199929-.4655998-1.6999591-.418-2.58-.0249279-.5787151.0336744-1.1580024.174-1.72h10.483c.8210626 3.1896564 1.8550478 6.3206773 3.095 9.372zm-15.689-6.3c.23 1.837.782 2.035.432 2.688-.1369735.2580184-.3799207.4432427-.665.507-5.3363074 1.0648337-10.838841.9737898-16.137-.267-.2332506-.0644427-.4285577-.2241734-.538-.44-.357-.684.2-.932.344-2.814 4.295 1.606 12.075 1.62 16.564.322zm17.207-5.072h-15.31c-1.439 0-1.9 1.561-1.954 2.994-4.85 1.64-13.834 1.138-16.687-.517-.4230349-1.8120085.0052498-3.71799454 1.1628115-5.17483504 1.1575618-1.4568405 2.9174557-2.30476978 4.7781885-2.30216496h28.01c1.3807119 0 2.5 1.11928813 2.5 2.5s-1.1192881 2.5-2.5 2.5z"/><path id="Shape" d="m39.339 26.105c-3.33 6.519-15.168 6.519-18.5 0-.1625558-.318145-.482492-.5254006-.8392916-.5436957-.3567996-.018295-.6962562.1551501-.8905.4550001-.1942437.29985-.2137643.6805506-.0512084.9986956 4.068 7.964 17.989 7.97 22.061 0 .2512896-.4920857.0560857-1.0947104-.436-1.346-.4920857-.2512895-1.0947104-.0560857-1.346.436z"/><path id="Shape" d="m36.52 25.584c.3776526-.3939327.3697467-1.0178963-.0177657-1.402134s-1.0115207-.3868481-1.4022343-.005866c-2.408 2.427-7.606 2.433-10.02 0-.3907136-.3809821-1.0147219-.3783717-1.4022343.005866s-.3954183 1.0082013-.0177657 1.402134c3.197 3.224 9.662 3.225 12.86 0z"/></g></g></svg>