<svg height="512" viewBox="0 0 46 60" width="512" xmlns="http://www.w3.org/2000/svg"><g id="004---Waist-Belt" fill="none"><g id="Layer_3" transform="translate(1 1)"><path id="Shape" d="m41.97 28.09c-2.16 1.97-7.97 5.91-19.97 5.91s-17.81-3.94-19.97-5.91c.03-.11.07-.22.11-.33 1.35-3.57 2.76-7.1 3.86-10.76 1.61787586-5.1450158 1.19907015-10.71477385-1.17-15.56-.1520218-.31026015-.13311748-.6770154.04999849-.97000095.18311596-.29298554.50449969-.47069116.85000151-.46999905h32.54c.3470947-.00466451.6714293.17225911.8554058.4666214.1839764.29436228.2008847.66342737.0445942.9733786-2.3690701 4.84522615-2.7878759 10.4149842-1.17 15.56 1.1 3.66 2.51 7.19 3.86 10.76.04.11.08.22.11.33z" fill="#ffe0b2"/><path id="Shape" d="m43.4 33.79c-.74.44-1.66.95-2.82 1.55-1.46.76-3.29 1.64-5.58 2.66-9 4-13 10-13 10s-4-6-13-10c-2.87768517-1.242659-5.68223009-2.6482702-8.4-4.21.26707417-1.9465216.74660159-3.8579246 1.43-5.7 2.16 1.97 7.97 5.91 19.97 5.91 8.93 0 14.44-2.18 17.56-4.12.8611695-.5145754 1.6685452-1.1142445 2.41-1.79.6833984 1.8420754 1.1629258 3.7534784 1.43 5.7z" fill="#9d27b0"/><path id="Shape" d="m22 48v9.99h-15.41c-.355637-.0003249-.68537595-.1860399-.87-.49-4.35530166-7.0903192-6.16144047-15.454294-5.12-23.71 2.71776991 1.5617298 5.52231483 2.967341 8.4 4.21 9 4 13 10 13 10z" fill="#ffe0b2"/><path id="Shape" d="m38.28 57.5c-.1809725.3077071-.5130515.4947401-.87.49l-15.41.000088v-9.990088s4-6 13-10c2.8776852-1.242659 5.6822301-2.6482702 8.4-4.21 1.0414405 8.255706-.7646983 16.6196808-5.12 23.71z" fill="#ffe0b2"/><path id="Shape" d="m41.97 28.09c-.7414548.6757555-1.5488305 1.2754246-2.41 1.79-.17-.6-.37-1.2-.59-1.79-.03-.11-.07-.22-.11-.33-1.35-3.57-2.76-7.1-3.86-10.76-1.6178759-5.1450158-1.1990701-10.71477385 1.17-15.56.1562905-.30995123.1393822-.67901632-.0445942-.9733786-.1839765-.29436229-.5083111-.47128591-.8554058-.4666214h3c.3470947-.00466451.6714293.17225911.8554058.4666214.1839764.29436228.2008847.66342737.0445942.9733786-2.3690701 4.84522615-2.7878759 10.4149842-1.17 15.56 1.1 3.66 2.51 7.19 3.86 10.76.04.11.08.22.11.33z" fill="#dfc49c"/><path id="Shape" d="m38.28 57.5c-.1809725.3077071-.5130515.4947401-.87.49l-3 .000088c.3569485.0046521.6890275-.1823809.87-.490088 4.0589376-6.6430962 5.9139823-14.3992831 5.3-22.16 1.16-.6 2.08-1.11 2.82-1.55 1.0414405 8.255706-.7646983 16.6196808-5.12 23.71z" fill="#dfc49c"/><path id="Shape" d="m43.4 33.79c-.74.44-1.66.95-2.82 1.55-.04-.52-.11-1.03-.18-1.55-.1798935-1.322845-.4607127-2.6299915-.84-3.91.8611695-.5145754 1.6685452-1.1142445 2.41-1.79.6833984 1.8420754 1.1629258 3.7534784 1.43 5.7z" fill="#6a1b9a"/><ellipse id="Oval" cx="22" cy="20.5" fill="#dfc49c" rx="2" ry="2.5"/></g><g id="Layer_2" fill="#000"><path id="Shape" d="m5.424 19.654c-.893 2.694-3.375 9.21-3.338 9.109-3.223 8.89-2.126 20.469 3.782 30.258.36633983.5996893 1.01826818.9656177 1.721.966h30.825c.7026297-.0007721 1.3543805-.3666009 1.721-.966 6.1-10.105 6.959-21.894 3.66-30.615-1.165-3.061-2.284-5.939-3.216-8.753 3.583-1.235 5.421-2.795 5.421-4.653 0-2.086-2.378-3.849-6.884-5.12.2030183-2.43194278.8639565-4.8035847 1.948-6.99.3078998-.61962527.2736646-1.35437978-.0905178-1.94269003-.3641823-.58831026-1.0065738-.94659709-1.6984822-.94730997h-32.547c-.69208634.00036715-1.33479543.35851525-1.69921848.94688544-.36442306.58837018-.39876008 1.32333005-.09078152 1.94311456 1.08453208 2.18587344 1.74550022 4.55728325 1.948 6.989-4.508 1.272-6.886 3.034-6.886 5.121 0 1.858 1.838 3.419 5.424 4.654zm37.067 11.127c.3445712 1.1444184.6151304 2.3098271.81 3.489-2.015 1.152-4.6 2.433-7.707 3.816-4.8504828 2.0864563-9.1586357 5.2561676-12.594 9.266-3.4351757-4.0096049-7.7429487-7.1792884-12.593-9.266-3.107-1.386-5.691-2.663-7.707-3.815.19523559-1.1787714.46578969-2.3438242.81-3.488 3.027 2.28 8.966 5.217 19.49 5.217s16.466-2.938 19.491-5.219zm-34.911 27.206c-3.94617097-6.4693271-5.74789036-14.0198892-5.148-21.574 1.955 1.077 4.351 2.25 7.162 3.5 4.8474571 2.0666397 9.1091081 5.2991188 12.406 9.41v8.664zm30.834 0h-14.414v-8.664c3.2972329-4.1107069 7.5592469-7.3428572 12.407-9.409 2.811-1.251 5.207-2.425 7.163-3.5.5994236 7.5548031-1.2052587 15.1056974-5.156 21.573zm5.586-42.987c0 .654-1.091 1.729-4.028 2.75-.5746832-1.8813435-.8859751-3.8332283-.925-5.8 3.399 1.026 4.953 2.237 4.953 3.05zm-37.276-13h32.554c-2.4940302 5.08579932-2.9303092 10.9375983-1.218 16.337-1.7444818.4482689-3.5143432.7912213-5.3 1.027l2.912-2.621c.3974323-.3723215.4238692-.9942086.059469-1.3989162s-.985644-.4434206-1.397469-.0870838l-5 4.5c-.2514711.2423239-.3688636.5921188-.3144895.9370855.0543741.3449668.2736719.6416921.5874895.7949145 5.193 4.679 4.871 4.511 5.393 4.511.4139182-.0001206.784982-.2552355.9333025-.641667s.0432388-.8243011-.2643025-1.101333l-3.16-2.844c2.0765329-.2534193 4.1340257-.6439387 6.159-1.169.937 2.832 2.011 5.6 3.129 8.535-8.543 7-29.051 7-37.592 0 1.108-2.912 2.19-5.695 3.129-8.535 2.02445281.5241381 4.0812412.9143166 6.157 1.168l-3.16 2.844c-.3083099.27689-.41390044.7152492-.2654834 1.1021542.1484171.3869049.5200887.6421859.9344834.6418458.533 0 .322.055 5.669-4.757.2105167-.1896326.3307086-.4596666.3307086-.743s-.1201919-.5533674-.3307086-.743l-5-4.5c-.411825-.3563368-1.0330688-.3176238-1.397469.0870838-.36440022.4047076-.33796333 1.0265947.059469 1.3989162l2.912 2.621c-1.7858136-.2348144-3.55573291-.577778-5.3-1.027 1.713986-5.3992969 1.27729196-11.25185681-1.219-16.337zm.232 9.952c-.03934927 1.9668185-.35097794 3.9187044-.926 5.8-2.938-1.022-4.03-2.098-4.03-2.752 0-.813 1.555-2.024 4.956-3.053z"/><path id="Shape" d="m23 25c1.7886565-.1503745 3.1249538-1.7093881 3-3.5.1249538-1.7906119-1.2113435-3.3496255-3-3.5-1.7886565.1503745-3.1249538 1.7093881-3 3.5-.1249538 1.7906119 1.2113435 3.3496255 3 3.5zm0-5c.533 0 1 .7 1 1.5s-.467 1.5-1 1.5-1-.7-1-1.5.467-1.5 1-1.5z"/></g></g></svg>