<svg height="512" viewBox="0 0 60 60" width="512" xmlns="http://www.w3.org/2000/svg"><g id="005---Leg-Hair" fill="none"><g id="Layer_3" transform="translate(1)"><path id="Shape" d="m58 15.57c0 .17 0 .34-.01.51l-.5-.01-5.5-.03c.010001.1665166.010001.3334834 0 .5.0908837 3.1043189-1.5185068 6.0110897-4.1977439 7.5816769s-6.0017677 1.5549426-8.6660957-.0408056c-2.6643279-1.5957483-4.2462738-4.5175459-4.1261604-7.6208713l.01-.5-5.5-.03-.5.01c-.01-.16-.01-.34-.01-.51.0386599-8.00812887 6.5618711-14.46865993 14.57-14.43s14.4686599 6.56187113 14.43 14.57z" fill="#02a9f4"/><path id="Shape" d="m43.57 1c-.5227298-.00166402-1.0451647.02504191-1.565.08 7.4114319.77334934 13.0300994 7.03841221 12.995 14.49 0 .162 0 .324-.01.486l2.5.014.5.01c.01-.17.01-.34.01-.51.01861-3.8456526-1.4912449-7.54118531-4.1974045-10.2736001-2.7061596-2.7324148-6.3869424-4.27787949-10.2325955-4.2963999z" fill="#0377bc"/><path id="Shape" d="m57.99 16.08c-.3248444 7.7936182-6.7571744 13.9336657-14.5574685 13.8959831-7.8002942-.0376826-14.1730011-6.2395901-14.4225315-14.0359831l.5-.01 5.5.03-.01.5c-.1201134 3.1033254 1.4618325 6.025123 4.1261604 7.6208713 2.664328 1.5957482 5.9868586 1.6113928 8.6660957.0408056s4.2886276-4.477358 4.1977439-7.5816769c.010001-.1665166.010001-.3334834 0-.5l5.5.03z" fill="#ffe0b2"/><path id="Shape" d="m57.49 16.07-5.5-.03v.016l2.5.014.5.01c-.2901181 7.2067733-5.8330722 13.1046844-13.008 13.841.4786667.0526667.9613333.079 1.448.079 7.8102121.0385654 14.2476829-6.1159397 14.56-13.92z" fill="#dfc49c"/><path id="Shape" d="m1.908 33.64c3.927-8.42 7.082-14.23 7.082-14.23s.28 8.22 4.65 13.05 10.53 9.41 11.82 11.96-.24 4.63-.75 7.46.02 6.42 4.37 4.84c4.15-1.51 9.06-.93 13.1.61 1.81.68 3.59 1.67 5.57 1.67 1.02 0 2.73-.17 3.19-1.3.95-2.3-2.067-3.935-3.66-4.87-.6-.352-1.221-.7-1.84-1.04-4.456-2.459-9.26-4.77-12.48-8.76-1.4092498-2.0148078-2.4768835-4.2480543-3.16-6.61-4.65-13.05-3.89-14.09-6.46-19.2s-4.13-9.46-5.42-12.02c-1.19-2.371-5.12-8.374-16.729.517-.74751235.57084302-1.18754743 1.45645519-1.191 2.397v25.109c.00092258.4692719.32803302.874778.78648443.9749741.45845142.1001961.92490623-.1318735 1.12151557-.5579741z" fill="#ffe0b2"/><g fill="#dfc49c"><path id="Shape" d="m26.08 56.72c-.066.024-.123.036-.187.057 1.0167481.4617277 2.1874131.4407902 3.187-.057 1.2580159-.4421902 2.5697594-.7132839 3.9-.806-2.3311843-.2289794-4.6843519.0458979-6.9.806z"/><path id="Shape" d="m5.99 19.41s-2.59 4.769-5.99 11.915v1.9c.00092258.4692719.32803302.874778.78648443.9749741.45845142.1001961.92490623-.1318735 1.12151557-.5579741 1.824-3.91 3.475-7.245 4.727-9.709-.34061869-1.4870671-.55636945-2.9999983-.645-4.523z"/><path id="Shape" d="m47.28 52.83c-.6-.352-1.221-.7-1.84-1.04-4.456-2.459-9.26-4.77-12.48-8.76-1.4092498-2.0148078-2.4768835-4.2480543-3.16-6.61-4.65-13.05-3.89-14.09-6.46-19.2s-4.13-9.46-5.42-12.02c-1.2785196-3.06110943-4.5682686-4.76456389-7.806-4.042 2.1435809.52628926 3.9200557 2.02036151 4.806 4.042 1.29 2.56 2.84 6.91 5.42 12.02s1.81 6.15 6.46 19.2c.6831165 2.3619457 1.7507502 4.5951922 3.16 6.61 3.22 3.99 8.024 6.3 12.48 8.76.619.342 1.241.688 1.84 1.04 1.593.935 4.61 2.57 3.66 4.87-.3296036.6224846-.9413056 1.0458272-1.64 1.135.4760021.1069319.9621426.1622514 1.45.165 1.02 0 2.73-.17 3.19-1.3.95-2.3-2.067-3.935-3.66-4.87z"/></g><path id="Shape" d="m48 16.522c-.0078598 1.6076952-.8728177 3.0890736-2.2690525 3.8861144s-3.1116252.7886544-4.5000001-.022-2.2388073-2.3004192-2.2309474-3.9081144c.027-5.5 8.667-12.868 8.052-10.46-2.045 7.989.955 8.019.948 10.504z" fill="#607d8b"/><path id="Shape" d="m47.047 6.018c.289-1.132-1.464-.1-3.407 1.871-1.127 6.122 1.366 6.362 1.355 8.633-.0144188 1.8925021-1.2144717 3.5725761-3 4.2 1.3706288.5068072 2.9026608.309197 4.0998266-.5288191 1.1971659-.8380161 1.9072267-2.2098708 1.9001734-3.6711809.012-2.485-2.988-2.515-.948-10.504z" fill="#37474f"/></g><g id="Layer_2" fill="#000"><path id="Shape" d="m44.5 31c8.5604136 0 15.5-6.9395864 15.5-15.5 0-8.56041362-6.9395864-15.5-15.5-15.5s-15.5 6.93958638-15.5 15.5c.0093692 8.5565298 6.9434702 15.4906308 15.5 15.5zm0-2c-6.8707505-.0099659-12.6409087-5.1726484-13.412-12h3.925c.2642894 5.0467155 4.433369 9.0031791 9.487 9.0031791s9.2227106-3.9564636 9.487-9.0031791h3.925c-.7706601 6.8275743-6.541076 11.9904874-13.412 12zm0-27c7.2539239.01155748 13.2032418 5.75115922 13.475 13h-4.985c-.2755784-.0004639-.5391332.1128168-.7284299.3130927s-.2875541.4697925-.2715701.7449073c.1358952 2.7685183-1.2662604 5.3862685-3.6461826 6.8072299-2.3799222 1.4209613-5.349535 1.4134283-7.7222175-.0195891s-3.7615391-4.0578476-3.6115999-6.8256408c.0053744-.2686646-.0976051-.5281869-.2857271-.7200714-.1881221-.1918845-.4455545-.2999823-.7142729-.2999286h-4.985c.2717582-7.24884078 6.2210761-12.98844252 13.475-13z"/><path id="Shape" d="m3.814 34.062c2.252-4.828 4.263-8.819 5.556-11.323.515 2.961 1.721 7.289 4.53 10.391 1.95 2.16 4.258 4.273 6.294 6.138 6.056 5.546 6.449 5.921 5.188 9.96-.2711678.8111229-.4899516 1.638827-.655 2.478-.809 4.577 1.252 7.57 5.7 5.954 3.518-1.28 8.037-1.059 12.407.606 1.827.689 3.703 1.734 5.916 1.734 2.756 0 3.76-1.045 4.115-1.918 2.416-5.856-11.8-7.837-18.126-15.679-1.3362188-1.9296152-2.3494654-4.0638503-3-6.319-4.65-13.049-3.874-14.076-6.51-19.314-2.372-4.706-4.229-9.67-5.416-12.019-.9775387-2.25956814-2.948413-3.93748961-5.335-4.542-3.446-.791-7.778.791-12.895 4.714-.99245144.76187093-1.57682795 1.9398529-1.583 3.191v25.109c.00152649.9377787.6544312 1.7485672 1.57031286 1.950042.91588167.2014748 1.84876195-.2604743 2.24368714-1.111042zm-1.814-25.948c.0053911-.62822973.30065088-1.21874928.8-1.6 4.619-3.539 8.4-5 11.23-4.353 3.266.751 4.312 4.038 5.756 7.448 4.565 10.778 4.2 7.964 6.122 14.789 1.14 4.054 2.074 7.086 4.051 12.643.7011385 2.369789 1.7905978 4.6068301 3.224 6.62 6.017 7.451 19.158 10.444 17.832 13.662-.168.411-1.057.677-2.265.677-2.972 0-6.451-3.16-13.329-3.16-1.9342123-.0189564-3.8569458.2991304-5.682.94-.811.3-1.9.539-2.5.036-.639-.537-.853-2.014-.545-3.759.489-2.721 2.159-5.11.658-8.089-1.375-2.718-7.724-7.476-11.97-12.179-4.067-4.5-4.39-12.335-4.392-12.414-.0152462-.4512305-.3309557-.8362794-.7704481-.9396619-.43949233-.1033824-.89374794.1005464-1.1085519.4976619-.031.058-3.211 5.936-7.111 14.287z"/><path id="Shape" d="m44.5 22c3.0361953-.0033068 5.4966932-2.4638047 5.5-5.5 0-3.041-2.967-2.506-1.03-10.257.3-1.206-.649-2.15-2.053-1.484-2.283 1.08-7.917 6.933-7.917 11.741.0033068 3.0361953 2.4638047 5.4966932 5.5 5.5zm2.184-14.7c-1.316 6.746 1.316 7.443 1.316 9.2 0 1.9329966-1.5670034 3.5-3.5 3.5s-3.5-1.5670034-3.5-3.5c0-3.27 3.613-7.469 5.684-9.2z"/></g></g></svg>