<svg height="512" viewBox="0 0 60 61" width="512" xmlns="http://www.w3.org/2000/svg"><g id="007---Citrus-Pipette-Drops" fill="none"><g id="Layer_3" transform="translate(1 1)"><path id="Shape" d="m10 25v30.67c-.00314737.3341542-.17169358.6450284-.45.83l-2 1.33c-.33059286.2300179-.76940714.2300179-1.1 0l-2-1.33c-.27830642-.1849716-.44685263-.4958458-.45-.83v-30.67z" fill="#02a9f4"/><path id="Shape" d="m7 25v30.67c-.00314737.3341542-.17169358.6450284-.45.83l-1.05.7.95.632c.33059286.2300179.76940714.2300179 1.1 0l2-1.33c.27830642-.1849716.44685263-.4958458.45-.83v-30.672z" fill="#0377bc"/><path id="Shape" d="m14 12.66.0000012 4.34h-14.00000244l.00000124-4.34c-.00083446-1.0611852.42004572-2.0792116 1.17-2.83l.66-.66c.74995428-.75078842 1.17083446-1.76881482 1.17-2.83v-2.34c0-2.209139 1.790861-4 4-4s4 1.790861 4 4v2.34c-.0008345 1.06118518.4200457 2.07921158 1.17 2.83l.66.66c.7499543.7507884 1.1708345 1.7688148 1.17 2.83z" fill="#ff9801"/><path id="Shape" d="m12.83 9.83-.66-.66c-.7499543-.75078842-1.1708345-1.76881482-1.17-2.83v-2.34c.0012617-1.33016206-.6600915-2.57357133-1.76375685-3.31603712-1.10366536-.74246579-2.50463864-.88643975-3.73624315-.38396288 1.50826659.61011999 2.49670429 2.07300779 2.5 3.7v2.34c-.00083446 1.06118518.42004572 2.07921158 1.17 2.83l.66.66c.7499543.7507884 1.1708345 1.7688148 1.17 2.83v4.34h3.0000012l-.0000012-4.34c.0008345-1.0611852-.4200457-2.0792116-1.17-2.83z" fill="#f57c00"/><path id="Shape" d="m14 17v6c-.0032948 1.1032019-.8967981 1.9967052-2 2h-10c-1.10320187-.0032948-1.9967052-.8967981-2-2v-6z" fill="#ffdc00"/><path id="Shape" d="m11 17v6c-.0032948 1.1032019-.8967981 1.9967052-2 2h3c1.1032019-.0032948 1.9967052-.8967981 2-2v-6z" fill="#fec108"/><path id="Shape" d="m43 16v8h-25v-8c0-2.209139 1.790861-4 4-4h17c2.209139 0 4 1.790861 4 4z" fill="#ffdc00"/><path id="Shape" d="m39 12h-3c2.209139 0 4 1.790861 4 4v8h3v-8c0-2.209139-1.790861-4-4-4z" fill="#fec108"/><path id="Shape" d="m43 24v4c-4.5048405-.0009195-8.7715761 2.0228374-11.6210435 5.5119811-2.8494674 3.4891438-3.9799247 8.0741946-3.0789565 12.4880189h-10.3v-22z" fill="#02a9f4"/><path id="Shape" d="m40 24v4c-4.5048405-.0009195-8.7715761 2.0228374-11.6210435 5.5119811-2.8494674 3.4891438-3.9799247 8.0741946-3.0789565 12.4880189h3c-.9009682-4.4138243.2294891-8.9988751 3.0789565-12.4880189 2.8494674-3.4891437 7.116203-5.5129006 11.6210435-5.5119811v-4z" fill="#0377bc"/><path id="Shape" d="m40.35 57.76c-.4317245.1611974-.88917.242521-1.35.24h-17c-2.209139 0-4-1.790861-4-4v-8h10.3c.993624 4.8853548 4.3523855 8.9563537 8.96 10.86.9934119.4137334 2.0297942.7155923 3.09.9z" fill="#ffdc00"/><path id="Shape" d="m37.26 56.86c-4.6076145-1.9036463-7.966376-5.9746452-8.96-10.86h-3c.993624 4.8853548 4.3523855 8.9563537 8.96 10.86.9934119.4137334 2.0297942.7155923 3.09.9-.4317245.1611974-.88917.242521-1.35.24h3c.46083.002521.9182755-.0788026 1.35-.24-1.0602058-.1844077-2.0965881-.4862666-3.09-.9z" fill="#fec108"/><path id="Rectangle-path" d="m22 7h17v5h-17z" fill="#ff9801"/><path id="Rectangle-path" d="m36 7h3v5h-3z" fill="#f57c00"/><rect id="Rectangle-path" fill="#f5f5f5" height="7" rx="2" width="21" x="20"/><path id="Shape" d="m39 0h-3c1.1032019.0032948 1.9967052.89679813 2 2v3c-.0032948 1.10320187-.8967981 1.9967052-2 2h3c1.1032019-.0032948 1.9967052-.89679813 2-2v-3c-.0032948-1.10320187-.8967981-1.9967052-2-2z" fill="#cfd8dc"/><path id="Shape" d="m56.85 48.74c-2.698771 6.508881-9.5641157 10.2619361-16.5 9.02-1.0602058-.1844077-2.0965881-.4862666-3.09-.9-6.6137856-2.7370791-10.3722231-9.7657857-8.9759531-16.7860558 1.3962699-7.0202701 7.558177-12.0759075 14.7159531-12.0739442 1.9702302-.0067789 3.9218914.3808332 5.74 1.14 7.6514267 3.173354 11.2821995 11.9480946 8.11 19.6z" fill="#ff9801"/><path id="Shape" d="m48.736 29.142c-2.2913763-.9530462-4.784302-1.3194406-7.253-1.066 7.6619906.7674645 13.4982903 7.211919 13.5049979 14.9122474.0067076 7.7003283-5.818356 14.1549408-13.4789979 14.9357526 7.3981799.7332098 14.2171986-4.0632638 16.0277377-11.273854 1.810539-7.2105902-1.9337445-14.6594503-8.8007377-17.508146z" fill="#f57c00"/><path id="Shape" d="m38.788 53.161c-4.1106902-1.7025827-6.7909012-5.7138531-6.7907373-10.1631858s2.6806706-8.4604055 6.7914862-10.1626853c4.1108156-1.7022799 8.8422908-.7604927 11.9879384 2.3861662 3.1456476 3.146659 4.0859139 7.8784367 2.3823127 11.9887049-2.3311731 5.6057059-8.7592366 8.2675531-14.371 5.951z" fill="#ffdc00"/><path id="Shape" d="m47.208 32.839c-1.803348-.7460851-3.7736537-.9953947-5.706-.722 5.4411886.7453084 9.4956521 5.394932 9.4933812 10.8869273s-4.0605782 10.1382643-9.5023812 10.8790727c5.478828.7604475 10.6692958-2.6688235 12.1189587-8.00683 1.449663-5.3380066-1.2931091-10.921738-6.4039587-13.03717z" fill="#fec108"/><path id="Shape" d="m45.769 44.149c-.6334198 1.5306772-2.3876082 2.2582398-3.9184441 1.6252035s-2.2588379-2.3870423-1.6261851-3.9180368c.6326527-1.5309944 2.3864763-2.2594358 3.9176292-1.6271667.7357769.3038293 1.3206332.8876308 1.6257901 1.6228582.3051568.7352273.3055921 1.5615934.0012099 2.2971418z" fill="#ff9801"/></g><g id="Layer_2" fill="#000"><path id="Shape" d="m3 27h1v29.67c.00406561.669692.34156983 1.2933249.9 1.663l1.979 1.317c.66736195.4648358 1.55225201.4700059 2.225.013l2.006-1.335c.5543746-.3698678.8880986-.9915694.89-1.658v-29.67h1c1.6568542 0 3-1.3431458 3-3v-10.343c.003077-1.3264442-.5239972-2.5991269-1.464-3.535-1.748-1.749-1.536-1.713-1.536-5.122 0-2.76142375-2.2385763-5-5-5-2.76142375 0-5 2.23857625-5 5 0 3.257.26 3.323-1.535 5.122-.94074695.9354554-1.46825795 2.2083233-1.465 3.535v10.343c0 1.6568542 1.34314575 3 3 3zm7 29.667-2 1.333-2-1.33v-1.67h1c.55228475 0 1-.4477153 1-1s-.44771525-1-1-1h-1v-2h1c.55228475 0 1-.4477153 1-1s-.44771525-1-1-1h-1v-2h1c.55228475 0 1-.4477153 1-1s-.44771525-1-1-1h-1v-2h1c.55228475 0 1-.4477153 1-1s-.44771525-1-1-1h-1v-14h4zm-6.465-45.789c.94074695-.93545545 1.46825795-2.20832329 1.465-3.535v-2.343c0-1.65685425 1.34314575-3 3-3s3 1.34314575 3 3v2.343c-.003077 1.32644423.5239972 2.59912688 1.464 3.535 1.816 1.822 1.536 1.629 1.536 6.122h-2c-.5522847 0-1 .4477153-1 1s.4477153 1 1 1h2v5c0 .5522847-.4477153 1-1 1h-10c-.55228475 0-1-.4477153-1-1v-5h6c.55228475 0 1-.4477153 1-1s-.44771525-1-1-1h-6c0-4.525-.258-4.324 1.535-6.122z"/><path id="Shape" d="m23 60c18.557 0 17.389.089 18.414-.225 5.8260842.9592898 11.7065413-1.3709906 15.2940792-6.0606671 3.5875379-4.6896764 4.2979035-10.9750056 1.8475414-16.3470833-2.4503622-5.3720777-7.6623952-8.9560273-13.5556206-9.3212496v-11.046c-.0029983-2.3751008-1.6735832-4.4215673-4-4.9v-3.284c1.1943509-.42225455 1.9947486-1.54921457 2-2.816v-3c0-1.65685425-1.3431458-3-3-3h-17c-1.6568542 0-3 1.34314575-3 3v3c.0052514 1.26678543.8056491 2.39374545 2 2.816v3.284c-2.3264168.4784327-3.9970017 2.5248992-4 4.9v38c.0033061 2.7600532 2.2399468 4.9966939 5 5zm5.138-14h-8.138v-20h23v2.051c-4.4078626.2674605-8.5078043 2.3496014-11.3241448 5.7509266-2.8163406 3.4013253-4.097232 7.8176756-3.5378552 12.1980734zm-8.138 9v-7h8.529c1.0942879 4.254495 3.891357 7.8710829 7.734 10h-13.263c-.7956495 0-1.5587112-.3160705-2.1213203-.8786797-.5626092-.5626091-.8786797-1.3256708-.8786797-2.1213203zm36.931-5.643c-2.9588947 7.1433863-11.148391 10.5356119-18.2917979 7.576767-7.143407-2.9588449-10.5356896-11.1483176-7.5768944-18.2917451 2.9587951-7.1434276 11.1482441-10.5357673 18.2916923-7.5770219 7.1364165 2.9659721 10.5258125 11.148476 7.577 18.292zm-32.931-37.357v-3h15v3zm-2-9c0-.55228475.4477153-1 1-1h17c.5522847 0 1 .44771525 1 1v3c0 .55228475-.4477153 1-1 1h-17c-.5522847 0-1-.44771525-1-1zm1 11h17c1.6568542 0 3 1.3431458 3 3v7h-23v-7c0-1.6568542 1.3431458-3 3-3z"/><path id="Shape" d="m39.422 32.913h-.015l-.012.008c-6.1452217 2.5122985-9.0921392 9.5290568-6.5835656 15.6758001 2.5085735 6.1467432 9.5235445 9.0979128 15.671807 6.5930652 6.1482625-2.5048477 9.1036832-9.5180288 6.6025623-15.6678083s-9.5125094-9.1094502-15.6638037-6.612057zm-.154 2.28 2.332 5.623c-.297267.2223566-.5612641.486017-.784.783l-5.627-2.331c.925245-1.7329516 2.3451415-3.1514557 4.079-4.075zm4.725 6.807c.9529883-.0004796 1.7739436.6715116 1.9617745 1.6058063s-.3096425 1.8713432-1.1887745 2.2391937h-.013c-.4875071.2005842-1.0344929.2005842-1.522 0-.4887513-.2013136-.8765936-.589876-1.077-1.079l-.01-.016c-.2490519-.6156666-.1762421-1.3148058.1943234-1.8659442.3705654-.5511384.990546-.8823798 1.6546766-.8840558zm9.575-.883c.5723107 1.8797367.5723107 3.8872633 0 5.767l-5.628-2.33c.0535042-.3684008.0535042-.7425992 0-1.111zm-19.144 5.765c-.5741003-1.8788758-.5758409-3.8861314-.005-5.766l5.628 2.33c-.0519955.3685083-.0519955.7424917 0 1.111zm.767 1.848 5.626-2.33c.2218831.2948848.4841152.5571169.779.779l-2.33 5.627c-1.7323036-.9247397-3.1506854-2.3434695-4.075-4.076zm5.923 4.844 2.33-5.628c.3652383.0675221.7393826.0715815 1.106.012l2.332 5.612c-1.8796502.5738176-3.8875558.57521-5.768.004zm7.616-.77-2.33-5.617c.2979635-.222946.5629177-.4868902.787-.784l5.624 2.329c-.9271816 1.7304296-2.347621 3.1463442-4.081 4.068zm4.07-13.535-5.626 2.331c-.2219052-.2945747-.4841405-.5564734-.779-.778l2.335-5.628c1.7305279.9249724 3.1471529 2.3433378 4.07 4.075zm-5.92-4.843-2.335 5.627c-.3648784-.0512131-.7351216-.0512131-1.1 0l-2.328-5.623c1.8787189-.5732087 3.8854875-.5746011 5.765-.004z"/><path id="Shape" d="m23 18h1c.5522847 0 1-.4477153 1-1s-.4477153-1-1-1h-1c-.5522847 0-1 .4477153-1 1s.4477153 1 1 1z"/><path id="Shape" d="m28 18h12c.5522847 0 1-.4477153 1-1s-.4477153-1-1-1h-12c-.5522847 0-1 .4477153-1 1s.4477153 1 1 1z"/></g></g></svg>