<svg height="512" viewBox="0 0 57 61" width="512" xmlns="http://www.w3.org/2000/svg"><g id="008---Nail-Varnish" fill="none"><g id="Layer_3" transform="translate(0 1)"><path id="Shape" d="m18 41.5v15.5c-.0032948 1.1032019-.8967981 1.9967052-2 2h-13c-1.10320187-.0032948-1.9967052-.8967981-2-2v-15.5c-.05283387-3.1791797 1.43798393-6.1869046 4-8.07v8.57c0 1.6568542 1.34314575 3 3 3h3c1.6568542 0 3-1.3431458 3-3v-8.57c.5536775.3903041 1.0603747.8433115 1.51 1.35 1.6207658 1.8619635 2.5061717 4.2514927 2.49 6.72z" fill="#ffe0b2"/><path id="Shape" d="m15.51 34.78c-.4496253-.5066885-.9563225-.9596959-1.51-1.35v3.615c.6613892 1.3918445 1.0030644 2.9140077 1 4.455v15.5c-.0032948 1.1032019-.8967981 1.9967052-2 2h3c1.1032019-.0032948 1.9967052-.8967981 2-2v-15.5c.0161717-2.4685073-.8692342-4.8580365-2.49-6.72z" fill="#dfc49c"/><path id="Shape" d="m14 28v14c0 1.6568542-1.3431458 3-3 3h-3c-1.65685425 0-3-1.3431458-3-3v-14c0-.63.65-1.19 1.68-1.55l2.43 1.53c1.5060816.9543853 3.4630706.7909624 4.79-.4.0669168.1298127.1012376.2739601.1.42z" fill="#f5f5f5"/><path id="Shape" d="m13.9 27.58c-.7942865.7081533-1.8376888 1.0711853-2.9 1.009v13.411c0 1.6568542-1.34314575 3-3 3h3c1.6568542 0 3-1.3431458 3-3v-14c.0012376-.1460399-.0330832-.2901873-.1-.42z" fill="#cfd8dc"/><path id="Shape" d="m54.21 58.13c-.3612333.5572575-.9861135.8867398-1.65.87h-24.12c-.6638865.0167398-1.2887667-.3127425-1.65-.87-4.52-7.29 4.05-25.73 6.91-31.13h13.6c2.86 5.4 11.43 23.84 6.91 31.13z" fill="#9d27b0"/><path id="Shape" d="m47.3 27h-3c2.86 5.4 11.43 23.84 6.91 31.13-.3612333.5572575-.9861135.8867398-1.65.87h3c.6638865.0167398 1.2887667-.3127425 1.65-.87 4.52-7.29-4.05-25.73-6.91-31.13z" fill="#6a1b9a"/><path id="Shape" d="m50 10-.04.22-2.71 16.78h-13.5l-2.71-16.75v-.03l-.04-.22c0-1.66 3.15-4 9.5-4s9.5 2.34 9.5 4z" fill="#3f51b5"/><path id="Shape" d="m40.5 6c-.525 0-1.019.021-1.5.051 5.341.336 8 2.426 8 3.949l-.04.22-2.71 16.78h3l2.71-16.78.04-.22c0-1.66-3.15-4-9.5-4z" fill="#283593"/><path id="Shape" d="m50 10c.0013226.075255-.0122723.1500269-.04.22" fill="#3f51b5"/><path id="Shape" d="m31.04 10.22c-.0277277-.0699731-.0413226-.144745-.04-.22" fill="#3f51b5"/><path id="Shape" d="m50.61 46.33c-1.47-5.37-6.53-.33-11.39-.33-3.0235691-.062259-5.8374448-1.5582905-7.58-4.03-1.78 5.42-2.66 10.33-1.89 13.03h21.5c.56-1.95.344-5.074-.64-8.67z" fill="#4527a0"/><path id="Shape" d="m27.23 8.67-3.21 5.07c-.1407705.2254092-.3659418.3850619-.625235.4433089-.2592931.058247-.5311132.0102373-.754765-.1333089l-6.76-4.27c-.2254092-.14077051-.3850619-.36594179-.4433089-.62523495s-.0102373-.53111323.1333089-.75476505l3.2-5.07c.9538991-1.51123345 2.6415717-2.39877161 4.4272878-2.32828746s3.398183 1.0882824 4.23 2.67.7566113 3.48705401-.1972878 4.99828746z" fill="#3f51b5"/><path id="Shape" d="m25.67 1.77c-1.2424884-.77835928-2.7651724-.96864904-4.161-.52 1.489051.44741077 2.6804948 1.56988057 3.2158049 3.0296382.53531 1.45975763.3519866 3.08637051-.4948049 4.3903618l-2.887 4.56 1.3.82c.2236518.1435462.4954719.1915559.754765.1333089.2592932-.058247.4844645-.2178997.625235-.4433089l3.21-5.07c1.4723871-2.33723036.7728457-5.42541715-1.563-6.9z" fill="#283593"/><path id="Shape" d="m16.76 23.35-2.14 3.38c-.1960632.3178026-.4387736.6043357-.72.85-1.3269294 1.1909624-3.2839184 1.3543853-4.79.4l-2.43-1.53-4.09-2.6c1.84937554.990296 4.14961918.3835904 5.27-1.39l2.14-3.38c.8853993-1.4003376 2.7366888-1.8206787 4.14-.94l1.69 1.07c.6724028.4256047 1.1481581 1.1009263 1.3225737 1.8773566.1744155.7764304.0331991 1.590347-.3925737 2.2626434z" fill="#9e9e9e"/><path id="Shape" d="m15.83 19.21-1.69-1.07c-.943064-.587378-2.1335299-.605462-3.094-.047.03.018.064.028.094.047l1.69 1.07c.6724028.4256047 1.1481581 1.1009263 1.3225737 1.8773566.1744155.7764304.0331991 1.590347-.3925737 2.2626434l-2.14 3.38c-.1960632.3178026-.4387736.6043357-.72.85-.345439.30584-.7413055.5494502-1.17.72 1.4132731.5775731 3.0322286.2980412 4.17-.72.2812264-.2456643.5239368-.5321974.72-.85l2.14-3.38c.4257728-.6722964.5669892-1.486213.3925737-2.2626434-.1744156-.7764303-.6501709-1.4517519-1.3225737-1.8773566z" fill="#707070"/></g><g id="Layer_2" fill="#000" transform="translate(-1)"><path id="Shape" d="m4 61h13c1.6568542 0 3-1.3431458 3-3v-15.5c.0469956-3.3120268-1.4272003-6.4627518-4-8.549 0-6.076 0-4.767-.013-5.062.432-.493.2-.17 2.62-4 1.1800801-1.867301.6231484-4.3376783-1.244-5.518l3.206-5.071c2.665 1.685 2.841 1.913 3.6 1.913.6872973.0010411 1.3269836-.3508996 1.694-.932l3.206-5.071c1.1728264-1.81189475 1.282102-4.11409941.2861672-6.02893576-.9959348-1.91483636-2.9435917-3.14719994-5.1004581-3.22727211s-4.1905375 1.00448737-5.3257091 2.84020787l-3.208 5.072c-.2832582.44847917-.3767538.99111497-.2599182 1.5085299.1168356.517415.4344316.9672236.8829182 1.2504701l2.535 1.6-3.206 5.075c-.8966768-.5671066-1.9819237-.7547464-3.0169588-.5216337-1.0350352.2331126-1.9350582.8678787-2.5020412 1.7646337l-2.137 3.381c-.42511477.6726208-1.1000306 1.1488018-1.87625563 1.3237759-.77622504.1749742-1.59016636.0344065-2.26274437-.3907759-.30224669-.1906012-.68321869-.2054773-.99940752-.0390246s-.51955789.4889461-.53350001.846c-.01394213.357054.16366082.6944234.46590753.8850246l2.952 1.866c-.46830919.3956731-.74582196.9721577-.763 1.585v4.953c-2.57116355 2.0866563-4.04503903 5.2359597-4 8.547v15.5c0 1.6568542 1.34314575 3 3 3zm16.619-56.137c1.1951107-1.8312104 3.6392386-2.36333158 5.4874579-1.19469712 1.8482194 1.16863446 2.4154583 3.60485166 1.2735421 5.46969712l-3.2 5.072-6.769-4.275zm-10.911 19.13 2.138-3.381c.5899646-.9305145 1.8213824-1.2086342 2.754-.622l1.7 1.069c.9335742.5901608 1.2120401 1.8253495.622 2.759-2.128 3.364-2.183 3.553-2.674 4-.9887581.9109656-2.4672604 1.0411559-3.6.317l-3.387-2.135c1.01268011-.384298 1.87198341-1.0890883 2.447-2.007zm-.137 5.829c1.320383.8490727 2.9686556 1.0109599 4.429.435v12.743c0 1.1045695-.8954305 2-2 2h-3c-1.1045695 0-2-.8954305-2-2v-13.98c.14868471-.2048234.35467095-.3610529.592-.449zm-6.571 12.678c-.01975-2.0996436.68680363-4.1415835 2-5.78v6.28c0 2.209139 1.790861 4 4 4h3c2.209139 0 4-1.790861 4-4v-6.261c1.30877 1.6335087 2.0150386 3.6679153 2 5.761v15.5c0 .5522847-.4477153 1-1 1h-13c-.55228475 0-1-.4477153-1-1z"/><path id="Shape" d="m6 55h9c.5522847 0 1-.4477153 1-1s-.4477153-1-1-1h-9c-.55228475 0-1 .4477153-1 1s.44771525 1 1 1z"/><path id="Shape" d="m33.7 27.757c-3.948 7.536-11.281 24.609-6.756 31.9.5479365.8467091 1.4915168 1.3536004 2.5 1.343h24.112c1.0075126.0116934 1.9508834-.4931987 2.5-1.338 4.523-7.293-2.823-24.4-6.756-31.9 2.974-18.376 2.7-16.624 2.7-16.787-.025-2.416-3.7-4.975-10.5-4.975s-10.475 2.559-10.5 4.975c0 .181-.113-.593 2.7 16.782zm20.66 30.851c-.182909.2579088-.4841036.4054942-.8.392h-24.116c-.3158964.0134942-.617091-.1340912-.8-.392-3.772-6.079 2.556-21.708 6.661-29.608h12.395c4.1 7.9 10.428 23.529 6.658 29.608zm-12.86-50.608c5.841 0 8.388 2.053 8.5 2.942-1.08 6.62-.568 3.516-2.6 16.058h-7.532l-1.878-13.142c-.0507317-.3536929-.2863027-.6534536-.6179756-.7863651-.3316729-.1329116-.7090588-.0787815-.99.142-.2809412.2207814-.4227561.5746722-.3720244.9283651l1.837 12.858h-2.247l-2.6-16.058c.112-.889 2.659-2.942 8.5-2.942z"/><path id="Shape" d="m40.22 46c-3.133 0-4.982-1.512-6.752-3.6-.217934-.3201326-.6011167-.4856497-.9835894-.4248651-.3824726.0607847-.695462.3369414-.8034106.7088651-1.41 4.3-2.877 10.134-1.893 13.589.1220689.4301537.5148613.7269937.962.727h21.5c.4459288-.0000703.8379236-.2953921.961-.724.622-2.169.4-5.439-.636-9.21-.2212166-1.1859454-.9432226-2.2188405-1.981-2.834-2.794-1.45-6.73 1.768-10.374 1.768zm9.453.007c.5237101.377411.8742003.9490737.973 1.587.752724 2.3916974 1.0246151 4.9087299.8 7.406h-19.886c-.317-2.176.216-5.728 1.507-10.054 1.8642523 1.9564011 4.4506126 3.0606573 7.153 3.054 3.795 0 7.82-2.837 9.453-1.993z"/></g></g></svg>