<svg height="512" viewBox="0 0 60 54" width="512" xmlns="http://www.w3.org/2000/svg"><g id="011---Eyelash-Gel" fill="none"><g id="Layer_3" transform="translate(1)"><path id="Shape" d="m43 33.74c-.0130482 6.0718846-3.6853392 11.5370003-9.302122 13.8434487-5.6167828 2.3064485-12.0700302.999235-16.3464429-3.3112461-4.2764127-4.3104812-5.5323794-10.773898-3.1814351-16.3722026 1.03-.52 2.1-1.02 3.2-1.46-.6031282 1.0990352-.4592691 2.4572182.3607132 3.4055172.8199824.948299 2.1431674 1.2867335 3.317763.848593 1.1745957-.4381405 1.9528993-1.5604595 1.9515238-2.8141102.0018902-1.2076371-.7245311-2.297269-1.84-2.76 6.5080337-1.9386449 13.4830041-1.5964233 19.77.97v.01c1.3607897 2.315736 2.0756197 4.9540457 2.07 7.64z" fill="#00bcd4"/><path id="Shape" d="m40.93 26.1v-.01c-3.6103302-1.4686839-7.4723816-2.2193553-11.37-2.21-.436 0-.866.028-1.3.049 3.3210021.1781274 6.5891009.9084647 9.67 2.161v.01c2.5877907 4.4309759 2.756818 9.8706911.4491198 14.4537837-2.3076981 4.5830926-6.7784326 7.6865753-11.8791198 8.2462163.494.049.994.076 1.5.076 5.3972726-.0503315 10.3595203-2.9704373 13.02424-7.6643008 2.6647196-4.6938635 2.6288141-10.4514351-.09424-15.1116992z" fill="#00838f"/><path id="Shape" d="m57.99 38.21c-.0630917.3954833-.3530454.7167833-.74.82-.47.13-.93.28-1.39.43-.31.1-.62.21-.92.32l-.33.12c-.34.13-.68.26-1.01.4-.8136708.3284932-1.6082547.7024151-2.38 1.12-.1817494.0833778-.3586925.1768572-.53.28-.36.2-.71.4-1.06.62-.08-.51-.13-1.01-.16-1.51-.1184109-2.9391218.5003754-5.861168 1.8-8.5 2.46 1.92 4.51 3.72 6.25 4.87.3494793.2176324.5346364.6234021.47 1.03z" fill="#ef314c"/><path id="Shape" d="m57.99 38.21c-.0630917.3954833-.3530454.7167833-.74.82-.47.13-.93.28-1.39.43-.31.1-.61.21-.92.32l-.33.12c-.34.12-.67.26-1.01.4-.8136708.3284932-1.6082547.7024151-2.38 1.12-.1817494.0833778-.3586925.1768572-.53.28-.36.2-.71.4-1.06.62-.08-.51-.13-1.01-.16-1.51 2.7049635-1.2594647 5.5727161-2.1346005 8.52-2.6z" fill="#bb193b"/><path id="Shape" d="m49.47 40.82c.0246765.5026427.0780972 1.0034614.16 1.5-.21.12-.42.25-.63.39-3.45 2.27-6.07 5.53-9.72 7.52-1.7291468.9419199-3.575102 1.6513854-5.49 2.11-2.1048052.5014887-4.2676394.716763-6.43.64-.25 0-.5-.02-.74-.03-6.0516131-.4837558-11.8922233-2.4443604-17.01-5.71-3.08360586-1.9374959-6.03662826-4.0754307-8.84-6.4-.45784142-.3680916-.73625899-.9145293-.76492808-1.5012902-.0286691-.5867608.19515165-1.1577378.61492808-1.5687098 4.00514647-3.9402937 8.57125513-7.2663079 13.55-9.87-2.7313759 6.507366-.5571636 14.0386073 5.2221571 18.0889997 5.7793208 4.0503923 13.6004479 3.5243075 18.7852653-1.2635829 5.1848175-4.7878905 6.3308358-12.5424656 2.7525776-18.6254168 3.7181866 1.580055 7.1982646 3.6701212 10.34 6.21-1.2994445 2.6424637-1.9181756 5.5676871-1.8 8.51z" fill="#f5f5f5"/><path id="Shape" d="m49.63 42.32c-.21.12-.42.25-.63.39-3.45 2.27-6.07 5.53-9.72 7.52-1.7291468.9419199-3.575102 1.6513854-5.49 2.11-2.1065278.4911658-4.2679854.7063031-6.43.64-.25 0-.5-.02-.74-.03 3.3815424-.1810426 6.6808063-1.1100279 9.66-2.72 3.65-1.99 6.27-5.25 9.72-7.52 1.1142897-.7048672 2.2734229-1.3362107 3.47-1.89.0246765.5026427.0780972 1.0034614.16 1.5z" fill="#cfd8dc"/><circle id="Oval" cx="29" cy="33.878" fill="#607d8b" r="4"/><path id="Shape" d="m23 27.88c.0013755 1.2536507-.7769281 2.3759697-1.9515238 2.8141102-1.1745956.4381405-2.4977806.099706-3.317763-.848593-.8199823-.948299-.9638414-2.306482-.3607132-3.4055172v-.01c1.2380133-.506743 2.503309-.944088 3.79-1.31 1.1154689.462731 1.8418902 1.5523629 1.84 2.76z" fill="#f5f5f5"/><path id="Shape" d="m58 7c0 6-17.686 6-21 6-1.0234707.0725163-1.914964-.6914934-2-1.714v-8.572c.085036-1.0225066.9765293-1.78651633 2-1.714 3.314 0 21 0 21 6z" fill="#9d27b0"/><path id="Shape" d="m37 1c-.1071995.00165985-.2141413.01101726-.32.028 6 .136 18.32.963 18.32 5.972s-12.32 5.836-18.32 5.972c.1058587.0169827.2128005.0263401.32.028 3.314 0 21 0 21-6s-17.686-6-21-6z" fill="#6a1b9a"/><path id="Shape" d="m14 7c0 1.65685425-1.3431458 3-3 3h-8c-1.65685425 0-3-1.34314575-3-3s1.34314575-3 3-3h8c1.6568542 0 3 1.34314575 3 3z" fill="#607d8b"/><path id="Shape" d="m11 4h-3c1.65685425 0 3 1.34314575 3 3s-1.34314575 3-3 3h3c1.6568542 0 3-1.34314575 3-3s-1.3431458-3-3-3z" fill="#37474f"/></g><g id="Layer_2" fill="#000" transform="translate(0 -1)"><path id="Shape" d="m30 39.878c2.7614237 0 5-2.2385763 5-5s-2.2385763-5-5-5-5 2.2385763-5 5c.0033061 2.7600532 2.2399468 4.9966939 5 5zm0-8c1.6568542 0 3 1.3431458 3 3s-1.3431458 3-3 3-3-1.3431458-3-3 1.3431458-3 3-3z"/><path id="Shape" d="m2 21c0-.5522847-.44771525-1-1-1s-1 .4477153-1 1c0 6.418 2.607 10.526 7.24 11.666-2.22719774 1.6496507-4.33911312 3.4495064-6.321 5.387-.62387868.6117091-.95661417 1.4608702-.91439223 2.3335843s.45537646 1.6857891 1.13539223 2.2344157c8.143 6.602 17.082 12.379 27.899 12.379 4.0861131.0379566 8.1156586-.9564451 11.715-2.891 6.153-3.351 7.489-8.175 17.769-11.116.7666736-.2154788 1.335865-.8603228 1.4544959-1.6478164.1186309-.7874937-.2353276-1.5714043-.9044959-2.0031836-3.692-2.429-8.78-7.874-16.592-11.085-.0922888-.0584072-.1936832-.1009929-.3-.126-4.1689017-1.6870912-8.6566919-2.440745-13.148-2.208-5.046-.687-5.044-4.161-5.038-6.7v-.223c0-.5522847-.4477153-1-1-1s-1 .4477153-1 1c0 2.941.271 5.661 2.774 7.456-.75.146-1.4896667.3166667-2.219.512-4.34-.236-6.55-2.575-6.55-6.968 0-.5522847-.4477153-1-1-1s-1 .4477153-1 1c0 4.04 1.715 6.878 4.812 8.183-1.339.513-2.631 1.09-3.871 1.711-5.151-.837-5.941-5.904-5.941-8.894 0-.5522847-.44771525-1-1-1s-1 .4477153-1 1c0 2.583.591 8.2 5.423 10.253-.97.561-1.9 1.141-2.784 1.729-6.294-.224-7.639-5.524-7.639-9.982zm37.8 29.353c-11.391 6.206-23.843-.01-28.668-2.97-3.04835247-1.9081119-5.96554193-4.0181633-8.732-6.316-.23839982-.1890729-.38375675-.4717117-.39888465-.77561-.01512789-.3038983.10144078-.5995757.31988465-.81139 3.35220275-3.2855413 7.09521948-6.1469592 11.145-8.52-1.677793 6.7029661 1.12897 13.7266638 6.9641925 17.4273291 5.8352225 3.7006652 13.3852411 3.24518 18.7332463-1.1301582s7.2900192-11.685525 4.8185612-18.1381709c2.4848578 1.2768948 4.8448072 2.7834592 7.049 4.5-1.2704469 2.883872-1.7734006 6.0473129-1.46 9.183-3.471 2.26-6.308 5.663-9.771 7.551zm18.173-11.283c-2.2575886.6332318-4.4402304 1.5083002-6.51 2.61-.0869558-2.3202028.3242758-4.6321022 1.206-6.78 2.171 1.734 3.721 3.05 5.304 4.17zm-16.753-11.185c5.16 9.275-1.484 20.993-12.22 20.993-4.6439962-.0377813-8.9722034-2.357721-11.574759-6.2041261-2.6025557-3.8464052-3.1463473-8.7269572-1.454241-13.0518739.35-.174.693-.354 1.052-.521.0945704 1.6879405 1.2416255 3.133503 2.8639064 3.609204 1.6222809.4757009 3.3683392-.1215149 4.359466-1.4910967.9911267-1.3695819 1.0126057-3.2148258.0536276-4.6071073 5.6388191-1.2983387 11.5389239-.854436 16.92 1.273zm-19.172-.685c.890394.5512171 1.2008755 1.6984116.7100229 2.6234551-.4908527.9250435-1.6148887 1.3110448-2.5704952.882725-.9556066-.4283199-1.4154226-1.5242319-1.0515277-2.5061801.945-.379 1.921-.7 2.912-1z"/><path id="Shape" d="m38 1c-1.5757922-.0731483-2.9154322 1.13877937-3 2.714v3.286h-19.142c-.3658904-1.39931452-1.4586855-2.49210961-2.858-2.858v-1.142c0-.55228475-.4477153-1-1-1s-1 .44771525-1 1v1h-2v-1c0-.55228475-.44771525-1-1-1s-1 .44771525-1 1v1h-2v-1c0-.55228475-.44771525-1-1-1s-1 .44771525-1 1v1.142c-1.75997562.45346432-2.98997183 2.04054462-2.98997183 3.858s1.22999621 3.4045357 2.98997183 3.858v1.142c0 .5522847.44771525 1 1 1s1-.4477153 1-1v-1h2v1c0 .5522847.44771525 1 1 1s1-.4477153 1-1v-1h2v1c0 .5522847.4477153 1 1 1s1-.4477153 1-1v-1.142c1.4094818-.3480149 2.5099851-1.4485182 2.858-2.858h19.142v3.286c.0845678 1.5752206 1.4242078 2.7871483 3 2.714 6.576 0 22-.451 22-7 0-5.786-11.964-7-22-7zm-24.587 8.413c-.3735065.37681592-.8824382.5882405-1.413.587h-8c-1.10456948-.00000003-1.99999994-.89543052-1.99999994-2s.89543046-1.99999997 1.99999994-2h8c.8081708.00097975 1.5363294.4882522 1.8454705 1.23496021.3091411.746708.1385032 1.60608693-.4324705 2.17803979zm27.587 3.542v-4.955c0-.55228475-.4477153-1-1-1s-1 .44771525-1 1v4.99c-.334 0-.658.01-1 .01-.542 0-1-.327-1-.714v-8.572c0-.387.458-.714 1-.714 12.336 0 20 1.916 20 5 0 2.824-6.441 4.664-17 4.955z"/></g></g></svg>