<svg height="512" viewBox="0 0 60 54" width="512" xmlns="http://www.w3.org/2000/svg"><g id="012---Eyebrow-Sculpting" fill="none"><g id="Layer_3" transform="translate(1 1)"><path id="Shape" d="m43 32.74c-.0130482 6.0718846-3.6853392 11.5370003-9.302122 13.8434487-5.6167828 2.3064485-12.0700302.999235-16.3464429-3.3112461-4.2764127-4.3104812-5.5323794-10.773898-3.1814351-16.3722026 1.03-.52 2.1-1.02 3.2-1.46-.6031282 1.0990352-.4592691 2.4572182.3607132 3.4055172.8199824.948299 2.1431674 1.2867335 3.317763.848593 1.1745957-.4381405 1.9528993-1.5604595 1.9515238-2.8141102.0018902-1.2076371-.7245311-2.297269-1.84-2.76 6.5080337-1.9386449 13.4830041-1.5964233 19.77.97v.01c1.3607897 2.315736 2.0756197 4.9540457 2.07 7.64z" fill="#00bcd4"/><path id="Shape" d="m40.93 25.1v-.01c-3.6103302-1.4686839-7.4723816-2.2193553-11.37-2.21-.436 0-.866.028-1.3.049 3.3210021.1781274 6.5891009.9084647 9.67 2.161v.01c2.5877907 4.4309759 2.756818 9.8706911.4491198 14.4537837-2.3076981 4.5830926-6.7784326 7.6865753-11.8791198 8.2462163.494.049.994.076 1.5.076 5.3972726-.0503315 10.3595203-2.9704373 13.02424-7.6643008 2.6647196-4.6938635 2.6288141-10.4514351-.09424-15.1116992z" fill="#00838f"/><path id="Shape" d="m57.99 37.21c-.0630917.3954833-.3530454.7167833-.74.82-.47.13-.93.28-1.39.43-.31.1-.62.21-.92.32l-.33.12c-.34.13-.68.26-1.01.4-.8136708.3284932-1.6082547.7024151-2.38 1.12-.1817494.0833778-.3586925.1768572-.53.28-.36.2-.71.4-1.06.62-.08-.51-.13-1.01-.16-1.51-.1184109-2.9391218.5003754-5.861168 1.8-8.5 2.46 1.92 4.51 3.72 6.25 4.87.3494793.2176324.5346364.6234021.47 1.03z" fill="#ef314c"/><path id="Shape" d="m57.99 37.21c-.0630917.3954833-.3530454.7167833-.74.82-.47.13-.93.28-1.39.43-.31.1-.61.21-.92.32l-.33.12c-.34.12-.67.26-1.01.4-.8136708.3284932-1.6082547.7024151-2.38 1.12-.1817494.0833778-.3586925.1768572-.53.28-.36.2-.71.4-1.06.62-.08-.51-.13-1.01-.16-1.51 2.7049635-1.2594647 5.5727161-2.1346005 8.52-2.6z" fill="#bb193b"/><path id="Shape" d="m49.47 39.82c.0246765.5026427.0780972 1.0034614.16 1.5-.21.12-.42.25-.63.39-3.45 2.27-6.07 5.53-9.72 7.52-1.7291468.9419199-3.575102 1.6513854-5.49 2.11-2.1048052.5014887-4.2676394.716763-6.43.64-.25 0-.5-.02-.74-.03-6.0516131-.4837558-11.8922233-2.4443604-17.01-5.71-3.08360586-1.9374959-6.03662826-4.0754307-8.84-6.4-.45784142-.3680916-.73625899-.9145293-.76492808-1.5012902-.0286691-.5867608.19515165-1.1577378.61492808-1.5687098 4.00514647-3.9402937 8.57125513-7.2663079 13.55-9.87-2.7313759 6.507366-.5571636 14.0386073 5.2221571 18.0889997 5.7793208 4.0503923 13.6004479 3.5243075 18.7852653-1.2635829 5.1848175-4.7878905 6.3308358-12.5424656 2.7525776-18.6254168 3.7181866 1.580055 7.1982646 3.6701212 10.34 6.21-1.2994445 2.6424637-1.9181756 5.5676871-1.8 8.51z" fill="#f5f5f5"/><path id="Shape" d="m49.63 41.32c-.21.12-.42.25-.63.39-3.45 2.27-6.07 5.53-9.72 7.52-1.7291468.9419199-3.575102 1.6513854-5.49 2.11-2.1065278.4911658-4.2679854.7063031-6.43.64-.25 0-.5-.02-.74-.03 3.3815424-.1810426 6.6808063-1.1100279 9.66-2.72 3.65-1.99 6.27-5.25 9.72-7.52 1.1142897-.7048672 2.2734229-1.3362107 3.47-1.89.0246765.5026427.0780972 1.0034614.16 1.5z" fill="#cfd8dc"/><circle id="Oval" cx="29" cy="32.878" fill="#607d8b" r="4"/><path id="Shape" d="m23 26.88c.0013755 1.2536507-.7769281 2.3759697-1.9515238 2.8141102-1.1745956.4381405-2.4977806.099706-3.317763-.848593-.8199823-.948299-.9638414-2.306482-.3607132-3.4055172v-.01c1.2380133-.506743 2.503309-.944088 3.79-1.31 1.1154689.462731 1.8418902 1.5523629 1.84 2.76z" fill="#f5f5f5"/><path id="Shape" d="m9.46 2.665c2.7094106-2.13479776 6.2129069-2.98658529 9.6-2.334l35.68 8.661c2.1486139.41346081 3.5552964 2.4903544 3.142 4.639l-.188.972c-.4134608 2.1486139-2.4903544 3.5552964-4.639 3.142l-34.827-8.4c-1.4220293-.34285359-2.9061965-.33392937-4.324.026l-11.942 3.029c-.72588458.1837035-1.48070389-.169384-1.80494051-.8443107-.32423663-.6749267-.12812747-1.4848428.46894051-1.9366893z" fill="#91562d"/><path id="Shape" d="m54.74 8.992-35.684-8.661c-1.2544492-.24137228-2.539616-.2788535-3.806-.111.269.033.538.059.806.111l35.684 8.661c2.1486139.41346081 3.5552964 2.4903544 3.142 4.639l-.188.972c-.2601587 1.3424995-1.1965089 2.4547701-2.475 2.94l.836.2c1.0319647.1984495 2.1004958-.0212096 2.9704935-.6106476.8699978-.589438 1.4701846-1.5003632 1.6685065-2.5323524l.188-.972c.4114406-2.1476056-.9947915-4.22249177-3.142-4.636z" fill="#6d4122"/></g><g id="Layer_2" fill="#000"><path id="Shape" d="m30 38.878c2.7614237 0 5-2.2385763 5-5s-2.2385763-5-5-5-5 2.2385763-5 5c.0033061 2.7600532 2.2399468 4.9966939 5 5zm0-8c1.6568542 0 3 1.3431458 3 3s-1.3431458 3-3 3-3-1.3431458-3-3 1.3431458-3 3-3z"/><path id="Shape" d="m7.24 31.666c-2.22719774 1.6496507-4.33911312 3.4495064-6.321 5.387-.62387868.6117091-.95661417 1.4608702-.91439223 2.3335843s.45537646 1.6857891 1.13539223 2.2344157c2.83363947 2.3524398 5.82129367 4.5129183 8.943 6.467 9.431 5.786 20.964 8.309 30.671 3.021 6.128-3.337 7.512-8.182 17.769-11.116.7666736-.2154788 1.335865-.8603228 1.4544959-1.6478164.1186309-.7874937-.2353276-1.5714043-.9044959-2.0031836-3.692-2.429-8.78-7.874-16.592-11.085-.0922888-.0584072-.1936832-.1009929-.3-.126-4.1689017-1.6870912-8.6566919-2.440745-13.148-2.208-5.046-.687-5.044-4.161-5.038-6.7v-.223c0-.5522847-.4477153-1-1-1s-1 .4477153-1 1c0 2.941.271 5.661 2.774 7.456-.75.146-1.4896667.3166667-2.219.512-4.34-.236-6.55-2.575-6.55-6.968 0-.5522847-.4477153-1-1-1s-1 .4477153-1 1c0 4.04 1.715 6.878 4.812 8.183-1.339.513-2.631 1.09-3.871 1.711-5.151-.837-5.941-5.904-5.941-8.894 0-.5522847-.44771525-1-1-1s-1 .4477153-1 1c0 2.583.591 8.2 5.423 10.253-.97.561-1.9 1.141-2.784 1.729-6.294-.224-7.639-5.524-7.639-9.982 0-.5522847-.44771525-1-1-1s-1 .4477153-1 1c0 6.418 2.607 10.526 7.24 11.666zm32.56 17.687c-11.392 6.206-23.843-.01-28.668-2.97-3.04835247-1.9081119-5.96554193-4.0181633-8.732-6.316-.23839982-.1890729-.38375675-.4717117-.39888465-.77561-.01512789-.3038983.10144078-.5995757.31988465-.81139 3.35220275-3.2855413 7.09521948-6.1469592 11.145-8.52-1.677793 6.7029661 1.12897 13.7266638 6.9641925 17.4273291 5.8352225 3.7006652 13.3852411 3.24518 18.7332463-1.1301582s7.2900192-11.685525 4.8185612-18.1381709c2.4848578 1.2768948 4.8448072 2.7834592 7.049 4.5-1.2704469 2.883872-1.7734006 6.0473129-1.46 9.183-3.471 2.26-6.308 5.663-9.771 7.551zm18.173-11.283c-2.2575886.6332318-4.4402304 1.5083002-6.51 2.61-.0869558-2.3202028.3242758-4.6321022 1.206-6.78 2.171 1.734 3.721 3.05 5.304 4.17zm-16.753-11.185c5.16 9.275-1.484 20.993-12.22 20.993-4.6439962-.0377813-8.9722034-2.357721-11.574759-6.2041261-2.6025557-3.8464052-3.1463473-8.7269572-1.454241-13.0518739.35-.174.693-.354 1.052-.521.0945704 1.6879405 1.2416255 3.133503 2.8639064 3.609204 1.6222809.4757009 3.3683392-.1215149 4.359466-1.4910967.9911267-1.3695819 1.0126057-3.2148258.0536276-4.6071073 5.6388191-1.2983387 11.5389239-.854436 16.92 1.273zm-19.172-.685c.890394.5512171 1.2008755 1.6984116.7100229 2.6234551-.4908527.9250435-1.6148887 1.3110448-2.5704952.882725-.9556066-.4283199-1.4154226-1.5242319-1.0515277-2.5061801.945-.379 1.921-.7 2.912-1z"/><path id="Shape" d="m3.208 14.371 11.942-3.031c1.2605378-.3190521 2.5797346-.3269453 3.844-.023 37.261 8.986 34.978 8.5 35.82 8.5 2.3749335-.004649 4.4134424-1.6918065 4.862-4.024l.188-.973c.5171787-2.6730907-1.2188513-5.26284744-3.888-5.8l-35.731-8.671c-3.6695371-.70519191-7.4644542.21799466-10.4 2.53l-8.823 6.945c-.97584665.7392844-1.29595134 2.0636096-.76549667 3.1669844.53045466 1.1033749 1.76467021 1.6804504 2.95149667 1.3800156zm-.964-2.964 8.835-6.957c2.4655642-1.94717984 5.65351-2.73131017 8.741-2.15l35.731 8.672c.7722766.146023 1.4539749.5950868 1.893 1.247.5680716.9692536.6666107 2.1436347.268 3.194-.305865 1.5881645-1.8291353 2.6373603-3.422 2.357-37.89-9.135-35.485-8.67-37.172-8.67-1.671 0-1.392.035-14.4 3.338-.27247856.0779982-.56109873-.0545554-.67948896-.3120667-.11839022-.2575112-.0311066-.5628858.20548896-.7189333z"/></g></g></svg>