<svg height="512" viewBox="0 0 60 46" width="512" xmlns="http://www.w3.org/2000/svg"><g id="015---Cream-Pot" fill="none"><g id="Layer_3" transform="translate(0 1)"><path id="Shape" d="m2 19.98v2.04c-1.313-.606-1.361-1.412 0-2.04z" fill="#00695c"/><path id="Shape" d="m42.52 41.55c-8.207 3.65-41.52 3.55-41.52-2.55v-18c0 2.865 19.108 3 22 3 4.08 0 7.89-.12 11.17-.34 1.03 5.788 4.03 13.761 8.35 17.89z" fill="#009688"/><path id="Shape" d="m34.17 23.66c-.943.063-1.941.116-2.966.162 1.1 5.835 4 13.609 8.316 17.728-6.381 2.834-22.977 2.45-16.52 2.45 8.49 0 15.85-.82 19.52-2.45-4.32-4.13-7.32-12.107-8.35-17.89z" fill="#00695c"/><path id="Shape" d="m10.05 18.36c-9.8-1.1-11.017-3.214-1.64-4.52.32773887 1.5773305.88002936 3.099497 1.64 4.52z" fill="#707070"/><path id="Shape" d="m33.46 18.6c-7.795261.6069977-15.628822.5266878-23.41-.24-2.426-4.65-2.743-9.614.12-15.34.5092877-1.06435102 1.1222513-2.07590842 1.83-3.02 0 0 0 8 7 9 6.65 1.106 7.828-3.674 13.71-2.66.6351643.0991099 1.2584461.26330777 1.86.49-1.1692152 3.8064984-1.5469668 7.8120265-1.11 11.77z" fill="#ffeb3a"/><path id="Shape" d="m16 9c1.1160026.17483413 2.2514288.18729653 3.371.037-.126-.015-.24-.018-.371-.037-7-1-7-9-7-9-.8808399 1.19983832-1.6263661 2.49335822-2.223 3.857.9076843 2.7718297 3.329822 4.77360604 6.223 5.143z" fill="#fdd834"/><path id="Shape" d="m33.46 18.6c-.95.08-1.95.15-2.98.2-.4823685-4.022257-.1109516-8.1010278 1.09-11.97-.6015539-.22669223-1.2248357-.3908901-1.86-.49 1.6348852-.26745037 3.3114061-.09841842 4.86.49-1.1692152 3.8064984-1.5469668 7.8120265-1.11 11.77z" fill="#fdd834"/><path id="Shape" d="m53.32 42.8c-5.12 1.15-11.38-7.31-13.99-18.89s-.58-21.91 4.54-23.06 11.38 7.3 13.99 18.88.58 21.91-4.54 23.07z" fill="#00695c"/><path id="Shape" d="m34.17 23.66c-3.482.222-7.08.34-11.17.34-9.86 0-18.21-.68-21-1.98v-6.02c0 .96 3.15 1.81 8.05 2.36 7.7812393.7655569 15.6147008.8458658 23.41.24.1454657 1.6982113.382477 3.3873343.71 5.06z" fill="#9e9e9e"/><path id="Shape" d="m34.17 23.66c-.94.06-1.93.12-2.96.16-.3412692-1.6572381-.5817107-3.3336492-.72-5.02 1.03-.05 2.02-.12 2.97-.2.1406562 1.6987508.3777048 3.3881392.71 5.06z" fill="#707070"/><path id="Shape" d="m53.32 42.8-4.88 1.09c-1.9.43-3.95-.46-5.92-2.34-7.35-7.02-11.427-25.15-7.95-34.72.96-2.67 2.47-4.44 4.42-4.88l4.88-1.1c-5.12 1.15-7.15 11.47-4.54 23.06s8.87 20.04 13.99 18.89z" fill="#009688"/></g><g id="Layer_2" fill="#000" transform="translate(0 -1)"><path id="Shape" d="m0 41c0 5.416 16.084 6 23 6 8.566 0 15.533-.832 19.326-2.292 1.3852303 1.36255 3.2173756 2.1768368 5.157 2.292.813 0 .791-.043 6.056-1.228 2.886-.65 4.991-3.634 5.932-8.4.8566542-5.2741222.6417093-10.6667914-.632-15.856-2.772-12.309-9.439-20.943-15.187-19.645l-4.877 1.1c-2.051.462-3.657 2.133-4.76 4.632-7.188-1.952-7.962 3.397-14.873 2.407-6.042-.863-6.142-7.72-6.142-8.01.0003299-.42634671-.2696876-.80601661-.6725258-.94563409-.4028381-.13961748-.8498955-.00847465-1.1134742.32663409-.209.266-4.89 6.331-3.943 13.618-5.478.868-6.271 1.952-6.271 3.001v3.4c-.59159774.3202724-.97135415.9278827-1 1.6zm9.938-19.646c7.5189406.7434341 15.0873705.8481423 22.624.313.106 1 .239 2.02.419 3.059-6.654.386-24.2.606-29.981-1.385v-3.341c2.25238683.7186519 4.58067978 1.1730348 6.938 1.354zm-7.938 19.646v-11.945c4.22206714 1.1490113 8.5637222 1.801753 12.937 1.945.3572656.0223291.6993051-.1476369.8972754-.4458734.1979704-.2982365.2217953-.6794344.0625-1-.1592952-.3205657-.4775098-.5317975-.8347754-.5541266-7.311-.455-11.103-1.327-13.062-2.056v-1.844c6.009 2.308 24.542 2.02 31.369 1.609 1.207 5.629 3.6 12.081 7.394 16.434-3.707 1.186-10.034 1.857-17.763 1.857-14.485 0-21-2.339-21-4zm54.888-19.046c1.2135371 4.9175803 1.4243948 10.0291783.62 15.03-.766 3.886-2.372 6.378-4.408 6.837-4.007.9-10.1-6.171-12.8-18.132s-.213-20.965 3.792-21.867c.2318049-.05143487.4685574-.07725633.706-.077 3.984 0 9.55 6.931 12.09 18.209zm-17.674-17.033.606-.137c-6.239 9.442-.678 34.143 9.009 40l-.607.137c-2.037.458-4.557-1.1-6.915-4.286-2.8698116-4.1735616-4.8702037-8.8820671-5.882-13.845-.4686921-2.0899664-.7990753-4.2085614-.989-6.342-.727-8.695 1.52-14.793 4.778-15.527zm-29.095 2.785c.1 4.606 2.366 7.843 6.565 9.243.5246705.174522 1.091478-.1093295 1.266-.634s-.1093295-1.091478-.634-1.266c-4.3-1.434-5.3-4.932-5.193-8.15 1.1878153 2.76742888 3.7483712 4.7021978 6.735 5.089 7.574 1.085 8.371-4.014 14.457-2.5-.8854828 3.3179918-1.1966402 6.7630452-.92 10.186-7.2240527.5094957-14.4777361.4252128-21.688-.252-1.88091458-3.6365792-2.0953565-7.909371-.588-11.716zm-2.467 9.258c.19837214.7406243.44489666 1.4675042.738 2.176-1.70650889-.1760154-3.38540777-.5581328-5-1.138 1.37292046-.5188354 2.80425923-.8674345 4.262-1.038z"/><circle id="Oval" cx="19" cy="30" r="1"/><path id="Shape" d="m42.137 16.263c.0552285.5495233.5454767.9502284 1.095.8949999.5495233-.0552284.9502284-.5454766.895-1.0949999-.477-4.772.484-6.282 1.1-6.757.4516859-.31232797 1.0253053-.39034614 1.544-.21.5115211.19261304 1.0829229-.06116202 1.2829939-.56981244s-.0453229-1.08370139-.5509939-1.29118756c-1.1587739-.43527896-2.4584531-.26226361-3.463.461-1.703 1.281-2.34 4.163-1.903 8.567z"/><path id="Shape" d="m50.5 38.929c1.1592287.4353523 2.4593893.2619475 3.464-.462 1.7-1.281 2.343-4.163 1.9-8.567-.0552285-.5495233-.5454767-.9502285-1.095-.895s-.9502285.5454767-.895 1.095c.478 4.772-.484 6.281-1.1 6.757-.4510272.312958-1.0245105.3913798-1.543.211-.3324356-.1309378-.7094733-.0745771-.9890866.1478517s-.4193224.5771334-.3665.9305c.0528223.3533666.290151.6517105.6225866.7826483z"/></g></g></svg>