<svg height="512" viewBox="0 0 48 60" width="512" xmlns="http://www.w3.org/2000/svg"><g id="016---Face-Mask" fill="none"><g id="Layer_3" transform="translate(1 1)"><g fill="#000"><path id="Shape" d="m42.579 22.6c-.2577911-.0623248-.480265-.2245046-.6184795-.4508613-.1382145-.2263568-.1808476-.4983482-.1185205-.7561387.1057081-.44084.1587454-.8926639.158-1.346 0-.145-.006-.29-.017-.433-.0414214-.5522847.3727153-1.0335786.925-1.075s1.0335786.3727153 1.075.925c.014.193.022.387.022.581.0012019.6117524-.0709804 1.2214406-.215 1.816-.1293458.5367399-.6692006.8670989-1.206.738z"/><path id="Shape" d="m40.655 16.318c-.3891704-.4828302-.8358045-.9163675-1.33-1.291-.4316653-.3372529-.5116494-.9590295-.1793924-1.3945519.332257-.4355223.9530708-.5226651 1.3923924-.1954481.6249937.4735896 1.1892457 1.0223919 1.68 1.634.2324708.2783079.2960606.6606578.1661847.9992286-.129876.3385708-.4328633.5803016-.7918235.6317363-.3589602.0514346-.7176368-.0954876-.9373612-.3839649z"/><path id="Shape" d="m20.884 53.993c-.7013289-.0806603-1.395166-.2167526-2.075-.407-.3440468-.0966403-.6104021-.3694865-.6987325-.7157599s.0147837-.7133669.2705-.963c.2557164-.249633.6251857-.3438804.9692325-.2472401.5789444.1620129 1.169782.2780404 1.767.347.4987742.0587574.8765949.4783431.882926.9805264s-.3607916.9311607-.857926 1.0024736c-.0855197.012004-.1722243.0130122-.258.003z"/><path id="Shape" d="m24.858 53.99c-.4971344-.0713129-.8642571-.5002903-.857926-1.0024736s.3841518-.921769.882926-.9805264c.597218-.0689596 1.1880556-.1849871 1.767-.347.5318502-.149393 1.0841069.1606498 1.2334999.6925.1493931.5318502-.1606497 1.084107-.6924999 1.2335-.679834.1902474-1.3736711.3263397-2.075.407-.0857757.0100122-.1724803.009004-.258-.003z"/></g><path id="Shape" d="m28 0h-10c-9.9411255 0-18 8.0588745-18 18v22c0 9.9411255 8.0588745 18 18 18h10c9.9411255 0 18-8.0588745 18-18v-22c0-9.9411255-8.0588745-18-18-18zm-21 20.05c0-2.21 2.69-4 6-4s6 1.79 6 4-2.69 4-6 4-6-1.79-6-4zm22.97 24.2c-.42 2.01-1.92 4.8-6.97 4.8s-6.55-2.79-6.97-4.8c-.16-.76.45-1.42 1.05-1.13 3.8177394 1.4266507 8.0222606 1.4266507 11.84 0 .6-.29 1.21.37 1.05 1.13zm3.03-20.2c-3.31 0-6-1.79-6-4s2.69-4 6-4 6 1.79 6 4-2.69 4-6 4z" fill="#00bcd4"/><path id="Shape" d="m28 0h-3c9.9411255 0 18 8.0588745 18 18v22c0 9.9411255-8.0588745 18-18 18h3c9.9411255 0 18-8.0588745 18-18v-22c0-9.9411255-8.0588745-18-18-18z" fill="#00838f"/></g><g id="Layer_2" fill="#000"><path id="Shape" d="m14.02 30.047c.2698391.0114916.5323144-.0896922.7246153-.2793381.192301-.1896459.2971239-.4506891.2893847-.7206619-.0157496-.5588918-.4748941-1.0029387-1.034-1-.6474622.0006268-1.2939107-.0512095-1.933-.155-.5377303-.0751248-1.0371631.2925585-1.1251466.828335-.0879836.5357765.2676313 1.0438732.8011466 1.144665.7527647.1226773 1.5143061.1835471 2.277.182z"/><path id="Shape" d="m19.573 26.58c-.5449995.3274427-1.1207452.600746-1.719.816-.3409038.1176434-.5920569.4097281-.6572897.7644111-.0652328.3546831.0655611.7170149.342299.948254s.6565458.2955606.9939907.1683349c.7225893-.2596074 1.4176563-.5902248 2.075-.987.3189048-.1784185.5150963-.5165793.5117039-.8819858-.0033925-.3654065-.2058287-.6998664-.5279912-.8723332-.3221624-.1724668-.7127454-.1554745-1.0187127.044319z"/><path id="Shape" d="m8.479 26.611c-.53910332-.3197739-1.04029157-.699523-1.494-1.132-.25776712-.2474064-.62794353-.3385023-.97108734-.2389726-.34314382.0995296-.60712333.3745639-.69250002.7215-.08537668.3469361.02082022.7130662.27858736.9604726.56231153.5370369 1.18359896 1.0087054 1.852 1.406.30671251.1832772.6879038.1890032.99998281.015021s.5076335-.5012405.513-.8585c.0053665-.3572594-.1802703-.6902438-.48698281-.873521z"/><path id="Shape" d="m23.05 25.506c.3565418-.0007226.6857295-.1912247.864-.5.137-.234.035-.234.172 0 .1703578.3267811.5066379.5333822.8751339.5376581.3684961.0042759.7094796-.1944665.8873743-.5172065.1778947-.3227401.163866-.7171656-.0365082-1.0264516-.3046194-.5182752-.5291553-1.0796149-.666-1.665-.1244299-.5130098-.6261848-.8409456-1.146-.749-.520122-.0918735-1.0220084.2365862-1.146.75-.1368565.5852208-.3617514 1.1462777-.667 1.664-.1814463.3092953-.1833946.692067-.0051064 1.0031934.1782883.3111264.5095171.5029739.8681064.5028066z"/><path id="Shape" d="m5.017 20.614c.04142134-.550904-.37159598-1.0310786-.9225-1.0725-.55090403-.0414213-1.03107863.371596-1.0725.9225-.06161732.8051704.00350832 1.6150229.193 2.4.07341922.3580727.33635498.6475591.68573616.75498.34938117.107421.72953562.0156596.99144234-.2393136s.36383219-.6325295.2658215-.9846664c-.13984702-.5826403-.18742541-1.1836127-.141-1.781z"/><path id="Shape" d="m22.553 18.824c.2129865.5094014.798517.7497912 1.308.537.0492539-.0267815.0958036-.0582612.139-.094.0431964.0357388.0897461.0672185.139.094.509483.2127912 1.0950135-.0275986 1.308-.537.2358163-.5593986.5506927-1.0820596.935-1.552.2248987-.277774.284523-.6544298.156413-.9880848-.12811-.3336549-.4244913-.573619-.7775-.6295-.3530087-.0558809-.7090143.0808108-.933913.3585848-.3120874.3928086-.5888316.8124426-.827 1.254-.2381684-.4415574-.5149126-.8611914-.827-1.254-.3476633-.4294014-.9775986-.4956633-1.407-.148s-.4956633.9775986-.148 1.407c.3843073.4699404.6991837.9926014.935 1.552z"/><path id="Shape" d="m5.562 17.7c.8 0 .7-.586 2.113-1.668.43166527-.3372529.51164938-.9590295.1793924-1.3945519-.33225699-.4355223-.95307079-.5226651-1.3923924-.1954481-.62499366.4735896-1.18924569 1.0223919-1.68 1.634-.23960879.3000571-.28624217.7108146-.11999556 1.0569486.1662466.346134.51600812.5665048.89999556.5670514z"/><path id="Shape" d="m16.849 14.392c.618497.1550458 1.2211251.3676396 1.8.635.5014746.2319596 1.0960404.0134745 1.328-.488.2319596-.5014746.0134745-1.0960404-.488-1.328-.6939353-.3190172-1.4160474-.5727775-2.157-.758-.3496642-.0966447-.7242458.0036601-.9788241.2621077-.2545782.2584477-.3492215.6344996-.2473136.9826663s.3843824.6138368.7381377.694226z"/><path id="Shape" d="m10.843 14.439c.292 0 .835-.241 2.156-.351.5460361-.0509487.9491663-.5321638.9036462-1.0786793-.0455201-.5465154-.5227054-.9544077-1.0696462-.9143207-.7555635.0622709-1.5045423.1880485-2.239.376-.4869162.1262272-.80428757.5944924-.74114771 1.0935255.06313986.4990332.48713701.8734972.99014771.8744745z"/><path id="Shape" d="m35.933 27.892c-.6390893.1037905-1.2855378.1556268-1.933.155-.3572656-.0032154-.689108.1844124-.8705254.4922058s-.1848482.6889912-.009 1c.1758482.3110087.5042598.5045788.8615254.5077942.7620306.0015499 1.5229078-.0593203 2.275-.182.5335153-.1007918.8891302-.6088885.8011466-1.144665-.0879835-.5357765-.5874163-.9034598-1.1251466-.828335z"/><path id="Shape" d="m27.392 28.29c.7448205.4740372 1.5598727.8273952 2.415 1.047.4861312.0002887.9020446-.3490695.9856825-.8279519s-.1892328-.9485383-.6466825-1.1130481c-.5982548-.215254-1.1740005-.4885573-1.719-.816-.3059673-.1997935-.6965503-.2167858-1.0187127-.044319-.3221625.1724668-.5245987.5069267-.5279912.8723332-.0033924.3654065.1927991.7035673.5117039.8819858z"/><path id="Shape" d="m41.015 25.479c-.4537084.432477-.9548967.8122261-1.494 1.132-.4741365.2833221-.6288221.8973635-.3455 1.3715s.8973635.6288221 1.3715.3455c.6687502-.3972317 1.2903759-.8689023 1.853-1.406.2679064-.2449055.3820693-.6157529.2982774-.9689263-.0837919-.3531735-.3523801-.6332116-.70175-.7316656-.3493699-.0984541-.7246575.0001367-.9805274.2575919z"/><path id="Shape" d="m42.983 20.614c.0465911.5963937-.0009913 1.1964042-.141 1.778-.0980107.3521369.0039148.7296932.2658215.9846664s.6420612.3467346.9914423.2393136c.3493812-.1074209.612317-.3969073.6857362-.75498.1899846-.7848982.2551165-1.5948287.193-2.4-.0414214-.5522847-.5227153-.9664213-1.075-.9249999-.5522847.0414213-.9664213.5227152-.925 1.0749999z"/><path id="Shape" d="m40.137 14.625c-.334013.438692-.2499132 1.0649667.188 1.4.4944307.3743585.9410964.8079265 1.33 1.291.2197244.2884773.578401.4353995.9373612.3839649.3589602-.0514347.6619475-.2931655.7918235-.6317363.1298759-.3385708.0662861-.7209207-.1661847-.9992286-.4907543-.6116081-1.0550063-1.1604104-1.68-1.634-.4393844-.3342497-1.0665089-.2492006-1.401.19z"/><path id="Shape" d="m28.927 15.119c.482 0 .64-.329 2.224-.727.3537553-.0803892.6362298-.3460593.7381377-.694226s.0072646-.7242186-.2473136-.9826663c-.2545783-.2584476-.6291599-.3587524-.9788241-.2621077-.7409526.1852225-1.4630647.4389828-2.157.758-.4267812.1969232-.6588198.6644871-.5575454 1.1234691.1012743.458982.5085241.7854871.9785454.7845309z"/><path id="Shape" d="m35 14.088c1.384.115 1.824.351 2.156.351.5030107-.0009773.9270079-.3754413.9901477-.8744745.0631399-.4990331-.2542315-.9672983-.7411477-1.0935255-.7344577-.1879515-1.4834365-.3137291-2.239-.376-.5469408-.040087-1.0241261.3678053-1.0696462.9143207-.0455201.5465155.3576101 1.0277306.9036462 1.0786793z"/><path id="Shape" d="m14 26.047c3.925 0 7-2.2 7-5s-3.075-5-7-5-7 2.2-7 5 3.075 5 7 5zm0-8c2.71 0 5 1.374 5 3s-2.29 3-5 3-5-1.374-5-3 2.29-3 5-3z"/><path id="Shape" d="m34 26.047c3.925 0 7-2.2 7-5s-3.075-5-7-5-7 2.2-7 5 3.075 5 7 5zm0-8c2.71 0 5 1.374 5 3s-2.29 3-5 3-5-1.374-5-3 2.29-3 5-3z"/><path id="Shape" d="m30 33.047c0-.5522847-.4477153-1-1-1s-1 .4477153-1 1v.667c0 1.243-1.869 2.333-4 2.333s-4-1.09-4-2.333v-.667c0-.5522847-.4477153-1-1-1s-1 .4477153-1 1v.667c0 2.43 2.636 4.333 6 4.333s6-1.9 6-4.333z"/><path id="Shape" d="m22.117 53.007c-.597218-.0689596-1.1880556-.1849871-1.767-.347-.5318502-.149393-1.084107.1606498-1.2335.6925s.1606498 1.084107.6925 1.2335c.679834.1902474 1.3736711.3263397 2.075.407.5421216.052929 1.0268897-.3377568 1.0903592-.8787456.0634695-.5409889-.317708-1.0332685-.8573592-1.1072544z"/><path id="Shape" d="m15.885 49.92c-.3680978-.4120044-1.0004956-.4475978-1.4125-.0795s-.4475978 1.0004956-.0795 1.4125c.4793314.5361132 1.0102191 1.023793 1.585 1.456.2858125.2143594.6642734.2599564.9928203.1196152.3285469-.1403411.5572656-.4452994.6-.8.0427344-.3547005-.1070078-.7052558-.3928203-.9196152-.4685349-.3534688-.9015742-.7516774-1.293-1.189z"/><path id="Shape" d="m13.667 45.3c-.0295472-.5522847-.5012153-.9760472-1.0535-.9465-.5522847.0295473-.9760472.5012153-.9465 1.0535.0443335.7611927.2181587 1.5092499.514 2.212.1309378.3324356.4292817.5697644.7826483.6225867s.7080713-.0868867.9305-.3665c.2224288-.2796134.2787896-.6566511.1478517-.9890867-.2154369-.5031148-.3423038-1.0396773-.375-1.586z"/><path id="Shape" d="m14.965 39.624c-.7084505.352668-1.3373255.8464437-1.848 1.451-.2311509.272415-.2994114.6474544-.1790685.9838444s.4110063.583025.7625.647c.3514938.063975.7104177-.0644294.9415685-.3368444.3355322-.3975571.7486156-.7225115 1.214-.955.3281775-.154255.547133-.4740829.5722173-.8358367.0250843-.3617539-.1476338-.7087407-.4513805-.9068138-.3037468-.1980731-.69092-.2161911-1.0118368-.0473495z"/><path id="Shape" d="m19.468 39.362c-.3460117-.0893164-.7133895.0127469-.9637457.2677436-.2503561.2549968-.3456556.6241869-.25.9685001.0956556.3443131.367734.6114399.7137457.7007563.7661907.1732563 1.5506381.252507 2.336.236.5160774-.0727429.8897534-.5296545.858643-1.049904-.0311104-.5202496-.4565744-.9293733-.977643-.940096-.5771669-.0006249-1.1526669-.0619624-1.717-.183z"/><path id="Shape" d="m27.65 52.66c-.5789444.1620129-1.169782.2780404-1.767.347-.5396512.0739859-.9208287.5662655-.8573592 1.1072544.0634695.5409888.5482376.9316746 1.0903592.8787456.7013289-.0806603 1.395166-.2167526 2.075-.407.5318502-.149393.841893-.7016498.6924999-1.2335-.149393-.5318502-.7016497-.841893-1.2334999-.6925z"/><path id="Shape" d="m32.115 49.92c-.3916449.438068-.8250239.8369509-1.294 1.191-.4418278.3313708-.5313708.9581722-.2 1.4s.9581722.5313708 1.4.2c.5747809-.432207 1.1056686-.9198868 1.585-1.456.2381175-.2665201.3159604-.6398291.2042059-.979305-.1117544-.3394758-.396128-.5935442-.746-.6665-.3498719-.0729557-.7120884.0462849-.9502059.312805z"/><path id="Shape" d="m35.384 44.356c-.551062-.0289368-1.0214091.3939727-1.051.945-.0338871.546466-.161761 1.0829949-.378 1.586-.1309378.3324356-.0745771.7094733.1478517.9890866s.5771334.4193224.9305.3665c.3533666-.0528223.6517105-.290151.7826483-.6225866.2956365-.7028165.4694534-1.450838.514-2.212.0141655-.2649785-.0775674-.5247225-.2549989-.7220352-.1774314-.1973128-.4260112-.3160139-.6910011-.3299648z"/><path id="Shape" d="m32.144 41.414c1.129.563 1.151 1.2 1.836 1.3.410577.0567968.8136349-.1455794 1.0133243-.5087921.1996893-.3632128.1546137-.8119666-.1133243-1.1282079-.5106745-.6045563-1.1395495-1.098332-1.848-1.451-.3209168-.1688416-.70809-.1507236-1.0118368.0473495-.3037467.1980731-.4764648.5450599-.4513805.9068138.0250843.3617538.2440398.6815817.5722173.8358367z"/><path id="Shape" d="m28.532 39.362c-.5659674.1213867-1.1431617.1827262-1.722.183-.5522847.0124264-.9899263.4702153-.9774999 1.0225s.4702152.9899264 1.0224999.9775c.7308056-.0025312 1.4591401-.0850221 2.172-.246.3460117-.0893164.6180901-.3564432.7137457-.7007563.0956556-.3443132.0003561-.7135033-.25-.9685001-.2503562-.2549967-.617734-.35706-.9637457-.2677436z"/><path id="Shape" d="m29.488 43.216c-2.6 1.26-8.336 1.279-10.977 0-.6590796-.2654907-1.4119779-.1300453-1.9372062.3485008-.5252284.4785461-.7299676 1.2156236-.5267938 1.8964992.439 2.086 2.057 5.586 7.953 5.586s7.513-3.5 7.952-5.585c.2036908-.6810137-.0008216-1.4185084-.526151-1.8973598-.5253293-.4788513-1.278562-.6143661-1.937849-.3486402zm-5.488 5.831c-3.317 0-5.315-1.266-5.938-3.843 3.8618737 1.2932486 8.0405238 1.289386 11.9-.011-.601 2.557-2.606 3.854-5.962 3.854z"/><path id="Shape" d="m48 19c-.0115735-10.48861261-8.5113874-18.9884265-19-19h-10c-10.48861261.0115735-18.9884265 8.51138739-19 19v22c.0115735 10.4886126 8.51138739 18.9884265 19 19h10c10.4886126-.0115735 18.9884265-8.5113874 19-19zm-2 22c-.010471 9.3845001-7.6154999 16.989529-17 17h-10c-9.38450009-.010471-16.98952899-7.6154999-17-17v-22c.01047101-9.38450009 7.61549991-16.98952899 17-17h10c9.3845001.01047101 16.989529 7.61549991 17 17z"/></g></g></svg>