<svg height="512" viewBox="0 0 60 52" width="512" xmlns="http://www.w3.org/2000/svg"><g id="017---Foam" fill="none"><g id="Layer_3" transform="translate(1 1)"><path id="Shape" d="m9 27v21c0 1.1045695-.8954305 2-2 2h-5c-1.10320187-.0032948-1.9967052-.8967981-2-2v-21c.0032948-1.1032019.89679813-1.9967052 2-2h5c1.10320187.0032948 1.9967052.8967981 2 2z" fill="#9d27b0"/><path id="Shape" d="m7 25h-3c1.10320187.0032948 1.9967052.8967981 2 2v21c0 1.1045695-.8954305 2-2 2h3c1.1045695 0 2-.8954305 2-2v-21c-.0032948-1.1032019-.89679813-1.9967052-2-2z" fill="#6a1b9a"/><path id="Shape" d="m20 40 .73-.49c1.4793843-.9815322 3.2146206-1.5066238 4.99-1.51h6.54" fill="#9d27b0"/><path id="Shape" d="m56.68 36.57-18.74 11.41c-1.0968305.667384-2.3560847 1.020252-3.64 1.02h-25.3l-.24-.05c.1564476-.2922896.23885274-.6184766.24-.95v-21h2.83c2.0606504.0128464 4.0573258.7171411 5.67 2 1.6191584 1.2920724 3.6284989 1.9971041 5.7 2h5.23c1.7582968-.0025667 3.3881205.9206201 4.29 2.43l.09.15c.852769 1.4249594.6259838 3.2474872-.55 4.42h2.35c.4319935.0002223.8610725-.0707278 1.27-.21l17.12-5.71 1.39-.46c1.324401-.4371184 2.7660711.1883622 3.3516548 1.4541436.5855836 1.2657813.1289269 2.7694778-1.0616548 3.4958564z" fill="#ffe0b2"/><path id="Shape" d="m57.45 32.59c-.7047526-.9484621-1.9375419-1.3392482-3.06-.97l-.755.25c.836695.4824564 1.3559199 1.3713615 1.3651667 2.3371447.0092469.9657832-.4928628 1.864467-1.3201667 2.3628553l-18.74 11.41c-1.0968305.667384-2.3560847 1.020252-3.64 1.0200001l3-.0000001c1.2839153.000252 2.5431695-.352616 3.64-1.02l18.74-11.41c.6615928-.399248 1.1230004-1.0601675 1.2697758-1.8188248s-.0348317-1.5439791-.4997758-2.1611752z" fill="#dfc49c"/><path id="Shape" d="m53 32.08-3.02 1.01-14.1 4.7c-.4089275.1392722-.8380065.2102223-1.27.21h-2.35c1.1759838-1.1725128 1.402769-2.9950406.55-4.42l-.09-.15c-.9018795-1.5093799-2.5317032-2.4325667-4.29-2.43h-5.23c-2.0715011-.0028959-4.0808416-.7079276-5.7-2-1.6126742-1.2828589-3.6093496-1.9871536-5.67-2 .06-4.57 3.42-7.41 7.32-9.18-.54-3.17.07-6.31 3.87-7.58 8.16-2.72 7.34-7.39 6.57-9.34-.03-.07-.05-.14-.08-.2-.05-.1-.09-.19-.13-.27-.0666657-.1484624-.1435156-.29213827-.23-.43 12.24 2.56 20.9 10.89 19.13 17.07-.0612354.2107622-.1346931.4177793-.22.62.13.08.26.17.39.26.2536435.1830356.494226.383521.72.6 3.35 3.18 3.85 9.73 3.83 13.53z" fill="#009688"/><path id="Shape" d="m49.98 33.09c.12-3.87-.19-12.49-4.92-15.4.0853069-.2022207.1587646-.4092378.22-.62 1.6-5.58-5.32-12.92-15.69-16.17-.03-.07-.05-.14-.08-.2-.05-.1-.09-.19-.13-.27-.0666657-.1484624-.1435156-.29213827-.23-.43 12.24 2.56 20.9 10.89 19.13 17.07-.0612354.2107622-.1346931.4177793-.22.62.13.08.26.17.39.26.2536435.1830356.494226.383521.72.6 3.35 3.18 3.85 9.73 3.83 13.53z" fill="#00695c"/></g><path id="Shape" d="m3 52h5c.84849384-.0026614 1.6557601-.3662948 2.22-1h25.08c1.467221.00049 2.906212-.4032856 4.159-1.167l18.741-11.409c1.6409479-1.001274 2.2569856-3.0825618 1.4253875-4.8156815-.8315982-1.7331198-2.8405833-2.55485-4.6483875-1.9013185-.124-4.3-1-10.5-4.733-13.394.5588514-2.3902889.0902176-4.9053871-1.292-6.934-3.132-5.191-10.434-9.65-18.6-11.358-.3951042-.08230035-.8009524.08096852-1.0289913.41395343s-.2335641.77040796-.0140087 1.10904657c.7412501 1.24944799.9227164 2.75307814.5 4.143-.677 1.93-2.731 3.48-6.106 4.605-2.477.827-5.218 2.885-4.639 7.941-4.3 2.124-6.751 5.13-7.166 8.767h-1.082c-.4222546-1.1943509-1.54921457-1.9947486-2.816-2h-5c-1.65685425 0-3 1.3431458-3 3v21c0 1.6568542 1.34314575 3 3 3zm52.706-18.427c.5876475-.1938895 1.2340232-.0622494 1.699035.3460236s.6791845 1.0321805.562965 1.6399764c-.0897095.4817459-.3807549.9023064-.8 1.156l-18.748 11.41c-.9400676.5722941-2.0194331.8750007-3.12.875h-24.3v-20c2.272 0 4.43-.175 6.875 1.781 1.7968041 1.4335191 4.0264197 2.2157352 6.325 2.219h5.231c2.7 0 4.934 2.9 3.372 5h-6.078c-1.9746028-.0018907-3.9052624.5828413-5.547 1.68l-.733.488c-.297245.1982824-.4661282.5400812-.4430331.8966441s.2346599.6737195.555.832c.32034.1582805.7007881.1336383.9980331-.0646441 1.4719438-1.1680824 3.2909946-1.8126668 5.17-1.832h8.888c1.136 0 .031.261 20.093-6.427zm-35.167-13.83c3.6657417-1.5322371 7.5561029-2.4586423 11.519-2.743.265379-.0149442.5138899-.1349252.6906404-.3334412.1767505-.1985159.2671964-.4592316.2513596-.7245588-.0440302-.5459901-.5095627-.9608734-1.057-.942-3.7432301.2800706-7.4289133 1.0821695-10.95 2.383-.14-2.693.96-4.4 3.343-5.195 3.992-1.331 6.469-3.3 7.36-5.841.4315287-1.26741726.4719455-2.63531554.116-3.926 6.872 1.834 12.807 5.641 15.431 9.991 1.2265282 1.714092 1.5560667 3.9126273.886 5.911-1.866 4.739-10.264 6.681-10.349 6.7-.5390299.1212265-.8777265.6564701-.7565 1.1955s.6564701.8777265 1.1955.7565c.36-.081 8.257-1.909 11.185-6.759 3.024 2.788 3.544 8.9 3.592 12.151-18.496 6.166-16.441 5.633-17.957 5.633 1.212-3.362-1.819-7-5.607-7h-5.232c-1.8447784-.0022216-3.634258-.6300907-5.076-1.781-1.4984816-1.1918768-3.3030393-1.9364388-5.206-2.148.414-3.045 2.623-5.511 6.621-7.328zm-18.539 8.257c0-.5522847.44771525-1 1-1h5c.55228475 0 1 .4477153 1 1v21c0 .5522847-.44771525 1-1 1h-5c-.55228475 0-1-.4477153-1-1z" fill="#000"/></g></svg>