<svg height="512" viewBox="0 0 61 60" width="512" xmlns="http://www.w3.org/2000/svg"><g id="018---Natural-Products" fill="none"><g id="Layer_3" transform="translate(1 1)"><path id="Shape" d="m58 6-2.93 40.07c-.0419656.5223016-.4760306.9259821-1 .93h-18.07v-11c0-1.6568542-1.3431458-3-3-3h-1.03l-1.97-27z" fill="#60a917"/><path id="Shape" d="m55 6-2.93 40.07c-.0419656.5223016-.4760306.9259821-1 .93h3c.5239694-.0040179.9580344-.4076984 1-.93l2.93-40.07z" fill="#549414"/><path id="Shape" d="m58 2v4h-28v-4c.0032948-1.10320187.8967981-1.9967052 2-2h24c1.1032019.0032948 1.9967052.89679813 2 2z" fill="#f5f5f5"/><path id="Shape" d="m56 0h-3c1.1032019.0032948 1.9967052.89679813 2 2v4h3v-4c-.0032948-1.10320187-.8967981-1.9967052-2-2z" fill="#cfd8dc"/><path id="Shape" d="m54 47v5h-5.36c-.3381022.018544-.6382474.2224888-.78.53-.46.84-2.02 1.47-3.86 1.47s-3.4-.63-3.86-1.47c-.1417526-.3075112-.4418978-.511456-.78-.53h-3.36v-5z" fill="#f5f5f5"/><path id="Rectangle-path" d="m51 47h3v5h-3z" fill="#cfd8dc"/><path id="Shape" d="m54 52v3c0 1.6568542-1.3431458 3-3 3h-14c-.7393528.0016714-1.452655-.2729499-2-.77.6411361-.5630056 1.0060548-1.3767743 1-2.23v-3h3.36c.3381022.018544.6382474.2224888.78.53.46.84 2.02 1.47 3.86 1.47s3.4-.63 3.86-1.47c.1417526-.3075112.4418978-.511456.78-.53z" fill="#9e9e9e"/><path id="Shape" d="m51 52v3c0 1.6568542-1.3431458 3-3 3h3c1.6568542 0 3-1.3431458 3-3v-3z" fill="#707070"/><path id="Shape" d="m36 54v1c0 1.6568542-1.3431458 3-3 3h-30c-1.65685425 0-3-1.3431458-3-3v-1z" fill="#ff9801"/><path id="Shape" d="m36 54v1c-.0060328 1.6543489-1.3456511 2.9939672-3 3h-3c1.6568542 0 3-1.3431458 3-3v-1z" fill="#f57c00"/><path id="Rectangle-path" d="m0 37h36v17h-36z" fill="#ffe0b2"/><path id="Rectangle-path" d="m33 37h3v17h-3z" fill="#dfc49c"/><path id="Shape" d="m36 36v1h-36v-1c0-1.6568542 1.34314575-3 3-3h30c1.6568542 0 3 1.3431458 3 3z" fill="#ff9801"/><path id="Shape" d="m36 36v1h-3v-1c0-1.6568542-1.3431458-3-3-3h3c1.6568542 0 3 1.3431458 3 3z" fill="#f57c00"/><path id="Rectangle-path" d="m9 28h18v5h-18z" fill="#91562d"/><path id="Rectangle-path" d="m24 28h3v5h-3z" fill="#6d4122"/><path id="Shape" d="m27 26v2h-18v-2c0-2.209139 1.790861-4 4-4h10c2.209139 0 4 1.790861 4 4z" fill="#ff9801"/><path id="Shape" d="m23 22h-3c2.209139 0 4 1.790861 4 4v2h3v-2c0-2.209139-1.790861-4-4-4z" fill="#f57c00"/><path id="Shape" d="m27.712 44.506c-2.8 1.168-3.527 4.714-7.549 5.454s-6.668-.821-7.106-3.266 1.5-4.849 5.519-5.589 10.916 2.658 9.136 3.401z" fill="#008a00"/><path id="Shape" d="m18.576 41.105c-.049.009-.089.025-.137.034 3.712.565 7.672 2.783 6.273 3.367-2.8 1.168-3.527 4.714-7.549 5.454-.116.021-.218.022-.331.04 1.1034828.1899006 2.2323956.1763442 3.331-.04 4.022-.74 4.749-4.286 7.549-5.454 1.78-.743-5.112-4.141-9.136-3.401z" fill="#007900"/><path id="Shape" d="m51 26c0 6.9-2 9-7 9s-7-2.1-7-9 4-16 7-16 7 9.1 7 16z" fill="#008a00"/><path id="Shape" d="m44 10c-.5623153.0482375-1.0913999.2866783-1.5.676 2.68 2.205 5.5 9.524 5.5 15.324 0 6.163-1.6 8.489-5.5 8.919.4981566.0542374.9988996.0812775 1.5.081 5 0 7-2.1 7-9s-4-16-7-16z" fill="#007900"/></g><g id="Layer_2" fill="#000"><path id="Shape" d="m57 0h-24c-1.6568542 0-3 1.34314575-3 3 0 6.277-.307-.177 1.894 30h-2.894v-6c-.0033061-2.7600532-2.2399468-4.9966939-5-5h-10c-2.7600532.0033061-4.99669388 2.2399468-5 5v6h-5c-2.209139 0-4 1.790861-4 4v19c0 2.209139 1.790861 4 4 4h30c.7007481-.0041297 1.3878306-.1942765 1.991-.551.6086235.3593577 1.3022054.5495836 2.009.551h14c2.209139 0 4-1.790861 4-4v-7.241c.6086783-.320686 1.0111761-.9302796 1.067-1.616 3.383-46.268 2.933-38.521 2.933-44.143 0-1.65685425-1.3431458-3-3-3zm-24 2h24c.5522847 0 1 .44771525 1 1v3h-2v-1c0-.55228475-.4477153-1-1-1s-1 .44771525-1 1v1h-2v-1c0-.55228475-.4477153-1-1-1s-1 .44771525-1 1v1h-2v-1c0-.55228475-.4477153-1-1-1s-1 .44771525-1 1v1h-2v-1c0-.55228475-.4477153-1-1-1s-1 .44771525-1 1v1h-2v-1c0-.55228475-.4477153-1-1-1s-1 .44771525-1 1v1h-2v-1c0-.55228475-.4477153-1-1-1s-1 .44771525-1 1v1h-2v-3c0-.55228475.4477153-1 1-1zm-22 28h8c.5522847 0 1-.4477153 1-1s-.4477153-1-1-1h-8v-1c0-1.6568542 1.3431458-3 3-3h10c1.6568542 0 3 1.3431458 3 3v1h-4c-.5522847 0-1 .4477153-1 1s.4477153 1 1 1h4v3h-16zm-7 5h30c1.1045695 0 2 .8954305 2 2h-34c0-1.1045695.8954305-2 2-2zm50 17h-4.36c-.7042755.0157583-1.3420268.4198856-1.657 1.05-.8190011.7176373-1.8998308 1.0618506-2.983.95-1.0828988.1121813-2.16355-.2320905-2.982-.95-.3161689-.6294963-.9537637-1.0332807-1.658-1.05h-2.36v-3h16zm-52-13h34v15h-34zm2 19c-1.1045695 0-2-.8954305-2-2h34c0 1.1045695-.8954305 2-2 2zm48 0c-15.325 0-14.111.033-14.515-.076.64-1.155.515-1.9.515-3.924h2.258c1.433 2.622 7.93 2.712 9.492 0h4.25v2c0 1.1045695-.8954305 2-2 2zm3.07-11h-17.07v-10c.0003371-1.0784216-.4347897-2.1112905-1.2067044-2.864378s-1.815211-1.1625826-2.8932956-1.135622l-1.825-25h25.849z"/><path id="Shape" d="m29.941 44.778c-.648-2.187-7.384-4.243-10.545-3.657-4.049.745-6.589 3.257-6.387 6.211-1.229.248-2.6.482-4.135.676-.54433196.0734277-.92755464.5721434-.85834553 1.1170278s.56494138.9319586 1.11034553.8669722c1.656-.21 3.131-.463 4.447-.732 1.432 2.7 4.754 3.238 7.771 2.683 4.423-.814 5.27-4.478 7.753-5.514.6792381-.2341683 1.0519676-.9632874.844-1.651zm-8.959 5.2c-1.845.338-4.132.258-5.334-1.185 1.9423451-.4397421 3.8347966-1.0763671 5.648-1.9.4747657-.2579672.6587509-.8464152.4154904-1.3288817-.2432604-.4824665-.8257785-.6844423-1.3154904-.4561183-1.7310178.7676994-3.5333652 1.3632344-5.381 1.778.082-1.786 1.887-3.271 4.744-3.8 2.329-.429 6.045.789 7.774 1.9-2.477 1.52-3.265 4.385-6.551 4.991z"/><path id="Shape" d="m45 10c-3.969 0-8 9.891-8 17 0 6.763 1.983 9.645 7 9.968v3.032c0 .5522847.4477153 1 1 1s1-.4477153 1-1v-3.032c5.017-.323 7-3.205 7-9.968 0-7.109-4.031-17-8-17zm1 24.966v-3.552l2.707-2.707c.3789722-.3923789.3735524-1.0160848-.0121814-1.4018186s-1.0094397-.3911536-1.4018186-.0121814l-1.293 1.293v-3.172l2.707-2.707c.3789722-.3923789.3735524-1.0160848-.0121814-1.4018186s-1.0094397-.3911536-1.4018186-.0121814l-1.293 1.293v-4.586c0-.5522847-.4477153-1-1-1s-1 .4477153-1 1v4.586l-1.293-1.293c-.3923789-.3789722-1.0160848-.3735524-1.4018186.0121814s-.3911536 1.0094397-.0121814 1.4018186l2.707 2.707v3.172l-1.293-1.293c-.3923789-.3789722-1.0160848-.3735524-1.4018186.0121814s-.3911536 1.0094397-.0121814 1.4018186l2.707 2.707v3.552c-3.379-.219-5-1.751-5-7.966 0-7.706 4.366-15 6-15s6 7.294 6 15c0 6.215-1.621 7.747-5 7.966z"/></g></g></svg>