<svg height="512" viewBox="0 0 60 60" width="512" xmlns="http://www.w3.org/2000/svg"><g id="019---Skin-Layers" fill="none"><g id="Layer_3" transform="translate(1 1)"><path id="Shape" d="m26.1 18c-.4345486 2.6498064-.7349316 5.3198771-.9 8h-24.2c-.55228475 0-1-.4477153-1-1v-5c.0032948-1.1032019.89679813-1.9967052 2-2h11.08c-.03.57-.06 1.16-.08 1.77 0 .07-.01.14-.01.21v.02c.1997265 1.2429687 1.3259338 2.1203628 2.58 2.01 1.2856249.116747 2.4282237-.8168941 2.57-2.1 0-.66 0-1.3.01-1.91z" fill="#ffe0b2"/><path id="Shape" d="m58 20v5c0 .5522847-.4477153 1-1 1h-23.39c.04-2.99.09-5.64.15-8h8.33c-.04.57-.07 1.16-.09 1.77v.23c.2941341 1.1976023 1.3779193 2.0322287 2.6109245 2.010681s2.2869662-.8935327 2.5390755-2.100681c0-.66 0-1.3.01-1.91h8.84c1.1032019.0032948 1.9967052.8967981 2 2z" fill="#ffe0b2"/><path id="Shape" d="m56 18h-3c1.1032019.0032948 1.9967052.8967981 2 2v5c0 .5522847-.4477153 1-1 1h3c.5522847 0 1-.4477153 1-1v-5c-.0032948-1.1032019-.8967981-1.9967052-2-2z" fill="#dfc49c"/><path id="Shape" d="m58 48.63v8.37c0 .5522847-.4477153 1-1 1h-56c-.55228475 0-1-.4477153-1-1v-6.76c-.00237264-.311614.14211365-.606158.38998852-.7950151.24787487-.188857.57020418-.249982.87001148-.1649849 4.19455531 1.1592513 8.52823773 1.7379729 12.88 1.72 4.0829693-.0115162 8.1517553-.4811205 12.13-1.4 14.09-3.24 19.38-2.84 29.9-2.04.3.03.6.05.91.08.5185699.0382259.9198361.4700231.92.99z" fill="#ffeb3a"/><path id="Shape" d="m57.08 47.64c-.31-.03-.61-.05-.91-.08-4.0586251-.3858615-8.1341532-.566425-12.211-.541 2.838.06 5.739.277 9.211.541.3.03.6.05.91.08.5185699.0382259.9198361.4700231.92.99v8.37c0 .5522847-.4477153 1-1 1h3c.5522847 0 1-.4477153 1-1v-8.37c-.0001639-.5199769-.4014301-.9517741-.92-.99z" fill="#fdd834"/><path id="Shape" d="m58 31v11.63c-.0016623.2798312-.1204997.5461636-.3276477.7343071-.2071479.1881436-.4836523.2808831-.7623523.2556929l-.74-.06c-4.26-.34-7.67-.58-11.15-.56-5.1.03-10.37.67-18.75 2.6-3.9782447.9188795-8.0470307 1.3884838-12.13 1.4-4.54759783.0304269-9.07529857-.6029122-13.44-1.88-.41874438-.1316802-.70265792-.5210473-.7-.96v-13.16c0-.5522847.44771525-1 1-1h24.03c-.02.42-.02.83-.03 1.26v1.4c.1 1.86 1.98 3.34 4.28 3.34 2.37 0 4.3-1.57 4.3-3.5 0-.85 0-1.69.01-2.5h23.41c.5522847 0 1 .4477153 1 1z" fill="#ef314c"/><path id="Shape" d="m57 30h-3c.5522847 0 1 .4477153 1 1v11.63c-.0054362.3242454-.1723828.6243741-.445.8l1.615.127.74.06c.2781838.0251498.5542079-.0671934.7612559-.2546763.2070481-.187483.3262475-.4530165.3287441-.7323237v-11.63c0-.5522847-.4477153-1-1-1z" fill="#bb193b"/><path id="Shape" d="m35.01 0s-.86 3.04-1.25 18c-.06 2.36-.11 5.01-.15 8-.01 1.27-.02 2.6-.02 4-.01.81-.01 1.65-.01 2.5 0 1.93-1.93 3.5-4.3 3.5-2.3 0-4.18-1.48-4.28-3.34v-1.4c.01-.43.01-.84.03-1.26.03-1.4.09-2.73.17-4 .1650684-2.6801229.4654514-5.3501936.9-8 2.61-15.49 8.91-18 8.91-18z" fill="#a0522d"/><path id="Shape" d="m31.555 3.164c-.269 2.594-.594 7.136-.795 14.836-.06 2.36-.11 5.01-.15 8-.01 1.27-.02 2.6-.02 4-.01.81-.01 1.65-.01 2.5-.1125527 1.5869858-1.2491487 2.9139616-2.8 3.269.4856532.1514991.9912679.2293638 1.5.231 2.37 0 4.3-1.57 4.3-3.5 0-.85 0-1.69.01-2.5 0-1.4.01-2.73.02-4 .04-2.99.09-5.64.15-8 .39-14.96 1.25-18 1.25-18-1.3998607.74671113-2.5883194 1.83507103-3.455 3.164z" fill="#783e22"/><g fill="#a0522d"><path id="Shape" d="m19 1s-.77 2.14-.85 17c-.01.61-.01 1.25-.01 1.91-.1417763 1.2831059-1.2843751 2.216747-2.57 2.1-1.2540662.1103628-2.3802735-.7670313-2.58-2.01v-.02c0-.07.01-.14.01-.21.02-.61.05-1.2.08-1.77.91-14.85 5.92-17 5.92-17z"/><path id="Shape" d="m48.01 1s-.77 2.14-.85 17c-.01.61-.01 1.25-.01 1.91-.2521093 1.2071483-1.3060703 2.0791333-2.5390755 2.100681s-2.3167904-.8130787-2.6109245-2.010681v-.23c.02-.61.05-1.2.09-1.77.91-14.85 5.92-17 5.92-17z"/></g></g><g id="Layer_2" fill="#000"><path id="Shape" d="m57 18h-7.838c.107-13.082.749-15.544.794-15.689.1220268-.37357236.013928-.78398533-.2762901-1.04897644-.2902181-.26499112-.708743-.33542549-1.0697099-.18002356-.575.247-5.382 2.738-6.451 16.918h-6.377c.378-13.492 1.144-16.569 1.188-16.734.1012225-.36619673-.0138144-.75812344-.2968977-1.01152012-.2830833-.25339667-.6853097-.32448835-1.0381023-.18347988-.335.129-6.608 2.855-9.362 17.929h-6.117c.107-13.075.749-15.541.794-15.689.1232294-.37455277.0148561-.78655177-.2767191-1.05199321-.2915753-.26544144-.7119113-.33476377-1.0732809-.17700679-.576.247-5.387 2.741-6.451 16.918h-10.149c-1.65685425 0-3 1.3431458-3 3v5c0 1.1045695.8954305 2 2 2h23.15c-.034.654-.066 1.316-.089 2h-23.061c-1.1045695 0-2 .8954305-2 2v13.16c-.00791693.8812347.56640732 1.6620713 1.41 1.917 4.45857541 1.3063172 9.0840998 1.9541601 13.73 1.923 11.888 0 17.622-3.923 30.885-4 3.777-.029 7.756.29 11.8.617.5577861.0489962 1.1105682-.1380762 1.5239643-.5157396.4133961-.3776635.6495439-.9113285.6510357-1.4712604v-11.63c0-1.1045695-.8954305-2-2-2h-22.41c.004-.682.009-1.3486667.015-2h22.395c1.1045695 0 2-.8954305 2-2v-5c0-1.6568542-1.3431458-3-3-3zm-9.384-13.14c-.225 2.67-.454 7.478-.469 16.047 0 .6-.721 1.1-1.576 1.1-.821 0-1.542-.485-1.571-1.029.081-4.786.979-12.042 3.616-16.118zm-12.976-1.571c-.907 7.811-1.051 22.336-1.065 30.211 0 1.378-1.476 2.5-3.291 2.5-1.739 0-3.211-1.074-3.28-2.34-.004-9.169 1.207-23.872 7.636-30.371zm-16.03 1.571c-.225 2.67-.453 7.478-.468 16.047 0 .6-.722 1.1-1.577 1.1-.821 0-1.542-.485-1.571-1.029.106-4.858.97-12.028 3.616-16.118zm-16.61 21.14v-5c0-.5522847.44771525-1 1-1h10.034c-.011.243-.025.479-.034.729.0055737.9185894.3927486 1.7935241 1.068855 2.4153903.6761065.6218662 1.5802932.9346944 2.496145.8636097 1.839865.1199533 3.4341928-1.2617677 3.577-3.1 0-.311 0-.608 0-.909h5.8c-.277 1.831-.5 3.827-.663 6zm56 6v11.624c-12.392-1.005-17.552-1.084-30.949 2-8.2518217 1.9973663-16.8788042 1.8375755-25.051-.464v-13.16h23.01c0 .088-.005 1.714-.005 1.714.129 2.4 2.448 4.286 5.279 4.286 2.917 0 5.291-2.019 5.291-4.5 0-.514 0-1 0-1.5zm0-6h-22.374c.027-2.181.062-4.175.105-6h6.308c-.011.253-.027.5-.036.758.1848307 1.8079862 1.6882561 3.1946704 3.5052595 3.2330757 1.8170035.0384053 3.3776795-1.2835141 3.6387405-3.0820757 0-.311 0-.608 0-.909h7.853c.5522847 0 1 .4477153 1 1z"/><path id="Shape" d="m58.155 47.639c-12.275-1.022-17.595-1.122-31.108 1.986-8.0700798 1.9324118-16.494195 1.8262212-24.513-.309-.60188017-.1693265-1.24833414-.0465352-1.74621.3316854-.49787585.3782206-.78951888.9680721-.78779 1.5933146v6.759c0 1.1045695.8954305 2 2 2h56c1.1045695 0 2-.8954305 2-2v-8.367c-.0062016-1.042016-.8065993-1.9070528-1.845-1.994zm-.155 10.361h-56v-6.756c8.3387451 2.2225998 17.0993594 2.3363472 25.493.331 13.223-3.041 18.52-2.94 30.507-1.942z"/><circle id="Oval" cx="6" cy="35" r="1"/><circle id="Oval" cx="10" cy="35" r="1"/><circle id="Oval" cx="14" cy="35" r="1"/><circle id="Oval" cx="18" cy="35" r="1"/><circle id="Oval" cx="22" cy="35" r="1"/><circle id="Oval" cx="20" cy="38" r="1"/><circle id="Oval" cx="16" cy="38" r="1"/><circle id="Oval" cx="12" cy="38" r="1"/><circle id="Oval" cx="8" cy="38" r="1"/><circle id="Oval" cx="6" cy="41" r="1"/><circle id="Oval" cx="10" cy="41" r="1"/><circle id="Oval" cx="14" cy="41" r="1"/><circle id="Oval" cx="18" cy="41" r="1"/><circle id="Oval" cx="8" cy="44" r="1"/><circle id="Oval" cx="12" cy="44" r="1"/><circle id="Oval" cx="16" cy="44" r="1"/><circle id="Oval" cx="20" cy="44" r="1"/><circle id="Oval" cx="24" cy="44" r="1"/><circle id="Oval" cx="22" cy="41" r="1"/><circle id="Oval" cx="24" cy="38" r="1"/><circle id="Oval" cx="26" cy="41" r="1"/><circle id="Oval" cx="30" cy="41" r="1"/><circle id="Oval" cx="34" cy="41" r="1"/><circle id="Oval" cx="54" cy="35" r="1"/><circle id="Oval" cx="50" cy="35" r="1"/><circle id="Oval" cx="46" cy="35" r="1"/><circle id="Oval" cx="42" cy="35" r="1"/><circle id="Oval" cx="38" cy="35" r="1"/><circle id="Oval" cx="40" cy="38" r="1"/><circle id="Oval" cx="44" cy="38" r="1"/><circle id="Oval" cx="48" cy="38" r="1"/><circle id="Oval" cx="52" cy="38" r="1"/><circle id="Oval" cx="38" cy="41" r="1"/><circle id="Oval" cx="42" cy="41" r="1"/><circle id="Oval" cx="46" cy="41" r="1"/><circle id="Oval" cx="50" cy="41" r="1"/><circle id="Oval" cx="54" cy="41" r="1"/><circle id="Oval" cx="36" cy="38" r="1"/><path id="Shape" d="m55 51h-2c-.5522847 0-1 .4477153-1 1s.4477153 1 1 1h2c.5522847 0 1-.4477153 1-1s-.4477153-1-1-1z"/><path id="Shape" d="m50 52c0-.5522847-.4477153-1-1-1h-2c-.5522847 0-1 .4477153-1 1s.4477153 1 1 1h2c.5522847 0 1-.4477153 1-1z"/><path id="Shape" d="m44 52c0-.5522847-.4477153-1-1-1h-2c-.5522847 0-1 .4477153-1 1s.4477153 1 1 1h2c.5522847 0 1-.4477153 1-1z"/><path id="Shape" d="m38 52c0-.5522847-.4477153-1-1-1h-2c-.5522847 0-1 .4477153-1 1s.4477153 1 1 1h2c.5522847 0 1-.4477153 1-1z"/><path id="Shape" d="m52 54h-2c-.5522847 0-1 .4477153-1 1s.4477153 1 1 1h2c.5522847 0 1-.4477153 1-1s-.4477153-1-1-1z"/><path id="Shape" d="m46 54h-2c-.5522847 0-1 .4477153-1 1s.4477153 1 1 1h2c.5522847 0 1-.4477153 1-1s-.4477153-1-1-1z"/><path id="Shape" d="m40 54h-2c-.5522847 0-1 .4477153-1 1s.4477153 1 1 1h2c.5522847 0 1-.4477153 1-1s-.4477153-1-1-1z"/><path id="Shape" d="m34 54h-2c-.5522847 0-1 .4477153-1 1s.4477153 1 1 1h2c.5522847 0 1-.4477153 1-1s-.4477153-1-1-1z"/><path id="Shape" d="m28 54h-2c-.5522847 0-1 .4477153-1 1s.4477153 1 1 1h2c.5522847 0 1-.4477153 1-1s-.4477153-1-1-1z"/><path id="Shape" d="m22 54h-2c-.5522847 0-1 .4477153-1 1s.4477153 1 1 1h2c.5522847 0 1-.4477153 1-1s-.4477153-1-1-1z"/><path id="Shape" d="m16 54h-2c-.5522847 0-1 .4477153-1 1s.4477153 1 1 1h2c.5522847 0 1-.4477153 1-1s-.4477153-1-1-1z"/><path id="Shape" d="m10 54h-2c-.55228475 0-1 .4477153-1 1s.44771525 1 1 1h2c.5522847 0 1-.4477153 1-1s-.4477153-1-1-1z"/></g></g></svg>