<svg height="512" viewBox="0 0 60 60" width="512" xmlns="http://www.w3.org/2000/svg"><g id="026---Hand-Cream" fill="none"><g id="Layer_3" transform="translate(1 1)"><path id="Shape" d="m29.83 43h20.17c1.6568542 0 3 1.3431458 3 3v1h1c2.209139 0 4 1.790861 4 4 0 .5522847-.4477153 1-1 1h-8c2.7614237 0 5 2.2385763 5 5 0 .5522847-.4477153 1-1 1h-27.07c-2.5410326-.0009726-5.003538-.8806912-6.97-2.49l-18.59-15.21c-.23568065-.1857115-.37226355-.4699516-.37-.77v-19.54c-.00270108-.2660353.10178817-.5219616.28991326-.7100867s.4440514-.2926144.71008674-.2899133c4.07.03 19.14 1.04 20 14.01l5.15 6.03 3.389 3.97" fill="#ffe0b2"/><g fill="#dfc49c"><path id="Shape" d="m29.54 43c-.01-.01-.02-.03-.03-.04l-3.36-3.93-5.15-6.03c-.86-12.97-15.93-13.98-20-14.01-.16067605.0029833-.31834215.0441136-.46.12 5.79.5 16.73 2.9 17.46 13.89l5.15 6.03 3.36 3.93c.01.01.02.03.03.04z"/><path id="Shape" d="m49 52h-3c2.7614237 0 5 2.2385763 5 5 0 .5522847-.4477153 1-1 1h3c.5522847 0 1-.4477153 1-1 0-2.7614237-2.2385763-5-5-5z"/><path id="Shape" d="m54 47h-1v-1c0-1.6568542-1.3431458-3-3-3h-3c1.6568542 0 3 1.3431458 3 3v1h1c2.209139 0 4 1.790861 4 4 0 .5522847-.4477153 1-1 1h3c.5522847 0 1-.4477153 1-1 0-2.209139-1.790861-4-4-4z"/></g><path id="Shape" d="m29.539 43-3.389-3.97c.6309601-1.8666652 2.0830833-3.340902 3.94-4-.3-1.77.04-3.52 2.16-4.23 5.87-1.96 3.43-5.72 3.43-5.72 6.83 1.43 11.67 6.08 10.68 9.53-.0324089.1191329-.0724926.2360438-.12.35 2.43 1.49 2.77 5.69 2.7602095 8.04h-19.1702095" fill="#009688"/><path id="Shape" d="m46.24 34.96c.0475074-.1139562.0875911-.2308671.12-.35.99-3.45-3.85-8.1-10.68-9.53.1888238.3236586.3267683.674422.409 1.04 4.945 2 8.086 5.65 7.271 8.49-.0324089.1191329-.0724926.2360438-.12.35 2.43 1.49 2.77 5.69 2.76 8.04h3c.01-2.35-.33-6.55-2.76-8.04z" fill="#00695c"/><path id="Rectangle-path" d="m29 0h18v9h-18z" fill="#009688"/><path id="Rectangle-path" d="m44 0h3v9h-3z" fill="#00695c"/><path id="Shape" d="m47 9-6 6h-6l-6-6z" fill="#f5f5f5"/><path id="Shape" d="m44 9-6 6h3l6-6z" fill="#cfd8dc"/><path id="Shape" d="m41 15v4c-.0032948 1.1032019-.8967981 1.9967052-2 2h-2c-1.1032019-.0032948-1.9967052-.8967981-2-2v-4z" fill="#9e9e9e"/><path id="Shape" d="m38 15v4c-.0038609.9088331-.6200161 1.7007979-1.5 1.928.1627756.0458819.3308924.0700907.5.072h2c1.1032019-.0032948 1.9967052-.8967981 2-2v-4z" fill="#707070"/></g><g id="Layer_2" fill="#000"><path id="Shape" d="m55 47c.0000096-1.063818-.4237506-2.0838184-1.1775769-2.8344545-.7538263-.7506362-1.7756147-1.1700667-2.8394231-1.1655455-.1-2.685-.677-5.759-2.59-7.42.2345539-1.3689489-.0634822-2.7757651-.833-3.932-1.811-3-6-5.57-10.679-6.549-.3938687-.0827712-.7989745.0786474-1.027986.4096116s-.2372927.7669666-.021014 1.1063884c.342637.5914514.4258609 1.2981311.23 1.953-.333.922-1.414 1.711-3.128 2.283-1.9856918.584343-3.230595 2.5500923-2.91 4.595-1.2724166.6115164-2.3577214 1.5528275-3.143 2.726l-3.91-4.572c-.353-3.8-2.963-14.784-20.959-14.61-.5329952-.0048141-1.04573112.2039659-1.42375665.5797368-.37802552.3757709-.58986895.8872487-.58824335 1.4202632v19.536c-.00105195.6002319.26860598 1.1689382.734 1.548l18.593 15.214c2.1457137 1.7517334 4.8300449 2.7096157 7.6 2.712h27.073c1.1045695 0 2-.8954305 2-2-.0003999-1.4780119-.5491415-2.9033147-1.54-4h3.54c1.1045695 0 2-.8954305 2-2-.0033061-2.7600532-2.2399468-4.9966939-5-5zm-23.487-10.06c1.9932986-.8212431 4.1041391-1.3214455 6.254-1.482.3572656-.0201855.6766238-.2294366.8377754-.5489304.1611516-.3194939.139614-.7006917-.0565-1-.196114-.2993084-.5370098-.4712551-.8942754-.4510696-1.9171322.1425588-3.8092135.5221171-5.633 1.13.0575882-.8860193.6835032-1.632178 1.546-1.843 2.6-.867 4.849-2.521 4.592-5.258 3.445 1.052 6.363 3 7.688 5.192.5365306.7738648.7367522 1.7320422.555 2.656-.573 1.955-3.649 3.3-5.56 3.731-.5282942.1302832-.8554652.6590526-.7362764 1.1899598s.6409891.8690823 1.1742764.7610402c.2-.044 4.279-.986 6.208-3.5 1.112 1.392 1.421 3.822 1.492 5.483h-17.972l-2.732-3.2c.6807572-1.3266284 1.8366106-2.3478644 3.237-2.86zm5.487 15.06c-.5522847 0-1 .4477153-1 1s.4477153 1 1 1h13c2.209139 0 4 1.790861 4 4h-27.073c-2.3081862-.0020363-4.5450075-.8002703-6.333-2.26l-18.594-15.214v-19.539c4.254.037 18.2 1.089 19 13.079.032.47-.539-.326 8.737 10.528 1.4608088 1.7875857 2.2601167 4.0244471 2.263 6.333.0020142.1769801-.0979072.33935-.2568068.4173048s-.3484625.0576034-.4871932-.0523048c-3.972-3.183-11.187-8.741-14.885-10.22-.334482-.1472115-.7226291-.1002429-1.0123439.1225007-.2897148.2227437-.4348532.5857852-.3785418.9468647.0563113.3610796.3051034.6626865.6488857.7866346 2.525 1.011 7.766 4.628 14.377 9.924.7388169.590346 1.7507211.7046856 2.6026395.294084.8519184-.4106017 1.3928783-1.2733798 1.3913605-2.219084-.0023034-2.0781503-.5432265-4.1202211-1.57-5.927h18.57c1.1045695 0 2 .8954305 2 2h-16c-.5522847 0-1 .4477153-1 1s.4477153 1 1 1h18c1.6568542 0 3 1.3431458 3 3z"/><path id="Shape" d="m38 23h2c1.6568542 0 3-1.3431458 3-3v-3.586l5.706-5.706c.1868731-.188434.292425-.4426202.294-.708v-9c0-.55228475-.4477153-1-1-1h-18c-.5522847 0-1 .44771525-1 1 0 9.849-.033 9.116.077 9.382s-.339-.229 5.923 6.032v3.586c0 1.6568542 1.3431458 3 3 3zm3.586-8h-5.172l-4-4h13.172zm-1.586 6h-2c-.5522847 0-1-.4477153-1-1v-3h4v3c0 .5522847-.4477153 1-1 1zm-9-19h16v7h-16z"/></g></g></svg>