<svg height="512" viewBox="0 0 46 60" width="512" xmlns="http://www.w3.org/2000/svg"><g id="027---Hand-Moisturising" fill="none"><g id="Layer_3" transform="translate(0 1)"><path id="Shape" d="m35.99 41.99.68-6.22v-.01" fill="#ffe0b2"/><path id="Shape" d="m44.76 30.21c-2.02 5.11-4.77 12.77-5.94 15.11-.7274061 1.6493311-1.7281461 3.1639648-2.96 4.48-1.63 1.58-3.78 2.1-5.92 2.57-2.66.58-5.62 1.45-7.64 3.37-.5274193.5048249-.963816 1.0968359-1.29 1.75-.1717228.3194011-.5074155.5161865-.87.51h-11.78c-.30247925.0006955-.58901868-.1355586-.77939447-.3706144s-.26412714-.5436506-.20060553-.8393856c.49673111-2.7072137 1.32287053-5.3434716 2.46-7.85.9436534-1.8247676 2.3463764-3.3722433 4.07-4.49 1.63-1.15 3.45-2.1 5.09-3.16.5038179-.3366035.8044785-.9041004.8-1.51 0-2.18-.09-4.61.91-6.66.2186179-.4473967.4798241-.8726941.78-1.27.3943243-.5610949.9194842-1.0176065 1.53-1.33.95-.44 1.98-.09 1.98 1.15v2.01c.0016545-2.6747955 1.3368539-5.1726685 3.56-6.66.4824153-.3203153 1.1019263-.3492748 1.6121194-.0753597.510193.2739151.8283339.8062861.8278806 1.3853597v12.34l.85-10.75c.1551092-1.3910824.5941742-2.7355061 1.29-3.95.6590886-1.1436556 1.5812253-2.1137845 2.69-2.83 1.03-.63 2.2.3 2.05 1.64l-1.21 10.98c1.19-2.76 3.67-6.23 6.36-7.65 1.6-.84 2.4.42 1.73 2.1z" fill="#ffe0b2"/><path id="Shape" d="m43.03 28.11c-.3731656.2012657-.7311194.4295407-1.071.683.0628513.4817294-.0062744.9714847-.2 1.417-2.02 5.11-4.77 12.77-5.94 15.11-.7274061 1.6493311-1.7281461 3.1639648-2.96 4.48-1.63 1.58-3.78 2.1-5.92 2.57-2.66.58-5.62 1.45-7.64 3.37-.5274193.5048249-.963816 1.0968359-1.29 1.75-.1717228.3194011-.5074155.5161865-.87.5101417l3-.0001417c.3625845.0061865.6982772-.1905989.87-.51.326184-.6531641.7625807-1.2451751 1.29-1.75 2.02-1.92 4.98-2.79 7.64-3.37 2.14-.47 4.29-.99 5.92-2.57 1.2318539-1.3160352 2.2325939-2.8306689 2.96-4.48 1.17-2.34 3.92-10 5.94-15.11.671-1.68-.129-2.94-1.729-2.1z" fill="#dfc49c"/><path id="Shape" d="m36.66 35.8c0-.01.01-.02.01-.03v-.01" fill="#ffe0b2"/><path id="Shape" d="m21.55 31.57c-.029195.0917694-.0525747.1852882-.07.28h.01c-.3001759.3973059-.5613821.8226033-.78 1.27-1 2.05-.91 4.48-.91 6.66.0044785.6058996-.2961821 1.1733965-.8 1.51-1.64 1.06-3.46 2.01-5.09 3.16-.2891567-.578549-.6670607-1.1082895-1.12-1.57-1.38-1.41-3.54-1.95-5.23-2.91-1.91109673-.9804598-3.48265869-2.5136909-4.51-4.4-.71714903-1.6551015-1.14664498-3.4204314-1.27-5.22-.31-2.6-.61-10.84-.78-16.34-.06-1.8 1.13-2.71 2.34-1.38 2.15136034 2.719307 3.43683881 6.021837 3.69 9.48l2.59-10.77c.31-1.31 1.73-1.79 2.48-.85.8010918 1.0474445 1.3394631 2.2716392 1.57 3.57.2542594 1.3762284.2133572 2.7907629-.12 4.15l-2.53 10.53 4.27-11.88c.177072-.4932954.610973-.8493229 1.1293489-.9266612.518376-.0773384 1.0373023.1365334 1.3506511.5566612 1.4100679 1.9069304 1.7984567 4.3829089 1.04 6.63l.37-1.02c.1951799-.4787013.6318334-.8161698 1.144279-.8843581.5124455-.0681883 1.0221528.1433531 1.335721.5543581.7731962.9065623 1.2296098 2.0405746 1.3 3.23.24 2.26-.63 4.53-1.41 6.57z" fill="#ffe0b2"/><path id="Shape" d="m22.96 25c-.0703902-1.1894254-.5268038-2.3234377-1.3-3.23-.3135682-.411005-.8232755-.6225464-1.335721-.5543581-.5124456.0681883-.9490991.4056568-1.144279.8843581l-.086.237c.4874562.8102447.7836377 1.7210199.866 2.663.24 2.26-.63 4.53-1.41 6.57-.029195.0917694-.0525747.1852882-.07.28h.01c-.3001759.3973059-.5613821.8226033-.78 1.27-1 2.05-.91 4.48-.91 6.66.0044785.6058996-.2961821 1.1733965-.8 1.51-.967.625-2 1.215-3.011 1.828.3635636.4021027.673171.8498736.921 1.332 1.63-1.15 3.45-2.1 5.09-3.16.5038179-.3366035.8044785-.9041004.8-1.51 0-2.18-.09-4.61.91-6.66.2186179-.4473967.4798241-.8726941.78-1.27h-.01c.0174253-.0947118.040805-.1882306.07-.28.78-2.04 1.65-4.31 1.41-6.57z" fill="#dfc49c"/><g fill="#ffe0b2"><path id="Shape" d="m16.1 30.69 2.67-7.43c.0179217-.045232.0313204-.0921274.04-.14"/><path id="Shape" d="m15.79 31.54.31-.85 2.67-7.43c.0179217-.045232.0313204-.0921274.04-.14"/><path id="Shape" d="m11.02 28.74-.34.96"/><path id="Shape" d="m7.03 22.13-1.45 6.05"/></g><path id="Shape" d="m37 12c0 3.8659932-3.1340068 7-7 7s-7-3.1340068-7-7c0-2.678 3.359-8.348 5.424-11 .377681-.48725814.9595072-.77241906 1.576-.77241906s1.198319.28516092 1.576.77241906c2.065 2.652 5.424 8.322 5.424 11z" fill="#02a9f4"/><path id="Shape" d="m31.576 1c-.3657637-.47081184-.9235192-.75261364-1.5195212-.76772683-.5960021-.01511319-1.1673232.23805793-1.5564788.68972683.024.028.053.048.076.078 2.065 2.652 5.424 8.322 5.424 11-.0011257 3.2870946-2.289261 6.1306227-5.5 6.835 2.0707531.45815 4.2375238-.0486208 5.8902888-1.3776383s2.6127597-3.3365339 2.6097112-5.4573617c0-2.678-3.359-8.348-5.424-11z" fill="#0377bc"/></g><g id="Layer_2" fill="#000"><path id="Shape" d="m30.146 54.344c5.13-1.1 6.964-2.337 9.57-7.577 1.2-2.423 3.968-10.108 5.975-15.19 1.064-2.66-.793-4.58-3.123-3.349-1.7358295 1.0071641-3.2339157 2.3769989-4.392 4.016l.7-6.356c.236-2.189-1.84-3.664-3.571-2.6-1.7115693 1.104558-3.0172902 2.7360071-3.72 4.648-.3682892-.5812955-.9558833-.9890666-1.6292978-1.1306795-.6734146-.1416129-1.3754782-.005045-1.9467022.3786795-1.3019538.8708071-2.3534332 2.0670804-3.05 3.47-.4744048-.2732803-1.030171-.3699814-1.569-.273.4907918-1.4463063.6816761-2.977464.561-4.5-.248-2.315-1.478-4.859-3.785-4.641-.104631-1.5691598-.6571444-3.0753834-1.592-4.34-.4333531-.590896-1.1134575-.9507824-1.8457693-.9767135-.7323118-.0259312-1.4361681.2849491-1.9102307.8437135.0351554-2.1265517-.6480014-4.2027986-1.939-5.893-1.268-1.593-3.72-.9-4.236 1.239l-1.543 6.428c-.61747656-2.0485308-1.64570701-3.9498384-3.022-5.588-1.8-1.972-4.173-.737-4.075 2.09.19 6.08.482 13.864.785 16.423.637 5.472 1.994 8.554 8.206 11.3 1.4062117.4510652 2.6549035 1.2932384 3.6 2.428-1.5424971 1.1287019-2.79486382 2.6076189-3.654 4.315-1.16717181 2.5794706-2.01995887 5.2899233-2.54 8.073-.12616277.5903182.02104765 1.2060389.40057788 1.6754527.37953023.4694139.9507728.7422964 1.55442212.7425473h11.783c.7396508.0070776 1.420612-.4018083 1.762-1.058 1.425-2.788 5.177-3.927 8.246-4.598zm-22.092-14.244c-4-2.273-4.781-4.587-5.28-8.867-.23-1.942-.5-7.714-.773-16.254-.03277367-.3396647.03283408-.6815887.189-.985.665.1 3.527 4.388 3.835 9.028l-1.425 5.921c-.12895847.5373731.20212696 1.0775415.73950001 1.2065s1.07754148-.202127 1.20649999-.7395l4.037-16.833c.1-.4.483-.763.724-.467 1.4283356 1.9856717 1.8945058 4.505778 1.271 6.871-2.878 11.995-2.378 10.094-2.842 11.382-.18694839.5199761.08302391 1.0930516.603 1.28.5199761.1869484 1.0930516-.0830239 1.28-.603l4.616-12.84c.0514288-.1464799.1798026-.2523913.3333859-.2750511s.3070739.041665.3986141.1670511c1.2315252 1.658295 1.560432 3.8194146.878 5.769l-2.994 8.339c-.1277293.3378816-.063313.7183846.1685131.9953961.2318261.2770116.595024.4074695.950126.341278.355102-.0661914.6469066-.3187426.7633609-.6606741 3.645-10.142 3.405-9.614 3.575-9.652.2425843-.0174639.4799396.0763742.645.255.6092428.744091.9629962 1.6644107 1.009 2.625.271 2.512-1.093 5.235-1.393 6.293-1.828 2.549-1.768 5.269-1.768 8.381 0 .825-.725.753-4.58 3.258-1.687-2.364-4.141-2.787-6.167-3.936zm12.084 17.9h-11.782c2.218-10.536 4.244-10.423 11.182-14.872.7942361-.5160812 1.2701176-1.4018544 1.262-2.349 0-2.071-.089-4.381.805-6.22.3671743-.8879496 1.0096961-1.6345788 1.833-2.13.1460894-.0878801.3221402-.1110638.486-.064.11.07.074-.061.074 10.333 0 .5522847.4477153 1 1 1s1-.4477153 1-1v-8.02c-.0029553-2.341093 1.1674225-4.5279009 3.117-5.824.1740693-.1168408.3984051-.1280961.583295-.0292648s.3001567.2916182.299705.5012648v13.374c0 .5522847.4477153 1 1 1s1-.4477153 1-1c0-1.4-.119.523.843-11.669.2132123-2.4364477 1.502874-4.6505443 3.517-6.038.328-.2.571.265.527.68l-1.891 17.205c-.0391206.355122.1141858.7041388.4021702.9155793.2879844.2114404.6668951.2531815.994.1095.327105-.1436816.5527092-.4509573.5918298-.8060793l.664-6.033c1.121-2.588 3.461-5.81 5.854-7.066.1435054-.0772645.2969375-.1344651.456-.17.0868131.3403025.0425535.7008039-.124 1.01-4.123 10.447-5.813 16.491-8.669 19.247-1.395 1.349-3.288 1.841-5.441 2.3-3.74.822-7.838 2.19-9.584 5.615z"/><path id="Shape" d="m30 21c4.4162219-.0049599 7.9950401-3.5837781 8-8 0-3.094-3.67-9.091-5.635-11.614-.5667009-.73129139-1.4398314-1.15928644-2.365-1.15928644s-1.7982991.42799505-2.365 1.15928644c-1.965 2.523-5.635 8.52-5.635 11.614.0049599 4.4162219 3.5837781 7.9950401 8 8zm-.787-18.386c.1879752-.24430457.4787479-.38745892.787-.38745892s.5990248.14315435.787.38745892c2.126 2.73 5.213 8.133 5.213 10.386 0 3.3137085-2.6862915 6-6 6s-6-2.6862915-6-6c0-2.253 3.087-7.656 5.213-10.386z"/><path id="Shape" d="m28.758 16.97c.3498693.0959435.72426-.0051249.9783171-.2641012.2540571-.2589762.3479281-.635236.2452935-.9832013-.1026346-.3479652-.385675-.6130526-.7396106-.6926975-.6620901-.0919912-1.2443405-.4852041-1.577-1.065-.2483011-.8389455-.1656318-1.7411499.231-2.521.2460429-.494571.044571-1.0949571-.45-1.341-.494571-.24604286-1.0949571-.044571-1.341.45-.66752 1.3178079-.7612389 2.8527711-.259 4.242.5733286 1.1436762 1.6526369 1.9498216 2.912 2.175z"/></g></g></svg>