<svg height="512" viewBox="0 0 60 59" width="512" xmlns="http://www.w3.org/2000/svg"><g id="029---Hair-Follicle-Moisturising" fill="none"><g id="Layer_3" transform="translate(1 1)"><path id="Shape" d="m57 30h-16.47c2.8486708 5.4697078 1.4623062 12.1881752-3.3188431 16.0834597-4.7811492 3.8952844-11.6411646 3.8952844-16.4223138 0-4.7811493-3.8952845-6.1675139-10.6137519-3.3188431-16.0834597h-16.47c-.55228475 0-1 .4477153-1 1v26c0 .5522847.44771525 1 1 1h56c.5522847 0 1-.4477153 1-1v-26c0-.5522847-.4477153-1-1-1z" fill="#ffe0b2"/><path id="Shape" d="m57 30h-3c.5522847 0 1 .4477153 1 1v26c0 .5522847-.4477153 1-1 1h3c.5522847 0 1-.4477153 1-1v-26c0-.5522847-.4477153-1-1-1z" fill="#dfc49c"/><path id="Shape" d="m23.232 30.466c-2.9044972 3.0250463-2.9800152 7.7795808-.1730547 10.8953443s7.5435687 3.535101 10.8542649.960941c3.3106963-2.5741601 4.0716551-7.2680117 1.7437898-10.7562853-2.1834817-3.1151967-3.158826-6.9184709-2.744-10.7.5943034-5.5792619 2.0348178-11.03547998 4.272-16.181.2083477-.45150922.053286-.98751089-.3639439-1.25804468-.41723-.27053379-.9698528-.19339801-1.2970561.18104468-3.125 3.622-6.747 9.774-8.483 19.71-.5279947 2.7093552-1.8545456 5.1987714-3.809 7.148z" fill="#a0522d"/><path id="Shape" d="m37.185 4.685c.2083477-.45150922.053286-.98751089-.3639439-1.25804468-.41723-.27053379-.9698528-.19339801-1.2970561.18104468-.7268565.84731322-1.4043114 1.73578423-2.029 2.661-1.8100667 4.6917589-3.0137958 9.5953925-3.582 14.592-.414826 3.7815291.5605183 7.5848033 2.744 10.7 1.4899018 2.234161 1.7580124 5.0672817.7136632 7.5412699-1.0443491 2.4739882-3.2614988 4.2580014-5.9016632 4.7487301 3.1691725.6182935 6.399347-.7291975 8.1896236-3.4163616 1.7902767-2.687164 1.7896363-6.1871296-.0016236-8.8736384-2.1834817-3.1151967-3.158826-6.9184709-2.744-10.7.5948021-5.5775598 2.0353068-11.03205534 4.272-16.176z" fill="#783e22"/><path id="Shape" d="m22 14.424c.0331257 3.0492247-1.5746304 5.8811067-4.2099539 7.4153617s-5.8917687 1.534255-8.52709219 0c-2.63532351-1.534255-4.24307956-4.366137-4.20995391-7.4153617 0-3.282 4.066-10.229 6.565-13.477.4539708-.59538138 1.1597888-.94479288 1.9085-.94479288s1.4545292.3494115 1.9085.94479288c2.499 3.253 6.565 10.195 6.565 13.477z" fill="#02a9f4"/><path id="Shape" d="m15.435.947c-.3919718-.51410738-.9747755-.84833811-1.6164589-.92701915s-1.2879725.10484251-1.7925411.50901915c.1524818.12256073.2897867.26288701.409.418 2.499 3.253 6.565 10.195 6.565 13.477.0163263 4.1263249-2.9180472 7.6750066-6.974 8.434.4947645.0919738.9967657.1394965 1.5.142 4.7080309-.0286333 8.5016974-3.8679635 8.474-8.576 0-3.282-4.066-10.224-6.565-13.477z" fill="#0377bc"/></g><g id="Layer_2" fill="#000"><path id="Shape" d="m59 30h-17.47c-.3496701.0001253-.6738774.1828858-.8550123.4819833-.181135.2990976-.192885.6710837-.0309877.9810167 2.6284702 5.0489551 1.3481932 11.2498324-3.064987 14.8449185-4.4131803 3.5950861-10.7448457 3.5950861-15.158026 0-4.4131802-3.5950861-5.6934572-9.7959634-3.064987-14.8449185.1618973-.309933.1501473-.6819191-.0309877-.9810167-.1811349-.2990975-.5053422-.481858-.8550123-.4819833h-17.47c-.55228475 0-1 .4477153-1 1s.44771525 1 1 1h15.925c-2.2314115 5.8299692-.3334163 12.4329017 4.6532154 16.1880639s11.8569375 3.7551622 16.8435692 0 6.8846269-10.3580947 4.6532154-16.1880639h15.925c.5522847 0 1-.4477153 1-1s-.4477153-1-1-1z"/><path id="Shape" d="m35.768 3.955c-2.966 3.437-6.885 9.729-8.712 20.191-.4959469 2.5123088-1.7298635 4.8196352-3.544 6.627-3.2679795 3.4031045-3.3531588 8.7522781-.1951896 12.2577083 3.1579692 3.5054301 8.4869914 3.9770621 12.2115309 1.0807515 3.7245396-2.8963107 4.5801566-8.1772986 1.9606587-12.1014598-2.0618272-2.9094572-2.9831676-6.4748916-2.589-10.019.5921238-5.4741999 2.0046035-10.8281384 4.19-15.882.4166954-.90301843.106572-1.97502179-.7278879-2.51608936-.8344598-.54106758-1.9397055-.38679602-2.5941121.36208936zm-2.846 17.775c-.4413947 4.0223578.5887862 8.0684819 2.9 11.39 2.0373066 3.051958 1.3720361 7.1591724-1.5245131 9.4119638-2.8965491 2.2527913-7.041134 1.8864423-9.4976006-.8395138-2.4564667-2.7259562-2.3909597-6.8861851.1501137-9.53345 2.0910927-2.0936802 3.5093488-4.7640968 4.073-7.669 1.751-10.012 5.457-15.983 8.256-19.229-2.2715888 5.2395595-3.7404222 10.7915947-4.357 16.469z"/><circle id="Oval" cx="6" cy="37" r="1"/><circle id="Oval" cx="12" cy="37" r="1"/><circle id="Oval" cx="3" cy="41" r="1"/><circle id="Oval" cx="9" cy="41" r="1"/><circle id="Oval" cx="6" cy="45" r="1"/><circle id="Oval" cx="12" cy="45" r="1"/><circle id="Oval" cx="3" cy="49" r="1"/><circle id="Oval" cx="9" cy="49" r="1"/><circle id="Oval" cx="15" cy="49" r="1"/><circle id="Oval" cx="6" cy="53" r="1"/><circle id="Oval" cx="12" cy="53" r="1"/><circle id="Oval" cx="18" cy="53" r="1"/><circle id="Oval" cx="24" cy="53" r="1"/><circle id="Oval" cx="30" cy="53" r="1"/><circle id="Oval" cx="54" cy="37" r="1"/><circle id="Oval" cx="48" cy="37" r="1"/><circle id="Oval" cx="57" cy="41" r="1"/><circle id="Oval" cx="51" cy="41" r="1"/><circle id="Oval" cx="54" cy="45" r="1"/><circle id="Oval" cx="48" cy="45" r="1"/><circle id="Oval" cx="57" cy="49" r="1"/><circle id="Oval" cx="51" cy="49" r="1"/><circle id="Oval" cx="45" cy="49" r="1"/><circle id="Oval" cx="54" cy="53" r="1"/><circle id="Oval" cx="48" cy="53" r="1"/><circle id="Oval" cx="42" cy="53" r="1"/><circle id="Oval" cx="36" cy="53" r="1"/><circle id="Oval" cx="3" cy="57" r="1"/><circle id="Oval" cx="9" cy="57" r="1"/><circle id="Oval" cx="15" cy="57" r="1"/><circle id="Oval" cx="21" cy="57" r="1"/><circle id="Oval" cx="27" cy="57" r="1"/><circle id="Oval" cx="51" cy="57" r="1"/><circle id="Oval" cx="57" cy="57" r="1"/><circle id="Oval" cx="45" cy="57" r="1"/><circle id="Oval" cx="39" cy="57" r="1"/><circle id="Oval" cx="33" cy="57" r="1"/><path id="Shape" d="m11.825 1.337c-2.361 3.07-6.772 10.354-6.772 14.087-.03501208 3.4077479 1.76293036 6.5717261 4.70842967 8.2857873 2.94549933 1.7140612 6.58464133 1.7140612 9.53014063 0s4.7434418-4.8780394 4.7084297-8.2857873c0-3.733-4.411-11.017-6.772-14.087-.6432509-.84175139-1.6421053-1.33556358-2.7015-1.33556358s-2.0582491.49381219-2.7015 1.33556358zm2.701 21.663c-4.1537336-.0330169-7.49684238-3.4222036-7.473-7.576 0-2.852 3.7-9.416 6.358-12.868.2646855-.34901691.6774689-.55403325 1.1155-.55403325s.8508145.20501634 1.1155.55403325c2.658 3.452 6.358 10.016 6.358 12.868.0232888 4.1539593-3.3201067 7.5429831-7.474 7.576z"/><path id="Shape" d="m13.561 18.262c-.8647133-.1284618-1.6204972-.6517821-2.045-1.416-.3353332-1.0947067-.2361331-2.276513.277-3.3.2196532-.4910137.0115376-1.0678146-.471024-1.305462s-1.0666589-.0509883-1.321976.422462c-.056.111-1.34 2.762-.3 5.014.6655556 1.3229174 1.9131866 2.2569746 3.37 2.523.346369.0877087.7132192-.0160308.9623616-.2721408.2491425-.25611.3427266-.6256813.2455-.9695-.0972265-.3438187-.3704926-.6096505-.7168616-.6973592z"/><path id="Shape" d="m44.293 17.707c.3904999.3903819 1.0235001.3903819 1.414 0l1-1c.3789722-.3923789.3735524-1.0160848-.0121814-1.4018186s-1.0094397-.3911536-1.4018186-.0121814l-1 1c-.3903819.3904999-.3903819 1.0235001 0 1.414z"/><path id="Shape" d="m40.293 20.293-1 1c-.3789722.3923789-.3735524 1.0160848.0121814 1.4018186s1.0094397.3911536 1.4018186.0121814l1-1c.3789722-.3923789.3735524-1.0160848-.0121814-1.4018186s-1.0094397-.3911536-1.4018186-.0121814z"/><path id="Shape" d="m44.293 21.707c1.06 1.061 1.187 1.293 1.707 1.293.4043959-.0000863.7689341-.2437275.923678-.6173454.1547439-.373618.0692299-.8036603-.216678-1.0896546l-1-1c-.3923789-.3789722-1.0160848-.3735524-1.4018186.0121814s-.3911536 1.0094397-.0121814 1.4018186z"/><path id="Shape" d="m41.707 16.293-1-1c-.3923789-.3789722-1.0160848-.3735524-1.4018186.0121814s-.3911536 1.0094397-.0121814 1.4018186l1 1c.3923789.3789722 1.0160848.3735524 1.4018186-.0121814s.3911536-1.0094397.0121814-1.4018186z"/><path id="Shape" d="m51 7c.53 0 .675-.261 1.707-1.293.2599566-.25107447.3642126-.62287789.2726972-.97250732-.0915155-.34962944-.3645604-.6226744-.7141899-.71418984-.3496294-.09151544-.7214328.01274058-.9725073.27269716l-1 1c-.2859079.28599425-.3714219.71603662-.216678 1.08965456s.5192821.61725909.923678.61734544z"/><path id="Shape" d="m45.293 11.707c.3904999.3903819 1.0235001.3903819 1.414 0l1-1c.3789722-.3923789.3735524-1.01608478-.0121814-1.40181858-.3857338-.38573379-1.0094397-.39115363-1.4018186-.01218142l-1 1c-.3903819.3904999-.3903819 1.0235001 0 1.414z"/><path id="Shape" d="m50.293 10.707c1.06 1.061 1.187 1.293 1.707 1.293.4043959-.0000863.7689341-.2437275.923678-.6173454.1547439-.373618.0692299-.8036603-.216678-1.0896546l-1-1c-.3923789-.37897221-1.0160848-.37355237-1.4018186.01218142-.3857338.3857338-.3911536 1.00943968-.0121814 1.40181858z"/><path id="Shape" d="m46.293 6.707c.3923789.37897221 1.0160848.37355237 1.4018186-.01218142.3857338-.3857338.3911536-1.00943969.0121814-1.40181858l-1-1c-.3923789-.37897221-1.0160848-.37355237-1.4018186.01218142-.3857338.3857338-.3911536 1.00943969-.0121814 1.40181858z"/></g></g></svg>