<svg height="512" viewBox="0 0 60 54" width="512" xmlns="http://www.w3.org/2000/svg"><g id="030---Target-Heart" fill="none"><g id="Layer_3" transform="translate(1 1)"><path id="Shape" d="m55.23 29.64c-2.96 4.37-7.4 7.42-11.45 10.68-4.71 3.77-9.39 7.5733333-14.04 11.41-.4276466.3600303-1.0523534.3600303-1.48 0-4.65-3.85-9.33-7.6533333-14.04-11.41-4.05-3.26-8.49-6.31-11.45-10.68-4.79-7.04-2.98-17.3 3.71-22.49 6.8-5.28 16.76-3.52 21.72 3.37.1850446.2576092.4828187.4103479.8.4103479s.6149554-.1527387.8-.4103479c3.5191-4.83728453 9.4911019-7.24084057 15.38-6.19l-5 5c-2.5347418.54712569-4.7802478 2.0061708-6.31 4.1-1.1220184 1.5656532-2.928694 2.4959685-4.8548767 2.4999318-1.9261826.0039634-3.7366714-.9189092-4.8651233-2.4799318-2.0107971-2.7494124-5.2137464-4.37318142-8.62-4.37-2.1661238-.01387781-4.2746499.69717771-5.99 2.02-4.65 3.61-5.88 10.96-2.63 15.74 2.01 2.96 5.05 5.35 8.28 7.87.73.57 10.1 8.08 13.81 11.14 3.72-3.08 13.08-10.57 13.81-11.14 3.23-2.52 6.27-4.91 8.29-7.88 2.2524936-3.605329 2.4237781-8.134854.45-11.9l3.68-3.67c3.5949739 5.5993066 3.5949739 12.7806934 0 18.38z" fill="#ef314c"/><path id="Shape" d="m55.23 11.26-1.948 1.94c2.5320492 5.2900804 2.1336639 11.5157976-1.052 16.44-2.96 4.37-7.4 7.42-11.45 10.68-4.4533333 3.5653333-8.88 7.161-13.28 10.787.253.209.508.414.76.623.4276466.3600303 1.0523534.3600303 1.48 0 4.65-3.85 9.33-7.6533333 14.04-11.41 4.05-3.26 8.49-6.31 11.45-10.68 3.5949739-5.5993066 3.5949739-12.7806934 0-18.38z" fill="#bb193b"/><path id="Shape" d="m51.1 26.83c-2.02 2.97-5.06 5.36-8.29 7.88-.73.57-10.09 8.06-13.81 11.14-3.71-3.06-13.08-10.57-13.81-11.14-3.23-2.52-6.27-4.91-8.28-7.87-3.25-4.78-2.02-12.13 2.63-15.74 1.7153501-1.32282229 3.8238762-2.03387781 5.99-2.02 3.4062536-.00318142 6.6092029 1.6205876 8.62 4.37 1.1284519 1.5610226 2.9389407 2.4838952 4.8651233 2.4799318 1.9261827-.0039633 3.7328583-.9342786 4.8548767-2.4999318 1.5297522-2.0938292 3.7752582-3.55287431 6.31-4.1l-.18.18 2 6.49 6.48 2 3.07-3.07c1.9737781 3.765146 1.8024936 8.294671-.45 11.9z" fill="#9d27b0"/><path id="Shape" d="m51.55 14.93-2.17 2.17c1.0261673 3.2736476.557911 6.8331273-1.28 9.73-2.02 2.97-5.06 5.36-8.29 7.88-.646.5-8.038 6.418-12.312 9.91.56.456 1.072.875 1.5 1.23 3.72-3.08 13.08-10.57 13.81-11.14 3.23-2.52 6.27-4.91 8.29-7.88 2.2531283-3.6049691 2.4251744-8.1345024.452-11.9z" fill="#6a1b9a"/><path id="Shape" d="m58 8.49-2.77 2.77-3.68 3.67-3.07 3.07-6.48-2-2-6.49.18-.18 5-5 4.33-4.33 2.12 6.36z" fill="#ffeb3a"/><path id="Shape" d="m51.63 6.36-2.12-6.36-2.25 2.25 1.37 4.11 6.37 2.13-2.77 2.77-3.68 3.67-2.362 2.362 2.292.708 3.07-3.07 3.68-3.67 2.77-2.77z" fill="#fdd834"/><path id="Shape" d="m22 26h4v-4c0-.5522847.4477153-1 1-1h4c.5522847 0 1 .4477153 1 1v4h4c.5522847 0 1 .4477153 1 1v4c0 .5522847-.4477153 1-1 1h-4v4c0 .5522847-.4477153 1-1 1h-4c-.5522847 0-1-.4477153-1-1v-4h-4c-.5522847 0-1-.4477153-1-1v-4c0-.5522847.4477153-1 1-1z" fill="#f5f5f5"/><g fill="#cfd8dc"><path id="Shape" d="m29 36c0 .5522847-.4477153 1-1 1h3c.5522847 0 1-.4477153 1-1v-4h-3z"/><path id="Shape" d="m29 22v4h3v-4c0-.5522847-.4477153-1-1-1h-3c.5522847 0 1 .4477153 1 1z"/><path id="Shape" d="m36 26h-3c.5522847 0 1 .4477153 1 1v4c0 .5522847-.4477153 1-1 1h3c.5522847 0 1-.4477153 1-1v-4c0-.5522847-.4477153-1-1-1z"/></g></g><g id="Layer_2" fill="#000"><path id="Shape" d="m55.463 4.536c-.3904999-.39038194-1.0235001-.39038194-1.414 0l-.978.977-1.61-4.829c-.1096918-.32849666-.3815435-.57685053-.7185919-.65647948-.3370483-.07962894-.6913025.02080506-.9364081.26547948l-3.976 3.976c-6.1042407-.90810693-12.2054235 1.6634309-15.818 6.667-5.206-7.236-15.793-9.285-23.145-3.576-7.147 5.54-8.944 16.463-3.926 23.84 3.6 5.3 7.247 7.056 25.683 22.3.7973849.6655063 1.9566151.6655063 2.754 0 18.515-15.312 22.094-17.008 25.68-22.3 3.6709072-5.6814511 3.8336896-12.9447949.421-18.785l2.226-2.226c.2446744-.24510564.3451084-.59935981.2654795-.93640814-.079629-.33704834-.3279828-.60890005-.6564795-.71859186l-4.828-1.61.977-.977c.3883868-.39015388.3883868-1.02084612 0-1.411zm-5.388-1.685 1.415 4.243-8.025 8.026-1.334-4.32zm2.139 14.832c1.1967481 3.1672326.848438 6.7113437-.942 9.585-2.733 4.02-6.035 5.763-21.272 18.287-15.572-12.764-18.577-14.322-21.263-18.278-2.966-4.362-1.837-11.085 2.414-14.385 2.0297021-1.4707685 4.5617937-2.0721516 7.0360623-1.6710964 2.4742686.4010553 4.6867478 1.7714878 6.1479377 3.8080964 1.3162726 1.8221521 3.4282268 2.9004781 5.6760715 2.8981007s4.3575132-1.0851684 5.6699285-2.9101007c1.1504492-1.5799668 2.7613859-2.7654654 4.612-3.394l1.572 5.1-7.865 7.863v-1.586c0-1.1045695-.8954305-2-2-2h-4c-1.1045695 0-2 .8954305-2 2v3h-3c-1.1045695 0-2 .8954305-2 2v4c0 1.1045695.8954305 2 2 2h3v3c0 1.1045695.8954305 2 2 2h4c1.1045695 0 2-.8954305 2-2v-3h3c1.1045695 0 2-.8954305 2-2v-4c0-1.1045695-.8954305-2-2-2h-1.588l7.867-7.867c6.489 2 5.992 1.867 6.2 1.867.544 0 .559-.141 2.735-2.317zm-25.214 14.317h-4v-4h4c.5522847 0 1-.4477153 1-1v-4h4v3.586l-2.707 2.707c-.2599566.2510745-.3642126.6228779-.2726972.9725073.0915155.3496295.3645604.6226744.7141899.7141899.3496294.0915154.7214328-.0127406.9725073-.2726972l2.705-2.707h3.588v4h-4c-.5522847 0-1 .4477153-1 1v4h-4v-4c0-.5522847-.4477153-1-1-1zm28.4-1.921c-3.375 4.982-6.927 6.687-25.3 21.879-.0585284.0537602-.1484716.0537602-.207 0-18.313-15.145-21.927-16.907-25.293-21.88-4.451-6.538-2.849-16.218 3.494-21.138 6.388-4.961 15.7-3.224 20.3 3.164.3869083.4967525.9813485.7872319 1.611.7872319s1.2240917-.2904794 1.611-.7872319c2.8634046-3.95352224 7.5165292-6.21025389 12.394-6.011l-3.339 3.34c-2.657436.641246-5.0003037 2.206466-6.61 4.416-.935341 1.3046824-2.4413487 2.0795759-4.0466687 2.0821524-1.60532.0025764-3.1138072-.7674791-4.0533313-2.0691524-1.7779586-2.4777064-4.4729151-4.14152454-7.484624-4.62087349-3.0117089-.47934896-6.0900461.26558146-8.549376 2.06887349-5.044 3.915-6.372 11.902-2.844 17.09 3.022 4.452 6.647 6.326 22.28 19.221.3698962.3060662.9051038.3060662 1.275 0 15.155-12.549 19.185-14.665 22.289-19.229 2.3275958-3.6753063 2.6318421-8.2804205.808-12.23l2.279-2.279c2.7720583 5.104838 2.5366011 11.3156935-.614 16.196zm1.744-20.157-7.944 7.945-4.323-1.333 8.023-8.026z"/><path id="Shape" d="m16 14c-2.075 0-6 1.463-6 7 0 .5522847.4477153 1 1 1s1-.4477153 1-1c0-4.8 3.589-4.994 4-5 .5522847 0 1-.4477153 1-1s-.4477153-1-1-1z"/><circle id="Oval" cx="20" cy="15" r="1"/></g></g></svg>