<svg height="512" viewBox="0 0 60 54" width="512" xmlns="http://www.w3.org/2000/svg"><g id="031---24-Hour-Protection" fill="none"><g id="Layer_3" transform="translate(1 1)"><path id="Shape" d="m57.76 39.08c.0454185.3716484-.1205782.7375335-.4301513.9481275-.3095732.210594-.7108538.2306118-1.0398487.0518725l-4.39-2.36c-5.52 7.39-13.86 13.05-23.16 13.73-10.3753663.5533071-20.05287482-5.2302694-24.48-14.63-2.01147142-4.7029774-2.30179781-9.9642581-.82-14.86.18526252.0285912.37255459.0419692.56.04h9.76c-1.1856462 3.9148767-.4152963 8.161105 2.07 11.41 2.92 3.93 8.16 6.33 13.03 5.2 4.3309794-1.1521992 8.0777397-3.8758195 10.51-7.64l-5.56-2.99c-.3382522-.1818994-.5424437-.5414474-.5253912-.9251285s.2523357-.7236969.6053912-.8748715l7.93-3.45 7.59-3.3 4.36-1.9c.2912044-.1249174.6241529-.1059323.89927.0512775.2751172.1572098.460509.4344191.50073.7487225z" fill="#f44335"/><g fill="#c81e1e"><path id="Shape" d="m4 22c-.18744541.0019692-.37473748-.0114088-.56-.04l-.01.04z"/><path id="Shape" d="m12.83 33.41c2.7837867 3.8041448 7.3739396 5.8496241 12.064 5.376-3.6158145-.515953-6.8773667-2.4504306-9.064-5.376-2.4852963-3.248895-3.2556462-7.4951233-2.07-11.41h-3c-1.18564619 3.9148767-.4152963 8.161105 2.07 11.41z"/><path id="Shape" d="m55.17 18.33c-.040221-.3143034-.2256128-.5915127-.50073-.7487225-.2751171-.1572098-.6080656-.1761949-.89927-.0512775l-1.624.707c.0099867.0304531.0180033.0615173.024.093l2.59 20.75c.005522.0585367.005522.1174633 0 .176l1.533.824c.3289949.1787393.7302755.1587215 1.0398487-.0518725.3095731-.210594.4755698-.5764791.4301513-.9481275z"/><path id="Shape" d="m51.87 37.75c-5.52 7.37-13.84 13.02-23.13 13.7-.998775.0699994-2.001225.0699994-3 0 9.76-.71 18.46-6.91 23.96-14.84z"/><path id="Shape" d="m49.41 19.43-7.59 3.3c-1.48-2.82-3.11-5.62-5.64-7.58-1.2626351-.9758533-2.6739869-1.7423052-4.18-2.27v-8.95c2.9174877.65041794 5.672929 1.88526386 8.1 3.63.22.16.44.32.65.49 3.7065217 3.0930627 6.6667993 6.9831272 8.66 11.38z"/></g><path id="Shape" d="m32 3.93v14.07c0 2.209139-1.790861 4-4 4h-1c-.5522847 0-1 .4477153-1 1v6l-7.43-6.51c-.3692699-.3124826-.8362766-.4858412-1.32-.49h-13.25c-.18744541.0019692-.37473748-.0114088-.56-.04-1.97469785-.2757003-3.44317049-1.9661514-3.44-3.96v-14c0-2.209139 1.790861-4 4-4h24.07c2.1702504.00055202 3.929448 1.75974963 3.93 3.93z" fill="#ffdc00"/><path id="Shape" d="m28.07 0h-3c2.1702504.00055202 3.929448 1.75974963 3.93 3.93v14.07c0 2.209139-1.790861 4-4 4h-1c-.5522847 0-1 .4477153-1 1v3.371l3 2.629v-6c0-.5522847.4477153-1 1-1h1c2.209139 0 4-1.790861 4-4v-14.07c-.000552-2.17025037-1.7597496-3.92944798-3.93-3.93z" fill="#fec108"/></g><g id="Layer_2" fill="#000"><path id="Shape" d="m3.245 23.673c-1.2600359 4.8415222-.87303571 9.964701 1.1 14.562 4.3050059 9.2216234 13.5136751 15.1604182 23.69 15.278 9.78 0 18.937-5.573 25.132-13.513 3.7 1.989 3.908 2.2 4.6 2.2.5735744-.0004127 1.1193662-.2470639 1.4987036-.6772858.3793375-.4302218.5557066-1.0026023.4842964-1.5717142l-2.592-20.751c-.0781887-.6253293-.4465382-1.1772301-.9940183-1.4893449s-1.2100456-.347932-1.7879817-.0966551l-3.508 1.525c-3.815-7.389-8.9-12.926-16.949-15.009-.3888321-2.37725302-2.4401639-4.12441752-4.849-4.13h-24.07c-2.76005315.00330612-4.99669388 2.23994685-5 5v14c.00827967 2.0797722 1.29915003 3.9387051 3.245 4.673zm51.928-4.223 2.595 20.75c-4.43-2.382-4.427-2.411-4.707-2.457-.2518949-.0389978-.5092461.018112-.721.16-.04.028-.234.207-.241.217-5.871 7.86-14.047 12.719-22.432 13.333-9.58.716-19.457-5.2-23.5-14.05-1.80603539-4.2359895-2.13913186-8.9553257-.946-13.403h8.266c-1.787 8.833 5.522 16.881 13.957 16.881 4.447 0 10.03-2.818 13.756-8.352.01-.015.01-.032.019-.047s.023-.023.031-.038c.0186966-.0455571.0330926-.0927625.043-.141.0268404-.0619179.0466314-.1266581.059-.193.0071794-.126317.0008098-.2530396-.019-.378-.145-.585-.227-.5-6.046-3.636zm-27.173 4.55h1c2.7600532-.0033061 4.9966939-2.2399468 5-5v-3.62c3.6 1.693 5.489 4.288 7.428 7.865l-6.938 3.017c-.7024906.3051535-1.1690169.9846961-1.2013712 1.7499182-.0323543.7652222.3751461 1.4817194 1.0493712 1.8450818l4.545 2.448c-2.2610367 3.1133944-5.528384 5.3499147-9.249 6.331-4.228.983-9.163-1-12-4.824-2.1178539-2.798623-2.8838569-6.3930859-2.091-9.812 2.893 0 2.988-.082 3.364.247 8.031 7.027 7.561 6.753 8.093 6.753.5522847 0 1-.4477153 1-1zm21.03-4.06-5.762 2.506c-2.343-4.346-4.712-7.408-9.268-9.246v-6.953c5.631 1.627 10.636 5.239 15.03 13.693zm-47.03-14.94c0-1.65685425 1.34314575-3 3-3h24.07c.7877409.00495733 1.5407539.32487841 2.0911681.88844245.5504143.56356404.852471 1.32391918.8388319 2.11155755v14c0 1.6568542-1.3431458 3-3 3h-1c-1.1045695 0-2 .8954305-2 2v3.8l-5.776-5.054c-.5462006-.4797493-1.2480246-.7448434-1.975-.746-14.273 0-13.4.015-13.672-.031-1.47812929-.2105193-2.57648798-1.4759547-2.577-2.969z"/><path id="Shape" d="m6 17.993c0 .5522847.44771525 1 1 1h8c.5522847 0 1-.4477153 1-1s-.4477153-1-1-1h-6.721c.714-1.343 2.628-2.665 3.886-3.53 1.2266641-.7022329 2.286909-1.6615021 3.108-2.812.9151194-1.43715875.9092604-3.27570288-.015-4.707-2.295-3.356-9.146-2.427-9.258 3.049 0 .55228475.44771525 1 1 1s1-.44771525 1-1c-.01918026-1.39142573.94137197-2.60506259 2.3-2.906 1.2019075-.32225036 2.4828916.05899031 3.313.986.4806475.78408706.4627012 1.77581618-.046 2.542-1.282 2.108-7.567 4.32-7.567 8.378z"/><path id="Shape" d="m17 15h6v3c0 .5522847.4477153 1 1 1s1-.4477153 1-1v-3h2c.5522847 0 1-.4477153 1-1s-.4477153-1-1-1h-2v-8c.0003821-.42756257-.2711087-.80806653-.6755402-.94679329-.4044314-.13872676-.8523184-.00498145-1.1144598.33279329l-7 9c-.2345926.301572-.2768437.7104599-.1088735 1.0536295.1679703.3431696.5168011.5606357.8988735.5603705zm6-7.085v5.085h-3.956z"/></g></g></svg>