<svg height="512" viewBox="0 0 52 60" width="512" xmlns="http://www.w3.org/2000/svg"><g id="032---24-Hour-Protection" fill="none" fill-rule="evenodd"><g id="Layer_3" transform="translate(1 1)"><path id="Shape" d="m50 9v16.9c.0001768 3.3336003-.5342763 6.6456565-1.583 9.81-2.605 7.87-8.9 13.77-15.9 18.24-1.529.972-5.092 2.948-7.038 3.934-.303366.1549211-.662634.1549211-.966 0-1.946-.986-5.509-2.962-7.038-3.934-7-4.47-13.291-10.37-15.9-18.24-1.04600707-3.1647875-1.57775747-6.4768329-1.575-9.81v-16.9c.00599498-.30785784.15007214-.59671105.39239397-.78669136s.55721312-.26095837.85760603-.19330864c11.687 2.58 20.49-5.28 23.01-7.72.4123231-.39982527 1.0676769-.39982527 1.48 0 2.52 2.44 11.323 10.3 23.01 7.72.3003929-.06764973.6152842.00332833.857606.19330864.2423219.18998031.386399.47883352.392394.78669136z" fill="#ffdc00" fill-rule="nonzero"/><path id="Shape" d="m48.75 8.02c-.674.149-1.336.259-1.99.341.1538356.17744911.238983.40415423.24.639v16.9c.0001768 3.3336003-.5342763 6.6456565-1.583 9.81-2.605 7.87-8.9 13.77-15.9 18.24-1.292.822-4.028 2.354-6.021 3.406.366.193.715.375 1.017.528.303366.1549211.662634.1549211.966 0 1.946-.986 5.509-2.962 7.038-3.934 7-4.47 13.291-10.37 15.9-18.24 1.0487237-3.1643435 1.5831768-6.4763997 1.583-9.81v-16.9c-.005995-.30785784-.1500721-.59671105-.392394-.78669136-.2423218-.18998031-.5572131-.26095837-.857606-.19330864z" fill="#fec108" fill-rule="nonzero"/><g stroke="#000" stroke-linecap="round" stroke-linejoin="round" stroke-width="2"><path id="Shape" d="m24 34.993h-8c0-1.4 1.09-2.562 2.06-3.439.9313365-.7928471 1.9134236-1.5240676 2.94-2.189.9567619-.5634464 1.7824388-1.324351 2.422-2.232.7125449-1.1017016.7184031-2.5174393.015-3.625-1.053878-1.2716774-2.7490616-1.8176302-4.347-1.4-1.7592811.3824669-3.0329585 1.9125286-3.09 3.712v.173"/><path id="Shape" d="m33 35v-13l-7 9h10"/><path id="Shape" d="m25 8v2"/><path id="Shape" d="m25 48v2"/><path id="Shape" d="m39.849 14.151-1.414 1.414"/><path id="Shape" d="m11.565 42.435-1.414 1.414"/><path id="Shape" d="m39.849 43.849-1.414-1.414"/><path id="Shape" d="m11.565 15.565-1.414-1.414"/><path id="Shape" d="m16.964 9.599.765 1.847"/><path id="Shape" d="m32.271 46.554.765 1.847"/><path id="Shape" d="m44.401 20.964-1.847.765"/><path id="Shape" d="m7.446 36.271-1.847.765"/><path id="Shape" d="m33.036 9.599-.765 1.847"/><path id="Shape" d="m17.729 46.554-.765 1.847"/><path id="Shape" d="m44.401 37.036-1.847-.765"/><path id="Shape" d="m7.446 21.729-1.847-.765"/><path id="Shape" d="m7.454 30.243 2.117-3.528c.09030334-.1508426.25319275-.2431752.429-.2431752.1758072 0 .3386967.0923326.429.2431752l2.117 3.528"/><path id="Shape" d="m37.454 26.757 2.117 3.528c.0903033.1508426.2531928.2431752.429.2431752s.3386967-.0923326.429-.2431752l2.117-3.528"/><path id="Shape" d="m38.99 34.41c-2.1923727 5.6722523-7.5925087 9.4595466-13.6723296 9.5888579-6.079821.1293112-11.636104-3.4249518-14.0676704-8.9988579-.3331081-.7556813-.6007566-1.538553-.8-2.34-.2176777-.9278506-.331709-1.8769934-.34-2.83l-.08-2.36"/><path id="Shape" d="m39.93 29.52-.14-1.66c-.0724563-2.0257601-.5842654-4.0115796-1.5-5.82-.01-.01-.01-.03-.02-.04-2.6617881-5.0452532-7.954908-8.1440624-13.6573323-7.9955618-5.7024244.1485006-10.827083 3.5186061-13.2226677 8.6955618"/></g></g><g id="Layer_2" fill="#000" fill-rule="nonzero" transform="translate(0 -1)"><path id="Shape" d="m52 27.9v-16.9c-.0062836-.6107707-.2877832-1.18610885-.766157-1.56589683-.4783737-.37978799-1.1025586-.5234862-1.698843-.39110317-10.2 2.251-18.223-3.709-22.1-7.465-.8000872-.77214671-2.0679128-.77214671-2.868 0-3.876 3.752-11.9 9.713-22.1 7.461-.59730178-.13361327-1.22298848.01010047-1.7021213.39095959s-.76029634.95799391-.7648787 1.57004041v16.9c0 16.058 10.682 25.586 25.065 32.876.5883145.2969712 1.2826855.2969712 1.871 0 14.324-7.262 25.064-16.767 25.064-32.876zm-2 0c0 15.109-10.39 24.406-24.031 31.092-13.575-6.876-23.952-15.745-23.952-31.092v-16.9c11.108 2.45 19.775-3.949 24.027-7.982 4.164 4.032 12.808 10.431 23.956 7.994z"/><path id="Shape" d="m16 36.993c0 .5522847.4477153 1 1 1h8c.5522847 0 1-.4477153 1-1s-.4477153-1-1-1h-6.721c.714-1.343 2.628-2.665 3.886-3.53 1.2266641-.7022329 2.286909-1.6615021 3.108-2.812.9151194-1.4371587.9092604-3.2757029-.015-4.707-2.295-3.356-9.146-2.427-9.258 3.049 0 .5522847.4477153 1 1 1s1-.4477153 1-1c-.0191803-1.3914257.941372-2.6050626 2.3-2.906 1.2019075-.3222504 2.4828916.0589903 3.313.986.4806475.7840871.4627012 1.7758162-.046 2.542-1.282 2.108-7.567 4.32-7.567 8.378z"/><path id="Shape" d="m33.21 23.386-7 9c-.2345926.301572-.2768437.7104599-.1088735 1.0536295.1679703.3431696.5168011.5606357.8988735.5603705h6v3c0 .5522847.4477153 1 1 1s1-.4477153 1-1v-3h2c.5522847 0 1-.4477153 1-1s-.4477153-1-1-1h-2v-8c.0003821-.4275626-.2711087-.8080665-.6755402-.9467933-.4044314-.1387267-.8523184-.0049814-1.1144598.3327933zm-.21 8.614h-3.956l3.956-5.085z"/><path id="Shape" d="m26 13c.5522847 0 1-.4477153 1-1v-2c0-.55228475-.4477153-1-1-1s-1 .44771525-1 1v2c0 .5522847.4477153 1 1 1z"/><path id="Shape" d="m26 49c-.5522847 0-1 .4477153-1 1v2c0 .5522847.4477153 1 1 1s1-.4477153 1-1v-2c0-.5522847-.4477153-1-1-1z"/><path id="Shape" d="m39.435 18.565c.2651948-.0000566.5195073-.1054506.707-.293l1.414-1.414c.2599566-.2510745.3642126-.6228779.2726972-.9725073-.0915155-.3496295-.3645604-.6226744-.7141899-.7141899-.3496294-.0915154-.7214328.0127406-.9725073.2726972l-1.414 1.414c-.2859079.2859943-.3714219.7160366-.216678 1.0896546.1547439.3736179.5192821.6172591.923678.6173454z"/><path id="Shape" d="m11.858 43.728-1.414 1.414c-.2599566.2510745-.3642126.6228779-.2726972.9725073.0915155.3496295.3645604.6226744.7141899.7141899.3496294.0915154.7214328-.0127406.9725073-.2726972l1.414-1.414c.3789722-.3923789.3735524-1.0160848-.0121814-1.4018186s-1.0094397-.3911536-1.4018186-.0121814z"/><path id="Shape" d="m40.142 43.728c-.3923789-.3789722-1.0160848-.3735524-1.4018186.0121814s-.3911536 1.0094397-.0121814 1.4018186c1.538 1.538 1.595 1.707 2.121 1.707.4043959-.0000863.7689341-.2437275.923678-.6173454.1547439-.373618.0692299-.8036603-.216678-1.0896546z"/><path id="Shape" d="m11.858 18.272c.3923789.3789722 1.0160848.3735524 1.4018186-.0121814s.3911536-1.0094397.0121814-1.4018186l-1.414-1.414c-.2510745-.2599566-.6228779-.3642126-.9725073-.2726972-.3496295.0915155-.6226744.3645604-.7141899.7141899-.0915154.3496294.0127406.7214328.2726972.9725073z"/><path id="Shape" d="m17.805 13.829c.2115251.5103111.7966889.7525251 1.307.541s.7525251-.7966889.541-1.307l-.765-1.847c-.2112489-.5103111-.7961889-.7527489-1.3065-.5415s-.7527489.7961889-.5415 1.3065z"/><path id="Shape" d="m34.2 48.171c-.2115251-.5103111-.7966889-.7525251-1.307-.541s-.7525251.7966889-.541 1.307l.765 1.847c.2112489.5103111.7961889.7527489 1.3065.5415s.7527489-.7961889.5415-1.3065z"/><path id="Shape" d="m45.019 22.04-1.848.765c-.5103111.2115251-.7525251.7966889-.541 1.307s.7966889.7525251 1.307.541l1.847-.765c.3301134-.1366541.5622467-.4390411.6089575-.7932547.0467108-.3542137-.0990974-.7064405-.3825-.924-.2834026-.2175596-.6613441-.2673994-.9914575-.1307453z"/><path id="Shape" d="m8.063 37.347-1.847.765c-.51031111.2112489-.75274892.7961889-.5415 1.3065s.79618889.7527489 1.3065.5415l1.848-.765c.33011341-.1368327.56215138-.4393848.60870747-.7936877.04655609-.354303-.09944268-.7065298-.383-.924-.28355731-.2174703-.66159406-.267145-.99170747-.1303123z"/><path id="Shape" d="m32.888 14.37c.2450539.1016421.5204541.101742.7655816.0002776s.4398902-.2961765.5414184-.5412776l.765-1.848c.2112489-.5103111-.0311889-1.0952511-.5415-1.3065s-1.0952511.0311889-1.3065.5415l-.765 1.847c-.1016421.2450539-.101742.5204541-.0002776.7655816s.2961765.4398902.5412776.5414184z"/><path id="Shape" d="m19.112 47.63c-.2450539-.1016421-.5204541-.101742-.7655816-.0002776s-.4398902.2961765-.5414184.5412776l-.765 1.848c-.1366541.3301134-.0868143.7080549.1307453.9914575.2175595.2834026.5697863.4292108.924.3825.3542136-.0467108.6566006-.2788441.7932547-.6089575l.765-1.847c.1016421-.2450539.101742-.5204541.0002776-.7655816s-.2961765-.4398902-.5412776-.5414184z"/><path id="Shape" d="m45.784 38.112-1.847-.765c-.3301134-.1368327-.7081502-.087158-.9917075.1303123-.2835573.2174702-.4295561.569697-.383.924.0465561.3543029.2785941.656855.6087075.7936877l1.848.765c.5103111.2112489 1.0952511-.0311889 1.3065-.5415s-.0311889-1.0952511-.5415-1.3065z"/><path id="Shape" d="m6.216 23.888c2.029.84 1.968.841 2.23.841.47724781.0002902.88818979-.3367019.98136471-.804766s-.15738756-.9367382-.59836471-1.119234l-1.848-.765c-.51031111-.2112489-1.09525108.0311889-1.3065.5415s.03118889 1.0952511.5415 1.3065z"/><path id="Shape" d="m44.06 27.9c-.2274226-.1364561-.4997379-.176979-.7570385-.1126538-.2573005.0643251-.4785091.228229-.6149615.4556538l-.905 1.509c-.0841565-2.167256-.6404414-4.2900118-1.63-6.22-2.8455423-5.3730526-8.4888752-8.6707513-14.5668403-8.5121772-6.077965.158574-11.5416637 3.7460551-14.1031597 9.2601772-.1633447.3259872-.1363121.7150417.0705461 1.0153062.2068583.3002646.5607498.4641394.9235423.4276602s.6769738-.2675295.8199116-.6029664c5.831-12.591 24.793-9.841 26.393 3.753l-.378-.63c-.1740256-.3257653-.5134404-.5290865-.8827747-.5288127-.3693344.0002738-.7084473.2040981-.8819897.5301211-.1735423.326023-.1532552.7211563.0527644 1.0276916l2.114 3.528c.2711396.4515819.7592715.7278575 1.286.7278575s1.0148604-.2762756 1.286-.7278575l2.114-3.528c.2846812-.4728006.1325134-1.0868424-.34-1.372z"/><path id="Shape" d="m40.351 35.478c-.514722-.1990598-1.0933973.0564882-1.293.571-2.1068114 5.3778985-7.2822058 8.9255288-13.058 8.951-7.4181789.0301313-13.5429127-5.7899311-13.891-13.2l.579.961c.1803749.3144989.5168446.5067358.8793718.5024159.3625272-.00432.6943206-.2045201.86715-.5232278.1728295-.3187078.1596205-.7059963-.0345218-1.0121881l-2.114-3.528c-.2711396-.4515819-.7592715-.7278575-1.286-.7278575s-1.01486039.2762756-1.286.7278575l-2.114 3.528c-.28415049.4735842-.13058415 1.0878495.34300001 1.372.47358417.2841505 1.08784948.1305842 1.37199999-.343l.785-1.307c-.0035445 1.1608013.1249479 2.3182397.383 3.45 1.6970612 6.7627214 7.5780927 11.647823 14.5373667 12.0755198 6.9592739.4276968 13.3942366-3.7004994 15.9066333-10.2045198.0953312-.2478274.0881833-.5233945-.0198677-.7659464-.1080509-.242552-.3081325-.4321718-.5561323-.5270536z"/></g></g></svg>