<svg height="512" viewBox="0 0 60 60" width="512" xmlns="http://www.w3.org/2000/svg"><g id="033---Nail-Polish" fill="none"><g id="Layer_3" transform="translate(0 1)"><path id="Shape" d="m21 31h-14v-9c0-3.8659932 3.1340068-7 7-7s7 3.1340068 7 7z" fill="#02a9f4"/><path id="Shape" d="m14 15c-.5044849.0007873-1.0074065.0561087-1.5.165 3.210739.7043773 5.4988743 3.5479054 5.5 6.835v9h3v-9c0-3.8659932-3.1340068-7-7-7z" fill="#0377bc"/><path id="Shape" d="m20.5 58h-12.174c-1.73286819-.0295383-3.23007328-1.2187727-3.651-2.9l-3.527-19c-.35259051-1.1757475-.14060354-2.4485101.57403776-3.4465032.7146413-.997993 1.85130503-1.6086145 3.07796224-1.6534968h18.639c1.195272.0421338 2.3072788.6228925 3.0248253 1.5797506.7175464.9568582.963553 2.187029.6691747 3.3462494l-2.938 19c-.3605371 1.7630992-1.895731 3.0402808-3.695 3.074z" fill="#e91e63"/><path id="Shape" d="m23.439 31h-3c1.195272.0421338 2.3072788.6228925 3.0248253 1.5797506.7175464.9568582.963553 2.187029.6691747 3.3462494l-2.938 19c-.3605371 1.7630992-1.895731 3.0402808-3.695 3.074h3c1.801156-.0314025 3.3390508-1.3091021 3.7-3.074l2.938-19c.2945326-1.1600459.0479111-2.3910698-.6707598-3.348132-.7186709-.9570621-1.8320787-1.5372045-3.0282402-1.577868z" fill="#ad1457"/><path id="Shape" d="m59 28v28c-.0032948 1.1032019-.8967981 1.9967052-2 2h-14c-1.1032019-.0032948-1.9967052-.8967981-2-2v-28c-.0028032-2.5419973 1.6014834-4.8080521 4-5.65v10.65c0 2.7614237 2.2385763 5 5 5s5-2.2385763 5-5v-10.65c2.3985166.8419479 4.0028032 3.1080027 4 5.65z" fill="#ffe0b2"/><path id="Shape" d="m55 22.35v2.357c.6499438.9754282.997786 2.1208728 1 3.293v28c-.0032948 1.1032019-.8967981 1.9967052-2 2h3c1.1032019-.0032948 1.9967052-.8967981 2-2v-28c.0028032-2.5419973-1.6014834-4.8080521-4-5.65z" fill="#dfc49c"/><path id="Shape" d="m55 18v15c0 2.7614237-2.2385763 5-5 5s-5-2.2385763-5-5v-15c0-1.6568542 1.3431458-3 3-3h4c1.6568542 0 3 1.3431458 3 3z" fill="#f5f5f5"/><path id="Shape" d="m52 15h-3c1.6568542 0 3 1.3431458 3 3v15c-.0056526 2.1761534-1.4225411 4.0970494-3.5 4.745.4838155.1620147.9898258.2480365 1.5.255 2.7614237 0 5-2.2385763 5-5v-15c0-1.6568542-1.3431458-3-3-3z" fill="#cfd8dc"/><path id="Shape" d="m36 23h-6c-1.1045695 0-2-.8954305-2-2v-16c0-2.76142375 2.2385763-5 5-5s5 2.23857625 5 5v16c0 1.1045695-.8954305 2-2 2z" fill="#ffdc00"/><path id="Shape" d="m33 0c-.5100781.00712105-1.0160138.09279281-1.5.254 2.0776147.64833599 3.4944634 2.5695828 3.5 4.746v16c0 1.1045695-.8954305 2-2 2h3c1.1045695 0 2-.8954305 2-2v-16c0-1.32608245-.5267842-2.59785201-1.4644661-3.53553391-.9376819-.93768189-2.2094515-1.46446609-3.5355339-1.46446609z" fill="#fec108"/><path id="Shape" d="m35 46.24v-23.24h-4v23.24" fill="#545c60"/><path id="Shape" d="m30.6 46.336c1.5713587-.4480013 3.2366413-.4480013 4.808 0 .3886306.1246374.6625218.4729382.692.88.283 3.234.561 6.3.835 9.107.0390872.4524872-.2260008.8762203-.65 1.039-2.1045549.8510325-4.4574451.8510325-6.562 0-.4239992-.1627797-.6890872-.5865128-.65-1.039.274-2.811.552-5.873.835-9.107.0294782-.4070618.3033694-.7553626.692-.88z" fill="#9e9e9e"/><path id="Shape" d="m36.1 47.216c-.0294782-.4070618-.3033694-.7553626-.692-.88-1.2690174-.3566183-2.6022088-.4219105-3.9-.191.3031423.0478377.6035575.1115925.9.191.3886306.1246374.6625218.4729382.692.88.283 3.234.561 6.3.835 9.107.0390872.4524872-.2260008.8762203-.65 1.039-.5742104.2294872-1.1712511.3971011-1.781.5 1.609095.2828971 3.2652528.109695 4.781-.5.4239992-.1627797.6890872-.5865128.65-1.039-.278-2.811-.556-5.873-.835-9.107z" fill="#707070"/><path id="Shape" d="m19 44c.0008472 1.4722152-.6471681 2.8699804-1.7712856 3.8206527-1.1241176.9506724-2.6100739 1.3576186-4.0617144 1.1123473-2.644814-.5109301-4.44857284-2.9743668-4.137-5.65.34375598-2.8673841 1.969329-5.4241678 4.42-6.952.3284839-.2198409.7563189-.2229867 1.088-.008 2.6798824 1.6495459 4.3551815 4.5319466 4.462 7.677z" fill="#9d27b0"/><path id="Shape" d="m14.538 36.323c-.3316811-.2149867-.7595161-.2118409-1.088.008-.329064.2160228-.6461945.4496979-.95.7 2.1622535 1.6727572 3.449428 4.2357054 3.5 6.969-.0017572 2.1739696-1.4080578 4.0976789-3.479 4.759.2110509.0728677.4269023.1310073.646.174 1.4516405.2452713 2.9375968-.1616749 4.0617144-1.1123473 1.1241175-.9506723 1.7721328-2.3484375 1.7712856-3.8206527-.1068185-3.1450534-1.7821176-6.0274541-4.462-7.677z" fill="#6a1b9a"/></g><g id="Layer_2" fill="#000" transform="translate(-1)"><path id="Shape" d="m1.165 37.282 3.544 19.079c.5450443 2.1135778 2.43457517 3.6028572 4.617 3.639h12.174c2.2924303-.0334768 4.2471533-1.6701346 4.683-3.921l2.926-18.933c.3618833-1.4557591.0445246-2.9970893-.8630212-4.191474s-2.3074856-1.9131223-3.8069788-1.954526h-1.439v-8c0-4.418278-3.581722-8-8-8s-8 3.581722-8 8v8h-1.2c-1.52354837.0437704-2.94229809.7858671-3.84721742 2.0123403s-1.19543224 2.8010082-.78778258 4.2696597zm7.835-14.282c.00000005-3.3137085 2.6862915-5.9999999 6-5.9999999s6 2.6862914 6 5.9999999v8h-3v-2c0-.5522847-.4477153-1-1-1s-1 .4477153-1 1v2h-2v-2c0-.5522847-.4477153-1-1-1s-1 .4477153-1 1v2h-3zm-3.2 10h18.639c.9037646.0429421 1.7382965.4967371 2.26561 1.231975.5273135.735238.6895301 1.6712183.44039 2.541025l-2.926 18.933c-.2544498 1.3087204-1.386122 2.2635038-2.719 2.294h-1.5v-2c0-.5522847-.4477153-1-1-1s-1 .4477153-1 1v2h-2v-2c0-.5522847-.4477153-1-1-1s-1 .4477153-1 1v2h-2v-2c0-.5522847-.4477153-1-1-1s-1 .4477153-1 1v2h-.674c-1.25278507-.0260473-2.3388226-.8739544-2.668-2.083l-3.544-19.08c-.27087617-.8749604-.12202172-1.8260035.40324332-2.5763542s1.3679287-1.2157092 2.28275668-1.2606458z"/><path id="Shape" d="m57 22.7v-3.7c0-2.209139-1.790861-4-4-4h-4c-2.209139 0-4 1.790861-4 4v3.7c-2.4400929 1.1490442-3.9980961 3.6028993-4 6.3v28c0 1.6568542 1.3431458 3 3 3h14c1.6568542 0 3-1.3431458 3-3v-28c-.0019039-2.6971007-1.5599071-5.1509558-4-6.3zm-10-3.7c0-1.1045695.8954305-2 2-2h4c1.1045695 0 2 .8954305 2 2v15c0 2.209139-1.790861 4-4 4s-4-1.790861-4-4zm12 38c0 .5522847-.4477153 1-1 1h-14c-.5522847 0-1-.4477153-1-1v-28c-.0015777-1.5741585.7397265-3.056767 2-4v9c.0000001 3.3137084 2.6862916 5.9999998 6 5.9999998s5.9999999-2.6862914 6-5.9999998v-9c1.2602735.943233 2.0015777 2.4258415 2 4z"/><path id="Shape" d="m50 22c.5522847 0 1-.4477153 1-1v-1c0-.5522847-.4477153-1-1-1s-1 .4477153-1 1v1c0 .5522847.4477153 1 1 1z"/><path id="Shape" d="m50 35c.5522847 0 1-.4477153 1-1v-9c0-.5522847-.4477153-1-1-1s-1 .4477153-1 1v9c0 .5522847.4477153 1 1 1z"/><path id="Shape" d="m55 44h-8c-.5522847 0-1 .4477153-1 1s.4477153 1 1 1h8c.5522847 0 1-.4477153 1-1s-.4477153-1-1-1z"/><path id="Shape" d="m55 49h-8c-.5522847 0-1 .4477153-1 1s.4477153 1 1 1h8c.5522847 0 1-.4477153 1-1s-.4477153-1-1-1z"/><path id="Shape" d="m34 0c-3.3123376.00330738-5.9966926 2.68766243-6 6v16c0 1.6568542 1.3431458 3 3 3v21.525c-.6156172.3094532-1.0285972.9139984-1.093 1.6-.282 3.23-.56 6.289-.833 9.1-.0851596.8947204.4337086 1.7373199 1.271 2.064 2.3436794.9520063 4.9663206.9520063 7.31 0 .8369069-.3265772 1.3556913-1.1686325 1.271-2.063-.273-2.809-.551-5.868-.833-9.1-.0640725-.6863697-.4770998-1.2913622-1.093-1.601v-21.525c1.6568542 0 3-1.3431458 3-3v-16c-.0033074-3.31233757-2.6876624-5.99669262-6-6zm-2.936 57.42c.274-2.812.552-5.874.844-9.133 1.3710015-.3881535 2.8234323-.3836493 4.192.013.282 3.237.561 6.3.8 9.132-1.8720275.759456-3.9671115.755148-5.836-.012zm3.936-11.351c-.6648814-.0689979-1.3351186-.0689979-2 0v-21.069h2zm2-23.069h-6c-.5522847 0-1-.4477153-1-1v-16c0-2.209139 1.790861-4 4-4s4 1.790861 4 4v1h-2c-.5522847 0-1 .44771525-1 1s.4477153 1 1 1h2v2h-2c-.5522847 0-1 .4477153-1 1s.4477153 1 1 1h2v2h-2c-.5522847 0-1 .4477153-1 1s.4477153 1 1 1h2v2h-2c-.5522847 0-1 .4477153-1 1s.4477153 1 1 1h2v1c0 .5522847-.4477153 1-1 1z"/><path id="Shape" d="m14.007 50.92c1.7410195.292168 3.5223557-.1972172 4.8697401-1.3378601s2.1240665-2.8167759 2.1232599-4.5821399c-.100315-3.4845242-1.9476516-6.6845697-4.915-8.514-.6647916-.4319625-1.5223907-.4288211-2.184.008-2.7072884 1.6975477-4.49787488 4.5320299-4.868 7.706-.37239356 3.2008856 1.8039377 6.1411643 4.974 6.72zm.984-12.76c2.3988444 1.4634155 3.9042981 4.0319621 4.009 6.84-.0009696 1.5088208-.8483842 2.8895188-2.1932661 3.5735026-1.3448819.6839837-2.9597973.5555844-4.1797008-.3323214-1.2199035-.8879057-1.8384963-2.3851636-1.6010331-3.8751812.3233067-2.5588896 1.7789305-4.8372255 3.965-6.206z"/></g></g></svg>