<svg height="512" viewBox="0 0 60 59" width="512" xmlns="http://www.w3.org/2000/svg"><g id="034---Blackhead-Removal" fill="none"><g id="Layer_3" transform="translate(1 1)"><path id="Shape" d="m16 34.958c-.3481482.8250002-.7839861 1.6101789-1.3 2.342-.9826531 1.3833813-1.5703165 3.0080978-1.7 4.7 0 1.6568542 1.3431458 2.9999999 3 2.9999999s3-1.3431457 3-2.9999999c-.1269348-1.6867081-.7100655-3.3071685-1.687-4.688-.5201306-.7357433-.9602878-1.5248751-1.313-2.354z" fill="#37474f"/><path id="Shape" d="m58 32v26h-58v-26h12.76c-.2423312 1.074452-.6942972 2.090526-1.33 2.99-1.46443005 2.0558285-2.30784044 4.4888766-2.43 7.01 0 3.8659932 3.1340068 7 7 7s7-3.1340068 7-7c-.1221596-2.5211234-.96557-4.9541715-2.43-7.01-.6357028-.899474-1.0876688-1.915548-1.33-2.99h19.52c-.2423312 1.074452-.6942972 2.090526-1.33 2.99-1.46443 2.0558285-2.3078404 4.4888766-2.43 7.01.0000001 3.8659932 3.1340068 6.9999998 7 6.9999998s6.9999999-3.1340066 7-6.9999998c-.1221596-2.5211234-.96557-4.9541715-2.43-7.01-.6357028-.899474-1.0876688-1.915548-1.33-2.99z" fill="#ef314c"/><path id="Rectangle-path" d="m55 32h3v26h-3z" fill="#bb193b"/><g fill="#ffe0b2"><path id="Shape" d="m13 27v3c.0009323.6739049-.079653 1.3454486-.24 2h-12.76v-6h12c.5522847 0 1 .4477153 1 1z"/><path id="Shape" d="m39 27v3c.0009323.6739049-.079653 1.3454486-.24 2h-19.52c-.160347-.6545514-.2409323-1.3260951-.24-2v-3c0-.5522847.4477153-1 1-1h18c.5522847 0 1 .4477153 1 1z"/><path id="Shape" d="m58 26v6h-12.76c-.160347-.6545514-.2409323-1.3260951-.24-2v-3c0-.5522847.4477153-1 1-1z"/></g><path id="Rectangle-path" d="m55 26h3v6h-3z" fill="#dfc49c"/><path id="Shape" d="m0 21c0-.5522847.44771525-1 1-1h15.666c1.5141016-.0030092 2.9869132-.4939463 4.2-1.4l21.334-18c1.3254834-.9941125 3.2058874-.72548333 4.1999999.60000005.9941126 1.32548337.7254834 3.20588738-.5999999 4.19999995l-21.334 18c-2.2528087 1.6827989-4.9880737 2.5945539-7.8 2.6h-16.666z" fill="#02a9f4"/><path id="Shape" d="m46.4 1.2c-.9089315-1.20782566-2.5765433-1.54692818-3.885-.79.8674638.50732561 1.4232977 1.41528632 1.4805998 2.41857546.0573021 1.00328915-.3915396 1.96863113-1.1955998 2.57142454l-21.334 18c-2.2528087 1.6827989-4.9880737 2.5945539-7.8 2.6h3c2.8119263-.0054461 5.5471913-.9172011 7.8-2.6l21.334-18c.6365196-.47738968 1.0573267-1.18808314 1.1698485-1.97573593s-.0924588-1.58774449-.5698485-2.22426407z" fill="#0377bc"/><path id="Shape" d="m38.021 15.021c.3354424.8294783.5814995 1.6923541.734 2.574.2837415 1.6743814 1.0183919 3.2397916 2.125 4.528 1.1716721 1.1716721 3.0713279 1.1716721 4.243 0s1.1716721-3.0713279 0-4.243c-1.2824692-1.1029905-2.8407267-1.8364915-4.508-2.122-.8883318-.1530877-1.7578806-.4001415-2.594-.737z" fill="#37474f"/></g><g id="Layer_2" fill="#000" transform="translate(0 -1)"><path id="Shape" d="m59 29c.5522847 0 1-.4477153 1-1s-.4477153-1-1-1h-12c-1.1045695 0-2 .8954305-2 2 0 3.281-.278 5.687 1.756 8.571 1.3443035 1.8859221 2.1227589 4.116176 2.244 6.429 0 3.3137085-2.6862915 6-6 6s-6-2.6862915-6-6c.1215882-2.3149324.9014771-4.5470523 2.248-6.434 2.02-2.866 1.752-5.3 1.752-8.566 0-1.1045695-.8954305-2-2-2h-14.153c1.334-.8.511-.2 12.458-10.281l.847.847c.2775016.7092015.4841744 1.4441124.617 2.194.3170049 1.8790309 1.1476374 3.633742 2.4 5.07 1.5621374 1.5621374 4.0948626 1.5621374 5.657 0s1.5621374-4.0948626 0-5.657c-1.4278702-1.2503821-3.1740253-2.0810605-5.045-2.4-.7582521-.1336843-1.5015028-.3416873-2.219-.621l-.727-.728 8.565-7.224c1.1694573-.85401017 1.7860241-2.27339333 1.6120195-3.71099073-.1740045-1.4375974-1.111405-2.66889081-2.4508424-3.21922828s-2.8717237-.3337695-4.0061771.56621901l-21.289 17.964c-1.0396884.7768093-2.3021637 1.1976344-3.6 1.2h-15.666c-1.1045695 0-2 .8954305-2 2v5c0 .5522847.44771525 1 1 1h12c.0700682 1.3334218.0450047 2.6701421-.075 4h-11.925c-.55228475 0-1 .4477153-1 1s.44771525 1 1 1h11.376c-.202274.4957823-.45706.9684774-.76 1.41-1.5883293 2.2234302-2.49709835 4.8601109-2.616 7.59 0 4.418278 3.581722 8 8 8s8-3.581722 8-8c-.1185588-2.7282462-1.026262-5.3634686-2.613-7.586-.3039437-.4428282-.5597273-.9168493-.763-1.414h16.752c-.202274.4957823-.45706.9684774-.76 1.41-1.5883293 2.2234302-2.4970983 4.8601109-2.616 7.59 0 4.418278 3.581722 8 8 8s8-3.581722 8-8c-.1185588-2.7282462-1.026262-5.3634686-2.613-7.586-.3039437-.4428282-.5597273-.9168493-.763-1.414h11.376c.5522847 0 1-.4477153 1-1s-.4477153-1-1-1h-11.925c-.1172764-1.330005-.1423363-2.6665335-.075-4zm-17.55-10.255c1.462317.2502756 2.8313906.8861389 3.966 1.842.7812068.7812068.7812067 2.0477932 0 2.829-.7812068.7812067-2.0477932.7812068-2.829 0-.959605-1.1428078-1.5971671-2.5207982-1.847-3.992-.05-.2886667-.1093333-.5763333-.178-.863.292.0713333.588.1326667.888.184zm-39.45 8.255v-4h15.667c1.7492455-.0062698 3.449155-.5803928 4.844-1.636l21.289-17.964c.8935967-.65031529 2.1451847-.45309673 2.7955.4405s.4530967 2.14518471-.4405 2.7955l-9.187 7.752c-.1329363.0490048-.2539419.1256985-.355.225-.574.573 2.579-2.1-11.747 9.987-2.0796442 1.5531071-4.6044204 2.3946991-7.2 2.4zm14.517 12.872c.1686667-.24.3296667-.4853333.483-.736.158.2573333.3246667.5096667.5.757.8567784 1.211014 1.3746177 2.6288581 1.5 4.107 0 1.1045695-.8954305 2-2 2s-2-.8954305-2-2c.1288533-1.4865808.6525825-2.9117319 1.517-4.128zm6.483 4.128c0 3.3137085-2.6862915 5.9999999-6 5.9999999s-6-2.6862914-6-5.9999999c.1215882-2.3149324.9014771-4.5470523 2.248-6.434 2.02-2.866 1.752-5.3 1.752-8.566h1v7.729c-.3054976.6970336-.6789705 1.3622509-1.115 1.986-1.1041979 1.553859-1.7566303 3.3830925-1.885 5.285 0 2.209139 1.790861 4 4 4s4-1.790861 4-4c-.1255412-1.8936287-.7727689-3.7155575-1.87-5.264-.4413813-.6304445-.81986-1.3026628-1.13-2.007v-7.743c1.161-.028 1-.121 1 .014 0 3.281-.278 5.687 1.756 8.571 1.3443035 1.8859221 2.1227589 4.116176 2.244 6.429zm-1.925-11c-.1172764-1.330005-.1423363-2.6665335-.075-4h18c.0700682 1.3334218.0450047 2.6701421-.075 4z"/><path id="Shape" d="m56.929 12.372c.0985451-.2462521.0952223-.5215667-.0092375-.7653686-.1044597-.243802-.3014982-.4361169-.5477625-.5346314l-5-2c-.2752247-.11037953-.585243-.09291823-.8463324.04766838-.2610894.14058662-.4463195.38979749-.5056676.68033162l-1 5c-.0839647.3556996.0328053.7288731.3045463.9732685s.6551639.32108 1 .2.5961521-.4206363.6554537-.7812685l.591-2.951c1.049 1.671 2.429 4.965 2.429 10.759 0 .5522847.4477153 1 1 1s1-.4477153 1-1c.1382442-3.714532-.6007238-7.4093721-2.157-10.785l1.785.714c.5130314.2023191 1.0933129-.0461181 1.301-.557z"/><circle id="Oval" cx="6" cy="38" r="1"/><circle id="Oval" cx="3" cy="42" r="1"/><circle id="Oval" cx="6" cy="46" r="1"/><circle id="Oval" cx="3" cy="50" r="1"/><circle id="Oval" cx="9" cy="50" r="1"/><circle id="Oval" cx="6" cy="54" r="1"/><circle id="Oval" cx="12" cy="54" r="1"/><circle id="Oval" cx="18" cy="54" r="1"/><circle id="Oval" cx="24" cy="54" r="1"/><circle id="Oval" cx="30" cy="54" r="1"/><circle id="Oval" cx="30" cy="46" r="1"/><circle id="Oval" cx="30" cy="38" r="1"/><circle id="Oval" cx="54" cy="38" r="1"/><circle id="Oval" cx="57" cy="42" r="1"/><circle id="Oval" cx="54" cy="46" r="1"/><circle id="Oval" cx="57" cy="50" r="1"/><circle id="Oval" cx="51" cy="50" r="1"/><circle id="Oval" cx="54" cy="54" r="1"/><circle id="Oval" cx="48" cy="54" r="1"/><circle id="Oval" cx="42" cy="54" r="1"/><circle id="Oval" cx="36" cy="54" r="1"/><circle id="Oval" cx="3" cy="58" r="1"/><circle id="Oval" cx="9" cy="58" r="1"/><circle id="Oval" cx="15" cy="58" r="1"/><circle id="Oval" cx="21" cy="58" r="1"/><circle id="Oval" cx="27" cy="58" r="1"/><circle id="Oval" cx="51" cy="58" r="1"/><circle id="Oval" cx="57" cy="58" r="1"/><circle id="Oval" cx="45" cy="58" r="1"/><circle id="Oval" cx="39" cy="58" r="1"/><circle id="Oval" cx="33" cy="58" r="1"/><circle id="Oval" cx="27" cy="50" r="1"/><circle id="Oval" cx="33" cy="50" r="1"/><circle id="Oval" cx="27" cy="42" r="1"/><circle id="Oval" cx="33" cy="42" r="1"/></g></g></svg>