<svg height="512" viewBox="0 0 60 57" width="512" xmlns="http://www.w3.org/2000/svg"><g id="036---Perfume" fill="none"><g id="Layer_3" transform="translate(1)"><path id="Shape" d="m35.2 54.84c-1.0196457.7667461-2.2643183 1.1746049-3.54 1.16h-17.31c-1.2910756.0139438-2.5502552-.401093-3.58-1.18-4.74159615-3.6533927-7.58766855-9.246384-7.75-15.23 4.24 5.52 12.84 4.67 18.68 1.93.32-.15.63-.3.94-.46 3.61-1.85 6.88-4.53 10.61-6.12 2.754312-1.1581417 5.6492323-1.9482767 8.61-2.35.6829613 1.8227744 1.06462 3.7445777 1.13 5.69.2427139 6.4567087-2.6612975 12.6300627-7.79 16.56z" fill="#ef314c"/><path id="Shape" d="m42.99 38.28c-.06538-1.9454223-.4470387-3.8672256-1.13-5.69-.949.135-1.89.318-2.826.525.5691753 1.6657458.8912615 3.405887.956 5.165.2427139 6.4567087-2.6612975 12.6300627-7.79 16.56-1.0196457.7667461-2.2643183 1.1746049-3.54 1.16h3c1.2756817.0146049 2.5203543-.3932539 3.54-1.16 5.1287025-3.9299373 8.0327139-10.1032913 7.79-16.56z" fill="#bb193b"/><path id="Shape" d="m41.86 32.59c-.27 0-2.007.329-2.81.51-8.194 1.812-10.889 5.13-16.41 7.96-6.353 3.278-15.3 4.151-19.62-1.47-.01682114-.1961911-.0234967-.3931202-.02-.59-.03575468-6.0712542 3.0006162-11.7489292 8.07-15.09.344-.248 1.842-1.24 1.93-1.24 0 1.136 1.791 1.585 2.93 1.81 3 .681 17.07 1.147 17.07-1.76 4.142 2.486 7.067 5.389 8.86 9.87z" fill="#02a9f4"/><path id="Shape" d="m41.85 32.59c-.94.13-1.87.3-2.8.51-1.3640732-3.7331334-3.8737115-6.9393102-7.17-9.16.536-.24 1.12-.64 1.12-1.22 1.7458971 1.0026958 3.352905 2.2298044 4.78 3.65 1.7844976 1.7595392 3.1721795 3.8802718 4.07 6.22z" fill="#0377bc"/><path id="Shape" d="m33 18v4.72c0 1.66-4.48 2.28-10 2.28s-10-.62-10-2.28v-4.72c.0032948-1.1032019.8967981-1.9967052 2-2h16c1.1032019.0032948 1.9967052.8967981 2 2z" fill="#ffdc00"/><path id="Shape" d="m31 16h-3c1.1032019.0032948 1.9967052.8967981 2 2v4.72c0 1.506-3.693 2.154-8.5 2.262.491.011.989.018 1.5.018 5.52 0 10-.62 10-2.28v-4.72c-.0032948-1.1032019-.8967981-1.9967052-2-2z" fill="#fec108"/><path id="Shape" d="m27 8v8h-8.0000537l.0000537-8c-.0021256-.34157656.0588994-.68060416.18-1 .41463-1.20183597 1.5486659-2.00611673 2.82-2h2c1.6568542 0 3 1.34314575 3 3z" fill="#7f8e94"/><path id="Shape" d="m24 5h-2c-.1754013.00067997-.3504051.0167415-.523.048 1.4503236.23356473 2.5181825 1.48299764 2.523 2.952v8h3v-8c0-1.65685425-1.3431458-3-3-3z" fill="#545c60"/><path id="Shape" d="m11 9.5c-.0002425 1.1881715.8358344 2.2123657 2 2.45v.05c-1.4762405 1.8154088-3.66192862 2.9082529-6 3-3.87 0-7-2.46-7-5.5s3.13-5.5 7-5.5c2.33807138.09174711 4.5237595 1.18459117 6 3v.05c-1.1641656.23763429-2.0002425 1.26182845-2 2.45z" fill="#607d8b"/><path id="Shape" d="m13 7.05v-.05c-1.4762405-1.81540883-3.66192862-2.90825289-6-3-.55137855.00165863-1.10141001.05455271-1.643.158 1.81874072.40936022 3.45111354 1.40854255 4.643 2.842v.05c-1.16516199.23659623-2.00250628 1.26105919-2.00250628 2.45 0 1.1889408.83734429 2.2134038 2.00250628 2.45v.05c-1.19188646 1.4334575-2.82425928 2.4326398-4.643 2.842.54158999.1034473 1.09162145.1563414 1.643.158 2.33807138-.0917471 4.5237595-1.1845912 6-3v-.05c-1.165162-.2365962-2.0025063-1.2610592-2.0025063-2.45 0-1.18894081.8373443-2.21340377 2.0025063-2.45z" fill="#37474f"/><path id="Shape" d="m19.18 7c-.1211006.31939584-.1821256.65842344-.18 1v4h-5.5c-.1678482-.0012827-.3352216-.01802-.5-.05-1.165162-.2365962-2.0025063-1.2610592-2.0025063-2.45 0-1.18894081.8373443-2.21340377 2.0025063-2.45.1647784-.03198.3321518-.04871734.5-.05z" fill="#9e9e9e"/><path id="Shape" d="m42.12 11.62c-.3746594.1660704-.7328982.366952-1.07.6" fill="#607d8b"/><path id="Shape" d="m58 13c-.000037 3.8858413-2.7924093 7.2096924-6.62 7.88-1.2194969 2.7001297-4.0067981 4.3400906-6.9593635 4.0946721-2.9525655-.2454185-5.4308581-2.3230579-6.1878278-5.1874722-.7569696-2.8644144.3713463-5.8951607 2.8171913-7.5671999-2.3232899-1.3103053-3.5026378-3.99702484-2.8945067-6.59409096s2.8577152-4.48086412 5.5212171-4.62345823c2.663502-.14259412 5.1013545 1.49025575 5.9832896 4.00754919.11-.01.23-.01.34-.01 4.418278 0 8 3.581722 8 8z" fill="#ef314c"/><path id="Shape" d="m50 5c-.11 0-.23 0-.34.01-1.0258373-2.95620176-4.1601786-4.6187161-7.183-3.81 1.9419864.4938319 3.5104593 1.92244335 4.183 3.81.11-.01.23-.01.34-.01 4.1496612.00022545 7.6102688 3.17331571 7.9695277 7.3073962.3592589 4.1340805-2.5021114 7.8565618-6.5895277 8.5726038-.9165119 2.0219244-2.7401675 3.4873089-4.912 3.947 3.2405898.7350359 6.5501536-.9159813 7.912-3.947 4.0874163-.716042 6.9487866-4.4385233 6.5895277-8.5726038-.3592589-4.13408049-3.8198665-7.30717075-7.9695277-7.3073962z" fill="#bb193b"/></g><g id="Layer_2" fill="#000"><path id="Shape" d="m25 4h-2c-1.4225979.00449559-2.7350239.76664776-3.444 2-6.968 0-4.527 0-5.1 0-5.434-5.9-14.456-2.187-14.456 3.5 0 5.724 9.063 9.361 14.449 3.5h4.551v2h-3c-1.6568542 0-3 1.3431458-3 3v4.111c-6.542 3.97-10 9.795-10 16.889-.02377303 6.5066225 2.9935534 12.6507677 8.157 16.61 1.2056789.9117399 2.6784363 1.4003157 4.19 1.39h17.31c1.4958961.0123034 2.9542594-.468078 4.15-1.367 5.3698795-4.1391111 8.4149742-10.6131486 8.179-17.389-.238-6.692-3.694-12.239-9.986-16.083v-4.161c0-1.6568542-1.3431458-3-3-3h-3v-7c0-2.209139-1.790861-4-4-4zm-23 5.5c0-3.6 5.981-6.489 10.356-2.745-.8544831.65413442-1.3556138 1.6688805-1.3556138 2.745s.5011307 2.0908656 1.3556138 2.745c-4.399 3.764-10.356.837-10.356-2.745zm12.5 1.5c-.8284271 0-1.5-.6715729-1.5-1.5 0-.82842712.6715729-1.5 1.5-1.5h4.5v3zm6.5-3c0-1.1045695.8954305-2 2-2h2c1.1045695 0 2 .8954305 2 2v7h-6zm14.586 46.048c-.8452601.6304446-1.8746017.965007-2.929.952h-17.31c-1.0697386.0120318-2.1134872-.3296737-2.969-.972-3.77861214-2.8965599-6.31948-7.1171661-7.111-11.812 4.853 3.646 12.338 2.8 17.859.209 6.522-3.068 9.222-7.087 19.062-8.7 2.2280958 7.4879562-.3986901 15.5740164-6.602 20.323zm5.849-22.226c-9.981 1.756-12.915 5.849-19.16 8.793-5.649 2.653-13.393 3.299-17.275-1.415-.064-6.551 3.129-11.619 8.562-15.1 1 1.011 3.657 1.9 10.435 1.9 6.7 0 9.375-.865 10.4-1.864 3.0201876 1.851501 5.4589791 4.5148359 7.038 7.686zm-8.435-13.822v4.692c-.24.378-2.27 1.308-9 1.308-6.826 0-8.817-.955-9-1.28v-4.72c0-.5522847.4477153-1 1-1h16c.5522847 0 1 .4477153 1 1z"/><circle id="Oval" cx="25" cy="10" r="1"/><path id="Shape" d="m9.75 29.775c-1.026 1.064-2.75 3.546-2.75 8.225 0 .5522847.44771525 1 1 1s1-.4477153 1-1c0-4.124 1.531-6.154 2.189-6.835.3838379-.3973689.3728689-1.0306621-.0245-1.4145s-1.0306621-.3728689-1.4145.0245z"/><circle id="Oval" cx="13" cy="28" r="1"/><path id="Shape" d="m32 9c.449 0 .2.1 4.6-3.2.2858125-.21435935.4355547-.5649147.3928203-.91961524s-.2714531-.65965882-.6-.8c-.3285469-.14034119-.7070078-.09474411-.9928203.11961524l-4 3c-.3443443.25825824-.4847973.70788563-.3486833 1.11622777s.5182529.68377223.9486833.68377223z"/><path id="Shape" d="m31.4 11.8c4.267 3.2 4.14 3.2 4.6 3.2.4304304 0 .8125693-.2754301.9486833-.6837722.136114-.4083422-.004339-.8579696-.3486833-1.1162278l-4-3c-.4418278-.33137083-1.0686291-.24182778-1.4.2-.3313708.4418278-.2418278 1.0686291.2 1.4z"/><path id="Shape" d="m51.31 4.016c-1.2110946-2.57839747-3.8667918-4.16283313-6.7110188-4.00391185-2.8442271.15892128-5.3068839 2.02934513-6.2232006 4.72661177-.9163166 2.69726664-.1026256 5.68073288 2.0562194 7.53930008-2.2667671 2.1930146-3.030285 5.5148267-1.9485502 8.4774938 1.0817347 2.9626671 3.8060133 5.0110082 6.952547 5.227508 3.1465336.2164997 6.1256863-1.4394123 7.6030032-4.2260018 4.3957588-1.0185087 7.3552683-5.1379913 6.9175914-9.628926-.4376769-4.49093474-4.1368935-7.96147213-8.6465914-8.112074zm-5.839 13.273c-.2137735-.2956032-.5715555-.4513418-.9335753-.406375-.3620198.0449667-.6708287.283503-.8057876.6224225-.134959.3389195-.0746515.7244392.1573629 1.0059525 1.5893547 2.064728 4.0036817 3.3292711 6.606 3.46-1.6204071 1.8373527-4.1950883 2.5050403-6.5041866 1.6867194s-3.8887808-2.9582726-3.9906104-5.4059684c-.1018297-2.4476958 1.2946482-4.7114624 3.527797-5.718751.3368717-.1387856.5716033-.4498036.6126963-.8118193.0410931-.3620158-.1179562-.7177325-.4151504-.9284921s-.6854962-.2432049-1.0135459-.0846886c-.219.1-.412.23-.619.346-1.6287834-1.15926243-2.4084465-3.17875049-1.9812228-5.13177495s1.9788561-3.46254209 3.9428945-3.83587549c1.9640384-.37333341 3.9613132.4615917 5.0753283 2.12165044-1.1746061.2438618-2.2868027.7257683-3.268 1.416-.4506643.31949674-.5569967.94383563-.2375 1.39449998.3194967.45066434.9438356.55699672 1.3945.23750002 3.1378995-2.17682926 7.4414818-1.43679021 9.6719882 1.66318394 2.2305064 3.09997416 1.5646365 7.41565436-1.4964942 9.69917736-3.0611308 2.283523-7.3876307 1.6920194-9.723494-1.3293613z"/><path id="Shape" d="m52 8c-.5522847 0-1 .44771525-1 1s.4477153 1 1 1c.5404296-.03509417 1.0697842.1643231 1.4527305.5472695.3829464.3829463.5823637.9123009.5472695 1.4527305 0 .5522847.4477153 1 1 1s1-.4477153 1-1c.0312983-1.0701541-.3800703-2.10585613-1.1371071-2.86289291-.7570368-.75703679-1.7927388-1.16840534-2.8628929-1.13710709z"/></g></g></svg>