<svg height="512" viewBox="0 0 60 61" width="512" xmlns="http://www.w3.org/2000/svg"><g id="037---Natural-Hand-Cream" fill="none"><g id="Layer_3" transform="translate(1 2)"><path id="Shape" d="m58 24v4h-24v-4c0-2.7614237 2.2385763-5 5-5h14c2.7614237 0 5 2.2385763 5 5z" fill="#009688"/><path id="Shape" d="m53 19h-3c2.7614237 0 5 2.2385763 5 5v4h3v-4c0-2.7614237-2.2385763-5-5-5z" fill="#00695c"/><path id="Shape" d="m58 28v22h-17.49v-.1c.0062774-1.205987-.7402784-2.2878942-1.87-2.71l-4.64-1.74v-17.45z" fill="#60a917"/><path id="Rectangle-path" d="m55 28h3v22h-3z" fill="#549414"/><path id="Shape" d="m58 50v3c0 2.7614237-2.2385763 5-5 5h-14c-2.7614237 0-5-2.2385763-5-5v-1.37l2.56.93c.868893.3475506 1.8524411.2515783 2.6377573-.2573861.7853163-.5089645 1.274616-1.3675467 1.3122427-2.3026139z" fill="#009688"/><path id="Shape" d="m55 50v3c0 2.7614237-2.2385763 5-5 5h3c2.7614237 0 5-2.2385763 5-5v-3z" fill="#00695c"/><path id="Shape" d="m53 17v2h-14v-2c0-1.6568542 1.3431458-3 3-3h8c1.6568542 0 3 1.3431458 3 3z" fill="#9e9e9e"/><path id="Shape" d="m50 14h-3c1.6568542 0 3 1.3431458 3 3v2h3v-2c0-1.6568542-1.3431458-3-3-3z" fill="#707070"/><path id="Rectangle-path" d="m43 6h6v8h-6z" fill="#545c60"/><path id="Shape" d="m52 2v3c0 .55228475-.4477153 1-1 1h-17.28c-.8538485-.00127931-1.5776545-.62840321-1.7005128-1.47336758-.1228583-.84496436.3923841-1.65224663 1.2105128-1.89663242l6.66-2c1.3983177-.41878287 2.8503183-.63102425 4.31-.63h5.8c1.1032019.0032948 1.9967052.89679813 2 2z" fill="#9e9e9e"/><path id="Shape" d="m50 0h-3c1.1032019.0032948 1.9967052.89679813 2 2v3c0 .55228475-.4477153 1-1 1h3c.5522847 0 1-.44771525 1-1v-3c-.0032948-1.10320187-.8967981-1.9967052-2-2z" fill="#707070"/><path id="Shape" d="m40.51 49.9v.1c-.0376267.9350672-.5269264 1.7936494-1.3122427 2.3026139-.7853162.5089644-1.7688643.6049367-2.6377573.2573861l-2.56-.93-4.39-1.6c-1.0480989-.4210524-2.1423927-.7164446-3.26-.88 1.0284945.7083743 1.5105815 1.979802 1.2103113 3.1920037-.3002701 1.2122018-1.3200843 2.1115989-2.5603113 2.2579963-.0402597-.0016438-.0805677.0017152-.12.01-1.9.16-3.82.2-5.72.49-1.8090624.2951827-3.5890799.7468788-5.32 1.35-1.3009156.4453376-2.6889496.5755729-4.05.38-1.95996454-.1933667-3.84550454-.8515916-5.5-1.92-1.45477145-1.057788-2.79534534-2.2643045-4-3.6-.18419577-.1906836-.28802571-.4448879-.29-.71v-13.19c.00169577-.4044441.24684724-.7680455.62114764-.9212679s.80404325-.0658935 1.08885236.2212679l3.24 3.24c1.31285787 1.3127239 3.09343331 2.050134 4.95 2.05h12.58c1.5295235.0025028 3.0464346.2767657 4.48.81l7.04 2.64 4.64 1.74c1.1297216.4221058 1.8762774 1.504013 1.87 2.71z" fill="#ffe0b2"/><path id="Shape" d="m38.64 47.19-4.64-1.74-7.04-2.64c-1.4335654-.5332343-2.9504765-.8074972-4.48-.81h-3c1.5295235.0025028 3.0464346.2767657 4.48.81l7.04 2.64 4.64 1.74c1.1297216.4221058 1.8762774 1.504013 1.87 2.71v.1c-.029426.7275934-.3330945 1.4170996-.85 1.93-.1777601.1754217-.3778068.3267175-.595.45l.5.18c.8683391.345479 1.8502888.2484648 2.6342352-.2602557.7839464-.5087206 1.2725531-1.3659839 1.3107648-2.2997443v-.1c.0062774-1.205987-.7402784-2.2878942-1.87-2.71z" fill="#dfc49c"/><path id="Shape" d="m26.61 50.03c-1.0480989-.4210524-2.1423927-.7164446-3.26-.88 1.0284945.7083743 1.5105815 1.979802 1.2103113 3.1920037-.3002701 1.2122018-1.3200843 2.1115989-2.5603113 2.2579963-.0402597-.0016438-.0805677.0017152-.12.01-1.9.16-3.82.2-5.72.49-1.8090624.2951827-3.5890799.7468788-5.32 1.35-.4360851.1471239-.88361825.2578365-1.338.331.1.014.191.036.288.049 1.3610504.1955729 2.7490844.0653376 4.05-.38 1.7309201-.6031212 3.5109376-1.0548173 5.32-1.35 1.9-.29 3.82-.33 5.72-.49.0394323-.0082848.0797403-.0116438.12-.01.9686077-.1096785 1.8228213-.6849437 2.2886142-1.5412539.465793-.8563102.4845992-1.8859982.0503858-2.7587461z" fill="#dfc49c"/><path id="Shape" d="m27 31c0 3.8659932-3.1340068 7-7 7s-7-3.1340068-7-7c0-2.68 3.36-8.35 5.42-11 .3788525-.4881588.9620775-.7737863 1.58-.7737863s1.2011475.2856275 1.58.7737863c2.06 2.65 5.42 8.32 5.42 11z" fill="#02a9f4"/><path id="Shape" d="m21.58 20c-.3677584-.4687544-.9253582-.7491413-1.5209517-.7648046-.5955935-.0156634-1.16716.2350279-1.5590483.6838046.025.029.056.05.08.081 2.06 2.65 5.42 8.32 5.42 11 .0015214 3.2880273-2.2877835 6.133009-5.5 6.835 2.0707531.45815 4.2375238-.0486208 5.8902888-1.3776383s2.6127597-3.3365339 2.6097112-5.4573617c0-2.68-3.36-8.35-5.42-11z" fill="#0377bc"/><circle id="Oval" cx="20" cy="11" fill="#02a9f4" r="3"/></g><g id="Layer_2" fill="#000"><path id="Shape" d="m55 20.09v-1.09c0-2.209139-1.790861-4-4-4v-6h1c1.1045695 0 2-.8954305 2-2v-3c0-1.65685425-1.3431458-3-3-3-9.521 0-6.943-.361-17.062 2.674-1.2940482.38692441-2.1081531 1.66480583-1.9119441 3.00113412.1962089 1.33632829 1.343289 2.32625503 2.6939441 2.32486588h8.28v6c-2.209139 0-4 1.790861-4 4v1.09c-2.8833034.4898665-4.9945704 2.9853841-5 5.91v20.007c-9.748-3.655-5.99-3.007-23.1-3.007-1.59052351-.004062-3.11522842-.6354329-4.243-1.757l-3.24-3.243c-.57119077-.5734487-1.43169966-.7460974-2.17988775-.4373631-.7481881.3087343-1.23653714 1.0379794-1.23711225 1.8473631v13.19c.00107769.5218101.20305248 1.023166.564 1.4 1.25120502 1.3866834 2.64450492 2.6382065 4.157 3.734 2.19424189 1.3958865 4.73456333 2.1515758 7.335 2.182 2.893 0 3.825-1.142 8.26-1.827 1.923-.3 4.1-.335 5.785-.492 1.1400081-.1222816 2.1719031-.7302589 2.8313445-1.6681866.6594415-.9379277.8823618-2.1146817.6116555-3.2288134.23.078-.558-.2 4.456 1.626v.674c.0033074 3.3123376 2.6876624 5.9966926 6 6h14c3.3123376-.0033074 5.9966926-2.6876624 6-6v-29c-.0054296-2.9246159-2.1166966-5.4201335-5-5.91zm-20.487-14.5c9.961-2.99 7.318-2.59 16.487-2.59.5522847 0 1 .44771525 1 1v3h-17.28c-.3557078-.00263965-.6563348-.26430867-.7080033-.61625377-.0516686-.35194509.1610637-.68897962.5010033-.79374623zm10.487 3.41h4v6h-4zm-4 10c0-1.1045695.8954305-2 2-2h8c1.1045695 0 2 .8954305 2 2v1h-12zm-1 3h14c2.209139 0 4 1.790861 4 4v3h-22v-3c0-2.209139 1.790861-4 4-4zm-4 9h22v20h-15.6c-.2874162-1.2624999-1.1915689-2.2952266-2.405-2.747l-3.995-1.496zm-19.22 19c-.5522847 0-1 .4477153-1 1s.4477153 1 1 1c9.145 0 9.072-.035 10.174.1.5970566.5102178.8402364 1.3226527.6216918 2.0769981-.2185447.7543454-.858359 1.3109643-1.6356918 1.4230019-.318.006.518-.016-2.012.143-3.2086087.0900944-6.3830741.6843575-9.407 1.761-2.9613374.7742836-6.11208331.2575772-8.671-1.422-1.40181226-1.0225379-2.69223799-2.1896191-3.85-3.482v-13.183l3.242 3.24c1.50392763 1.4955235 3.53706669 2.3374544 5.658 2.343h12.58c1.4095544.0006398 2.8076095.2536308 4.128.747l11.68 4.379c.9664983.3830095 1.4395095 1.4770017 1.0565 2.4435s-1.4770017 1.4395095-2.4435 1.0565c-11.731-4.277-8.125-3.626-21.121-3.626zm37.22 9h-14c-2.1843489-.0030469-3.962329-1.7578786-3.994-3.942l1.181.43c1.0088322.4103257 2.1443123.3738203 3.1247046-.1004586.9803923-.4742788 1.7138166-1.3418827 2.0182954-2.3875414h15.67v2c0 2.209139-1.790861 4-4 4z"/><path id="Shape" d="m47.489 47.2c.1-.062.173-.147.263-.216.0315816-.0145542.0622991-.0309146.092-.049.031-.025.047-.061.075-.088.9092362-.7704235 1.5173002-1.837103 1.717-3.012l2.081-2.135c.3865993-.3959882.3789882-1.0304007-.017-1.417s-1.0304007-.3789882-1.417.017l-.754.775c-.2120542-.8506336-.5689301-1.6584245-1.055-2.388 1.6593575-1.0669058 3.4681364-1.8811428 5.367-2.416.263 2.434.285 5.831-.621 7.2-.534893.8253124-1.290974 1.4836781-2.182 1.9-.4310299.1925982-.6686462.6604069-.5699412 1.1220758.0987049.4616689.5068389.791416.9789412.7909242 1.4432845-.449301 2.6695376-1.4162708 3.443-2.715 1.824-2.765.89-9.031.778-9.736-.0438457-.2768075-.2018373-.5225124-.4354934-.6772692s-.5215305-.204361-.7935066-.1367308c-.213.054-4.821 1.219-7.378 3.226-2.584-1.949-6.933-3.08-7.519-3.225-.2727128-.0679211-.561419-.0179488-.795437.1376827s-.3917439.4025546-.434563.6803173c-.11.72-1.026 7.119.861 9.935 1.919 2.87 5.636 4.193 8.316 2.427zm-7.339-10.928c2.425.731 5.693 2.084 6.64 3.494 1.0512493 1.3860694 1.2388673 3.2437194.486 4.812l-2.488-3.193c-.3396551-.4357526-.9682473-.5136551-1.404-.1739999-.4357526.3396551-.5136551.9682472-.174 1.4039999l2.52 3.234c-1.6.534-3.658-.337-4.9-2.18-1.022-1.532-.903-5.202-.68-7.397z"/><path id="Shape" d="m21 41c4.4162219-.0049599 7.9950401-3.5837781 8-8 0-3.094-3.67-9.091-5.635-11.614-.5667009-.7312914-1.4398314-1.1592864-2.365-1.1592864s-1.7982991.427995-2.365 1.1592864c-1.965 2.523-5.635 8.52-5.635 11.614.0049599 4.4162219 3.5837781 7.9950401 8 8zm-.787-18.386c.1879752-.2443046.4787479-.3874589.787-.3874589s.5990248.1431543.787.3874589c2.126 2.73 5.213 8.133 5.213 10.386 0 3.3137085-2.6862915 6-6 6s-6-2.6862915-6-6c0-2.253 3.087-7.656 5.213-10.386z"/><path id="Shape" d="m16.846 34.8c.5733286 1.1436762 1.6526369 1.9498216 2.912 2.175.5300108.1192665 1.0582917-.2064318 1.1897969-.7335393.1315052-.5271076-.1818752-1.0627873-.7057969-1.2064607-.6620901-.0919912-1.2443405-.4852041-1.577-1.065-.2483011-.8389455-.1656318-1.7411499.231-2.521.2460428-.494571.044571-1.0949571-.45-1.341-.494571-.2460428-1.0949571-.044571-1.341.45-.66752 1.3178079-.7612389 2.8527711-.259 4.242z"/><path id="Shape" d="m25 13c0-2.209139-1.790861-4-4-4s-4 1.790861-4 4 1.790861 4 4 4 4-1.790861 4-4zm-6 0c0-1.1045695.8954305-2 2-2s2 .8954305 2 2-.8954305 2-2 2-2-.8954305-2-2z"/></g></g></svg>