<svg height="512" viewBox="0 0 60 60" width="512" xmlns="http://www.w3.org/2000/svg"><g id="038---Natural-Pippette-Drops" fill="none"><g id="Layer_3" transform="translate(1 1)"><path id="Rectangle-path" d="m14.154 17.984h12.601v5.119h-12.601z" fill="#02a9f4" transform="matrix(.707 -.707 .707 .707 -8.536 20.481)"/><path id="Shape" d="m17.81 26.81-9.6 9.6c-.2036724.1978675-.49117099.2837437-.77.23l-2.01-.4c-.34139426-.0613907-.60860931-.3286057-.67-.67l-.4-2.01c-.05374373-.278829.03213248-.5663276.23-.77l9.6-9.6z" fill="#607d8b"/><path id="Shape" d="m40 5.83-1.41 1.41c-.6410752.64212934-1.0007893 1.51263742-1 2.42v.79c.000447.9043572-.3594173 1.7716302-1 2.41l-2.63 2.63-1.81-1.82-2.41-2.41-4.23-4.22 2.63-2.63c.6383698-.64058271 1.5056428-1.00044704 2.41-1h.79c.9073626.00078927 1.7778707-.35892482 2.42-1l1.41-1.41c1.3337677-1.33376761 3.4962323-1.33376758 4.8299999.00000006 1.3337677 1.33376765 1.3337677 3.49623226.0000001 4.82999994z" fill="#009688"/><path id="Shape" d="m40 1c-1.0352533-1.02634508-2.6080941-1.28185637-3.915-.636.3382452.1596427.6474895.37459281.915.636 1.3300938 1.33528733 1.3300938 3.49471267 0 4.83l-1.41 1.41c-.6410752.64212934-1.0007893 1.51263742-1 2.42v.79c.000447.9043572-.3594173 1.7716302-1 2.41l-1.126 1.126 1.5 1.5 2.63-2.63c.6405827-.6383698 1.000447-1.5056428 1-2.41v-.79c-.0007893-.90736258.3589248-1.77787066 1-2.42l1.406-1.406c1.3300938-1.33528733 1.3300938-3.49471267 0-4.83z" fill="#00695c"/><path id="Shape" d="m33.96 15.49-3.62 3.62c-.6677305.6601039-1.7422695.6601039-2.41 0l-6.04-6.04c-.6601039-.6677305-.6601039-1.7422695 0-2.41l3.62-3.62 4.23 4.22 2.41 2.41.32.32z" fill="#f5f5f5"/><path id="Shape" d="m33.96 15.49-3.62 3.62c-.6677305.6601039-1.7422695.6601039-2.41 0l-.29-.29 4.83-4.83z" fill="#cfd8dc"/><path id="Shape" d="m14 51.288c-.0808898 3.7858666-3.2140757 6.7901443-7 6.712-3.78592431.0781443-6.91911016-2.9261334-7-6.712 0-2.568 3.359-8 5.424-10.547.38869329-.4695049.96647781-.7412625 1.576-.7412625s1.18730671.2717576 1.576.7412625c2.065 2.542 5.424 7.979 5.424 10.547z" fill="#02a9f4"/><path id="Shape" d="m8.576 40.741c-.37683789-.4536311-.93139487-.7221912-1.52095515-.736566s-1.15654674.2268394-1.55504485.661566c.024.027.053.046.076.075 2.065 2.542 5.424 7.979 5.424 10.547-.0509115 3.2111087-2.34645709 5.9465643-5.5 6.554.49323896.104092.99589794.1570387 1.5.158 3.7859243.0781443 6.9191102-2.9261334 7-6.712 0-2.568-3.359-8.005-5.424-10.547z" fill="#0377bc"/><path id="Shape" d="m58 52v3c.0155259.781331-.2804505 1.5367349-.8226294 2.0995504-.5421789.5628154-1.2860047.8867911-2.0673706.9004496h-20.22c-.7813659-.0136585-1.5251917-.3376342-2.0673706-.9004496-.5421789-.5628155-.8381553-1.3182194-.8226294-2.0995504v-3z" fill="#009688"/><path id="Shape" d="m55 52v3c.0155259.781331-.2804505 1.5367349-.8226294 2.0995504-.5421789.5628154-1.2860047.8867911-2.0673706.9004496h3c.7813659-.0136585 1.5251917-.3376342 2.0673706-.9004496.5421789-.5628155.8381553-1.3182194.8226294-2.0995504v-3z" fill="#00695c"/><path id="Rectangle-path" d="m32 32h26v20h-26z" fill="#60a917"/><path id="Rectangle-path" d="m55 32h3v20h-3z" fill="#549414"/><path id="Shape" d="m58 30.5v1.5h-26v-1.5c-.0334641-1.8961424 1.473949-3.461705 3.37-3.5s3.4034641-1.6038576 3.37-3.5v-.5h12.52v.5c-.0334641 1.8961424 1.473949 3.461705 3.37 3.5s3.4034641 1.6038576 3.37 3.5z" fill="#009688"/><path id="Shape" d="m54.63 27c-1.896051-.038295-3.4034641-1.6038576-3.37-3.5v-.5h-3v.5c-.0334641 1.8961424 1.473949 3.461705 3.37 3.5s3.4034641 1.6038576 3.37 3.5v1.5h3v-1.5c.0334641-1.8961424-1.473949-3.461705-3.37-3.5z" fill="#00695c"/><path id="Shape" d="m52 18v4c.0163556.5318426-.39837.977784-.93 1h-12.14c-.53163-.022216-.9463556-.4681574-.93-1v-4c-.0163556-.5318426.39837-.977784.93-1h12.14c.53163.022216.9463556.4681574.93 1z" fill="#f5f5f5"/><path id="Shape" d="m51.07 17h-3c.53163.022216.9463556.4681574.93 1v4c.0163556.5318426-.39837.977784-.93 1h3c.53163-.022216.9463556-.4681574.93-1v-4c.0163556-.5318426-.39837-.977784-.93-1z" fill="#cfd8dc"/></g><g id="Layer_2" fill="#000"><path id="Shape" d="m4.38 34.759.4 1.989c.13312742.7425306.71007035 1.326233 1.451 1.468.77935634.2112044 1.57467027.3583609 2.378.44.49041491.0013584.96128073-.1921678 1.309-.538l17.8-17.805.5.5c.5067343.5092982 1.1955542.7956355 1.914.7956355s1.4072657-.2863373 1.914-.7956355l6.243-6.242c.8308096-.825706 1.2964553-1.9496661 1.293-3.121v-.793c-.001572-.6405486.2529804-1.25514692.707-1.707l1.414-1.414c1.2543214-1.26458676 1.6274928-3.15827646.946717-4.80419447-.6807758-1.645918-2.2825883-2.72272537-4.063717-2.73180553-2.146 0-3.079 1.251-4.535 2.707-.4520972.45426627-1.067105.70883919-1.708.707h-.793c-1.1712898-.003232-2.2951672.46237952-3.121 1.293l-6.242 6.243c-1.0558623 1.0575742-1.0558623 2.7704258 0 3.828l.5.5-17.8 17.8c-.43916097.4404801-.62937689 1.0711566-.507 1.681zm19.22-22.395 2.915-2.914 3.517 3.517c.2510745.2599566.6228779.3642126.9725073.2726972.3496295-.0915155.6226744-.3645604.7141899-.7141899.0915154-.3496294-.0127406-.7214328-.2726972-.9725073l-3.517-3.517 1.914-1.914c.4516882-.45438643 1.066307-.70930742 1.707-.708h.793c2.145 0 3.08-1.251 4.536-2.707.9552781-.91200336 2.4587219-.91200336 3.414 0 .9401482.9442165.9401482 2.4707835 0 3.415-1.466 1.465-2.707 2.394-2.707 4.535v.793c.0019743.6403345-.2526603 1.254771-.707 1.706l-1.915 1.915-1.1-1.1c-.2510745-.2599566-.6228779-.3642126-.9725073-.2726972-.3496295.0915155-.6226744.3645604-.7141899.7141899-.0915154.3496294.0127406.7214328.2726972.9725073l1.1 1.1-2.915 2.915c-.2793845.2682009-.7206155.2682009-1 0l-6.035-6.036c-.1326344-.1325944-.207151-.3124549-.207151-.5s.0745166-.3674056.207151-.5zm2.708 6.536-7.5 7.5-2.208-2.211 7.5-7.5zm-11.118 6.7 2.21 2.211-8.838 8.834-1.836-.37-.371-1.837z"/><path id="Shape" d="m8 60c4.3362001.0730486 7.9140884-3.3760357 8-7.712 0-2.984-3.679-8.752-5.647-11.178-.57919131-.702849-1.44225341-1.1099817-2.353-1.1099817s-1.77380869.4071327-2.353 1.1099817c-1.968 2.426-5.647 8.19-5.647 11.178.08591163 4.3359643 3.66379993 7.7850486 8 7.712zm-.8-17.629c.19912442-.2353085.49174582-.3710185.8-.3710185s.60087558.13571.8.3710185c2.12 2.611 5.2 7.773 5.2 9.917-.0845578 3.2319478-2.7678024 5.7863966-6 5.712-3.23219763.0743966-5.9154422-2.4800522-6-5.712 0-2.144 3.08-7.306 5.2-9.917z"/><path id="Shape" d="m3.964 54c.55666938 1.112312 1.60566212 1.8966472 2.83 2.116.53599234.1336529 1.07884704-.1925077 1.21249995-.7285.1336529-.5359923-.19250763-1.0788471-.72849995-1.2125-.62723242-.0857253-1.17934382-.4572464-1.495-1.006-.23634907-.7989804-.15650924-1.6582431.223-2.4.246319-.494571.04507099-1.095181-.4495-1.3415s-1.095181-.045071-1.3415.4495c-.64934377 1.2807283-.74018785 2.7729601-.251 4.123z"/><path id="Shape" d="m55.63 27c-1.3205152-.0374271-2.370328-1.1209616-2.366-2.442.4663236-.3828681.7364281-.9546382.736-1.558v-4c.0167152-1.0857474-.8483029-1.9802852-1.934-2h-12.132c-1.0856971.0197148-1.9507152.9142526-1.934 2v4c-.0004281.6033618.2696764 1.1751319.736 1.558.004328 1.3210384-1.0454848 2.4045729-2.366 2.442-2.4480767.0389231-4.4028369 2.0518341-4.37 4.5v24.5c-.0278207 2.1773599 1.7117194 3.9665499 3.889 4h20.222c2.1772806-.0334501 3.9168207-1.8226401 3.889-4v-24.5c.0328369-2.4481659-1.9219233-4.4610769-4.37-4.5zm-21.63 7h24v18h-24zm17.994-15.013s.006-.005.006.013l.066 4h-12.066l-.066-4.013zm-15.624 10.013c2.2560312-.031293 4.1275938-1.7542506 4.345-4h10.57c.2174062 2.2457494 2.0889688 3.968707 4.345 4 1.3435673.0386895 2.403045 1.1562821 2.37 2.5v.5h-24v-.5c-.033045-1.3437179 1.0264327-2.4613105 2.37-2.5zm19.741 29h-20.222c-1.0730135-.0326673-1.917588-.9268701-1.889-2v-2h24v2c.028588 1.0731299-.8159865 1.9673327-1.889 2z"/><path id="Shape" d="m54.668 36.843c-.0438457-.2768075-.2018373-.5225124-.4354934-.6772692s-.5215305-.204361-.7935066-.1367308c-.213.054-4.821 1.219-7.378 3.226-2.584-1.949-6.933-3.08-7.519-3.225-.2727128-.0679211-.561419-.0179488-.795437.1376827s-.3917439.4025546-.434563.6803173c-.11.72-1.026 7.119.861 9.935 1.919 2.86 5.636 4.183 8.316 2.417.1-.062.173-.147.263-.216.0315816-.0145542.0622991-.0309146.092-.049.031-.025.047-.061.075-.088.9092362-.7704235 1.5173002-1.837103 1.717-3.012l2.081-2.135c.3865993-.3959882.3789882-1.0304007-.017-1.417s-1.0304007-.3789882-1.417.017l-.754.775c-.2120542-.8506336-.5689301-1.6584245-1.055-2.388 1.6593575-1.0669058 3.4681364-1.8811428 5.367-2.416.263 2.434.285 5.831-.621 7.2-.534893.8253124-1.290974 1.4836781-2.182 1.9-.4310299.1925982-.6686462.6604069-.5699412 1.1220758.0987049.4616689.5068389.791416.9789412.7909242 1.4432845-.449301 2.6695376-1.4162708 3.443-2.715 1.824-2.755.89-9.021.778-9.726zm-14.834 8.826c-1.026-1.532-.907-5.2-.684-7.4 2.425.731 5.693 2.084 6.64 3.494 1.0512493 1.3860694 1.2388673 3.2437194.486 4.812l-2.488-3.193c-.3396551-.4357527-.9682473-.5136551-1.404-.174s-.5136551.9682473-.174 1.404l2.52 3.234c-1.599.537-3.658-.334-4.896-2.177z"/></g></g></svg>