<svg height="512" viewBox="0 0 59 60" width="512" xmlns="http://www.w3.org/2000/svg"><g id="041---Makeup-Palette" fill="none"><g id="Layer_3" transform="translate(1 1)"><path id="Shape" d="m42 14c0 7.1797017-5.8202983 13-13 13s-13-5.8202983-13-13c0-7.17970175 5.8202983-13 13-13s13 5.82029825 13 13z" fill="#ffdc00"/><path id="Shape" d="m29 1c-.5013727.00211961-1.0022053.03317123-1.5.093 6.5547585.75793243 11.5005523 6.30856684 11.5005523 12.907 0 6.5984332-4.9457938 12.1490676-11.5005523 12.907 4.8017364.577143 9.5269407-1.5589761 12.2658122-5.5449953 2.7388716-3.9860191 3.0386134-9.1629598.7780779-13.43844173-2.2605356-4.27548191-6.7076311-6.9426717-11.5438901-6.92356297z" fill="#fec108"/><circle id="Oval" cx="29" cy="14" fill="#02a9f4" r="9"/><path id="Shape" d="m29 5c-.5028835.00322243-1.0046224.04837892-1.5.135 4.3297277.72670886 7.5010833 4.4747098 7.5010833 8.865s-3.1713556 8.1382911-7.5010833 8.865c3.3570875.5877651 6.7581917-.7711782 8.7859125-3.5104942 2.0277208-2.7393161 2.334161-6.389019.7916126-9.42810579-1.5425485-3.03908681-4.6694296-4.94613968-8.0775251-4.92640001z" fill="#0377bc"/><path id="Shape" d="m42 44c-.0003786 5.5346567-3.5049687 10.4622271-8.7329906 12.2788757-5.2280219 1.8166487-11.0330243.1240032-14.4653242-4.2178561-3.4322998-4.3418594-3.7392292-10.3808076-.7648287-15.0482873 2.9744004-4.6674797 8.5778754-6.9399608 13.9631435-5.6627323 5.8617607 1.3902386 10.0004121 6.6256327 10 12.65z" fill="#ffdc00"/><path id="Shape" d="m32 31.35c-.9828451-.2337358-1.9897449-.3512074-3-.35-.5012551.0001947-1.0020835.0292427-1.5.087.5048107.0575828 1.005711.1454073 1.5.263 6.1325742 1.4621005 10.3321554 7.1136291 9.9627677 13.4072573-.3693877 6.2936283-5.2012604 11.4150798-11.4627677 12.1497427 6.8239502.7699535 13.0697571-3.9004989 14.2606029-10.663709s-3.0840676-13.2861195-9.7606029-14.893291z" fill="#fec108"/><circle id="Oval" cx="29" cy="44" fill="#ff9801" r="9"/><path id="Shape" d="m35.364 37.636c-2.0612041-2.0586566-4.9924081-2.9904992-7.864-2.5 4.3309147.724033 7.5043027 4.4719812 7.5043027 8.863s-3.173388 8.138967-7.5043027 8.863c3.8609124.6591278 7.7042922-1.2570198 9.5015763-4.7370865s1.1348858-7.7232281-1.6375763-10.4899135z" fill="#f57c00"/><path id="Shape" d="m32 26.65v4.7c-1.9727772-.4666719-4.0272228-.4666719-6 0v-4.7c1.9727772.4666719 4.0272228.4666719 6 0z" fill="#fec108"/><path id="Shape" d="m10 26-.94 30c-.03467544 1.1127251-.94673478 1.996805-2.06 1.996805s-2.02532456-.8840799-2.06-1.996805l-.94-30z" fill="#a0522d"/><path id="Shape" d="m11 15-.02.19-.98 10.81h-6l-.98-10.81-.02-.19z" fill="#9e9e9e"/><path id="Shape" d="m8 15-.02.19-.98 10.81h3l.98-10.81.02-.19z" fill="#707070"/><path id="Shape" d="m10.98 15.19.02-.19h-8l.02.19c-1.7993207-2.7434878-2.84120151-5.91397937-3.02-9.19 0-4.14 3.13-6 7-6s7 1.86 7 6c-.1787985 3.27602063-1.2206793 6.4465122-3.02 9.19z" fill="#ffe0b2"/><path id="Shape" d="m2.9 15c.041.061.077.13.118.19l-.018-.19z" fill="#dfc49c"/><path id="Shape" d="m14 6c0-4.14-3.13-6-7-6-.5017029-.00114499-1.00288893.03226742-1.5.1 3.147.439 5.5 2.311 5.5 5.9-.176405 3.19950953-1.17525827 6.299399-2.9 9h2.9l-.02.19c1.7993207-2.7434878 2.8412015-5.91397937 3.02-9.19z" fill="#dfc49c"/><path id="Shape" d="m57 5c0 2.47-.88 6.21-2.24 8h-6.52c-1.36-1.79-2.24-5.53-2.24-8 0-4.14 2.46-5 5.5-5s5.5.86 5.5 5z" fill="#ffe0b2"/><path id="Shape" d="m55 13-1 7h-5l-1-7z" fill="#9e9e9e"/><path id="Shape" d="m52 13-1 7h3l1-7z" fill="#707070"/><path id="Shape" d="m57 53c0 4.14-2.46 5-5.5 5s-5.5-.86-5.5-5c0-2.47.88-6.21 2.24-8h6.52c1.36 1.79 2.24 5.53 2.24 8z" fill="#ffe0b2"/><path id="Shape" d="m54.76 45h-3c1.36 1.79 2.24 5.53 2.24 8 0 3.431-1.691 4.606-4 4.909.4974791.0630272.9985501.0934256 1.5.091 3.04 0 5.5-.86 5.5-5 0-2.47-.88-6.21-2.24-8z" fill="#dfc49c"/><path id="Shape" d="m54 5c0 2.47-.88 6.21-2.24 8h3c1.36-1.79 2.24-5.53 2.24-8 0-4.14-2.46-5-5.5-5-.5014499-.00242556-1.0025209.02797275-1.5.091 2.309.303 4 1.478 4 4.909z" fill="#dfc49c"/><path id="Shape" d="m55 45h-7l1-7h5z" fill="#9e9e9e"/><path id="Shape" d="m54 38h-3l1 7h3z" fill="#707070"/><path id="Rectangle-path" d="m49 20h5v18h-5z" fill="#a0522d"/></g><g id="Layer_2" fill="#000"><path id="Shape" d="m44 15c.0032998-7.20987514-5.469612-13.24328079-12.6456731-13.9407464-7.176061-.6974656-13.7083789 4.16911124-15.0935297 11.2446796-1.3851507 7.0755684 2.8298719 14.0461015 9.7392028 16.1060668v3.18c-6.6615073 1.9860777-10.856886 8.5591326-9.8533337 15.437582 1.0035522 6.8784495 6.9020616 11.9788259 13.8533337 11.9788259s12.8497815-5.1003764 13.8533337-11.9788259c1.0035523-6.8784494-3.1918264-13.4515043-9.8533337-15.437582v-3.18c5.9270196-1.7739536 9.9905956-7.2232089 10-13.41zm-26 0c0-6.627417 5.372583-12 12-12s12 5.372583 12 12-5.372583 12-12 12c-6.624447-.0071648-11.9928352-5.375553-12-12zm24 30c0 6.627417-5.372583 12-12 12s-12-5.372583-12-12 5.372583-12 12-12c6.624447.0071648 11.9928352 5.375553 12 12zm-10-13.84c-1.3248274-.2129904-2.6751726-.2129904-4 0v-2.32c1.3248274.2129904 2.6751726.2129904 4 0z"/><path id="Shape" d="m40 15c0-5.5228475-4.4771525-10-10-10s-10 4.4771525-10 10 4.4771525 10 10 10c5.5203344-.0060624 9.9939376-4.4796656 10-10zm-18 0c0-4.418278 3.581722-8 8-8s8 3.581722 8 8-3.581722 8-8 8c-4.4162219-.0049599-7.9950401-3.5837781-8-8z"/><path id="Shape" d="m30 55c4.5275795.002323 8.4918458-3.037625 9.6641215-7.4108105s-.7399522-8.988386-4.6616453-11.2509742c-3.921693-2.2625883-8.8742875-1.6079902-12.0734762 1.5957847-2.8738842 2.8543607-3.7381954 7.1623102-2.1877543 10.9043308s5.2082763 6.1762974 9.2587543 6.1616692zm-6.315-14.9 4.9 4.9-4.9 4.9c-2.2413626-2.8821993-2.2413626-6.9178007 0-9.8zm1.415 11.215 4.9-4.9 4.9 4.9c-2.8854713 2.2318047-6.9145287 2.2318047-9.8 0zm11.215-1.415-4.9-4.9 4.9-4.9c2.2413626 2.8821993 2.2413626 6.9178007 0 9.8zm-1.415-11.215-4.9 4.9-4.9-4.9c2.8825652-2.2402961 6.9174348-2.2402961 9.8 0z"/><path id="Shape" d="m25.707 13.707 3-3c.3789722-.3923789.3735524-1.01608478-.0121814-1.40181858-.3857338-.38573379-1.0094397-.39115363-1.4018186-.01218142l-3 3c-.2599566.2510745-.3642126.6228779-.2726972.9725073.0915155.3496295.3645604.6226744.7141899.7141899.3496294.0915154.7214328-.0127406.9725073-.2726972z"/><path id="Shape" d="m32.707 10.293c-.3904999-.39038194-1.0235001-.39038194-1.414 0l-6 6c-.2599566.2510745-.3642126.6228779-.2726972.9725073.0915155.3496295.3645604.6226744.7141899.7141899.3496294.0915154.7214328-.0127406.9725073-.2726972l6-6c.3903819-.3904999.3903819-1.0235001 0-1.414z"/><path id="Shape" d="m4.938 57.035c.05957556 1.648048 1.41287557 2.9533112 3.062 2.9533112s3.0024244-1.3052632 3.062-2.9533112c1.116-35.73.617-26.452 1.9-40.525 1.8229223-2.8516463 2.8700923-6.1296539 3.038-9.51 0-4.317-3.065-7-8-7s-8 2.683-8 7c.16910947 3.3807139 1.217667 6.6587488 3.042 9.51 1.279 14.073.78 4.795 1.896 40.525zm.162-40.035h5.81l-.818 9h-4.179zm3.963 39.973c-.01524312.574819-.48799702 1.0315624-1.063 1.027-.57258764-.0027004-1.04197024-.4549104-1.066-1.027l-.902-28.973h3.936zm-5.882-53.289c-.43722938 2.28914002-.14372587 4.65780777.839 6.771.2602914.4740006.85024153.6552079 1.33173422.4090516.48149269-.2461564.68007169-.8304882.44826578-1.3190516-1.325-2.595-.684-5.774-.275-7.214.48238783-.13669387.9760125-.23006423 1.475-.279v5.948c0 .55228475.44771525 1 1 1s1-.44771525 1-1v-5.948c.4989875.04893577.99261217.14230613 1.475.279.409 1.44 1.05 4.619-.276 7.214-.25128955.4918096-.0563096 1.0942104.4355 1.3455.4918096.2512895 1.0942104.0563096 1.3455-.4355.9827259-2.11319223 1.2762294-4.48185998.839-6.771.8163006.90589604 1.2408878 2.09804775 1.181 3.316-.1728708 2.82407949-1.0157889 5.5663914-2.459 8h-7.082c-1.44321111-2.4336086-2.28612923-5.17592051-2.459-8-.05988776-1.21795225.36469944-2.41010396 1.181-3.316z"/><path id="Shape" d="m52.5 0c-1.608 0-6.5 0-6.5 6 .035537 2.77512336.729213 5.5021886 2.024 7.957-.014.3-.163-.857.976 7.113v17.86c-1.143 8-.99 6.811-.976 7.113-1.294787 2.4548114-1.988463 5.1818766-2.024 7.957 0 6 4.892 6 6.5 6s6.5 0 6.5-6c-.035537-2.7751234-.729213-5.5021886-2.024-7.957.014-.3.163.857-.976-7.113v-17.86c1.143-8 .99-6.811.976-7.113 1.294787-2.4548114 1.988463-5.18187664 2.024-7.957 0-6-4.892-6-6.5-6zm1.5 38h-3v-16h3zm-3.847 7 .714-5h3.266l.714 5zm4.694-30-.714 5h-3.266l-.714-5zm.546 42.485c.2-2.864.038-4.86-.5-5.932-.1596977-.3197527-.4778505-.5300187-.8346134-.5515928-.3567628-.0215741-.6979349.1488214-.895.447-.1970651.2981787-.2200843.6788401-.0603866.9985928.151.3.587 1.555.247 5.514-.5654619.0522562-1.1345381.0522562-1.7 0-.34-3.959.1-5.214.247-5.514.2468713-.4942948.0462948-1.0951287-.448-1.342-.4942949-.2468712-1.0951287-.0462948-1.342.448-.536 1.072-.7 3.068-.5 5.932-1.136-.579-1.607-1.679-1.607-3.485.035853-2.44129.647434-4.8396468 1.785-7h5.43c1.137566 2.1603532 1.749147 4.55871 1.785 7 0 1.806-.471 2.906-1.607 3.485zm-.178-44.485h-5.43c-1.137566-2.1603532-1.749147-4.55871-1.785-7 0-1.806.471-2.906 1.607-3.485-.2 2.864-.038 4.86.5 5.932.2468713.49429485.8477051.69487128 1.342.448s.6948713-.84770515.448-1.342c-.151-.3-.587-1.555-.247-5.514.5654619-.05225622 1.1345381-.05225622 1.7 0 .34 3.959-.1 5.214-.247 5.514-.2468713.49429485-.0462949 1.09512872.448 1.342s1.0951287.04629485 1.342-.448c.536-1.072.7-3.068.5-5.932 1.136.579 1.607 1.679 1.607 3.485-.035853 2.44129-.647434 4.8396468-1.785 7z"/></g></g></svg>