<svg height="512" viewBox="0 0 55 61" width="512" xmlns="http://www.w3.org/2000/svg"><g id="043---Foundation" fill="none"><g id="Layer_3" transform="translate(1)"><path id="Shape" d="m53.0000294 20-.0000294 36.36c.0051702.9557315-.6714618 1.7794575-1.61 1.96-5.5486314 1.0000659-11.2313686 1.0000659-16.78 0-.9385382-.1805425-1.6151702-1.0042685-1.61-1.96l-.0000294-36.36c6.5900113 1.4300092 13.4100475 1.4300092 20.0000588 0z" fill="#02a9f4"/><path id="Shape" d="m50 20.54v35.82c.0051702.9557315-.6714618 1.7794575-1.61 1.96-2.2759505.4078206-4.5788458.6474687-6.89.717 3.3126849.1082963 6.6275755-.1320248 9.89-.717.9385382-.1805425 1.6151702-1.0042685 1.61-1.96l.0000294-36.36c-.9930294.216-1.9950294.389-3.0000294.54z" fill="#0377bc"/><path id="Shape" d="m53 17v3c-6.5899819 1.4300092-13.4100181 1.4300092-20 0 .1279154-3.6598237 2.5223856-6.8524505 6-8 3.07-1.02.09-2.29-1.34-2.79-.4009945-.13648436-.6678045-.51648656-.66-.94v-1.29c0-.55228475.4477153-1 1-1 3.5.02 15 2.02 15 11.02z" fill="#f5f5f5"/><path id="Shape" d="m38 5.98c-.2142712.00415347-.4212324.07864547-.589.212 4.697.701 12.589 3.351 12.589 10.808v3c-2.7959078.6027951-5.6410957.9485691-8.5 1.033 3.8611945.1287096 7.7235545-.2182311 11.5-1.033v-3c0-9-11.5-11-15-11.02z" fill="#cfd8dc"/><path id="Shape" d="m53 5v12c0-9-11.5-11-15-11.02-.5522847 0-1 .44771525-1 1v1.29c-.0078045.42351344.2590055.80351564.66.94 1.43.5 4.41 1.77 1.34 2.79-3.4776144 1.1475495-5.8720846 4.3401763-6 8v-15c.1280866-2.32749763 2.1118007-4.11462745 4.44-4h11.12c2.3281993-.11462745 4.3119134 1.67250237 4.44 4z" fill="#00bcd4"/><path id="Shape" d="m48.56 1h-3c2.3281993-.11462745 4.3119134 1.67250237 4.44 4v5.255c1.9383844 1.701342 3.0346467 4.1661052 3 6.745v-12c-.1280866-2.32749763-2.1118007-4.11462745-4.44-4z" fill="#00838f"/><path id="Shape" d="m17.56 58.33c-.0383736.0177908-.0786266.0312085-.12.04-2.7649834.6468894-5.6235889.7925292-8.44.43-.82056677-.0987267-1.63511743-.2422746-2.44-.43-.91289967-.2104645-1.55973396-1.0231537-1.56-1.96v-20.41c3.42594254 1.0556437 7.0463616 1.3223035 10.59.78l1.54 5.93-.01.04c-.04-.01-.08-.03-.12-.04v14.46c-.0045963.4528726.2025292.8819184.56 1.16z" fill="#4527a0"/><path id="Shape" d="m23.26 21.53-1.6 5.47h-.16c-4.14 0-7.5 1.7-7.5 3.8.0038018.3890699.1145029.7696051.32 1.1l.14.56 1.13 4.32c-3.5436384.5423035-7.16405746.2756437-10.59-.78l-4.26-14.47c3.48009018-1.778928 7.35341601-2.6492223 11.26-2.53 3.906584-.1192223 7.7799098.751072 11.26 2.53z" fill="#825a2c"/><path id="Shape" d="m24 18.99v.01l-.5 1.71c.0013232.0109925-.002346.0219999-.01.03l-.23.79c-3.4800902-1.778928-7.353416-2.6492223-11.26-2.53-3.90658399-.1192223-7.77990982.751072-11.26 2.53l-.68-2.33v-.01c-.00765403-.0080001-.01132315-.0190075-.01-.03l-.05-.16c0-3.31 5.37-6 12-6s11.99 2.68 12 5.99z" fill="#ffe0b2"/><path id="Shape" d="m26 42.71v14.46c.0172874.6332705-.3928311 1.1992341-1 1.38-2.2947613.600005-4.7052387.600005-7 0-.1601334-.042564-.3098687-.1174317-.44-.22-.3574708-.2780816-.5645963-.7071274-.56-1.16l-.0000749-14.46c.0400749.01.0800749.03.1200749.04 2.8125972 1.1200291 5.9474028 1.1200291 8.76 0 .04-.01.08-.03.12-.04z" fill="#9d27b0"/><path id="Shape" d="m29 30.8c-.0038018.3890699-.1145029.7696051-.32 1.1l-.14.56c-2.1990817-1.0338736-4.6111394-1.5341015-7.04-1.46-2.4288606-.0741015-4.8409183.4261264-7.04 1.46l-.14-.56c-.2054971-.3303949-.3161982-.7109301-.32-1.1 0-2.1 3.36-3.8 7.5-3.8h.16c4.07.04 7.34 1.73 7.34 3.8z" fill="#ffe0b2"/><path id="Shape" d="m25.87 42.71.01.04c-2.8125972 1.1200291-5.9474028 1.1200291-8.76 0l.01-.04-1.54-5.93-1.13-4.32c2.1990817-1.0338736 4.6111394-1.5341015 7.04-1.46 2.4288606-.0741015 4.8409183.4261264 7.04 1.46z" fill="#91562d"/></g><g id="Layer_2" fill="#000" transform="translate(-1 -1)"><path id="Shape" d="m34 6v51.358c-.0095042 1.4417023 1.0147736 2.6833021 2.432 2.948 5.6657474 1.027998 11.4702526 1.027998 17.136 0 1.4172264-.2646979 2.4415042-1.5062977 2.432-2.948v-51.358c-.1308454-2.88019363-2.5630933-5.11407306-5.444-5h-11.112c-2.8809067-.11407306-5.3131546 2.11980637-5.444 5zm6 3.273v-1.294c2.956.015 14 1.759 14 10.021v2.172c-5.9159829 1.1724399-12.0040628 1.1775353-17.922.015.3832607-2.921721 2.426744-5.355721 5.238-6.239.5-.165 2.013-.67 2.022-1.951.007-1.075-1.027-1.917-3.338-2.724zm14 48.085c.0086873.4739687-.3231227.8862048-.788.979-4.3590186.7879673-8.8091004.9412209-13.212.455v-23.792c0-.5522847-.4477153-1-1-1s-1 .4477153-1 1v23.529c-.4-.063-.809-.119-1.212-.192-.4648773-.0927952-.7966873-.5050313-.788-.979l-.0001667-35.133c5.9472437 1.1270105 12.0530897 1.1270105 18.0003334 0zm-14.556-54.358h11.112c1.7758012-.11175831 3.3111484 1.22565213 3.444 3v5.99c-1.2647252-1.6106054-2.8909466-2.90075703-4.747-3.766-2.897046-1.37692043-6.0470666-2.14119109-9.253-2.245-.529081-.00169481-1.0369677.20779494-1.411.582-.719.715-.589 1.433-.589 2.712-.000062.8478792.5345119 1.6036562 1.334 1.886.5922934.192031 1.1622329.4471627 1.7.761-.095.04-.211.084-.352.132-1.8651178.5963889-3.5003789 1.7545533-4.682 3.316v-9.368c.1328516-1.77434787 1.6681988-3.11175831 3.444-3z"/><path id="Shape" d="m31.618 33.274c.2481761-.4518233.3794885-.9585106.382-1.474 0-2.45-2.934-4.355-7.026-4.727 2.126-7.273 2.026-6.865 2.026-7.073v-.013c-.012-3.918-5.722-6.987-13-6.987s-13 3.075-13 7c0 .227-.3-.894 5 17.145v20.265c-.00424948 1.4032754.96483983 2.6220101 2.333 2.934 3.6406048.8418983 7.4232109.8606883 11.072.055 1.3262254.4086046 2.7072948.6112963 4.095.601 1.2651471.0003021 2.5252165-.1599787 3.75-.477 1.0514854-.2956212 1.7707415-1.2639454 1.75-2.356 0-15.488.015-14.519-.032-14.7zm-1.618-1.474c-.0012315.1036028-.0180879.2064268-.05.305-4.173503-1.4750416-8.726497-1.4750416-12.9 0-.0319121-.0985732-.0487685-.2013972-.05-.305 0-1.32 2.78-2.8 6.5-2.8s6.5 1.478 6.5 2.8zm-2.969 11.163c-2.2838078.8129758-4.7781922.8129758-7.062 0l-2.327-8.939c3.7848386-1.3680479 7.9291614-1.3680479 11.714 0zm-19.231-6.778-3.866-13.142c5.671-2.726 14.45-2.731 20.134 0l-1.162 3.972c-4.546.163-7.906 2.161-7.906 4.785.0021783.5161673.1335011 1.0235824.382 1.476l.951 3.655c-2.8659388.289966-5.7608548.0368771-8.533-.746zm6.2-21.185c6.363 0 10.837 2.542 11 4.871l-.362 1.229c-6.026-2.769-15.115-2.834-21.275 0 0 0-.344-1.194-.358-1.233.169-2.333 4.637-4.867 10.995-4.867zm-2 43.877v-11.877c0-.5522847-.4477153-1-1-1s-1 .4477153-1 1v11.641c-.40666667-.0666667-.811-.1483333-1.213-.245-.4605815-.1042657-.78743286-.5137644-.787-.986l-.00000043-19.095c2.88944183.7157289 5.88372613.9081001 8.84100043.568 1.459 5.601 1.159 4.311 1.159 4.825 0 15.662-.02 14.562.043 14.913-1.9939986.353572-4.0262425.4396641-6.043.256zm15-.71c.0137694.1780079-.086505.3452657-.25.417-2.1177261.5458255-4.3389281.548577-6.458.008-.413-.415-.292 1.589-.292-13.529 2.2817314.6939868 4.7182686.6939868 7 0z"/><circle id="Oval" cx="11" cy="43" r="1"/></g></g></svg>