<svg height="512" viewBox="0 0 60 60" width="512" xmlns="http://www.w3.org/2000/svg"><g id="046---Lip-Gloss" fill="none"><g id="Layer_3" transform="translate(1)"><path id="Shape" d="m52 17s-6.81 8.15-10 12c-.5934304.7226533-1.245657 1.3949484-1.95 2.01-.35-.01-.7-.01-1.05-.01-7.62 0-14.19 1.89-17.22 4.62-2.2281031-.3740526-4.3799115-1.1104643-6.37-2.18.8290082-.3043959 1.706978-.4535491 2.59-.44-7 0-7-8-7-8-.0440973 1.4093936-.3563315 2.7974782-.92 4.09-.03-.03-.05-.06-.08-.09l-10-12c1.55501579.0541093 3.11169696-.0362786 4.65-.27 1.93 1.97 8.33 7.27 21.35 7.27s19.42-5.3 21.35-7.27c1.538303.2337214 3.0949842.3241093 4.65.27z" fill="#ef314c"/><path id="Shape" d="m52 17c-1.5550158.0541093-3.111697-.0362786-4.65-.27-2.9427574-.3843706-5.7692927-1.3936039-8.29-2.96-.3660727-.2386554-.7198568-.4956495-1.06-.77-4.56-3.65-5.79-3.97-10.52-2.48-.9638621.3000035-1.9961379.3000035-2.96 0-4.73-1.49-5.96-1.17-10.52 2.48-.3401432.2743505-.6939273.5313446-1.06.77-2.5199908 1.5678809-5.34685666 2.5772323-8.29 2.96-1.53830304.2337214-3.09498421.3241093-4.65.27 7-5 6-7.33 12-13.33 4.04-4.04 8.99-2.64 11.79-1.3 1.3948603.68005 3.0251397.68005 4.42 0 2.8-1.34 7.75-2.74 11.79 1.3 6 6 5 8.33 12 13.33z" fill="#ef314c"/><path id="Shape" d="m40 3.67c-2.0267185-2.10141501-4.9660165-3.05693988-7.841-2.549 1.8457917.30697218 3.5434319 1.20085459 4.841 2.549 6 6 5.028 8.336 12.014 13.33h-.014s-6.81 8.15-10 12c-.5934304.7226533-1.245657 1.3949484-1.95 2.01-.35-.01-.7-.01-1.05-.01-7.1 0-13.28 1.641-16.544 4.071.7645841.2233214 1.5403067.4065708 2.324.549 3.03-2.73 9.6-4.62 17.22-4.62.35 0 .7 0 1.05.01.704343-.6150516 1.3565696-1.2873467 1.95-2.01 3.19-3.85 10-12 10-12-7-5-6-7.33-12-13.33z" fill="#bb193b"/><path id="Shape" d="m39.06 13.77c-.5679894.3293525-1.1676765.6007192-1.79.81-2.03.72-5.49 1.42-11.27 1.42-8.04 0-11.59-1.35-13.06-2.23.3660727-.2386554.7198568-.4956495 1.06-.77 4.56-3.65 5.79-3.97 10.52-2.48.9638621.3000035 1.9961379.3000035 2.96 0 .8013372-.2594232 1.6158023-.4763913 2.44-.65.13-.03.27-.05.4-.07 2.65-.43 4.19.41 7.68 3.2.3401432.2743505.6939273.5313446 1.06.77z" fill="#f5f5f5"/><path id="Shape" d="m39.06 13.77c-.5679894.3293525-1.1676765.6007192-1.79.81-.72-.52-1.54-.98-2.27-1.58-2.22-1.78-3.65-2.76-5.08-3.13.13-.03.27-.05.4-.07 2.65-.43 4.19.41 7.68 3.2.3401432.2743505.6939273.5313446 1.06.77z" fill="#cfd8dc"/><path id="Shape" d="m47.35 16.73c-1.93 1.97-8.33 7.27-21.35 7.27s-19.42-5.3-21.35-7.27c2.94314334-.3827677 5.7700092-1.3921191 8.29-2.96 1.47.88 5.02 2.23 13.06 2.23s11.59-1.35 13.06-2.23c2.5207073 1.5663961 5.3472426 2.5756294 8.29 2.96z" fill="#607d8b"/><path id="Shape" d="m39.06 13.77c-.5334775.3092286-1.0949712.5673751-1.677.771 2.1843148 1.1123411 4.5390203 1.852179 6.967 2.189-1.85 1.892-7.85 6.841-19.85 7.232.5.016.984.038 1.5.038 13.02 0 19.42-5.3 21.35-7.27-2.9427574-.3843706-5.7692927-1.3936039-8.29-2.96z" fill="#37474f"/><path id="Shape" d="m58 39c0 1.66-1.2 3.2-3.25 4.47.1611472-.3832628.2460631-.7942557.25-1.21 0-3.72-7.16-6.73-16-6.73s-16 3.01-16 6.73c.0039369.4157443.0888528.8267372.25 1.21-2.05-1.27-3.25-2.81-3.25-4.47.0778171-1.3307312.7267433-2.5629618 1.78-3.38 3.03-2.73 9.6-4.62 17.22-4.62.35 0 .7 0 1.05.01 10 .23 17.95 3.72 17.95 7.99z" fill="#00695c"/><path id="Shape" d="m55 42.26c-.0039369.4157443-.0888528.8267372-.25 1.21-.0055228 0-.01.0044772-.01.01-3.41 2.12-9.19 3.52-15.74 3.52s-12.33-1.4-15.74-3.52c0-.0026522-.0010536-.0051957-.0029289-.0070711-.0018754-.0018753-.0044189-.0029289-.0070711-.0029289-.1611472-.3832628-.2460631-.7942557-.25-1.21 0-3.72 7.16-6.73 16-6.73s16 3.01 16 6.73z" fill="#e91e63"/><path id="Shape" d="m39 35.53c-.506 0-1.006.012-1.5.032 8.135.318 14.5 3.191 14.5 6.7-.0039369.4157443-.0888528.8267372-.25 1.21-.0055228 0-.01.0044772-.01.01-3.145 1.956-8.317 3.284-14.24 3.48.5.017.992.04 1.5.04 6.55 0 12.33-1.4 15.74-3.52 0-.0055228.0044772-.01.01-.01.1614018-.3838845.2463228-.7955816.25-1.212 0-3.72-7.16-6.73-16-6.73z" fill="#ad1457"/><path id="Shape" d="m58 39v12c0 4.42-8.51 8-19 8s-19-3.58-19-8v-12c0 1.66 1.2 3.2 3.25 4.47.0055228 0 .01.0044772.01.01 3.41 2.12 9.19 3.52 15.74 3.52s12.33-1.4 15.74-3.52c0-.0055228.0044772-.01.01-.01 2.05-1.27 3.25-2.81 3.25-4.47z" fill="#009688"/><path id="Shape" d="m55 43.3v7.7c0 4.207-7.713 7.645-17.5 7.968.5.016.994.032 1.5.032 10.49 0 19-3.58 19-8v-12c0 1.589-1.108 3.065-3 4.3z" fill="#00695c"/><path id="Shape" d="m18 33c-.883022-.0135491-1.7609918.1356041-2.59.44-4.41 1.68-4.41 7.56-4.41 7.56s0-8-7-8c2.65316531.1268065 5.09468729-1.443317 6.08-3.91.5636685-1.2925218.8759027-2.6806064.92-4.09 0 0 0 8 7 8z" fill="#ffdc00"/></g><g id="Layer_2" fill="#000" transform="translate(0 -1)"><path id="Shape" d="m43.33 31.13c1-1.126-1.958 2.357 10.438-12.489.1780912-.2136845.2591293-.4918926.2236462-.7677884-.0354832-.2758958-.1842808-.5245445-.4106462-.6862116-6.79-4.851-5.827-7.187-11.874-13.227-4.525-4.526-10.041-2.875-12.926-1.488-1.1250414.54238312-2.4359586.54238312-3.561 0-2.887-1.388-8.402-3.039-12.927 1.488-6.078 6.075-5.044 8.347-11.874 13.227-.34433667.2460236-.49652442.6821617-.38 1.089.073.257-.5-.485 9.857 11.959-.96274005 1.7882099-2.86750856 2.8639217-4.896 2.765-.55228475 0-1 .4477153-1 1s.44771525 1 1 1c5.9 0 6 6.716 6 7v.015c.0041421.5522847.4552153.9966421 1.0075.9925.5522847-.0041422.9966421-.4552153.9925-1.0075 0-.236.075-4.841 3.413-6.448 1.4351269.7321835 2.9488483 1.2988225 4.512 1.689-.585504.8022563-.908596 1.7659436-.925 2.759v12c0 5.047 8.785 9 20 9s20-3.953 20-9v-12c0-4.534-7.1-8.175-16.67-8.87zm14.67 8.87c-.0462906.9006044-.4467204 1.7463955-1.114 2.353-.929-3.947-7.873-6.823-16.886-6.823s-15.957 2.876-16.886 6.823c-.6672796-.6066045-1.0677094-1.4523956-1.114-2.353.1307939-1.1078637.7011694-2.1167403 1.583-2.8 3.048-2.569 10.006-4.2 16.417-4.2 8.514 0 18 2.875 18 7zm-18 7c-5.515 0-11.422-1.211-14.911-3.183-.0547603-.180778-.0847009-.368159-.089-.557 0-2.71 6.16-5.73 15-5.73s15 3.02 15 5.73c-.0042991.188841-.0342397.376222-.089.557-3.489 1.972-9.396 3.183-14.911 3.183zm-26.293-41.626c3.47-3.47 7.7-2.515 10.647-1.1 1.6715929.80901162 3.6214071.80901162 5.293 0 2.942-1.414 7.176-2.374 10.646 1.1 5.063 5.064 5.111 7.641 9.678 11.539-3.3130814-.2259968-6.5229645-1.2467931-9.358-2.976-2.231-1.481-4.724-4.247-8.086-4.247-1.4851559.07269875-2.9510643.3672961-4.349.874-.7671455.2390273-1.5888545.2390273-2.356 0-5.015-1.577-6.622-1.206-11.459 2.665-2.685 2.221-6.823 3.377-10.333 3.684 4.494-3.836 4.658-6.52 9.677-11.539zm.242 10.539c5.5 2.806 20.564 2.811 26.087.008 1.9075383 1.123101 3.9803688 1.9381263 6.142 2.415-9.47 7.582-28.871 7.606-38.367-.009 2.16304218-.4675718 4.2359469-1.2828197 6.138-2.414zm1.934-1.336c4.105-3.264 5.062-3.449 9.34-2.1 1.1565081.3652865 2.3974919.3652865 3.554 0 4.281-1.346 5.238-1.158 9.34 2.1-5.15 1.911-17.075 1.914-22.234 0zm-12.762 4.4c.625-.032 1.366-.1 2.176-.2 10.076 9.662 33.325 9.67 43.408 0 .815.1 1.548.166 2.176.2-9.5 11.381-9.042 10.95-10.234 12.035-5.861-.08-13.715 1-18.1 4.534-.9943607-.1891695-1.9736191-.4505278-2.93-.782.328886-.2622893.4561021-.703779.3172145-1.1008582-.1388877-.3970792-.5135464-.6630265-.9342145-.6631418-5.9 0-6-6.716-6-7v-.013c-.0035899-.5522847-.4542153-.9970899-1.0065-.9935s-.9970899.4542153-.9935 1.0065c-.0208575.708077-.1163866 1.4119756-.285 2.1zm8.879 18.497c-.6275025-1.4415719-1.6841492-2.6546554-3.026-3.474 1.3418508-.8193446 2.3984975-2.0324281 3.026-3.474.6275025 1.4415719 1.6841492 2.6546554 3.026 3.474-1.3418508.8193446-2.3984975 2.0324281-3.026 3.474zm28 21.526c-8.514 0-18-2.875-18-7v-3.052c3.9056562 2.3895301 8.3393733 3.7811197 12.91 4.052.5522847.0497056 1.0402943-.3577153 1.0899999-.91.0497057-.5522847-.3577152-1.0402943-.9099999-1.09-7.117-.641-11.16-2.982-13.09-4.5v-2.536c.4795435.4480391.997911.8526268 1.549 1.209.1108972.1098037.2462746.1917156.395.239 7.905 4.785 24.2 4.787 32.112 0 .1505131-.0465648.2876763-.1285198.4-.239.5493577-.3566163 1.0660439-.7611976 1.544-1.209v8.036c0 4.125-9.486 7-18 7z"/><circle id="Oval" cx="39" cy="52" r="1"/><path id="Shape" d="m7 42c-.55228475 0-1 .4477153-1 1v2c0 .5522847.44771525 1 1 1s1-.4477153 1-1v-2c0-.5522847-.44771525-1-1-1z"/><path id="Shape" d="m6 51c0 .5522847.44771525 1 1 1s1-.4477153 1-1v-2c0-.5522847-.44771525-1-1-1s-1 .4477153-1 1z"/><path id="Shape" d="m9 48h2c.5522847 0 1-.4477153 1-1s-.4477153-1-1-1h-2c-.55228475 0-1 .4477153-1 1s.44771525 1 1 1z"/><path id="Shape" d="m5 46h-2c-.55228475 0-1 .4477153-1 1s.44771525 1 1 1h2c.55228475 0 1-.4477153 1-1s-.44771525-1-1-1z"/></g></g></svg>