<svg height="512" viewBox="0 0 60 60" width="512" xmlns="http://www.w3.org/2000/svg"><g id="047---Citrus-Ingredients" fill="none"><g id="Layer_3" transform="translate(1 1)"><circle id="Oval" cx="17" cy="17" fill="#008a00" r="17"/><path id="Shape" d="m17 0c-.506 0-1 .032-1.5.076 8.7736376.76969109 15.5042963 8.11666546 15.5042963 16.924 0 8.8073345-6.7306587 16.1543089-15.5042963 16.924.5.044.994.076 1.5.076 9.3888406-.0000001 16.9999997-7.6111594 16.9999997-17 0-9.38884065-7.6111591-16.99999986-16.9999997-17z" fill="#007900"/><circle id="Oval" cx="17" cy="17" fill="#60a917" r="13"/><path id="Shape" d="m17 4c-.5013727.00211961-1.0022053.03317123-1.5.093 6.5547585.75793243 11.5005523 6.3085668 11.5005523 12.907s-4.9457938 12.1490676-11.5005523 12.907c4.8017364.577143 9.5269407-1.5589761 12.2658122-5.5449953 2.7388716-3.9860191 3.0386134-9.1629598.7780779-13.4384417-2.2605356-4.27548194-6.7076311-6.94267174-11.5438901-6.923563z" fill="#549414"/><path id="Shape" d="m41.5 17.5c0 3.87-1.22 8.38-2.94 10.19-.02-.01-.05-.01-.08-.02l-.3-.06c-.1283134-.0297414-.2586805-.0497979-.39-.06l-.25-.03c-.18-.01-.36-.02-.54-.02s-.36.01-.54.02l-.25.03c-.1313195.0102021-.2616866.0302586-.39.06l-.3.06c-.03.01-.06.01-.08.02-1.72-1.81-2.94-6.32-2.94-10.19 0-4.97 2.45-7 4.5-7s4.5 2.03 4.5 7z" fill="#f5f5f5"/><path id="Shape" d="m35.48 27.67-.069-.014c.01.011.019.024.029.034.0193749-.0072321.0395012-.0122637.06-.015z" fill="#cfd8dc"/><path id="Shape" d="m37 10.5c-.5213726.0050432-1.0346009.1299287-1.5.365 1.581.778 3 2.854 3 6.635 0 3.848-1.207 8.326-2.911 10.156l.231-.046c.1283134-.0297414.2586805-.0497979.39-.06l.25-.03c.18-.01.36-.02.54-.02s.36.01.54.02l.25.03c.1313195.0102021.2616866.0302586.39.06l.3.06c.03.01.06.01.08.02 1.72-1.81 2.94-6.32 2.94-10.19 0-4.97-2.45-7-4.5-7z" fill="#cfd8dc"/><path id="Shape" d="m41.5 50.5c0 4.97-2.45 7-4.5 7s-4.5-2.03-4.5-7c0-3.87 1.22-8.38 2.93-10.19h.01c.510686.1246404 1.0343262.1884171 1.56.19.5289709-.0015877 1.055921-.0653588 1.57-.19 1.71 1.81 2.93 6.32 2.93 10.19z" fill="#f5f5f5"/><path id="Shape" d="m35.505 40.322c-.021-.005-.044-.007-.065-.012h-.01c-.009.009-.017.021-.026.03.033-.007.068-.011.101-.018z" fill="#cfd8dc"/><path id="Shape" d="m38.57 40.31c-.514079.1246412-1.0410291.1884123-1.57.19-.4731394-.003106-.9445523-.0574224-1.406-.162 1.7 1.827 2.906 6.31 2.906 10.162 0 3.781-1.419 5.857-3 6.635.4653991.2350713.9786274.3599568 1.5.365 2.05 0 4.5-2.03 4.5-7 0-3.87-1.22-8.38-2.93-10.19z" fill="#cfd8dc"/><path id="Shape" d="m32.32 29.49c-.7371439.7612987-1.2762369 1.6918349-1.57 2.71-2.43.58-6.94-.62-10.29-2.55-4.3-2.49-4.83-5.63-3.81-7.4s4.01-2.88 8.31-.4c3.36 1.94 6.65 5.26 7.36 7.64z" fill="#f5f5f5"/><path id="Shape" d="m57.35 45.75c-1.02 1.77-4.01 2.88-8.31.4-3.36-1.94-6.65-5.26-7.36-7.64.7371439-.7612987 1.2762369-1.6918349 1.57-2.71 2.43-.58 6.94.62 10.29 2.55 4.3 2.49 4.83 5.63 3.81 7.4z" fill="#f5f5f5"/><path id="Shape" d="m53.54 38.35c-3.33-1.919-7.8-3.112-10.243-2.556 2.547977.4111476 5.0013129 1.2769113 7.243 2.556 4.3 2.49 4.83 5.63 3.81 7.4-.5048193.8235791-1.3127679 1.4160747-2.25 1.65 2.654.608 4.5-.338 5.252-1.65 1.018-1.77.488-4.91-3.812-7.4z" fill="#cfd8dc"/><path id="Shape" d="m53.54 29.65c-3.35 1.93-7.86 3.13-10.29 2.55-.2937631-1.0181651-.8328561-1.9487013-1.57-2.71.71-2.38 4-5.7 7.36-7.64 4.3-2.48 7.29-1.37 8.31.4s.49 4.91-3.81 7.4z" fill="#f5f5f5"/><path id="Shape" d="m57.35 22.25c-.756-1.313-2.6-2.258-5.252-1.65.9379718.2334523 1.7467111.8260011 2.252 1.65 1.02 1.77.49 4.91-3.81 7.4-2.2408396 1.2785933-4.6931007 2.1443364-7.24 2.556 2.44.556 6.913-.637 10.243-2.556 4.297-2.49 4.827-5.63 3.807-7.4z" fill="#cfd8dc"/><path id="Shape" d="m32.32 38.51c-.0310414.1162988-.0711647.2299814-.12.34-.03.08-.06.15-.09.23 0 .01-.01.02-.02.04-.1278368.2779458-.2714027.5483839-.43.81v.01c-.1.16-.21.33-.32.49-.0129907.0287952-.0298093.0557048-.05.08-.4331735.6116475-.9076105 1.1929999-1.42 1.74-.5836002.6208504-1.2047688 1.2052832-1.86 1.75-.19.16-.39.32-.58.47-.7842413.6154217-1.6094839 1.1767204-2.47 1.68-1.3960314.8813605-3.0001902 1.3781322-4.65 1.44-.2107003.0022659-.4212783-.0111042-.63-.04-.1648837-.0161019-.3285569-.042824-.49-.08l-.25-.06c-.01 0-.03-.01-.04-.01-.937093-.2342216-1.7449399-.8266426-2.25-1.65-1.02-1.77-.49-4.91 3.81-7.4 2.0707939-1.1802752 4.3203782-2.0145805 6.66-2.47.1649611-.0388052.3318615-.0688473.5-.09 1.0351149-.1886789 2.0961118-.1852891 3.13.01 0 .01.01.02.01.03.2945469 1.0068053.8299918 1.9266722 1.56 2.68z" fill="#f5f5f5"/><path id="Shape" d="m32.32 38.51c-.0310414.1162988-.0711647.2299814-.12.34-.03.08-.06.15-.09.23 0 .01-.01.02-.02.04-.1238599.2798961-.267559.5505852-.43.81v.01c-.1.16-.21.33-.32.49-.0129907.0287952-.0298093.0557048-.05.08-.4300676.614004-.9046793 1.1955704-1.42 1.74-.5836002.6208504-1.2047688 1.2052832-1.86 1.75-.19.16-.39.32-.58.47-.7842413.6154217-1.6094839 1.1767204-2.47 1.68-1.3960314.8813605-3.0001902 1.3781322-4.65 1.44-.2107003.0022659-.4212783-.0111042-.63-.04-.1648837-.0161019-.3285569-.042824-.49-.08l-.25-.06c-.01 0-.03-.01-.04-.01 1.0769644-.2606987 2.1085304-.6820901 3.06-1.25 5.23-3.01 10.28-9.37 5.73-10.34 1.0169638-.1687348 2.0553209-.1619702 3.07.02.6164297.049473 1.1695534.3976947 1.4806571.9321548.3111037.5344602.3407435 1.1873964.0793429 1.7478452z" fill="#cfd8dc"/><path id="Shape" d="m43.5 34c-.0010364.6085808-.0851462 1.2141716-.25 1.8-.6475594 2.2282663-2.4293088 3.945294-4.68 4.51-.514079.1246412-1.0410291.1884123-1.57.19-.5256738-.0015829-1.049314-.0653596-1.56-.19h-.01c-2.2506912-.564706-4.0324406-2.2817337-4.68-4.51-.3333333-1.1768519-.3333333-2.4231481 0-3.6.6478949-2.2317139 2.4346513-3.9498954 4.69-4.51.02-.01.05-.01.08-.02l.3-.06c.1283134-.0297414.2586805-.0497979.39-.06l.25-.03c.18-.01.36-.02.54-.02s.36.01.54.02l.25.03c.1313195.0102021.2616866.0302586.39.06l.3.06c.03.01.06.01.08.02 2.2553487.5601046 4.0421051 2.2782861 4.69 4.51.1648538.5858284.2489636 1.1914192.25 1.8z" fill="#ffeb3a"/><path id="Shape" d="m37 27.5c-.5053359.0018198-1.0087358.0625634-1.5.181 2.9301265.6923427 4.99992 3.3081895 4.99992 6.319s-2.0697935 5.6266573-4.99992 6.319c2.4392285.5879214 4.999028-.2805678 6.5769033-2.231413s1.8920339-4.6356452.8071691-6.8980678c-1.0848648-2.2624225-3.3750072-3.6984219-5.8840724-3.6895192z" fill="#fdd834"/></g><g id="Layer_2" fill="#000" transform="translate(-1 -1)"><path id="Shape" d="m30.61 22.16c-.001951.5097555.37985.93939.8863042.9973437.5064542.0579538.9754412-.2743247 1.0886958-.7713437 2.766-10.841-8.156-20.786-18.937-16.32-5.23039777 2.16743198-8.64046851 7.2718022-8.64046851 12.9335s3.41007074 10.766068 8.64046851 12.9335c.883356.3740112 1.807741.6425326 2.754.8.5139653-.0015343.943073-.3924294.9923989-.9040246.049326-.5115952-.2971944-.9772733-.8013989-1.0769754-.4178453-.0839093-.8305252-.1917536-1.236-.323l.408-.983c.2118012-.5103111-.0301889-1.0956988-.5405-1.3075s-1.0956988.0301889-1.3075.5405l-.407.979c-2.210738-1.1484932-4.01465446-2.9492676-5.167-5.158l22.08-9.143c.7009269 2.2049458.7657414 4.5628788.187 6.803zm-.953-8.655-8.812 3.649 3.647-8.811c2.2121804 1.14770233 4.0160126 2.9504868 5.165 5.162zm-22.081 1.85 8.809 3.645-8.808 3.648c-.76931592-2.3700814-.76966593-4.9227077-.001-7.293zm15.068-7.777-3.644 8.805-3.643-8.8c2.3698435-.75643267 4.9161207-.75817981 7.287-.005zm-9.136.765 3.646 8.811-8.811-3.646c1.14801171-2.2129776 2.9520224-4.01698829 5.165-5.165z"/><path id="Shape" d="m19 11c.5522847 0 1-.4477153 1-1v-1c0-.55228475-.4477153-1-1-1s-1 .44771525-1 1v1c0 .5522847.4477153 1 1 1z"/><path id="Shape" d="m28 18c-.5522847 0-1 .4477153-1 1s.4477153 1 1 1h1c.5522847 0 1-.4477153 1-1s-.4477153-1-1-1z"/><path id="Shape" d="m10 18h-1c-.55228475 0-1 .4477153-1 1s.44771525 1 1 1h1c.5522847 0 1-.4477153 1-1s-.4477153-1-1-1z"/><path id="Shape" d="m11.929 13.343c.3923789.3789722 1.0160848.3735524 1.4018186-.0121814s.3911536-1.0094397.0121814-1.4018186l-.707-.707c-.2510745-.2599566-.6228779-.3642126-.9725073-.2726972-.3496295.0915155-.6226744.3645604-.7141899.7141899-.0915154.3496294.0127406.7214328.2726972.9725073z"/><path id="Shape" d="m11.929 24.657-.707.707c-.3789722.3923789-.3735524 1.0160848.0121814 1.4018186s1.0094397.3911536 1.4018186.0121814l.707-.707c.3789722-.3923789.3735524-1.0160848-.0121814-1.4018186s-1.0094397-.3911536-1.4018186-.0121814z"/><path id="Shape" d="m24.657 13.343c.3904999.3903819 1.0235001.3903819 1.414 0l.707-.707c.3789722-.3923789.3735524-1.0160848-.0121814-1.4018186s-1.0094397-.3911536-1.4018186-.0121814l-.707.707c-.3903819.3904999-.3903819 1.0235001 0 1.414z"/><path id="Shape" d="m39.5 32.5c-1.0701541-.0312983-2.1058561.3800703-2.8628929 1.1371071s-1.1684054 1.7927388-1.1371071 2.8628929c0 .5522847.4477153 1 1 1s1-.4477153 1-1c-.0342778-.5412774.1662515-1.0710921.5503331-1.4540249s.9144946-.5818741 1.4556669-.5459751c.5522847-.0016569.9986568-.4507153.997-1.003-.0016569-.5522847-.4507153-.9986568-1.003-.997z"/><path id="Shape" d="m44.5 19.5c0-7.538-5.4-9.663-8.617-6.723-3.2795558-8.90784738-12.9129083-13.73795349-22.0129632-11.03716992-9.10005489 2.70078357-14.5387836 12.00409672-12.4279201 21.25879742 2.11086351 9.2547008 11.0457366 15.2796031 20.4168833 13.7673725.3565604-.0556077.6555017-.2990108.7822237-.6368999s.0615648-.7178439-.1704931-.994207c-.232058-.2763632-.5950153-.4062597-.9497306-.3398931-8.5062975 1.3614338-16.56352162-4.2563042-18.2273533-12.7086568-1.66383167-8.4523525 3.66308186-16.70473599 12.0507428-18.66885009 8.3876608-1.96411409 16.8247113 3.06520208 19.0866105 11.37750689-1.885 3.994-.581 11.129 1.413 14.41-.402647.186669-.7878401.4088829-1.151.664-1.8057892-2.8573243-4.2906592-5.2233273-7.233-6.887-9.226-5.322-14.74 4.183-5.5 9.534 2.8626677 1.6621308 6.0747097 2.6309832 9.379 2.829.381 0 .058-.206.194 1.323-3.3725561.1489625-6.658442 1.1149958-9.575 2.815-7.008 4.059-5.5 10.384-.517 11.051 4.844.633 11.184-4.673 13.251-8.4.3613566.2540649.7445227.4755985 1.145.662-1.5519112 2.9982205-2.3538136 6.3279858-2.337 9.704 0 10.669 11 10.668 11 0 .017152-3.3774487-.785113-6.7086674-2.338-9.708.4004773-.1864015.7836434-.4079351 1.145-.662 2.069 3.736 8.391 9.04 13.251 8.4 4.978-.666 6.485-7-.519-11.052-2.916517-1.6978505-6.2015457-2.6624609-9.573-2.811.135-1.517-.18-1.326.194-1.326 3.3049393-.1986751 6.5175564-1.1678369 9.381-2.83 9.248-5.356 3.721-14.853-5.5-9.533-2.9423408 1.6636727-5.4272108 4.0296757-7.233 6.887-.3631599-.2551171-.748353-.477331-1.151-.664 1.5559679-2.9958796 2.3600699-6.325198 2.343-9.701zm0 16.5c0 3.0375661-2.4624339 5.5-5.5 5.5s-5.5-2.4624339-5.5-5.5 2.4624339-5.5 5.5-5.5c3.0359672.0038566 5.4961434 2.4640328 5.5 5.5zm-6.672-7.406c-1.31-1.794-2.328-5.688-2.328-9.094 0-8 7-8 7 0 0 3.406-1.018 7.3-2.328 9.094-.7766471-.1210214-1.5673529-.1210214-2.344 0zm-14.867 2.191c-5.087-2.946-4.523-6.9-1.253-7.338 4.029-.526 10.123 4.807 11.467 7.838-.4885217.6048931-.8801847 1.281954-1.161 2.007-2.204.25-6.087-.799-9.053-2.507zm3.5 16.5c-6.9 3.977-10.442-2.048-3.5-6.068 2.968-1.709 6.852-2.755 9.055-2.508.2806249.7251373.6723043 1.4022265 1.161 2.007-.905 2.035-3.767 4.865-6.717 6.568zm16.039 5.215c0 8-7 8-7 0 0-3.407 1.017-7.3 2.326-9.1.7758799.1345118 1.5691201.1345118 2.345 0 1.311 1.8 2.329 5.69 2.329 9.1zm12.539-11.285c5.087 2.946 4.523 6.9 1.253 7.338-4.021.526-10.12-4.8-11.467-7.838.4886957-.6047735.8803751-1.2818627 1.161-2.007 2.205-.248 6.088.798 9.053 2.507zm-3.5-16.5c6.891-3.975 10.448 2.045 3.5 6.068-2.968 1.71-6.849 2.759-9.055 2.508-.2808153-.725046-.6724783-1.4021069-1.161-2.007.905-2.035 3.767-4.865 6.717-6.568z"/></g></g></svg>