<svg height="512" viewBox="0 0 60 60" width="512" xmlns="http://www.w3.org/2000/svg"><g id="049---Makeup-Booth" fill="none"><g id="Layer_3" transform="translate(1)"><path id="Shape" d="m58 58c0 .5522847-.4477153 1-1 1h-46c-.5522847 0-1-.4477153-1-1 0-3.8659932 3.1340068-7 7-7h34c3.8637095.0055078 6.9944922 3.1362905 7 7z" fill="#9e9e9e"/><path id="Shape" d="m55 52.26c-1.1700148-.8254366-2.5681319-1.2658435-4-1.26l-3-.0000574c3.8637095.0055652 6.9944922 3.1363479 7 7.0000574 0 .5522847-.4477153 1-1 1h3c.5522847 0 1-.4477153 1-1 .0059005-2.2905307-1.11605-4.437196-3-5.74z" fill="#707070"/><path id="Shape" d="m37.77 51h-14.77l-2.69-6.38 11.99-3.5z" fill="#00695c"/><path id="Shape" d="m58 39.89c0 1.5353516-1.2446484 2.78-2.78 2.78-.0734724.0014252-.1469599-.0019152-.22-.01-.2813949-.0213312-.5578992-.0853993-.82-.19l-11.18-4.47-10.7 3.12-11.99 3.5c-.7811162.2295856-1.6216916-.0640125-2.09-.73l-13.91-19.76 4.69-3.13s12.84 8.56 10.8 16.17c-.1059483.3451323-.015005.7205724.2371356.9789645.2521406.258392.6252413.3585011.9728644.2610355l21.99-6.41 12 4.8 1.25.5c1.0590511.4230421 1.7526611 1.4495848 1.75 2.59z" fill="#009688"/><path id="Shape" d="m56.25 37.3-1.25-.5-12-4.8-1.735.506 10.735 4.294 1.25.5c1.0590511.4230421 1.7526611 1.4495848 1.75 2.59.0023233.9722631-.5091021 1.8734363-1.345 2.37l.525.21c.2621008.1046007.5386051.1686688.82.19.0730401.0080848.1465276.0114252.22.01 1.3334411-.0030269 2.4776358-.9508025 2.7288201-2.2603753.2511844-1.3095727-.4611311-2.6134388-1.6988201-3.1096247z" fill="#00695c"/><path id="Shape" d="m16.8 37.17c-.1059483.3451323-.015005.7205724.2371356.9789645.2521406.258392.6252413.3585011.9728644.2610355l1.851-.539c-.1008462-.2192119-.1224086-.4666488-.061-.7 2.04-7.611-10.8-16.171-10.8-16.171l-1.562 1.042c3.29 2.505 10.975 9.111 9.362 15.128z" fill="#00695c"/><path id="Shape" d="m9 21-4.69 3.13-3.56-5.07c-.48953796-.6894316-.75172495-1.5144467-.75-2.36-.00142484-.6491463.14926926-1.2895962.44-1.87.59406523-1.0551516 1.62859623-1.7896013 2.8206313-2.0024647s2.41682486.1181361 3.3393687.9024647c1.75 1.43 4.3 4.21 2.4 7.27z" fill="#ffe0b2"/><path id="Shape" d="m6.6 13.73c-1.1861547-.958779-2.79386279-1.2115441-4.217-.663.43927601.1527745.85043112.3767646 1.217.663 1.75 1.43 4.3 4.21 2.4 7.27l-2.647 1.767.957 1.363 4.69-3.13c1.9-3.06-.65-5.84-2.4-7.27z" fill="#dfc49c"/><path id="Shape" d="m55 42.66v9.6c-.7761573-.5471452-1.6585105-.9252965-2.59-1.11-.81-.232-1.986-.15-9.41-.15v-13c12.216 4.886 11.431 4.618 12 4.66z" fill="#7f8e94"/><path id="Shape" d="m55 42.66v9.6c-.8888459-.632027-1.9187546-1.0371244-3-1.18v-9.48c2.229.889 2.437 1.018 3 1.06z" fill="#545c60"/><path id="Shape" d="m55 3v13h-12v-13c.0032948-1.10320187.8967981-1.9967052 2-2h8c1.1032019.0032948 1.9967052.89679813 2 2z" fill="#009688"/><path id="Shape" d="m53 1h-3c1.1032019.0032948 1.9967052.89679813 2 2v13h3v-13c-.0032948-1.10320187-.8967981-1.9967052-2-2z" fill="#00695c"/><path id="Rectangle-path" d="m43 16h12v9h-12z" fill="#ffe0b2"/><path id="Rectangle-path" d="m52 16h3v9h-3z" fill="#dfc49c"/><path id="Shape" d="m55 25v11.8l-12-4.8v-7z" fill="#7f8e94"/><path id="Shape" d="m52 25v10.6l3 1.2v-11.8z" fill="#545c60"/><path id="Shape" d="m30.28 18.11c-.78.78-4.58-1.75-8.48-5.66s-6.44-7.7-5.66-8.48 4.58 1.75 8.49 5.66 6.43 7.7 5.65 8.48z" fill="#00bcd4"/><path id="Shape" d="m33.11 15.28-2.83 2.83c.78-.78-1.75-4.58-5.65-8.48s-7.71-6.44-8.49-5.66l2.83-2.83c.78-.78 4.58 1.75 8.49 5.66s6.43 7.7 5.65 8.48z" fill="#0377bc"/><path id="Shape" d="m26 25h8c1.1045695 0 2 .8954305 2 2s-.8954305 2-2 2h-8c-1.1045695 0-2-.8954305-2-2s.8954305-2 2-2z" fill="#009688"/><path id="Shape" d="m34 25h-3c1.1045695 0 2 .8954305 2 2s-.8954305 2-2 2h3c1.1045695 0 2-.8954305 2-2s-.8954305-2-2-2z" fill="#00695c"/></g><g id="Layer_2" fill="#000"><path id="Shape" d="m57.621 36.371-.621-.248v-33.123c0-1.65685425-1.3431458-3-3-3h-8c-1.6568542 0-3 1.34314575-3 3v9h-8.907c-1.4075777-2.1555479-3.062492-4.13902865-4.931-5.91-7.216-7.215-9.4-6.154-9.9-5.656l-2.827 2.828c-.5.5-1.561 2.682 5.656 9.9 4.983 4.984 7.567 6.02 8.853 6.02.3835297.0263297.7612311-.1047464 1.046-.363l2.829-2.829c.223-.222.554-.789.209-1.989h7.972v17.249l-21.232 6.181c.4653407-1.9800564.2347509-4.0599553-.653-5.89l3.411-2.849c.5583411.8174906 1.4840331 1.3069026 2.474 1.308h8c1.6568542 0 3-1.3431458 3-3s-1.3431458-3-3-3h-8c-1.4686803.0047375-2.7179967 1.0720736-2.952 2.522-.3.2.258-.253-3.882 3.206-2.569-4.242-7.1-7.764-8.881-9.049 1.032-2.512-.047-5.279-3.059-7.722-1.46866873-1.2735377-3.5450193-1.5739147-5.31439634-.7688116s-2.90694931 2.5678814-2.91160366 4.5118116c-.00213371 1.0525358.32323444 2.0796647.931 2.939 19.859 28.226 7.769 11.044 17.469 24.822.5255376.7407931 1.3672116 1.1932622 2.275 1.223l1.817 4.316h-4.492c-4.4162219.0049599-7.9950401 3.5837781-8 8 0 1.1045695.8954305 2 2 2h46c1.1045695 0 2-.8954305 2-2-.0007012-2.4262008-1.1045891-4.7204478-3-6.235v-8.178c1.627848-.3487174 2.837059-1.7196339 2.9798003-3.3782833s-.8144662-3.2160052-2.3588003-3.8377167zm-39.421-31.349c3.406 1.546 10.381 8.478 12.022 12.027-3.517-1.628-10.409-8.526-12.022-12.027zm13.715 11.043c-1.628-3.737-8.992-11.1-12.727-12.728l1.323-1.323c.819.169 3.589 1.842 7.237 5.49s5.321 6.417 5.49 7.238zm-4.915 9.935h8c.5522847 0 1 .4477153 1 1s-.4477153 1-1 1h-8c-.5522847 0-1-.4477153-1-1s.4477153-1 1-1zm18 5.323v-5.323h10v9.323zm10-7.323h-10v-7h10zm-10-21c0-.55228475.4477153-1 1-1h8c.5522847 0 1 .44771525 1 1v12h-10zm-42.435 15.488c-.6723899-.8873311-.78463917-2.0787802-.28980468-3.0760783.49483448-.9972981 1.51149298-1.6286113 2.62480468-1.6299217.7515892.0006395 1.48044375.25782 2.066.729 1.739 1.41 3.518 3.544 2.288 5.785l-3.686 2.459zm17.467 24.822-13.312-18.919 3.266-2.179c4.4 3.17 11.255 9.444 9.85 14.7-.1995242.6935475-.0071184 1.440747.5025607 1.9516728.5096792.5109258 1.2564065.7051565 1.9504393.5073272l21.66-6.317 12.933 5.172c.896727.3789449 1.3244451 1.4065244.9614359 2.30982s-1.3828549 1.3491397-2.2924359 1.00218c-12.108-4.838-11.251-4.528-11.529-4.533-.16-.033.2-.112-22.992 6.655-.37324.1071866-.7734625-.033172-.998-.35zm19.327 6.69-4.578-8.269 8.219-2.397v10.666zm-16.691-4.734 10.145-2.96 4.26 7.694h-12.409zm35.332 12.734h-46c.0033074-3.3123376 2.6876624-5.9966926 6-6h34c3.3116533.0049563 5.9950437 2.6883467 6 6zm-13-8v-10.523c11.149 4.457 9.526 3.816 10 3.977v7.135c-1.929-.784-2.751-.589-10-.589z"/><path id="Shape" d="m48 9c.5522847 0 1-.44771525 1-1v-1c0-.55228475-.4477153-1-1-1s-1 .44771525-1 1v1c0 .55228475.4477153 1 1 1z"/><path id="Shape" d="m52 9c.5522847 0 1-.44771525 1-1v-1c0-.55228475-.4477153-1-1-1s-1 .44771525-1 1v1c0 .55228475.4477153 1 1 1z"/><path id="Shape" d="m18 54h-1c-.5522847 0-1 .4477153-1 1s.4477153 1 1 1h1c.5522847 0 1-.4477153 1-1s-.4477153-1-1-1z"/><path id="Shape" d="m33 54h-11c-.5522847 0-1 .4477153-1 1s.4477153 1 1 1h11c.5522847 0 1-.4477153 1-1s-.4477153-1-1-1z"/></g></g></svg>