<svg height="512" viewBox="0 0 57 60" width="512" xmlns="http://www.w3.org/2000/svg"><g id="050---Lip-Filler" fill="none"><g id="Layer_3" transform="translate(1)"><path id="Shape" d="m52 17-10 12c-3.3683628 3.9436902-8.1528161 6.4041635-13.32 6.85l-7.44-7.44c-.7814829-.7814829-2.0485171-.7814829-2.83 0s-.7814829 2.0485171 0 2.83l4.57 4.57c-5.0417916-.5151226-9.6908665-2.9542752-12.98-6.81l-10-12c1.55501579.0541093 3.11169696-.0362786 4.65-.27 1.93 1.97 8.33 7.27 21.35 7.27s19.42-5.3 21.35-7.27c1.538303.2337214 3.0949842.3241093 4.65.27z" fill="#ef314c"/><path id="Shape" d="m52 17c-1.5550158.0541093-3.111697-.0362786-4.65-.27-2.9427574-.3843706-5.7692927-1.3936039-8.29-2.96-.3660727-.2386554-.7198568-.4956495-1.06-.77-4.56-3.65-5.79-3.97-10.52-2.48-.9638621.3000035-1.9961379.3000035-2.96 0-4.73-1.49-5.96-1.17-10.52 2.48-.3401432.2743505-.6939273.5313446-1.06.77-2.5199908 1.5678809-5.34685666 2.5772323-8.29 2.96-1.53830304.2337214-3.09498421.3241093-4.65.27 7-5 6-7.33 12-13.33 4.04-4.04 8.99-2.64 11.79-1.3 1.3948603.68005 3.0251397.68005 4.42 0 2.8-1.34 7.75-2.74 11.79 1.3 6 6 5 8.33 12 13.33z" fill="#ef314c"/><path id="Shape" d="m40 3.67c-2.0267185-2.10141501-4.9660165-3.05693988-7.841-2.549 1.8457917.30697218 3.5434319 1.20085459 4.841 2.549 5.994 5.994 5.028 8.33 12.005 13.324l-.005.006-10 12c-2.7612938 3.2854903-6.5471741 5.5470158-10.749 6.421l.429.429c5.1671839-.4458365 9.9516372-2.9063098 13.32-6.85l10-12c-7-5-6-7.33-12-13.33z" fill="#bb193b"/><path id="Shape" d="m39.06 13.77c-.5679894.3293525-1.1676765.6007192-1.79.81-2.03.72-5.49 1.42-11.27 1.42-8.04 0-11.59-1.35-13.06-2.23.3660727-.2386554.7198568-.4956495 1.06-.77 4.56-3.65 5.79-3.97 10.52-2.48.9638621.3000035 1.9961379.3000035 2.96 0 .8013372-.2594232 1.6158023-.4763913 2.44-.65.13-.03.27-.05.4-.07 2.65-.43 4.19.41 7.68 3.2.3401432.2743505.6939273.5313446 1.06.77z" fill="#f5f5f5"/><path id="Shape" d="m39.06 13.77c-.5679894.3293525-1.1676765.6007192-1.79.81-.72-.52-1.54-.98-2.27-1.58-2.22-1.78-3.65-2.76-5.08-3.13.13-.03.27-.05.4-.07 2.65-.43 4.19.41 7.68 3.2.3401432.2743505.6939273.5313446 1.06.77z" fill="#cfd8dc"/><path id="Shape" d="m47.35 16.73c-1.93 1.97-8.33 7.27-21.35 7.27s-19.42-5.3-21.35-7.27c2.94314334-.3827677 5.7700092-1.3921191 8.29-2.96 1.47.88 5.02 2.23 13.06 2.23s11.59-1.35 13.06-2.23c2.5207073 1.5663961 5.3472426 2.5756294 8.29 2.96z" fill="#607d8b"/><path id="Shape" d="m39.06 13.77c-.5334775.3092286-1.0949712.5673751-1.677.771 2.1843148 1.1123411 4.5390203 1.852179 6.967 2.189-1.85 1.892-7.85 6.841-19.85 7.232.5.016.984.038 1.5.038 13.02 0 19.42-5.3 21.35-7.27-2.9427574-.3843706-5.7692927-1.3936039-8.29-2.96z" fill="#37474f"/><path id="Shape" d="m33.97 41.14-2.83 2.83-8.16-8.16-4.57-4.57c-.7814829-.7814829-.7814829-2.0485171 0-2.83s2.0485171-.7814829 2.83 0l7.44 7.44z" fill="#9e9e9e"/><path id="Shape" d="m42.46 45.38-1 1-6.08 6.08-4.24-8.49 2.83-2.83z" fill="#02a9f4"/><path id="Shape" d="m42.46 45.38-1 1-8.49-4.24 1-1z" fill="#0377bc"/><path id="Shape" d="m53.66 59h-11.33c-.2621467-.0020603-.5132-.1060681-.7-.29l-6.25-6.25 7.08-7.08 11.9 11.91c.2871614.2848091.3744903.714552.2212679 1.0888524s-.5168238.6194518-.9212679.6211476z" fill="#3f51b5"/><path id="Shape" d="m54.36 57.29-11.9-11.91-1.5 1.5 10.4 10.41c.2871614.2848091.3744903.714552.2212679 1.0888524s-.5168238.6194518-.9212679.6211476h3c.4044441-.0016958.7680455-.2468472.9212679-.6211476s.0658935-.8040433-.2212679-1.0888524z" fill="#283593"/></g><g id="Layer_2" fill="#000" transform="translate(0 -1)"><path id="Shape" d="m53.581 17.187c-6.79-4.851-5.827-7.187-11.874-13.227-4.524-4.526-10.041-2.875-12.926-1.488-1.1250414.54238312-2.4359586.54238312-3.561 0-2.887-1.388-8.403-3.039-12.927 1.488-6.078 6.075-5.044 8.347-11.874 13.227-.34433667.2460236-.49652442.6821617-.38 1.089.077.268-.452-.427 10.192 12.365 3.372996 3.9587268 8.1155515 6.4989224 13.28 7.113l7.809 7.808c4.912 9.832 4.053 8.14 4.239 8.427.153.239-.656-.6 6.361 6.425.3759099.3737134.8839369.5842535 1.414.586h11.322c.8087918-.0001727 1.5378681-.487455 1.847356-1.2346909.3094878-.7472359.1384598-1.6073206-.433356-2.1793091-13.026-13.032-11.824-11.862-12.081-12.027-.286-.186 1.407.674-8.427-4.239l-3.781-3.781c4.6802361-.8265252 8.9224039-3.2682134 11.988-6.9 10.9-13.085 10.106-12.064 10.192-12.365.1155895-.4062238-.0364961-.8412688-.38-1.087zm-39.874-11.813c3.47-3.47 7.7-2.515 10.647-1.1 1.6715929.80901162 3.6214071.80901162 5.293 0 2.942-1.414 7.175-2.374 10.646 1.1 5.063 5.064 5.111 7.641 9.678 11.539-3.3130814-.2259968-6.5229645-1.2467931-9.358-2.976-2.231-1.481-4.724-4.247-8.086-4.247-1.4851559.07269875-2.9510643.3672961-4.349.874-.7671455.2390273-1.5888545.2390273-2.356 0-5.014-1.577-6.622-1.206-11.459 2.665-2.685 2.221-6.823 3.377-10.333 3.684 4.494-3.836 4.658-6.52 9.677-11.539zm20.293 6.559c1.508077.6495316 2.8989923 1.5427985 4.117 2.644-1.3346791.4684041-2.7144233.7968349-4.117.98zm-2 3.859c-1.167.106-2.5.175-4 .2v-3.338c1.3135989-.3933516 2.6492505-.7088993 4-.945zm-6 .2c-1.5-.023-2.833-.092-4-.2v-4.083c1.3507598.2360506 2.6864143.551599 4 .945zm-6-.433c-1.4025767-.1831651-2.7823209-.5115959-4.117-.98 1.2178347-1.1016869 2.6087769-1.995309 4.117-2.645zm-6.051.356c5.5 2.806 20.564 2.811 26.087.008 1.9075383 1.123101 3.9803688 1.9381263 6.142 2.415-9.47 7.582-28.871 7.606-38.366-.009 2.16279547-.4683663 4.2353502-1.2842849 6.137-2.416zm29.385 43.085-5.534-5.542 5.658-5.658 1.414 1.415-1.682 1.678c-.2862967.2863801-.3716214.7171518-.2161071 1.0910431.1555142.3738913.521165.6170868.9261071.6159569.537 0 .6-.187 2.389-1.974l1.411 1.415-1.68 1.68c-.2859079.2859943-.3714219.7160366-.216678 1.0896546.1547439.3736179.5192821.6172591.923678.6173454.552 0 .636-.222 2.387-1.973l1.413 1.414-1.679 1.681c-.2859079.2859943-.3714219.7160366-.216678 1.0896546.1547439.3736179.5192821.6172591.923678.6173454.552 0 .636-.222 2.386-1.973l2.715 2.716zm-6.677-7.23-3.3-6.6 1.809-1.809 6.6 3.3zm-4.514-8.213-12.022-12.023c-.1885286-.1864266-.294124-.4408648-.293-.706.0000863-.4043959.2437275-.7689341.6173454-.923678.373618-.1547439.8036603-.0692299 1.0896546.216678l12.022 12.022zm10.088-14.2c-3.0943124 3.6230402-7.4553718 5.9276913-12.192 6.443l-7.089-7.09c-.8627142-.8443579-2.146-1.0925213-3.2613094-.6306761-1.1153093.4618452-1.8474686 1.5445965-1.8606906 2.7516761-.0021556.7960457.3143818 1.5598407.879 2.121l2.236 2.236c-3.5845242-.9519981-6.7881557-2.9864823-9.174-5.826l-8.648-10.38c.625-.032 1.366-.1 2.176-.2 10.075 9.661 33.323 9.672 43.408 0 .816.1 1.549.166 2.177.2z"/><path id="Shape" d="m15.553 8.9c.23847.11990179.5149779.13949204.7679708.0544098.2529929-.08508225.4614723-.26777513.5790292-.5074098.687-1.385 3.057-1.447 3.1-1.447.5522847 0 1-.44771525 1-1s-.4477153-1-1-1c-.147 0-3.633.029-4.895 2.553-.1202529.23785574-.1405786.51387497-.0564646.76678.0841139.25290503.265707.46176791.5044646.58022z"/></g></g></svg>