<svg height="512" viewBox="0 0 60 53" width="512" xmlns="http://www.w3.org/2000/svg"><g id="052---Makeup-Bag" fill="none"><g id="Layer_3" transform="translate(1 16)"><path id="Shape" d="m2 0h50c1.1045695 0 2 .8954305 2 2v28c0 3.3137085-2.6862915 6-6 6h-42c-3.3137085 0-6-2.6862915-6-6v-28c0-1.1045695.8954305-2 2-2z" fill="#ef314c"/><path id="Shape" d="m52 0h-3c1.1045695 0 2 .8954305 2 2v28c0 3.3137085-2.6862915 6-6 6h3c3.3137085 0 6-2.6862915 6-6v-28c0-1.1045695-.8954305-2-2-2z" fill="#bb193b"/><g fill="#cfd8dc"><path id="Shape" d="m7 3c0 2.209139-1.790861 4-4 4-.51528536.00395422-1.02587283-.09816328-1.5-.3-.57569984-.23174557-1.08933507-.59471447-1.5-1.06v-3.64c.0032948-1.10320187.89679813-1.9967052 2-2h3.64c.86485092.75700794 1.36063092 1.85064029 1.36 3z"/><path id="Shape" d="m19 3c0 2.209139-1.790861 4-4 4-.5152854.00395422-1.0258728-.09816328-1.5-.3-1.2859984-.51706194-2.2112937-1.66476092-2.4437882-3.03117633-.2324946-1.36641541.2611608-2.75554779 1.3037882-3.66882367h5.28c.8648509.75700794 1.3606309 1.85064029 1.36 3z"/><path id="Shape" d="m31 3c0 2.209139-1.790861 4-4 4-.5152854.00395422-1.0258728-.09816328-1.5-.3-1.2859984-.51706194-2.2112937-1.66476092-2.4437882-3.03117633-.2324946-1.36641541.2611608-2.75554779 1.3037882-3.66882367h5.28c.8648509.75700794 1.3606309 1.85064029 1.36 3z"/><path id="Shape" d="m43 3c0 2.209139-1.790861 4-4 4-.5152854.00395422-1.0258728-.09816328-1.5-.3-1.2859984-.51706194-2.2112937-1.66476092-2.4437882-3.03117633-.2324946-1.36641541.2611608-2.75554779 1.3037882-3.66882367h5.28c.8648509.75700794 1.3606309 1.85064029 1.36 3z"/><path id="Shape" d="m54 2v3.64c-.7570079.86485092-1.8506403 1.36063092-3 1.36-.5152854.00395422-1.0258728-.09816328-1.5-.3-1.2859984-.51706194-2.2112937-1.66476092-2.4437882-3.03117633-.2324946-1.36641541.2611608-2.75554779 1.3037882-3.66882367h3.64c1.1032019.0032948 1.9967052.89679813 2 2z"/><path id="Shape" d="m7 23c0 2.209139-1.790861 4-4 4-.51528536.0039542-1.02587283-.0981633-1.5-.3-.57569984-.2317456-1.08933507-.5947145-1.5-1.06v-5.28c.41066493-.4652855.92430016-.8282544 1.5-1.06.47412717-.2018367.98471464-.3039542 1.5-.3 2.209139 0 4 1.790861 4 4z"/><path id="Shape" d="m19 23c0 2.209139-1.790861 4-4 4-.5152854.0039542-1.0258728-.0981633-1.5-.3-1.5104342-.6074395-2.5-2.0719969-2.5-3.7s.9895658-3.0925605 2.5-3.7c.4741272-.2018367.9847146-.3039542 1.5-.3 1.060866 0 2.0782816.4214274 2.8284271 1.1715729s1.1715729 1.7675611 1.1715729 2.8284271z"/><path id="Shape" d="m31 23c0 2.209139-1.790861 4-4 4-.5152854.0039542-1.0258728-.0981633-1.5-.3-1.5104342-.6074395-2.5-2.0719969-2.5-3.7s.9895658-3.0925605 2.5-3.7c.4741272-.2018367.9847146-.3039542 1.5-.3 1.060866 0 2.0782816.4214274 2.8284271 1.1715729s1.1715729 1.7675611 1.1715729 2.8284271z"/><path id="Shape" d="m43 23c0 2.209139-1.790861 4-4 4-.5152854.0039542-1.0258728-.0981633-1.5-.3-1.5104342-.6074395-2.5-2.0719969-2.5-3.7s.9895658-3.0925605 2.5-3.7c.4741272-.2018367.9847146-.3039542 1.5-.3 2.209139 0 4 1.790861 4 4z"/><path id="Shape" d="m54 20.36v5.28c-.7570079.8648509-1.8506403 1.3606309-3 1.36-.5152854.0039542-1.0258728-.0981633-1.5-.3-1.5104342-.6074395-2.5-2.0719969-2.5-3.7s.9895658-3.0925605 2.5-3.7c.4741272-.2018367.9847146-.3039542 1.5-.3 1.1493597-.0006309 2.2429921.4951491 3 1.36z"/><path id="Shape" d="m13 33c.0006309 1.1493597-.4951491 2.2429921-1.36 3h-5.28c-1.04262744-.9132759-1.5362828-2.3024083-1.30378823-3.6688237.23249456-1.3664154 1.15778988-2.5141144 2.44378823-3.0311763.47412717-.2018367.98471464-.3039542 1.5-.3 1.060866 0 2.0782816.4214274 2.8284271 1.1715729s1.1715729 1.7675611 1.1715729 2.8284271z"/><path id="Shape" d="m25 33c.0006309 1.1493597-.4951491 2.2429921-1.36 3h-5.28c-1.0426274-.9132759-1.5362828-2.3024083-1.3037882-3.6688237.2324945-1.3664154 1.1577898-2.5141144 2.4437882-3.0311763.4741272-.2018367.9847146-.3039542 1.5-.3 1.060866 0 2.0782816.4214274 2.8284271 1.1715729s1.1715729 1.7675611 1.1715729 2.8284271z"/><path id="Shape" d="m37 33c.0006309 1.1493597-.4951491 2.2429921-1.36 3h-5.28c-1.0426274-.9132759-1.5362828-2.3024083-1.3037882-3.6688237.2324945-1.3664154 1.1577898-2.5141144 2.4437882-3.0311763.4741272-.2018367.9847146-.3039542 1.5-.3 2.209139 0 4 1.790861 4 4z"/><path id="Shape" d="m49 33c.0006309 1.1493597-.4951491 2.2429921-1.36 3h-5.28c-1.0426274-.9132759-1.5362828-2.3024083-1.3037882-3.6688237.2324945-1.3664154 1.1577898-2.5141144 2.4437882-3.0311763.4741272-.2018367.9847146-.3039542 1.5-.3 1.060866 0 2.0782816.4214274 2.8284271 1.1715729s1.1715729 1.7675611 1.1715729 2.8284271z"/><path id="Shape" d="m13 13c0 2.209139-1.790861 4-4 4-.51528536.0039542-1.02587283-.0981633-1.5-.3-1.51043415-.6074395-2.5-2.0719969-2.5-3.7s.98956585-3.09256054 2.5-3.7c.47412717-.20183672.98471464-.30395422 1.5-.3 2.209139 0 4 1.790861 4 4z"/><path id="Shape" d="m25 13c0 2.209139-1.790861 4-4 4-.5152854.0039542-1.0258728-.0981633-1.5-.3-1.5104342-.6074395-2.5-2.0719969-2.5-3.7s.9895658-3.09256054 2.5-3.7c.4741272-.20183672.9847146-.30395422 1.5-.3 1.060866 0 2.0782816.42142736 2.8284271 1.1715729.7501455.7501455 1.1715729 1.7675611 1.1715729 2.8284271z"/><path id="Shape" d="m37 13c0 2.209139-1.790861 4-4 4-.5152854.0039542-1.0258728-.0981633-1.5-.3-1.5104342-.6074395-2.5-2.0719969-2.5-3.7s.9895658-3.09256054 2.5-3.7c.4741272-.20183672.9847146-.30395422 1.5-.3 2.209139 0 4 1.790861 4 4z"/><path id="Shape" d="m49 13c0 2.209139-1.790861 4-4 4-.5152854.0039542-1.0258728-.0981633-1.5-.3-1.5104342-.6074395-2.5-2.0719969-2.5-3.7s.9895658-3.09256054 2.5-3.7c.4741272-.20183672.9847146-.30395422 1.5-.3 1.060866 0 2.0782816.42142736 2.8284271 1.1715729.7501455.7501455 1.1715729 1.7675611 1.1715729 2.8284271z"/></g><path id="Shape" d="m4 3c.00276824 1.62884935-.98774781 3.09481311-2.5 3.7-.57569984-.23174557-1.08933507-.59471447-1.5-1.06v-3.64c.0032948-1.10320187.89679813-1.9967052 2-2h.64c.86485092.75700794 1.36063092 1.85064029 1.36 3z" fill="#f5f5f5"/><path id="Shape" d="m16 3c.0027682 1.62884935-.9877478 3.09481311-2.5 3.7-1.2859984-.51706194-2.2112937-1.66476092-2.4437882-3.03117633-.2324946-1.36641541.2611608-2.75554779 1.3037882-3.66882367h2.28c.8648509.75700794 1.3606309 1.85064029 1.36 3z" fill="#f5f5f5"/><path id="Shape" d="m28 3c.0027682 1.62884935-.9877478 3.09481311-2.5 3.7-1.2859984-.51706194-2.2112937-1.66476092-2.4437882-3.03117633-.2324946-1.36641541.2611608-2.75554779 1.3037882-3.66882367h2.28c.8648509.75700794 1.3606309 1.85064029 1.36 3z" fill="#f5f5f5"/><path id="Shape" d="m40 3c.0027682 1.62884935-.9877478 3.09481311-2.5 3.7-1.2859984-.51706194-2.2112937-1.66476092-2.4437882-3.03117633-.2324946-1.36641541.2611608-2.75554779 1.3037882-3.66882367h2.28c.8648509.75700794 1.3606309 1.85064029 1.36 3z" fill="#f5f5f5"/><path id="Shape" d="m51 2v3.64c-.4106649.46528553-.9243002.82825443-1.5 1.06-1.2859984-.51706194-2.2112937-1.66476092-2.4437882-3.03117633-.2324946-1.36641541.2611608-2.75554779 1.3037882-3.66882367h.64c1.1032019.0032948 1.9967052.89679813 2 2z" fill="#f5f5f5"/><path id="Shape" d="m4 23c.00276824 1.6288493-.98774781 3.0948131-2.5 3.7-.57569984-.2317456-1.08933507-.5947145-1.5-1.06v-5.28c.41066493-.4652855.92430016-.8282544 1.5-1.06 1.51225219.6051869 2.50276824 2.0711507 2.5 3.7z" fill="#f5f5f5"/><ellipse id="Oval" cx="13.5" cy="23" fill="#f5f5f5" rx="2.5" ry="3.7"/><ellipse id="Oval" cx="25.5" cy="23" fill="#f5f5f5" rx="2.5" ry="3.7"/><ellipse id="Oval" cx="37.5" cy="23" fill="#f5f5f5" rx="2.5" ry="3.7"/><path id="Shape" d="m51 20.36v5.28c-.4106649.4652855-.9243002.8282544-1.5 1.06-1.5104342-.6074395-2.5-2.0719969-2.5-3.7s.9895658-3.0925605 2.5-3.7c.5756998.2317456 1.0893351.5947145 1.5 1.06z" fill="#f5f5f5"/><path id="Shape" d="m10 33c.0006309 1.1493597-.49514908 2.2429921-1.36 3h-2.28c-1.04262744-.9132759-1.5362828-2.3024083-1.30378823-3.6688237.23249456-1.3664154 1.15778988-2.5141144 2.44378823-3.0311763 1.51225219.6051869 2.5027682 2.0711507 2.5 3.7z" fill="#f5f5f5"/><path id="Shape" d="m22 33c.0006309 1.1493597-.4951491 2.2429921-1.36 3h-2.28c-1.0426274-.9132759-1.5362828-2.3024083-1.3037882-3.6688237.2324945-1.3664154 1.1577898-2.5141144 2.4437882-3.0311763 1.5122522.6051869 2.5027682 2.0711507 2.5 3.7z" fill="#f5f5f5"/><path id="Shape" d="m34 33c.0006309 1.1493597-.4951491 2.2429921-1.36 3h-2.28c-1.0426274-.9132759-1.5362828-2.3024083-1.3037882-3.6688237.2324945-1.3664154 1.1577898-2.5141144 2.4437882-3.0311763 1.5122522.6051869 2.5027682 2.0711507 2.5 3.7z" fill="#f5f5f5"/><path id="Shape" d="m46 33c.0006309 1.1493597-.4951491 2.2429921-1.36 3h-2.28c-1.0426274-.9132759-1.5362828-2.3024083-1.3037882-3.6688237.2324945-1.3664154 1.1577898-2.5141144 2.4437882-3.0311763 1.5122522.6051869 2.5027682 2.0711507 2.5 3.7z" fill="#f5f5f5"/><ellipse id="Oval" cx="7.5" cy="13" fill="#f5f5f5" rx="2.5" ry="3.7"/><ellipse id="Oval" cx="19.5" cy="13" fill="#f5f5f5" rx="2.5" ry="3.7"/><ellipse id="Oval" cx="31.5" cy="13" fill="#f5f5f5" rx="2.5" ry="3.7"/><ellipse id="Oval" cx="43.5" cy="13" fill="#f5f5f5" rx="2.5" ry="3.7"/></g><g id="Layer_2" fill="#000"><path id="Shape" d="m16 34c-2.7614237 0-5 2.2385763-5 5s2.2385763 5 5 5 5-2.2385763 5-5c-.0033061-2.7600532-2.2399468-4.9966939-5-5zm0 8c-1.6568542 0-3-1.3431458-3-3s1.3431458-3 3-3 3 1.3431458 3 3-1.3431458 3-3 3z"/><path id="Shape" d="m28 34c-2.7614237 0-5 2.2385763-5 5s2.2385763 5 5 5 5-2.2385763 5-5c-.0033061-2.7600532-2.2399468-4.9966939-5-5zm0 8c-1.6568542 0-3-1.3431458-3-3s1.3431458-3 3-3 3 1.3431458 3 3-1.3431458 3-3 3z"/><path id="Shape" d="m40 34c-2.7614237 0-5 2.2385763-5 5s2.2385763 5 5 5 5-2.2385763 5-5c-.0033061-2.7600532-2.2399468-4.9966939-5-5zm0 8c-1.6568542 0-3-1.3431458-3-3s1.3431458-3 3-3 3 1.3431458 3 3-1.3431458 3-3 3z"/><path id="Shape" d="m15 29c0-2.7614237-2.2385763-5-5-5-2.76142375 0-5 2.2385763-5 5s2.23857625 5 5 5c2.7600532-.0033061 4.9966939-2.2399468 5-5zm-5 3c-1.65685425 0-3-1.3431458-3-3s1.34314575-3 3-3c1.6568542 0 3 1.3431458 3 3s-1.3431458 3-3 3z"/><path id="Shape" d="m27 29c0-2.7614237-2.2385763-5-5-5s-5 2.2385763-5 5 2.2385763 5 5 5c2.7600532-.0033061 4.9966939-2.2399468 5-5zm-5 3c-1.2133867 0-2.3072956-.7309265-2.7716386-1.8519497s-.2076757-2.4113767.6503183-3.2693706c.8579939-.857994 2.1483474-1.1146613 3.2693706-.6503183s1.8519497 1.5582519 1.8519497 2.7716386c0 1.6568542-1.3431458 3-3 3z"/><path id="Shape" d="m39 29c0-2.7614237-2.2385763-5-5-5s-5 2.2385763-5 5 2.2385763 5 5 5c2.7600532-.0033061 4.9966939-2.2399468 5-5zm-5 3c-1.6568542 0-3-1.3431458-3-3s1.3431458-3 3-3 3 1.3431458 3 3-1.3431458 3-3 3z"/><path id="Shape" d="m51 29c0-2.7614237-2.2385763-5-5-5s-5 2.2385763-5 5 2.2385763 5 5 5c2.7600532-.0033061 4.9966939-2.2399468 5-5zm-5 3c-1.6568542 0-3-1.3431458-3-3s1.3431458-3 3-3 3 1.3431458 3 3-1.3431458 3-3 3z"/><path id="Shape" d="m56.985 1.145c-2.54-1.016-5.422.089-6.87 3.713-1.041 2.6-.533 7.778-.225 10.142h-46.89c-1.65685425 0-3 1.3431458-3 3v28c.00440864 3.8641657 3.13583434 6.9955914 7 7h42c3.8641657-.0044086 6.9955914-3.1358343 7-7v-28c-.0044967-1.372018-.9392121-2.5661479-2.27-2.9 2.005-1.719 4.814-4.391 5.669-6.528 1.539-3.848-.099-6.503-2.414-7.427zm-16.985 20.855c-1.185147.0040883-2.2603029-.6938073-2.739063-1.7779562-.4787602-1.0841489-.2703037-2.3488877.531063-3.2220438h4.416c.8004066.873451 1.0082833 2.1376866.5296975 3.2214408-.4785859 1.0837542-1.5529792 1.7817393-2.7376975 1.7785592zm-12 0c-1.185147.0040883-2.2603029-.6938073-2.739063-1.7779562-.4787602-1.0841489-.2703037-2.3488877.531063-3.2220438h4.416c.8004066.873451 1.0082833 2.1376866.5296975 3.2214408-.4785859 1.0837542-1.5529792 1.7817393-2.7376975 1.7785592zm-12 0c-1.185147.0040883-2.2603029-.6938073-2.739063-1.7779562-.4787602-1.0841489-.2703037-2.3488877.531063-3.2220438h4.416c.8004066.873451 1.0082833 2.1376866.5296975 3.2214408-.4785859 1.0837542-1.5529792 1.7817393-2.7376975 1.7785592zm-13-5h3.208c1.08229267 1.1747345 1.04504948 2.99413-.08441025 4.1235898-1.12945973 1.1294597-2.94885525 1.1667029-4.12358975.0844102v-3.208c0-.5522847.44771525-1 1-1zm-1 19.792c1.19301557-1.0877496 3.03433103-1.0311161 4.15824278.1278954s1.12391175 3.0011977 0 4.1602092-2.96522721 1.215645-4.15824278.1278954zm8 9.208c1.185147-.0040883 2.2603029.6938073 2.739063 1.7779562.4787602 1.0841489.2703037 2.3488877-.531063 3.2220438h-4.416c-.80040663-.873451-1.00828329-2.1376866-.52969745-3.2214408s1.55297918-1.7817393 2.73769745-1.7785592zm12 0c1.185147-.0040883 2.2603029.6938073 2.739063 1.7779562.4787602 1.0841489.2703037 2.3488877-.531063 3.2220438h-4.416c-.8004066-.873451-1.0082833-2.1376866-.5296975-3.2214408.4785859-1.0837542 1.5529792-1.7817393 2.7376975-1.7785592zm12 0c1.185147-.0040883 2.2603029.6938073 2.739063 1.7779562.4787602 1.0841489.2703037 2.3488877-.531063 3.2220438h-4.416c-.8004066-.873451-1.0082833-2.1376866-.5296975-3.2214408.4785859-1.0837542 1.5529792-1.7817393 2.7376975-1.7785592zm12 0c1.185147-.0040883 2.2603029.6938073 2.739063 1.7779562.4787602 1.0841489.2703037 2.3488877-.531063 3.2220438h-4.416c-.8004066-.873451-1.0082833-2.1376866-.5296975-3.2214408.4785859-1.0837542 1.5529792-1.7817393 2.7376975-1.7785592zm4.7 4.682c.7624275-2.1144446.0202078-4.477764-1.8142041-5.77665-1.8344119-1.2988859-4.310088-1.2140513-6.0512828.2073608s-2.3198946 3.8299958-1.4145131 5.8872892h-2.842c.9204673-2.0959963.2999332-4.5493941-1.5063692-5.9557127-1.8063025-1.4063187-4.3369591-1.4063187-6.1432616 0-1.8063024 1.4063186-2.4268365 3.8597164-1.5063692 5.9557127h-2.844c.9204673-2.0959963.2999332-4.5493941-1.5063692-5.9557127-1.8063025-1.4063187-4.3369591-1.4063187-6.1432616 0-1.8063024 1.4063186-2.4268365 3.8597164-1.5063692 5.9557127h-2.844c.9053815-2.0572934.3266817-4.4658771-1.4145131-5.8872892s-4.21687086-1.5062467-6.05128276-.2073608c-1.83441191 1.298886-2.57663168 3.6622054-1.81420414 5.77665-1.9740692-.7124469-3.291906-2.5833117-3.298-4.682v-2.422c2.09599632.9204673 4.54939406.2999332 5.95571271-1.5063692 1.40631864-1.8063025 1.40631864-4.3369591 0-6.1432616-1.40631865-1.8063024-3.85971639-2.4268365-5.95571271-1.5063692v-10.844c1.88340574.8180251 4.0754687.4013909 5.52742982-1.0505702 1.45196113-1.4519611 1.86859527-3.6440241 1.05057018-5.5274298h2.844c-.9204673 2.0959963-.2999332 4.5493941 1.5063692 5.9557127 1.8063025 1.4063187 4.3369591 1.4063187 6.1432616 0 1.8063024-1.4063186 2.4268365-3.8597164 1.5063692-5.9557127h2.844c-.9204673 2.0959963-.2999332 4.5493941 1.5063692 5.9557127 1.8063025 1.4063187 4.3369591 1.4063187 6.1432616 0 1.8063024-1.4063186 2.4268365-3.8597164 1.5063692-5.9557127h2.844c-.9204673 2.0959963-.2999332 4.5493941 1.5063692 5.9557127 1.8063025 1.4063187 4.3369591 1.4063187 6.1432616 0 1.8063024-1.4063186 2.4268365-3.8597164 1.5063692-5.9557127h2.844c-.8180251 1.8834057-.4013909 4.0754687 1.0505702 5.5274298s3.6440241 1.8685953 5.5274298 1.0505702v10.844c-2.0959963-.9204673-4.5493941-.2999332-5.9557127 1.5063692-1.4063187 1.8063025-1.4063187 4.3369591 0 6.1432616 1.4063186 1.8063024 3.8597164 2.4268365 5.9557127 1.5063692v2.422c-.0063991 2.0992028-1.3251425 3.9702199-3.3 4.682zm3.3-9.474c-1.1930156 1.0877496-3.034331 1.0311161-4.1582428-.1278954-1.1239117-1.1590115-1.1239117-3.0011977 0-4.1602092 1.1239118-1.1590115 2.9652272-1.215645 4.1582428-.1278954zm0-20c-1.1747345 1.0822927-2.99413 1.0450495-4.1235898-.0844102-1.1294597-1.1294598-1.1667029-2.9488553-.0844102-4.1235898h3.208c.5522847 0 1 .4477153 1 1zm3.542-13.378c-.73 1.826-3.708 4.582-5.744 6.282-.3-2.634-.558-6.682.174-8.511.791-1.978 2.314-3.386 4.27-2.6 1.718.687 2.216 2.538 1.3 4.829z"/></g></g></svg>