<svg height="512" viewBox="0 0 60 54" width="512" xmlns="http://www.w3.org/2000/svg"><g id="053---Toe-Separator-" fill="none"><g id="Layer_3" transform="translate(1 1)"><path id="Shape" d="m58 48c0 2.209139-1.790861 4-4 4h-50c-2.11047094-.0098277-3.85019421-1.6576475-3.9744366-3.7644812-.12424238-2.1068336 1.4097486-3.9477081 3.5044366-4.2055188l-1.44-11.53c-.14185131-1.1389009.21171634-2.2839309.97099673-3.1445762.7592804-.8606453 1.85130317-1.3541938 2.99900327-1.3554238h.94c1.14111814-.0012584 2.22825212.4857626 2.98696313 1.338118.75871097.8523555 1.11649677 1.9885945.98303687 3.121882l-1.41 11.54c.00275483 2.2079969 1.7920031 3.9972452 4 4h.94c1.060866 0 2.0782816-.4214274 2.8284271-1.1715729s1.1715729-1.7675611 1.1715729-2.8284271l-1.41-11.54c-.1311435-1.1328089.227457-2.2677356.9856733-3.1195352.7582163-.8517997 1.8439523-1.3394779 2.9843267-1.3404648h.94c2.209139 0 4 1.790861 4 4h-.03l-1.44 11.5c-.019955.1659199-.0299729.3328844-.03.5 0 2.209139 1.790861 4 4 4h1c2.209139 0 4-1.790861 4-4-.0000271-.1671156-.010045-.3340801-.03-.5l-1.44-11.5h-.03c0-2.209139 1.790861-4 4-4h.94c1.1403744.0009869 2.2261104.4886651 2.9843267 1.3404648.7582163.8517996 1.1168168 1.9867263.9856733 3.1195352l-1.41 11.54c0 2.209139 1.790861 4 4 4h.94c2.2079969-.0027548 3.9972452-1.7920031 4-4l-1.41-11.54c-.1334599-1.1332875.2243259-2.2695265.9830369-3.121882.758711-.8523554 1.845845-1.3393764 2.9869631-1.338118h.94c1.1477001.00123 2.2397229.4947785 2.9990033 1.3554238s1.112848 2.0056753.9709967 3.1445762l-1.44 11.53c2.0148783.2333915 3.5338111 1.941653 3.53 3.97z" fill="#9d27b0"/><g fill="#6a1b9a"><path id="Shape" d="m23 32h-.03l-1.44 11.5c-.019955.1659199-.0299729.3328844-.03.5 0 2.209139 1.790861 4 4 4h1c.3379757-.0042496.6740259-.0516327 1-.141-1.7630862-.4515763-2.9971579-2.0390038-3-3.859.0000271-.1671156.010045-.3340801.03-.5l1.44-11.5h.03c0-2.209139-1.790861-4-4-4h-.94c-.3491267.0040529-.6961658.0544946-1.032.15 1.7491461.4608233 2.9690926 2.0411712 2.972 3.85z"/><path id="Shape" d="m37.91 32.46-1.41 11.54c0 2.209139 1.790861 4 4 4h.94c.3480968-.0046215.6940699-.0550549 1.029-.15-1.7473452-.4628839-2.965409-2.0423872-2.969-3.85l1.41-11.54c.1311435-1.1328089-.227457-2.2677356-.9856733-3.1195352-.7582163-.8517997-1.8439523-1.3394779-2.9843267-1.3404648h-.94c-.3477743.0045465-.6934268.0549822-1.028.15 1.9133657.5082758 3.1642071 2.3432405 2.938 4.31z"/><path id="Shape" d="m56.83 45.17c-.6372702-.632908-1.4680919-1.0342371-2.36-1.14l1.44-11.53c.1418513-1.1389009-.2117163-2.2839309-.9709967-3.1445762s-1.8513032-1.3541938-2.9990033-1.3554238h-.94c-.3486768.0038182-.6953291.0535801-1.031.148 1.9288937.5136394 3.1838743 2.3707206 2.941 4.352l-1.44 11.53c2.094688.2578107 3.628679 2.0986852 3.5044366 4.2055188-.1242424 2.1068337-1.8639657 3.7546535-3.9744366 3.7644812h3c1.6188267.001274 3.0788192-.9733095 3.6984897-2.4688395.6196706-1.49553.2768311-3.2171142-.8684897-4.3611605z"/><path id="Shape" d="m7.97 32.46-1.41 11.54c.00275483 2.2079969 1.7920031 3.9972452 4 4h.94c.3487592-.0045506.6954026-.0549837 1.031-.15-1.7463139-.4648707-2.96404823-2.0428839-2.971-3.85l1.41-11.54c.1334599-1.1332875-.2243259-2.2695265-.98303687-3.121882-.75871101-.8523554-1.84584499-1.3393764-2.98696313-1.338118h-.94c-.34800354.0040283-.6939675.0537879-1.029.148 1.91592457.5060927 3.16840089 2.343683 2.939 4.312z"/></g><path id="Shape" d="m58 20c0 2.209139-1.790861 4-4 4h-50c-2.11047094-.0098277-3.85019421-1.6576475-3.9744366-3.7644812-.12424238-2.1068336 1.4097486-3.9477081 3.5044366-4.2055188l-1.44-11.53c-.14185131-1.13890089.21171634-2.28393093.97099673-3.14457621.7592804-.86064529 1.85130317-1.35419381 2.99900327-1.35542379h.94c1.14111814-.00125835 2.22825212.48576258 2.98696313 1.33811802.75871097.85235544 1.11649677 1.98859443.98303687 3.12188198l-1.41 11.54c.00275483 2.2079969 1.7920031 3.9972452 4 4h.94c1.060866 0 2.0782816-.4214274 2.8284271-1.1715729s1.1715729-1.7675611 1.1715729-2.8284271l-1.41-11.54c-.1311435-1.1328089.227457-2.26773556.9856733-3.11953523.7582163-.85179968 1.8439523-1.33947783 2.9843267-1.34046477h.94c2.209139 0 4 1.790861 4 4h-.03l-1.44 11.5c-.019955.1659199-.0299729.3328844-.03.5 0 2.209139 1.790861 4 4 4h1c2.209139 0 4-1.790861 4-4-.0000271-.1671156-.010045-.3340801-.03-.5l-1.44-11.5h-.03c0-2.209139 1.790861-4 4-4h.94c1.1403744.00098694 2.2261104.48866509 2.9843267 1.34046477.7582163.85179967 1.1168168 1.98672633.9856733 3.11953523l-1.41 11.54c0 2.209139 1.790861 4 4 4h.94c2.2079969-.0027548 3.9972452-1.7920031 4-4l-1.41-11.54c-.1334599-1.13328755.2243259-2.26952654.9830369-3.12188198s1.845845-1.33937637 2.9869631-1.33811802h.94c1.1477001.00122998 2.2397229.4947785 2.9990033 1.35542379.7592804.86064528 1.112848 2.00567532.9709967 3.14457621l-1.44 11.53c2.0148783.2333915 3.5338111 1.941653 3.53 3.97z" fill="#ffeb3a"/><path id="Shape" d="m37.91 4.46-1.41 11.54c0 2.209139 1.790861 4 4 4h.94c.3480968-.0046215.6940699-.0550549 1.029-.15-1.7473452-.4628839-2.965409-2.0423872-2.969-3.85l1.41-11.54c.1311435-1.1328089-.227457-2.26773556-.9856733-3.11953523-.7582163-.85179968-1.8439523-1.33947783-2.9843267-1.34046477h-.94c-.3477743.00454652-.6934268.05498219-1.028.15 1.9133657.50827577 3.1642071 2.34324046 2.938 4.31z" fill="#fdd834"/><path id="Shape" d="m23 4h-.03l-1.44 11.5c-.019955.1659199-.0299729.3328844-.03.5 0 2.209139 1.790861 4 4 4h1c.3379757-.0042496.6740259-.0516327 1-.141-1.7630862-.4515763-2.9971579-2.0390038-3-3.859.0000271-.1671156.010045-.3340801.03-.5l1.44-11.5h.03c0-2.209139-1.790861-4-4-4h-.94c-.3491267.00405286-.6961658.05449459-1.032.15 1.7491461.46082326 2.9690926 2.04117117 2.972 3.85z" fill="#fdd834"/><path id="Shape" d="m7.97 4.46-1.41 11.54c.00275483 2.2079969 1.7920031 3.9972452 4 4h.94c.3487592-.0045506.6954026-.0549837 1.031-.15-1.7463139-.4648707-2.96404823-2.0428839-2.971-3.85l1.41-11.54c.1334599-1.13328755-.2243259-2.26952654-.98303687-3.12188198-.75871101-.85235544-1.84584499-1.33937637-2.98696313-1.33811802h-.94c-.34800354.00402831-.6939675.05378795-1.029.148 1.91592457.50609266 3.16840089 2.34368295 2.939 4.312z" fill="#fdd834"/><path id="Shape" d="m56.83 17.17c-.6372702-.632908-1.4680919-1.0342371-2.36-1.14l1.44-11.53c.1418513-1.13890089-.2117163-2.28393093-.9709967-3.14457621-.7592804-.86064529-1.8513032-1.35419381-2.9990033-1.35542379h-.94c-.3486768.00381822-.6953291.05358015-1.031.148 1.9288937.51363938 3.1838743 2.37072057 2.941 4.352l-1.44 11.53c2.094688.2578107 3.628679 2.0986852 3.5044366 4.2055188-.1242424 2.1068337-1.8639657 3.7546535-3.9744366 3.7644812h3c1.6188267.001274 3.0788192-.9733095 3.6984897-2.4688395.6196706-1.49553.2768311-3.2171142-.8684897-4.3611605z" fill="#fdd834"/></g><g id="Layer_2" fill="#000"><path id="Shape" d="m58.54 45.465c-.5519657-.5504922-1.2253211-.9638899-1.966-1.207l1.326-10.634c.1770342-1.4230506-.2647129-2.8536947-1.2132387-3.9292006-.9485258-1.0755058-2.3127427-1.6925919-3.7467613-1.6947994h-.94c-1.4271943-.0007483-2.7865165.6091582-3.7348115 1.6757512-.948295 1.0665931-1.3949426 2.4879476-1.2271885 3.9052488l1.4 11.476c-.0310621 1.6345521-1.3651528 2.9432951-3 2.943h-.938c-1.6340842.000316-2.967863-1.3072319-3-2.941l1.4-11.482c.1644952-1.4159013-.2831506-2.8346987-1.2304356-3.8998214s-2.3041411-1.6752985-3.7295644-1.6771786h-.94c-1.3269492-.0000007-2.5994771.5274698-3.5373028 1.4662334-.9378258.9387636-1.4640241 2.2118181-1.4626972 3.5387666.0004412.1177709.0228231.2344284.066.344l1.411 11.271c.1220134.9204739-.19274 1.8451312-.851 2.5-.8545044.7524434-2.0044529 1.0761653-3.126.88-1.6568542 0-3-1.3431458-3-3 0-.3-.067.336 1.432-11.637.1791555-1.4432721-.3356758-2.886135-1.388-3.89-.935879-.9465722-2.2128916-1.4773396-3.544-1.473h-.94c-1.4262066.0017482-2.7837875.6124644-3.7312134 1.6785096s-1.394513 2.4859443-1.2287866 3.9024904l1.4 11.478c-.0112858.7738374-.3249942 1.5125238-.874 2.058-.8352094.7440627-1.9629763 1.0688567-3.066.883-1.6348472.0002951-2.9689379-1.3084479-3-2.943l1.4-11.48c.1644952-1.4159013-.2831506-2.8346987-1.2304356-3.8998214s-2.30414106-1.6752985-3.7295644-1.6771786h-.94c-1.43391035.002531-2.79792495.619711-3.74637954 1.6951361s-1.39032013 2.5058802-1.21362046 3.9288639l1.326 10.634c-2.32291665.7765944-3.74130863 3.1215753-3.35064611 5.5395131.39066251 2.4179379 2.4753585 4.1969302 4.92464611 4.2024869h50c2.0191149-.0061693 3.8370287-1.2242645 4.6105883-3.0893298s.3514362-4.0122444-1.0705883-5.4456702zm-3.54 6.535h-50c-1.58107682-.0101578-2.88287586-1.2456756-2.975567-2.8240657-.09269114-1.5783902 1.05554676-2.9577867 2.624567-3.1529343.26416807-.0317325.504799-.1674318.66864171-.3770679.1638427-.209636.23738721-.475923.20435829-.7399321l-1.44-11.53c-.10655086-.854187.15895666-1.7129891.729-2.358.8320106-.8413195 2.02341429-1.2216422 3.189-1.018.8548681-.001483 1.66954317.3627759 2.2384476 1.0008585.5689044.6380826.837698 1.4890409.7385524 2.3381415-1.449 11.861-1.417 11.561-1.417 11.661.00330612 2.7600532 2.2399468 4.9966939 5 5h.94c1.3260824 0 2.597852-.5267842 3.5355339-1.4644661s1.4644661-2.2094515 1.4644661-3.5355339c0-.1.079.592-1.417-11.652-.099271-.8500039.1691953-1.7019429.7378521-2.3414668.5686567-.639524 1.3833671-1.0057494 2.2391479-1.0065332 1.103367-.1920483 2.2337931.1335114 3.066.883.5400402.5230147.847073 1.2412265.852 1.993-1.568 12.524-1.478 11.669-1.478 12.124 0 2.7614237 2.2385763 5 5 5h1c1.4350173.000313 2.8009959-.6159602 3.7503964-1.692024.9494006-1.0760638 1.3906938-2.5081778 1.2116036-3.931976-1.647-13.158-1.43-11.479-1.456-11.592.1133084-1.5696476 1.4202683-2.7849369 2.994-2.784 1.107 0 2.191-.1 3.181 1.008.5670442.6361921.8349047 1.4845383.736 2.331-1.451 11.881-1.417 11.551-1.417 11.661 0 2.7614237 2.2385763 5 5 5h.94c2.7600532-.0033061 4.9966939-2.2399468 5-5 0-.1.077.568-1.417-11.657-.0990224-.8484321.1683229-1.6988447.735-2.338 1.007-1.132 2.142-1.005 3.182-1.005.8608163.0014723 1.679697.3719185 2.249144 1.0174702.5694469.6455517.8348128 1.5042582.728856 2.3585298l-1.44 11.53c-.0330289.2640091.0405156.5302961.2043583.7399321.1638427.2096361.4044736.3453354.6686417.3770679 1.5690202.1951476 2.7172581 1.5745441 2.624567 3.1529343-.0926911 1.5783901-1.3944902 2.8139079-2.975567 2.8240657z"/><path id="Shape" d="m58.54 17.465c-.5519657-.5504922-1.2253211-.9638899-1.966-1.207l1.326-10.634c.1770342-1.42305059-.2647129-2.85369471-1.2132387-3.92920058s-2.3127427-1.69259191-3.7467613-1.69479942h-.94c-1.4271943-.00074828-2.7865165.60915824-3.7348115 1.67575125s-1.3949426 2.48794756-1.2271885 3.90524875l1.4 11.476c-.0310621 1.6345521-1.3651528 2.9432951-3 2.943h-.938c-1.6340842.000316-2.967863-1.3072319-3-2.941l1.4-11.482c.1644952-1.41590132-.2831506-2.8346987-1.2304356-3.89982138s-2.3041411-1.67529848-3.7295644-1.67717862h-.94c-1.3269492-.00000066-2.5994771.52746984-3.5373028 1.46623342-.9378258.93876358-1.4640241 2.21181803-1.4626972 3.53876658.0004412.11777085.0228231.23442844.066.344l1.411 11.271c.1220134.9204739-.19274 1.8451312-.851 2.5-.8545044.7524434-2.0044529 1.0761653-3.126.88-1.6568542 0-3-1.3431458-3-3 0-.3-.067.336 1.432-11.637.1791555-1.44327213-.3356758-2.88613503-1.388-3.89-.935879-.94657218-2.2128916-1.47733957-3.544-1.473h-.94c-1.4262066.00174817-2.7837875.61246441-3.7312134 1.67850958s-1.394513 2.48594429-1.2287866 3.90249042l1.4 11.478c-.0112858.7738374-.3249942 1.5125238-.874 2.058-.8352094.7440627-1.9629763 1.0688567-3.066.883-1.6348472.0002951-2.9689379-1.3084479-3-2.943l1.4-11.48c.1644952-1.41590132-.2831506-2.8346987-1.2304356-3.89982138s-2.30414106-1.67529848-3.7295644-1.67717862h-.94c-1.43391035.00253102-2.79792495.61971099-3.74637954 1.69513611s-1.39032013 2.50588022-1.21362046 3.92886389l1.326 10.634c-2.32291665.7765944-3.74130863 3.1215753-3.35064611 5.5395131.39066251 2.4179379 2.4753585 4.1969302 4.92464611 4.2024869h50c2.0191149-.0061693 3.8370287-1.2242645 4.6105883-3.0893298s.3514362-4.0122444-1.0705883-5.4456702zm-3.54 6.535h-50c-1.58107682-.0101578-2.88287586-1.2456756-2.975567-2.8240657-.09269114-1.5783902 1.05554676-2.9577867 2.624567-3.1529343.26416807-.0317325.504799-.1674318.66864171-.3770679.1638427-.209636.23738721-.475923.20435829-.7399321l-1.44-11.53c-.10655086-.85418698.15895666-1.71298909.729-2.358.8320106-.84131953 2.02341429-1.22164219 3.189-1.018.8548681-.00148301 1.66954317.36277589 2.2384476 1.00085849.5689044.6380826.837698 1.48904091.7385524 2.33814151-1.449 11.861-1.417 11.561-1.417 11.661.00330612 2.7600532 2.2399468 4.9966939 5 5h.94c1.3260824 0 2.597852-.5267842 3.5355339-1.4644661s1.4644661-2.2094515 1.4644661-3.5355339c0-.1.079.592-1.417-11.652-.099271-.85000392.1691953-1.70194286.7378521-2.34146681.5686567-.63952396 1.3833671-1.00574944 2.2391479-1.00653319 1.103367-.19204832 2.2337931.13351144 3.066.883.5400402.52301467.847073 1.24122647.852 1.993-1.568 12.524-1.478 11.669-1.478 12.124 0 2.7614237 2.2385763 5 5 5h1c1.4350173.000313 2.8009959-.6159602 3.7503964-1.692024.9494006-1.0760638 1.3906938-2.5081778 1.2116036-3.931976-1.647-13.158-1.43-11.476-1.456-11.592.1133084-1.56964758 1.4202683-2.78493693 2.994-2.784 1.107 0 2.191-.105 3.181 1.008.5670442.63619211.8349047 1.48453831.736 2.331-1.451 11.881-1.417 11.551-1.417 11.661 0 2.7614237 2.2385763 5 5 5h.94c2.7600532-.0033061 4.9966939-2.2399468 5-5 0-.1.077.568-1.417-11.657-.0990224-.84843208.1683229-1.69884474.735-2.338 1.007-1.132 2.142-1.005 3.182-1.005.8608163.00147233 1.679697.37191845 2.249144 1.01747017.5694469.64555171.8348128 1.5042582.728856 2.35852983l-1.44 11.53c-.0330289.2640091.0405156.5302961.2043583.7399321.1638427.2096361.4044736.3453354.6686417.3770679 1.5690202.1951476 2.7172581 1.5745441 2.624567 3.1529343-.0926911 1.5783901-1.3944902 2.8139079-2.975567 2.8240657z"/></g></g></svg>