<svg height="512" viewBox="0 0 60 61" width="512" xmlns="http://www.w3.org/2000/svg"><g id="055---Shavers" fill="none"><g id="Layer_3" transform="translate(1 1)"><path id="Shape" d="m58 8c0 4.42-1.6 8-3.58 8h-26.84c-1.98 0-3.58-3.58-3.58-8s1.6-8 3.58-8h26.84c1.98 0 3.58 3.58 3.58 8z" fill="#9e9e9e"/><path id="Shape" d="m54.42 0h-3c1.98 0 3.58 3.58 3.58 8s-1.6 8-3.58 8h3c1.98 0 3.58-3.58 3.58-8s-1.6-8-3.58-8z" fill="#707070"/><path id="Shape" d="m46 26h-10l1-5h8z" fill="#9e9e9e"/><path id="Shape" d="m45 21h-3l1 5h3z" fill="#707070"/><path id="Shape" d="m46.65 47h-11.3l.65-21h10z" fill="#02a9f4"/><path id="Shape" d="m46 26h-3l.65 21h3z" fill="#0377bc"/><path id="Shape" d="m46.81 52h-11.62l.16-5h11.3z" fill="#9e9e9e"/><path id="Shape" d="m46.65 47h-3l.16 5h3z" fill="#707070"/><path id="Shape" d="m46.81 52c.0681441 2.1202375-1.0240902 4.1092428-2.8497534 5.1895226s-4.09483 1.0802798-5.9204932 0-2.9178975-3.0692851-2.8497534-5.1895226z" fill="#02a9f4"/><path id="Shape" d="m43.81 52c.0821074 2.6988639-1.7021978 5.1000171-4.31 5.8 1.7772814.4835433 3.6785926.0930933 5.1214738-1.0517373 1.4428813-1.1448305 2.2553563-2.9075897 2.1885262-4.7482627z" fill="#0377bc"/><path id="Shape" d="m6 16c-3.3137085 0-6 2.6862915-6 6s2.6862915 6 6 6 6-2.6862915 6-6-2.6862915-6-6-6zm0 8c-1.1045695 0-2-.8954305-2-2s.8954305-2 2-2 2 .8954305 2 2c-.0032948 1.1032019-.89679813 1.9967052-2 2z" fill="#9e9e9e"/><path id="Shape" d="m6 16c-.50644964.0029108-1.01048026.0701149-1.5.2 2.6423033.6854867 4.4873193 3.0702273 4.4873193 5.8s-1.845016 5.1145133-4.4873193 5.8c2.25621684.5974295 4.6541441-.167743 6.1473104-1.961591s1.8105762-4.2908052.8137097-6.4011828-3.12708732-3.4511621-5.4610201-3.4372262z" fill="#707070"/><circle id="Oval" cx="6" cy="22" fill="#cfd8dc" r="2"/><path id="Shape" d="m20 16c-2.4314621-.0032355-4.6251565 1.4593795-5.557132 3.7051401-.9319755 2.2457605-.4184651 4.8318472 1.3008398 6.5511521s4.3053916 2.2328153 6.5511521 1.3008398c2.2457606-.9319755 3.7083756-3.1256699 3.7051401-5.557132 0-3.3137085-2.6862915-6-6-6zm0 8c-1.1045695 0-2-.8954305-2-2s.8954305-2 2-2 2 .8954305 2 2c-.0032948 1.1032019-.8967981 1.9967052-2 2z" fill="#9e9e9e"/><path id="Shape" d="m20 16c-.5064496.0029108-1.0104803.0701149-1.5.2 2.652218.6768725 4.5080165 3.065772 4.5080165 5.803s-1.8557985 5.1261275-4.5080165 5.803c2.2531797.5872914 4.6426897-.1820582 6.1299399-1.9736543 1.4872502-1.7915962 1.8036517-4.2818866.8116819-6.3884777s-3.1131667-3.4490442-5.4416218-3.443868z" fill="#707070"/><circle id="Oval" cx="20" cy="22" fill="#cfd8dc" r="2"/><path id="Shape" d="m13 28c-2.0071002.0042807-3.87972991 1.0097213-4.99214437 2.680351-1.11241446 1.6706296-1.31792349 3.7861483-.54785563 5.639649l.01.02.79 1.33c1.13364722 1.4678243 2.8829152 2.3281991 4.7375473 2.3301554 1.8546321.0019564 3.6057113-.854726 4.7424527-2.3201554v-.01l.79-1.33.01-.02c.7700679-1.8535007.5645588-3.9690194-.5478556-5.639649-1.1124145-1.6706297-2.9850442-2.6760703-4.9921444-2.680351zm0 8c-1.1045695 0-2-.8954305-2-2s.8954305-2 2-2 2 .8954305 2 2c-.0032948 1.1032019-.8967981 1.9967052-2 2z" fill="#9e9e9e"/><path id="Shape" d="m13 28c-.5064496.0029108-1.0104803.0701149-1.5.2 1.6842002.4371993 3.096254 1.5828741 3.8711145 3.1408423s.8364643 3.3752936.1688855 4.9821577l-.01.02-.79 1.33v.01c-.8173297 1.04431-1.9560743 1.7901174-3.24 2.122 2.3178871.605801 4.7735861-.2304747 6.24-2.125v-.01l.79-1.33.01-.02c.7700679-1.8535007.5645588-3.9690194-.5478556-5.639649-1.1124145-1.6706297-2.9850442-2.6760703-4.9921444-2.680351z" fill="#707070"/><path id="Shape" d="m7.47 36.34.79 1.33c-.32185772-.4058501-.58758018-.8532056-.79-1.33z" fill="#4527a0"/><path id="Shape" d="m18.53 36.34c-.2024198.4767944-.4681423.9241499-.79 1.33z" fill="#4527a0"/><circle id="Oval" cx="13" cy="34" fill="#cfd8dc" r="2"/><path id="Shape" d="m25.3 24.87-.68 1.14v.02l-6.08 10.29c1.0436156-2.5093919.2701813-5.4068942-1.885171-7.0623813-2.1553524-1.655487-5.1543056-1.655487-7.30965796 0-2.15535235 1.6554871-2.92878659 4.5529894-1.88517104 7.0623813l-6.08-10.29v-.02l-.68-1.14.02-.01c1.39724149 2.5768351 4.45184378 3.7668817 7.22406379 2.8144326s4.45043551-3.7685454 3.96894071-6.6600028c-.4814947-2.8914574-2.98173246-5.0117444-5.9130045-5.0144298h14c-2.931272.0026854-5.4315098 2.1229724-5.9130045 5.0144298-.4814948 2.8914574 1.1967207 5.7075537 3.9689407 6.6600028s5.8268223-.2375975 7.2240638-2.8144326z" fill="#4527a0"/><path id="Shape" d="m19.12 57.41c-1.0228898.4106714-2.1179564.6113203-3.22.59h-5.8c-1.10204355.0213203-2.19711022-.1793286-3.22-.59-3.25131271-1.4575048-5.15877233-4.8779175-4.69-8.41h21.62c.4687723 3.5320825-1.4386873 6.9524952-4.69 8.41z" fill="#9d27b0"/><path id="Shape" d="m23.81 49h-3c.4687723 3.5320825-1.4386873 6.9524952-4.69 8.41-1.0228898.4106714-2.1179564.6113203-3.22.59h3c1.1020436.0213203 2.1971102-.1793286 3.22-.59 3.2513127-1.4575048 5.1587723-4.8779175 4.69-8.41z" fill="#6a1b9a"/><path id="Shape" d="m23.81 49h-21.62c.14-1.33.24-2.66.3-4h21.02c.06 1.34.16 2.67.3 4z" fill="#9e9e9e"/><path id="Shape" d="m23.51 45h-3c.06 1.34.16 2.67.3 4h3c-.14-1.33-.24-2.66-.3-4z" fill="#707070"/><path id="Shape" d="m23.51 45h-21.02c.35283653-6.34497-.01957288-12.7094804-1.11-18.97l6.08 10.29.01.02c.20241982.4767944.46814228.9241499.79 1.33 1.13364722 1.4678243 2.8829152 2.3281991 4.7375473 2.3301554 1.8546321.0019564 3.6057113-.854726 4.7424527-2.3201554v-.01c.3218577-.4058501.5875802-.8532056.79-1.33l.01-.02 6.08-10.29c-1.0904271 6.2605196-1.4628365 12.62503-1.11 18.97z" fill="#9d27b0"/><path id="Shape" d="m24.62 26.03-3.871 6.552c-.3856341 4.1277844-.4655185 8.2784339-.239 12.418h3c-.3528365-6.34497.0195729-12.7094804 1.11-18.97z" fill="#6a1b9a"/><path id="Shape" d="m48 16c-3 0-3 5-3 5h-8s0-5-3-5z" fill="#607d8b"/><path id="Shape" d="m45 16c-3 0-3 5-3 5h3s0-5 3-5z" fill="#37474f"/></g><g id="Layer_2" fill="#000"><path id="Shape" d="m55.421 0h-26.842c-2.61 0-4.579 3.869-4.579 9s1.969 9 4.579 9h6.421c1.78 0 1.977 3.35 2 3.915-1.23 6.153-.939 4.67-.976 4.961-.044.363-.866 27.516-.829 26.129-.0736454 2.4804573 1.2076042 4.8046718 3.3443088 6.0666486 2.1367046 1.2619767 4.7906778 1.2619767 6.9273824 0 2.1367046-1.2619768 3.4179542-3.5861913 3.3443088-6.0666486 0-.1-.792-25.83-.829-26.123-.033-.275.1.4-.976-4.963.022-.556.232-3.916 2-3.916h6.421c2.604-.003 4.573-3.872 4.573-9.003s-1.969-9-4.579-9zm-9.39 28 .59 19h-9.242l.59-19zm-8.714 21h9.367l.093 3h-9.554zm7.863-26 .6 3h-7.56l.6-3zm-3.18 35c-2.3446573.0004898-4.3483513-1.6889656-4.744-4h9.488c-.3964077 2.3105999-2.3996428 3.9996682-4.744 4zm3.054-37h-6.108c-.0915093-1.0450459-.3809884-2.0631436-.853-3h7.814c-.4720116.9368564-.7614907 1.9549541-.853 3zm10.367-5h-26.842c-1.052 0-2.579-2.727-2.579-7s1.527-7 2.579-7h26.842c1.052 0 2.579 2.727 2.579 7s-1.527 7-2.579 7z"/><path id="Shape" d="m54 4h-24c-.5522847 0-1 .44771525-1 1s.4477153 1 1 1h24c.5522847 0 1-.44771525 1-1s-.4477153-1-1-1z"/><path id="Shape" d="m54 8h-24c-.5522847 0-1 .44771525-1 1s.4477153 1 1 1h24c.5522847 0 1-.44771525 1-1s-.4477153-1-1-1z"/><path id="Shape" d="m54 12h-24c-.5522847 0-1 .4477153-1 1s.4477153 1 1 1h24c.5522847 0 1-.4477153 1-1s-.4477153-1-1-1z"/><path id="Shape" d="m7 26c1.65685425 0 3-1.3431458 3-3s-1.34314575-3-3-3-3 1.3431458-3 3 1.34314575 3 3 3zm0-4c.55228475 0 1 .4477153 1 1s-.44771525 1-1 1-1-.4477153-1-1 .44771525-1 1-1z"/><path id="Shape" d="m21 16h-14c-2.43178535.0029883-4.68777655 1.2678381-5.95892354 3.3409455-1.271147 2.0731074-1.3752883 4.6573861-.27507646 6.8260545.078.248-.078-.045.658 1.2 1.27779315 7.4334727 1.53885136 15.006179.776 22.51-.37566094 2.5677253.39537883 5.1708706 2.10885333 7.1198034 1.7134745 1.9489329 4.1964562 3.0469628 6.79114667 3.0031966 5.821 0 7.4.186 9.422-.674 3.6629873-1.6156036 5.8166948-5.4582776 5.283-9.426-.7661104-7.5098735-.5067308-15.089072.771-22.529.736-1.248.58-.955.658-1.2 1.1021258-2.1689968.998984-4.7546877-.2724054-6.8290063-1.2713895-2.0743185-3.5286492-3.3397095-5.9615946-3.3419937zm-.227 17.262c-.3979232-1.5403939-1.3081392-2.8995464-2.581-3.854 1.4668099.6498368 3.1141236.7686386 4.659.336zm-2.798 4.738c-.933763 1.2582512-2.4081211 2.0001059-3.975 2.0001059s-3.041237-.7418547-3.975-2.0001059l-.641-1.086c-.87057069-2.091255-.22645799-4.5065252 1.5698505-5.8865676 1.7963084-1.3800423 4.2959906-1.3800423 6.092299 0 1.7963085 1.3800424 2.4404212 3.7953126 1.5698505 5.8865676zm-12.826-8.256c1.54483381.4330606 3.19229279.3142484 4.659-.336-1.27286079.9544536-2.18307683 2.3136061-2.581 3.854zm20.851-6.744c0 2.7614237-2.2385763 5-5 5s-5-2.2385763-5-5 2.2385763-5 5-5c2.7600532.0033061 4.9966939 2.2399468 5 5zm-9.889-5c-1.4634364 1.4248181-2.228818 3.4194856-2.0941287 5.4575266.1346892 2.0380411 1.1559134 3.9146361 2.7941287 5.1344734-1.7886495-.7900179-3.8273505-.7900179-5.616 0 1.63709-1.2209743 2.6569239-3.0980082 2.7904491-5.1359024.1335251-2.0378942-.6326705-4.0319508-2.0964491-5.4560976zm-9.111 0c2.76142375 0 5 2.2385763 5 5s-2.23857625 5-5 5-5-2.2385763-5-5c.00330612-2.7600532 2.23994685-4.9966939 5-5zm16.724 31h-19.447c.059-.667.119-1.334.162-2h19.123c.043.666.103 1.333.162 2zm-4 8.49c-1.6.679-2.917.51-8.629.51-.9637013.0212449-1.92189174-.1508078-2.818-.506-2.5575458-1.1373717-4.18559211-3.6954488-4.133-6.494h19.714c.0524657 2.796385-1.5738329 5.352616-4.129 6.49zm3.738-12.49h-18.923c.18517977-4.3832887.03172392-8.7743325-.459-13.134l3.526 5.971c1.12491701 2.5246528 3.6300698 4.1510065 6.394 4.1510065s5.269083-1.6263537 6.394-4.1510065l3.526-5.97c-.4909632 4.3593164-.6440863 8.7500722-.458 13.133z"/><path id="Shape" d="m18 23c0 1.6568542 1.3431458 3 3 3s3-1.3431458 3-3-1.3431458-3-3-3-3 1.3431458-3 3zm4 0c0 .5522847-.4477153 1-1 1s-1-.4477153-1-1 .4477153-1 1-1 1 .4477153 1 1z"/><path id="Shape" d="m14 32c-1.6568542 0-3 1.3431458-3 3s1.3431458 3 3 3 3-1.3431458 3-3-1.3431458-3-3-3zm0 4c-.5522847 0-1-.4477153-1-1s.4477153-1 1-1 1 .4477153 1 1-.4477153 1-1 1z"/></g></g></svg>