<svg height="512" viewBox="0 0 60 60" width="512" xmlns="http://www.w3.org/2000/svg"><g id="057---Skin-Care-Products" fill="none"><g id="Layer_3" transform="translate(1 1)"><path id="Shape" d="m53 15v3h-16v-3c.0032948-1.1032019.8967981-1.9967052 2-2h12c1.1032019.0032948 1.9967052.8967981 2 2z" fill="#7f8e94"/><path id="Shape" d="m51 13h-3c1.1032019.0032948 1.9967052.8967981 2 2v3h3v-3c-.0032948-1.1032019-.8967981-1.9967052-2-2z" fill="#545c60"/><path id="Shape" d="m49 11 .0000346 2h-8.0000692l.0000346-2c-.0061167-1.27133409.798164-2.40536996 2-2.82.3193958-.12110064.6584234-.18212561 1-.18h2c.3415766-.00212561.6806042.05889936 1 .18 1.201836.41463004 2.0061167 1.54866591 2 2.82z" fill="#9e9e9e"/><path id="Shape" d="m24 11v4h-24v-4c.0032948-1.10320187.89679813-1.9967052 2-2h20c1.1032019.0032948 1.9967052.89679813 2 2z" fill="#f5f5f5"/><path id="Shape" d="m22 9h-3c1.1032019.0032948 1.9967052.89679813 2 2v4h3v-4c-.0032948-1.10320187-.8967981-1.9967052-2-2z" fill="#cfd8dc"/><path id="Shape" d="m24 15-1.45 16h-1.55c-1.6568542 0-3 1.3431458-3 3v4h-1c-1.1032019.0032948-1.9967052.8967981-2 2v8h-12l-3-33z" fill="#009688"/><path id="Shape" d="m21 15-1.45 16h-1.55c-1.6568542 0-3 1.3431458-3 3v4h-1c-1.1032019.0032948-1.9967052.8967981-2 2v8h3v-8c.0032948-1.1032019.8967981-1.9967052 2-2h1v-4c0-1.6568542 1.3431458-3 3-3h1.55l1.45-16z" fill="#00695c"/><path id="Shape" d="m17 58h-12c-1.10320187-.0032948-1.9967052-.8967981-2-2v-3h5.22c.37891606-.0178951.73087228.1956514.89.54.60518764.9989402 1.7268204 1.5655782 2.89 1.46 1.1626683.1029081 2.2829665-.4630557 2.89-1.46.0284186-.0677629.065385-.131614.11-.19v2.65c.0032948 1.1032019.8967981 1.9967052 2 2z" fill="#cfd8dc"/><path id="Shape" d="m15 48v5.35c-.044615.058386-.0815814.1222371-.11.19-.6070335.9969443-1.7273317 1.5629081-2.89 1.46-1.1631796.1055782-2.28481236-.4610598-2.89-1.46-.15912772-.3443486-.51108394-.5578951-.89-.54h-5.22v-5z" fill="#f5f5f5"/><path id="Shape" d="m58 22v32c0 2.209139-1.790861 4-4 4h-13c1.1032019-.0032948 1.9967052-.8967981 2-2v-2h11v-32h-18v9h-4v-9c0-2.209139 1.790861-4 4-4h18c2.209139 0 4 1.790861 4 4z" fill="#02a9f4"/><path id="Shape" d="m54 18h-3c2.209139 0 4 1.790861 4 4v32c0 2.209139-1.790861 4-4 4h3c2.209139 0 4-1.790861 4-4v-32c0-2.209139-1.790861-4-4-4z" fill="#0377bc"/><path id="Shape" d="m54 22v32h-11v-14c-.0032948-1.1032019-.8967981-1.9967052-2-2h-1v-4c0-1.6568542-1.3431458-3-3-3h-1v-9z" fill="#3f51b5"/><path id="Shape" d="m55.42 8.41c-.3751365.37555409-.8841815.58657331-1.415.58657331s-1.0398635-.21101922-1.415-.58657331l-4.28-4.41h-14.31c-1.1045695 0-2-.8954305-2-2s.8954305-2 2-2h15.12c.5374654.00199667 1.052021.21789411 1.43.6l4.86 4.99c.3757844.37235968.5880173.87890595.5898933 1.40792591.0018759.52901996-.2067592 1.03705867-.5798933 1.41207409z" fill="#9e9e9e"/><path id="Shape" d="m55.41 5.59-4.86-4.99c-.377979-.38210589-.8925346-.59800333-1.43-.6h-3c.5374654.00199667 1.052021.21789411 1.43.6l4.86 4.99c.7462593.74145162.7857098 1.93592371.09 2.725l.092.1c.5037445.50374448 1.2379681.7004791 1.9260958.51609582.6881278-.18438328 1.2256167-.72187224 1.41-1.41s-.0123513-1.42235134-.5160958-1.92609582z" fill="#707070"/><path id="Shape" d="m47 4v4.18c-.3193958-.12110064-.6584234-.18212561-1-.18h-2c-.3415766-.00212561-.6806042.05889936-1 .18v-4.18z" fill="#545c60"/><path id="Shape" d="m43 40v16c-.0032948 1.1032019-.8967981 1.9967052-2 2h-24c-1.1032019-.0032948-1.9967052-.8967981-2-2v-3h15c1.1032019-.0032948 1.9967052-.8967981 2-2v-6c-.0032948-1.1032019-.8967981-1.9967052-2-2h-15v-3c.0032948-1.1032019.8967981-1.9967052 2-2h24c1.1032019.0032948 1.9967052.8967981 2 2z" fill="#9d27b0"/><path id="Shape" d="m41 38h-3c1.1032019.0032948 1.9967052.8967981 2 2v16c-.0032948 1.1032019-.8967981 1.9967052-2 2h3c1.1032019-.0032948 1.9967052-.8967981 2-2v-16c-.0032948-1.1032019-.8967981-1.9967052-2-2z" fill="#6a1b9a"/><path id="Shape" d="m40 34v4h-22v-4c0-1.6568542 1.3431458-3 3-3h16c1.6568542 0 3 1.3431458 3 3z" fill="#673ab7"/><path id="Shape" d="m37 31h-3c1.6568542 0 3 1.3431458 3 3v4h3v-4c0-1.6568542-1.3431458-3-3-3z" fill="#4527a0"/><path id="Shape" d="m32 45v6c-.0032948 1.1032019-.8967981 1.9967052-2 2h-15v-10h15c1.1032019.0032948 1.9967052.8967981 2 2z" fill="#f5f5f5"/></g><g id="Layer_2" fill="#000"><path id="Shape" d="m55 18v-2c0-1.6568542-1.3431458-3-3-3h-1v-1c-.0044956-1.4225979-.7666478-2.73502389-2-3.444v-2.439l3.883 4.005c1.1812011 1.0919283 3.0133982 1.0579099 4.1532514-.0771135 1.1398533-1.13502334 1.1816514-2.96705944.0947486-4.1528865l-4.867-4.992c-.5667598-.57468105-1.3398609-.89875696-2.147-.9h-15.117c-1.6568542.00000002-3 1.34314577-3 3s1.3431458 2.99999998 3 3h8v2.556c-1.2333522.70897611-1.9955044 2.0214021-2 3.444v1h-1c-1.6568542 0-3 1.3431458-3 3v2c-2.7600532.0033061-4.9966939 2.2399468-5 5v8h-7.355c1.569-17.313 1.355-13.608 1.355-19 0-1.6568542-1.3431458-3-3-3h-20c-1.65685425 0-3 1.3431458-3 3v4.091c3.5 38.495 3 30.343 3 40.909 0 1.6568542 1.34314575 3 3 3h49c2.7600532-.0033061 4.9966939-2.2399468 5-5v-32c-.0033061-2.7600532-2.2399468-4.9966939-5-5zm-21-15c0-.55228475.4477153-1 1-1h15.117c.2693277-.00049973.5274707.10766076.716.3l4.875 5c.2810813.28674523.3633909.71380736.2090167 1.0844799-.1543742.37067255-.5154903.61306092-.9170167.6155201-.2613545.00281385-.5131332-.09825729-.7-.281l-4.273-4.419c-.1887717-.19258788-.4473256-.30076943-.717-.3h-14.31c-.2652165 0-.5195704-.10535684-.7071068-.29289322s-.2928932-.44189029-.2928932-.70710678zm11 3h2v2h-2zm-2 6c0-1.1045695.8954305-2 2-2h2c1.1045695 0 2 .8954305 2 2v1h-6zm-4 4c0-.5522847.4477153-1 1-1h12c.5522847 0 1 .4477153 1 1v2h-14zm3 22v-3c0-2.209139-1.790861-4-4-4v-7h16v30h-9v-13c0-1.6568542-1.3431458-3-3-3zm-4-5c1.1045695 0 2 .8954305 2 2v3h-20v-3c0-1.1045695.8954305-2 2-2zm-36-21c0-.5522847.44771525-1 1-1h1v2c0 .5522847.44771525 1 1 1s1-.4477153 1-1v-2h2v2c0 .5522847.44771525 1 1 1s1-.4477153 1-1v-2h2v2c0 .5522847.4477153 1 1 1s1-.4477153 1-1v-2h2v2c0 .5522847.4477153 1 1 1s1-.4477153 1-1v-2h2v2c0 .5522847.4477153 1 1 1s1-.4477153 1-1v-2h1c.5522847 0 1 .4477153 1 1v3h-22zm21.905 5-1.269 14h-.636c-2.209139 0-4 1.790861-4 4v3c-1.6568542 0-3 1.3431458-3 3v7h-10.087l-2.813-31zm-18.905 33h10v4.088c-.581 1.251-3.528 1.145-3.964.073-.3127178-.7204525-1.0308248-1.1795506-1.816-1.161h-4.22zm12-5h14c.5522847 0 1 .4477153 1 1v6c0 .5522847-.4477153 1-1 1h-14zm-12 12v-2h4.222c.778 1.72 3.532 2.557 5.778 1.6-.0347842.4743315.0278328.9507649.184 1.4h-9.184c-.55228475 0-1-.4477153-1-1zm13 1c-.5522847 0-1-.4477153-1-1v-2h14c1.6568542 0 3-1.3431458 3-3v-6c0-1.6568542-1.3431458-3-3-3h-14v-2c0-.5522847.4477153-1 1-1h24c.5522847 0 1 .4477153 1 1v16c0 .5522847-.4477153 1-1 1zm40-3c0 1.6568542-1.3431458 3-3 3h-10.184c.1939027-.6477625.2564599-1.3277321.184-2h10c.5522847 0 1-.4477153 1-1v-32c0-.5522847-.4477153-1-1-1h-18c-.5522847 0-1 .4477153-1 1v8h-2v-8c0-1.6568542 1.3431458-3 3-3h18c1.6568542 0 3 1.3431458 3 3z"/><path id="Shape" d="m7 45c.28024393.0009671.54803375-.115705.73815035-.3216012.1901166-.2058963.2851117-.4821203.26184965-.7613988l-1.67-20c-.01764693-.2669357-.14289321-.5152744-.34705585-.6881434-.20416263-.172869-.46975179-.2554593-.73594415-.2288566-.54992575.0461303-.95852814.5290241-.913 1.079l1.67 20c.04118345.5196828.47468815.920544.996.921z"/><circle id="Oval" cx="5" cy="20" r="1"/></g></g></svg>