<svg height="512" viewBox="0 0 60 60" width="512" xmlns="http://www.w3.org/2000/svg"><g id="058---Healthy-Formula" fill="none"><g id="Layer_3" transform="translate(1 1)"><path id="Shape" d="m43.5 43.5c-7.25 3.62-14.5 7.25-14.5 14.5h-23.87c-1.99390838-.0007767-3.8068874-1.1563892-4.64937813-2.9635639-.84249072-1.8071748-.56197633-3.9387575.71937813-5.4664361l18.86-22.45c.6079497-.7221412.9409149-1.6360244.94-2.58v-18.54h10.02c2.65 3.58 7.56 6.04 12.48 8.5-7.25 3.62-14.5 7.25-14.5 14.5s7.25 10.88 14.5 14.5z" fill="#02a9f4"/><path id="Shape" d="m29 29c0-7.25 7.25-10.88 14.5-14.5-4.92-2.46-9.83-4.92-12.48-8.5h-3c2.65 3.58 7.56 6.04 12.48 8.5-7.25 3.62-14.5 7.25-14.5 14.5s7.25 10.88 14.5 14.5c-7.25 3.62-14.5 7.25-14.5 14.5h3c0-7.25 7.25-10.88 14.5-14.5-7.25-3.62-14.5-7.25-14.5-14.5z" fill="#0377bc"/><path id="Shape" d="m31.02 6h-10.02c-1.6568542-.00000002-3-1.34314577-3-3s1.3431458-2.99999998 3-3h8c-.009617 2.16849865.700867 4.27884718 2.02 6z" fill="#00bcd4"/><path id="Shape" d="m29 0h-3c-.009617 2.16849865.700867 4.27884718 2.02 6h3c-1.319133-1.72115282-2.029617-3.83150135-2.02-6z" fill="#00838f"/><g fill="#ffeb3a"><circle id="Oval" cx="45" cy="21" r="2"/><circle id="Oval" cx="42" cy="8" r="2"/><circle id="Oval" cx="42" cy="50" r="2"/><circle id="Oval" cx="36" cy="29" r="2"/><circle id="Oval" cx="45" cy="37" r="2"/></g><circle id="Oval" cx="22" cy="48" fill="#00bcd4" r="6"/><path id="Shape" d="m22 42c-.5064496.0029108-1.0104803.0701149-1.5.2 2.6479943.6813094 4.498931 3.0687622 4.498931 5.803s-1.8509367 5.1216906-4.498931 5.803c2.2531797.5872914 4.6426897-.1820582 6.1299399-1.9736543 1.4872502-1.7915962 1.8036517-4.2818866.8116819-6.3884777s-3.1131667-3.4490442-5.4416218-3.443868z" fill="#00838f"/><circle id="Oval" cx="9" cy="51" fill="#00bcd4" r="3"/><circle id="Oval" cx="22.5" cy="36.5" fill="#00bcd4" r="2.5"/></g><g id="Layer_2" fill="#000"><path id="Shape" d="m26 58h-19.87c-1.60291432-.0057387-3.05825546-.9369112-3.73518297-2.3898862-.67692751-1.4529751-.45359795-3.1662246.57318297-4.3971138l18.86-22.454c1.363-1.621 1.172-3.213 1.172-4.759h2c.5522847 0 1-.4477153 1-1s-.4477153-1-1-1h-2v-2h2c.5522847 0 1-.4477153 1-1s-.4477153-1-1-1h-2v-2h2c.5522847 0 1-.4477153 1-1s-.4477153-1-1-1h-2v-2h2c.5522847 0 1-.4477153 1-1s-.4477153-1-1-1h-2v-2h4c.5522847 0 1-.44771525 1-1s-.4477153-1-1-1h-5c-1.1045695 0-2-.8954305-2-2s.8954305-2 2-2h4c.5522847 0 1-.44771525 1-1s-.4477153-1-1-1h-4c-2.0092743.00146114-3.7044985 1.4957198-3.9581508 3.48891972-.2536524 1.99319992 1.0132849 3.86441983 2.9581508 4.36908028v17.685c.0006729.7052934-.247169 1.3882751-.7 1.929l-18.863 22.454c-1.52365057 1.8270637-1.85495814 4.3697744-.85035243 6.5262623 1.00460571 2.156488 3.16436278 3.5387294 5.54335243 3.5477377h19.87c.5522847 0 1-.4477153 1-1s-.4477153-1-1-1z"/><path id="Shape" d="m60 1c0-.55228475-.4477153-1-1-1s-1 .44771525-1 1c-.0357163 2.6857029-1.2097383 5.23002303-3.23 7h-8.954c-.4202307-1.19515888-1.5491146-1.99486415-2.816-1.99486415s-2.3957693.79970527-2.816 1.99486415h-5.954c-2.0202617-1.76997697-3.1942837-4.3142971-3.23-7 0-.55228475-.4477153-1-1-1s-1 .44771525-1 1c0 7.238 6.477 11.054 13.275 14.5-6.798 3.446-13.275 7.262-13.275 14.5s6.477 11.054 13.275 14.5c-6.798 3.446-13.275 7.262-13.275 14.5 0 .5522847.4477153 1 1 1s1-.4477153 1-1c.0357163-2.6857029 1.2097383-5.230023 3.23-7h5.954c.4202307 1.1951589 1.5491146 1.9948642 2.816 1.9948642s2.3957693-.7997053 2.816-1.9948642h8.954c2.0202617 1.769977 3.1942837 4.3142971 3.23 7 0 .5522847.4477153 1 1 1s1-.4477153 1-1c0-7.238-6.477-11.054-13.275-14.5 6.798-3.446 13.275-7.262 13.275-14.5s-6.477-11.054-13.275-14.5c6.798-3.446 13.275-7.262 13.275-14.5zm-14.184 9h6.489c-2.493977 1.6415542-5.1004193 3.1055059-7.8 4.381-2.7012924-1.2752855-5.3094118-2.7392408-7.805-4.381h3.489c.4223154 1.1914998 1.549371 1.9877825 2.8135 1.9877825s2.3911846-.7962827 2.8135-1.9877825zm-2.816-2c.5522847 0 1 .44771525 1 1s-.4477153 1-1 1-1-.44771525-1-1 .4477153-1 1-1zm5.816 13c-.4202307-1.1951589-1.5491146-1.9948642-2.816-1.9948642s-2.3957693.7997053-2.816 1.9948642h-6.484c2.493977-1.6415542 5.1004193-3.1055059 7.8-4.381 2.7012924 1.2752855 5.3094118 2.7392408 7.805 4.381zm-1.816 1c0 .5522847-.4477153 1-1 1s-1-.4477153-1-1 .4477153-1 1-1 1 .4477153 1 1zm-3.816 17c.4202307 1.1951589 1.5491146 1.9948642 2.816 1.9948642s2.3957693-.7997053 2.816-1.9948642h3.489c-2.493977 1.6415542-5.1004193 3.1055059-7.8 4.381-2.7012924-1.2752855-5.3094118-2.7392408-7.805-4.381zm1.816-1c0-.5522847.4477153-1 1-1s1 .4477153 1 1-.4477153 1-1 1-1-.4477153-1-1zm-4.816 12h-3.484c2.493977-1.6415542 5.1004193-3.1055059 7.8-4.381 2.7012924 1.2752855 5.3094118 2.7392408 7.805 4.381h-6.489c-.4202307-1.1951589-1.5491146-1.9948642-2.816-1.9948642s-2.3957693.7997053-2.816 1.9948642zm2.816 2c-.5522847 0-1-.4477153-1-1s.4477153-1 1-1 1 .4477153 1 1-.4477153 1-1 1zm11.77-15h-5.954c-.4202307-1.1951589-1.5491146-1.9948642-2.816-1.9948642s-2.3957693.7997053-2.816 1.9948642h-8.954c-1.7432521-1.553496-2.8671278-3.6840661-3.165-6h3.119c.4202307 1.1951589 1.5491146 1.9948642 2.816 1.9948642s2.3957693-.7997053 2.816-1.9948642h18.119c-.2978722 2.3159339-1.4217479 4.446504-3.165 6zm-18.77-7c0-.5522847.4477153-1 1-1s1 .4477153 1 1-.4477153 1-1 1-1-.4477153-1-1zm21.935-1h-18.119c-.4202307-1.1951589-1.5491146-1.9948642-2.816-1.9948642s-2.3957693.7997053-2.816 1.9948642h-3.119c.2978722-2.3159339 1.4217479-4.446504 3.165-6h8.954c.4202307 1.1951589 1.5491146 1.9948642 2.816 1.9948642s2.3957693-.7997053 2.816-1.9948642h5.954c1.7432521 1.553496 2.8671278 3.6840661 3.165 6z"/><path id="Shape" d="m23 42c-3.8659932 0-7 3.1340068-7 7s3.1340068 7 7 7 7-3.1340068 7-7c-.0049584-3.8639376-3.1360624-6.9950416-7-7zm0 12c-2.7614237 0-5-2.2385763-5-5s2.2385763-5 5-5 5 2.2385763 5 5c-.0033061 2.7600532-2.2399468 4.9966939-5 5z"/><path id="Shape" d="m6 52c0 2.209139 1.790861 4 4 4s4-1.790861 4-4-1.790861-4-4-4-4 1.790861-4 4zm6 0c0 1.1045695-.8954305 2-2 2s-2-.8954305-2-2 .8954305-2 2-2 2 .8954305 2 2z"/><path id="Shape" d="m23.5 34c-1.9329966 0-3.5 1.5670034-3.5 3.5s1.5670034 3.5 3.5 3.5 3.5-1.5670034 3.5-3.5-1.5670034-3.5-3.5-3.5zm0 5c-.6066934 0-1.1536478-.3654633-1.3858193-.9259749-.2321715-.5605115-.1038379-1.2056883.3251591-1.6346853s1.0741738-.5573306 1.6346853-.3251591c.5605116.2321715.9259749.7791259.9259749 1.3858193 0 .8284271-.6715729 1.5-1.5 1.5z"/><path id="Shape" d="m23 46c-.8026156-.0234737-1.5793921.2850527-2.1471697.8528303s-.876304 1.3445541-.8528303 2.1471697c0 .5522847.4477153 1 1 1s1-.4477153 1-1c-.0261168-.2741851.0722548-.5456088.267977-.7393932.1957223-.1937844.4681113-.2894505.742023-.2606068.5522847-.0027615.9977614-.4527153.9949999-1.005-.0027614-.5522847-.4527152-.9977614-1.0049999-.995z"/></g></g></svg>