<svg height="512" viewBox="0 0 60 60" width="512" xmlns="http://www.w3.org/2000/svg"><g id="060---Night-Cream" fill="none"><g id="Layer_3" transform="translate(1)"><path id="Shape" d="m58 18c0 9.3888407-7.6111593 17-17 17-.6684802.0004919-1.3363744-.0395817-2-.12v-3.88c.0027528-.5190889-.1317941-1.0296772-.39-1.48 2.7795202.8075423 5.7565192.5910978 8.39-.61.4368475-.1860939.6825935-.6537311.5880733-1.1190618-.0945203-.4653306-.5032408-.8000293-.9780733-.8009382-.5692708-.0238235-1.1350669-.1008253-1.69-.23-3.5517606-.8400871-6.2428564-3.7445738-6.81-7.35-.1466637-.9342792-.1466637-1.8857208 0-2.82.5671436-3.6054262 3.2582394-6.5099129 6.81-7.35.5549331-.12917467 1.1207292-.20617651 1.69-.23.4748325-.00090886.883553-.33560761.9780733-.80093824.0945202-.46533064-.1512258-.9329679-.5880733-1.11906176-3.5101415-1.61031444-7.5809039-1.43209904-10.9368884.47881007-3.3559846 1.91090911-5.5866495 5.32074793-5.9931116 9.16118993-.04.43-.07.85-.07 1.27s.03.84.07 1.27c.3760878 3.5548656 2.3196253 6.756202 5.3 8.73h-8.11c-4.3392602-5.9558259-4.3473573-14.0291204-.0200526-19.99363842 4.3273046-5.96451805 12.0045888-8.46200804 19.0129129-6.18507252 7.008324 2.27693552 11.7517387 8.80978834 11.7471397 16.17871094z" fill="#673ab7"/><path id="Shape" d="m41 1c-.506 0-1.005.032-1.5.076 8.7715503.77454263 15.49765 8.12248287 15.4955688 16.9281632-.0020811 8.8056804-6.7316534 16.1504405-15.5035688 16.9208368.5.045 1 .075 1.508.075 9.3888406-.0000001 16.9999997-7.6111594 16.9999997-17 0-9.38884065-7.6111591-16.99999986-16.9999997-17z" fill="#4527a0"/><path id="Shape" d="m47 28.91c-2.6334808 1.2010978-5.6104798 1.4175423-8.39.61-.5307232-.9417559-1.5289998-1.5231277-2.61-1.52h-.63c-2.9803747-1.973798-4.9239122-5.1751344-5.3-8.73-.04-.43-.07-.85-.07-1.27s.03-.84.07-1.27c.4064621-3.840442 2.637127-7.25028082 5.9931116-9.16118993 3.3559845-1.91090911 7.4267469-2.08912451 10.9368884-.47881007.4368475.18609386.6825935.65373112.5880733 1.11906176-.0945203.46533063-.5032408.80002938-.9780733.80093824-.5692708.02382349-1.1350669.10082533-1.69.23-3.5517606.8400871-6.2428564 3.7445738-6.81 7.35-.1466637.9342792-.1466637 1.8857208 0 2.82.5671436 3.6054262 3.2582394 6.5099129 6.81 7.35.5549331.1291747 1.1207292.2061765 1.69.23.4748325.0009089.883553.3356076.9780733.8009382.0945202.4653307-.1512258.9329679-.5880733 1.1190618z" fill="#f5f5f5"/><path id="Shape" d="m39 31 .0000414 5h-34.0000414v-5c0-1.6568542 1.34314575-3 3-3h28c1.0810002-.0031277 2.0792768.5782441 2.61 1.52.2582059.4503228.3927528.9609111.39 1.48z" fill="#ff9801"/><path id="Shape" d="m38.61 29.52c-.5307232-.9417559-1.5289998-1.5231277-2.61-1.52l-3-.0000126c1.0810002-.0031151 2.0792768.5782567 2.61 1.5200126.2582059.4503228.3927528.9609111.39 1.48v5h3.0000414l-.0000414-5c.0027528-.5190889-.1317941-1.0296772-.39-1.48z" fill="#f57c00"/><path id="Shape" d="m43.93 42c-.36 6.34-2.35 12.67-7.92 15.95-1.2055276.6989591-2.5765486 1.0615717-3.97 1.05h-20.08c-1.3934514.0115717-2.7644724-.3510409-3.97-1.05-5.57-3.28-7.56-9.61-7.92-15.95z" fill="#ff9801"/><path id="Shape" d="m40.93 42c-.36 6.34-2.35 12.67-7.92 15.95-1.2055276.6989591-2.5765486 1.0615717-3.97 1.05h3c1.3934514.0115717 2.7644724-.3510409 3.97-1.05 5.57-3.28 7.56-9.61 7.92-15.95z" fill="#f57c00"/><path id="Shape" d="m44 39.34v.4c0 .75-.02 1.51-.07 2.26h-43.86c-.05-.75-.07-1.51-.07-2.26v-.4c-.0085252-.8780352.33239022-1.7234352.94763141-2.3499308.61524118-.6264956 1.45432313-.9826783 2.33236859-.9900692h37.44c.8780455.0073909 1.7171274.3635736 2.3323686.9900692s.9561566 1.4718956.9476314 2.3499308z" fill="#ffdc00"/><path id="Shape" d="m40.72 36h-3c.8780455.0073909 1.7171274.3635736 2.3323686.9900692s.9561566 1.4718956.9476314 2.3499308v.4c0 .75-.02 1.51-.07 2.26h3c.05-.75.07-1.51.07-2.26v-.4c.0085252-.8780352-.3323902-1.7234352-.9476314-2.3499308s-1.4543231-.9826783-2.3323686-.9900692z" fill="#fec108"/></g><g id="Layer_2" fill="#000"><path id="Shape" d="m42 0c-6.4234979.01624594-12.3525689 3.45099114-15.5620933 9.01521099-3.2095245 5.56421981-3.2140608 12.41632431-.0119067 17.98478901h-17.426c-2.209139 0-4 1.790861-4 4v4h-.723c-2.37810657.0198067-4.29141889 1.9608547-4.277 4.339 0 6.111.951 11.6 4.786 16.37 1.05352084 1.2307285 2.30380789 2.2782663 3.7 3.1 1.35916192.7888877 2.9045095 1.2000827 4.476 1.191h20.076c1.5710298.010601 3.1163467-.3988597 4.476-1.186 6.63-3.904 8.486-11.735 8.486-19.475-.0004251-1.3782797-.6550482-2.6745374-1.764-3.493 9.4334362-1.1751357 16.3248375-9.4862233 15.7330013-18.9741309-.5918362-9.48790768-8.4626549-16.87815824-17.9690013-16.8718691zm-35 31c0-1.1045695.8954305-2 2-2h28c1.1045695 0 2 .8954305 2 2v4h-32zm25.065-11.828c-.4234332-3.9285502 1.2958458-7.7817961 4.5023665-10.09069791 3.2065207-2.30890179 7.4060901-2.71760862 10.9976335-1.07030209-5.3906795.18365621-9.6643585 4.6094015-9.6595014 10.0032064.0048571 5.393805 4.2864999 9.8118462 9.6775014 9.9857936-2.3095453 1.0562439-4.9131269 1.2819819-7.37.639-.7485235-1.027243-1.9419741-1.6360402-3.213-1.639h-.3c-2.5985383-1.8216437-4.2872336-4.6736624-4.635-7.828zm-30.065 20.167c-.01557408-1.2740562 1.00298514-2.3203496 2.277-2.339h37.446c1.2740149.0186504 2.2925741 1.0649438 2.277 2.339 0 .547 0 .927-.022 1.661h-41.956c-.022-.758-.022-1.16-.022-1.661zm34.5 17.753c-1.0518701.6054469-2.2463784.918919-3.46.908h-20.078c-1.8596881-.0100103-3.64642565-.7247053-5-2h12.038c.5522847 0 1-.4477153 1-1s-.4477153-1-1-1h-14.016c-2.469-3.115-3.5-7.2-3.84-11h41.712c-.469 5.259-2.249 11.083-7.356 14.092zm4.5-23.125v-2.967c0-.236-.15-.163.389-.1 2.3993296.2954445 4.8335851-.0804943 7.032-1.086.8447799-.3878082 1.3122335-1.3054039 1.1292941-2.2167663-.1829395-.9113624-.9682947-1.5774795-1.8972941-1.6092337-4.2659835-.2025243-7.6206334-3.7202118-7.6206334-7.991s3.3546499-7.7884757 7.6206334-7.991c.9303105-.03077288 1.7170991-.69776852 1.8997394-1.61049362.1826404-.91272511-.2869046-1.83111873-1.1337394-2.21750638-5.6761214-2.61102803-12.4069355-.81207465-16.0235355 4.2826311-3.6166 5.0947057-3.094663 12.0421997 1.2425355 16.5393689h-4.847c-4.1825942-6.1526039-3.5682837-14.377205 1.4819005-19.84019576 5.0501842-5.46299077 13.2012948-6.72030414 19.6629147-3.0330156s9.525708 11.34449456 7.3914963 18.47146936c-2.1342117 7.1269747-8.9025736 11.8397996-16.3273115 11.368742z"/><circle id="Oval" cx="24" cy="55" r="1"/></g></g></svg>