<svg height="512" viewBox="0 0 60 60" width="512" xmlns="http://www.w3.org/2000/svg"><g id="021---Lip-Pencil" fill="none"><g id="Layer_3" transform="translate(1)"><path id="Shape" d="m57.71 18.64-.15.22c-1.5893749.0217086-3.1778984-.0853077-4.75-.32-3.2812105-.4238243-6.4326589-1.5493416-9.24-3.3-.4139643-.2619375-.8113849-.549149-1.19-.86-5.08-4.06-6.46-4.42-11.73-2.76-1.0752523.3299847-2.2247477.3299847-3.3 0-5.27-1.66-6.65-1.3-11.73 2.76-.3786151.310851-.7760357.5980625-1.19.86-2.806627 1.7521353-5.95840659 2.8777708-9.24 3.3-1.53199349.2330301-3.08051464.3400553-4.63.32l-.2-.27c7.42-5.4 6.44-8.03 13.02-14.62 4.51-4.5 10.03-2.94 13.15-1.44 1.5611248.75062371 3.3788752.75062371 4.94 0 3.12-1.5 8.64-3.06 13.15 1.44 6.6 6.61 5.6 9.23 13.09 14.67z" fill="#ef314c"/><path id="Shape" d="m43.57 15.24c-.5506655.3270624-1.1256987.6112358-1.72.85-2.22.91-6.13 1.91-12.85 1.91-8.97 0-12.93-1.78-14.57-2.76.4139643-.2619375.8113849-.549149 1.19-.86 5.08-4.06 6.46-4.42 11.73-2.76 1.0752523.3299847 2.2247477.3299847 3.3 0 .9601233-.3159307 1.9386025-.5730737 2.93-.77h.02c.3600618-.06933.7241048-.1160878 1.09-.14.16-.01.31-.02.47-.02 2.22 0 3.96 1.08 7.22 3.69.3786151.310851.7760357.5980625 1.19.86z" fill="#f5f5f5"/><path id="Shape" d="m43.57 15.24c-.5506655.3270624-1.1256987.6112358-1.72.85-.7-.52-1.65-1.02-2.47-1.71-2.53-2.02-4.15-3.13-5.78-3.53.3600618-.06933.7241048-.1160878 1.09-.14.16-.01.31-.02.47-.02 2.22 0 3.96 1.08 7.22 3.69.3786151.310851.7760357.5980625 1.19.86z" fill="#cfd8dc"/><path id="Shape" d="m52.81 18.54c-10.78 11.03-37.31 10.61-47.62 0 3.28159341-.4222292 6.433373-1.5478647 9.24-3.3 1.64.98 5.6 2.76 14.57 2.76s12.93-1.78 14.57-2.76c2.8073411 1.7506584 5.9587895 2.8761757 9.24 3.3z" fill="#607d8b"/><path id="Shape" d="m52.53 18.82c-3.6865994-.1611856-7.2966312-1.1054526-10.59-2.77.3786746-.1541788.7491645-.3277416 1.11-.52.1243482-.0585203.2446196-.1253378.36-.2.06-.03.11-.06.16-.09 2.8073411 1.7506584 5.9587895 2.8761757 9.24 3.3z" fill="#37474f"/><path id="Shape" d="m58 18.85s-7.58 9.1-11.15 13.38c-1.5943591 1.9231579-3.5259304 3.539578-5.7 4.77l-.77-.77-9.19-3.54-.11-.07-9.08-3.46 3.54 9.19.58 1.53c-5.8035867-.4760481-11.1841028-3.2256104-14.97-7.65-3.57-4.28-11.15-13.38-11.15-13.38.12-.09.24-.18.36-.26l.2.27c1.54948536.0200553 3.09800651-.0869699 4.63-.32 10.31 10.61 36.84 11.03 47.62 0 1.5721016.2346923 3.1606251.3417086 4.75.32l.15-.22c.09.07.19.14.29.21z" fill="#ef314c"/><path id="Shape" d="m57.71 18.64c-7.49-5.44-6.49-8.06-13.09-14.67-2.2161059-2.2956228-5.4143167-3.36318667-8.565-2.859 2.1201628.31124368 4.0772841 1.31670813 5.565 2.859 6.652 6.662 5.6 9.275 13.279 14.8h-.007l.108.08s-7.58 9.1-11.15 13.38c-1.1900703 1.4323707-2.5693703 2.6962805-4.1 3.757l.63.243.77.77c2.1740696-1.230422 4.1056409-2.8468421 5.7-4.77 3.57-4.28 11.15-13.38 11.15-13.38-.1-.07-.2-.14-.29-.21z" fill="#bb193b"/><path id="Shape" d="m57.71 53.56-17.33-17.33-3.53 3.54-4.24 4.24-3.54 3.53 11.17 11.17c.1868.1839319.4378533.2879397.7.29h16.06c.5522847 0 1-.4477153 1-1v-3.74c-.0020603-.2621467-.1060681-.5132-.29-.7z" fill="#f44335"/><path id="Shape" d="m57.71 53.56-17.33-17.33-1.5 1.5 15.83 15.83c.1839319.1868.2879397.4378533.29.7v3.74c0 .5522847-.4477153 1-1 1h3c.5522847 0 1-.4477153 1-1v-3.74c-.0020603-.2621467-.1060681-.5132-.29-.7z" fill="#c81e1e"/><path id="Shape" d="m31.19 32.69-5.65 5.66-3.54-9.19 9.08 3.46z" fill="#f44335"/><path id="Shape" d="m40.38 36.23-3.53 3.54-4.24 4.24-3.54 3.53-2.94-7.66h-.01l-.58-1.53 5.65-5.66z" fill="#ffe0b2"/></g><path id="Shape" d="m43.743 38.179c1.8324337-1.1826233 3.4759335-2.6349715 4.875-4.308 3.57-4.281 11.151-13.385 11.151-13.385.177651-.2137636.2583192-.4918214.2226536-.767471-.0356656-.2756497-.184447-.5240195-.4106536-.685529-7.607-5.433-6.508-8.015-13.259-14.766-5-5-11.1-3.17-14.286-1.637-1.286304.62100072-2.785696.62100072-4.072 0-3.192-1.53-9.29-3.359-14.286 1.637-6.767 6.767-5.633 9.322-13.259 14.769-.22651653.1615116-.37551285.4100841-.41118684.6859882-.03567399.2759042.04519927.5541984.22318684.7680118 0 0 7.581 9.1 11.151 13.381 3.8102172 4.4664622 9.186517 7.3038345 15.024 7.929l2.733 7.1c.117.3-.348-.228 11.393 11.513.3733508.3739991.8795473.5850342 1.408.587h16.06c1.1045695 0 2-.8954305 2-2v-3.74c-.0011676-.5275339-.2107114-1.0332426-.583-1.407zm14.257 20.821h-.5l-18.241-18.236 2.121-2.12 16.62 16.616zm-8.984 0-14-14 2.826-2.826 16.833 16.826zm-18.565-12.255c-2.68-6.966 3.134 8.149-2.748-7.144l4.735-4.744 7.147 2.753zm-5.713-14.853 5.676 2.162-3.5 3.5zm-9.646-26.211c3.918-3.917 8.692-2.841 12.008-1.248 1.8323541.88368879 3.9676459.88368879 5.8 0 3.316-1.593 8.089-2.671 12.008 1.248 5.79 5.79 5.663 8.584 11.062 13.094-3.8396795-.1998802-7.5685842-1.3558819-10.848-3.363-1.724-1.152-4.234-3.579-6.832-4.383-1.987-.626-3.9-.325-6.942.634-.8790193.2748285-1.8209807.2748285-2.7 0-5.6-1.762-7.4-1.271-12.672 2.949-3.14 2.581-7.856 3.845-11.948 4.165 5.372-4.483 5.272-7.299 11.064-13.096zm13.908 8.111v4.2c-2.0073035-.0193661-4.0113455-.1663292-6-.44v-4.795c2.189-.357 4.512.801 6 1.035zm13.66 2.3c-1.1813326.4867269-2.4070644.8577955-3.66 1.108v-3.72c1.2898434.7665233 2.5140232 1.6385005 3.66 2.607zm-5.66 1.457c-1.9886545.2736708-3.9926965.4206339-6 .44v-4.2c1.535-.241 3.805-1.393 6-1.036zm-16-.349c-1.2532056-.2518039-2.479212-.6238588-3.661-1.111 1.1461907-.9689773 2.370715-1.8412961 3.661-2.608zm-5.526.193c2.0004232.9535798 4.125888 1.6188607 6.313 1.976.0694312.0208331.1407964.0345701.213.041 2.6477649.3999806 5.322204.5972205 8 .59 4.487 0 10.542-.494 14.526-2.609 2.2028481 1.31383 4.6106496 2.2484883 7.123 2.765-10.667 8.81-32.977 8.541-43.3 0 2.5132306-.5156588 4.9218287-1.4503639 7.125-2.765zm-2.556 15.2c-2.637-3.161-7.454-8.943-9.795-11.754.759-.033 1.684-.1 2.722-.238 10.907 10.627 37.1 10.873 48.308 0 1.033.135 1.957.206 2.721.239-2.342 2.814-7.156 8.594-9.792 11.754-1.3620171 1.6294501-2.9789515 3.0275513-4.788 4.14l-.207-.207c-.01-.01-.024-.013-.035-.023-.0879306-.083202-.1893787-.1508341-.3-.2-7.739-2.983-13.475-5.2-18.392-7.076-.368612-.1401485-.7851681-.0505741-1.0635873.2287092-.2784193.2792832-.3667026.6961148-.2254127 1.0642908l3.515 9.137c-4.9360896-.7541247-9.4342538-3.2641912-12.668-7.069zm18.566 15.947 2.116-2.121 12.588 12.581h-4.241z" fill="#000" transform="translate(0 -1)"/></g></svg>