<svg height="512" viewBox="0 0 60 60" width="512" xmlns="http://www.w3.org/2000/svg"><g id="024---Blackheads" fill="none"><g id="Layer_3" transform="translate(0 1)"><path id="Shape" d="m14.97 32c-.7.66-1.42 1.29-2.14 1.92" fill="#ffe0b2"/><path id="Shape" d="m46.81 50.54c-.4362018 2.332146-2.3109736 4.1264554-4.66 4.46-3.89.43-7.79-2.54-11.09-.9-.871445.4505836-1.6145553 1.1145664-2.16 1.93-1.3602307 1.1973033-3.08954 1.8925562-4.9 1.97-2.84 0-5.04-1.94-7.15-3.99-3.36-1.45-7.16 1.41-11 .99-2.34902642-.3335446-4.22379816-2.127854-4.66-4.46-1-4.53 2.11-8.34 5.24-11.16 2.09-1.88 4.28-3.62 6.4-5.46 2.06-9.88 2.95-28.54 3.13-32.96.0254829-.53479375.4646119-.95635757 1-.96h14.08c.5333335-.00066706.9733337.41733316 1 .95.09 2.23.36 8.09.87 14.63-5.2583094 4.2704934-7.2575066 11.3895346-4.9911239 17.7731418s8.3071347 10.6482118 15.0811239 10.6468582c.8166816.0008629 1.6322859-.0593046 2.44-.18 1.3434457 1.963914 1.837419 4.3869068 1.37 6.72z" fill="#ffe0b2"/><path id="Shape" d="m29.04.95c.09 2.23.36 8.09.87 14.63-5.2583094 4.2704934-7.2575066 11.3895346-4.9911239 17.7731418s8.3071347 10.6482118 15.0811239 10.6468582c.509 0 1.008-.03 1.5-.076-6.4679679-.6103801-11.9247429-5.0712094-13.8090179-11.2886591-1.8842751-6.2174497.1780733-12.9570424 5.2190179-17.0553409-.51-6.54-.78-12.4-.87-14.63-.0266663-.53266684-.4666665-.95066706-1-.95h-3c.5333335-.00066706.9733337.41733316 1 .95z" fill="#dfc49c"/><path id="Shape" d="m45.44 43.82c-.8077141.1206954-1.6233184.1808629-2.44.18-.159 0-.313-.019-.47-.024 1.2779332 1.9326295 1.7381782 4.2928235 1.28 6.564-.4153774 2.1218351-2.015126 3.8149997-4.11 4.35.8076995.1493583 1.6321655.1863751 2.45.11 2.3490264-.3335446 4.2237982-2.127854 4.66-4.46.467419-2.3330932-.0265543-4.756086-1.37-6.72z" fill="#dfc49c"/><path id="Shape" d="m7 51s1-3 5-1c1.8018488 1.0954166 3.4354843 2.4461132 4.85 4.01" fill="#ffe0b2"/><path id="Shape" d="m28.9 56.03c.74-.58 1.45-1.25 2.16-1.93 1.4395945-1.5985103 3.103612-2.9795775 4.94-4.1 4-2 5 1 5 1" fill="#ffe0b2"/><path id="Shape" d="m59 28c-.0002818 7.8957196-5.7572143 14.6121408-13.56 15.82-.8077141.1206954-1.6233184.1808629-2.44.18-8.836556 0-16-7.163444-16-16s7.163444-16 16-16 16 7.163444 16 16z" fill="#02a9f4"/><path id="Shape" d="m43 12c-.512 0-1.018.028-1.518.075 8.0447607.7464514 14.2707662 7.3732971 14.5144728 15.4489378.2437065 8.0756406-5.5713634 15.0658617-13.5564728 16.2960622-.31.046-.622.076-.936.1.496.05.996.08 1.496.08.8166816.0008629 1.6322859-.0593046 2.44-.18 8.2859822-1.2532518 14.2011121-8.6876863 13.5603864-17.0433797s-7.6201997-14.8013525-16.0003864-14.7766203z" fill="#0377bc"/><circle id="Oval" cx="43" cy="28" fill="#ffe0b2" r="12"/><path id="Shape" d="m43 16c-.5016004.0019005-1.0025863.0352996-1.5.1 5.9981525.7514856 10.4985957 5.8509554 10.4985957 11.896s-4.5004432 11.1445144-10.4985957 11.896c4.4513412.6000263 8.8650932-1.3360521 11.4384127-5.0174236 2.5733196-3.6813716 2.8753186-8.4916109.7826423-12.4659255s-6.2296207-6.4472272-10.721055-6.4086509z" fill="#dfc49c"/></g><g id="Layer_2" fill="#000" transform="translate(-1)"><path id="Shape" d="m37.45 51.9c.8043966-.5181365 1.7858489-.6843618 2.716-.46.4035618.1682394.7242129.48925.892.893.1861329.5111485.7467151.7797509 1.2617125.6045485.5149973-.1752025.7954801-.7299359.6312875-1.2485485-.3502084-.9420193-1.0739238-1.6975782-2-2.088-1.4700503-.4866483-3.0798812-.3004201-4.4.509-4.181 2.09-7.067 7.89-11.551 7.89-4.466 0-7.387-5.812-11.552-7.9-1.3199814-.8098177-2.9299926-.9960668-4.4-.509-.9263526.3900203-1.65020467 1.1457218-2 2.088-.17452198.5246705.10932949 1.091478.634 1.266s1.09147802-.1093295 1.266-.634c.16958417-.3883099.47806954-.6992917.865-.872.9359826-.2373054 1.9285172-.0738761 2.739.451 3.811 1.91 6.931 8.11 12.448 8.11 5.539 0 8.609-6.185 12.45-8.1z"/><path id="Shape" d="m34.775 14.741c-.422-5.772-.654-10.808-.738-12.829-.0430703-1.07189593-.9272516-1.91717324-2-1.912h-14.074c-1.0718378-.00099135-1.9539114.84315312-2 1.914-.155 3.7-1.026 22.479-3.045 32.47-5.73 4.935-13.327 10.016-11.704 17.372.53038534 2.7480183 2.75154422 4.8533746 5.524 5.236 2.282.251 4.384-.5 6.5-1.021.3521887-.0803177.6336847-.344332.7363872-.6906556.1027026-.3463236.010645-.7211155-.2408204-.9804473-.2514655-.2593318-.6232449-.3628866-.9725668-.2708971-1.927.471-3.938 1.181-5.804.971-1.91953121-.290063-3.44250479-1.7680305-3.79-3.678-1.516-6.87 7.362-11.847 13.484-17.6.3932449-.3639386.4268424-.9742279.0759238-1.379134-.3509186-.404906-.9597874-.4583912-1.3759238-.120866 1.663-10.104 2.411-25.422 2.612-30.222h14.076c.091 2.179.352 7.847.837 14.176-3.4405387 2.9652636-5.5445939 7.1891572-5.8389237 11.7216472-.2943297 4.5324899 1.245778 8.9930273 4.2739237 12.3783528l-4.518 4.518c-.3789722.3923789-.3735524 1.0160848.0121814 1.4018186s1.0094397.3911536 1.4018186.0121814l4.518-4.518c3.5890178 3.2181912 8.383558 4.7468535 13.173 4.2 2.471 4.49.447 8.759-2.858 9.119-1.852.208-3.859-.5-5.8-.977-.3478024-.0878848-.7160334.0172639-.9649857.2755525-.2489522.2582886-.3404789.6301396-.2398546.9744723s.3779808.608385.7268403.6919752c2.085.513 4.212 1.276 6.5 1.023 4.568-.5 7.373-5.92 4.7-11.477 6.5736044-1.5756229 11.5872636-6.8990968 12.7663762-13.5552635 1.1791127-6.6561667-1.7007783-13.3779508-7.3331216-17.1158073-5.6323432-3.7378565-12.9449595-3.7802428-18.6202546-.1079292zm9.225 29.259c-8.2842712 0-15-6.7157288-15-15s6.7157288-15 15-15 15 6.7157288 15 15c-.0093685 8.2803876-6.7196124 14.9906315-15 15z"/><path id="Shape" d="m44 16c-7.1797017 0-13 5.8202983-13 13s5.8202983 13 13 13 13-5.8202983 13-13c-.008266-7.1762751-5.8237249-12.991734-13-13zm0 24c-6.0751322 0-11-4.9248678-11-11s4.9248678-11 11-11 11 4.9248678 11 11c-.0071635 6.0721626-4.9278374 10.9928365-11 11z"/><circle id="Oval" cx="42" cy="23" r="1"/><circle id="Oval" cx="37" cy="28" r="1"/><circle id="Oval" cx="39" cy="33" r="1"/><circle id="Oval" cx="44" cy="36" r="1"/><circle id="Oval" cx="48" cy="31" r="1"/><circle id="Oval" cx="43" cy="29" r="1"/><circle id="Oval" cx="48" cy="24" r="1"/><circle id="Oval" cx="51" cy="28" r="1"/></g></g></svg>