<svg height="512" viewBox="0 0 60 60" width="512" xmlns="http://www.w3.org/2000/svg"><g id="044---Skin-Lifting" fill="none"><g id="Layer_3" transform="translate(1)"><path id="Shape" d="m17 19h39c1.1032019.0032948 1.9967052.8967981 2 2v5c0 .5522847-.4477153 1-1 1h-56c-.55228475 0-1-.4477153-1-1v-5c.0032948-1.1032019.89679813-1.9967052 2-2z" fill="#ffe0b2"/><path id="Shape" d="m56 19h-3c1.1032019.0032948 1.9967052.8967981 2 2v5c0 .5522847-.4477153 1-1 1h3c.5522847 0 1-.4477153 1-1v-5c-.0032948-1.1032019-.8967981-1.9967052-2-2z" fill="#dfc49c"/><path id="Shape" d="m0 51.241c-.00201778-.3122087.14291847-.607187.39129142-.7963674.24837295-.1891803.57125807-.2505315.87170858-.1656326 4.19343454 1.1598368 8.52616166 1.7389021 12.877 1.721 4.0829693-.0115162 8.1517553-.4811205 12.13-1.4 14.09-3.24 19.38-2.84 29.9-2.04l.91.076c.5208219.041797.9216745.4775063.92 1v8.364c0 .5522847-.4477153 1-1 1h-56c-.55228475 0-1-.4477153-1-1z" fill="#ffeb3a"/><path id="Shape" d="m57.08 48.636-.91-.076c-4.0586251-.3858615-8.1341532-.566425-12.211-.541 2.838.06 5.739.277 9.211.541l.91.076c.5208219.041797.9216745.4775063.92 1v8.364c0 .5522847-.4477153 1-1 1h3c.5522847 0 1-.4477153 1-1v-8.367c.0001069-.5213413-.4003296-.9552927-.92-.997z" fill="#fdd834"/><path id="Shape" d="m33.58 31h23.42c.5522847 0 1 .4477153 1 1v11.63c-.0016623.2798312-.1204997.5461636-.3276477.7343071-.2071479.1881436-.4836523.2808831-.7623523.2556929l-.74-.06c-4.259-.337-7.67-.58-11.15-.56-5.1.03-10.37.67-18.75 2.6-3.9782447.9188795-8.0470307 1.3884838-12.13 1.4-4.54754678.0296567-9.07513633-.6036668-13.44-1.88-.41874438-.1316802-.70265792-.5210473-.7-.96v-13.16c0-.5522847.44771525-1 1-1z" fill="#ef314c"/><path id="Shape" d="m57 31h-3c.5522847 0 1 .4477153 1 1v11.63c-.0060552.3245809-.1737535.6247122-.447.8.527.04 1.064.082 1.617.126l.74.06c.2780121.0251369.5538766-.0670741.7608914-.2543371.2070149-.187263.3263346-.4525305.3291086-.7316629v-11.63c0-.5522847-.4477153-1-1-1z" fill="#bb193b"/><g fill="#f44335"><path id="Shape" d="m19 13h-2v9c0 .5522847-.4477153 1-1 1h-6c-.55228475 0-1-.4477153-1-1v-9h-2c-.41056289.000227-.77954919-.2505154-.93050519-.6323193s-.05320583-.8170827.24650519-1.0976807l6-6c.3846745-.36069066.9833255-.36069066 1.368 0l6 6c.299711.280598.3974612.7158768.2465052 1.0976807s-.5199423.6325463-.9305052.6323193z"/><path id="Shape" d="m35 9h-2v13c0 .5522847-.4477153 1-1 1h-6c-.5522847 0-1-.4477153-1-1v-13h-2c-.4105629.00022705-.7795492-.25051543-.9305052-.63231934-.150956-.3818039-.0532058-.81708265.2465052-1.09768066l6-6c.3846745-.36069066.9833255-.36069066 1.368 0l6 6c.299711.28059801.3974612.71587676.2465052 1.09768066-.150956.38180391-.5199423.63254639-.9305052.63231934z"/><path id="Shape" d="m51 13h-2v9c0 .5522847-.4477153 1-1 1h-6c-.5522847 0-1-.4477153-1-1v-9h-2c-.4105629.000227-.7795492-.2505154-.9305052-.6323193s-.0532058-.8170827.2465052-1.0976807l6-6c.3846745-.36069066.9833255-.36069066 1.368 0l6 6c.299711.280598.3974612.7158768.2465052 1.0976807s-.5199423.6325463-.9305052.6323193z"/></g></g><g id="Layer_2" fill="#000"><path id="Shape" d="m57 18h-6v-4h1c.8148316-.000022 1.5481835-.4943734 1.853871-1.2496917.3056874-.7553184.1225855-1.6205709-.462871-2.1873083l-6.023-6.022c-.7810639-.72268955-1.9895599-.71305312-2.759.022l-5.975 5.978c-.598409.5610688-.7935408 1.4306552-.4922387 2.1936156.3013021.7629605 1.0379394 1.2645803 1.8582387 1.2653844h1v4h-6v-8h1c.8148316-.00002197 1.5481835-.4943734 1.853871-1.24969173.3056874-.75531833.1225855-1.6205709-.462871-2.18730827l-6.023-6.022c-.7812566-.72219165-1.9893594-.71255835-2.759.022l-5.975 5.978c-.598409.56106884-.7935408 1.43065519-.4922387 2.19361564s1.0379394 1.26458022 1.8582387 1.26538436h1v8h-6v-4h1c.8148316-.000022 1.5481835-.4943734 1.853871-1.2496917.3056874-.7553184.1225855-1.6205709-.462871-2.1873083l-6.023-6.022c-.7810639-.72268955-1.9895599-.71305312-2.759.022l-5.975 5.978c-.59840903.5610688-.79354076 1.4306552-.49223866 2.1936156.3013021.7629605 1.03793935 1.2645803 1.85823866 1.2653844h1v4h-6c-1.65685425 0-3 1.3431458-3 3v5c0 1.1045695.8954305 2 2 2h56c1.1045695 0 2-.8954305 2-2v-5c0-1.6568542-1.3431458-3-3-3zm-16.975-6.022 5.952-6 6.031 6.022c-.1.01.388 0-2.008 0-.5522847 0-1 .4477153-1 1v9h-6v-9c0-.5522847-.4477153-1-1-1zm-16-4 5.952-6 6.031 6.022c-.1.01.388 0-2.008 0-.5522847 0-1 .44771525-1 1v13h-6v-13c0-.55228475-.4477153-1-1-1zm-16 4 5.952-6 6.031 6.022c-.1.01.388 0-2.008 0-.5522847 0-1 .4477153-1 1v9h-6v-9c0-.5522847-.4477153-1-1-1zm49.975 14.022h-56v-5c0-.5522847.44771525-1 1-1h6v2c0 1.1045695.8954305 2 2 2h6c1.1045695 0 2-.8954305 2-2v-2h6v2c0 1.1045695.8954305 2 2 2h6c1.1045695 0 2-.8954305 2-2v-2h6v2c0 1.1045695.8954305 2 2 2h6c1.1045695 0 2-.8954305 2-2v-2h6c.5522847 0 1 .4477153 1 1z"/><path id="Shape" d="m58.162 47.639c-12.276-1.021-17.6-1.122-31.115 1.986-8.0683247 1.9416437-16.4940117 1.8357684-24.511-.308-.60204832-.1709166-1.24942008-.0489579-1.74800763.329308-.49858755.378266-.79041923.9688575-.78799237 1.594692v6.759c0 1.1045695.8954305 2 2 2h56c1.1045695 0 2-.8954305 2-2v-8.367c-.006347-1.0393673-.802588-1.9031892-1.838-1.994zm-.162 10.361h-56v-6.756c8.33911 2.2226899 17.1001516 2.3360947 25.494.33 13.006-2.99 18.351-2.966 30.506-1.941z"/><path id="Shape" d="m58 30h-56c-1.1045695 0-2 .8954305-2 2v13.16c-.00725019.8810191.56681175 1.661499 1.41 1.917 8.50841083 2.3997576 17.4908753 2.5719344 26.085.5 12.983-2.99 18.109-2.959 30.333-1.957.5578111.0481506 1.1102654-.1397186 1.523082-.5179437.4128165-.3782251.6481929-.9121713.648918-1.4720563v-11.63c0-1.1045695-.8954305-2-2-2zm0 13.623c-4.032-.327-8.115-.65-11.982-.623-13.467.076-19.25 4-30.874 4-4.4477769.0333165-8.8763437-.586629-13.144-1.84v-13.16h56z"/><circle id="Oval" cx="6" cy="35" r="1"/><circle id="Oval" cx="10" cy="35" r="1"/><circle id="Oval" cx="14" cy="35" r="1"/><circle id="Oval" cx="18" cy="35" r="1"/><circle id="Oval" cx="22" cy="35" r="1"/><circle id="Oval" cx="20" cy="38" r="1"/><circle id="Oval" cx="16" cy="38" r="1"/><circle id="Oval" cx="12" cy="38" r="1"/><circle id="Oval" cx="8" cy="38" r="1"/><circle id="Oval" cx="6" cy="41" r="1"/><circle id="Oval" cx="10" cy="41" r="1"/><circle id="Oval" cx="14" cy="41" r="1"/><circle id="Oval" cx="18" cy="41" r="1"/><circle id="Oval" cx="8" cy="44" r="1"/><circle id="Oval" cx="12" cy="44" r="1"/><circle id="Oval" cx="16" cy="44" r="1"/><circle id="Oval" cx="20" cy="44" r="1"/><circle id="Oval" cx="24" cy="44" r="1"/><circle id="Oval" cx="22" cy="41" r="1"/><circle id="Oval" cx="24" cy="38" r="1"/><circle id="Oval" cx="26" cy="35" r="1"/><circle id="Oval" cx="30" cy="35" r="1"/><circle id="Oval" cx="34" cy="35" r="1"/><circle id="Oval" cx="32" cy="38" r="1"/><circle id="Oval" cx="28" cy="38" r="1"/><circle id="Oval" cx="36" cy="38" r="1"/><circle id="Oval" cx="26" cy="41" r="1"/><circle id="Oval" cx="30" cy="41" r="1"/><circle id="Oval" cx="34" cy="41" r="1"/><circle id="Oval" cx="54" cy="35" r="1"/><circle id="Oval" cx="50" cy="35" r="1"/><circle id="Oval" cx="46" cy="35" r="1"/><circle id="Oval" cx="42" cy="35" r="1"/><circle id="Oval" cx="38" cy="35" r="1"/><circle id="Oval" cx="40" cy="38" r="1"/><circle id="Oval" cx="44" cy="38" r="1"/><circle id="Oval" cx="48" cy="38" r="1"/><circle id="Oval" cx="52" cy="38" r="1"/><circle id="Oval" cx="38" cy="41" r="1"/><circle id="Oval" cx="42" cy="41" r="1"/><circle id="Oval" cx="46" cy="41" r="1"/><circle id="Oval" cx="50" cy="41" r="1"/><circle id="Oval" cx="54" cy="41" r="1"/><path id="Shape" d="m55 51h-2c-.5522847 0-1 .4477153-1 1s.4477153 1 1 1h2c.5522847 0 1-.4477153 1-1s-.4477153-1-1-1z"/><path id="Shape" d="m50 52c0-.5522847-.4477153-1-1-1h-2c-.5522847 0-1 .4477153-1 1s.4477153 1 1 1h2c.5522847 0 1-.4477153 1-1z"/><path id="Shape" d="m44 52c0-.5522847-.4477153-1-1-1h-2c-.5522847 0-1 .4477153-1 1s.4477153 1 1 1h2c.5522847 0 1-.4477153 1-1z"/><path id="Shape" d="m38 52c0-.5522847-.4477153-1-1-1h-2c-.5522847 0-1 .4477153-1 1s.4477153 1 1 1h2c.5522847 0 1-.4477153 1-1z"/><path id="Shape" d="m52 54h-2c-.5522847 0-1 .4477153-1 1s.4477153 1 1 1h2c.5522847 0 1-.4477153 1-1s-.4477153-1-1-1z"/><path id="Shape" d="m46 54h-2c-.5522847 0-1 .4477153-1 1s.4477153 1 1 1h2c.5522847 0 1-.4477153 1-1s-.4477153-1-1-1z"/><path id="Shape" d="m40 54h-2c-.5522847 0-1 .4477153-1 1s.4477153 1 1 1h2c.5522847 0 1-.4477153 1-1s-.4477153-1-1-1z"/><path id="Shape" d="m34 54h-2c-.5522847 0-1 .4477153-1 1s.4477153 1 1 1h2c.5522847 0 1-.4477153 1-1s-.4477153-1-1-1z"/><path id="Shape" d="m28 54h-2c-.5522847 0-1 .4477153-1 1s.4477153 1 1 1h2c.5522847 0 1-.4477153 1-1s-.4477153-1-1-1z"/><path id="Shape" d="m22 54h-2c-.5522847 0-1 .4477153-1 1s.4477153 1 1 1h2c.5522847 0 1-.4477153 1-1s-.4477153-1-1-1z"/><path id="Shape" d="m16 54h-2c-.5522847 0-1 .4477153-1 1s.4477153 1 1 1h2c.5522847 0 1-.4477153 1-1s-.4477153-1-1-1z"/><path id="Shape" d="m10 54h-2c-.55228475 0-1 .4477153-1 1s.44771525 1 1 1h2c.5522847 0 1-.4477153 1-1s-.4477153-1-1-1z"/></g></g></svg>