<svg height="512" viewBox="0 0 60 60" width="512" xmlns="http://www.w3.org/2000/svg"><g id="045---Eyebrow-Shaping" fill="none"><g id="Layer_3" transform="translate(1)"><path id="Shape" d="m53.16 20.39-2.16 5.6c-.2000067.5124931-.7764146.767185-1.29.57l-2.8-1.08 2.88-7.47 2.79 1.09c.2497236.0918888.4519434.2804369.5610603.5231279s.1159432.5190905.0189397.7668721z" fill="#cfd8dc"/><path id="Shape" d="m57.88 38.51-.19.98c-.4115585 2.1455562-2.4843995 3.5513274-4.63 3.14l-12.23-2.95-.45-.45-9.19-3.54-9.19-3.53 1.26 3.28-5.03-1.21c-1.4237345-.3434072-2.9094985-.3365446-4.33.02l-11.94 3.04c-.72759818.1813743-1.48229273-.1746871-1.80496686-.8515749-.32267413-.6768879-.12408051-1.4873841.47496686-1.9384251l8.83-6.95c2.7079611-2.1378895 6.2120034-2.9919998 9.6-2.34l35.68 8.66c2.1479406.4148912 3.5534183 2.4917755 3.14 4.64z" fill="#91562d"/><path id="Shape" d="m57.71 56.56-16.88-16.88-.72-.17h-.01l-1.84 1.85h-.01l-1.4 1.41-4.24 4.24-3.54 3.53 8.46 8.46h19.47c.5522847 0 1-.4477153 1-1v-.74c.0006448-.2626887-.1037722-.5147299-.29-.7z" fill="#9d27b0"/><path id="Shape" d="m57.71 56.56-16.88-16.88-.72-.17h-.01l-1.217 1.223 15.827 15.827c.1862278.1852701.2906448.4373113.29.7v.74c0 .5522847-.4477153 1-1 1h3c.5522847 0 1-.4477153 1-1v-.74c.0006448-.2626887-.1037722-.5147299-.29-.7z" fill="#6a1b9a"/><path id="Shape" d="m40.83 39.68-.72-.17.27-.28z" fill="#91562d"/><path id="Shape" d="m31.19 35.69-5.65 5.66-2.27-5.91h-.01l-1.26-3.28z" fill="#a0522d"/><path id="Shape" d="m40.38 39.23-.27.28h-.01l-.55.55-1.29 1.3h-.01l-1.4 1.41-4.24 4.24-3.54 3.53-3.53-9.19 4.82-4.83.83-.83z" fill="#ffe0b2"/><path id="Shape" d="m54.74 33.87-35.68-8.66c-1.254895-.2405399-2.5403099-.2776808-3.807-.11.27.033.539.059.807.11l35.68 8.66c2.1479406.4148912 3.5534183 2.4917755 3.14 4.64l-.19.98c-.2579922 1.3415623-1.1933471 2.4533136-2.471 2.937l.841.2c2.1456005.4113274 4.2184415-.9944438 4.63-3.14l.19-.98c.4115634-2.1471848-.9934647-4.2220623-3.14-4.637z" fill="#6d4122"/><path id="Shape" d="m40.38 39.23-.27.28h-.01l-.55.55-9.19-3.54.83-.83z" fill="#dfc49c"/><path id="Shape" d="m44.37 8.06c-2.1156021-.31433236-4.0153091-1.46785465-5.27-3.2-1.382089-1.99233205-3.5108374-3.34139479-5.9025236-3.7406369-2.3916862-.3992421-4.8431998.18524148-6.7974764 1.6206369-1.7532071 1.22715206-3.9256642 1.69911205-6.03 1.31l-12.72-2.13c-2.10575324-.34832447-4.11508027 1.01467636-4.57 3.1-.37048289 2.10367616.92033869 4.14386731 2.98 4.71l.1.03.03.01c.12.03.24.06.37.08l12.49 2.09c2.1156021.3143324 4.0153091 1.4678546 5.27 3.2 1.3828023 1.9914159 3.5114641 3.3397419 5.902809 3.7389271 2.3913449.3991851 4.8425374-.1846299 6.797191-1.6189271 1.7532071-1.2271521 3.9256642-1.6991121 6.03-1.31l2.47.41 4.21.71 1.32-7.89zm-8.77 2.59c-.2591143 1.575087-1.4421018 2.8386774-2.9967188 3.2009003-1.5546169.3622229-3.1742821-.2483545-4.1029013-1.5467018-.9286193-1.2983473-.9830624-3.02842127-.1379143-4.38258666.8451482-1.35416538 2.4232186-2.06537136 3.9975344-1.80161184 2.1444198.35815884 3.5940025 2.38489012 3.24 4.53z" fill="#673ab7"/><path id="Shape" d="m54.83 10.83-.99 5.91c-.0417227.2629143-.1865524.4983418-.4024081.6541333s-.4849197.2190873-.7475919.1758667l-2.96-.5 1.32-7.89 2.96.5c.5435969.09177207.9103856.6061708.82 1.15z" fill="#f5f5f5"/><g fill="#4527a0"><path id="Shape" d="m35.6 10.65c-.2591143 1.575087-1.4421018 2.8386774-2.9967188 3.2009003-1.5546169.3622229-3.1742821-.2483545-4.1029013-1.5467018-.9286193-1.2983473-.9830624-3.02842127-.1379143-4.38258666.8451482-1.35416538 2.4232186-2.06537136 3.9975344-1.80161184 2.1444198.35815884 3.5940025 2.38489012 3.24 4.53z"/><path id="Shape" d="m49.79 18.01-2.88 7.47-6.32-2.44c-1.9880652-.799479-4.213296-.7706734-6.18.08-2.2043181 1.0065602-4.721402 1.0816863-6.9818274.2083829-2.2604253-.8733034-4.0731789-2.6212393-5.0281726-4.8483829-.8803602-1.9487844-2.5101888-3.4596211-4.52-4.19l-11.69-4.52c.12.03.24.06.37.08l12.49 2.09c2.1156021.3143324 4.0153091 1.4678546 5.27 3.2 1.3828023 1.9914159 3.5114641 3.3397419 5.902809 3.7389271 2.3913449.3991851 4.8425374-.1846299 6.797191-1.6189271 1.7532071-1.2271521 3.9256642-1.6991121 6.03-1.31l2.47.41v.01z"/></g></g><g id="Layer_2" fill="#000" transform="translate(0 -1)"><path id="Shape" d="m45.051 42.488c9.356 2.253 8.966 2.214 9.763 2.214 2.3738033-.0036141 4.4114167-1.6905802 4.858-4.022l.189-.978c.5144911-2.6712244-1.2181129-5.2585323-3.884-5.8l-35.728-8.67c-3.6724299-.7082874-7.4713292.2158876-10.408 2.532l-8.818 6.941c-.97209596.7414208-1.29005492 2.0634898-.76138903 3.1658453.52866588 1.1023555 1.75867156 1.6820542 2.94538903 1.3881547l11.939-3.039c1.2640759-.3187908 2.5866836-.3256543 3.854-.02l4.524 1.088c2.921 7.6 5.682 14.722 5.624 14.62.1.26-.379-.262 8.679 8.8.1866744.1862059.439335.2911516.703.292h19.47c1.1045695 0 2-.8954305 2-2v-.74c.0012519-.5280152-.2086606-1.0346135-.583-1.407zm-30.4-8.207-11.934 3.039c-.17185678.0379498-.35168275-.0028044-.49038733-.1111371s-.22180388-.2729316-.22661267-.4488629c0-.391-.562.164 9.08-7.425 2.46612-1.9484916 5.6551254-2.7337076 8.744-2.153l35.725 8.67c.7718578.1477261 1.45333.59623 1.894302 1.2467153.440972.6504852.6052684 1.449589.456698 2.2212847-.207 1.069-.283 2.093-1.434 2.871-.6337602.4349956-1.4135244.6024472-2.17.466-13.981-3.368-11.504-2.657-12.371-3.242-.328-.219 1.349.472-18.567-7.188-.3688461-.1412976-.7863039-.0522461-1.0653836.2272659s-.3674848.6971072-.2256164 1.0657341l.579 1.5c-3.083-.738-5.106-1.47-7.993-.739zm12.269 6.273-2.178-5.654 5.658 2.173zm5.518-2.7 7.151 2.755c-.471.473-8.667 8.662-9.138 9.132l-2.745-7.141zm13.576 21.146-11-10.995 2.827-2.826 13.834 13.821zm-14.53-7.46 2.116-2.121 9.586 9.581h-4.242zm26.516 7.46h-3.5l-15.24-15.235c1.041-1.042-.082.094 2.121-2.119l16.619 16.618z"/><path id="Shape" d="m3.107 5.807c-.49367189 2.57226882 1.05047152 5.097907 3.565 5.831.306.132 2.91 1.132 11.851 4.584 1.7570418.6382668 3.1843995 1.9550241 3.962 3.655 1.0594722 2.4762747 3.0742246 4.4196373 5.5870943 5.3891237 2.5128697.9694865 5.3107952.8828959 7.7589057-.2401237 1.7211271-.7376163 3.6660327-.7549043 5.4-.048 9.961 3.84 9.314 3.648 9.832 3.648.8282398.0016953 1.5718348-.5072894 1.87-1.28l2.158-5.6c.3177577-.8091014.0688487-1.7308363-.613-2.27.7083975-.2296609 1.2295361-.8352771 1.351-1.57l.989-5.918c.1806956-1.0883203-.5539938-2.11742243-1.642-2.3l-9.637-1.611c-1.850952-.27332152-3.515448-1.27626858-4.622-2.785-1.5348743-2.21361507-3.8993158-3.7128616-6.5561144-4.15710513-2.6567985-.44424354-5.3803617.20423726-7.5518856 1.79810513-1.5376403 1.06595804-3.4378111 1.4724945-5.277 1.129l-12.713-2.126c-2.6319284-.44070193-5.14607841 1.26312768-5.712 3.871zm31.893 17.401c-1.9581927.898689-4.1963849.9682316-6.2065926.1928442-2.0102077-.7753873-3.6219443-2.3299436-4.4694074-4.3108442-.9902329-2.1952054-2.8205088-3.9008208-5.08-4.734l-2.46-.949 3.1.518c1.8485837.275371 3.5104731 1.2780491 4.616 2.785 1.5346958 2.2138442 3.8991589 3.7132751 6.5560428 4.1575329 2.656884.4442578 5.3805276-.2043903 7.5519572-1.7985329 1.5382708-1.0645005 3.4378322-1.4709065 5.277-1.129 2.985.5 1.722.147 5.6 1.647l-2.16 5.6-5.382-2.075c-2.2341705-.8971086-4.7344873-.862537-6.943.096zm16.069 3.419-1.869-.721 2.16-5.6 1.866.72zm2.789-9.048-1.973-.329.99-5.918 1.973.33zm-48.796-11.349c.29955755-1.37862025 1.51921016-2.36225135 2.93-2.363.36 0-.709-.16 13.21 2.167 2.3702725.43055136 4.8142744-.10527816 6.787-1.488 1.7373405-1.275005 3.9163148-1.79355704 6.0417408-1.43781278 2.1254261.35574427 4.0167859 1.55557055 5.2442592 3.32681278 1.415341 1.94918891 3.5518239 3.25095628 5.933 3.615l5.692.95-.99 5.918-5.69-.952c-2.370258-.4297558-4.8139547.1060067-6.787 1.488-1.7372462 1.2752799-3.916301 1.7939993-6.0418124 1.4382407-2.1255115-.3557586-4.0168929-1.5557693-5.2441876-3.3272407-1.4157297-1.9492479-3.5525387-3.2509946-5.934-3.615l-12.492-2.087c-.83674113-.12424342-1.58888801-.57837374-2.08849581-1.26098944s-.70506809-1.53686704-.57050419-2.37201056z"/><path id="Shape" d="m31.9 15.873c2.2043404.3675124 4.3807981-.7909198 5.3070362-2.8247007.9262382-2.0337809.3714415-4.43609932-1.3528065-5.85777109-1.7242481-1.42167177-4.1882707-1.50842117-6.0082297-.21152821-1.6228725 1.16242641-2.3874599 3.1867665-1.9382683 5.1318056s2.0240192 3.4291095 3.9922683 3.7621944zm-2.089-5.357c.2198635-1.31169764 1.2932057-2.31226328 2.6170885-2.43964023s2.5683071.65018556 3.0342311 1.89590038c.4659241 1.24571485.0372089 2.64906735-1.0453196 3.42173985-.9683263.6875745-2.2550926.7255237-3.2622564.0962103-1.0071639-.6293134-1.5371909-1.8024626-1.3437436-2.9742103z"/></g></g></svg>