<svg height="512" viewBox="0 0 60 56" width="512" xmlns="http://www.w3.org/2000/svg"><g id="051---Floral-Cream" fill="none"><g id="Layer_3" transform="translate(1 1)"><path id="Shape" d="m48 3v7h-38v-7c0-1.65685425 1.3431458-3 3-3h32c1.6568542 0 3 1.34314575 3 3z" fill="#ffeb3a"/><path id="Shape" d="m45 0h-3c1.6568542 0 3 1.34314575 3 3v7h3v-7c0-1.65685425-1.3431458-3-3-3z" fill="#fdd834"/><path id="Shape" d="m58 14v.48c0 1.18-.06 2.35-.14 3.52h-57.72c-.08-1.17-.14-2.34-.14-3.52v-.48c0-2.209139 1.790861-4 4-4h50c2.209139 0 4 1.790861 4 4z" fill="#9d27b0"/><path id="Shape" d="m54 10h-3c2.209139 0 4 1.790861 4 4v.48c0 1.18-.06 2.35-.14 3.52h3c.08-1.17.14-2.34.14-3.52v-.48c0-2.209139-1.790861-4-4-4z" fill="#6a1b9a"/><path id="Shape" d="m57.86 18c-.03.47-.08.94-.13 1.41-.55 5.2-1.55 10.52-5.16 14.59h-47.03l-.07.06c-.02-.02-.03-.04-.05-.06-3.48-4.08-4.6-9.37-5.15-14.59-.05-.47-.1-.94-.13-1.41z" fill="#673ab7"/><path id="Shape" d="m5.47 34.06.07-.06h-.12c.02.02.03.04.05.06z" fill="#4527a0"/><path id="Shape" d="m54.86 18c-.03.47-.08.94-.13 1.41-.55 5.2-1.55 10.52-5.16 14.59h3c3.61-4.07 4.61-9.39 5.16-14.59.05-.47.1-.94.13-1.41z" fill="#4527a0"/><path id="Shape" d="m52.57 34c-5.34 6.05-16.43 9.35-40.26 5.41h-.01c-.04-.01-.08-.01-.12-.02l.23-.64c-2.41331646-.9071149-4.60541042-2.3185098-6.43-4.14-.18-.18-.34-.36-.51-.55l.07-.06z" fill="#9d27b0"/><path id="Shape" d="m49.57 34c-3.579 4.055-9.748 6.87-20.6 7.1 12.735.258 19.7-2.688 23.6-7.1z" fill="#6a1b9a"/><path id="Shape" d="m42.37 44.73c-.41 2.26-1.79 5.64-3.23 7.08-2.69 2.68-5.72 2.61-7.64.69s-1.99-4.95.69-7.64c1.44-1.44 4.82-2.82 7.08-3.23.4976558 1.4575513 1.6424487 2.6023442 3.1 3.1z" fill="#f5f5f5"/><path id="Shape" d="m55.81 35.14c-1.44 1.44-4.82 2.82-7.08 3.23-.4976558-1.4575513-1.6424487-2.6023442-3.1-3.1.41-2.26 1.79-5.64 3.23-7.08 2.58-2.57 5.46-2.61 7.39-.92.0880356.0713927.1715312.1482086.25.23 1.92 1.92 1.99 4.95-.69 7.64z" fill="#f5f5f5"/><path id="Shape" d="m56.5 27.5c-.0784688-.0817914-.1619644-.1586073-.25-.23-1.2373239-1.1040274-2.9757818-1.4508004-4.542-.906.567167.2007007 1.0906098.5082488 1.542.906.0880356.0713927.1715312.1482086.25.23 1.92 1.92 1.99 4.95-.69 7.64-1.2990661 1.1030348-2.7997922 1.9435636-4.419 2.475.1336699.2418661.2470583.4943976.339.755 2.26-.41 5.64-1.79 7.08-3.23 2.68-2.69 2.61-5.72.69-7.64z" fill="#cfd8dc"/><path id="Shape" d="m56.5 52.5c-1.92 1.92-4.95 1.99-7.64-.69-1.44-1.44-2.82-4.82-3.23-7.08 1.4575513-.4976558 2.6023442-1.6424487 3.1-3.1 2.26.41 5.64 1.79 7.08 3.23 2.68 2.69 2.61 5.72.69 7.64z" fill="#f5f5f5"/><path id="Shape" d="m55.81 44.86c-1.44-1.44-4.82-2.82-7.08-3.23-.0919417.2606024-.2053301.5131339-.339.755 1.6192078.5314364 3.1199339 1.3719652 4.419 2.475 2.68 2.69 2.61 5.72.69 7.64-.5029561.5081253-1.114643.8955156-1.789 1.133 1.6808661.5851424 3.5485178.1432862 4.789-1.133 1.92-1.92 1.99-4.95-.69-7.64z" fill="#cfd8dc"/><path id="Shape" d="m42.37 35.27c-1.4575513.4976558-2.6023442 1.6424487-3.1 3.1-2.26-.41-5.65-1.78-7.08-3.23-.3488093-.3547752-.6697596-.7359036-.96-1.14-1.67-2.36-1.38-4.85.27-6.5 1.92-1.92 4.95-1.99 7.64.69 1.44 1.44 2.82 4.82 3.23 7.08z" fill="#f5f5f5"/><path id="Shape" d="m48.73 41.63c-.4976558 1.4575513-1.6424487 2.6023442-3.1 3.1-1.0568484.3600139-2.2031516.3600139-3.26 0-1.4575513-.4976558-2.6023442-1.6424487-3.1-3.1-.3600139-1.0568484-.3600139-2.2031516 0-3.26.4976558-1.4575513 1.6424487-2.6023442 3.1-3.1 1.0568484-.3600139 2.2031516-.3600139 3.26 0 1.4575513.4976558 2.6023442 1.6424487 3.1 3.1.3600139 1.0568484.3600139 2.2031516 0 3.26z" fill="#ffeb3a"/><path id="Shape" d="m48.73 38.37c-.4976558-1.4575513-1.6424487-2.6023442-3.1-3.1-1.0135047-.3422316-2.109505-.3537869-3.13-.033.043.014.088.018.13.033 1.4575513.4976558 2.6023442 1.6424487 3.1 3.1.3600139 1.0568484.3600139 2.2031516 0 3.26-.4976558 1.4575513-1.6424487 2.6023442-3.1 3.1-.042.015-.087.019-.13.033 1.0205665.3203035 2.1164136.3087498 3.13-.033 1.4575513-.4976558 2.6023442-1.6424487 3.1-3.1.3600139-1.0568484.3600139-2.2031516 0-3.26z" fill="#fdd834"/><g fill="#f5f5f5"><path id="Shape" d="m24.89 46.67c0 2.15-1.24 3.33-2.78 3.33s-2.77-1.18-2.77-3.33c.1523686-1.4093345.6354857-2.7627479 1.41-3.95.3905867.1853411.8176711.281008 1.25.28.4959989.0007025.9842439-.1230779 1.42-.36.8059273 1.2060936 1.3100927 2.5882614 1.47 4.03z"/><path id="Shape" d="m24.89 33.33c-.0005497.2251294-.0240038.4496187-.07.67-.267494 1.1929645-.7412784 2.330047-1.4 3.36-.4357561-.2369221-.9240011-.3607025-1.42-.36-.4323289-.001008-.8594133.0946589-1.25.28-.6299563-1.0091681-1.0831242-2.1184148-1.34-3.28-.0459962-.2203813-.0694503-.4448706-.07-.67 0-2.15 1.24-3.33 2.77-3.33s2.78 1.18 2.78 3.33z"/><path id="Shape" d="m32.11 40c0 1.53-1.18 2.78-3.33 2.78-1.4599791-.161905-2.857713-.6804746-4.07-1.51.3866464-.8025243.3866464-1.7374757 0-2.54 1.212287-.8295254 2.6100209-1.348095 4.07-1.51 2.15 0 3.33 1.25 3.33 2.78z"/><path id="Shape" d="m19 40c-.002587.4842302.1141888.961637.34 1.39-1.1705048.7603942-2.5026676 1.2364112-3.89 1.39-2.15 0-3.34-1.25-3.34-2.78-.0040263-.4349644.0990003-.8642418.3-1.25.6393528-1.0472314 1.8180058-1.6404351 3.04-1.53 1.3873324.1535888 2.7194952.6296058 3.89 1.39-.2258112.428363-.342587.9057698-.34 1.39z"/></g><path id="Shape" d="m25 40c-.0093956 1.1012845-.6138762 2.1113028-1.58 2.64-.4357561.2369221-.9240011.3607025-1.42.36-.4323289.001008-.8594133-.0946589-1.25-.28-1.0672167-.4843321-1.7525896-1.5480234-1.7525896-2.72s.6853729-2.2356679 1.7525896-2.72c.3905867-.1853411.8176711-.281008 1.25-.28.4959989-.0007025.9842439.1230779 1.42.36.9661238.5286972 1.5706044 1.5387155 1.58 2.64z" fill="#ffeb3a"/><path id="Shape" d="m24.71 38.73c-.2631558-.5891035-.7177758-1.0719171-1.29-1.37-.4357561-.2369221-.9240011-.3607025-1.42-.36-.4323289-.001008-.8594133.0946589-1.25.28-.086.038-.163.089-.244.134.9207197.5357981 1.4871186 1.520728 1.4871186 2.586s-.5663989 2.0502019-1.4871186 2.586c.081.045.158.1.244.134.3905867.1853411.8176711.281008 1.25.28.4959989.0007025.9842439-.1230779 1.42-.36 1.4076721-.7475953 1.976432-2.471511 1.29-3.91z" fill="#fdd834"/></g><g id="Layer_2" fill="#000"><path id="Shape" d="m55 10h-5v-6c0-2.209139-1.790861-4-4-4h-32c-2.209139 0-4 1.790861-4 4v6h-5c-2.76005315.0033061-4.99669388 2.2399468-5 5 0 7.08 1.087 15.285 5.658 20.648 1.81322972 2.0075572 4.04277991 3.5951689 6.533 4.652-.462 2.485 1.362 4.476 4.259 4.476 1.2674466-.1021662 2.4986773-.4726944 3.612-1.087.1135315.1210107.2344283.2348942.362.341-4.515 8.8 6.466 10.729 6.466 3.636-.1061834-1.3244159-.5010994-2.6095144-1.157-3.765.1-.093.186-.194.274-.3 1.156817.6630366 2.4444891 1.0654128 3.773 1.179 7.164 0 5.093-11.129-3.773-6.389-.089-.1-.177-.2-.276-.3.3492199-.6694764.6367408-1.3693672.859-2.091h5.15c.2307944.2936384.4771471.5747075.738.842 1.915474 1.5869428 4.1713412 2.7104276 6.592 3.283-.0935053.5799217-.0935053 1.1710783 0 1.751-2.4168659.5778454-4.6702554 1.6988973-6.589 3.278-3.358 3.371-2.766 6.976-.688 9.053 2.235 2.235 5.847 2.505 9.054-.69 1.5791567-1.9178157 2.699931-4.1706506 3.277-6.587.5802978.0929962 1.1717022.0929962 1.752 0 .5772229 2.4167904 1.6983498 4.6699887 3.278 6.588 3.209 3.2 6.823 2.92 9.053.689 2.078-2.077 2.67-5.682-.69-9.054-1.9180658-1.5787709-4.1708075-2.6994987-6.587-3.277.0929962-.5802978.0929962-1.1717022 0-1.752 2.4168659-.5778454 4.6702554-1.6988973 6.589-3.278 3.262-3.275 2.792-6.765.858-8.867 1.1157249-4.2349168 1.6615386-8.5997447 1.623-12.979-.0033061-2.7600532-2.2399468-4.9966939-5-5zm-43-6c0-1.1045695.8954305-2 2-2h32c1.1045695 0 2 .8954305 2 2v6h-36zm-10 11c0-1.6568542 1.34314575-3 3-3h50c1.6568542 0 3 1.3431458 3 3 0 .87 0 1.59-.078 3h-55.844c-.078-1.438-.078-2.2-.078-3zm.237 5h55.526c-.1953395 2.2534933-.5630828 4.488704-1.1 6.686-2.327-1.15-5.186-.517-7.507 1.8-1.5791567 1.9178157-2.699931 4.1706506-3.277 6.587-.5802978-.0929962-1.1717022-.0929962-1.752 0-.5772229-2.4167904-1.6983498-4.6699887-3.278-6.588-3.371-3.36-6.976-2.767-9.053-.689-1.6458591 1.6193582-2.1291091 4.0828612-1.217 6.204h-3.714c-.3-5.345-7.2-5.361-7.5 0h-12.465c-3.186-3.963-4.151-9.016-4.663-14zm22.763 21c0 1.1045695-.8954305 2-2 2s-2-.8954305-2-2 .8954305-2 2-2 2 .8954305 2 2zm-4.938-2.693c-1.1133227-.6143056-2.3445534-.9848338-3.612-1.087-1.2543991-.0544688-2.4746806.4166823-3.367 1.3-1.5027714-.6398165-2.9079123-1.4881526-4.174-2.52h10.727c.2052953.6768962.4689512 1.3346978.788 1.966-.1275717.1061058-.2484685.2199893-.362.341zm-3.612 4.473c-2.149 0-2.7-1.52-2.155-2.564.4723293-.7129889 1.3055775-1.099647 2.155-1 .9367887.1077265 1.8436519.3967679 2.67.851-.1600002.6089996-.1600002 1.2490004 0 1.858-.8260565.4556271-1.7329347.7460319-2.67.855zm8.44 4.89c0 1.437-.682 2.33-1.78 2.33s-1.77-.893-1.77-2.33c.1076171-.9653233.4057063-1.8996987.877-2.749.5834252.1217682 1.1874845.10257 1.762-.056.4885718.8645029.7983752 1.8183981.911 2.805zm4.89-8.45c1.437 0 2.33.682 2.33 1.78s-.893 1.78-2.33 1.78c-1.0108281-.1207383-1.9865746-.445647-2.868-.955.1175235-.5437219.1175235-1.1062781 0-1.65.8814254-.509353 1.8571719-.8342617 2.868-.955zm-7.562-2.141c-.3717446-.7180241-.6493663-1.4809796-.826-2.27-.246-1.27.3-2.809 1.718-2.809 1.439 0 1.974 1.58 1.728 2.807-.1819945.8107531-.471206 1.5936419-.86 2.328-.5738598-.1584014-1.1772311-.1775995-1.76-.056zm11.682-1.642c-2.33-2.355-2.2-4.72-.694-6.23 1.679-1.679 4.123-1.406 6.226.69 1.3442037 1.6995923 2.2950037 3.675986 2.784 5.787-1.0819922.5674839-1.9655161 1.4510078-2.533 2.533-2.1109267-.4836243-4.0868742-1.4335004-5.783-2.78zm5.534 16.663c-2.1 2.1-4.549 2.37-6.227.691s-1.406-4.122.69-6.226c1.699666-1.3438747 3.6760598-2.2943333 5.787-2.783.5678014 1.0815077 1.4512682 1.9646256 2.533 2.532-.4888683 2.1105661-1.439314 4.0865915-2.783 5.786zm2.737-8.274c-1.5616316-1.5622644-1.5612896-4.0946297.0007639-5.6564722 1.5620534-1.5618426 4.0944188-1.5618426 5.6564722 0 1.5620535 1.5618425 1.5623955 4.0942078.0007639 5.6564722-1.5832893 1.5104021-4.0736433 1.5112824-5.658.002zm13.929 2.74c2.1 2.1 2.369 4.549.691 6.227s-4.121 1.407-6.224-.693c-1.3442037-1.6995923-2.2950037-3.675986-2.784-5.787 1.0817318-.5673744 1.9651986-1.4504923 2.533-2.532 2.1100428.4897102 4.0853776 1.4408353 5.784 2.785zm0-11.133c-1.699666 1.3438747-3.6760598 2.2943333-5.787 2.783-.5678014-1.0815077-1.4512682-1.9646256-2.533-2.532.4901501-2.109888 1.4412307-4.0851303 2.785-5.784 2.307-2.3 4.756-2.163 6.228-.691 1.678 1.676 1.407 4.12-.693 6.224z"/><path id="Shape" d="m5 16h2c.55228475 0 1-.4477153 1-1s-.44771525-1-1-1h-2c-.55228475 0-1 .4477153-1 1s.44771525 1 1 1z"/><path id="Shape" d="m11 16h17c.5522847 0 1-.4477153 1-1s-.4477153-1-1-1h-17c-.5522847 0-1 .4477153-1 1s.4477153 1 1 1z"/></g></g></svg>