<svg height="512" viewBox="0 0 56 60" width="512" xmlns="http://www.w3.org/2000/svg"><g id="054---Nose-Strip" fill="none" fill-rule="evenodd"><g id="Layer_3" transform="translate(1 1)"><path id="Shape" d="m9.23 35.12c-.97792308 1.0644227-1.73578312 2.3116632-2.23 3.67-1.44220692 4.2411564-.39666038 8.9326125 2.71 12.16 1.7238628 1.8740459 3.9208886 3.2489142 6.36 3.98" stroke="#000" stroke-linecap="round" stroke-linejoin="round" stroke-width="2"/><g fill-rule="nonzero"><path id="Shape" d="m50.82 44.73c-2.0030333 2.6857213-5.251784 4.145579-8.59 3.86-1.23-.07-2.56-.31-3.9-.51-3.33 1.92-4.37 6.22-5.04 8.53-.252403.8352593-1.0275245 1.4023219-1.9 1.39h-29.39c-1.10320187-.0032948-1.9967052-.8967981-2-2v-54c.0032948-1.10320187.89679813-1.9967052 2-2h26.05c1.0546313-.00392426 1.9284071.81716147 1.99 1.87.1983146 2.75646467.7771382 5.47222445 1.72 8.07.05.14.1.28.16.42-.09-.02-.17-.05-.26-.07-9.06-2.25-13.91-.55-17.12 4.03-3.34 4.78 3.99 18.34 10.06 13.74 5.74-4.35 14.41-4.35 17.88-4.63 3.32 2.42 6.82 4.95 9.05 8.46 2.65 4.15 2.05 8.88-.71 12.84z" fill="#ffe0b2"/><path id="Shape" d="m27.04 1.87c.1921485 2.6614574.741406 5.28497779 1.633 7.8.943.157 1.934.359 2.987.621.09.02.17.05.26.07-.06-.14-.11-.28-.16-.42-.9428618-2.59777555-1.5216854-5.31353533-1.72-8.07-.0610831-1.05323315-.9350042-1.87489468-1.99-1.871l-3-.00001401c1.0546313-.00391025 1.9284071.81717548 1.99 1.87001401z" fill="#dfc49c"/><path id="Shape" d="m35.33 48.08c-3.33 1.92-4.37 6.22-5.04 8.53-.252403.8352593-1.0275245 1.4023219-1.9 1.39h3c.8724755.0123219 1.647597-.5547407 1.9-1.39.633-2.181 1.62-6.111 4.528-8.162-.811-.105-1.646-.242-2.488-.368z" fill="#dfc49c"/><path id="Shape" d="m51.53 31.89c-2.23-3.51-5.73-6.04-9.05-8.46-.717.058-1.664.105-2.753.18 3.245 2.366 6.628 4.856 8.8 8.28 2.65 4.15 2.05 8.88-.71 12.84-1.5541806 2.1316635-3.9399062 3.5037101-6.564 3.775.33.037.656.067.974.085 3.338216.285579 6.5869667-1.1742787 8.59-3.86 2.763-3.96 3.363-8.69.713-12.84z" fill="#dfc49c"/><path id="Shape" d="m42.48 23.43c-.68.05-1.56.1-2.59.17-4.17.28-10.68.96-15.29 4.46-6.07 4.6-13.4-8.96-10.06-13.74 2.86-4.08 7.01-5.87 14.29-4.62.18.02.36.06.55.09.73.14 1.49.3 2.28.5.09.02.17.05.26.07v.01c.6390562.2268102 1.1820735.6640449 1.54 1.24 1.224511 2.039517 2.594743 3.9879202 4.1 5.83 1.54 1.84 3.3 3.85 5.49 4.9 1.56.76 1.08.95-.57 1.09z" fill="#009688"/><path id="Shape" d="m42.48 23.43c-.68.05-1.56.1-2.59.17-1.96-1.96-4.14-4.74-5.2-6-1.56-1.88-4.12-5.3-5.86-7.9.18.02.36.06.55.09.73.14 1.49.3 2.28.5.09.02.17.05.26.07v.01c.6390562.2268102 1.1820735.6640449 1.54 1.24 1.224511 2.039517 2.594743 3.9879202 4.1 5.83 1.54 1.84 3.3 3.85 5.49 4.9 1.56.76 1.08.95-.57 1.09z" fill="#00695c"/></g></g><g id="Layer_2" fill="#000" fill-rule="nonzero"><path id="Shape" d="m9.493 35.444c-6.451 7.047-2.544 18.435 7.284 21.442.5248665.1524817 1.0749222-.144691 1.2350836-.6672652.1601613-.5225742-.128914-1.0769282-.6490836-1.2447348-8.563-2.621-11.763-12.32-6.396-18.174.3733445-.4070339.3460338-1.0396555-.061-1.413-.4070339-.3733444-1.0396555-.3460338-1.413.061z"/><path id="Shape" d="m45.7 24.82c.1449325-.1577761.2414342-.3539037.278-.565.2-.991-.863-1.5-1.495-1.811-3.4-1.643-7.2-7.142-9.176-10.354-.3861538-.6280894-.9403919-1.1355637-1.6-1.465-.917996-2.51345193-1.4801028-5.1428997-1.67-7.812-.0947081-1.58021917-1.4039453-2.81319007-2.987-2.813h-26.05c-1.65685425 0-3 1.34314575-3 3v54c0 1.6568542 1.34314575 3 3 3h29.39c1.316491.0073445 2.480823-.8525763 2.861-2.113.8-2.792 1.773-6.1 4.329-7.762 1.189.187 2.434.4 3.592.463 3.6894763.3292602 7.2819169-1.2977344 9.468-4.288 3.2-4.588 3.464-9.673.734-13.948-2.0726062-2.9615965-4.6742137-5.5150637-7.674-7.532zm-7.9-5.741c4.1 4.927 5.154 4.393 4.219 4.445-4.089.248-11.7.71-17.017 4.742-4.956 3.75-11.452-8.349-8.636-12.371 3.764-5.378 9.632-5.229 16.06-3.636 1.507.374 1.328 1.973 5.374 6.82zm13.2 26.08c-1.8132752 2.3910272-4.7249088 3.6866381-7.715 3.433-.935-.052-1.935-.211-2.994-.379-4.48-.709-6.286-.852-11.51 1.691-15.391 7.473-23.789-11.437-7.96-13.533.3618702-.0377314.6746941-.2690271.816829-.6039471.1421349-.3349199.0911506-.7206103-.1331275-1.0070942s-.5864567-.4285513-.9457015-.3709587c-17.359 2.297-10.659 23.051 5.701 18.667 3.591-.966 6.2-3.537 10.631-3.259-1.995 2.145-2.817 4.927-3.562 7.536-.1308968.4056396-.5128803.6769741-.939.667h-29.39c-.55228475 0-1-.4477153-1-1v-54c0-.55228475.44771525-1 1-1h26.05c.5256611-.00196463.9612072.40723794.992.932.1692956 2.39386476.6252211 4.75876816 1.358 7.044-8.02-1.687-13.2-.191-16.677 4.772-3.308 4.724 2.1 16.259 8.255 16.259 4.339 0 3.012-4.506 19.157-5.486.388-.024.73-.046 1.049-.068 3.178 2.316 6.438 4.724 8.5 7.975 2.278 3.563 2.028 7.839-.684 11.731z"/><circle id="Oval" cx="17" cy="41" r="1"/><circle id="Oval" cx="16" cy="45" r="1"/><circle id="Oval" cx="19" cy="48" r="1"/><circle id="Oval" cx="20" cy="44" r="1"/><circle id="Oval" cx="45" cy="31" r="1"/><circle id="Oval" cx="50" cy="38" r="1"/><circle id="Oval" cx="49" cy="42" r="1"/><circle id="Oval" cx="46" cy="39" r="1"/><circle id="Oval" cx="44" cy="35" r="1"/><circle id="Oval" cx="48" cy="34" r="1"/><path id="Shape" d="m19.445 15.168c-1.045367.6534351-1.7749488 1.7090932-2.0166459 2.9179571-.2416971 1.208864.0258919 2.4638938.7396459 3.4690429.1982824.297245.5400812.4661282.8966441.4430331s.6737195-.2346599.832-.555c.1582805-.32034.1336383-.7007881-.0646441-.9980331-.4197432-.5644551-.5801541-1.2805542-.4413228-1.9701336.1388312-.6895794.5638537-1.2878147 1.1693228-1.6458664.2967091-.1991756.4646207-.5415138.4404841-.8980592-.0241366-.3565453-.2366544-.6731302-.5575-.8305s-.701275-.1316164-.9979841.0675592z"/></g></g></svg>