<svg height="512" viewBox="0 0 60 56" width="512" xmlns="http://www.w3.org/2000/svg"><g id="056---Droplett" fill="none"><g id="Layer_3" transform="translate(1 4)"><path id="Shape" d="m58 42c0 4.97-12.98 9-29 9s-29-4.03-29-9c0-4.07 8.71-7.51 20.66-8.62.0105265.0391587.0274184.0763208.05.11-8.36 1.02-14.27 3.55-14.27 6.51 0 3.87 10.1 7 22.56 7s22.56-3.13 22.56-7c0-2.96-5.91-5.49-14.27-6.51.0225816-.0336792.0394735-.0708413.05-.11 11.95 1.11 20.66 4.55 20.66 8.62z" fill="#3f51b5"/><path id="Shape" d="m37.34 33.38c-.0105265.0391587-.0274184.0763208-.05.11 3.3970956.345729 6.7322971 1.1465675 9.916 2.381 4.827 1.607 7.794 3.759 7.794 6.129 0 4.814-12.178 8.746-27.5 8.988.4973333.008.9973333.012 1.5.012 16.02 0 29-4.03 29-9 0-4.07-8.71-7.51-20.66-8.62z" fill="#283593"/><path id="Shape" d="m51.56 40c0 3.87-10.1 7-22.56 7s-22.56-3.13-22.56-7c0-2.96 5.91-5.49 14.27-6.51.0105198.0454539.0273498.0892117.05.13-5.22.86-8.76 2.5-8.76 4.38 0 2.76 7.61 5 17 5s17-2.24 17-5c0-1.88-3.54-3.52-8.76-4.38.0226502-.0407883.0394802-.0845461.05-.13 8.36 1.02 14.27 3.55 14.27 6.51z" fill="#02a9f4"/><path id="Shape" d="m37.29 33.49c-.0105198.0454539-.0273498.0892117-.05.13 2.629555.3006686 5.1689893 1.1397712 7.46 2.465 2.433 1.115 3.86 2.464 3.86 3.915 0 3.713-9.3 6.743-21.06 6.983.5.01 1 .017 1.5.017 12.46 0 22.56-3.13 22.56-7 0-2.96-5.91-5.49-14.27-6.51z" fill="#0377bc"/><path id="Shape" d="m46 38c0 2.76-7.61 5-17 5s-17-2.24-17-5c0-1.88 3.54-3.52 8.76-4.38h.01c1.4317226 3.2683739 4.6617935 5.3798197 8.23 5.3798197s6.7982774-2.1114458 8.23-5.3798197h.01c5.22.86 8.76 2.5 8.76 4.38z" fill="#00bcd4"/><path id="Shape" d="m37.24 33.62h-.01c-.083.192-.193.367-.289.552 3.702.921 6.059 2.294 6.059 3.828 0 2.611-6.814 4.754-15.5 4.978.5.012.994.022 1.5.022 9.39 0 17-2.24 17-5 0-1.88-3.54-3.52-8.76-4.38z" fill="#00838f"/><path id="Shape" d="m38 30c.0033715 1.1590073-.2208705 2.3073982-.66 3.38-.0105265.0391587-.0274184.0763208-.05.11-.0105198.0454539-.0273498.0892117-.05.13h-.01c-1.4317226 3.2683739-4.6617935 5.3798197-8.23 5.3798197s-6.7982774-2.1114458-8.23-5.3798197h-.01c-.0226502-.0407883-.0394802-.0845461-.05-.13-.0225816-.0336792-.0394735-.0708413-.05-.11-.4391295-1.0726018-.6633715-2.2209927-.66-3.38 0-4.97 9-18 9-18s9 13.03 9 18z" fill="#02a9f4"/><path id="Shape" d="m29 12s-.606.878-1.5 2.259c2.56 3.952 7.5 12.057 7.5 15.741-.0023876 4.3890363-3.1720079 8.1355276-7.5 8.865 2.6134702.4592389 5.295993-.2647537 7.3235143-1.9765609 2.0275213-1.7118073 3.1910331-4.2349668 3.1764857-6.8884391 0-4.971-9-18-9-18z" fill="#0377bc"/><circle id="Oval" cx="29" cy="3" fill="#02a9f4" r="3"/></g><g id="Layer_2" fill="#000"><path id="Shape" d="m39.668 36.51c.2170872-.8191178.3286567-1.6626101.332-2.51 0-5.134-8.238-17.208-9.177-18.568-.1964761-.2556332-.5005854-.4054536-.823-.4054536s-.6265239.1498204-.823.4054536c-.939 1.36-9.177 13.434-9.177 18.568.0033433.8473899.1149128 1.6908822.332 2.51-9.65 1.057-20.332 4.103-20.332 9.49 0 6.5 15.457 10 30 10s30-3.5 30-10c0-5.387-10.682-8.433-20.332-9.49zm-.868 2.227c5.224.963 7.2 2.491 7.2 3.263 0 1.4-5.495 4-16 4s-16-2.6-16-4c0-.772 1.976-2.3 7.2-3.263 1.7456535 3.234232 5.1247364 5.2502632 8.8 5.2502632s7.0543465-2.0160312 8.8-5.2502632zm-26.471 2.007c-.2124349.3847823-.3255162.8164845-.329 1.256 0 7.986 36 7.98 36 0-.0034838-.4395155-.1165651-.8712177-.329-1.256 2.55 1.061 3.889 2.256 3.889 3.256 0 2.506-8.2 6-21.56 6s-21.56-3.494-21.56-6c0-1 1.339-2.195 3.889-3.256zm17.671-22.958c2.816 4.243 8 12.768 8 16.214 0 4.418278-3.581722 8-8 8s-8-3.581722-8-8c0-3.446 5.184-11.971 8-16.214zm0 36.214c-16.5 0-28-4.216-28-8 0-1.473 1.925-3.17 5.593-4.624-.70711341.6940964-1.11998156 1.6337026-1.153 2.624 0 5.2 12.139 8 23.56 8s23.56-2.8 23.56-8c-.0330184-.9902974-.4458866-1.9299036-1.153-2.624 3.668 1.454 5.593 3.151 5.593 4.624 0 3.784-11.5 8-28 8z"/><path id="Shape" d="m29 39c.5522847 0 1-.4477153 1-1s-.4477153-1-1-1c-.8089353.042951-1.5979914-.2600057-2.1703236-.8332918s-.8739744-1.3628456-.8296764-2.1717082c-.0013807-.5522847-.4502153-.9988807-1.0025-.9975s-.9988807.4502153-.9975 1.0025c-.0507877 1.3410078.4596689 2.6425 1.4085844 3.5914156.9489156.9489155 2.2504078 1.4593721 3.5914156 1.4085844z"/><path id="Shape" d="m34 7c0-2.209139-1.790861-4-4-4s-4 1.790861-4 4 1.790861 4 4 4 4-1.790861 4-4zm-6 0c0-1.1045695.8954305-2 2-2s2 .8954305 2 2-.8954305 2-2 2-2-.8954305-2-2z"/><path id="Shape" d="m22 21v-20c0-.55228475-.4477153-1-1-1s-1 .44771525-1 1v20c0 .5522847.4477153 1 1 1s1-.4477153 1-1z"/><path id="Shape" d="m17 33v-27c0-.55228475-.4477153-1-1-1s-1 .44771525-1 1v27c0 .5522847.4477153 1 1 1s1-.4477153 1-1z"/><path id="Shape" d="m45 33v-27c0-.55228475-.4477153-1-1-1s-1 .44771525-1 1v27c0 .5522847.4477153 1 1 1s1-.4477153 1-1z"/><path id="Shape" d="m40 21v-20c0-.55228475-.4477153-1-1-1s-1 .44771525-1 1v20c0 .5522847.4477153 1 1 1s1-.4477153 1-1z"/></g></g></svg>