<svg height="512" viewBox="0 0 47 60" width="512" xmlns="http://www.w3.org/2000/svg"><g id="059---Medical-Cream" fill="none"><g id="Layer_3" transform="translate(1 1)"><path id="Shape" d="m21 34.21v-8.21c-.0032948-1.1032019-.8967981-1.9967052-2-2h-12c-1.10320187.0032948-1.9967052.8967981-2 2v22c.0032948 1.1032019.89679813 1.9967052 2 2h11.35c1.1473885 2.415705 2.9621764 4.4525702 5.23 5.87-1.1373476 1.3513319-2.813745 2.1309665-4.58 2.13h-12c-2.53885074-.0070726-4.79978284-1.6077325-5.65-4-.23335616-.6409013-.35183789-1.3179398-.35-2v-24.5c-.00378515-4.4074949 2.07173295-8.5585312 5.6-11.2l.4-.3h12l.4.3c3.528267 2.6414688 5.6037852 6.7925051 5.6 11.2v3.85c-1.4945522.7048978-2.8496064 1.6737615-4 2.86z" fill="#ffdc00"/><path id="Shape" d="m19 12v4h-12v-4c.0032948-1.1032019.89679813-1.9967052 2-2h8c1.1032019.0032948 1.9967052.8967981 2 2z" fill="#7f8e94"/><path id="Shape" d="m23.42 8.41c-.3751365.37555409-.8841815.58657331-1.415.58657331s-1.0398635-.21101922-1.415-.58657331l-4.28-4.41h-14.31c-1.1045695 0-2-.8954305-2-2s.8954305-2 2-2h15.12c.5374654.00199667 1.052021.21789411 1.43.6l4.86 4.99c.3757844.37235968.5880173.87890595.5898933 1.40792591.0018759.52901996-.2067592 1.03705867-.5798933 1.41207409z" fill="#9e9e9e"/><path id="Shape" d="m23.41 5.59-4.86-4.99c-.377979-.38210589-.8925346-.59800333-1.43-.6h-3c.5374654.00199667 1.052021.21789411 1.43.6l4.86 4.99c.7462593.74145162.7857098 1.93592371.09 2.725l.092.1c.5037445.50374449 1.2379681.70047912 1.9260958.51609584.6881278-.18438327 1.2256168-.72187224 1.41-1.41000001.1843833-.68812777-.0123513-1.42235135-.5160958-1.92609583z" fill="#707070"/><path id="Rectangle-path" d="m11 4h4v6h-4z" fill="#37474f"/><path id="Shape" d="m21 34.21c-4.1055221 4.1876675-5.1634769 10.4914809-2.65 15.79h-11.35c-1.10320187-.0032948-1.9967052-.8967981-2-2v-22c.0032948-1.1032019.89679813-1.9967052 2-2h12c1.1032019.0032948 1.9967052.8967981 2 2z" fill="#f5f5f5"/><path id="Shape" d="m21 26c-.0032948-1.1032019-.8967981-1.9967052-2-2h-3c1.1032019.0032948 1.9967052.8967981 2 2v8.21c-4.1055221 4.1876675-5.1634769 10.4914809-2.65 15.79h3c-2.5134769-5.2985191-1.4555221-11.6023325 2.65-15.79z" fill="#cfd8dc"/><path id="Shape" d="m31 30c-2.0757564-.0040476-4.1260204.4572618-6 1.35-1.4945522.7048978-2.8496064 1.6737615-4 2.86-4.6582911 4.7633541-5.3127551 12.1502679-1.5644967 17.6584235s10.8599344 7.6102696 17.0004673 5.0251052 9.6072958-9.1408011 8.2872996-15.6712551c-1.3199962-6.5304539-7.0607473-11.2249822-13.7232702-11.2222736zm0 24c-5.5228475 0-10-4.4771525-10-10s4.4771525-10 10-10 10 4.4771525 10 10c-.0088096 5.5191943-4.4808057 9.9911904-10 10z" fill="#008a00"/><path id="Shape" d="m31 30c-.4994783.0011983-.9985313.0292387-1.495.084 7.0930282.7807959 12.4637807 6.7715168 12.4681397 13.907389.0043589 7.1358723-5.3590707 13.1331501-12.4511397 13.922611.4908284.0544383.9841702.0831442 1.478.086 7.7319864-.0000002 13.9999997-6.2680136 13.9999997-14s-6.2680133-13.9999998-13.9999997-14z" fill="#007900"/><circle id="Oval" cx="31" cy="44" fill="#60a917" r="10"/><path id="Shape" d="m31 34c-.5024253.0040337-1.0038371.045818-1.5.125 4.8867805.7347638 8.5012202 4.9332896 8.5012202 9.875s-3.6144397 9.1402362-8.5012202 9.875c3.710451.5677523 7.4261819-.9912669 9.6206899-4.0365787s2.4977618-7.0634251.7851783-10.4036118c-1.7125836-3.3401866-5.152234-5.4392346-8.9058682-5.4348095z" fill="#549414"/><path id="Shape" d="m37 43v2c0 .5522847-.4477153 1-1 1h-3v3c0 .5522847-.4477153 1-1 1h-2c-.5522847 0-1-.4477153-1-1v-3h-3c-.5522847 0-1-.4477153-1-1v-2c0-.5522847.4477153-1 1-1h3v-3c0-.5522847.4477153-1 1-1h2c.5522847 0 1 .4477153 1 1v3h3c.5522847 0 1 .4477153 1 1z" fill="#f5f5f5"/></g><g id="Layer_2" fill="#000"><path id="Shape" d="m27 30.875v-2.375c-.0087725-4.7192843-2.229836-9.1614114-6-12v-3.5c0-1.6568542-1.3431458-3-3-3h-1v-3.883l3.883 4.005c1.1812011 1.0919283 3.0133982 1.0579099 4.1532514-.0771135 1.1398533-1.13502334 1.1816514-2.96705944.0947486-4.1528865l-4.867-4.992c-.5667598-.57468105-1.3398609-.89875696-2.147-.9h-15.117c-1.65685423.00000002-2.99999996 1.34314577-2.99999996 3s1.34314573 2.99999998 2.99999996 3h8v4h-1c-1.65685425 0-3 1.3431458-3 3v3.5c-3.77041026 2.8383834-5.99153941 7.2806417-6 12 0 26.377-.17 25.211.407 26.836.99808943 2.7865105 3.63316152 4.6506052 6.593 4.664h12c1.7653243-.000489 3.4648362-.6701453 4.756-1.874 6.0366409 3.3371264 13.5712753 2.1247026 18.2563214-2.937687s5.3113516-12.668205 1.51753-18.4287921-11.0286319-8.1892096-17.5298514-5.8845209zm-25-27.875c0-.55228475.44771525-1 1-1h15.117c.2693277-.00049973.5274707.10766076.716.3l4.875 5c.2810813.28674523.3633909.71380736.2090167 1.0844799-.1543742.37067255-.5154903.61306092-.9170167.6155201-.2613545.00281385-.5131332-.09825729-.7-.281l-4.273-4.419c-.1887717-.19258788-.4473256-.30076943-.717-.3h-14.31c-.26521649 0-.5195704-.10535684-.70710678-.29289322s-.29289322-.44189029-.29289322-.70710678zm11 3h2v4h-2zm-4 7c0-.5522847.44771525-1 1-1h8c.5522847 0 1 .4477153 1 1v3h-10zm11 45h-12c-1.56885788-.0043974-3.04468773-.7449041-3.986-2h8.986c.5522847 0 1-.4477153 1-1s-.4477153-1-1-1h-9.884c-.168-.8-.116 1.327-.116-25.5.00725063-4.1488107 1.98710908-8.0469006 5.333-10.5 12.585 0 11.276-.043 11.469.1 3.2674036 2.4599588 5.1917336 6.3100997 5.198 10.4v3.243c-.6993474.3751981-1.368079.8048581-2 1.285v-6.028c0-1.6568542-1.3431458-3-3-3h-12c-1.65685425 0-3 1.3431458-3 3v22c0 1.6568542 1.34314575 3 3 3h10.743c1.0415807 1.9546015 2.5003872 3.6561441 4.273 4.984-.8671796.659367-1.9266125 1.0162582-3.016 1.016zm1-23.164c-3.7999818 4.0702094-5.0061313 9.9230258-3.125 15.164h-9.875c-.55228475 0-1-.4477153-1-1v-22c0-.5522847.44771525-1 1-1h12c.5522847 0 1 .4477153 1 1zm11 23.164c-7.1797017 0-13-5.8202983-13-13s5.8202983-13 13-13 13 5.8202983 13 13c-.008266 7.1762751-5.8237249 12.991734-13 13z"/><path id="Shape" d="m32 34c-6.0751322 0-11 4.9248678-11 11s4.9248678 11 11 11 11-4.9248678 11-11c-.0071635-6.0721626-4.9278374-10.9928365-11-11zm0 20c-4.9705627 0-9-4.0294373-9-9s4.0294373-9 9-9 9 4.0294373 9 9c-.0055111 4.9682782-4.0317218 8.9944889-9 9z"/><path id="Shape" d="m35 42v-2c0-1.1045695-.8954305-2-2-2h-2c-1.1045695 0-2 .8954305-2 2v2h-2c-1.1045695 0-2 .8954305-2 2v2c0 1.1045695.8954305 2 2 2h2v2c0 1.1045695.8954305 2 2 2h2c1.1045695 0 2-.8954305 2-2v-2h2c1.1045695 0 2-.8954305 2-2v-2c0-1.1045695-.8954305-2-2-2zm2 4h-3c-.5522847 0-1 .4477153-1 1v3h-2v-3c0-.5522847-.4477153-1-1-1h-3v-2h3c.5522847 0 1-.4477153 1-1v-3h2v3c0 .5522847.4477153 1 1 1h3z"/><path id="Shape" d="m10 34c-.55228475 0-1 .4477153-1 1v12c0 .5522847.44771525 1 1 1 .5522847 0 1-.4477153 1-1v-12c0-.5522847-.4477153-1-1-1z"/><path id="Shape" d="m10 28c-.55228475 0-1 .4477153-1 1v2c0 .5522847.44771525 1 1 1 .5522847 0 1-.4477153 1-1v-2c0-.5522847-.4477153-1-1-1z"/></g></g></svg>